<?xml version="1.0" standalone="no"?>
<!DOCTYPE svg PUBLIC "-//W3C//DTD SVG 20010904//EN"
 "http://www.w3.org/TR/2001/REC-SVG-20010904/DTD/svg10.dtd">
<svg version="1.0" xmlns="http://www.w3.org/2000/svg"
 width="563.000000pt" height="563.000000pt" viewBox="0 0 563.000000 563.000000"
 preserveAspectRatio="xMidYMid meet">
<metadata>
Created by potrace 1.11, written by Peter Selinger 2001-2013
</metadata>
<g transform="translate(0.000000,563.000000) scale(0.100000,-0.100000)"
fill="#000000" stroke="none">
<path d="M2469 5566 c-2 -2 -38 -6 -79 -10 -41 -3 -86 -8 -100 -10 -14 -3 -54
-10 -90 -16 -612 -105 -1183 -467 -1496 -950 -95 -146 -152 -256 -211 -408
-42 -110 -114 -368 -127 -457 -3 -22 -8 -53 -11 -70 -14 -80 -17 -103 -21
-140 -2 -22 -6 -67 -10 -100 -13 -124 -19 -502 -9 -625 2 -30 7 -91 10 -135 4
-44 8 -91 10 -105 2 -14 6 -45 10 -70 3 -25 8 -56 10 -70 3 -14 7 -41 10 -60
5 -32 17 -100 31 -175 3 -16 19 -84 35 -150 17 -66 32 -127 34 -135 2 -8 8
-27 14 -43 6 -15 13 -38 15 -50 5 -27 52 -160 72 -204 8 -17 14 -34 14 -38 0
-4 7 -22 15 -41 8 -19 22 -51 31 -71 242 -552 623 -945 1068 -1102 176 -62
308 -84 511 -85 135 -1 275 8 308 19 6 2 30 7 52 10 112 16 300 69 450 128 44
17 82 32 85 32 29 4 321 156 439 228 154 93 418 279 451 317 3 3 30 25 60 50
150 123 384 357 510 510 25 30 47 57 50 60 33 28 253 345 311 447 120 211 244
521 263 658 2 11 6 29 9 40 7 24 14 71 23 150 3 32 8 68 10 79 5 26 5 306 0
361 -12 123 -44 304 -64 370 -6 17 -18 57 -27 90 -39 135 -179 449 -221 496
-8 8 -14 19 -14 22 0 12 -72 120 -141 212 -412 551 -1070 932 -1764 1021 -27
3 -59 8 -70 11 -25 5 -450 14 -456 9z"/>
</g>
</svg>
