<svg width="166" height="167" viewBox="0 0 166 167" fill="none" xmlns="http://www.w3.org/2000/svg">
<path d="M58.3009 33.574C57.5291 33.9672 56.8615 34.5376 56.3526 35.2385C55.8437 35.9394 55.5081 36.7509 55.3731 37.6065C55.2382 38.462 55.3078 39.3374 55.5762 40.1609C55.8446 40.9844 56.3043 41.7326 56.9175 42.3443L72.6253 58.0036C75.3828 60.76 79.1221 62.3084 83.021 62.3084C86.9199 62.3084 90.6593 60.76 93.4168 58.0036L109.069 42.3443C109.682 41.7326 110.142 40.9844 110.411 40.1609C110.679 39.3374 110.749 38.462 110.614 37.6065C110.479 36.7509 110.143 35.9394 109.634 35.2385C109.125 34.5376 108.458 33.9672 107.686 33.574C100.018 29.7353 91.5613 27.7367 82.9864 27.7367C74.4116 27.7367 65.9547 29.7353 58.287 33.574H58.3009Z" fill="#409DF3"/>
<path d="M42.2746 109.118L57.9339 93.4447C60.6903 90.6872 62.2387 86.9479 62.2387 83.049C62.2387 79.15 60.6903 75.4107 57.9339 72.6532L42.2746 57.0146C41.6622 56.4028 40.9139 55.9445 40.0906 55.6769C39.2674 55.4093 38.3926 55.3402 37.5375 55.475C36.6824 55.6099 35.8714 55.945 35.1705 56.4529C34.4695 56.9609 33.8986 57.6274 33.5043 58.398C29.6656 66.0656 27.667 74.5225 27.667 83.0974C27.667 91.6723 29.6656 100.129 33.5043 107.797C33.9034 108.564 34.4782 109.226 35.1819 109.729C35.8855 110.231 36.6981 110.561 37.5532 110.689C38.4084 110.818 39.2819 110.743 40.1024 110.47C40.9229 110.197 41.6672 109.733 42.2746 109.118Z" fill="#409DF3"/>
<path d="M107.699 132.565C108.471 132.172 109.138 131.602 109.647 130.901C110.156 130.2 110.492 129.388 110.627 128.533C110.762 127.677 110.692 126.802 110.424 125.978C110.155 125.155 109.696 124.407 109.082 123.795L93.3746 108.136C90.6171 105.379 86.8778 103.831 82.9789 103.831C79.08 103.831 75.3406 105.379 72.5831 108.136L56.9515 123.795C56.3382 124.407 55.8786 125.155 55.6101 125.978C55.3417 126.802 55.2721 127.677 55.4071 128.533C55.542 129.388 55.8777 130.2 56.3865 130.901C56.8954 131.602 57.5631 132.172 58.3348 132.565C66.0025 136.404 74.4593 138.403 83.0342 138.403C91.6091 138.403 100.066 136.404 107.734 132.565H107.699Z" fill="#409DF3"/>
<path d="M138.333 83.0695C138.344 74.4933 136.345 66.0339 132.496 58.3701C132.101 57.5995 131.53 56.9331 130.83 56.4251C130.129 55.9171 129.318 55.5821 128.462 55.4472C127.607 55.3123 126.733 55.3815 125.909 55.6491C125.086 55.9166 124.338 56.375 123.725 56.9868L108.066 72.6945C105.31 75.4521 103.761 79.1914 103.761 83.0903C103.761 86.9892 105.31 90.7285 108.066 93.486L123.725 109.138C124.337 109.752 125.085 110.211 125.909 110.48C126.732 110.748 127.608 110.818 128.463 110.683C129.319 110.548 130.13 110.212 130.831 109.703C131.532 109.195 132.102 108.527 132.496 107.755C136.343 100.096 138.342 91.6411 138.333 83.0695Z" fill="#409DF3"/>
<path d="M145.25 138.403H124.376C112.45 147.381 97.9273 152.236 83 152.236H145.25C147.084 152.236 148.844 151.508 150.141 150.21C151.438 148.913 152.167 147.154 152.167 145.32C152.167 143.485 151.438 141.726 150.141 140.429C148.844 139.132 147.084 138.403 145.25 138.403Z" fill="#409DF3"/>
<path d="M83.0002 89.9863C86.8201 89.9863 89.9168 86.8896 89.9168 83.0696C89.9168 79.2497 86.8201 76.153 83.0002 76.153C79.1802 76.153 76.0835 79.2497 76.0835 83.0696C76.0835 86.8896 79.1802 89.9863 83.0002 89.9863Z" fill="#409DF3"/>
<path opacity="0.35" d="M83.0002 152.236C121.2 152.236 152.167 121.269 152.167 83.0696C152.167 44.8699 121.2 13.903 83.0002 13.903C44.8005 13.903 13.8335 44.8699 13.8335 83.0696C13.8335 121.269 44.8005 152.236 83.0002 152.236Z" fill="#409DF3"/>
</svg>
