<svg width="24" height="24" viewBox="0 0 24 24" fill="none" xmlns="http://www.w3.org/2000/svg">
<path opacity="0.35" d="M12 13C14.2091 13 16 11.2091 16 9C16 6.79086 14.2091 5 12 5C9.79086 5 8 6.79086 8 9C8 11.2091 9.79086 13 12 13Z" fill="#FB6F7B"/>
<path opacity="0.35" d="M20.8991 19.081L20.4211 17.885C19.9651 16.747 18.8621 16 17.6351 16H6.36511C5.13811 16 4.03511 16.747 3.58011 17.886L3.10211 19.082C2.73411 20 3.41111 21 4.40011 21H19.6001C20.5891 21 21.2661 20 20.8991 19.081Z" fill="#FB6F7B"/>
<path d="M12 2C8.134 2 5 5.134 5 9C5 11.767 7.801 15.585 9.859 18.017C10.978 19.339 13.021 19.339 14.14 18.017C16.199 15.585 19 11.767 19 9C19 5.134 15.866 2 12 2ZM12 11.5C10.619 11.5 9.5 10.381 9.5 9C9.5 7.619 10.619 6.5 12 6.5C13.381 6.5 14.5 7.619 14.5 9C14.5 10.381 13.381 11.5 12 11.5Z" fill="#FB6F7B"/>
</svg>
