<svg width="128" height="156" viewBox="0 0 128 156" fill="none" xmlns="http://www.w3.org/2000/svg">
<g clip-path="url(#clip0)">
<path d="M115.856 142.14L115.586 141.883C114.446 140.798 113.267 139.675 111.842 138.976C111.721 138.917 111.598 138.861 111.474 138.804C110.917 138.547 110.341 138.283 109.926 137.785C109.087 136.782 109.303 135.362 109.476 134.222C109.632 133.19 109.496 131.712 108.828 130.908C107.69 129.539 106.026 128.598 104.264 128.326C104.09 128.299 103.913 128.278 103.737 128.257C103.144 128.186 102.53 128.113 101.967 127.828C100.756 127.213 100.271 125.928 99.8033 124.686C99.6865 124.377 99.5715 124.07 99.4453 123.777C98.5766 121.762 97.0181 120.232 95.3683 118.613C94.1298 117.396 92.8492 116.139 91.8963 114.661C91.3487 113.813 90.9096 112.89 90.4853 111.997C89.8856 110.737 89.3185 109.546 88.4664 108.52C86.0095 105.561 82.1268 104.899 78.0166 104.199C74.3206 103.568 70.4996 102.916 67.7612 100.444C65.7173 98.5991 64.6252 96.0322 63.5692 93.5492C62.9434 92.0778 62.2963 90.5562 61.459 89.2054C58.6767 84.7186 53.4548 81.8976 48.1724 82.0252C46.7319 82.0595 45.2676 82.3012 43.8524 82.5358C41.9964 82.8425 40.0782 83.1616 38.1576 83.0233C34.0089 82.7273 29.8358 80.2372 26.7093 76.1906C23.9182 72.5772 22.227 68.3008 20.5914 64.1644C20.5274 64.0025 20.6074 63.8199 20.7698 63.7555C20.9333 63.6917 21.1159 63.7715 21.1799 63.9334C22.7988 68.029 24.4729 72.264 27.2101 75.8059C30.2264 79.7101 34.2335 82.1115 38.2027 82.3952C40.0504 82.5275 41.9295 82.2155 43.7487 81.9142C45.1858 81.6766 46.6726 81.4308 48.1576 81.3953C53.6516 81.2701 59.0981 84.201 61.9958 88.8733C62.8593 90.2649 63.5159 91.8095 64.1505 93.3027C65.2273 95.8342 66.2441 98.225 68.1849 99.9777C70.787 102.327 74.5161 102.963 78.1233 103.577C82.1659 104.267 86.3467 104.98 88.9529 108.118C89.8554 109.205 90.4658 110.488 91.056 111.727C91.472 112.602 91.9022 113.505 92.4267 114.32C93.3416 115.74 94.5973 116.972 95.8104 118.164C97.4299 119.755 99.1058 121.399 100.024 123.529C100.154 123.83 100.274 124.146 100.393 124.465C100.839 125.647 101.259 126.764 102.252 127.268C102.714 127.502 103.246 127.565 103.81 127.633C103.993 127.655 104.177 127.677 104.358 127.705C106.271 128 108.078 129.021 109.313 130.508C110.111 131.467 110.282 133.112 110.099 134.318C109.937 135.386 109.752 136.598 110.409 137.384C110.735 137.773 111.222 137.997 111.738 138.235C111.866 138.294 111.995 138.352 112.12 138.415C113.516 139.099 114.659 140.138 115.751 141.173L115.863 141.008C115.961 140.864 116.158 140.827 116.302 140.924C116.446 141.022 116.484 141.218 116.386 141.361L115.856 142.14Z" fill="#FF4945"/>
<path d="M127.407 152.392L122.699 155.965L115.307 146.275L120.015 142.703L127.407 152.392Z" fill="url(#paint0_linear)"/>
<path d="M123.964 151.542L125.158 150.636L124.146 149.309L122.951 150.215L123.964 151.542Z" fill="#EFEFEF"/>
<path d="M121.862 153.138L123.056 152.232L122.044 150.905L120.849 151.811L121.862 153.138Z" fill="#D7D8D9"/>
<path d="M89.8127 109.906C89.5271 109.906 89.3132 109.715 89.3031 109.448C89.3013 109.393 89.2978 109.338 89.2942 109.283C89.2776 109.262 89.264 109.238 89.2533 109.212C89.2148 109.123 89.2225 109.025 89.264 108.944C88.8515 105.421 85.6071 102.746 82.5683 100.502C77.8661 97.0309 73.4631 93.5073 71.2539 88.5809C69.2118 84.0256 69.3061 78.8232 69.3967 73.7928C69.504 67.8358 69.6065 62.2092 66.48 57.5493C65.712 56.4053 64.7425 55.3322 63.8044 54.294C62.0012 52.2985 60.1363 50.235 59.6024 47.5564C59.568 47.3856 59.6794 47.2202 59.8507 47.1865C60.0219 47.1493 60.1879 47.2633 60.2216 47.4341C60.7218 49.9419 62.4462 51.8511 64.2738 53.8726C65.2267 54.9274 66.2116 56.0176 67.005 57.2001C70.2412 62.0242 70.1327 68.0131 70.0284 73.8052C69.939 78.767 69.8459 83.8979 71.8305 88.325C73.9763 93.112 78.3123 96.5776 82.944 99.9978C86.0634 102.301 89.392 105.052 89.8785 108.769C89.9638 108.79 90.0462 108.825 90.1197 108.874C90.2998 108.995 90.4018 109.18 90.4 109.383C90.397 109.672 90.1428 109.903 89.8216 109.907C89.8193 109.906 89.8157 109.906 89.8127 109.906Z" fill="#FF4945"/>
<path d="M13.4264 68.3835C20.2272 68.3835 25.7404 62.886 25.7404 56.1044C25.7404 49.3229 20.2272 43.8253 13.4264 43.8253C6.62549 43.8253 1.11229 49.3229 1.11229 56.1044C1.11229 62.886 6.62549 68.3835 13.4264 68.3835Z" fill="url(#paint1_linear)"/>
<path d="M13.5087 56.4425C6.22277 49.5448 1.39254 39.8787 0.256544 29.9248C-0.337234 24.723 -0.189085 17.0968 3.88973 10.3066C7.65151 4.04477 14.3324 0 20.9137 0C20.9202 0 20.9256 0 20.9321 0C22.522 0.00177273 27.9834 0.117 31.4951 1.51923C43.6112 6.35877 52.9665 17.9524 56.5202 32.5307L54.0657 33.1252C50.7039 19.3357 41.9152 8.39445 30.5558 3.85686C28.0977 2.87536 23.9715 2.52141 20.9291 2.51786C20.9238 2.51786 20.9185 2.51786 20.9137 2.51786C15.2011 2.51786 9.37121 6.08105 6.05684 11.6007C2.34188 17.7864 2.21684 24.8241 2.76677 29.6394C3.8364 39.0148 8.38573 48.1183 15.2485 54.616L13.5087 56.4425Z" fill="url(#paint2_linear)"/>
<path d="M13.4264 62.7162C17.0883 62.7162 20.0569 59.756 20.0569 56.1045C20.0569 52.4529 17.0883 49.4928 13.4264 49.4928C9.76444 49.4928 6.79585 52.4529 6.79585 56.1045C6.79585 59.756 9.76444 62.7162 13.4264 62.7162Z" fill="url(#paint3_linear)"/>
<path d="M56.467 50.1374C63.2678 50.1374 68.781 44.6399 68.781 37.8583C68.781 31.0768 63.2678 25.5792 56.467 25.5792C49.6661 25.5792 44.1529 31.0768 44.1529 37.8583C44.1529 44.6399 49.6661 50.1374 56.467 50.1374Z" fill="url(#paint4_linear)"/>
<path d="M92.1067 103.43H83.6018V111.911H92.1067V103.43Z" fill="#FF4945"/>
<path d="M118.169 151.047L123.865 146.726L116.472 137.036L110.776 141.357L118.169 151.047Z" fill="#FF4945"/>
</g>
<defs>
<linearGradient id="paint0_linear" x1="119.022" y1="151.105" x2="123.721" y2="147.52" gradientUnits="userSpaceOnUse">
<stop stop-color="#EFEFEF"/>
<stop offset="0.5538" stop-color="#D7D8D9"/>
</linearGradient>
<linearGradient id="paint1_linear" x1="1.11229" y1="56.1045" x2="25.7401" y2="56.1045" gradientUnits="userSpaceOnUse">
<stop stop-color="#69B0F5"/>
<stop offset="1" stop-color="#5BABF2"/>
</linearGradient>
<linearGradient id="paint2_linear" x1="-4.83878e-05" y1="28.2213" x2="56.5197" y2="28.2213" gradientUnits="userSpaceOnUse">
<stop stop-color="#008EFF"/>
<stop offset="1" stop-color="#0073DC"/>
</linearGradient>
<linearGradient id="paint3_linear" x1="6.79562" y1="56.1046" x2="20.0567" y2="56.1046" gradientUnits="userSpaceOnUse">
<stop stop-color="#008EFF"/>
<stop offset="1" stop-color="#0073DC"/>
</linearGradient>
<linearGradient id="paint4_linear" x1="44.1528" y1="37.8581" x2="68.7806" y2="37.8581" gradientUnits="userSpaceOnUse">
<stop stop-color="#008EFF"/>
<stop offset="1" stop-color="#0073DC"/>
</linearGradient>
<clipPath id="clip0">
<rect width="128" height="156" fill="white"/>
</clipPath>
</defs>
</svg>
