<svg width="461" height="461" viewBox="0 0 461 461" fill="none" xmlns="http://www.w3.org/2000/svg">
<g clip-path="url(#clip0)">
<path d="M287.51 246.789C342.759 246.789 387.547 202.001 387.547 146.752C387.547 91.5027 342.759 46.7146 287.51 46.7146C232.261 46.7146 187.473 91.5027 187.473 146.752C187.473 202.001 232.261 246.789 287.51 246.789Z" fill="#B7D3FF"/>
<path d="M243.492 52.9906C243.614 53.1676 243.858 53.2096 244.034 53.0879C244.211 52.966 244.253 52.7219 244.131 52.5453C244.008 52.3681 243.764 52.3263 243.588 52.4479C243.412 52.5695 243.367 52.8127 243.492 52.9906ZM277.48 74.0697C277.44 74.287 277.585 74.4949 277.801 74.534C277.998 74.5765 278.192 74.4509 278.234 74.2545C278.238 74.2391 278.241 74.2206 278.241 74.2033C278.283 73.9955 278.152 73.7942 277.944 73.7484C277.729 73.7127 277.52 73.853 277.48 74.0697ZM260.952 62.2874C260.849 62.4801 260.907 62.7198 261.085 62.8457C261.274 62.9639 261.525 62.9046 261.644 62.7129C261.762 62.5246 261.702 62.273 261.51 62.1546C261.316 62.0544 261.078 62.1093 260.952 62.2874ZM220.238 94.6698C220.003 95.0083 220.081 95.4734 220.416 95.7171C220.73 95.9625 221.182 95.9085 221.427 95.597C221.436 95.5857 221.444 95.5763 221.45 95.5648C221.685 95.2264 221.608 94.7612 221.273 94.5175C220.946 94.2745 220.482 94.3414 220.238 94.6698ZM230.841 80.0385C230.604 80.3804 230.691 80.847 231.034 81.0819C231.369 81.3141 231.828 81.2373 232.066 80.9074C232.31 80.5795 232.242 80.1168 231.913 79.8722C231.564 79.641 231.098 79.7141 230.841 80.0385ZM241.476 65.3939C241.234 65.7227 241.304 66.182 241.633 66.424C241.64 66.4285 241.647 66.433 241.653 66.4381C241.967 66.6835 242.419 66.6295 242.665 66.3179C242.673 66.3067 242.682 66.2972 242.688 66.2858C242.92 65.9404 242.847 65.474 242.521 65.2136C242.184 64.9817 241.718 65.0599 241.476 65.3939ZM200.398 61.4525C200.624 61.7951 201.084 61.891 201.427 61.6632C201.77 61.4389 201.864 60.9782 201.637 60.6348C201.415 60.299 200.967 60.2008 200.625 60.412C200.282 60.6402 200.182 61.101 200.398 61.4525ZM215.818 51.9933C216.044 52.3359 216.503 52.4318 216.847 52.204C217.189 51.9797 217.284 51.519 217.056 51.1756C216.835 50.8398 216.386 50.7416 216.045 50.9528C215.703 51.1784 215.601 51.642 215.818 51.9933ZM256.03 102.051C255.943 102.455 256.193 102.855 256.598 102.948C256.991 103.047 257.385 102.806 257.483 102.414C257.484 102.412 257.485 102.41 257.485 102.407C257.601 102.028 257.387 101.628 257.009 101.51C256.991 101.505 256.973 101.5 256.952 101.494C256.546 101.415 256.146 101.653 256.03 102.051ZM260.245 84.4472C260.162 84.8523 260.404 85.2532 260.8 85.3688C261.204 85.4562 261.604 85.2035 261.696 84.8013C261.791 84.4022 261.543 84.0004 261.145 83.9061C261.14 83.9048 261.134 83.9033 261.132 83.9023C260.739 83.804 260.345 84.0443 260.248 84.4337C260.246 84.442 260.245 84.4452 260.245 84.4472ZM264.449 66.87C264.348 67.2532 264.574 67.646 264.956 67.7468C264.967 67.7497 264.979 67.7535 264.99 67.7539C265.385 67.8642 265.793 67.6306 265.904 67.2361C265.907 67.2229 265.911 67.2128 265.914 67.2008C266.007 66.7962 265.754 66.3924 265.352 66.2996C264.948 66.206 264.544 66.4582 264.452 66.86C264.451 66.8654 264.45 66.8676 264.449 66.87ZM191.511 46.0829C191.674 46.4102 192.069 46.5483 192.4 46.3929C192.729 46.234 192.869 45.8365 192.709 45.5043C192.551 45.1723 192.152 45.0353 191.82 45.1943C191.493 45.357 191.355 45.7516 191.511 46.0829ZM242.472 90.5719C242.364 90.9311 242.554 91.3104 242.906 91.4397C243.243 91.5579 243.61 91.3818 243.728 91.0465C243.731 91.0355 243.734 91.0287 243.736 91.0181C243.863 90.6729 243.685 90.2907 243.339 90.167C243.335 90.1657 243.332 90.165 243.326 90.1632C242.982 90.0549 242.608 90.2317 242.472 90.5719ZM247.717 75.3327C247.604 75.6789 247.793 76.0502 248.136 76.165C248.473 76.2832 248.84 76.107 248.958 75.7717C248.961 75.7607 248.963 75.7539 248.966 75.7433C249.093 75.3982 248.914 75.0159 248.57 74.8893C248.566 74.8879 248.562 74.8872 248.557 74.8854C248.204 74.7856 247.831 74.9813 247.717 75.3327ZM252.956 60.0337C252.83 60.3789 253.008 60.7611 253.352 60.8878C253.357 60.8891 253.36 60.8899 253.365 60.8916C253.689 61.0175 254.053 60.8547 254.178 60.5314C254.187 60.5116 254.193 60.4909 254.198 60.4703C254.325 60.1251 254.147 59.7429 253.802 59.6162C253.798 59.6149 253.794 59.6141 253.789 59.6124C253.444 59.511 253.077 59.6952 252.956 60.0337ZM216.965 65.9842C216.731 66.2678 216.765 66.6872 217.044 66.9275C217.318 67.17 217.733 67.1468 217.976 66.8742C218.214 66.5942 218.197 66.1756 217.934 65.9183C217.647 65.6734 217.218 65.7038 216.965 65.9842ZM227.669 53.89C227.427 54.1462 227.436 54.552 227.692 54.7954C227.701 54.8035 227.712 54.8123 227.72 54.8227C227.994 55.0652 228.409 55.0422 228.651 54.7694C228.89 54.4894 228.873 54.0708 228.609 53.8135C228.329 53.5776 227.91 53.6105 227.669 53.89ZM275.12 87.0536C275.135 87.403 275.428 87.6732 275.777 87.6617C275.791 87.6603 275.805 87.6619 275.816 87.6594C276.182 87.6471 276.47 87.3396 276.458 86.9722C276.458 86.9641 276.458 86.9551 276.456 86.9495C276.418 86.5849 276.101 86.3133 275.733 86.3334C275.372 86.3519 275.096 86.6629 275.116 87.0244C275.118 87.0331 275.121 87.0426 275.12 87.0536ZM274.107 70.9218C274.133 71.2908 274.447 71.576 274.819 71.5618C275.19 71.5294 275.468 71.2021 275.434 70.8306C275.404 70.4768 275.102 70.2068 274.746 70.2142C274.384 70.222 274.096 70.5234 274.104 70.8847C274.104 70.8952 274.104 70.9099 274.107 70.9218ZM182.169 60.454C181.904 60.7871 181.944 61.2692 182.265 61.5531C182.586 61.8314 183.071 61.8011 183.35 61.4831C183.621 61.1513 183.579 60.6636 183.255 60.3839C182.934 60.1056 182.449 60.136 182.169 60.454ZM194.376 46.3662C194.096 46.6868 194.129 47.172 194.448 47.4522C194.766 47.7323 195.254 47.7001 195.534 47.3821C195.814 47.0615 195.781 46.5763 195.462 46.2962C195.142 46.0153 194.656 46.0484 194.376 46.3662ZM256.506 85.7953C256.55 86.2255 256.921 86.5457 257.353 86.5246C257.781 86.4801 258.091 86.0949 258.044 85.6673C257.999 85.2542 257.638 84.9504 257.225 84.974C256.804 85.0119 256.487 85.3725 256.506 85.7953ZM255.154 67.1987C255.193 67.6194 255.553 67.9368 255.976 67.9188C256.402 67.8904 256.723 67.5231 256.695 67.0971C256.666 66.6711 256.298 66.3493 255.873 66.377C255.451 66.4121 255.133 66.7776 255.154 67.1987ZM218.337 71.785C218.224 72.1921 218.442 72.6194 218.836 72.771C219.242 72.89 219.668 72.664 219.797 72.2615C219.937 71.8678 219.733 71.4332 219.336 71.2921C219.331 71.2908 219.325 71.2893 219.321 71.2878C218.913 71.151 218.474 71.3731 218.337 71.785C218.338 71.7824 218.337 71.785 218.337 71.785ZM224.214 54.0752C224.08 54.4851 224.303 54.9244 224.709 55.0602C224.709 55.0602 224.709 55.0602 224.711 55.0611C225.106 55.1911 225.533 54.9735 225.659 54.5785C225.793 54.1773 225.578 53.7424 225.178 53.6086C224.785 53.4699 224.354 53.6811 224.214 54.0752ZM205.575 70.886C205.437 71.2833 205.649 71.7199 206.049 71.8592C206.449 71.999 206.883 71.7859 207.022 71.3865C207.155 70.9981 206.959 70.5723 206.576 70.4237C206.169 70.2764 205.723 70.4829 205.575 70.886ZM212.148 53.5168C212.002 53.9204 212.209 54.3665 212.612 54.515C213.004 54.6527 213.438 54.459 213.6 54.0775C213.741 53.6699 213.543 53.2235 213.148 53.0545C212.743 52.9168 212.305 53.1229 212.148 53.5168ZM244.31 67.9786C244.334 68.4053 244.695 68.7374 245.123 68.7231C245.542 68.7067 245.871 68.3553 245.854 67.9362C245.858 67.5225 245.526 67.1827 245.112 67.1787C245.101 67.1784 245.09 67.1778 245.078 67.1803C244.652 67.1803 244.308 67.5274 244.311 67.9545C244.31 67.9617 244.31 67.9697 244.31 67.9786Z" fill="#FBB03B"/>
<path d="M233.506 77.5156C233.47 77.5529 233.422 77.5806 233.368 77.5917C233.221 77.6227 233.076 77.5286 233.046 77.3814C233.012 77.2239 229.781 61.5167 235.296 51.7091C235.37 51.579 235.535 51.5318 235.665 51.6057C235.796 51.6797 235.843 51.8449 235.769 51.9752C230.353 61.6061 233.544 77.1134 233.576 77.2687C233.597 77.3625 233.567 77.453 233.506 77.5156Z" fill="#FBB03B"/>
<path d="M244.463 77.9442C244.409 77.9998 244.332 78.0317 244.249 78.0258C244.099 78.0151 243.987 77.8852 243.998 77.7353C244.015 77.4924 245.897 53.2154 260.177 36.4431C260.279 36.333 260.446 36.3148 260.56 36.4125C260.675 36.5097 260.688 36.6815 260.591 36.7956C246.428 53.4292 244.557 77.5329 244.539 77.7745C244.534 77.8414 244.506 77.9003 244.463 77.9442Z" fill="#FBB03B"/>
<path d="M203.578 119.989C203.494 120.076 203.358 120.098 203.247 120.034C198.599 117.331 190.829 119.064 190.751 119.082C190.605 119.115 190.459 119.024 190.426 118.877C190.392 118.732 190.483 118.586 190.63 118.553C190.956 118.478 198.685 116.754 203.52 119.565C203.65 119.641 203.694 119.807 203.619 119.937C203.608 119.955 203.593 119.973 203.578 119.989Z" fill="#FBB03B"/>
<path d="M238.941 47.4535L240.275 40.9255L233.745 39.5846L232.412 46.1126L238.941 47.4535Z" fill="#23286B"/>
<path d="M183.246 127.006L189.127 123.875L185.989 117.991L180.108 121.122L183.246 127.006Z" fill="#23286B"/>
<path d="M270.421 34.0439L272.204 25.3135L263.471 23.5201L261.688 32.2505L270.421 34.0439Z" fill="#E94A47"/>
<path d="M302.877 309.485C345.226 309.485 379.557 275.154 379.557 232.805C379.557 190.456 345.226 156.125 302.877 156.125C260.528 156.125 226.197 190.456 226.197 232.805C226.197 275.154 260.528 309.485 302.877 309.485Z" fill="#B7D3FF"/>
<path d="M340.43 71.0526C340.391 70.8868 340.224 70.7847 340.059 70.8235C339.893 70.8624 339.792 71.0301 339.83 71.1965C339.869 71.3623 340.036 71.4645 340.201 71.4256C340.367 71.3868 340.47 71.22 340.43 71.0526ZM321.561 45.6494C321.653 45.5011 321.608 45.3049 321.46 45.2135C321.327 45.1251 321.149 45.1613 321.061 45.2943C321.053 45.3046 321.046 45.3172 321.041 45.3302C320.95 45.4711 320.988 45.6583 321.128 45.7516C321.275 45.8404 321.47 45.7975 321.561 45.6494ZM330.293 59.1333C330.424 59.0206 330.452 58.8273 330.357 58.6826C330.252 58.541 330.051 58.5115 329.908 58.619C329.767 58.724 329.737 58.9265 329.844 59.0697C329.957 59.1999 330.148 59.2281 330.293 59.1333ZM369.612 47.0126C369.884 46.831 369.961 46.4645 369.786 46.188C369.626 45.9156 369.278 45.825 369.007 45.9836C368.998 45.9894 368.989 45.994 368.981 46.0006C368.709 46.1822 368.632 46.5487 368.807 46.8252C368.977 47.0996 369.338 47.1842 369.612 47.0126ZM357.574 54.745C357.847 54.5611 357.919 54.1915 357.736 53.9186C357.557 53.6501 357.197 53.574 356.926 53.7483C356.652 53.9198 356.568 54.281 356.738 54.5569C356.928 54.8293 357.292 54.9103 357.574 54.745ZM345.509 62.4783C345.782 62.3056 345.864 61.9463 345.693 61.6726C345.689 61.6673 345.685 61.6616 345.682 61.656C345.522 61.3836 345.174 61.293 344.903 61.4516C344.894 61.4574 344.885 61.4621 344.877 61.4686C344.606 61.6565 344.524 62.0216 344.688 62.3086C344.869 62.5779 345.234 62.655 345.509 62.4783ZM374.56 77.2816C374.494 76.9635 374.183 76.7594 373.865 76.8283C373.548 76.895 373.344 77.2073 373.413 77.5268C373.478 77.8389 373.779 78.0411 374.091 77.9839C374.409 77.9152 374.617 77.6037 374.56 77.2816ZM360.482 79.8007C360.416 79.4825 360.105 79.2785 359.787 79.3474C359.47 79.414 359.267 79.7264 359.335 80.0458C359.4 80.3579 359.701 80.5601 360.013 80.503C360.331 80.4358 360.539 80.1228 360.482 79.8007ZM345.445 31.2002C345.626 30.9273 345.558 30.5591 345.288 30.3734C345.028 30.1873 344.668 30.2505 344.483 30.5117C344.481 30.5132 344.48 30.5148 344.479 30.5163C344.284 30.7626 344.325 31.1198 344.569 31.3163C344.581 31.3252 344.592 31.3342 344.606 31.3448C344.881 31.5209 345.244 31.4603 345.445 31.2002ZM337.241 42.9774C337.418 42.7022 337.357 42.3365 337.1 42.1359C336.829 41.9543 336.461 42.0249 336.276 42.2951C336.091 42.5624 336.156 42.9307 336.422 43.116C336.425 43.1184 336.43 43.1215 336.431 43.1225C336.691 43.3086 337.051 43.2453 337.235 42.9857C337.238 42.9805 337.239 42.9789 337.241 42.9774ZM329.051 54.7369C329.236 54.4835 329.186 54.1281 328.933 53.9427C328.926 53.9372 328.918 53.9314 328.91 53.9277C328.652 53.7318 328.284 53.786 328.089 54.0457C328.082 54.0544 328.077 54.0608 328.071 54.0691C327.885 54.3411 327.954 54.7121 328.222 54.8969C328.492 55.0834 328.862 55.0139 329.046 54.7444C329.048 54.7407 329.05 54.7385 329.051 54.7369ZM376.634 91.2021C376.61 90.9133 376.359 90.6969 376.07 90.7159C375.782 90.7379 375.565 90.9911 375.585 91.2824C375.606 91.5734 375.859 91.7894 376.149 91.7687C376.436 91.7434 376.652 91.4919 376.634 91.2021ZM352.081 43.6011C352.264 43.3673 352.234 43.0321 352.013 42.8348C351.8 42.6499 351.479 42.6735 351.294 42.887C351.289 42.8942 351.285 42.8989 351.28 42.9058C351.087 43.1238 351.107 43.4576 351.325 43.649C351.328 43.6514 351.33 43.6526 351.334 43.6555C351.556 43.8348 351.882 43.8127 352.081 43.6011ZM343.805 53.3339C343.989 53.1107 343.957 52.7818 343.739 52.5975C343.526 52.4126 343.205 52.4361 343.02 52.6497C343.014 52.6568 343.011 52.6615 343.006 52.6685C342.812 52.8865 342.833 53.2202 343.049 53.4134C343.052 53.4158 343.054 53.4171 343.058 53.4199C343.288 53.5967 343.62 53.5598 343.805 53.3339ZM335.516 63.1121C335.71 62.8941 335.689 62.5604 335.473 62.3672C335.47 62.3647 335.468 62.3635 335.464 62.3607C335.263 62.1741 334.948 62.1889 334.762 62.391C334.75 62.4035 334.739 62.417 334.729 62.4302C334.536 62.6482 334.556 62.9819 334.773 63.1751C334.776 63.1776 334.778 63.1788 334.782 63.1816C335.006 63.3567 335.329 63.327 335.516 63.1121ZM363.697 69.1386C363.951 68.9971 364.048 68.6782 363.913 68.4193C363.782 68.1611 363.47 68.0579 363.212 68.189C362.956 68.3264 362.847 68.641 362.966 68.9065C363.106 69.1712 363.429 69.2726 363.697 69.1386ZM352.321 74.9699C352.574 74.8507 352.685 74.5488 352.567 74.2945C352.563 74.2859 352.557 74.2762 352.554 74.2661C352.423 74.0079 352.111 73.9046 351.854 74.0357C351.597 74.1731 351.488 74.4878 351.608 74.7533C351.745 75.0087 352.063 75.1058 352.321 74.9699ZM327.062 36.7465C327.153 36.4845 327.016 36.2 326.756 36.1078C326.745 36.1044 326.736 36.0995 326.726 36.0981C326.454 36.0013 326.153 36.1451 326.055 36.4194C326.053 36.4255 326.051 36.4319 326.05 36.4365C325.973 36.7166 326.127 37.0092 326.403 37.101C326.674 37.1917 326.967 37.042 327.058 36.7694C327.059 36.7618 327.059 36.7537 327.062 36.7465ZM323.127 48.9495C323.216 48.6692 323.068 48.3678 322.791 48.271C322.508 48.1873 322.21 48.349 322.127 48.6329C322.046 48.9028 322.189 49.1895 322.453 49.2873C322.721 49.386 323.021 49.2476 323.12 48.9781C323.123 48.9701 323.126 48.9592 323.127 48.9495ZM387.67 83.2966C387.961 83.1269 388.071 82.7598 387.918 82.4573C387.763 82.1589 387.397 82.0409 387.099 82.1947C386.804 82.3615 386.694 82.7338 386.851 83.0341C387.006 83.3322 387.372 83.45 387.67 83.2966ZM374.61 90.1636C374.909 90.0084 375.025 89.6397 374.872 89.3407C374.719 89.0418 374.351 88.9243 374.053 89.0782C373.754 89.2333 373.638 89.6021 373.791 89.901C373.945 90.2007 374.312 90.3173 374.61 90.1636ZM340.38 43.0641C340.473 42.7338 340.293 42.3897 339.969 42.2803C339.642 42.1892 339.302 42.3836 339.213 42.7139C339.125 43.0316 339.303 43.3609 339.613 43.4628C339.933 43.556 340.271 43.3819 340.38 43.0641ZM335.979 57.1862C336.072 56.8645 335.899 56.5256 335.583 56.417C335.262 56.3147 334.919 56.493 334.817 56.8153C334.715 57.1379 334.892 57.4824 335.212 57.5844C335.532 57.6806 335.872 57.5029 335.979 57.1862ZM364.371 64.4592C364.572 64.192 364.536 63.8129 364.291 63.5872C364.027 63.3818 363.648 63.4252 363.436 63.6852C363.219 63.9354 363.244 64.3154 363.494 64.5342C363.497 64.5367 363.501 64.5397 363.504 64.5419C363.764 64.7604 364.151 64.7234 364.371 64.4592C364.37 64.4607 364.371 64.4592 364.371 64.4592ZM354.914 75.8333C355.132 75.5694 355.095 75.1802 354.836 74.9626C354.836 74.9626 354.836 74.9626 354.834 74.9613C354.582 74.7515 354.205 74.7882 353.997 75.043C353.783 75.3001 353.815 75.6837 354.07 75.8982C354.319 76.1151 354.697 76.0833 354.914 75.8333ZM373.491 68.8176C373.708 68.5643 373.679 68.1803 373.425 67.9621C373.172 67.7431 372.791 67.7745 372.573 68.0291C372.363 68.2769 372.383 68.6481 372.621 68.8691C372.878 69.0957 373.265 69.0723 373.491 68.8176ZM363.621 79.7386C363.846 79.483 363.823 79.0937 363.57 78.8673C363.321 78.6519 362.946 78.6694 362.716 78.9042C362.494 79.1644 362.51 79.5511 362.752 79.7899C363.01 80.0096 363.391 79.9845 363.621 79.7386ZM344.176 59.7497C344.282 59.4277 344.113 59.0779 343.794 58.9648C343.481 58.8552 343.138 59.0195 343.028 59.3341C342.906 59.6385 343.051 59.9855 343.354 60.1087C343.362 60.1126 343.369 60.1158 343.379 60.1172C343.692 60.2404 344.046 60.0841 344.167 59.7678C344.171 59.7625 344.174 59.7564 344.176 59.7497Z" fill="#428DFC"/>
<path d="M382.407 41.2132L387.21 39.0409L389.366 43.8615L384.564 46.0335L382.407 41.2132Z" fill="#428DFC"/>
<path d="M285.258 34.6721L289.982 37.0002L287.658 41.7482L282.933 39.4201L285.258 34.6721Z" fill="#A1C3FC"/>
<path d="M308.872 51.188L315.295 48.2832L318.178 54.7302L311.756 57.635L308.872 51.188Z" fill="#E94A47"/>
<path d="M293.25 71.0025C293.182 70.9924 293.12 70.9492 293.088 70.8819C288.536 61.2454 279.215 54.0823 268.761 52.1875C268.644 52.1666 268.567 52.0543 268.589 51.9371C268.61 51.8198 268.733 51.7466 268.838 51.7636C279.426 53.6822 288.866 60.9373 293.476 70.6969C293.527 70.8042 293.481 70.9328 293.374 70.9843C293.334 71.0031 293.291 71.0085 293.25 71.0025Z" fill="#428DFC"/>
<path d="M289.658 91.3686C289.616 91.3624 289.575 91.3437 289.542 91.3123C283.673 85.7485 274.593 83.7695 266.947 86.387C266.834 86.4256 266.713 86.3655 266.675 86.2527C266.637 86.1405 266.697 86.0175 266.809 85.9792C274.601 83.3104 283.855 85.3286 289.837 90.998C289.923 91.0795 289.927 91.2161 289.845 91.3024C289.795 91.3566 289.725 91.3785 289.658 91.3686Z" fill="#428DFC"/>
<path d="M344.094 73.0441C344.044 73.0367 343.997 73.0124 343.962 72.9715C343.886 72.8814 343.895 72.7451 343.986 72.6673C351.587 66.1072 362.012 63.2168 371.88 64.9512C371.996 64.9714 372.087 64.9979 372.066 65.1154C372.046 65.2303 371.951 65.2227 371.836 65.2057C371.834 65.2055 371.832 65.2052 371.83 65.2048C362.055 63.7604 351.783 66.4314 344.277 72.908C344.228 72.9512 344.153 73.0528 344.094 73.0441Z" fill="#428DFC"/>
<path d="M248.183 201.532L230.619 395.538H227.675L241.477 201.532H248.183Z" fill="url(#paint0_linear)"/>
<path d="M309.008 395.538H306.064L288.499 201.532H295.205L309.008 395.538Z" fill="url(#paint1_linear)"/>
<path d="M334.816 395.538H331.879L314.177 200.156L320.907 200.196L334.816 395.538Z" fill="url(#paint2_linear)"/>
<path d="M321.187 200.193H219.436L245.535 67.834H347.287L321.187 200.193Z" fill="url(#paint3_linear)"/>
<path d="M304.908 201.53H230.667L232.647 193.33H306.887L304.908 201.53Z" fill="url(#paint4_linear)"/>
<path d="M293.452 67.6487H284.378L287.678 52.2466H296.753L293.452 67.6487Z" fill="url(#paint5_linear)"/>
<path d="M127.983 218.832C129.686 218.225 134.192 221.832 136.037 222.568C138.728 223.642 142.146 224.658 143.881 227.043C146.127 230.131 144.656 233.025 143.434 236.238C142.312 239.188 142.427 240.333 141.395 243.295C140.769 245.088 139.476 246.871 137.516 246.885C136.128 246.895 127.528 247.351 126.316 246.948C124.182 246.237 121.907 241.449 120.555 239.522C117.883 235.717 122.637 235.636 125.17 237.1C126.804 238.044 128.255 240.094 129.929 240.666C131.566 241.226 132.467 240.735 134.199 240.646C134.631 238.923 135.083 236.552 134.885 234.76C134.673 232.837 132.377 231.613 130.612 231.147C126.849 230.154 122.825 229.799 118.996 229.279C119.713 227.373 122.859 225.355 124.201 223.763C125.67 222.021 126.884 220.025 128.446 218.324C128.22 218.758 128.175 218.381 127.983 218.832Z" fill="#F2A19C"/>
<path d="M138.571 232.086C137.539 234.994 134.177 235.139 131.815 236.303C129.339 237.523 125.299 238.142 124.736 240.579C123.671 245.186 128.908 243.2 130.76 242.5C133.302 241.538 135.605 239.988 138.263 239.65C140.543 239.36 142.196 237.943 142.21 235.603C142.22 233.878 140.573 232.333 138.571 232.086Z" fill="url(#paint6_linear)"/>
<path d="M105.235 405.482C103.765 411.425 100.523 423.409 102.643 423.96C107.577 424.139 149.675 424.139 158.863 424.1C159.728 422.713 159.529 421.506 159.046 420.148C157.732 416.461 153.262 413.426 149.538 412.102C145.815 410.777 143.449 410.555 139.811 409.069C135.655 407.37 133.128 405.573 128.545 404.885C126.691 404.606 122.161 404.695 120.23 404.785C115.232 405.017 110.234 405.249 105.235 405.482Z" fill="url(#paint7_linear)"/>
<path d="M236.633 138.927C236.131 138.927 235.628 138.756 235.217 138.406C234.298 137.624 234.186 136.246 234.969 135.327L262.666 102.803C263.449 101.883 264.829 101.773 265.748 102.555C266.668 103.337 266.78 104.715 265.997 105.634L238.3 138.158C237.867 138.666 237.252 138.927 236.633 138.927Z" fill="#23286B"/>
<path d="M228.373 137.228C229.909 136.022 233.199 135.095 234.169 133.357C235.169 131.564 234.601 129.672 235.419 128.005C236.225 126.362 245.227 119.453 246.181 120.415C247.361 121.604 245.629 125.051 244.888 126.063C243.423 128.063 241.095 129.184 240.279 131.402C239.41 133.764 240.266 134.95 238.346 136.965C236.301 139.113 233.072 141.461 230.561 143.047C230.205 143.272 229.715 143.955 229.399 144.242C228.946 142.7 227.225 138.13 228.373 137.228Z" fill="#FFBEB6"/>
<path d="M244.74 128.536C246.183 127.64 251.247 123.499 253.026 123.88C256.16 124.553 253.672 129.12 253.285 130.606C252.198 134.776 253.808 138.435 252.185 142.497C250.195 147.476 247.122 146.181 242.41 147.16C239.927 147.676 236.053 149.151 233.865 150.523C231.359 152.095 229.453 154.11 226.649 155.346C227.35 150.85 225.233 146.773 223.606 142.562C225.472 141.333 227.918 140.751 229.982 139.723C231.319 139.058 232.761 137.846 234.081 137.572C234.096 137.836 240.315 131.284 244.74 128.536Z" fill="#FFBEB6"/>
<path d="M113.412 143.592C114.568 149.328 121.143 154.015 122.827 159.625C126.493 159.957 137.043 159.047 138.372 155.506C139.153 153.426 137.987 149.934 137.524 147.999C136.536 143.865 133.504 139.771 132.774 135.855C130.489 137.342 126.793 137.499 124.147 138.28C122.582 138.741 122.16 139.206 120.791 139.992C118.87 141.093 115.381 142.965 113.412 143.592Z" fill="#F2A19C"/>
<path d="M90.0492 124.687C93.0697 119.433 105.307 100.511 114.828 107.163C122.665 112.639 137.664 119.248 136.335 121.006C132.916 125.204 133.248 125.199 135.661 129.685C137.596 133.282 139.462 136.133 137.309 139.848C134.26 145.107 124.747 148.346 119.101 149.523C104.517 152.565 90.5529 142.266 89.9348 127.194C90.3021 126.648 89.3211 124.454 90.0492 124.687Z" fill="url(#paint8_linear)"/>
<path d="M134.459 127.062C131.705 128.488 127.406 129.931 127.729 134.387C128.005 138.194 132.355 140.744 135.325 140.329C147.438 138.633 141.098 132.398 134.459 127.062Z" fill="#23286B"/>
<path d="M96.6754 108.392C101.684 98.1334 123.763 100.18 128.224 110.799C120.622 119.21 113.966 124.475 104.309 133.799C102.549 130.207 95.6025 108.97 96.6754 108.392Z" fill="#23286B"/>
<path d="M78.3085 152.025C78.1096 152.025 77.9463 151.865 77.9441 151.665C77.9354 150.893 77.9018 150.043 77.8668 149.122C77.5921 142.01 77.1773 131.262 85.4209 119.017C87.3684 116.125 91.7067 112.752 94.5967 112.568C94.7956 112.559 94.9706 112.707 94.9837 112.908C94.9968 113.108 94.8445 113.282 94.6433 113.295C92.2315 113.448 88.0434 116.427 86.0258 119.424C77.9142 131.471 78.3238 142.076 78.595 149.094C78.6307 150.022 78.6635 150.878 78.673 151.656C78.6752 151.857 78.5141 152.022 78.3129 152.025C78.3115 152.025 78.31 152.025 78.3085 152.025Z" fill="#23286B"/>
<path d="M78.9288 126.576C78.9142 126.576 78.8997 126.575 78.8843 126.574C78.6846 126.55 78.5425 126.369 78.5658 126.168C79.0032 122.546 83.1249 118.108 85.2438 116.268C88.2445 113.662 91.7307 113.303 95.0522 113.303C95.2534 113.303 95.4167 113.466 95.4167 113.667C95.4167 113.868 95.2534 114.031 95.0522 114.031C91.8729 114.031 88.5419 114.369 85.7226 116.818C83.6774 118.595 79.7007 122.854 79.2903 126.256C79.2685 126.44 79.111 126.576 78.9288 126.576Z" fill="#23286B"/>
<path d="M150.912 405.482C149.441 411.425 146.199 423.409 148.32 423.96C153.253 424.139 195.352 424.139 204.539 424.1C205.404 422.713 205.205 421.506 204.722 420.148C203.409 416.461 198.938 413.426 195.215 412.102C191.491 410.777 189.126 410.555 185.487 409.069C181.331 407.37 178.804 405.573 174.221 404.885C172.367 404.606 167.837 404.695 165.907 404.785C160.908 405.017 155.909 405.249 150.912 405.482Z" fill="url(#paint9_linear)"/>
<path d="M198.829 255.33H169.267V331.704H198.829V255.33Z" fill="#428DFC"/>
<path d="M154.781 268.279C153.084 267.656 136.835 324.346 133.234 331.951C128.865 341.179 120.787 346.059 119.076 356.739C117.486 366.668 112.98 372.859 108.782 381.829C105.184 389.518 107.051 397.839 104.756 405.797C113.163 408.685 126.564 406.663 135.845 406.193C135.441 398.406 141.513 388.181 144.971 381.32C149.596 372.14 155.74 363.86 161.381 355.251C164.462 350.549 169.316 345.952 171.614 341.094C174.187 335.655 174.16 327.663 174.633 321.733C175.264 313.837 174.302 305.944 174.773 297.954C175.187 290.937 176.701 283.774 177.69 276.808C178.556 270.72 182.926 259.29 176.926 256.147C171.023 253.055 159.487 254.263 152.933 254.608C154.09 259.117 154.893 263.252 154.859 267.922C155.5 268.057 154.794 269.194 154.781 268.279Z" fill="#151A4F"/>
<path d="M187.402 229.071C192.73 235.769 191.287 251.071 190.064 259.225C188.07 272.512 186.589 286.363 185.337 299.849C183.814 316.243 183.325 333.206 183.325 349.738C183.325 364.607 181.697 379.435 181.771 394.063C181.79 398.034 181.836 404.908 182.749 408.667C177.099 408.593 155.35 408.444 149.759 408.739C147.441 399.176 146.392 391.254 149.314 381.829C152.178 372.594 153.008 366.483 150.689 356.878C148.009 345.778 151.931 340.319 155.8 330.426C157.544 325.969 156.23 323.162 155.788 318.7C155.224 312.993 156.107 307.108 155.8 301.376C155.336 292.696 153.542 273.39 150.14 269.022C146.914 264.877 142.531 260.127 142.123 251.06C141.998 248.289 142.083 236.8 143.823 234.313C146.227 230.877 156.446 237.53 160.019 237.243C168.038 236.599 179.372 226.84 186.991 229.456C187.583 229.735 187.605 228.607 187.402 229.071Z" fill="url(#paint10_linear)"/>
<path d="M122.444 162.956C119.198 161.643 105.46 191.027 102.471 194.901C98.6346 199.875 88.7475 211.04 87.2773 216.916C86.4931 220.05 92.4552 223.185 97.7709 225.441C102.064 227.262 107.727 228.069 111.972 230.095C114.73 231.412 125.232 234.601 125.232 234.601C125.232 234.601 131.542 222.227 132.405 219.994C129.249 217.936 125.878 217.217 121.754 214.661C117.284 211.89 117.208 211.099 112.197 212.137C114.02 209.706 116.309 210.521 118.186 209.071C120.09 207.601 121.69 204.425 123.271 202.529C126.615 198.517 130.916 195.778 134.47 191.834C144.868 180.297 134.216 169.896 128.033 164.898C128.49 164.012 125.117 163.684 122.444 162.956Z" fill="#89B3F4"/>
<path d="M112.025 149.688C118.727 148.616 129.577 146.509 141.065 143.867C141.677 143.726 142.266 144.186 142.28 144.814C142.332 147.359 142.371 148.774 142.549 150.932C142.654 152.208 144.487 152.896 146.137 153.566C151.334 155.677 156.076 157.593 160.281 162.156C167.964 170.493 173.515 175.133 177.604 185.79C180.989 194.616 182.669 203.842 185.35 212.778C186.841 217.746 188.052 222.666 189.314 227.659C190.072 230.659 193.067 238.037 192.117 240.821C192.081 240.925 192.426 243.624 192.435 243.668C175.409 244.266 157.43 244.752 142.056 244.807C142.048 240.564 142.003 231.212 142.124 228.975C142.325 225.223 140.175 223.574 140.967 220.581C139.253 220.151 136.169 220.591 135.961 218.85C135.846 217.883 135.796 217.177 136.708 216.499C130.043 209.984 126.309 196.988 121.792 188.83C119.405 184.519 117.881 180.139 117.575 175.124C117.279 170.288 118.127 164.095 119.772 160.287C117.828 157.859 111.407 148.985 112.025 149.688Z" fill="url(#paint11_linear)"/>
<path d="M230.948 137.624C232.714 141.541 233.918 145.992 235.249 150.148C236.145 150.317 236.35 149.689 235.865 148.266" stroke="black" stroke-width="2.37042" stroke-miterlimit="10"/>
<path d="M176.047 169.55C178.284 165.179 180.862 159.359 185.233 156.946C190.217 160.299 202.127 159.196 204.726 163.001" stroke="black" stroke-width="2.37042" stroke-miterlimit="10"/>
<path d="M160.041 162.71L159.635 162.482C157.495 161.279 155.449 159.665 153.471 158.104C149.387 154.882 145.164 151.554 139.946 151.734C135.67 151.886 121.921 158.983 119.633 161.416C119.358 161.709 118.897 161.723 118.603 161.448C118.309 161.172 118.295 160.712 118.571 160.418C121.031 157.802 135.258 150.443 139.894 150.278C145.653 150.078 150.084 153.575 154.374 156.96C155.902 158.166 157.366 159.321 158.87 160.308C159.078 160.112 159.392 160.05 159.668 160.175C160.218 160.422 160.858 160.788 160.924 161.436C160.947 161.658 160.911 162.083 160.42 162.437L160.041 162.71Z" fill="#D6D7D8"/>
<path d="M97.7957 106.731C94.7643 108.605 92.4552 113.652 92.4552 113.652C92.4552 113.652 88.9982 116.057 88.125 116.681C83.4697 120.007 82.1781 127.965 80.8035 133.443C79.7648 137.581 79.3472 144.826 80.7342 149.126C82.3261 154.062 83.2277 153.807 88.0113 154.108C93.741 154.469 107.84 154.083 114.739 153.859C116.922 153.788 118.642 151.989 118.616 149.808C118.552 144.516 118.471 135.138 118.62 129.865C118.816 122.897 120.227 114.814 113.496 110.94C110.893 109.441 108.283 107.64 105.302 107.307C103.327 107.087 97.5573 106.596 97.7957 106.731Z" fill="#23286B"/>
<path d="M95.1222 203.749C99.6652 202.875 95.3897 212.924 95.7126 214.897C96.1069 217.3 102.226 226.477 98.1025 225.223C93.031 223.68 88.6724 221.732 87.2766 219.423C84.875 215.452 88.238 213.209 90.3124 209.988C91.6527 207.91 93.5289 206.103 95.1222 203.749Z" fill="url(#paint12_linear)"/>
<path d="M159.374 222.178H139.451C139.048 222.178 138.722 221.852 138.722 221.45C138.722 221.048 139.048 220.722 139.451 220.722H159.373C159.775 220.722 160.102 221.048 160.102 221.45C160.102 221.852 159.776 222.178 159.374 222.178Z" fill="#D6D7D8"/>
<path d="M270.483 103.263C272.707 100.377 275.028 90.4485 271.092 95.4108C269.614 97.2756 265.873 95.1217 263.649 98.0074C261.425 100.893 261.153 104.409 263.04 105.86C264.927 107.311 268.26 106.149 270.483 103.263Z" fill="url(#paint13_linear)"/>
<path opacity="0.51" d="M166.294 249.775C166.357 249.8 166.428 249.768 166.452 249.705C166.476 249.643 166.445 249.572 166.383 249.547C166.32 249.523 166.249 249.555 166.224 249.617C166.201 249.681 166.232 249.75 166.294 249.775ZM167.351 246.988C167.416 247.01 167.488 246.979 167.517 246.917C167.538 246.852 167.504 246.783 167.439 246.761C167.382 246.735 167.313 246.759 167.286 246.817C167.284 246.82 167.283 246.825 167.281 246.831C167.257 246.893 167.289 246.964 167.351 246.988ZM178.771 249.334C178.798 249.397 178.871 249.426 178.935 249.399C178.993 249.375 179.022 249.309 178.999 249.251C178.997 249.246 178.995 249.241 178.991 249.236C178.966 249.175 178.897 249.145 178.835 249.169C178.772 249.197 178.743 249.271 178.771 249.334ZM161.852 245.091C161.899 245.136 161.975 245.135 162.021 245.087C162.066 245.039 162.065 244.964 162.017 244.919C161.97 244.872 161.894 244.875 161.848 244.922C161.802 244.964 161.8 245.037 161.843 245.083C161.847 245.087 161.849 245.089 161.852 245.091ZM172.438 249.151C172.445 249.218 172.502 249.271 172.569 249.272C172.639 249.27 172.693 249.211 172.691 249.14C172.689 249.07 172.63 249.016 172.56 249.019C172.492 249.027 172.44 249.084 172.438 249.151ZM172.35 246.17C172.354 246.237 172.413 246.288 172.48 246.284C172.545 246.287 172.6 246.236 172.603 246.171C172.603 246.167 172.603 246.164 172.603 246.161C172.598 246.092 172.541 246.038 172.472 246.039C172.404 246.046 172.351 246.102 172.35 246.17ZM150.087 251.046C150.173 251.14 150.319 251.148 150.414 251.062C150.416 251.06 150.417 251.058 150.42 251.056C150.512 250.971 150.519 250.825 150.433 250.733C150.433 250.733 150.433 250.732 150.432 250.732C150.347 250.638 150.2 250.63 150.105 250.716C150.103 250.717 150.102 250.72 150.1 250.722C150.007 250.807 150 250.953 150.086 251.045C150.086 251.046 150.086 251.046 150.086 251.046H150.087ZM154.226 247.201C154.314 247.297 154.462 247.303 154.559 247.215C154.655 247.127 154.661 246.978 154.573 246.882C154.573 246.882 154.571 246.879 154.57 246.879C154.485 246.786 154.339 246.78 154.247 246.865L154.246 246.866C154.151 246.957 154.143 247.103 154.226 247.201ZM167.5 264.648C167.498 264.776 167.599 264.884 167.727 264.889C167.852 264.897 167.959 264.805 167.969 264.681C167.969 264.676 167.969 264.672 167.969 264.669C167.972 264.54 167.87 264.433 167.741 264.428C167.614 264.422 167.507 264.52 167.5 264.648ZM167.926 253.348C167.921 253.476 168.018 253.582 168.146 253.588C168.146 253.588 168.151 253.588 168.154 253.588C168.278 253.597 168.386 253.504 168.395 253.38C168.395 253.375 168.396 253.372 168.396 253.368C168.396 253.238 168.297 253.129 168.167 253.118C168.038 253.117 167.93 253.219 167.926 253.348ZM168.136 247.701C168.131 247.83 168.234 247.939 168.363 247.943C168.493 247.947 168.6 247.844 168.604 247.715C168.61 247.587 168.512 247.479 168.384 247.472C168.255 247.465 168.144 247.562 168.136 247.692C168.136 247.696 168.136 247.699 168.136 247.701ZM156.588 259.474C156.706 259.524 156.842 259.468 156.891 259.35C156.942 259.232 156.885 259.096 156.767 259.047C156.651 258.998 156.518 259.05 156.467 259.165C156.417 259.283 156.47 259.421 156.588 259.474ZM158.944 254.333C159.063 254.384 159.198 254.328 159.248 254.21C159.298 254.092 159.242 253.956 159.124 253.906C159.008 253.857 158.875 253.91 158.823 254.025C158.773 254.143 158.827 254.28 158.944 254.333ZM161.303 249.2C161.424 249.251 161.563 249.194 161.614 249.073C161.664 248.958 161.614 248.822 161.5 248.767C161.382 248.709 161.24 248.758 161.182 248.876C161.125 248.994 161.173 249.136 161.291 249.194C161.296 249.197 161.299 249.199 161.303 249.2ZM178.064 260.336C178.111 260.456 178.246 260.516 178.367 260.47C178.486 260.427 178.546 260.295 178.504 260.178C178.504 260.178 178.504 260.176 178.503 260.175C178.467 260.057 178.343 259.99 178.224 260.025C178.218 260.027 178.213 260.029 178.206 260.031C178.088 260.08 178.026 260.212 178.064 260.336ZM174.141 249.732C174.181 249.848 174.308 249.911 174.425 249.871C174.428 249.871 174.432 249.869 174.435 249.867C174.557 249.827 174.622 249.695 174.582 249.574C174.581 249.569 174.58 249.566 174.579 249.563C174.532 249.441 174.397 249.381 174.276 249.426C174.155 249.473 174.094 249.609 174.14 249.729C174.14 249.73 174.141 249.731 174.141 249.732ZM151.615 257.03C151.714 257.087 151.841 257.054 151.899 256.955C151.957 256.857 151.924 256.73 151.826 256.671C151.726 256.612 151.6 256.646 151.541 256.745C151.484 256.843 151.517 256.97 151.615 257.03ZM154.146 252.665C154.245 252.721 154.372 252.689 154.431 252.59C154.492 252.493 154.463 252.365 154.366 252.303C154.269 252.242 154.14 252.271 154.079 252.369C154.077 252.373 154.075 252.376 154.073 252.38C154.014 252.475 154.044 252.6 154.139 252.66C154.141 252.662 154.144 252.662 154.146 252.665ZM156.59 248.178C156.6 248.229 156.632 248.273 156.679 248.299C156.778 248.355 156.905 248.323 156.963 248.224C157.023 248.123 156.991 247.993 156.89 247.932L156.888 247.932C156.828 247.897 156.754 247.893 156.691 247.923L156.682 247.924C156.646 247.94 156.617 247.969 156.603 248.006C156.57 248.058 156.565 248.123 156.59 248.178ZM172.555 259.713C172.59 259.825 172.705 259.89 172.819 259.863C172.926 259.835 172.991 259.725 172.964 259.618C172.963 259.615 172.962 259.612 172.961 259.609C172.934 259.497 172.821 259.429 172.71 259.457C172.709 259.457 172.708 259.457 172.708 259.457C172.597 259.49 172.531 259.602 172.555 259.713ZM169.972 249.957C169.999 250.069 170.112 250.136 170.224 250.109C170.224 250.109 170.226 250.109 170.228 250.108C170.334 250.085 170.4 249.978 170.376 249.874C170.375 249.867 170.373 249.86 170.37 249.855C170.343 249.742 170.231 249.675 170.119 249.702C170.117 249.702 170.117 249.702 170.114 249.703C170.008 249.737 169.945 249.848 169.972 249.957ZM168.679 245.088C168.712 245.2 168.829 245.263 168.94 245.229C169.048 245.197 169.112 245.085 169.083 244.975C169.05 244.867 168.94 244.801 168.829 244.824C168.716 244.858 168.651 244.974 168.679 245.088ZM161.672 257.767C161.66 257.882 161.742 257.984 161.856 257.999C161.969 258.014 162.072 257.936 162.087 257.823C162.101 257.708 162.023 257.603 161.911 257.582C161.794 257.569 161.687 257.65 161.672 257.767ZM162.347 252.763C162.328 252.871 162.402 252.975 162.51 252.994C162.514 252.995 162.519 252.995 162.522 252.997C162.635 253.012 162.738 252.933 162.754 252.82C162.767 252.706 162.689 252.6 162.577 252.579C162.463 252.568 162.361 252.649 162.347 252.763ZM163.015 247.76C163 247.873 163.079 247.976 163.192 247.991C163.304 248.005 163.407 247.929 163.423 247.817C163.439 247.705 163.362 247.6 163.248 247.582C163.136 247.565 163.031 247.643 163.014 247.756C163.015 247.758 163.015 247.758 163.015 247.76ZM177.348 249.103C177.418 249.194 177.549 249.214 177.644 249.145C177.734 249.072 177.749 248.939 177.675 248.848C177.605 248.762 177.48 248.744 177.39 248.808C177.298 248.873 177.275 249.001 177.34 249.094C177.343 249.097 177.346 249.101 177.348 249.103ZM163.36 248.439C163.364 248.506 163.423 248.557 163.49 248.553C163.557 248.549 163.608 248.49 163.603 248.423C163.599 248.356 163.541 248.305 163.474 248.309C163.406 248.313 163.356 248.372 163.36 248.439ZM163.155 245.47C163.164 245.538 163.224 245.587 163.294 245.582C163.361 245.578 163.412 245.519 163.407 245.452C163.406 245.388 163.352 245.336 163.286 245.339C163.283 245.339 163.281 245.339 163.277 245.339C163.208 245.342 163.154 245.398 163.154 245.468C163.155 245.468 163.155 245.468 163.155 245.47ZM157.508 246.161C157.572 246.178 157.638 246.145 157.664 246.084C157.686 246.022 157.654 245.952 157.592 245.93C157.59 245.928 157.587 245.928 157.585 245.928C157.525 245.904 157.457 245.934 157.433 245.994C157.431 245.998 157.43 246.001 157.429 246.005C157.409 246.07 157.444 246.14 157.508 246.161ZM168.804 245.422C168.833 245.484 168.905 245.508 168.966 245.479C169.027 245.449 169.052 245.377 169.022 245.316C168.999 245.257 168.932 245.229 168.875 245.252C168.87 245.253 168.864 245.256 168.86 245.259C168.8 245.286 168.774 245.358 168.802 245.418C168.802 245.42 168.803 245.421 168.804 245.422ZM149.509 247.539C149.573 247.577 149.656 247.557 149.694 247.493C149.694 247.493 149.695 247.491 149.696 247.49C149.737 247.426 149.718 247.341 149.655 247.3C149.652 247.299 149.648 247.297 149.646 247.294C149.582 247.257 149.499 247.277 149.461 247.34C149.46 247.341 149.46 247.343 149.459 247.344C149.42 247.412 149.443 247.498 149.509 247.539ZM163.593 249.503C163.607 249.574 163.676 249.619 163.746 249.605C163.751 249.604 163.757 249.602 163.762 249.6C163.836 249.58 163.88 249.504 163.861 249.431C163.838 249.358 163.765 249.312 163.689 249.325C163.614 249.346 163.571 249.426 163.593 249.503C163.593 249.501 163.593 249.501 163.593 249.503ZM162.748 246.211C162.77 246.287 162.849 246.33 162.926 246.308C162.999 246.288 163.043 246.212 163.024 246.139C163.001 246.066 162.929 246.02 162.853 246.033C162.777 246.055 162.732 246.133 162.748 246.211ZM156.59 248.178C156.607 248.189 156.626 248.197 156.645 248.202C156.72 248.213 156.791 248.162 156.802 248.086C156.802 248.084 156.802 248.084 156.803 248.082C156.813 248.007 156.764 247.938 156.692 247.923L156.683 247.924C156.608 247.913 156.537 247.964 156.526 248.04C156.526 248.042 156.525 248.044 156.525 248.044C156.517 248.099 156.543 248.152 156.59 248.178ZM169.172 245.045C169.218 245.107 169.305 245.119 169.367 245.074C169.368 245.072 169.37 245.071 169.37 245.071C169.43 245.025 169.442 244.94 169.397 244.879C169.356 244.817 169.274 244.799 169.211 244.839C169.208 244.841 169.207 244.842 169.203 244.844C169.141 244.892 169.126 244.98 169.172 245.045ZM151.686 262.389C151.675 262.521 151.769 262.639 151.903 262.658C152.034 262.674 152.155 262.583 152.173 262.452C152.185 262.318 152.089 262.199 151.956 262.182C151.824 262.165 151.704 262.257 151.686 262.389ZM152.406 256.605C152.389 256.736 152.482 256.856 152.613 256.875C152.744 256.893 152.865 256.799 152.882 256.667C152.899 256.535 152.807 256.415 152.675 256.397C152.544 256.38 152.424 256.473 152.406 256.605ZM153.117 250.822C153.105 250.955 153.2 251.074 153.333 251.091C153.465 251.103 153.581 251.006 153.593 250.874C153.605 250.743 153.508 250.626 153.377 250.613C153.249 250.6 153.133 250.693 153.117 250.822ZM171.786 251.435C171.87 251.538 172.018 251.558 172.125 251.478C172.23 251.397 172.25 251.246 172.168 251.141C172.087 251.035 171.936 251.015 171.83 251.098C171.727 251.18 171.707 251.329 171.786 251.435ZM168.208 246.841C168.29 246.944 168.44 246.965 168.546 246.884C168.65 246.798 168.668 246.646 168.587 246.537C168.501 246.434 168.347 246.421 168.245 246.507C168.147 246.591 168.13 246.737 168.208 246.841ZM161.484 253.412C161.52 253.542 161.654 253.618 161.783 253.582C161.908 253.546 161.981 253.416 161.945 253.291C161.913 253.163 161.783 253.087 161.655 253.119C161.527 253.151 161.45 253.281 161.483 253.409L161.484 253.412ZM159.934 247.798C159.966 247.924 160.095 248.001 160.221 247.969C160.223 247.969 160.224 247.969 160.226 247.968C160.356 247.936 160.436 247.804 160.404 247.673C160.372 247.543 160.241 247.463 160.11 247.495C159.979 247.527 159.899 247.659 159.931 247.79C159.932 247.793 159.933 247.796 159.934 247.798ZM158.257 255.368C158.289 255.498 158.42 255.578 158.551 255.547C158.677 255.514 158.756 255.388 158.731 255.261C158.697 255.131 158.568 255.049 158.436 255.074C158.307 255.11 158.229 255.238 158.257 255.368ZM156.947 249.713C156.979 249.843 157.11 249.922 157.24 249.891C157.369 249.862 157.45 249.734 157.42 249.606C157.391 249.477 157.263 249.396 157.135 249.425C157.006 249.456 156.923 249.582 156.947 249.713ZM148.353 252.456C148.333 252.586 148.421 252.707 148.549 252.728C148.549 252.728 148.55 252.729 148.551 252.728C148.682 252.752 148.807 252.666 148.831 252.536C148.851 252.403 148.762 252.28 148.631 252.255C148.5 252.238 148.377 252.326 148.353 252.456ZM149.31 246.724C149.285 246.855 149.372 246.979 149.502 247.003C149.632 247.028 149.756 246.941 149.78 246.811C149.78 246.81 149.781 246.807 149.781 246.804C149.799 246.673 149.711 246.55 149.581 246.524C149.452 246.504 149.331 246.593 149.31 246.721C149.31 246.723 149.31 246.723 149.31 246.724ZM169.11 253.526C169.19 253.632 169.342 253.656 169.45 253.578C169.555 253.5 169.58 253.352 169.503 253.246C169.432 253.137 169.286 253.107 169.179 253.178C169.176 253.18 169.173 253.181 169.17 253.184C169.059 253.259 169.03 253.409 169.106 253.519C169.106 253.522 169.108 253.524 169.11 253.526ZM165.738 248.802C165.818 248.908 165.969 248.932 166.077 248.853C166.183 248.776 166.208 248.628 166.13 248.521C166.06 248.413 165.914 248.383 165.806 248.454C165.803 248.456 165.8 248.457 165.797 248.46C165.687 248.534 165.658 248.685 165.733 248.795C165.735 248.797 165.736 248.8 165.738 248.802ZM159.365 251.001C159.408 251.092 159.516 251.13 159.607 251.087C159.695 251.045 159.734 250.941 159.695 250.851C159.658 250.763 159.557 250.721 159.469 250.758C159.463 250.76 159.457 250.763 159.452 250.766C159.364 250.808 159.326 250.913 159.365 251.001ZM157.514 247.043C157.557 247.134 157.668 247.172 157.758 247.129C157.848 247.086 157.887 246.976 157.843 246.885C157.802 246.795 157.695 246.756 157.606 246.796C157.603 246.797 157.602 246.799 157.6 246.799C157.511 246.844 157.473 246.952 157.514 247.043ZM150.081 250.868C150.088 250.967 150.173 251.043 150.272 251.039C150.37 251.028 150.443 250.946 150.442 250.848C150.438 250.749 150.353 250.672 150.253 250.677C150.156 250.679 150.079 250.758 150.081 250.854C150.081 250.86 150.081 250.864 150.081 250.868ZM149.881 246.491C149.888 246.592 149.972 246.67 150.073 246.669C150.173 246.665 150.249 246.58 150.245 246.48C150.245 246.48 150.245 246.48 150.245 246.479C150.243 246.382 150.165 246.306 150.068 246.306C150.068 246.306 150.064 246.307 150.062 246.307C149.962 246.308 149.882 246.388 149.881 246.488C149.88 246.488 149.881 246.489 149.881 246.491Z" fill="white"/>
<path d="M167.523 175.097C173.383 180.591 173.433 193.328 171.728 200.558C169.585 209.647 163.473 217.769 154.458 221.169C165.301 224.278 171.831 226.644 177.831 237.218C182.422 245.309 186.418 253.938 189.823 262.691C196.389 279.567 195.232 301.19 194.538 319.226C194.357 323.905 193.926 327.554 194.093 331.759C195.887 331.485 200.432 331.905 202.444 331.928C207.162 331.98 205.244 330.497 205.434 325.66C205.591 321.672 205.362 319.318 205.241 315.124C204.943 304.79 205.273 294.02 204.221 283.668C202.143 263.199 198.557 241.489 193.008 221.942C190.276 212.319 185.362 202.271 181.157 192.903C177.045 183.744 173.593 172.96 163.509 165.602C164.719 168.88 165.052 172.779 167.523 175.097Z" fill="url(#paint14_linear)"/>
<path d="M139.995 151.157C129.301 154.768 130.388 164.274 137.553 172.015C144.363 179.374 154.121 177.994 162.937 176.102C171.426 174.279 179.935 172.636 188.422 170.91C198.842 168.79 207.176 164.705 216.977 159.947C223.75 156.659 231.026 153.176 238.193 151.712C235.029 146.564 233.112 140.441 231.273 135.049C224.186 138.075 215.299 140.838 207.79 142.025C204.012 142.623 177.034 146.5 176.188 146.582C172.209 146.966 168.514 147.355 164.465 147.601C156.388 148.09 148.688 148.691 140.943 150.883C140.746 151.007 140.37 151.157 139.995 151.157Z" fill="url(#paint15_linear)"/>
<path d="M179.757 217.36C183.416 217.36 186.383 214.396 186.383 210.74C186.383 207.084 183.416 204.121 179.757 204.121C176.097 204.121 173.131 207.084 173.131 210.74C173.131 214.396 176.097 217.36 179.757 217.36Z" fill="#F7931E"/>
<path d="M186.128 224.997C188.521 224.997 190.46 223.059 190.46 220.669C190.46 218.279 188.521 216.341 186.128 216.341C183.735 216.341 181.795 218.279 181.795 220.669C181.795 223.059 183.735 224.997 186.128 224.997Z" fill="#22B573"/>
<path d="M181.483 171.451C175.375 170.404 182.217 163.286 184.641 161.985C187.994 160.185 193.292 159.373 197.044 159.29C199.105 159.244 209.697 159.155 209.093 162.955C208.729 165.246 199.2 167.609 197.274 168.236C192.615 169.753 186.573 171.701 181.763 171.864C182.07 171.739 181.166 171.278 181.483 171.451Z" fill="url(#paint16_linear)"/>
<path d="M181.294 193.204C179.138 193.453 177.463 195.28 177.463 197.501C177.463 199.892 179.402 201.829 181.795 201.829C182.915 201.829 183.932 201.401 184.701 200.705C183.553 198.172 182.4 195.665 181.294 193.204Z" fill="#22B573"/>
<path d="M192.264 219.489C190.941 215.33 189.266 211.11 187.457 206.916C185.464 208.111 184.125 210.285 184.125 212.777C184.125 216.553 187.189 219.615 190.97 219.615C191.413 219.615 191.845 219.569 192.264 219.489Z" fill="#ED1E79"/>
<path d="M193.852 225.002C190.899 225.76 188.712 228.43 188.712 231.617C188.712 235.393 191.777 238.455 195.557 238.455C196.088 238.455 196.602 238.389 197.098 238.274C196.106 233.778 195.027 229.342 193.852 225.002Z" fill="#ED1E79"/>
<path d="M196.061 71.7301C192.015 71.2882 188.076 70.6189 184.245 69.725C184.779 65.5051 185.428 61.525 186.251 57.9095C190.218 58.4092 194.156 59.0776 198.066 59.9146C197.643 63.768 196.957 67.7125 196.061 71.7301Z" fill="#E94A47"/>
<path d="M365.538 107.513C363.434 109.582 361.251 111.485 358.991 113.226C356.868 110.99 354.931 108.8 353.279 106.679C355.38 104.681 357.562 102.777 359.826 100.966C361.794 102.972 363.694 105.167 365.538 107.513Z" fill="#E94A47"/>
<path d="M243.362 77.6353C242.387 77.9267 241.414 78.1553 240.445 78.3217C240.158 77.2978 239.921 76.318 239.759 75.4053C240.721 75.1348 241.693 74.906 242.675 74.7188C242.952 75.6476 243.178 76.6228 243.362 77.6353Z" fill="#23286B"/>
<path d="M216.84 87.1121C215.297 87.6325 213.756 88.0521 212.215 88.3722C211.699 86.7509 211.265 85.1974 210.955 83.747C212.479 83.2609 214.02 82.8409 215.58 82.4869C216.075 83.9566 216.489 85.5034 216.84 87.1121Z" fill="#A1C3FC"/>
<path d="M383.334 136.695C378.212 140.717 372.958 144.358 367.576 147.621C363.466 142.197 359.755 136.919 356.651 131.863C361.747 127.996 367 124.354 372.408 120.938C376.235 125.819 379.864 131.098 383.334 136.695Z" fill="#23286B"/>
</g>
<defs>
<linearGradient id="paint0_linear" x1="232.951" y1="329.105" x2="241.85" y2="241.067" gradientUnits="userSpaceOnUse">
<stop stop-color="#EEEEEE"/>
<stop offset="1" stop-color="#DCE3EA"/>
</linearGradient>
<linearGradient id="paint1_linear" x1="302.022" y1="347.137" x2="297.311" y2="276.918" gradientUnits="userSpaceOnUse">
<stop stop-color="#EEEEEE"/>
<stop offset="1" stop-color="#DCE3EA"/>
</linearGradient>
<linearGradient id="paint2_linear" x1="327.953" y1="324.315" x2="322.509" y2="259.252" gradientUnits="userSpaceOnUse">
<stop stop-color="#EEEEEE"/>
<stop offset="1" stop-color="#DCE3EA"/>
</linearGradient>
<linearGradient id="paint3_linear" x1="277.954" y1="179.273" x2="304.131" y2="-40.3391" gradientUnits="userSpaceOnUse">
<stop stop-color="#EEEEEE"/>
<stop offset="1" stop-color="#DCE3EA"/>
</linearGradient>
<linearGradient id="paint4_linear" x1="230.667" y1="197.43" x2="306.887" y2="197.43" gradientUnits="userSpaceOnUse">
<stop stop-color="#28306D"/>
<stop offset="0.51" stop-color="#1F275F"/>
<stop offset="1" stop-color="#171F51"/>
</linearGradient>
<linearGradient id="paint5_linear" x1="292.808" y1="50.0543" x2="289.198" y2="66.0143" gradientUnits="userSpaceOnUse">
<stop stop-color="#28306D"/>
<stop offset="0.51" stop-color="#1F275F"/>
<stop offset="1" stop-color="#171F51"/>
</linearGradient>
<linearGradient id="paint6_linear" x1="133.447" y1="237.991" x2="139.36" y2="235.589" gradientUnits="userSpaceOnUse">
<stop stop-color="#FFBEB6"/>
<stop offset="1" stop-color="#F2A19C"/>
</linearGradient>
<linearGradient id="paint7_linear" x1="102.937" y1="414.408" x2="159.294" y2="423.435" gradientUnits="userSpaceOnUse">
<stop stop-color="#428DFC"/>
<stop offset="1" stop-color="#1D72D8"/>
</linearGradient>
<linearGradient id="paint8_linear" x1="133.829" y1="136.422" x2="113.062" y2="128.764" gradientUnits="userSpaceOnUse">
<stop stop-color="#FFBEB6"/>
<stop offset="1" stop-color="#F2A19C"/>
</linearGradient>
<linearGradient id="paint9_linear" x1="148.613" y1="414.408" x2="204.97" y2="423.435" gradientUnits="userSpaceOnUse">
<stop stop-color="#428DFC"/>
<stop offset="1" stop-color="#1D72D8"/>
</linearGradient>
<linearGradient id="paint10_linear" x1="142.085" y1="318.848" x2="191.212" y2="318.848" gradientUnits="userSpaceOnUse">
<stop stop-color="#23286B"/>
<stop offset="1" stop-color="#151A4F"/>
</linearGradient>
<linearGradient id="paint11_linear" x1="130.317" y1="158.034" x2="156.515" y2="208.661" gradientUnits="userSpaceOnUse">
<stop stop-color="#A1C3FC"/>
<stop offset="1" stop-color="#81AEF2"/>
</linearGradient>
<linearGradient id="paint12_linear" x1="86.4464" y1="214.518" x2="99.5247" y2="214.518" gradientUnits="userSpaceOnUse">
<stop stop-color="#428DFC"/>
<stop offset="1" stop-color="#1D72D8"/>
</linearGradient>
<linearGradient id="paint13_linear" x1="261.786" y1="100.264" x2="273.219" y2="100.264" gradientUnits="userSpaceOnUse">
<stop stop-color="#EEEEEE"/>
<stop offset="1" stop-color="#D6D7D8"/>
</linearGradient>
<linearGradient id="paint14_linear" x1="154.458" y1="248.766" x2="205.663" y2="248.766" gradientUnits="userSpaceOnUse">
<stop stop-color="#EEEEEE"/>
<stop offset="1" stop-color="#D6D7D8"/>
</linearGradient>
<linearGradient id="paint15_linear" x1="146.846" y1="137.117" x2="176.517" y2="150.684" gradientUnits="userSpaceOnUse">
<stop stop-color="#A1C3FC"/>
<stop offset="1" stop-color="#81AEF2"/>
</linearGradient>
<linearGradient id="paint16_linear" x1="179.012" y1="165.571" x2="209.119" y2="165.571" gradientUnits="userSpaceOnUse">
<stop stop-color="#428DFC"/>
<stop offset="1" stop-color="#1D72D8"/>
</linearGradient>
<clipPath id="clip0">
<rect width="461" height="461" fill="white"/>
</clipPath>
</defs>
</svg>
