<svg width="30" height="30" viewBox="0 0 30 30" fill="none" xmlns="http://www.w3.org/2000/svg">
<path d="M22.5 14.3059C22.7299 14.6529 22.9597 15 23.0769 15.5769H19.3855C19.3855 15.4597 19.3855 15.2299 19.4982 15C19.6154 14.7701 19.6154 14.6529 19.8453 14.4231C19.9624 14.1932 20.1923 14.076 20.4222 13.9633C20.652 13.8462 20.9991 13.729 21.3462 13.729C21.8059 13.8462 22.2701 13.9633 22.5 14.3059ZM11.8855 13.4991C12.1154 13.2692 12.3453 12.9222 12.3453 12.4624C12.3453 12.2326 12.3453 11.9982 12.2326 11.7683C12.1154 11.6556 11.9982 11.4213 11.8855 11.4213C11.7683 11.3086 11.5385 11.3086 11.3086 11.1914C11.0787 11.1914 10.8444 11.1914 10.6145 11.1914H8.30679V13.8462H10.8444C11.1914 13.8462 11.5385 13.729 11.8855 13.4991ZM10.9615 15.4597H8.30679V18.5787H10.9615C11.1914 18.5787 11.4213 18.5787 11.6557 18.4615C11.8855 18.4615 12.1154 18.3444 12.2326 18.2317C12.3453 18.1145 12.5751 18.0018 12.6923 17.7674C12.8095 17.5376 12.8095 17.3077 12.8095 17.0778C12.8095 16.5009 12.6923 16.0367 12.3453 15.8068C11.9982 15.5769 11.5385 15.4597 10.9615 15.4597ZM30 5.65204V24.348C30 27.4624 27.4624 30 24.348 30H5.65204C2.53756 30 0 27.4624 0 24.348V5.65204C0 2.53756 2.53756 0 5.65204 0H24.348C27.4624 0 30 2.53756 30 5.65204ZM18.9213 11.0787H23.5367V9.92488H18.9213V11.0787ZM15.2299 17.3077C15.2299 16.6136 15.1172 16.0367 14.7701 15.4597C14.4231 15 13.9633 14.6529 13.2692 14.4231C13.729 14.1932 14.1932 13.8462 14.4231 13.4991C14.6529 13.152 14.7701 12.6923 14.7701 12.1154C14.7701 11.5385 14.6529 11.1914 14.5403 10.7317C14.3059 10.3846 14.076 10.0376 13.8462 9.92488C13.4991 9.69051 13.152 9.57782 12.6923 9.46064C12.1154 9.23077 11.6557 9.23077 11.0787 9.23077H5.76923V20.5394H11.3086C11.7683 20.5394 12.3453 20.4222 12.8095 20.3095C13.2692 20.1923 13.729 19.9624 14.076 19.7326C14.4231 19.4982 14.7701 19.1556 15 18.6914C15.1172 18.3444 15.2299 17.8846 15.2299 17.3077ZM19.3855 16.9606H25.2674C25.2674 16.271 25.2674 15.6941 25.1547 15.1172C25.0376 14.5403 24.8077 13.9633 24.4606 13.6163C24.1136 13.152 23.6538 12.8095 23.1941 12.5751C22.6172 12.3453 22.0403 12.1154 21.3462 12.1154C20.7692 12.1154 20.1923 12.2326 19.6154 12.4624C19.1556 12.6923 18.6914 13.0394 18.2317 13.3864C17.8846 13.729 17.5376 14.1932 17.4249 14.7701C17.1905 15.3471 17.0778 15.924 17.0778 16.5009C17.0778 17.0778 17.1905 17.7674 17.4249 18.2317C17.6547 18.8086 17.8846 19.2683 18.2317 19.6154C18.5787 19.9624 19.0385 20.3095 19.4982 20.5394C20.0751 20.7692 20.652 20.8864 21.229 20.8864C22.1529 20.8864 22.9597 20.652 23.6538 20.1923C24.348 19.7326 24.8077 19.0385 25.1547 18.1145H23.1941C23.0769 18.3444 22.9597 18.5787 22.6172 18.8086C22.2701 19.0385 21.9231 19.1556 21.4633 19.1556C20.8864 19.1556 20.3095 19.0385 19.9624 18.6914C19.6154 18.2317 19.3855 17.6547 19.3855 16.9606Z" fill="#85B7F7"/>
</svg>
