<svg width="207" height="219" viewBox="0 0 207 219" fill="none" xmlns="http://www.w3.org/2000/svg">
<g clip-path="url(#clip0)">
<path d="M125.77 51.3046C123.188 53.222 122.001 56.4357 122.262 59.8523L110.327 40.4878L89.6761 52.925C94.2417 52.2796 98.6892 54.0924 100.866 57.911C103.821 63.1072 101.393 70.0443 95.4663 73.4103C89.5399 76.7763 82.3447 75.2926 79.3891 70.0961C77.3443 66.4805 77.8847 62.0173 80.4001 58.5137L59.8306 70.9071L75.2602 95.4631L79.8619 102.674L94.0505 125.33L143.352 94.0841L129.069 70.8956C132.833 73.2538 137.289 73.4805 140.477 71.1131C144.926 67.8096 145.233 60.6992 141.174 55.2319C137.115 49.7647 130.219 48.0011 125.77 51.3046Z" fill="#FFA6AE"/>
<path d="M78.0475 83.9179C75.3318 85.9343 74.0072 89.4188 74.3781 93.1862L60.2211 70.6733C60.156 70.5756 60.0562 70.5064 59.942 70.4795C59.8278 70.4526 59.7076 70.4702 59.6058 70.5286L38.491 83.0468C40.4228 79.5438 40.5482 75.4825 38.7157 72.2546C37.2278 69.6171 34.6667 67.8141 31.4927 67.1619C28.2441 66.532 24.8772 67.1017 22.0165 68.7653C15.8786 72.2508 13.3847 79.4806 16.4506 84.877C18.3851 88.2927 22.1413 90.2616 26.3456 90.225L6.91142 101.739C6.80783 101.804 6.73415 101.908 6.7064 102.027C6.67866 102.146 6.69908 102.271 6.76323 102.376L42.3718 157.176C42.4351 157.276 42.5352 157.348 42.6506 157.375C42.7659 157.402 42.8874 157.383 42.9889 157.322L94.2851 125.723L94.3216 125.696C94.4039 125.631 94.4628 125.541 94.4894 125.44C94.518 125.32 94.498 125.193 94.4337 125.087L81.3171 104.229C85.3152 106.752 89.9742 106.922 93.2959 104.456C97.9393 101.008 98.2896 93.6016 94.0863 87.9403C89.883 82.279 82.6908 80.4703 78.0475 83.9179Z" fill="#1A1A1A"/>
<path d="M143.622 94.4477L143.598 94.4659L94.2965 125.712C94.1929 125.774 94.0712 125.798 93.952 125.78C93.8936 125.767 93.8384 125.742 93.7898 125.707C93.7413 125.672 93.7003 125.627 93.6695 125.576L79.4808 102.919C79.426 102.818 79.4114 102.701 79.4399 102.589C79.4684 102.478 79.5379 102.382 79.6344 102.319C79.731 102.257 79.8475 102.234 79.9606 102.254C80.0737 102.274 80.1751 102.336 80.2443 102.428L94.1872 124.702L142.725 93.9476L128.668 71.1369C128.617 71.0493 128.596 70.9469 128.609 70.846C128.622 70.7452 128.669 70.6517 128.742 70.5804C128.814 70.5092 128.909 70.4643 129.01 70.453C129.111 70.4416 129.213 70.4644 129.299 70.5178C133.007 72.8259 137.288 72.9187 140.21 70.7492C144.453 67.5985 144.719 60.7628 140.813 55.5016C136.907 50.2405 130.274 48.5267 126.043 51.6682C123.667 53.4326 122.451 56.4043 122.712 59.821C122.722 59.9227 122.696 60.0247 122.638 60.109C122.58 60.1933 122.494 60.2544 122.395 60.2815C122.299 60.3127 122.195 60.3103 122.1 60.2747C122.006 60.2392 121.926 60.1726 121.874 60.0857L110.174 41.1103L91.5135 52.3513C95.6568 52.3588 99.3554 54.3516 101.249 57.6869C104.057 62.6349 102.204 69.1056 97.1728 72.8413C96.6959 73.198 96.1971 73.5246 95.6795 73.8192C92.8186 75.4814 89.4521 76.05 86.2041 75.4197C83.0299 74.7664 80.4691 72.964 78.9812 70.3265C77.1907 67.1804 77.2459 63.303 79.0382 59.8661L60.4715 71.0565L75.6587 95.21C75.6968 95.26 75.7241 95.3173 75.739 95.3784C75.7538 95.4394 75.7559 95.5029 75.745 95.5648C75.7342 95.6267 75.7106 95.6857 75.6758 95.7381C75.641 95.7904 75.5958 95.835 75.543 95.869C75.4901 95.903 75.4308 95.9257 75.3687 95.9357C75.3067 95.9457 75.2432 95.9427 75.1824 95.927C75.1216 95.9112 75.0646 95.883 75.0152 95.8442C74.9658 95.8054 74.9249 95.7568 74.8952 95.7014L59.4654 71.1452C59.401 71.0393 59.381 70.9123 59.4098 70.7917C59.4229 70.7333 59.4477 70.6781 59.4828 70.6296C59.5179 70.5811 59.5624 70.5402 59.6137 70.5094L80.1832 58.1159C80.2739 58.0637 80.3796 58.0436 80.4831 58.0589C80.5866 58.0742 80.6819 58.1239 80.7536 58.2002C80.825 58.2773 80.8675 58.3769 80.8738 58.4818C80.8802 58.5867 80.85 58.6907 80.7885 58.7759C78.2739 62.2789 77.8939 66.5292 79.795 69.8754C80.4988 71.0788 81.4533 72.1166 82.5938 72.9183C83.7342 73.7201 85.0339 74.267 86.4045 74.5219C89.4335 75.108 92.5725 74.5754 95.2389 73.023C100.941 69.7859 103.278 63.1049 100.46 58.145C98.4662 54.6231 94.2536 52.7489 89.7358 53.3763C89.633 53.3902 89.5286 53.3679 89.4403 53.3134C89.3521 53.2589 89.2855 53.1754 89.252 53.0772C89.2182 52.9776 89.2196 52.8695 89.2558 52.7708C89.2921 52.672 89.361 52.5887 89.4511 52.5345L110.094 40.0863C110.196 40.0279 110.316 40.0104 110.431 40.0373C110.545 40.0641 110.645 40.1334 110.71 40.2311L121.781 58.2072C121.958 55.1789 123.26 52.5761 125.491 50.9197C130.135 47.4721 137.325 49.2793 141.529 54.9406C145.732 60.6019 145.382 68.0078 140.738 71.4555C137.914 73.5529 133.966 73.7575 130.329 72.0762L143.724 93.8256C143.787 93.9237 143.811 94.0414 143.792 94.1562C143.773 94.2711 143.713 94.3749 143.622 94.4477Z" fill="#1A1A1A"/>
<path d="M93.8262 124.952L120.181 108.242C121.511 103.042 121.058 98.3762 118.493 94.9214C111.238 85.1506 89.8337 88.7445 70.6786 102.967C51.5234 117.19 41.8903 136.641 49.1448 146.412C50.2468 147.878 51.6682 149.073 53.3012 149.908L93.8262 124.952Z" fill="white"/>
<path d="M125.483 50.9181C123.252 52.5745 121.95 55.1773 121.772 58.2056L110.701 40.2295C110.636 40.1318 110.537 40.0625 110.422 40.0357C110.308 40.0088 110.188 40.0263 110.086 40.0847L89.443 52.5329C89.3528 52.5871 89.2839 52.6704 89.2477 52.7691C89.2114 52.8679 89.2101 52.976 89.2438 53.0756C89.2774 53.1738 89.3439 53.2572 89.4322 53.3118C89.5204 53.3663 89.6248 53.3886 89.7276 53.3747C94.2455 52.7472 98.4581 54.6215 100.452 58.1434C103.27 63.1033 100.933 69.7837 95.2307 73.0214C92.5643 74.5738 89.4254 75.1064 86.3963 74.5203C85.0257 74.2654 83.7261 73.7185 82.5856 72.9167C81.4452 72.115 80.4906 71.0772 79.7869 69.8738C77.8858 66.5276 78.2661 62.2779 80.7803 58.7743C80.8419 58.689 80.872 58.5851 80.8657 58.4802C80.8593 58.3752 80.8169 58.2757 80.7455 58.1985C80.6738 58.1223 80.5785 58.0726 80.4749 58.0573C80.3714 58.042 80.2658 58.062 80.1751 58.1143L59.6102 70.5087C59.5588 70.5394 59.5142 70.5803 59.4791 70.6288C59.4441 70.6774 59.4193 70.7326 59.4062 70.791C59.3775 70.9117 59.3975 71.0388 59.4621 71.1448L74.8917 95.7007C74.9214 95.7561 74.9623 95.8047 75.0117 95.8436C75.0611 95.8824 75.118 95.9105 75.1789 95.9263C75.2397 95.942 75.3031 95.945 75.3652 95.9351C75.4273 95.9251 75.4866 95.9024 75.5394 95.8684C75.5923 95.8343 75.6375 95.7898 75.6723 95.7374C75.7071 95.685 75.7306 95.6261 75.7415 95.5642C75.7524 95.5023 75.7503 95.4388 75.7354 95.3777C75.7206 95.3167 75.6932 95.2593 75.6551 95.2094L60.468 71.0558L79.0346 59.8654C77.2424 63.3024 77.1872 67.1798 78.9777 70.3259C80.4658 72.9636 83.0269 74.7666 86.2009 75.4188C89.4487 76.0493 92.8151 75.4807 95.6759 73.8185C96.1936 73.5239 96.6923 73.1973 97.1693 72.8406C102.2 69.105 104.053 62.6331 101.245 57.6863C99.3529 54.3523 95.6545 52.3598 91.511 52.352L110.171 41.111L121.871 60.0867C121.923 60.1735 122.003 60.2401 122.098 60.2757C122.192 60.3112 122.296 60.3136 122.392 60.2824C122.491 60.2553 122.577 60.1942 122.635 60.1099C122.693 60.0257 122.719 59.9236 122.709 59.8219C122.448 56.4053 123.664 53.4335 126.04 51.6692C130.272 48.5274 136.904 50.2415 140.81 55.5026C144.716 60.7637 144.451 67.5995 140.207 70.7502C137.285 72.9196 133.004 72.8268 129.297 70.5187C129.21 70.4654 129.108 70.4426 129.007 70.4539C128.906 70.4653 128.812 70.5102 128.739 70.5814C128.666 70.6526 128.62 70.7461 128.606 70.847C128.593 70.9478 128.614 71.0502 128.666 71.1378L142.723 93.9489L120.181 108.222C120.129 108.43 120.065 108.647 120.009 108.876L94.0362 125.34L93.6577 125.565L93.6667 125.577C93.6975 125.628 93.7384 125.673 93.787 125.708C93.8356 125.743 93.8907 125.768 93.9492 125.781C94.0684 125.799 94.1901 125.775 94.2937 125.713L143.595 94.4668L143.619 94.4489C143.71 94.3761 143.771 94.2724 143.79 94.1577C143.809 94.0429 143.784 93.9252 143.722 93.8271L130.317 72.0743C133.954 73.7556 137.902 73.551 140.726 71.4535C145.37 68.0059 145.72 60.6 141.517 54.9387C137.313 49.2774 130.126 47.4705 125.483 50.9181Z" fill="#1A1A1A"/>
<path d="M107.622 90.1112C107.539 90.1778 107.434 90.2089 107.329 90.1979C107.269 90.1961 107.211 90.1823 107.156 90.1573C107.102 90.1323 107.054 90.0966 107.014 90.0524C106.974 90.0081 106.944 89.9563 106.925 89.8999C106.905 89.8436 106.898 89.7839 106.902 89.7245C107.577 77.2101 111.066 65.0089 117.111 54.03C117.17 53.9242 117.268 53.8459 117.384 53.8125C117.5 53.779 117.625 53.7931 117.731 53.8517C117.837 53.9103 117.915 54.0085 117.949 54.1248C117.982 54.241 117.968 54.3658 117.909 54.4717C111.924 65.3268 108.469 77.3937 107.802 89.771C107.799 89.8375 107.781 89.9025 107.75 89.9613C107.719 90.0201 107.675 90.0713 107.622 90.1112Z" fill="white"/>
<path d="M94.321 125.694L94.2965 125.712C94.1951 125.777 94.0722 125.799 93.9546 125.774C93.837 125.748 93.7343 125.677 93.6689 125.576L79.2251 102.601C79.1659 102.509 79.1421 102.398 79.1582 102.289C79.1742 102.18 79.2291 102.081 79.3126 102.01C79.3953 101.938 79.5014 101.9 79.6106 101.902C79.7198 101.905 79.8244 101.947 79.9042 102.022C83.9213 105.659 89.2026 106.363 92.7426 103.735C96.986 100.584 97.2517 93.7484 93.3455 88.4873C93.2739 88.3908 93.2435 88.2699 93.2611 88.1511C93.2787 88.0322 93.3427 87.9253 93.4392 87.8536C93.5356 87.782 93.6566 87.7517 93.7754 87.7692C93.8942 87.7868 94.0012 87.8508 94.0728 87.9473C98.2761 93.6086 97.9261 101.015 93.2828 104.462C89.961 106.929 85.302 106.758 81.3039 104.236L94.4326 125.085C94.4959 125.181 94.5196 125.298 94.4989 125.412C94.4781 125.525 94.4144 125.626 94.321 125.694Z" fill="#1A1A1A"/>
<path d="M67.5066 83.0186L67.4824 83.0365C67.3811 83.1013 67.2583 83.1234 67.1407 83.098C67.0232 83.0726 66.9205 83.0017 66.855 82.9008L61.0231 73.7284C60.9849 73.6785 60.9575 73.6212 60.9426 73.5601C60.9277 73.499 60.9256 73.4355 60.9365 73.3736C60.9473 73.3117 60.9708 73.2527 61.0056 73.2003C61.0403 73.1479 61.0856 73.1033 61.1384 73.0693C61.1913 73.0352 61.2506 73.0125 61.3127 73.0025C61.3747 72.9925 61.4382 72.9955 61.499 73.0112C61.5599 73.027 61.6168 73.0551 61.6663 73.0939C61.7157 73.1328 61.7566 73.1814 61.7863 73.2368L67.6174 82.4098C67.6758 82.5074 67.6968 82.623 67.6764 82.735C67.656 82.847 67.5957 82.9477 67.5066 83.0186Z" fill="#1A1A1A"/>
<path d="M67.2496 81.8362C71.3764 75.6548 74.4043 68.8068 76.1996 61.5946L65.0142 68.3388C64.172 70.2371 63.2316 72.0903 62.1969 73.891L67.2496 81.8362Z" fill="white"/>
<path d="M50.9275 117.049C53.3044 115.284 53.8008 111.926 52.0361 109.55C50.2714 107.173 46.914 106.677 44.537 108.442C42.1601 110.206 41.6637 113.564 43.4284 115.941C45.1931 118.318 48.5505 118.814 50.9275 117.049Z" fill="#FFA6AE"/>
<path d="M61.6884 74.7766C60.5256 76.7152 59.2511 78.5845 57.8711 80.375C53.5343 85.9836 48.0017 90.9941 41.4581 95.2511C32.2165 101.183 21.9463 105.332 11.1781 107.485L16.1125 115.068C23.2173 113.365 34.6659 109.736 46.0655 102.343C47.5343 101.384 48.9648 100.397 50.3471 99.3711C55.6976 95.4359 60.4846 90.787 64.5748 85.554C65.3103 84.5943 66.0124 83.6402 66.6876 82.6498L61.6884 74.7766Z" fill="white"/>
<path d="M123.093 84.3782C124.566 83.2844 124.874 81.2036 123.78 79.7306C122.687 78.2576 120.606 77.9502 119.133 79.0439C117.66 80.1377 117.352 82.2185 118.446 83.6915C119.539 85.1646 121.62 85.472 123.093 84.3782Z" fill="white"/>
<path d="M110.373 115.374C110.337 115.403 110.298 115.427 110.255 115.443C110.14 115.483 110.014 115.476 109.904 115.424C109.795 115.371 109.711 115.277 109.67 115.163C109.646 115.105 107.741 109.524 107.031 100.742C106.739 97.0796 106.692 93.402 106.889 89.7335C106.895 89.6142 106.948 89.5022 107.037 89.4222C107.126 89.3422 107.243 89.3007 107.362 89.3069C107.481 89.3131 107.593 89.3664 107.673 89.4551C107.753 89.5438 107.795 89.6607 107.789 89.78C107.59 93.4121 107.636 97.0535 107.926 100.679C108.63 109.353 110.497 114.831 110.521 114.888C110.557 114.974 110.562 115.069 110.535 115.158C110.508 115.247 110.45 115.323 110.373 115.374Z" fill="#1A1A1A"/>
<path d="M139.675 132.025C139.675 132.025 141.903 142.971 142.022 144.633C142.864 156.452 146.854 206.49 146.854 206.49C146.875 206.792 146.778 207.09 146.583 207.321C146.389 207.552 146.113 207.699 145.813 207.729C145.513 207.759 145.214 207.671 144.977 207.484C144.741 207.296 144.587 207.023 144.547 206.723C144.547 206.723 138.516 156.892 136.994 145.142C136.78 143.49 136.789 132.317 136.789 132.317L139.675 132.025Z" fill="#FB6F7B"/>
<path d="M145.691 208.428C145.243 208.429 144.809 208.265 144.473 207.967C144.136 207.67 143.92 207.259 143.863 206.812C143.802 206.304 137.815 156.841 136.31 145.229C136.093 143.551 136.099 132.773 136.1 132.315C136.1 132.143 136.163 131.978 136.278 131.851C136.393 131.723 136.55 131.643 136.72 131.626L139.605 131.334C139.775 131.317 139.945 131.364 140.083 131.465C140.22 131.567 140.316 131.716 140.35 131.884C140.442 132.333 142.589 142.894 142.709 144.581C143.541 156.261 147.5 205.93 147.54 206.431C147.578 206.914 147.425 207.392 147.115 207.764C146.805 208.135 146.362 208.369 145.882 208.416C145.817 208.424 145.754 208.428 145.691 208.428ZM137.478 132.943C137.478 136.937 137.521 143.846 137.678 145.052C139.183 156.67 145.169 206.141 145.231 206.64C145.25 206.761 145.314 206.869 145.41 206.943C145.506 207.018 145.627 207.052 145.747 207.038C145.868 207.025 145.978 206.966 146.056 206.872C146.134 206.779 146.173 206.659 146.165 206.538C146.126 206.045 142.167 156.369 141.334 144.683C141.247 143.47 139.915 136.691 139.124 132.778L137.478 132.943Z" fill="#1A1A1A"/>
<path d="M136.788 132.317L139.675 132.025C139.675 132.025 140.876 137.92 141.563 141.715L136.863 142.191C136.782 138.334 136.788 132.317 136.788 132.317Z" fill="#1A1A1A"/>
<path d="M136.57 131.873C136.372 129.898 132.759 124.422 135.408 117.838C137.258 113.238 138.789 114.711 137.368 109.751C137.368 109.751 141.146 115.943 141.314 123.081C141.416 127.393 139.843 128.217 139.846 131.541" fill="white"/>
<path d="M136.569 132.565C136.398 132.565 136.234 132.501 136.107 132.386C135.98 132.271 135.901 132.113 135.884 131.942C135.753 131.306 135.561 130.684 135.312 130.084C134.322 127.363 132.664 122.809 134.769 117.578C135.22 116.429 135.813 115.341 136.533 114.34C137.314 113.217 137.547 112.878 136.706 109.942C136.659 109.781 136.673 109.609 136.743 109.457C136.814 109.305 136.937 109.184 137.09 109.117C137.242 109.049 137.414 109.039 137.573 109.089C137.733 109.139 137.868 109.246 137.956 109.388C138.114 109.647 141.832 115.823 142.003 123.064C142.064 124.808 141.783 126.546 141.178 128.181C140.763 129.252 140.545 130.39 140.535 131.54C140.535 131.724 140.462 131.9 140.333 132.03C140.204 132.159 140.028 132.232 139.846 132.232C139.663 132.232 139.487 132.159 139.358 132.03C139.229 131.9 139.156 131.724 139.156 131.54C139.167 130.242 139.409 128.956 139.869 127.743C140.424 126.259 140.681 124.68 140.625 123.097C140.48 119.835 139.753 116.626 138.48 113.622C138.291 114.167 138.015 114.677 137.662 115.132C137.001 116.048 136.458 117.044 136.045 118.097C134.14 122.834 135.623 126.911 136.604 129.609C136.901 130.314 137.119 131.05 137.254 131.803C137.273 131.985 137.218 132.167 137.103 132.309C136.989 132.451 136.822 132.542 136.641 132.561C136.615 132.564 136.592 132.565 136.569 132.565Z" fill="#1A1A1A"/>
<path d="M174.029 114.829C174.029 114.829 172.684 132.042 172.153 134.562C168.378 152.475 158.732 196.916 158.732 196.916C158.635 197.373 158.364 197.774 157.977 198.034C157.59 198.295 157.118 198.394 156.66 198.31C156.202 198.226 155.795 197.967 155.524 197.586C155.253 197.206 155.141 196.735 155.209 196.273C155.209 196.273 161.736 151.264 164.47 133.161C164.855 130.615 169.618 114.025 169.618 114.025L174.029 114.829Z" fill="#1A1A1A"/>
<path d="M156.99 199.033C156.839 199.033 156.687 199.019 156.538 198.991C155.902 198.879 155.336 198.52 154.96 197.993C154.584 197.466 154.429 196.812 154.527 196.171C154.592 195.723 161.084 150.955 163.788 133.057C164.175 130.495 168.762 114.512 168.957 113.833C169.005 113.668 169.111 113.526 169.256 113.436C169.401 113.346 169.575 113.313 169.743 113.343L174.152 114.147C174.32 114.178 174.471 114.27 174.576 114.406C174.68 114.542 174.73 114.712 174.717 114.883C174.662 115.588 173.362 132.17 172.827 134.705C169.095 152.416 159.504 196.619 159.407 197.063C159.29 197.62 158.986 198.12 158.546 198.478C158.106 198.837 157.557 199.033 156.99 199.033ZM170.11 114.818C169.253 117.816 165.484 131.063 165.151 133.265C162.447 151.159 155.959 195.923 155.891 196.373C155.851 196.656 155.922 196.944 156.089 197.176C156.255 197.408 156.505 197.566 156.785 197.618C157.065 197.669 157.354 197.61 157.592 197.452C157.829 197.294 157.997 197.05 158.059 196.771C158.156 196.324 167.747 152.126 171.48 134.418C171.94 132.24 173.047 118.507 173.294 115.397L170.11 114.818Z" fill="#1A1A1A"/>
<path d="M169.619 114.025L174.031 114.829C174.031 114.829 173.308 124.1 172.714 130.032L165.531 128.721C167.05 122.958 169.619 114.025 169.619 114.025Z" fill="#FB6F7B"/>
<path d="M172.714 130.724C172.672 130.724 172.631 130.72 172.591 130.713L165.407 129.403C165.314 129.386 165.225 129.349 165.146 129.296C165.067 129.243 165 129.173 164.949 129.093C164.898 129.012 164.864 128.922 164.849 128.827C164.835 128.733 164.84 128.636 164.864 128.544C166.368 122.84 168.931 113.922 168.955 113.833C169.002 113.668 169.108 113.526 169.254 113.436C169.399 113.346 169.572 113.313 169.74 113.343L174.152 114.148C174.32 114.179 174.471 114.271 174.575 114.407C174.679 114.542 174.73 114.712 174.716 114.883C174.709 114.976 173.986 124.23 173.399 130.101C173.381 130.272 173.302 130.43 173.175 130.545C173.048 130.66 172.883 130.724 172.712 130.724H172.714ZM166.389 128.175L172.102 129.217C172.583 124.277 173.13 117.473 173.294 115.399L170.109 114.819C169.537 116.818 167.665 123.381 166.389 128.175Z" fill="#1A1A1A"/>
<path d="M169.557 114.051C170.049 111.328 164.417 108.891 170.499 101.085C174.748 95.6319 179.746 88.6947 176.867 83.9468C176.867 83.9468 181.813 94.4569 179.297 104.098C177.776 109.92 175.352 110.416 174.079 114.879" fill="#1A1A1A"/>
<path d="M174.079 115.571C174.015 115.571 173.951 115.562 173.889 115.545C173.802 115.52 173.721 115.477 173.65 115.421C173.579 115.364 173.52 115.294 173.476 115.215C173.432 115.135 173.404 115.047 173.394 114.957C173.383 114.867 173.391 114.775 173.416 114.688C173.922 112.979 174.728 111.375 175.795 109.95C177.127 108.149 178.09 106.101 178.63 103.924C179.963 98.8202 179.125 93.4154 178.092 89.5636C177.109 93.4181 174.064 97.6365 171.042 101.514C167.072 106.61 168.376 109.148 169.429 111.187C169.942 112.182 170.426 113.121 170.235 114.178C170.202 114.358 170.1 114.519 169.949 114.623C169.799 114.728 169.613 114.768 169.434 114.735C169.254 114.702 169.094 114.599 168.99 114.448C168.886 114.297 168.846 114.111 168.878 113.93C168.985 113.338 168.641 112.67 168.205 111.823C167.104 109.686 165.44 106.457 169.957 100.66C172.836 96.9671 177.954 90.3978 176.862 85.7483C176.506 84.8138 176.255 84.2709 176.244 84.2469C176.165 84.0864 176.151 83.9016 176.205 83.7311C176.259 83.5606 176.377 83.4177 176.533 83.3323C176.69 83.2469 176.873 83.2256 177.045 83.273C177.217 83.3203 177.363 83.4326 177.455 83.5862C177.792 84.1407 178.044 84.7426 178.204 85.372C179.505 88.7907 181.934 96.7233 179.963 104.273C179.381 106.604 178.351 108.798 176.929 110.731C175.947 112.033 175.205 113.502 174.739 115.067C174.699 115.212 174.612 115.339 174.493 115.43C174.374 115.521 174.229 115.571 174.079 115.571Z" fill="#1A1A1A"/>
<path d="M130.758 132.003L126.84 123.048L126.777 132.877" fill="#FB6F7B"/>
<path d="M126.777 132.876L130.758 132.002L145.45 200.593L141.469 201.467L126.777 132.876Z" fill="#1A1A1A"/>
<path d="M141.567 202.025L145.548 201.152C145.694 201.118 145.822 201.028 145.904 200.902C145.986 200.776 146.016 200.623 145.989 200.474L131.33 131.961C131.332 131.893 131.317 131.826 131.284 131.767L127.366 122.811C127.31 122.692 127.216 122.596 127.1 122.537C126.983 122.478 126.85 122.459 126.722 122.484C126.602 122.513 126.493 122.579 126.412 122.673C126.332 122.767 126.283 122.885 126.272 123.009C126.272 123.028 126.272 123.028 126.252 123.026L126.208 132.86C126.203 132.886 126.208 132.914 126.222 132.937L126.219 132.994L140.893 201.582C140.906 201.655 140.935 201.725 140.977 201.787C141.019 201.848 141.073 201.901 141.136 201.94C141.263 202.024 141.418 202.055 141.567 202.025ZM140.117 192.425L142.983 191.787L144.218 197.543L141.351 198.182L140.117 192.425ZM142.749 190.667L139.883 191.305L127.471 133.3L130.337 132.68L142.749 190.667ZM129.968 131.591L127.352 132.17L127.394 125.713L129.968 131.591ZM141.605 199.303L144.471 198.664L144.796 200.151L141.93 200.771L141.605 199.303Z" fill="#1A1A1A"/>
<path d="M145.795 177.48L149.478 134.182C149.493 134.004 149.542 133.832 149.624 133.673C149.705 133.515 149.817 133.375 149.953 133.26C150.088 133.145 150.245 133.059 150.414 133.005C150.583 132.951 150.761 132.931 150.937 132.946L159.238 133.658C159.594 133.689 159.925 133.861 160.155 134.136C160.386 134.411 160.499 134.767 160.468 135.125L156.786 178.423C156.755 178.781 156.584 179.113 156.311 179.344C156.037 179.576 155.683 179.689 155.326 179.658L147.026 178.946C146.849 178.931 146.677 178.881 146.52 178.799C146.362 178.717 146.222 178.605 146.108 178.469C145.994 178.333 145.908 178.175 145.854 178.005C145.8 177.836 145.78 177.657 145.796 177.48L145.795 177.48Z" fill="#FB6F7B"/>
<path d="M155.442 180.356C155.384 180.356 155.326 180.356 155.267 180.348L146.967 179.636C146.428 179.589 145.93 179.329 145.581 178.914C145.233 178.498 145.063 177.961 145.109 177.42L148.791 134.122C148.837 133.581 149.096 133.08 149.509 132.73C149.923 132.38 150.458 132.209 150.997 132.255L159.296 132.967C159.835 133.014 160.333 133.274 160.682 133.689C161.03 134.104 161.2 134.642 161.155 135.183L157.473 178.481C157.429 178.992 157.196 179.467 156.82 179.814C156.444 180.161 155.953 180.355 155.442 180.356ZM150.823 133.634C150.657 133.634 150.498 133.696 150.376 133.809C150.254 133.921 150.179 134.075 150.164 134.241L146.482 177.538C146.468 177.713 146.523 177.887 146.636 178.022C146.749 178.157 146.91 178.241 147.084 178.256L155.384 178.968C155.559 178.983 155.732 178.927 155.866 178.814C156 178.701 156.084 178.539 156.099 178.363L159.781 135.065C159.789 134.979 159.779 134.891 159.753 134.808C159.726 134.725 159.684 134.648 159.628 134.581C159.572 134.515 159.504 134.46 159.427 134.42C159.35 134.38 159.266 134.355 159.179 134.348L150.879 133.636C150.86 133.634 150.843 133.633 150.823 133.633V133.634Z" fill="#1A1A1A"/>
<path d="M159.876 133.946L150.26 133.121L153.825 124.402C153.969 124.044 154.222 123.742 154.547 123.536C154.872 123.33 155.253 123.232 155.637 123.255C156.02 123.278 156.387 123.421 156.685 123.664C156.984 123.908 157.199 124.238 157.3 124.61L159.876 133.946Z" fill="#FB6F7B"/>
<path d="M159.876 134.639C159.857 134.639 159.837 134.639 159.818 134.636L150.2 133.808C150.092 133.799 149.988 133.764 149.896 133.707C149.804 133.65 149.726 133.571 149.67 133.478C149.613 133.386 149.58 133.281 149.571 133.172C149.562 133.064 149.579 132.955 149.621 132.854L153.187 124.137C153.387 123.646 153.734 123.231 154.181 122.948C154.628 122.666 155.151 122.531 155.678 122.563C156.205 122.594 156.708 122.791 157.119 123.125C157.529 123.458 157.824 123.913 157.964 124.424L160.541 133.762C160.569 133.864 160.574 133.972 160.554 134.077C160.533 134.182 160.489 134.281 160.425 134.366C160.361 134.451 160.278 134.519 160.183 134.567C160.087 134.614 159.983 134.639 159.876 134.639ZM151.257 132.509L158.949 133.169L156.634 124.793C156.571 124.56 156.437 124.353 156.25 124.201C156.064 124.049 155.834 123.959 155.594 123.945C155.354 123.93 155.116 123.992 154.912 124.121C154.709 124.25 154.551 124.439 154.461 124.663L151.257 132.509Z" fill="#1A1A1A"/>
<path d="M157.089 175.559C157.07 175.559 157.05 175.559 157.03 175.559L146.039 174.616C145.949 174.608 145.861 174.583 145.78 174.541C145.7 174.499 145.628 174.442 145.57 174.372C145.511 174.303 145.467 174.223 145.44 174.136C145.412 174.049 145.402 173.958 145.41 173.867C145.417 173.777 145.443 173.688 145.484 173.607C145.526 173.527 145.583 173.455 145.652 173.396C145.721 173.337 145.801 173.293 145.888 173.265C145.974 173.238 146.065 173.227 146.155 173.235L157.146 174.178C157.323 174.194 157.487 174.278 157.603 174.412C157.72 174.546 157.781 174.72 157.774 174.897C157.766 175.075 157.691 175.243 157.563 175.367C157.435 175.49 157.265 175.56 157.088 175.561L157.089 175.559Z" fill="#1A1A1A"/>
<path d="M146.966 166.43L146.614 170.57L157.604 171.513L157.956 167.373L146.966 166.43Z" fill="#1A1A1A"/>
<path d="M149.156 140.67L148.804 144.81L159.795 145.753L160.147 141.613L149.156 140.67Z" fill="#1A1A1A"/>
<path d="M160.173 139.296C160.154 139.296 160.134 139.296 160.114 139.296L149.123 138.352C149.033 138.345 148.944 138.321 148.863 138.279C148.782 138.238 148.709 138.18 148.65 138.111C148.591 138.041 148.547 137.96 148.519 137.873C148.491 137.786 148.481 137.694 148.488 137.603C148.496 137.512 148.522 137.423 148.564 137.342C148.606 137.261 148.664 137.189 148.734 137.13C148.803 137.071 148.884 137.027 148.971 137C149.058 136.973 149.15 136.964 149.241 136.972L160.231 137.915C160.414 137.923 160.586 138.003 160.71 138.138C160.834 138.274 160.899 138.453 160.892 138.637C160.884 138.82 160.804 138.993 160.669 139.118C160.535 139.242 160.356 139.308 160.173 139.3V139.296Z" fill="#1A1A1A"/>
<path d="M161.447 207.816H136.231L128.596 158.647H169.083L161.447 207.816Z" fill="#FB6F7B"/>
<path d="M137.88 158.647L143.199 207.735L136.114 207.058L128.366 158.647H137.88Z" fill="white"/>
<path d="M161.447 208.507H136.232C136.067 208.507 135.908 208.448 135.783 208.341C135.658 208.233 135.576 208.085 135.551 207.921L127.915 158.753C127.899 158.654 127.905 158.553 127.932 158.457C127.96 158.36 128.007 158.271 128.072 158.195C128.137 158.119 128.218 158.058 128.309 158.016C128.4 157.974 128.498 157.953 128.598 157.953H169.083C169.183 157.953 169.281 157.975 169.372 158.017C169.462 158.059 169.542 158.12 169.607 158.196C169.672 158.271 169.719 158.361 169.747 158.457C169.774 158.553 169.78 158.654 169.765 158.753L162.129 207.921C162.103 208.085 162.021 208.233 161.896 208.341C161.771 208.448 161.612 208.507 161.447 208.507ZM136.822 207.122H160.86L168.278 159.338H129.401L136.822 207.122Z" fill="#1A1A1A"/>
<path d="M67.705 26.0738C60.7156 30.1032 57.785 38.491 61.3689 44.6893C67.456 55.2171 75.304 50.2201 80.9048 59.9069L90.4471 54.4057C84.847 44.7201 93.1041 40.4307 87.017 29.9029C83.4343 23.7039 74.6948 22.0441 67.705 26.0738Z" fill="#FB6F7B"/>
<path d="M90.7816 54.9846L81.2393 60.4858C81.0853 60.5746 80.9023 60.5989 80.7307 60.5532C80.559 60.5075 80.4128 60.3956 80.3241 60.2422C77.7024 55.7079 74.5916 54.5489 71.2981 53.3213C67.7173 51.9849 64.0147 50.6051 60.788 45.0246C57.0254 38.517 59.9788 29.7572 67.3705 25.4958C74.7622 21.2345 83.8362 23.0603 87.5989 29.5679C90.8267 35.1504 90.1721 39.0422 89.5389 42.8065C88.9568 46.2682 88.4066 49.5379 91.0283 54.0722C91.1168 54.2256 91.1404 54.4078 91.0942 54.5789C91.0479 54.75 90.9355 54.8959 90.7816 54.9846ZM81.1426 58.9991L89.5416 54.1569C87.0535 49.5009 87.6443 45.9883 88.2166 42.5872C88.8373 38.8923 89.4253 35.405 86.4374 30.2375C83.0436 24.3678 74.7907 22.7606 68.0394 26.6527C61.2881 30.5449 58.5557 38.4852 61.9495 44.355C64.9374 49.5225 68.2558 50.7577 71.7701 52.0672C75.0044 53.2738 78.3479 54.5182 81.1426 58.9991Z" fill="#1A1A1A"/>
<path d="M80.8994 59.9019L90.4419 54.4006L94.6162 61.6201C94.875 62.0678 95.0428 62.5621 95.11 63.0749C95.1771 63.5877 95.1423 64.1088 95.0075 64.6086C94.8728 65.1084 94.6406 65.577 94.3245 65.9877C94.0083 66.3984 93.6142 66.7432 93.1648 67.0023L90.4685 68.5567C90.0191 68.8158 89.523 68.9842 89.0087 69.0523C88.4944 69.1203 87.972 69.0867 87.4711 68.9534C86.9703 68.8201 86.5009 68.5896 86.0897 68.2751C85.6786 67.9607 85.3337 67.5684 85.0749 67.1208L80.9006 59.9012L80.8994 59.9019Z" fill="#1A1A1A"/>
<path d="M93.4983 67.5794L90.8021 69.1338C89.74 69.7445 88.4794 69.9106 87.2967 69.5957C86.1139 69.2808 85.1057 68.5107 84.4933 67.4542L80.3198 60.2362C80.2311 60.0828 80.2072 59.9004 80.2534 59.7291C80.2996 59.5578 80.4121 59.4117 80.5661 59.3229L90.1074 53.8223C90.2614 53.7335 90.4444 53.7093 90.616 53.755C90.7877 53.8007 90.9339 53.9125 91.0226 54.0659L95.1967 61.2851C95.8063 62.343 95.9699 63.5997 95.6515 64.7796C95.3331 65.9596 94.5588 66.9664 93.4983 67.5794ZM81.8146 60.1457L85.6543 66.7864C86.089 67.5364 86.8047 68.0832 87.6443 68.3067C88.4839 68.5302 89.3788 68.4123 90.1327 67.9787L92.8289 66.4243C93.5819 65.9892 94.1317 65.2742 94.3576 64.4364C94.5835 63.5986 94.4672 62.7064 94.0341 61.9554L90.1944 55.3147L81.8146 60.1457Z" fill="#1A1A1A"/>
<path d="M68.6157 45.6872C68.0432 46.0172 67.3631 46.1073 66.7252 45.9375C66.0872 45.7677 65.5435 45.352 65.2137 44.7818C60.6999 36.9752 65.7515 30.8205 69.0536 28.6561C69.6054 28.3028 70.274 28.1801 70.9147 28.3146C71.5554 28.4491 72.1166 28.83 72.4769 29.3747C72.8373 29.9195 72.9676 30.5844 72.8399 31.2253C72.7121 31.8663 72.3364 32.4319 71.7942 32.7996C71.2125 33.1915 66.3127 36.7248 69.5318 42.2924C69.6951 42.5748 69.8009 42.8866 69.8432 43.2101C69.8856 43.5336 69.8636 43.8623 69.7785 44.1775C69.6934 44.4928 69.5469 44.7884 69.3474 45.0474C69.1479 45.3064 68.8992 45.5238 68.6157 45.6872Z" fill="white"/>
</g>
<defs>
<clipPath id="clip0">
<rect width="207" height="218" fill="white" transform="translate(0 0.0695801)"/>
</clipPath>
</defs>
</svg>
