<svg width="400" height="300" viewBox="0 0 400 300" fill="none" xmlns="http://www.w3.org/2000/svg">
<path d="M72.0772 55.7212H69.8524V236.807H72.0772V55.7212Z" fill="url(#paint0_linear)"/>
<path d="M364.081 236.251H70.4092V238.473H364.081V236.251Z" fill="url(#paint1_linear)"/>
<path d="M76.5268 232.363H65.4029V243.472H76.5268V232.363Z" fill="#D6D7D8"/>
<path d="M54.25 57.9432L70.9648 41.25L87.6797 57.9432H54.25Z" fill="url(#paint2_linear)"/>
<path d="M361.285 220.114L378 236.807L361.285 253.5V220.114Z" fill="url(#paint3_linear)"/>
<path d="M122.691 71.2744H120.466V214.587H122.691V71.2744Z" fill="url(#paint4_linear)"/>
<path d="M187.21 71.2744H184.985V214.587H187.21V71.2744Z" fill="url(#paint5_linear)"/>
<path d="M251.729 71.2744H249.504V214.587H251.729V71.2744Z" fill="url(#paint6_linear)"/>
<path d="M316.248 71.2744H314.023V214.587H316.248V71.2744Z" fill="url(#paint7_linear)"/>
<path d="M354.626 109.603H96.5504V111.824H354.626V109.603Z" fill="url(#paint8_linear)"/>
<path d="M354.626 174.038H96.5504V176.26H354.626V174.038Z" fill="url(#paint9_linear)"/>
<path d="M112.899 208.75L110.5 204.171L219.871 147.428L278.304 166.813L359.057 95.5L362.5 99.3631L279.506 172.656L220.319 153.021L112.899 208.75Z" fill="#E94A47"/>
<path d="M187.178 139.343C201.116 139.343 212.415 128.044 212.415 114.106C212.415 100.168 201.116 88.8691 187.178 88.8691C173.24 88.8691 161.941 100.168 161.941 114.106C161.941 128.044 173.24 139.343 187.178 139.343Z" fill="white"/>
<path d="M186.625 141C171.644 141 159.5 128.856 159.5 113.875C159.5 98.8939 171.644 86.7497 186.625 86.75C201.606 86.7503 213.75 98.8944 213.75 113.875C213.733 128.849 201.598 140.983 186.625 141ZM186.625 89.2362C173.017 89.2364 161.986 100.268 161.986 113.875C161.986 127.483 173.017 138.514 186.625 138.514C200.233 138.514 211.264 127.483 211.264 113.875C211.249 100.274 200.226 89.2514 186.625 89.2362Z" fill="#FFC684"/>
<path d="M189.388 126.087V128.6H184.031V126.102C179.664 125.305 176.958 122.432 176.958 118.082H183.813C183.813 119.705 185.139 120.515 186.623 120.515C188.014 120.515 189.34 119.807 189.34 118.57C189.34 117.068 187.48 116.633 185.199 116.069C181.715 115.203 177.281 114.128 177.281 108.661C177.281 104.768 179.693 102.243 183.79 101.51V99.1494H189.147V101.535C193.219 102.329 195.514 105.012 195.514 109.007L188.858 109.022C188.858 107.614 187.732 106.926 186.356 106.926C185.16 106.926 184.018 107.418 184.018 108.456C184.018 109.83 185.822 110.28 188.108 110.86C191.658 111.776 196.292 112.938 196.292 118.438C196.292 122.731 193.52 125.321 189.388 126.087Z" fill="#EEEEEE"/>
<path d="M313.323 67.8532L313.055 67.501C312.805 67.1781 312.55 66.8586 312.291 66.5424L312.03 66.2176C311.869 66.026 311.706 65.8343 311.541 65.6427C311.321 65.384 311.169 65.2115 311.162 65.2029C307.131 60.6528 302.179 57.0113 296.635 54.5196C291.09 52.028 285.079 50.7431 279.001 50.75C255.259 50.75 236 70.009 236 93.7507C236 117.492 255.259 136.75 279.001 136.75C302.742 136.75 322 117.498 322 93.7507C322.013 84.4024 318.966 75.3067 313.323 67.8532ZM279.178 128.408C260.019 128.408 244.488 112.876 244.488 93.7234C244.488 74.5708 260.019 59.0285 279.178 59.0285C284.081 59.0231 288.929 60.0597 293.402 62.0697C297.874 64.0796 301.868 67.0171 305.12 70.6874L306.87 72.8231C311.423 78.8385 313.881 86.1793 313.868 93.7234C313.868 112.876 298.336 128.408 279.178 128.408Z" fill="#FFC684"/>
<path d="M306.87 72.8229L306.653 72.5355C306.452 72.2754 306.245 72.0167 306.037 71.7623C305.965 71.6746 305.893 71.5898 305.82 71.5036C305.69 71.3483 305.559 71.1931 305.427 71.0408C305.249 70.8309 305.125 70.6887 305.12 70.6843C301.868 67.0146 297.874 64.0776 293.401 62.0682C288.929 60.0587 284.081 59.0225 279.177 59.0283C260.019 59.0283 244.488 74.5606 244.488 93.7233C244.488 112.886 260.019 128.408 279.177 128.408C298.336 128.408 313.868 112.876 313.868 93.7233C313.881 86.1791 311.423 78.8383 306.87 72.8229ZM300.206 103.91C300.206 105.158 299.96 106.394 299.483 107.547C299.005 108.7 298.306 109.748 297.423 110.63C296.541 111.512 295.493 112.212 294.341 112.69C293.188 113.168 291.952 113.413 290.704 113.413H287.57V120.743H281.02V113.413H276.981V120.743H270.43V113.413H268.138V113.425H258.841V106.874H265.883V81.8934H258.565V75.3439H270.435V68.014H276.986V75.3439H281.024V68.014H287.574V75.3439H288.048C290.297 75.3439 292.454 76.2373 294.044 77.8275C295.634 79.4178 296.528 81.5746 296.528 83.8236V84.8124C296.528 87.0613 295.634 89.2182 294.044 90.8084C292.454 92.3987 290.297 93.2921 288.048 93.2921H290.708C293.228 93.2921 295.645 94.2931 297.427 96.075C299.209 97.8569 300.21 100.274 300.21 102.794L300.206 103.91Z" fill="white"/>
<path d="M281.285 79.1528H274.126V89.4923H281.285C282.657 89.4923 283.973 88.9472 284.943 87.9769C285.913 87.0066 286.459 85.6905 286.459 84.3183C286.456 82.9475 285.91 81.6337 284.94 80.6652C283.97 79.6968 282.655 79.1528 281.285 79.1528Z" fill="white"/>
<path d="M282.197 97.4746H274.268V109.246H282.197C282.97 109.246 283.736 109.093 284.45 108.797C285.165 108.501 285.814 108.066 286.36 107.519C286.906 106.972 287.339 106.322 287.634 105.607C287.929 104.892 288.08 104.126 288.078 103.353C288.077 101.794 287.457 100.299 286.354 99.1966C285.252 98.0943 283.756 97.475 282.197 97.4746Z" fill="white"/>
<path d="M290.704 93.3006H288.044C290.293 93.3006 292.45 92.4072 294.04 90.8169C295.63 89.2267 296.524 87.0698 296.524 84.8209V83.8321C296.524 81.5831 295.63 79.4263 294.04 77.836C292.45 76.2458 290.293 75.3524 288.044 75.3524H287.57V68.0225H281.02V75.3524H276.981V68.0225H270.43V75.3524H258.565V81.9019H265.895V106.874H258.852V113.423H268.15V113.413H270.442V120.743H276.993V113.413H281.032V120.743H287.581V113.413H290.716C293.236 113.413 295.652 112.412 297.434 110.63C299.216 108.848 300.217 106.432 300.217 103.912V102.804C300.217 101.555 299.971 100.318 299.493 99.1644C299.015 98.0107 298.314 96.9626 297.431 96.08C296.547 95.1974 295.498 94.4976 294.344 94.0207C293.19 93.5438 291.953 93.2991 290.704 93.3006ZM281.284 79.1524C281.981 79.124 282.676 79.2366 283.328 79.4836C283.98 79.7306 284.576 80.1068 285.079 80.5896C285.582 81.0725 285.982 81.652 286.255 82.2935C286.529 82.9349 286.67 83.6249 286.67 84.3222C286.67 85.0194 286.529 85.7095 286.255 86.3509C285.982 86.9923 285.582 87.5718 285.079 88.0547C284.576 88.5376 283.98 88.9138 283.328 89.1608C282.676 89.4077 281.981 89.5204 281.284 89.4919H274.126V79.1524H281.284ZM282.197 109.245H274.268V97.4743H282.197C283.741 97.4985 285.214 98.1288 286.297 99.2292C287.381 100.33 287.988 101.812 287.988 103.356C287.988 104.9 287.381 106.383 286.297 107.483C285.214 108.584 283.741 109.214 282.197 109.238V109.245Z" fill="#EEEEEE"/>
<path d="M286.591 74.7822C286.58 74.7822 286.569 74.7868 286.56 74.7949C286.552 74.8031 286.548 74.8141 286.548 74.8256C286.548 74.8371 286.552 74.8482 286.56 74.8563C286.569 74.8645 286.58 74.869 286.591 74.869C286.603 74.869 286.614 74.8645 286.622 74.8563C286.63 74.8482 286.635 74.8371 286.635 74.8256C286.635 74.8141 286.63 74.8031 286.622 74.7949C286.614 74.7868 286.603 74.7822 286.591 74.7822Z" fill="#D62929"/>
<path d="M99.439 260.153C95.278 262.758 90.3163 264.051 86.03 266.659C82.8305 268.606 79.8363 270.678 76.5303 272.405C72.2814 274.622 66.7186 277.62 61.9662 278.143C46.6727 279.829 63.139 261.043 66.5557 256.597C68.4935 254.074 70.4057 251.682 72.3673 249.27C73.316 248.104 73.9172 247.25 75.0959 246.268C75.7602 245.714 77.708 243.345 78.3645 243.172C79.862 242.775 82.714 245.195 84.1227 245.927C87.1169 247.48 90.1367 248.894 93.0943 250.524C96.0973 252.179 99.3156 253.358 102.093 255.21C100.197 258.238 102.452 258.267 99.439 260.153Z" fill="#428DFC"/>
<path d="M93.7054 218.796C112.28 219.573 126.126 218.475 138.734 220.366C151.83 222.33 176.553 223.866 173.188 244.407C168.738 271.571 113.703 260.318 95.6768 260.315C89.0755 260.314 76.2183 261.093 66.4668 261.123C63.3631 249.224 64.4135 231.907 66.4698 219.813C76.1255 219.324 95.1911 219.296 93.7054 218.796Z" fill="#151A4F"/>
<path d="M19.5418 209.965C19.5418 225.024 17.1794 245.988 28.3939 257.651C39.712 269.42 57.053 262.931 71.6329 262.952C86.111 262.974 101.69 264.269 115.778 262.266C132.021 259.957 139.672 236.913 122.841 227.61C115.757 223.695 101.718 222.711 93.6008 221.908C83.9273 220.951 73.0998 221.638 63.7156 219.177C63.3552 214.864 63.6968 212.536 64.4333 208.529C53.1428 212.737 27.2231 209.451 19.5418 209.965Z" fill="url(#paint10_linear)"/>
<path d="M76.6359 129.193C62.7866 128.83 54.7134 133.608 48.9739 137.945C40.6607 144.227 32.4897 150.72 27.1935 159.51C15.515 178.891 15.7756 200.266 17.8625 221.098C29.7908 221.895 94.3688 220.325 94.3688 220.325L94.5998 142.81C94.5998 142.81 91.4684 134.784 88.2768 132.251C85.5828 130.113 82.2945 129.341 76.6359 129.193Z" fill="url(#paint11_linear)"/>
<path d="M105.872 137.964C99.5061 140.475 96.977 142.783 89.8653 147.16C86.0606 149.503 82.412 148.724 79.7426 144.614C78.1128 142.106 75.2627 137.495 75.9163 134.301C76.7109 130.413 80.2905 129.294 83.567 127.393C85.9895 125.987 91.2898 120.681 93.7064 120.465C97.6779 120.113 106.531 133.646 105.872 137.964Z" fill="#F2A19C"/>
<path d="M129.916 116.152C134.193 130.114 119.656 140.626 107.571 140.784C99.7135 140.887 94.3856 135.411 90.8465 127.763C80.944 106.369 112.875 91.6369 126.174 108.394C127.791 110.431 129.126 112.612 129.708 115.172C130.263 115.5 129.597 116.932 129.916 116.152Z" fill="url(#paint12_linear)"/>
<path d="M121.778 99.591C115.243 95.7548 107.739 94.2352 100.324 97.6448C79.6765 107.138 89.9896 129.015 89.9896 129.015L130.29 116.037C130.29 116.037 132.503 105.887 121.778 99.591Z" fill="#23286B"/>
<path d="M110.775 124.302C109.659 121.053 105.111 117.716 101.651 119.356C97.3728 121.385 97.8714 126.566 98.752 130.16C102.056 128.315 107.02 125.819 110.708 124.861C110.429 124.952 111.04 124.177 110.775 124.302Z" fill="url(#paint13_linear)"/>
<path d="M123.289 137.377C125.24 137.377 127.473 136.179 129.119 134.249C130.331 132.829 131.106 131.173 131.302 129.587C131.507 127.926 131.058 126.533 130.038 125.662C129.376 125.097 128.51 124.798 127.536 124.798C125.584 124.798 123.351 125.996 121.705 127.925C120.493 129.347 119.718 131.003 119.522 132.589C119.318 134.249 119.766 135.643 120.787 136.514C121.449 137.079 122.314 137.377 123.289 137.377ZM127.536 125.786C128.283 125.786 128.91 125.998 129.398 126.413C130.157 127.061 130.486 128.145 130.323 129.465C130.151 130.861 129.457 132.332 128.369 133.608C126.907 135.323 124.96 136.388 123.29 136.388C122.542 136.388 121.915 136.178 121.428 135.761C120.668 135.113 120.339 134.029 120.503 132.709C120.674 131.314 121.368 129.843 122.456 128.566C123.919 126.852 125.865 125.786 127.536 125.786Z" fill="#23286B"/>
<path d="M87.3282 129.46C87.3677 129.46 87.4091 129.455 87.4496 129.444C87.7142 129.377 87.8741 129.108 87.806 128.844C85.7131 120.63 86.5592 112.517 90.1288 106.585C92.6936 102.322 96.5653 99.4597 101.325 98.3053C101.589 98.2412 101.752 97.9746 101.688 97.7089C101.623 97.4433 101.357 97.2814 101.092 97.3456C96.0698 98.5631 91.9867 101.583 89.2838 106.075C85.5799 112.232 84.6934 120.619 86.8504 129.087C86.9067 129.311 87.108 129.46 87.3282 129.46Z" fill="#23286B"/>
<path d="M40.5482 196.418C42.0467 196.83 43.5414 198.335 44.727 199.35C48.7498 202.794 52.9009 205.852 57.3502 208.761C63.2328 212.607 68.0839 217.727 74.1126 221.399C78.0831 223.818 82.3458 224.679 86.4525 226.468C88.8139 227.497 90.7399 229.248 92.8564 230.726C94.4093 231.81 95.8624 233.335 97.3807 234.43C98.2702 235.07 99.7608 236.561 100.767 236.66C104.358 237.014 102.485 234.017 100.999 232.535C99.2188 230.76 97.36 229.638 95.3372 228.202C94.6837 227.738 93.9897 227.318 93.4507 226.716C95.3471 226.19 96.7795 227.318 98.5456 227.962C100.306 228.604 102.112 228.421 103.982 228.511C108.128 228.708 115.382 230.984 116.278 229.708C116.673 228.146 116.017 227.529 114.779 227.366C115.763 227.87 115.58 227.668 116.122 226.782C117.031 225.298 115.805 225.379 114.655 224.808C112.589 223.784 110.239 223.33 108.158 222.333C104.019 220.351 100.584 216.571 96.1329 216.42C92.2404 216.287 87.3775 215.893 83.7378 214.438C81.4909 213.54 80.0861 211.797 78.0614 210.545C75.6645 209.062 73.0514 207.873 70.6585 206.3C65.3968 202.844 60.9287 198.235 55.5969 195.122C53.9977 194.188 50.5218 191.754 48.6797 191.951C46.4822 192.186 43.9145 195.122 41.9737 196.066C41.8256 196.384 40.1365 196.305 40.5482 196.418Z" fill="url(#paint14_linear)"/>
<path d="M67.922 155.398C69.2122 148.394 68.8657 137.149 59.0244 136.745C50.9709 136.415 43.1791 148.699 39.2046 154.446C29.5608 168.393 22.9288 182.28 19.3562 198.54C31.8777 210.928 51.196 220.889 66.7887 228.173C71.5005 220.784 74.936 218.029 77.6577 209.704C65.1885 202.937 59.1054 194.701 48.3302 188.588C52.9137 185.045 65.92 166.264 67.922 155.398Z" fill="url(#paint15_linear)"/>
<path d="M47.6421 148.332C47.6145 148.411 47.5257 148.453 47.4467 148.423C47.3677 148.396 47.3262 148.307 47.3549 148.228C47.3825 148.149 47.4713 148.107 47.5503 148.137C47.6293 148.166 47.6708 148.252 47.6421 148.332ZM36.9331 159.749C36.9706 159.827 36.937 159.921 36.8581 159.958C36.788 159.994 36.7021 159.965 36.6656 159.896C36.6616 159.89 36.6596 159.884 36.6577 159.878C36.6202 159.803 36.6498 159.714 36.7238 159.675C36.8018 159.64 36.8956 159.672 36.9331 159.749ZM41.9845 153.618C42.0428 153.68 42.0458 153.777 41.9915 153.843C41.9313 153.908 41.8316 153.911 41.7664 153.85C41.7022 153.79 41.6992 153.69 41.7595 153.625C41.8236 153.567 41.9184 153.564 41.9845 153.618ZM60.678 161.738C60.8014 161.842 60.8192 162.026 60.7175 162.153C60.6237 162.277 60.447 162.303 60.3226 162.21C60.3187 162.206 60.3147 162.204 60.3098 162.2C60.1864 162.096 60.1686 161.912 60.2703 161.785C60.37 161.66 60.5526 161.638 60.678 161.738ZM55.1794 157.28C55.3037 157.385 55.3185 157.57 55.2129 157.694C55.1102 157.817 54.9286 157.834 54.8042 157.733C54.6788 157.633 54.6571 157.451 54.7568 157.326C54.8654 157.203 55.049 157.183 55.1794 157.28ZM49.6659 152.818C49.7903 152.918 49.811 153.099 49.7113 153.223C49.7093 153.226 49.7064 153.228 49.7044 153.231C49.6106 153.356 49.4339 153.381 49.3095 153.288C49.3056 153.284 49.3016 153.282 49.2967 153.279C49.1743 153.172 49.1545 152.987 49.2503 152.856C49.3569 152.734 49.5405 152.717 49.6659 152.818ZM64.8005 147.164C64.7501 147.317 64.5863 147.399 64.4333 147.349C64.2803 147.299 64.1983 147.135 64.2487 146.982C64.298 146.833 64.4579 146.75 64.609 146.795C64.762 146.845 64.8469 147.009 64.8005 147.164ZM58.0067 145.15C57.9563 145.302 57.7924 145.385 57.6394 145.335C57.4864 145.284 57.4045 145.12 57.4548 144.967C57.5042 144.818 57.6641 144.735 57.8151 144.781C57.9672 144.83 58.053 144.995 58.0067 145.15ZM47.8929 168.157C47.9669 168.301 47.9126 168.477 47.7695 168.554C47.6313 168.631 47.4575 168.58 47.3805 168.442C47.3805 168.442 47.3786 168.44 47.3796 168.439C47.2966 168.306 47.3371 168.133 47.4684 168.051C47.4743 168.048 47.4812 168.044 47.4881 168.04C47.6333 167.969 47.809 168.019 47.8929 168.157ZM44.5078 161.926C44.5799 162.072 44.5295 162.247 44.3913 162.331C44.2472 162.405 44.0705 162.351 43.9945 162.208C43.9175 162.067 43.9708 161.89 44.1119 161.814C44.1129 161.813 44.1159 161.812 44.1159 161.812C44.2551 161.735 44.4288 161.785 44.5049 161.923C44.5068 161.925 44.5068 161.926 44.5078 161.926ZM41.1287 155.706C41.2057 155.84 41.1613 156.012 41.026 156.088C41.0221 156.09 41.0181 156.093 41.0141 156.094C40.8759 156.176 40.6973 156.128 40.6163 155.991C40.6134 155.987 40.6114 155.982 40.6084 155.978C40.5324 155.835 40.5857 155.656 40.7289 155.58C40.872 155.504 41.0507 155.558 41.1267 155.701C41.1267 155.705 41.1277 155.706 41.1287 155.706ZM66.5982 140.451C66.5705 140.591 66.4343 140.684 66.2931 140.658C66.153 140.632 66.0592 140.495 66.0858 140.353C66.1125 140.212 66.2487 140.119 66.3909 140.146C66.5301 140.174 66.6228 140.31 66.5982 140.451ZM51.8525 162.442C51.9295 162.567 51.8969 162.729 51.7765 162.814C51.662 162.893 51.504 162.864 51.4261 162.749C51.4241 162.745 51.4221 162.743 51.4201 162.739C51.3372 162.622 51.3658 162.459 51.4833 162.378C51.4843 162.377 51.4863 162.377 51.4872 162.375C51.6067 162.299 51.7666 162.327 51.8525 162.442ZM48.3174 157.209C48.3954 157.329 48.3618 157.489 48.2443 157.567C48.1298 157.646 47.9719 157.616 47.8939 157.502C47.8919 157.498 47.8899 157.496 47.888 157.492C47.805 157.374 47.8336 157.211 47.9501 157.129C47.9511 157.128 47.9531 157.128 47.9541 157.126C48.0775 157.052 48.2384 157.089 48.3174 157.209ZM44.7793 151.955C44.8622 152.073 44.8336 152.236 44.7171 152.319L44.7131 152.322C44.6036 152.403 44.4496 152.377 44.3686 152.267C44.3637 152.261 44.3587 152.254 44.3548 152.246C44.2719 152.128 44.3005 151.965 44.417 151.882C44.418 151.881 44.42 151.881 44.4209 151.879C44.5414 151.807 44.6984 151.84 44.7793 151.955ZM58.9968 150.557C59.1143 150.641 59.1439 150.802 59.063 150.922C58.984 151.041 58.825 151.075 58.7056 150.996C58.5871 150.914 58.5506 150.754 58.6246 150.63C58.7066 150.509 58.8724 150.477 58.9968 150.557ZM53.7173 147.069C53.8348 147.142 53.8733 147.296 53.8012 147.413C53.7983 147.417 53.7953 147.421 53.7933 147.426C53.7143 147.545 53.5554 147.579 53.436 147.5C53.3175 147.418 53.281 147.258 53.355 147.135C53.436 147.018 53.5979 146.988 53.7173 147.069ZM39.1464 164.421C39.176 164.554 39.0931 164.686 38.9598 164.717C38.9549 164.718 38.949 164.72 38.945 164.72C38.8048 164.752 38.6656 164.665 38.632 164.525C38.632 164.522 38.6311 164.518 38.6301 164.517C38.6074 164.374 38.7002 164.24 38.8403 164.21C38.9786 164.182 39.1148 164.271 39.1434 164.409C39.1464 164.413 39.1454 164.417 39.1464 164.421ZM37.8877 158.218C37.9154 158.36 37.8265 158.5 37.6834 158.532C37.5392 158.556 37.402 158.462 37.3763 158.317C37.3517 158.18 37.4385 158.048 37.5738 158.014C37.712 157.981 37.8512 158.066 37.8848 158.203C37.8867 158.207 37.8877 158.213 37.8877 158.218ZM71.5933 144.939C71.7276 145.038 71.7612 145.224 71.6684 145.364C71.5756 145.503 71.389 145.54 71.2508 145.448C71.1146 145.35 71.081 145.162 71.1758 145.023C71.2686 144.884 71.4551 144.847 71.5933 144.939ZM65.5429 140.848C65.6811 140.941 65.7186 141.127 65.6268 141.265C65.535 141.404 65.3474 141.441 65.2092 141.349C65.071 141.257 65.0335 141.07 65.1253 140.932C65.2181 140.792 65.4047 140.756 65.5429 140.848ZM46.0587 162.058C46.0853 162.225 45.9777 162.384 45.8129 162.42C45.647 162.447 45.4901 162.332 45.4644 162.165C45.4387 162.004 45.5453 161.853 45.7033 161.82C45.8662 161.792 46.0232 161.896 46.0587 162.058ZM44.6776 154.888C44.7053 155.051 44.6016 155.207 44.4397 155.244C44.2758 155.276 44.1169 155.169 44.0843 155.006C44.0517 154.842 44.1583 154.683 44.3222 154.65C44.4851 154.62 44.6421 154.727 44.6776 154.888ZM59.0679 152.889C59.1518 153.032 59.1133 153.215 58.98 153.313C58.8388 153.399 58.6543 153.357 58.5644 153.218C58.4706 153.084 58.5042 152.898 58.6404 152.806C58.6404 152.806 58.6444 152.804 58.6464 152.802C58.7856 152.709 58.9741 152.748 59.0679 152.889ZM55.0431 146.788C55.1359 146.929 55.0954 147.118 54.9552 147.211L54.9542 147.212C54.818 147.301 54.6344 147.262 54.5465 147.125C54.4557 146.987 54.4923 146.8 54.6295 146.709C54.7657 146.617 54.9503 146.654 55.0431 146.788ZM63.8034 151.257C63.8962 151.394 63.8607 151.58 63.7225 151.674C63.5853 151.768 63.3997 151.731 63.3059 151.593C63.2161 151.46 63.2467 151.279 63.377 151.184C63.5162 151.086 63.7057 151.12 63.8034 151.257ZM59.5496 145.354C59.6454 145.492 59.6128 145.682 59.4756 145.779C59.3413 145.871 59.1577 145.841 59.058 145.714C58.9632 145.574 58.9928 145.385 59.1251 145.281C59.2633 145.187 59.4499 145.221 59.5496 145.354ZM48.8574 154.083C48.8919 154.247 48.7893 154.409 48.6264 154.447C48.4665 154.483 48.3065 154.383 48.27 154.224C48.2266 154.067 48.3174 153.906 48.4734 153.861C48.4773 153.86 48.4812 153.858 48.4862 153.859C48.6481 153.816 48.813 153.912 48.8554 154.074C48.8564 154.077 48.8574 154.08 48.8574 154.083Z" fill="white"/>
<defs>
<linearGradient id="paint0_linear" x1="71.7295" y1="-23.4306" x2="69.7427" y2="-23.4305" gradientUnits="userSpaceOnUse">
<stop offset="0.0898" stop-color="white"/>
<stop offset="0.8178" stop-color="#EEEEEE"/>
</linearGradient>
<linearGradient id="paint1_linear" x1="318.183" y1="235.28" x2="167.699" y2="364.971" gradientUnits="userSpaceOnUse">
<stop offset="0.0898" stop-color="white"/>
<stop offset="0.8178" stop-color="#EEEEEE"/>
</linearGradient>
<linearGradient id="paint2_linear" x1="82.4549" y1="33.9535" x2="52.6067" y2="34.3432" gradientUnits="userSpaceOnUse">
<stop offset="0.0898" stop-color="white"/>
<stop offset="0.8178" stop-color="#EEEEEE"/>
</linearGradient>
<linearGradient id="paint3_linear" x1="375.388" y1="205.521" x2="360.461" y2="205.569" gradientUnits="userSpaceOnUse">
<stop offset="0.0898" stop-color="white"/>
<stop offset="0.8178" stop-color="#EEEEEE"/>
</linearGradient>
<linearGradient id="paint4_linear" x1="122.343" y1="8.63279" x2="120.357" y2="8.63299" gradientUnits="userSpaceOnUse">
<stop offset="0.0898" stop-color="white"/>
<stop offset="0.8178" stop-color="#EEEEEE"/>
</linearGradient>
<linearGradient id="paint5_linear" x1="186.862" y1="8.63279" x2="184.875" y2="8.63299" gradientUnits="userSpaceOnUse">
<stop offset="0.0898" stop-color="white"/>
<stop offset="0.8178" stop-color="#EEEEEE"/>
</linearGradient>
<linearGradient id="paint6_linear" x1="251.381" y1="8.63279" x2="249.394" y2="8.63299" gradientUnits="userSpaceOnUse">
<stop offset="0.0898" stop-color="white"/>
<stop offset="0.8178" stop-color="#EEEEEE"/>
</linearGradient>
<linearGradient id="paint7_linear" x1="315.9" y1="8.63279" x2="313.913" y2="8.63299" gradientUnits="userSpaceOnUse">
<stop offset="0.0898" stop-color="white"/>
<stop offset="0.8178" stop-color="#EEEEEE"/>
</linearGradient>
<linearGradient id="paint8_linear" x1="314.291" y1="108.631" x2="167.833" y2="219.553" gradientUnits="userSpaceOnUse">
<stop offset="0.0898" stop-color="white"/>
<stop offset="0.8178" stop-color="#EEEEEE"/>
</linearGradient>
<linearGradient id="paint9_linear" x1="314.291" y1="173.067" x2="167.83" y2="283.988" gradientUnits="userSpaceOnUse">
<stop offset="0.0898" stop-color="white"/>
<stop offset="0.8178" stop-color="#EEEEEE"/>
</linearGradient>
<linearGradient id="paint10_linear" x1="132.306" y1="236.624" x2="19.3343" y2="236.624" gradientUnits="userSpaceOnUse">
<stop stop-color="#23286B"/>
<stop offset="1" stop-color="#151A4F"/>
</linearGradient>
<linearGradient id="paint11_linear" x1="86.9178" y1="162.765" x2="42.8312" y2="206.84" gradientUnits="userSpaceOnUse">
<stop stop-color="#428DFC"/>
<stop offset="1" stop-color="#1D72D8"/>
</linearGradient>
<linearGradient id="paint12_linear" x1="102.86" y1="128.821" x2="112.588" y2="117.084" gradientUnits="userSpaceOnUse">
<stop stop-color="#FFBEB6"/>
<stop offset="1" stop-color="#F8AFA9"/>
</linearGradient>
<linearGradient id="paint13_linear" x1="101.901" y1="126.829" x2="111.339" y2="115.44" gradientUnits="userSpaceOnUse">
<stop stop-color="#FFBEB6"/>
<stop offset="1" stop-color="#F8AFA9"/>
</linearGradient>
<linearGradient id="paint14_linear" x1="95.9692" y1="220.093" x2="73.4359" y2="213.869" gradientUnits="userSpaceOnUse">
<stop stop-color="#FFBEB6"/>
<stop offset="1" stop-color="#F2A19C"/>
</linearGradient>
<linearGradient id="paint15_linear" x1="76.573" y1="175.228" x2="16.1671" y2="204.607" gradientUnits="userSpaceOnUse">
<stop stop-color="#428DFC"/>
<stop offset="1" stop-color="#1D72D8"/>
</linearGradient>
</defs>
</svg>
