<svg width="238" height="193" viewBox="0 0 238 193" fill="none" xmlns="http://www.w3.org/2000/svg">
<path d="M45.4875 24.7761C46.4712 23.1497 47.3477 21.4608 48.1112 19.7203C51.5438 11.8833 45.1495 5.85429 37.6624 4.32206C29.2878 2.60948 17.6951 2.87726 12.1957 10.3056C8.99604 14.625 7.88766 20.1974 7.98565 25.5689C8.07214 30.3235 9.03553 34.9981 10.1169 39.6108C12.6701 50.4793 26.8586 42.5084 32.244 38.8015C37.6014 35.1149 42.1153 30.3345 45.4875 24.7761Z" fill="#BB8DDF"/>
<path d="M218.592 121.955L189.621 164.971C187.172 168.608 183.443 171.177 179.184 172.165L178.587 172.304L226.928 36.3286C229.428 39.9161 230.488 44.3192 229.893 48.6568L220.563 116.783C220.31 118.637 219.635 120.406 218.592 121.955Z" fill="#BB8DDF"/>
<path d="M178.586 173.253C178.319 173.253 178.061 173.14 177.88 172.935C177.65 172.676 177.58 172.311 177.696 171.984L226.038 36.0096C226.156 35.6754 226.452 35.4361 226.802 35.3876C227.159 35.3411 227.501 35.494 227.703 35.7846C230.349 39.58 231.46 44.1977 230.83 48.787L221.501 116.914C221.229 118.9 220.495 120.828 219.376 122.487L190.404 165.503C187.813 169.351 183.904 172.046 179.395 173.091L178.799 173.229C178.729 173.245 178.658 173.253 178.586 173.253ZM227.158 38.5079L180.074 170.944C183.646 169.85 186.729 167.571 188.838 164.439L217.81 121.423C218.766 120.003 219.395 118.354 219.628 116.655L228.958 48.5287C229.432 45.0533 228.796 41.5598 227.158 38.5079Z" fill="#1A1A1A"/>
<path d="M91.2266 179.62H169.264C173.708 179.62 177.66 178.38 178.257 172.924C172.968 172.924 81.9456 172.924 81.9456 172.924C81.9456 172.924 83.3241 179.62 91.2266 179.62Z" fill="#BB8DDF"/>
<path d="M169.264 180.57H91.2265C82.6546 180.57 81.035 173.19 81.0189 173.115C80.9612 172.836 81.0321 172.545 81.2118 172.324C81.3905 172.102 81.6609 171.973 81.9445 171.973H178.257C178.526 171.973 178.782 172.088 178.962 172.289C179.14 172.491 179.226 172.758 179.197 173.027C178.372 180.57 171.518 180.57 169.264 180.57ZM83.2616 173.873C84.0199 175.601 86.0877 178.67 91.2265 178.67H169.264C173.991 178.67 176.411 177.222 177.148 173.873H83.2616Z" fill="#1A1A1A"/>
<path d="M81.9453 172.924H178.257L193.692 87.6062H113.185L81.9453 172.924Z" fill="white"/>
<path d="M178.258 173.873H81.9454C81.6363 173.873 81.3469 173.721 81.1701 173.467C80.9933 173.213 80.9517 172.887 81.0586 172.596L112.299 87.2787C112.436 86.9046 112.791 86.6567 113.186 86.6567H193.692C193.973 86.6567 194.239 86.7811 194.418 86.9976C194.598 87.2141 194.674 87.499 194.623 87.7753L179.189 173.093C179.106 173.545 178.715 173.873 178.258 173.873ZM83.3003 171.974H177.468L192.56 88.5559H113.845L83.3003 171.974Z" fill="#1A1A1A"/>
<path d="M215.918 117.369L178.257 172.924L193.692 87.6063L227.155 36.0193L215.918 117.369Z" fill="#1A1A1A"/>
<path d="M178.258 173.873C178.138 173.873 178.016 173.851 177.9 173.802C177.486 173.632 177.248 173.195 177.328 172.754L192.762 87.4363C192.785 87.3119 192.832 87.1932 192.9 87.0878L226.362 35.5007C226.604 35.1276 227.073 34.9747 227.486 35.1295C227.901 35.2852 228.152 35.7087 228.092 36.1493L216.855 117.498C216.836 117.643 216.783 117.781 216.7 117.902L179.04 173.457C178.859 173.724 178.563 173.873 178.258 173.873ZM194.589 87.9642L179.986 168.689L215.013 117.017L225.636 40.0995L194.589 87.9642ZM215.918 117.368H215.928H215.918Z" fill="#1A1A1A"/>
<path d="M156.982 152.566L163.325 152.559C164.345 152.558 165.023 153.251 164.838 154.109L163.678 159.504C163.49 160.379 162.498 161.091 161.464 161.091H155.033C154 161.091 153.328 160.38 153.531 159.506L154.78 154.118C154.979 153.26 155.964 152.567 156.982 152.566ZM138.071 154.132L136.674 159.509C136.447 160.382 137.096 161.092 138.124 161.092H144.53C145.56 161.092 146.568 160.382 146.78 159.507L148.089 154.123C148.297 153.268 147.642 152.577 146.626 152.577L140.309 152.584C139.295 152.584 138.293 153.276 138.071 154.132ZM121.43 154.146L119.885 159.512C119.634 160.383 120.26 161.091 121.284 161.091H127.663C128.689 161.091 129.713 160.382 129.949 159.51L131.406 154.138C131.637 153.283 131.004 152.594 129.992 152.595L123.701 152.601C122.693 152.602 121.675 153.293 121.43 154.146ZM104.857 154.159L103.166 159.515C102.892 160.385 103.495 161.091 104.515 161.091H110.867C111.888 161.091 112.929 160.384 113.189 159.513L114.792 154.151C115.047 153.298 114.437 152.61 113.429 152.611L107.164 152.617C106.158 152.619 105.125 153.309 104.857 154.159ZM157.559 142.13L156.36 147.303C156.165 148.142 156.827 148.824 157.839 148.822L164.142 148.812C165.155 148.811 166.124 148.127 166.305 147.286L167.418 142.107C167.595 141.283 166.927 140.62 165.928 140.622L159.71 140.637C158.713 140.64 157.75 141.307 157.559 142.13ZM141.18 142.168L139.838 147.331C139.621 148.169 140.26 148.849 141.268 148.848L147.545 148.838C148.555 148.836 149.539 148.153 149.743 147.315L150.999 142.147C151.199 141.324 150.553 140.662 149.557 140.664L143.365 140.679C142.371 140.681 141.394 141.347 141.18 142.168ZM124.866 142.206L123.384 147.359C123.143 148.195 123.761 148.873 124.764 148.872L131.017 148.863C132.022 148.861 133.022 148.179 133.249 147.343L134.648 142.184C134.87 141.364 134.246 140.703 133.254 140.705L127.086 140.72C126.096 140.722 125.102 141.387 124.866 142.206ZM108.618 142.243L106.995 147.386C106.731 148.221 107.327 148.898 108.327 148.897L114.554 148.887C115.555 148.886 116.571 148.206 116.82 147.37L118.359 142.222C118.604 141.403 118.001 140.743 117.013 140.745L110.87 140.76C109.884 140.763 108.876 141.426 108.618 142.243ZM160.229 130.616L159.077 135.586C158.889 136.392 159.542 137.045 160.534 137.043L166.713 137.025C167.707 137.022 168.654 136.363 168.828 135.556L169.897 130.58C170.067 129.789 169.41 129.152 168.429 129.156L162.333 129.179C161.353 129.183 160.413 129.825 160.229 130.616ZM144.167 130.676L142.878 135.636C142.669 136.442 143.3 137.093 144.288 137.09L150.443 137.072C151.433 137.069 152.395 136.412 152.59 135.606L153.798 130.64C153.99 129.85 153.353 129.214 152.377 129.218L146.304 129.242C145.328 129.246 144.372 129.887 144.167 130.676ZM128.168 130.736L126.743 135.687C126.512 136.49 127.121 137.14 128.106 137.138L134.236 137.12C135.223 137.117 136.198 136.461 136.417 135.656L137.76 130.699C137.974 129.911 137.358 129.277 136.385 129.281L130.336 129.305C129.365 129.308 128.394 129.947 128.168 130.736ZM112.232 130.794L110.672 135.736C110.418 136.538 111.007 137.187 111.988 137.184L118.094 137.166C119.075 137.163 120.067 136.508 120.307 135.706L121.786 130.758C122.021 129.971 121.426 129.338 120.457 129.342L114.431 129.365C113.465 129.37 112.479 130.009 112.232 130.794ZM162.795 119.547L161.687 124.325C161.507 125.101 162.149 125.727 163.122 125.723L169.183 125.696C170.158 125.692 171.083 125.058 171.25 124.281L172.279 119.497C172.442 118.737 171.794 118.125 170.833 118.13L164.853 118.161C163.892 118.168 162.971 118.787 162.795 119.547ZM147.038 119.628L145.799 124.397C145.597 125.171 146.22 125.797 147.189 125.792L153.226 125.766C154.197 125.762 155.137 125.128 155.325 124.354L156.486 119.578C156.67 118.819 156.043 118.208 155.085 118.214L149.127 118.245C148.17 118.251 147.235 118.868 147.038 119.628ZM131.342 119.707L129.972 124.468C129.75 125.241 130.351 125.865 131.317 125.861L137.33 125.836C138.297 125.832 139.251 125.2 139.461 124.427L140.754 119.66C140.959 118.901 140.352 118.292 139.397 118.297L133.462 118.329C132.509 118.332 131.561 118.95 131.342 119.707ZM115.706 119.786L114.206 124.539C113.963 125.31 114.544 125.933 115.506 125.929L121.496 125.903C122.459 125.899 123.427 125.268 123.658 124.496L125.08 119.738C125.306 118.981 124.719 118.372 123.768 118.378L117.856 118.409C116.907 118.415 115.945 119.03 115.706 119.786ZM165.264 108.898L164.197 113.496C164.024 114.243 164.658 114.844 165.612 114.839L171.557 114.806C172.513 114.8 173.419 114.189 173.58 113.442L174.57 108.84C174.727 108.107 174.089 107.52 173.146 107.526L167.277 107.564C166.334 107.57 165.434 108.166 165.264 108.898ZM149.801 108.997L148.608 113.587C148.414 114.332 149.028 114.933 149.979 114.927L155.902 114.894C156.854 114.888 157.774 114.279 157.954 113.533L159.071 108.938C159.249 108.207 158.63 107.621 157.69 107.627L151.843 107.665C150.906 107.671 149.991 108.267 149.801 108.997ZM134.396 109.095L133.077 113.678C132.863 114.421 133.457 115.02 134.405 115.016L140.306 114.982C141.254 114.977 142.187 114.368 142.389 113.623L143.633 109.036C143.83 108.306 143.231 107.721 142.295 107.727L136.47 107.765C135.534 107.771 134.606 108.367 134.396 109.095ZM119.05 109.194L117.606 113.768C117.371 114.509 117.946 115.109 118.89 115.103L124.768 115.07C125.714 115.064 126.66 114.456 126.882 113.714L128.251 109.135C128.469 108.407 127.889 107.822 126.956 107.828L121.153 107.866C120.22 107.872 119.279 108.465 119.05 109.194ZM167.641 98.646L166.614 103.074C166.448 103.792 167.072 104.37 168.009 104.363L173.844 104.322C174.782 104.316 175.669 103.726 175.823 103.007L176.776 98.5747C176.928 97.8692 176.3 97.3052 175.373 97.3118L169.611 97.3565C168.686 97.366 167.804 97.9414 167.641 98.646ZM152.461 98.7618L151.312 103.182C151.126 103.899 151.731 104.476 152.664 104.47L158.478 104.43C159.413 104.423 160.312 103.834 160.487 103.117L161.563 98.6925C161.734 97.9879 161.125 97.4248 160.202 97.4315L154.462 97.4761C153.539 97.4837 152.643 98.0591 152.461 98.7618ZM137.338 98.8777L136.068 103.29C135.862 104.006 136.448 104.583 137.377 104.576L143.169 104.536C144.101 104.529 145.014 103.943 145.208 103.226L146.406 98.8083C146.597 98.1057 146.005 97.5426 145.085 97.5492L139.366 97.5939C138.447 97.6014 137.539 98.175 137.338 98.8777ZM122.269 98.9926L120.878 103.399C120.652 104.114 121.221 104.689 122.146 104.682L127.917 104.642C128.844 104.636 129.771 104.05 129.984 103.334L131.302 98.9242C131.512 98.2225 130.939 97.6603 130.023 97.6679L124.326 97.7125C123.411 97.7182 122.49 98.2918 122.269 98.9926Z" fill="#BB8DDF"/>
<path d="M171.468 83.1031C171.414 82.9212 171.321 82.7535 171.195 82.6117C171.069 82.4699 170.914 82.3576 170.74 82.2827L49.2842 47.2825C49.129 47.2365 48.9651 47.2291 48.8064 47.2609C48.6478 47.2926 48.4992 47.3626 48.3737 47.4648C48.2507 47.5813 48.1544 47.7231 48.0916 47.8805C48.0287 48.0379 48.0007 48.207 48.0095 48.3763L52.7439 77.9077C42.5468 69.2488 40.4527 54.3008 38.7228 42.0872C37.8124 35.6158 36.993 29.9647 35.081 26.3189C33.2601 22.7642 30.8018 20.5767 27.7063 19.8475C26.2378 19.5254 24.7184 19.5131 23.245 19.8113C21.7715 20.1094 20.3762 20.7115 19.1479 21.5793C18.8577 21.7801 18.6106 22.037 18.4209 22.3348C18.2313 22.6326 18.103 22.9653 18.0436 23.3135C17.9843 23.6616 17.995 24.0181 18.0752 24.3621C18.1554 24.706 18.3034 25.0304 18.5106 25.3163C18.7112 25.6068 18.9678 25.8542 19.2653 26.0441C19.5628 26.2339 19.8952 26.3624 20.2429 26.4218C20.5907 26.4812 20.9468 26.4705 21.2903 26.3902C21.6339 26.3099 21.958 26.1617 22.2435 25.9543C23.4533 25.1643 24.9203 24.8706 26.3406 25.134C27.7973 25.4986 29.072 26.7746 30.1645 28.7798C31.6212 31.6965 32.3496 36.8007 33.2601 42.8164C35.2631 56.944 37.9945 76.2671 53.9275 85.4729C54.0186 85.4729 54.0186 85.564 54.2007 85.564C54.2917 85.6552 54.3828 85.6552 54.4738 85.7463L126.764 117.921C126.871 117.993 127 118.026 127.129 118.012C127.353 118.007 127.572 117.944 127.766 117.83L171.013 84.1057C171.195 84.0199 171.341 83.8719 171.425 83.6882C171.508 83.5045 171.523 83.2971 171.468 83.1031Z" fill="#1A1A1A"/>
<path d="M93.0772 138.793C107.559 138.793 119.298 127.041 119.298 112.543C119.298 98.0458 107.559 86.2932 93.0772 86.2932C78.5956 86.2932 66.856 98.0458 66.856 112.543C66.856 127.041 78.5956 138.793 93.0772 138.793Z" fill="#BB8DDF"/>
<path d="M93.0774 140.069C87.6213 140.069 82.2876 138.45 77.7509 135.415C73.2143 132.38 69.6784 128.067 67.5904 123.021C65.5024 117.974 64.9561 112.421 66.0206 107.064C67.085 101.707 69.7124 96.786 73.5705 92.9237C77.4286 89.0613 82.3442 86.431 87.6955 85.3654C93.0468 84.2998 98.5936 84.8467 103.634 86.937C108.675 89.0273 112.984 92.567 116.015 97.1087C119.046 101.65 120.664 106.99 120.664 112.452C120.654 119.773 117.744 126.792 112.573 131.969C107.401 137.146 100.391 140.059 93.0774 140.069ZM93.0774 87.6603C88.1615 87.6603 83.3559 89.1196 79.2684 91.8538C75.1809 94.588 71.9951 98.4742 70.1139 103.021C68.2326 107.568 67.7404 112.571 68.6995 117.398C69.6585 122.224 72.0258 126.658 75.5019 130.138C78.978 133.618 83.4068 135.988 88.2284 136.948C93.0499 137.908 98.0475 137.415 102.589 135.532C107.131 133.649 111.013 130.459 113.744 126.367C116.475 122.275 117.933 117.465 117.933 112.543C117.925 105.946 115.303 99.6223 110.644 94.9576C105.984 90.293 99.667 87.6687 93.0774 87.6603Z" fill="#191919"/>
<path d="M75.2322 120.746C74.5242 120.762 73.8321 120.535 73.2696 120.105C72.707 119.674 72.3075 119.065 72.1366 118.377C71.222 115.137 71.0699 111.729 71.6923 108.421C72.3146 105.112 73.6944 101.994 75.7234 99.3088C77.7523 96.624 80.3753 94.4466 83.3863 92.9474C86.3973 91.4482 89.7144 90.6681 93.0772 90.6682C93.9223 90.6682 94.7329 91.0043 95.3305 91.6026C95.9281 92.2008 96.2638 93.0123 96.2638 93.8583C96.2638 94.7044 95.9281 95.5158 95.3305 96.1141C94.7329 96.7124 93.9223 97.0485 93.0772 97.0485C91.0676 97.0451 89.0771 97.4389 87.2198 98.2072C85.3625 98.9756 83.675 100.103 82.254 101.526C80.833 102.948 79.7064 104.638 78.9389 106.497C78.1715 108.357 77.7781 110.349 77.7815 112.361C77.7838 113.776 77.9673 115.185 78.3277 116.554C78.542 117.387 78.4244 118.271 77.9997 119.02C77.575 119.768 76.8765 120.322 76.0516 120.564C75.8085 120.72 75.5182 120.784 75.2322 120.746Z" fill="white"/>
<path d="M93.0774 122.205C98.4074 122.205 102.728 117.879 102.728 112.543C102.728 107.207 98.4074 102.882 93.0774 102.882C87.7474 102.882 83.4265 107.207 83.4265 112.543C83.4265 117.879 87.7474 122.205 93.0774 122.205Z" fill="#191919"/>
<path d="M93.0773 116.827C95.4406 116.827 97.3564 114.909 97.3564 112.543C97.3564 110.177 95.4406 108.26 93.0773 108.26C90.7139 108.26 88.7981 110.177 88.7981 112.543C88.7981 114.909 90.7139 116.827 93.0773 116.827Z" fill="white"/>
</svg>
