<svg width="398" height="324" viewBox="0 0 398 324" fill="none" xmlns="http://www.w3.org/2000/svg">
<path d="M193.803 56.0522C204.829 56.0522 213.768 47.131 213.768 36.1262C213.768 25.1214 204.829 16.2002 193.803 16.2002C182.777 16.2002 173.839 25.1214 173.839 36.1262C173.839 47.131 182.777 56.0522 193.803 56.0522Z" fill="url(#paint0_linear)"/>
<path opacity="0.62" d="M208.502 25.7998H167.18V28.5999H208.502V25.7998Z" fill="url(#paint1_linear)"/>
<path opacity="0.62" d="M218.113 46.4146H182.153V47.4669H218.113V46.4146Z" fill="url(#paint2_linear)"/>
<path opacity="0.62" d="M216.637 41.3501H178.459V46.0765H216.637V41.3501Z" fill="url(#paint3_linear)"/>
<path opacity="0.62" d="M196.443 31.6104H176.287V34.4104H196.443V31.6104Z" fill="url(#paint4_linear)"/>
<path d="M213.557 22.0298H172.209V22.8589H213.557V22.0298Z" fill="#FFB300"/>
<path d="M198.603 38.0396H164.477V38.8686H198.603V38.0396Z" fill="#FFB300"/>
<path d="M231.578 40.8462H190.295V41.6753H231.578V40.8462Z" fill="#FFB300"/>
<path d="M360.581 164.991L354.936 167.739C344.697 172.724 332.361 168.454 327.382 158.201L289.099 79.363C284.121 69.1107 288.385 56.7587 298.625 51.774L304.269 49.0259C314.509 44.0412 326.845 48.3113 331.823 58.5636L370.106 137.402C375.085 147.655 370.82 160.007 360.581 164.991Z" fill="#23286B"/>
<path d="M358.487 165.171C358.367 165.171 358.263 165.08 358.249 164.957C358.235 164.825 358.329 164.707 358.461 164.692C360.341 164.483 362.166 163.953 363.883 163.117C364.003 163.059 364.146 163.108 364.204 163.228C364.262 163.347 364.212 163.491 364.093 163.548C362.326 164.409 360.449 164.954 358.514 165.169C358.505 165.17 358.496 165.171 358.487 165.171ZM352.77 164.821C352.752 164.821 352.734 164.819 352.715 164.814C350.811 164.363 349.012 163.598 347.369 162.538C347.258 162.466 347.226 162.317 347.298 162.207C347.369 162.095 347.519 162.061 347.629 162.135C349.226 163.165 350.975 163.909 352.826 164.347C352.955 164.377 353.034 164.507 353.004 164.636C352.978 164.746 352.879 164.821 352.77 164.821ZM346.325 161.745C346.274 161.745 346.222 161.729 346.178 161.695C344.632 160.498 343.313 159.054 342.259 157.402C342.188 157.291 342.22 157.142 342.332 157.071C342.442 156.999 342.592 157.031 342.663 157.144C343.688 158.749 344.969 160.152 346.471 161.316C346.576 161.397 346.595 161.548 346.514 161.652C346.468 161.713 346.397 161.745 346.325 161.745ZM339.845 152.384C339.756 152.384 339.67 152.334 339.629 152.249L337.112 147.066C337.054 146.947 337.104 146.803 337.223 146.745C337.342 146.686 337.486 146.737 337.543 146.856L340.06 152.039C340.118 152.158 340.069 152.302 339.95 152.36C339.916 152.376 339.88 152.384 339.845 152.384ZM334.811 142.018C334.721 142.018 334.636 141.968 334.595 141.883L333.966 140.587C333.908 140.468 333.957 140.324 334.076 140.266C334.195 140.207 334.34 140.258 334.397 140.377L335.026 141.673C335.084 141.792 335.035 141.936 334.916 141.993C334.882 142.01 334.846 142.018 334.811 142.018ZM331.664 135.539C331.576 135.539 331.49 135.489 331.449 135.404L328.932 130.221C328.874 130.102 328.924 129.958 329.043 129.9C329.161 129.841 329.306 129.891 329.363 130.011L331.88 135.194C331.938 135.313 331.888 135.457 331.77 135.515C331.735 135.531 331.7 135.539 331.664 135.539ZM326.631 125.173C326.542 125.173 326.457 125.123 326.416 125.038L323.899 119.855C323.841 119.736 323.89 119.592 324.009 119.534C324.128 119.476 324.272 119.526 324.33 119.645L326.846 124.828C326.904 124.947 326.855 125.091 326.736 125.149C326.702 125.165 326.666 125.173 326.631 125.173ZM323.485 118.694C323.396 118.694 323.311 118.644 323.27 118.559L320.753 113.376C320.695 113.257 320.744 113.113 320.863 113.055C320.982 112.997 321.126 113.047 321.183 113.166L323.7 118.349C323.758 118.468 323.709 118.612 323.59 118.67C323.556 118.687 323.52 118.694 323.485 118.694ZM318.451 108.328C318.363 108.328 318.277 108.278 318.236 108.193L315.719 103.01C315.661 102.891 315.711 102.747 315.83 102.689C315.948 102.631 316.093 102.681 316.15 102.8L318.667 107.983C318.725 108.102 318.675 108.246 318.556 108.304C318.522 108.32 318.486 108.328 318.451 108.328ZM313.417 97.9621C313.328 97.9621 313.243 97.9121 313.202 97.8271L312.573 96.5314C312.515 96.4118 312.564 96.2682 312.683 96.2105C312.802 96.1515 312.946 96.2024 313.003 96.321L313.633 97.6168C313.691 97.7359 313.641 97.88 313.522 97.9376C313.488 97.9544 313.452 97.9621 313.417 97.9621ZM310.271 91.4828C310.183 91.4828 310.097 91.4328 310.056 91.3478L308.998 89.1689C308.504 88.1512 308.108 87.084 307.825 85.9972C307.792 85.8689 307.869 85.7378 307.997 85.7047C308.123 85.6677 308.256 85.7474 308.289 85.8761C308.565 86.9323 308.948 87.9696 309.428 88.959L310.487 91.138C310.545 91.2571 310.495 91.4011 310.376 91.4588C310.343 91.4756 310.307 91.4828 310.271 91.4828ZM307.582 80.4616C307.574 80.4616 307.567 80.4611 307.56 80.4606C307.428 80.4491 307.33 80.3319 307.342 80.2003C307.515 78.2519 308.016 76.3606 308.83 74.5778C308.886 74.4568 309.029 74.4054 309.148 74.4592C309.269 74.5145 309.322 74.6571 309.267 74.7776C308.475 76.5104 307.989 78.3494 307.82 80.2426C307.809 80.368 307.705 80.4616 307.582 80.4616ZM339.2 74.0207C339.114 74.0207 339.031 73.9742 338.988 73.893C338.093 72.2068 336.93 70.7035 335.531 69.4255C335.433 69.3362 335.425 69.1844 335.515 69.0865C335.605 68.9885 335.756 68.9808 335.854 69.0711C337.294 70.3861 338.491 71.9325 339.412 73.6677C339.474 73.7844 339.43 73.93 339.313 73.9924C339.277 74.0121 339.238 74.0207 339.2 74.0207ZM309.702 73.6351C309.662 73.6351 309.621 73.625 309.584 73.6043C309.469 73.539 309.428 73.3925 309.493 73.2768C310.457 71.5685 311.695 70.0542 313.172 68.7762C313.272 68.6893 313.423 68.7003 313.51 68.8007C313.597 68.9011 313.586 69.0524 313.485 69.1393C312.05 70.3818 310.847 71.8528 309.911 73.5131C309.867 73.5914 309.785 73.6351 309.702 73.6351ZM330.864 66.4037C330.834 66.4037 330.802 66.3975 330.772 66.385C330.339 66.2029 329.891 66.0368 329.442 65.8917C329.316 65.8509 329.247 65.716 329.288 65.5892C329.329 65.4633 329.463 65.3942 329.59 65.435C330.052 65.5848 330.512 65.7553 330.958 65.9426C331.08 65.9935 331.138 66.1343 331.087 66.2567C331.047 66.348 330.958 66.4037 330.864 66.4037ZM318.234 66.2385C318.138 66.2385 318.047 66.1809 318.011 66.0858C317.962 65.9623 318.023 65.8231 318.147 65.775C319.972 65.0604 321.887 64.669 323.839 64.6118C323.959 64.6161 324.082 64.7122 324.086 64.8447C324.09 64.9773 323.986 65.0882 323.853 65.0921C321.957 65.1473 320.096 65.5277 318.321 66.2226C318.293 66.2332 318.263 66.2385 318.234 66.2385Z" fill="#D6D7D8"/>
<path d="M265.418 86.8121C261.499 91.1571 257.22 96.6466 255.927 99.9705C255.203 101.835 256.821 108.054 257.408 112.823C257.987 115.322 269.371 118.722 270.321 107.44C270.521 105.064 271.963 101.842 270.224 100.129C268.315 98.2507 265.533 100.009 263.399 98.377C265.39 94.5142 266.695 92.1513 267.704 88.0085C268.112 86.4947 266.192 86.378 265.418 86.8121Z" fill="#F2A19C"/>
<path d="M271.402 138.368C270.751 137.263 270.079 136.158 269.404 135.048C265.891 129.275 262.259 123.305 260.94 116.199C259.215 106.912 260.043 93.3354 265.935 85.4701C269.206 81.103 286.829 65.8872 287.578 65.2417L290.082 68.1526C285.071 72.475 271.514 84.4265 269.005 87.7759C264.038 94.4055 263.087 106.739 264.713 115.496C265.903 121.91 269.349 127.573 272.681 133.05C273.366 134.176 274.048 135.296 274.708 136.418L271.402 138.368Z" fill="#23286B"/>
<path d="M249.666 68.6593C249.135 68.862 245.343 69.2006 244.806 68.9801C243.09 68.2775 245.253 65.3791 245.785 64.1068C246.794 61.6959 248.29 54.7128 251.681 55.3299C251.76 57.0743 251.111 68.1075 249.666 68.6593Z" fill="#FFBEB6"/>
<path d="M375.522 280.056C377.403 291.036 386.369 301.587 384.487 313.546C369.94 314.213 337.044 314.213 321.298 313.97C321.025 295.14 343.565 305.211 348.365 292.518C349.097 290.584 347.69 285.558 348.455 284.545C349.61 283.016 355.54 283.226 357.419 282.92C363.255 281.966 369.448 280.077 375.522 280.056Z" fill="url(#paint5_linear)"/>
<path d="M274.621 225.161C276.502 236.141 285.468 246.692 283.586 258.651C269.039 259.318 236.144 259.318 220.397 259.075C220.124 240.246 242.664 250.316 247.464 237.623C248.196 235.689 246.789 230.663 247.554 229.65C248.71 228.121 254.64 228.331 256.518 228.024C262.354 227.071 268.547 225.182 274.621 225.161Z" fill="#D62929"/>
<path d="M275.131 151.358C260.479 152.933 230.738 141.283 224.807 162.337C222.162 171.726 228.927 185.862 231.657 195.001C234.997 206.182 238.787 217.557 243.215 228.225C243.999 230.113 246.186 233.372 246.404 235.529C247.14 235.977 273.523 235.473 278.479 235.912C278.248 228.387 277.567 224.549 273.912 214.182C272.087 209.007 266.983 206.666 265.961 201.205C264.991 196.017 267.222 189.993 260.694 186.355C276.574 195.59 306.27 207.524 323.254 193.594C332.966 185.629 335.133 171.074 327.485 161.103C320.181 151.583 309.198 150.775 297.669 151.358C290.15 151.739 283.347 152.562 275.648 151.786C275.083 152.575 274.504 150.4 275.131 151.358Z" fill="#151A4F"/>
<path d="M285.486 172.097C295.219 184.765 300.168 195.032 308.161 208.696C314.165 218.959 319.227 229.631 324.306 240.26C328.835 249.736 333.003 259.377 336.807 269.213C339.582 276.388 343.872 285.939 346.754 293.863C356.154 294.148 372.129 293.95 380.425 293.995C380.571 288.68 381.347 284.025 379.422 278.839C376.253 270.297 373.857 269.537 370.282 263.588C364.427 253.844 371.71 257.53 356.759 233.091C345.93 215.388 340.864 181.428 340.296 175.756C339.607 168.886 338.338 163.422 331.174 163.099C325.447 162.842 318.89 164.374 312.899 163.555C300.679 161.884 281.757 152.736 269.649 152.578C272.001 157.354 279.395 164.167 285.486 172.097Z" fill="url(#paint6_linear)"/>
<path d="M255.028 76.3354C258.028 81.8667 267.653 85.4884 271.611 91.5354C273.741 90.2944 283.155 82.0842 283.272 79.3851C283.439 75.5425 272.681 68.7016 269.68 66.4722C265.16 71.0539 262.138 75.0483 255.538 76.9771C254.123 76.8301 255.72 76.2802 255.028 76.3354Z" fill="#F2A19C"/>
<path d="M259.292 51.9379C242.236 56.8174 241.923 82.8936 263.556 79.3833C278.308 76.9891 283.988 43.9535 265.993 50.1081C265.525 50.6628 258.764 51.3131 259.292 51.9379Z" fill="#FFBEB6"/>
<path d="M276.95 77.7562C262.706 83.9608 264.53 93.339 264.639 109.29C264.703 118.633 265.192 151.296 265.192 151.296C265.192 151.296 281.064 157.601 284.254 159.285C289.292 161.947 294.961 164.103 300.106 166.011C310.379 169.819 319.667 172.905 330.564 173.451C334.669 173.658 339.172 174.679 343.265 173.209C346.342 154.204 331.64 131.001 323.437 114.642C318.466 104.727 313.036 96.2168 305.013 88.6838C300.822 84.7494 289.709 78.2562 287.612 77.5987C286.343 77.2006 284.167 76.2664 282.124 76.3428C280.637 76.399 278.953 76.8841 276.95 77.7562Z" fill="url(#paint7_linear)"/>
<path d="M245.891 69.0162C249.761 68.743 254.994 68.6805 259.622 68.6051C262.288 68.5619 264.581 66.6932 265.152 64.0858C265.888 60.7187 266.473 57.3496 267.317 53.9819C268.964 54.419 267.092 55.49 268.639 56.0903C266.856 64.4527 268.83 79.2162 260.51 83.8363C256.784 85.9058 249.877 86.8731 247.311 83.6668C245.238 81.0762 246.447 68.6037 245.891 69.0162Z" fill="#23286B"/>
<path d="M269.11 57.6606C269.612 56.1828 271.7 54.9293 273.187 55.459C274.922 56.0766 274.876 57.8829 274.633 59.3876C274.209 62.019 271.252 65.7905 268.346 66.0047C268.739 68.396 271.841 72.4153 274.484 71.0086C277.291 69.515 277.482 65.3064 277.731 62.6803C278.019 59.6311 277.652 55.7894 274.912 53.7709C272.399 51.9194 268.463 53.9174 269.137 57.2432C269.18 57.382 269.067 57.5213 269.11 57.6606Z" fill="#23286B"/>
<path d="M244.413 59.0363H278.526V51.5403C278.526 46.2482 274.242 41.958 268.956 41.958H261.47C252.049 41.958 244.413 49.6044 244.413 59.0363Z" fill="url(#paint8_linear)"/>
<path d="M277.917 59.8861H233.448C233.051 59.8861 232.728 59.5634 232.728 59.1657C232.728 58.7681 233.051 58.4453 233.448 58.4453H277.917C278.314 58.4453 278.637 58.7681 278.637 59.1657C278.637 59.5634 278.314 59.8861 277.917 59.8861Z" fill="#E94A47"/>
<path d="M252.254 76.8146H251.469C249.867 76.8146 248.568 75.514 248.568 73.9099V72.7511C248.568 72.2204 248.998 71.7905 249.528 71.7905H254.195C254.725 71.7905 255.154 72.2204 255.154 72.7511V73.9099C255.155 75.514 253.856 76.8146 252.254 76.8146Z" fill="#FFBEB6"/>
<path d="M283.174 86.3836C293.746 73.8237 308.859 89.3675 319.147 95.9481C326.986 100.962 350.642 113.059 347.923 123.843C344.219 138.528 324.303 131.02 315.55 127.284C302.874 121.875 290.952 116.038 284.416 102.949C282.343 98.7966 279.478 90.7761 283.174 86.3836Z" fill="url(#paint9_linear)"/>
<path d="M280.858 71.2954C282.88 74.3643 284.254 76.5044 284.254 76.5044C284.254 76.5044 268.726 93.5466 265.271 91.1251C264.152 90.3409 262.676 89.2617 261.408 88.3247C260.098 87.3574 260.146 85.3826 261.502 84.4816C264.099 82.755 267.898 80.1856 270.138 78.4672C272.603 76.5764 275.271 73.3711 277.125 71.1013C278.117 69.8887 279.997 69.9876 280.858 71.2954Z" fill="#89B3F4"/>
<path d="M343.901 162.943C334.553 160.407 326.433 155.194 311.727 142.284C291.661 124.673 276.313 109.512 276.313 88.2644C276.313 82.7207 287.063 64.2751 295.152 59.5142L297.097 62.8261C290.149 66.9156 280.151 84.3368 280.151 88.2644C280.151 107.899 294.932 122.434 314.256 139.395C328.464 151.866 336.197 156.872 344.904 159.235L343.901 162.943Z" fill="#23286B"/>
<path d="M286.523 101.22C285.026 99.205 284.055 92.1859 281.726 93.0557C278.377 94.3068 281.506 103.528 283.165 105.062C280.829 104.335 276.97 102.695 274.508 102.36C271.126 102.133 274.648 107.994 275.609 111.199C276.5 114.177 276.578 118.024 278.369 120.671C281.121 124.739 292.093 122.511 297.075 122.352C297.281 118.288 297.607 113.324 296.596 109.385C295.065 103.418 294.555 110.448 290.84 106.263C288.921 104.102 287.724 102.838 286.523 101.22Z" fill="#FFBEB6"/>
<path d="M343.918 113.211C341.608 111.355 339.098 111.045 334.256 110.195C329.194 109.307 292.039 105.783 292.039 105.783L291.917 138.365C291.917 138.365 314.521 138.382 325.622 138.069C332.985 137.862 337.633 137.322 343.032 131.804C347.192 127.553 351.911 119.635 343.918 113.211Z" fill="url(#paint10_linear)"/>
<path d="M258.325 98.8783C260.059 99.8047 265.947 100.158 269.391 102.28C270.904 103.212 269.915 107.173 267.762 109.212C264.867 111.954 265.811 116.006 264.505 116.26C258.352 115.184 257.175 115.387 255.913 107.512C255.629 105.742 254.742 102.694 255.342 100.908C256.293 98.0748 256.826 98.0277 258.325 98.8783Z" fill="#FFBEB6"/>
<path opacity="0.75" d="M348.645 271.922C348.638 271.837 348.563 271.776 348.479 271.783C348.395 271.79 348.333 271.865 348.34 271.948C348.347 272.032 348.422 272.094 348.506 272.087C348.59 272.079 348.652 272.005 348.645 271.922ZM344.921 272.284C344.91 272.197 344.836 272.134 344.749 272.136C344.665 272.148 344.606 272.226 344.616 272.31C344.619 272.39 344.684 272.453 344.764 272.451C344.77 272.451 344.775 272.45 344.783 272.449C344.867 272.442 344.928 272.367 344.921 272.284ZM341.219 258.122C341.275 258.056 341.267 257.957 341.202 257.902C341.143 257.849 341.052 257.854 341 257.912C340.995 257.916 340.991 257.922 340.988 257.928C340.932 257.991 340.938 258.085 340.999 258.141C341.064 258.197 341.163 258.188 341.219 258.122ZM345.841 279.529C345.865 279.45 345.822 279.366 345.743 279.341C345.664 279.317 345.58 279.36 345.554 279.439C345.529 279.517 345.574 279.602 345.652 279.627C345.726 279.655 345.808 279.617 345.836 279.543C345.838 279.538 345.84 279.534 345.841 279.529ZM344.53 265.352C344.603 265.307 344.63 265.214 344.594 265.137C344.552 265.059 344.456 265.032 344.378 265.073C344.301 265.115 344.271 265.211 344.314 265.289C344.36 265.362 344.453 265.388 344.53 265.352ZM341.224 267.111C341.297 267.069 341.322 266.975 341.28 266.901C341.248 266.827 341.16 266.793 341.085 266.825C341.081 266.827 341.077 266.829 341.073 266.831C340.998 266.875 340.97 266.969 341.009 267.047C341.054 267.119 341.147 267.147 341.224 267.111ZM359.076 289.459C359.135 289.31 359.062 289.141 358.913 289.082C358.911 289.081 358.907 289.08 358.903 289.078C358.756 289.021 358.589 289.095 358.532 289.243C358.532 289.243 358.532 289.244 358.532 289.245C358.473 289.394 358.546 289.563 358.695 289.621C358.698 289.623 358.701 289.623 358.705 289.625C358.852 289.682 359.019 289.608 359.076 289.46C359.077 289.46 359.077 289.46 359.077 289.46L359.076 289.459ZM352.451 286.94C352.509 286.787 352.435 286.617 352.282 286.557C352.13 286.497 351.959 286.574 351.899 286.727C351.899 286.727 351.898 286.729 351.897 286.732C351.84 286.879 351.914 287.047 352.061 287.103C352.062 287.103 352.063 287.103 352.063 287.103C352.217 287.16 352.387 287.088 352.451 286.94ZM364.712 262.285C364.859 262.216 364.924 262.042 364.857 261.895C364.798 261.749 364.634 261.68 364.49 261.738C364.485 261.74 364.48 261.741 364.476 261.744C364.329 261.813 364.264 261.987 364.331 262.135C364.395 262.282 364.566 262.348 364.712 262.285ZM351.759 268.096C351.906 268.031 351.971 267.862 351.907 267.715C351.907 267.715 351.904 267.709 351.902 267.706C351.843 267.561 351.679 267.492 351.535 267.55C351.53 267.552 351.525 267.553 351.52 267.556C351.374 267.628 351.307 267.801 351.367 267.953C351.438 268.098 351.611 268.163 351.759 268.096ZM345.288 271.003C345.436 270.936 345.501 270.76 345.433 270.613C345.365 270.464 345.191 270.401 345.043 270.468C344.896 270.532 344.829 270.703 344.892 270.85C344.955 270.999 345.128 271.071 345.278 271.007C345.282 271.006 345.285 271.004 345.288 271.003ZM364.951 277.449C364.942 277.289 364.804 277.167 364.642 277.176C364.482 277.186 364.36 277.324 364.369 277.485C364.379 277.642 364.512 277.763 364.669 277.757C364.831 277.748 364.957 277.611 364.951 277.449ZM357.857 277.657C357.848 277.497 357.709 277.375 357.548 277.385C357.388 277.394 357.266 277.532 357.275 277.693C357.284 277.851 357.417 277.971 357.575 277.966C357.737 277.957 357.862 277.82 357.857 277.657ZM350.77 277.86C350.76 277.695 350.619 277.571 350.454 277.581C350.296 277.59 350.172 277.722 350.173 277.88C350.173 278.044 350.307 278.177 350.472 278.177C350.636 278.176 350.769 278.042 350.769 277.877C350.771 277.87 350.77 277.865 350.77 277.86ZM353.993 252.794C354.101 252.674 354.095 252.488 353.975 252.378C353.862 252.268 353.68 252.272 353.57 252.386C353.57 252.386 353.569 252.387 353.569 252.389C353.455 252.495 353.449 252.672 353.555 252.786C353.56 252.792 353.565 252.797 353.571 252.803C353.692 252.909 353.875 252.904 353.993 252.794ZM344.238 263.113C344.347 263.002 344.348 262.825 344.237 262.715C344.234 262.712 344.231 262.709 344.227 262.707C344.114 262.592 343.93 262.592 343.815 262.705C343.811 262.709 343.808 262.711 343.804 262.715C343.693 262.835 343.7 263.02 343.819 263.131C343.938 263.242 344.125 263.234 344.234 263.116C344.236 263.114 344.237 263.113 344.238 263.113ZM364.962 284.408C364.971 284.264 364.863 284.141 364.721 284.129C364.578 284.119 364.453 284.227 364.441 284.371C364.43 284.515 364.539 284.639 364.683 284.65C364.826 284.659 364.95 284.552 364.962 284.408ZM358.643 283.988C358.652 283.844 358.545 283.72 358.402 283.709C358.259 283.694 358.131 283.799 358.116 283.941C358.101 284.084 358.205 284.213 358.348 284.227C358.354 284.228 358.359 284.228 358.365 284.229C358.505 284.242 358.629 284.138 358.643 283.998C358.643 283.995 358.642 283.992 358.643 283.988ZM352.237 283.734C352.289 283.695 352.321 283.634 352.323 283.567C352.332 283.423 352.225 283.299 352.082 283.288C351.935 283.277 351.807 283.385 351.794 283.533V283.536C351.788 283.623 351.825 283.708 351.894 283.763L351.9 283.771C351.938 283.803 351.986 283.819 352.036 283.814C352.113 283.824 352.189 283.793 352.237 283.734ZM356.352 259.341C356.459 259.24 356.469 259.074 356.375 258.961C356.283 258.855 356.124 258.844 356.018 258.935C356.015 258.938 356.012 258.94 356.009 258.943C355.898 259.035 355.884 259.2 355.977 259.31C355.978 259.311 355.979 259.312 355.979 259.312C356.078 259.418 356.24 259.43 356.352 259.341ZM346.806 267.68C346.917 267.587 346.932 267.422 346.839 267.312C346.839 267.312 346.837 267.31 346.835 267.308C346.75 267.202 346.594 267.187 346.489 267.272C346.482 267.277 346.476 267.283 346.47 267.289C346.359 267.382 346.345 267.546 346.437 267.657C346.439 267.658 346.44 267.659 346.441 267.661C346.539 267.762 346.699 267.771 346.806 267.68ZM342.046 271.846C342.153 271.746 342.159 271.58 342.06 271.473C341.964 271.369 341.802 271.36 341.694 271.454C341.59 271.551 341.577 271.712 341.665 271.825C341.766 271.932 341.933 271.941 342.046 271.846ZM360.207 272.676C360.342 272.626 360.412 272.476 360.365 272.34C360.319 272.205 360.173 272.131 360.038 272.177C359.902 272.226 359.826 272.372 359.865 272.51C359.915 272.648 360.067 272.724 360.207 272.676ZM354.2 274.702C354.333 274.662 354.409 274.522 354.37 274.389C354.368 274.385 354.366 274.379 354.365 274.375C354.32 274.239 354.174 274.166 354.039 274.211C353.903 274.26 353.827 274.406 353.865 274.545C353.915 274.679 354.064 274.749 354.2 274.702ZM348.199 276.735C348.335 276.688 348.406 276.541 348.36 276.406C348.314 276.273 348.17 276.2 348.036 276.244C347.9 276.288 347.825 276.433 347.868 276.571C347.912 276.707 348.057 276.781 348.194 276.738C348.195 276.736 348.197 276.736 348.199 276.735ZM341.749 259.852C341.813 259.722 341.762 259.564 341.633 259.496C341.5 259.436 341.342 259.492 341.281 259.626C341.223 259.753 341.272 259.903 341.393 259.97C341.518 260.037 341.675 259.991 341.744 259.867C341.745 259.861 341.748 259.856 341.749 259.852ZM348.771 275.968C348.844 275.926 348.869 275.832 348.827 275.759C348.785 275.686 348.691 275.661 348.618 275.703C348.545 275.744 348.52 275.839 348.562 275.912C348.604 275.987 348.698 276.011 348.771 275.968ZM345.542 277.851C345.615 277.803 345.635 277.708 345.592 277.633C345.55 277.56 345.456 277.535 345.383 277.577C345.311 277.615 345.283 277.704 345.322 277.776C345.324 277.78 345.325 277.783 345.328 277.787C345.368 277.863 345.462 277.892 345.54 277.853C345.541 277.852 345.541 277.852 345.542 277.851ZM349.458 283.824C349.442 283.742 349.367 283.686 349.284 283.691C349.202 283.7 349.141 283.775 349.15 283.858C349.15 283.861 349.151 283.863 349.151 283.867C349.158 283.948 349.229 284.008 349.31 284.001C349.315 284 349.32 284 349.324 283.999C349.41 283.986 349.469 283.908 349.458 283.824ZM342.352 271.519C342.405 271.451 342.392 271.357 342.326 271.305C342.259 271.253 342.164 271.265 342.111 271.332C342.058 271.391 342.063 271.482 342.121 271.534C342.125 271.538 342.132 271.543 342.137 271.546C342.201 271.599 342.297 271.588 342.348 271.524C342.351 271.522 342.351 271.52 342.352 271.519ZM355.45 292.061C355.458 291.969 355.389 291.886 355.296 291.879C355.295 291.879 355.293 291.878 355.291 291.878C355.196 291.867 355.112 291.935 355.1 292.029C355.1 292.033 355.1 292.039 355.099 292.043C355.091 292.135 355.16 292.218 355.253 292.225C355.254 292.225 355.256 292.226 355.258 292.226C355.357 292.232 355.441 292.159 355.45 292.061ZM349.838 275.113C349.91 275.058 349.923 274.955 349.868 274.884C349.864 274.878 349.859 274.873 349.854 274.868C349.79 274.796 349.68 274.789 349.608 274.852C349.539 274.918 349.528 275.026 349.585 275.104C349.651 275.177 349.764 275.182 349.838 275.113C349.837 275.115 349.837 275.115 349.838 275.113ZM346.603 277.897C346.677 277.83 346.682 277.717 346.614 277.644H346.613C346.55 277.572 346.44 277.565 346.368 277.628C346.298 277.694 346.287 277.801 346.344 277.88C346.412 277.951 346.524 277.959 346.603 277.897ZM352.237 283.734C352.24 283.709 352.239 283.683 352.234 283.659C352.205 283.568 352.108 283.518 352.016 283.547C352.015 283.547 352.014 283.548 352.011 283.548C351.921 283.579 351.871 283.672 351.894 283.763L351.901 283.771C351.929 283.862 352.027 283.912 352.118 283.883C352.12 283.883 352.122 283.882 352.124 283.882C352.19 283.861 352.234 283.802 352.237 283.734ZM341.724 271.314C341.768 271.229 341.733 271.123 341.647 271.079C341.645 271.079 341.643 271.077 341.642 271.077C341.557 271.035 341.454 271.069 341.412 271.154C341.365 271.234 341.39 271.337 341.47 271.385C341.473 271.387 341.476 271.388 341.48 271.391C341.568 271.436 341.676 271.403 341.724 271.314ZM370.954 281.343C371.109 281.282 371.19 281.11 371.137 280.95C371.082 280.793 370.911 280.709 370.754 280.762C370.597 280.822 370.516 280.996 370.571 281.156C370.625 281.313 370.796 281.398 370.954 281.343ZM364.044 283.754C364.202 283.7 364.286 283.529 364.233 283.371C364.18 283.213 364.007 283.129 363.85 283.183C363.692 283.237 363.608 283.408 363.662 283.566C363.715 283.723 363.886 283.807 364.044 283.754ZM357.141 286.172C357.297 286.112 357.378 285.938 357.324 285.78C357.264 285.625 357.09 285.548 356.935 285.607C356.781 285.666 356.703 285.842 356.762 285.996C356.819 286.147 356.988 286.226 357.141 286.172ZM347.463 264.814C347.532 264.664 347.472 264.485 347.324 264.41C347.173 264.336 346.993 264.398 346.919 264.549C346.845 264.699 346.908 264.88 347.058 264.953C347.208 265.024 347.388 264.963 347.463 264.814ZM344.279 271.4C344.35 271.25 344.29 271.071 344.14 270.996C343.985 270.926 343.805 270.991 343.727 271.142C343.659 271.297 343.73 271.477 343.883 271.545C344.033 271.608 344.207 271.545 344.279 271.4ZM355.41 275.312C355.536 275.198 355.546 275.006 355.434 274.88H355.434C355.325 274.759 355.138 274.75 355.018 274.859C354.891 274.967 354.877 275.157 354.985 275.282C355.092 275.409 355.281 275.422 355.408 275.314L355.41 275.313L355.41 275.312ZM349.952 280.182C350.077 280.075 350.092 279.888 349.986 279.763C349.985 279.761 349.983 279.76 349.982 279.759C349.874 279.63 349.681 279.613 349.551 279.722C349.422 279.83 349.405 280.023 349.514 280.152C349.622 280.281 349.815 280.298 349.945 280.189C349.948 280.186 349.95 280.184 349.952 280.182ZM359.403 277.855C359.532 277.746 359.549 277.555 359.441 277.425C359.335 277.302 359.149 277.283 359.019 277.382C358.891 277.493 358.872 277.683 358.973 277.818C359.084 277.943 359.272 277.959 359.403 277.855ZM353.766 282.479C353.895 282.37 353.912 282.178 353.804 282.049C353.7 281.921 353.511 281.901 353.382 282.006C353.254 282.11 353.234 282.3 353.338 282.428C353.443 282.555 353.632 282.578 353.766 282.479ZM361.627 290.627C361.784 290.577 361.87 290.41 361.823 290.253C361.823 290.253 361.824 290.252 361.823 290.252C361.777 290.092 361.611 289.999 361.451 290.043C361.291 290.095 361.201 290.264 361.247 290.425C361.299 290.582 361.467 290.67 361.627 290.627ZM354.644 292.74C354.804 292.695 354.896 292.527 354.852 292.368C354.807 292.208 354.64 292.117 354.48 292.161C354.479 292.162 354.477 292.163 354.473 292.164C354.315 292.217 354.225 292.385 354.269 292.546C354.317 292.703 354.485 292.789 354.642 292.742C354.643 292.739 354.643 292.739 354.644 292.74ZM351.302 266.664C351.377 266.514 351.32 266.331 351.172 266.253C351.026 266.177 350.846 266.232 350.769 266.378C350.686 266.518 350.733 266.698 350.873 266.78C350.877 266.783 350.88 266.785 350.885 266.787C351.03 266.87 351.214 266.819 351.297 266.673C351.3 266.67 351.301 266.667 351.302 266.664ZM347.859 273.09C347.934 272.94 347.876 272.756 347.728 272.678C347.582 272.602 347.402 272.657 347.325 272.803C347.243 272.943 347.29 273.124 347.429 273.206C347.433 273.208 347.436 273.211 347.441 273.212C347.587 273.295 347.772 273.244 347.854 273.098C347.855 273.095 347.857 273.092 347.859 273.09ZM353.874 279.039C353.951 278.94 353.935 278.797 353.836 278.718C353.739 278.643 353.601 278.657 353.522 278.75C353.443 278.841 353.452 278.979 353.542 279.058C353.547 279.063 353.554 279.068 353.56 279.072C353.656 279.148 353.796 279.132 353.874 279.039ZM350.446 283.326C350.525 283.226 350.506 283.081 350.408 283.004C350.309 282.926 350.163 282.944 350.086 283.043C350.007 283.14 350.022 283.282 350.118 283.36C350.12 283.362 350.122 283.363 350.124 283.365C350.225 283.44 350.367 283.423 350.446 283.326ZM358.88 289.564C358.987 289.502 359.026 289.363 358.966 289.255C358.899 289.151 358.767 289.113 358.656 289.169C358.547 289.23 358.508 289.367 358.569 289.477H358.569C358.625 289.584 358.757 289.628 358.864 289.572C358.871 289.569 358.875 289.567 358.88 289.564ZM354.064 292.227C354.174 292.163 354.215 292.025 354.159 291.911C354.098 291.802 353.96 291.762 353.852 291.823C353.852 291.823 353.852 291.824 353.85 291.824C353.742 291.879 353.699 292.01 353.754 292.118C353.754 292.118 353.757 292.123 353.759 292.125C353.815 292.238 353.949 292.283 354.062 292.228C354.062 292.228 354.063 292.227 354.064 292.227Z" fill="white"/>
<path d="M54.7379 283.739C56.0289 293.531 50.8783 302.941 55.7942 313.607C68.9655 314.203 98.3399 314.203 112.335 313.986C107.484 297.193 90.0818 306.174 82.36 294.853C81.1834 293.128 80.2231 288.646 79.2658 287.743C77.8202 286.379 73.4381 286.567 71.6781 286.293C66.208 285.443 60.1669 283.758 54.7379 283.739Z" fill="#151A4F"/>
<path d="M66.8402 165.689C73.3588 169.187 69.8119 200.068 70.2668 208.519C70.884 219.977 71.7946 231.534 72.8564 242.979C74.5401 261.127 76.6539 280.151 83.6728 296.629C72.2615 297.217 60.8137 294.595 49.9009 297.554C46.993 291.89 43.2739 286.186 42.81 279.625C42.3946 273.756 45.807 269.557 46.2777 264.205C47.3451 252.079 37.4393 240.671 39.2173 229.062C40.005 223.919 44.9868 219.073 45.4686 213.659C46.0122 207.551 42.4207 201.843 40.2876 196.526C35.0711 183.521 32.2099 171.596 30.1099 158.108C36.805 157.485 44.905 158.333 51.421 159.672C54.3889 160.282 57.059 161.584 59.9875 162.452C63.2226 163.411 67.1169 167.325 66.8402 165.689Z" fill="#D62929"/>
<path d="M41.9787 283.739C42.383 293.531 36.3801 302.941 40.33 313.607C53.4474 314.203 82.8217 314.203 96.8369 313.986C93.5058 297.193 75.2905 306.174 68.5942 294.853C67.5739 293.128 67.8759 288.646 67.0008 287.743C65.6786 286.379 60.4231 286.567 58.6875 286.293C53.2949 285.443 47.4059 283.758 41.9787 283.739Z" fill="url(#paint11_linear)"/>
<path d="M39.4533 126.73C35.592 136.488 26.4267 144.573 26.3316 155.458C26.2507 164.734 31.926 172.212 33.2255 181.138C34.7328 191.492 36.1676 201.95 35.7406 212.296C35.5029 218.052 34.519 223.711 34.609 229.436C34.7049 235.53 34.8869 243.642 36.6756 249.146C39.1629 256.799 36.1723 261.649 35.8113 269.461C35.4755 276.725 38.4048 297.1 38.4048 297.1C38.4048 297.1 63.9546 297.025 69.9271 296.425C68.9218 274.757 66.2748 251.066 66.4855 229.357C66.5819 219.426 66.7948 208.235 68.8374 198.533C70.7546 189.428 74.6069 180.239 75.7262 170.959C76.9786 160.574 75.6049 147.7 79.3026 137.794C73.4732 133.982 65.0939 134.268 58.5012 131.903C53.3313 130.049 44.3781 124.103 39.4533 126.73Z" fill="url(#paint12_linear)"/>
<path d="M63.5503 295.063L63.9743 295C61.5136 278.266 57.7504 247.091 60.1935 226.319C61.834 212.375 64.0882 197.899 66.0769 185.128C66.4517 182.721 67.0141 180.263 67.5589 177.884C68.4113 174.161 69.2928 170.31 69.4941 166.504C69.6427 163.696 68.4567 159.343 67.672 156.463C67.3169 155.16 67.0364 154.13 67 153.694L66.5734 153.73C66.6128 154.204 66.8839 155.199 67.2591 156.576C68.0361 159.43 69.2114 163.743 69.067 166.482C68.8674 170.251 67.9902 174.083 67.1422 177.789C66.5961 180.174 66.0311 182.641 65.6542 185.062C63.6646 197.837 61.4099 212.317 59.7686 226.269C57.3195 247.09 61.0866 278.308 63.5503 295.063Z" fill="white"/>
<path d="M68.6049 175.215C69.5425 175.215 70.4946 174.522 71.4395 173.148C74.4673 168.747 76.8736 157.541 75.3394 154.983L74.9723 155.203C76.3361 157.478 74.2789 168.265 71.0866 172.906C70.1331 174.291 69.2114 174.919 68.3466 174.765L68.2721 175.186C68.383 175.206 68.4935 175.215 68.6049 175.215Z" fill="white"/>
<path d="M104.54 84.7982C106.433 87.9404 110.132 89.9052 112.038 92.9819C114.223 96.5097 115.186 101.486 115.891 105.56C116.935 111.599 114.967 115.496 111.778 120.89C108.032 127.226 102.685 131.152 97.4369 136.148C92.2414 141.095 79.9717 153.618 76.2675 159.735C47.9996 167.445 31.8227 147.048 29.3684 145.601C26.1363 143.694 36.6653 126.711 37.0778 123.115C39.4695 102.25 52.0387 91.1148 70.663 80.0025C80.1837 74.322 95.9267 74.1254 104.007 83.4729C103.39 82.8818 105.024 85.5096 104.54 84.7982Z" fill="#89B3F4"/>
<path d="M141.492 98.9383C134.799 97.7625 131.647 98.7108 128.904 100.557C122.573 104.82 115.731 108.924 109.881 113.303C111.046 115.031 112.152 117.117 113.015 119.208C117.767 116.427 122.891 113.224 127.663 110.104C133.402 106.353 136.567 106.992 143.082 105.624C146.909 104.821 156.272 103.4 156.87 101.555C158.068 97.8614 145.378 99.6206 141.492 98.9383Z" fill="#F2A19C"/>
<path d="M109.548 109.653L182.716 92.4326L202.984 114.888L129.817 132.109L109.548 109.653Z" fill="url(#paint13_linear)"/>
<path d="M157.324 142.712C163.46 141.288 175.917 141.226 178.634 140.539C181.602 139.787 184.093 137.437 187.294 137.876C188.113 143.199 175.866 146.308 172.171 148.856C166.29 152.911 159.227 150.721 151.932 152.343C152.29 149.02 157.496 146.104 157.324 142.712Z" fill="#F2A19C"/>
<path d="M130.302 102.555C131.813 104.023 137.5 104.658 140.822 107.31C143.21 109.218 144.753 108.304 145.297 107.306C145.899 104.993 141.142 101.654 139.039 100.352C135.812 98.3547 126.522 99.3082 130.302 102.555Z" fill="url(#paint14_linear)"/>
<path d="M108.608 90.7253C117.353 88.8038 117.741 110.09 118.387 115.655C119.573 125.885 121.648 136.753 122.025 146.853C122.495 159.473 111.699 158.816 108.016 148.977C104.186 138.744 100.069 125.126 98.978 114.236C98.5223 109.687 98.2734 104.064 98.6957 99.5489C98.9288 97.056 101.245 95.29 102.824 93.1616C104.371 91.0765 108.459 91.9897 108.608 90.7253Z" fill="url(#paint15_linear)"/>
<path d="M127.807 67.9969C128.75 69.9274 128.411 72.0421 128.682 74.158C128.931 76.1087 130.415 78.569 129.642 79.7773C128.884 80.9621 124.328 80.47 121.693 79.7773C123.332 75.1141 126.185 70.9387 127.709 66.2129C128.205 68.337 128.409 68.0607 127.807 67.9969Z" fill="url(#paint16_linear)"/>
<path d="M126.206 66.7515C126.948 67.7174 128.785 66.0871 129.076 67.3053C130.46 73.1079 125.707 83.764 120.502 86.4655C116.213 88.692 104.546 78.9496 101.966 74.5412C98.578 68.7501 102.196 56.492 108.577 54.1795C116.412 51.3396 121.368 60.5454 125.395 65.3483C125.147 64.9521 126.454 67.1481 126.206 66.7515Z" fill="url(#paint17_linear)"/>
<path d="M123.982 53.1132C131.379 56.5519 132.65 60.953 131.613 69.2417C131.36 70.6132 127.525 70.3827 123.583 69.2417C118.853 75.1951 108.741 80.1988 101.261 76.672C94.3175 73.3973 93.218 65.1793 97.1127 59.0863C100.92 53.129 106.738 50.5826 113.586 50.9317C117.112 51.1116 117.255 50.2943 120.608 51.426L123.982 53.1132Z" fill="url(#paint18_linear)"/>
<path d="M116.071 54.2505C110.966 54.2505 106.827 51.5976 106.827 48.325C106.827 45.0524 110.966 42.3994 116.071 42.3994C121.176 42.3994 125.314 45.0524 125.314 48.325C125.314 51.5976 121.176 54.2505 116.071 54.2505Z" fill="#428DFC"/>
<path d="M64.2206 150.14C70.5683 150.14 77.6416 148.916 80.9555 147.859C85.3925 146.443 90.7213 143.213 95.4221 140.363C98.7365 138.354 101.745 136.546 103.604 135.894L102.391 131.54C100.111 132.339 96.8656 134.479 93.2021 136.7C88.7047 139.426 83.6073 142.517 79.6539 143.777C74.0951 145.551 60.0436 146.998 56.2238 144.548L53.9117 148.153C56.1818 149.61 60.0448 150.14 64.2206 150.14Z" fill="#23286B"/>
<path d="M133.159 70.1243C133.161 70.1243 133.163 70.1243 133.165 70.1243C133.284 70.1205 133.377 70.022 133.373 69.9037C133.356 69.3225 133.35 68.7361 133.344 68.148C133.323 65.9716 133.302 63.7212 132.666 61.6031C131.697 58.376 128.931 55.2346 125.449 53.4043C124.838 53.0827 124.051 52.8372 123.218 52.5772C122.648 52.399 122.058 52.2149 121.531 52.005C121.422 51.9626 121.297 52.0144 121.253 52.1249C121.209 52.2346 121.263 52.3592 121.373 52.4029C121.915 52.6188 122.513 52.8051 123.09 52.9854C123.904 53.2394 124.673 53.4793 125.25 53.7826C128.634 55.561 131.318 58.6047 132.256 61.7251C132.874 63.7854 132.896 66.0046 132.916 68.1514C132.922 68.7425 132.927 69.3315 132.945 69.9153C132.949 70.0331 133.044 70.1243 133.159 70.1243Z" fill="#428DFC"/>
<path d="M114.345 53.0092C116.753 53.0097 117.216 51.9376 118.571 48.8064L118.65 48.624C118.696 48.5156 118.647 48.3892 118.538 48.3426C118.43 48.2954 118.304 48.3456 118.256 48.4544L118.178 48.6364C116.58 52.3303 116.333 52.8983 112.655 52.4588C110.822 52.24 109.136 51.8617 107.646 51.3349C105.035 50.4123 103.496 49.2485 103.073 47.8765C102.844 47.1355 102.938 46.4515 103.35 45.8441C104.488 44.1676 107.571 43.5054 109.041 43.3893C112.931 43.0839 119.036 44.1166 121.928 46.1452C123.092 46.9616 124.432 48.2676 124.205 49.8529C124.105 50.5605 123.544 51.5131 122.971 51.6806C122.718 51.7538 122.483 51.663 122.256 51.3983C122.178 51.3088 122.044 51.2989 121.954 51.3756C121.864 51.4527 121.854 51.5876 121.931 51.6776C122.359 52.1749 122.798 52.1757 123.091 52.0918C123.846 51.8707 124.508 50.7665 124.629 49.9133C124.886 48.113 123.436 46.6798 122.174 45.7948C119.11 43.6455 112.951 42.6496 109.008 42.9627C107.466 43.0839 104.225 43.7924 102.996 45.6034C102.507 46.3243 102.395 47.1312 102.664 48.0033C103.129 49.5115 104.758 50.7686 107.504 51.7397C109.024 52.2768 110.74 52.6623 112.604 52.8846C113.281 52.9651 113.854 53.0092 114.345 53.0092Z" fill="#428DFC"/>
<path d="M111.386 52.3945C111.475 52.3945 111.558 52.338 111.589 52.2485C111.626 52.1363 111.566 52.015 111.454 51.9773C108.987 51.1468 106.192 48.5764 106.125 46.2167C106.086 44.8229 107.044 43.6934 108.896 42.9506C111.342 41.9689 115.344 42.282 118.625 43.7118C120.993 44.7428 122.642 46.209 123.27 47.8396L123.607 48.7134L123.684 47.7801C123.711 47.4499 123.586 47.1492 123.314 46.8862C123.297 46.869 123.277 46.8562 123.256 46.8459C122.413 45.4508 120.864 44.2194 118.796 43.319C115.418 41.8473 111.282 41.532 108.737 42.5532C106.168 43.5833 105.666 45.1206 105.698 46.2287C105.77 48.8025 108.663 51.4886 111.318 52.383C111.34 52.3907 111.363 52.3945 111.386 52.3945Z" fill="#428DFC"/>
<path d="M129.153 75.303C129.706 75.303 130.259 75.1698 130.774 74.8489C130.874 74.7864 130.905 74.6545 130.842 74.5542C130.779 74.4536 130.646 74.4236 130.547 74.4861C128.797 75.5763 126.425 74.1079 125.697 73.0474C125.63 72.9501 125.497 72.9253 125.399 72.9921C125.302 73.0589 125.277 73.1926 125.344 73.2898C125.96 74.1885 127.553 75.303 129.153 75.303Z" fill="#23286B"/>
<path d="M158.411 146.088L231.578 128.868L202.984 114.888L129.817 132.108L158.411 146.088Z" fill="url(#paint19_linear)"/>
<path d="M157.292 147.463C159.347 142.776 160.073 142.596 164.22 140.566C165.921 139.734 168.012 138.277 169.205 136.828C171.639 133.872 174.061 134.836 174.106 135.614C174.328 139.467 170.504 141.205 169.113 145.03C167.881 148.417 161.026 148.421 157.292 147.463Z" fill="#F2A19C"/>
<path d="M194.781 132.168L194.908 131.321C193.774 131.152 191.923 130.874 189.811 130.548L189.68 131.394C191.795 131.72 193.647 132 194.781 132.168ZM184.586 130.594L184.722 129.748C182.699 129.422 180.991 129.136 179.646 128.898L179.497 129.742C180.847 129.981 182.559 130.268 184.586 130.594ZM169.47 128.947C170.918 128.721 173.15 128.61 174.503 128.705L174.563 127.851C173.131 127.749 170.862 127.862 169.338 128.1L169.47 128.947ZM164.384 128.345L164.729 127.561C162.888 126.749 160.852 125.713 160.177 125.289L159.722 126.015C160.422 126.455 162.509 127.519 164.384 128.345ZM154.833 125.279L154.933 124.429C153.655 124.277 151.737 124.039 149.854 123.717L149.709 124.561C151.613 124.887 153.545 125.127 154.833 125.279ZM144.636 123.392L144.896 122.576C142.649 121.859 141.336 121.029 140.994 120.108L140.191 120.407C140.636 121.603 142.09 122.58 144.636 123.392ZM144.163 117.594C145.453 117.173 147.117 116.778 149.108 116.417L148.956 115.574C146.927 115.941 145.224 116.347 143.897 116.779L144.163 117.594ZM154.173 115.661C155.09 115.547 156.06 115.438 157.059 115.337C157.952 115.246 158.726 114.8 159.237 114.08L158.538 113.584C158.173 114.099 157.616 114.419 156.972 114.484C155.968 114.587 154.991 114.697 154.068 114.811L154.173 115.661ZM159.037 109.556C159.698 108.641 161.056 107.049 162.298 105.613L161.649 105.052C160.396 106.503 159.022 108.113 158.343 109.055L159.037 109.556ZM165.672 101.717C168.657 98.2381 168.888 97.7275 168.888 97.3857L168.874 97.2632L168.04 97.4598L168.457 97.3617L168.032 97.3861C168.032 97.3527 168.038 97.333 168.038 97.3326C167.945 97.6483 166.93 98.9358 165.023 101.159L165.672 101.717Z" fill="#23286B"/>
<path d="M114.159 139.979C123.832 139.091 134.151 141.806 143.118 142.713C145.752 142.98 157.48 141.326 157.336 143.887C157.16 147 157.16 152.084 157.139 156.825C149.252 156.603 132.692 158.095 123.832 157.733C118.863 157.53 115.696 157.761 111.687 154.344C106.025 149.518 110.397 140.325 114.159 139.979Z" fill="url(#paint20_linear)"/>
<path d="M29.3573 154.057C39.7848 162.751 55.2862 161.346 63.9803 150.918L110.529 95.0859C119.223 84.6581 117.818 69.1563 107.39 60.462C90.1191 46.0614 64.4442 48.3894 50.0444 65.6611L24.1588 96.7093C9.75816 113.981 12.0856 139.657 29.3573 154.057Z" fill="url(#paint21_linear)"/>
<path d="M101.808 104.137C101.876 104.137 101.943 104.104 101.984 104.043L104.875 99.7924C104.941 99.6943 104.916 99.5615 104.818 99.4951C104.721 99.4296 104.588 99.4531 104.521 99.5516L101.631 103.802C101.564 103.9 101.589 104.033 101.687 104.099C101.724 104.124 101.766 104.137 101.808 104.137ZM107.238 95.4422C107.328 95.4422 107.411 95.3852 107.441 95.2953C107.794 94.2253 107.973 93.1104 107.973 91.9821C107.973 91.3589 107.917 90.731 107.807 90.1159C107.787 89.9994 107.677 89.9218 107.559 89.9428C107.443 89.9638 107.365 90.0748 107.386 90.1913C107.491 90.7815 107.544 91.3842 107.544 91.9826C107.545 93.0654 107.374 94.1349 107.035 95.1612C106.998 95.2739 107.059 95.3951 107.171 95.4319C107.193 95.4388 107.216 95.4422 107.238 95.4422ZM72.862 90.5588L72.9386 90.5579C73.0569 90.5579 73.1528 90.462 73.1528 90.3438C73.1528 90.2255 73.0569 90.1296 72.9386 90.1296L72.8551 90.1304C71.2069 90.1304 69.5605 89.7197 68.0995 88.9422C67.9958 88.8861 67.8652 88.9255 67.8095 89.0305C67.7538 89.135 67.7936 89.2648 67.8977 89.3205C69.4208 90.1304 71.1367 90.5588 72.862 90.5588ZM74.2193 90.4697C74.2287 90.4697 74.2382 90.4693 74.2476 90.468C75.9883 90.2384 77.6575 89.5757 79.0735 88.5516C79.1694 88.4822 79.1908 88.3481 79.1215 88.2526C79.0521 88.1571 78.918 88.1361 78.8225 88.2047C77.4639 89.1877 75.8624 89.8229 74.1915 90.0431C74.0745 90.0585 73.9914 90.1664 74.0069 90.2838C74.0214 90.3913 74.1135 90.4697 74.2193 90.4697ZM107.293 89.1196C107.314 89.1196 107.336 89.1166 107.356 89.1102C107.47 89.0755 107.533 88.9555 107.498 88.8424C106.98 87.1689 106.044 85.6368 104.792 84.4105C104.709 84.3287 104.572 84.3295 104.49 84.4139C104.407 84.4983 104.409 84.6341 104.493 84.7167C105.695 85.8929 106.592 87.3634 107.089 88.9688C107.117 89.0605 107.202 89.1196 107.293 89.1196ZM63.6226 86.6494C63.6942 86.6494 63.764 86.6134 63.8047 86.5487C63.8672 86.4485 63.8364 86.3161 63.7361 86.2536L59.3728 83.5367C59.2713 83.475 59.1403 83.5054 59.0777 83.6052C59.0152 83.7054 59.046 83.8378 59.1463 83.9003L63.5096 86.6173C63.5451 86.6387 63.5841 86.6494 63.6226 86.6494ZM82.4735 84.8748C82.5348 84.8748 82.5952 84.8487 82.6376 84.7981L85.285 81.6383C85.4983 81.3834 85.7258 81.1372 85.9613 80.9059C86.0457 80.8232 86.0466 80.6874 85.9639 80.603C85.8812 80.5191 85.7455 80.5174 85.6611 80.6005C85.4161 80.8416 85.1792 81.0978 84.9565 81.3629L82.3095 84.5227C82.2332 84.6135 82.2452 84.7484 82.336 84.8243C82.3763 84.8585 82.4251 84.8748 82.4735 84.8748ZM100.804 81.3603C100.864 81.3603 100.922 81.3359 100.965 81.2879C101.043 81.1997 101.035 81.0643 100.946 80.986L100.1 80.2368C99.0663 79.3206 97.8871 78.6258 96.5961 78.1718C96.4843 78.132 96.3618 78.1915 96.3229 78.3029C96.2835 78.4147 96.3421 78.5367 96.4539 78.5762C97.6926 79.0118 98.8238 79.6783 99.8167 80.5576L100.663 81.3068C100.703 81.3428 100.754 81.3603 100.804 81.3603ZM54.8964 81.2155C54.968 81.2155 55.0378 81.1796 55.0785 81.1149C55.141 81.0142 55.1102 80.8823 55.0099 80.8198L53.919 80.1409C53.8179 80.0792 53.686 80.1096 53.6239 80.2094C53.5614 80.31 53.5922 80.442 53.6924 80.5045L54.7834 81.1834C54.8189 81.2053 54.8579 81.2155 54.8964 81.2155ZM90.2047 78.4052C90.224 78.4052 90.2441 78.4027 90.2638 78.3967C90.6656 78.2815 91.0785 78.1902 91.4922 78.1251C91.6087 78.1067 91.6889 77.997 91.6704 77.8801C91.652 77.7636 91.5398 77.6826 91.4254 77.7019C90.995 77.7696 90.5641 77.8651 90.146 77.9851C90.0321 78.0176 89.9666 78.1363 89.9991 78.2498C90.0257 78.3444 90.1113 78.4052 90.2047 78.4052ZM49.4426 77.8197C49.5142 77.8197 49.584 77.7837 49.6247 77.7191C49.6872 77.6188 49.6563 77.4865 49.5561 77.4239L46.1887 75.3268C46.0871 75.2651 45.9561 75.2955 45.8935 75.3953C45.831 75.4956 45.8618 75.6279 45.9621 75.6905L49.3295 77.7876C49.3647 77.8094 49.4036 77.8197 49.4426 77.8197Z" fill="#D6D7D8"/>
<path d="M41.7029 125.639C42.1633 125.639 42.6177 125.428 42.9111 125.029L69.6847 88.6558C70.1755 87.9889 70.0329 87.0504 69.3664 86.5596C68.6987 86.0687 67.7606 86.2113 67.2702 86.8778L40.4967 123.251C40.0058 123.918 40.1485 124.856 40.8149 125.347C41.0826 125.544 41.394 125.639 41.7029 125.639Z" fill="#E94A47"/>
<path d="M19.8464 110.886C20.3069 110.886 20.7613 110.675 21.0547 110.276L47.8283 73.9029C48.3191 73.236 48.1765 72.2975 47.51 71.8066C46.8423 71.3158 45.9042 71.4584 45.4138 72.1249L18.6403 108.498C18.1494 109.165 18.292 110.103 18.9585 110.594C19.2266 110.791 19.538 110.886 19.8464 110.886Z" fill="#E94A47"/>
<path d="M39.7276 120.38L41.8316 117.15L49.1935 121.946L47.0895 125.176L39.7276 120.38Z" fill="#D6D7D8"/>
<path d="M19.1779 106.334L21.2811 103.104L26.5402 106.528L24.437 109.758L19.1779 106.334Z" fill="#D6D7D8"/>
<path opacity="0.75" d="M50.489 167.437C50.4175 167.459 50.3408 167.418 50.3189 167.346C50.2971 167.274 50.3382 167.197 50.4097 167.175C50.4817 167.153 50.5579 167.195 50.5798 167.267C50.6008 167.339 50.5605 167.415 50.489 167.437ZM49.5492 164.231C49.4743 164.251 49.3972 164.21 49.3698 164.138C49.3518 164.064 49.3963 163.989 49.4696 163.97C49.536 163.946 49.6105 163.979 49.6353 164.046C49.6375 164.051 49.6383 164.055 49.6396 164.062C49.6619 164.134 49.6212 164.21 49.5492 164.231ZM36.5976 165.871C36.5617 165.939 36.4769 165.965 36.4092 165.929C36.3458 165.898 36.3197 165.821 36.3505 165.759C36.3522 165.754 36.3556 165.748 36.3599 165.744C36.3933 165.677 36.473 165.65 36.5398 165.682C36.6079 165.718 36.6336 165.802 36.5976 165.871ZM55.8516 162.585C55.7946 162.631 55.7107 162.623 55.6631 162.567C55.6168 162.509 55.625 162.426 55.6815 162.378C55.7381 162.33 55.8224 162.34 55.87 162.396C55.9175 162.447 55.9141 162.528 55.8623 162.576C55.8584 162.58 55.8554 162.582 55.8516 162.585ZM43.6829 166.211C43.6692 166.286 43.602 166.339 43.5257 166.335C43.4478 166.326 43.3925 166.256 43.4011 166.178C43.4101 166.1 43.4803 166.044 43.5583 166.053C43.6341 166.067 43.6868 166.135 43.6829 166.211ZM44.038 162.887C44.0277 162.962 43.9579 163.013 43.8834 163.003C43.811 163 43.7536 162.94 43.7558 162.866C43.7562 162.863 43.7562 162.859 43.7566 162.855C43.7677 162.778 43.8358 162.724 43.9138 162.73C43.9883 162.743 44.0423 162.812 44.038 162.887ZM68.4742 170.252C68.3706 170.35 68.2065 170.346 68.108 170.241C68.1059 170.24 68.1046 170.237 68.1016 170.235C68.0052 170.131 68.0112 169.969 68.1144 169.872C68.1144 169.872 68.1157 169.872 68.1161 169.871C68.2198 169.773 68.3838 169.777 68.4824 169.882C68.4845 169.883 68.4858 169.886 68.4888 169.888C68.5852 169.992 68.5792 170.154 68.4759 170.251C68.4759 170.252 68.4759 170.252 68.4759 170.252H68.4742ZM64.1846 165.6C64.0779 165.699 63.9117 165.693 63.8115 165.587C63.7117 165.48 63.7177 165.313 63.8248 165.213C63.8248 165.213 63.8265 165.211 63.8282 165.209C63.9314 165.113 64.0942 165.119 64.1897 165.222C64.1901 165.223 64.1902 165.224 64.1902 165.224C64.2891 165.332 64.2857 165.497 64.1846 165.6ZM47.8612 183.955C47.8527 184.099 47.7306 184.21 47.5862 184.205C47.4466 184.203 47.3344 184.091 47.3344 183.952C47.3344 183.947 47.334 183.943 47.3348 183.938C47.3434 183.794 47.4655 183.683 47.6102 183.689C47.7529 183.693 47.8651 183.812 47.8612 183.955ZM48.3594 171.289C48.3542 171.433 48.2364 171.543 48.0934 171.539C48.0934 171.539 48.0874 171.538 48.0848 171.538C47.9452 171.536 47.8329 171.424 47.8329 171.285C47.8329 171.28 47.8325 171.276 47.8334 171.271C47.8445 171.126 47.9649 171.013 48.1109 171.012C48.2544 171.022 48.3654 171.145 48.3594 171.289ZM48.6116 164.961C48.6052 165.106 48.481 165.218 48.3367 165.211C48.1915 165.204 48.0805 165.08 48.0874 164.936C48.0912 164.792 48.2103 164.68 48.3529 164.683C48.4973 164.686 48.6138 164.805 48.6116 164.951C48.6125 164.955 48.6121 164.958 48.6116 164.961ZM60.4903 179.112C60.3545 179.158 60.2076 179.084 60.1622 178.947C60.1164 178.811 60.1905 178.664 60.3267 178.618C60.4603 178.574 60.6042 178.644 60.6522 178.776C60.6976 178.913 60.6261 179.063 60.4903 179.112ZM58.3016 173.164C58.1658 173.21 58.0189 173.136 57.9735 172.999C57.9277 172.863 58.0018 172.716 58.138 172.67C58.2716 172.626 58.4155 172.696 58.4635 172.828C58.5093 172.965 58.4378 173.114 58.3016 173.164ZM56.1107 167.224C55.9715 167.271 55.8212 167.195 55.7745 167.055C55.7295 166.921 55.7972 166.775 55.9282 166.723C56.0649 166.668 56.2191 166.736 56.2739 166.872C56.3283 167.009 56.261 167.163 56.1248 167.218C56.1193 167.222 56.1154 167.223 56.1107 167.224ZM36.4392 178.227C36.3758 178.357 36.2203 178.413 36.0888 178.351C35.9599 178.293 35.9033 178.141 35.9612 178.012C35.9612 178.012 35.9616 178.011 35.9624 178.01C36.0126 177.881 36.1577 177.817 36.2871 177.866C36.2931 177.869 36.2991 177.871 36.3064 177.874C36.434 177.939 36.4914 178.092 36.4392 178.227ZM41.7324 166.713C41.6775 166.84 41.5306 166.9 41.4034 166.845C41.4 166.844 41.3961 166.842 41.3927 166.84C41.2604 166.784 41.1987 166.632 41.2539 166.499C41.2556 166.494 41.2569 166.491 41.2591 166.487C41.3212 166.355 41.4775 166.299 41.6086 166.36C41.7401 166.422 41.7962 166.58 41.7345 166.71C41.7332 166.712 41.7324 166.713 41.7324 166.713ZM66.2529 176.808C66.1373 176.863 65.9989 176.815 65.9416 176.701C65.8854 176.586 65.9334 176.447 66.0486 176.389C66.1643 176.332 66.3026 176.381 66.36 176.496C66.4157 176.612 66.3677 176.75 66.2529 176.808ZM63.8025 171.711C63.6869 171.767 63.5485 171.718 63.4911 171.604C63.4312 171.491 63.4749 171.35 63.5884 171.29C63.7019 171.23 63.8428 171.273 63.9027 171.387C63.9053 171.391 63.907 171.396 63.9096 171.401C63.967 171.512 63.9224 171.65 63.8111 171.708C63.8085 171.709 63.8051 171.709 63.8025 171.711ZM61.4604 166.488C61.4455 166.544 61.4052 166.591 61.3504 166.615C61.2347 166.67 61.0964 166.622 61.039 166.508C60.9807 166.389 61.0278 166.247 61.1461 166.188L61.1482 166.187C61.218 166.153 61.3007 166.155 61.3688 166.194L61.3782 166.196C61.4172 166.217 61.4463 166.252 61.4592 166.294C61.4934 166.355 61.4934 166.428 61.4604 166.488ZM42.6426 178.005C42.5942 178.128 42.4605 178.191 42.3359 178.15C42.2177 178.11 42.1555 177.982 42.1954 177.863C42.1967 177.86 42.198 177.857 42.1992 177.853C42.2391 177.731 42.3706 177.664 42.4922 177.705C42.4939 177.706 42.4943 177.706 42.4943 177.706C42.6147 177.753 42.6794 177.883 42.6426 178.005ZM46.3664 167.324C46.3265 167.446 46.1951 167.513 46.0726 167.473C46.0726 167.473 46.07 167.472 46.0683 167.471C45.9522 167.436 45.8875 167.312 45.9231 167.196C45.9248 167.189 45.9274 167.182 45.9312 167.175C45.971 167.053 46.1025 166.987 46.225 167.026C46.2263 167.027 46.2276 167.027 46.2293 167.028C46.3462 167.075 46.4062 167.205 46.3664 167.324ZM48.2304 161.994C48.1833 162.116 48.0475 162.176 47.9263 162.129C47.8085 162.084 47.7473 161.953 47.7888 161.833C47.8347 161.714 47.9636 161.649 48.0861 161.685C48.2082 161.734 48.2711 161.869 48.2304 161.994ZM54.9611 176.767C54.9641 176.896 54.8639 177.004 54.7358 177.01C54.6086 177.017 54.4994 176.92 54.4921 176.793C54.4869 176.664 54.5824 176.553 54.7101 176.539C54.8412 176.535 54.9538 176.635 54.9611 176.767ZM54.6386 171.116C54.6501 171.239 54.5593 171.35 54.4364 171.361C54.4325 171.361 54.427 171.361 54.4231 171.362C54.2959 171.369 54.1867 171.272 54.1794 171.145C54.1743 171.016 54.2698 170.905 54.3974 170.891C54.5246 170.888 54.6326 170.988 54.6386 171.116ZM54.3238 165.468C54.3302 165.596 54.2325 165.704 54.1053 165.711C53.9798 165.717 53.8714 165.622 53.8629 165.496C53.8543 165.369 53.9494 165.258 54.077 165.248C54.2047 165.239 54.3147 165.335 54.3242 165.463C54.3237 165.465 54.3238 165.466 54.3238 165.468ZM38.2056 165.735C38.119 165.831 37.9713 165.841 37.8719 165.757C37.7777 165.667 37.7721 165.517 37.8625 165.422C37.9486 165.331 38.0886 165.322 38.1841 165.401C38.2814 165.482 38.2959 165.627 38.2158 165.725C38.2111 165.729 38.2086 165.732 38.2056 165.735ZM53.88 166.197C53.8697 166.272 53.7999 166.323 53.7254 166.313C53.6509 166.302 53.599 166.232 53.6093 166.158C53.6196 166.084 53.6894 166.032 53.7639 166.042C53.8393 166.052 53.8907 166.122 53.88 166.197ZM54.364 162.896C54.3486 162.971 54.2766 163.02 54.2 163.009C54.1254 162.999 54.0736 162.928 54.0839 162.854C54.0912 162.782 54.1558 162.73 54.2282 162.737C54.2321 162.738 54.2347 162.738 54.2389 162.739C54.3152 162.747 54.3709 162.816 54.3644 162.893C54.364 162.893 54.3644 162.894 54.364 162.896ZM60.6098 164.154C60.537 164.168 60.4655 164.125 60.4423 164.055C60.4222 163.983 60.4642 163.909 60.5357 163.888C60.5378 163.888 60.5404 163.888 60.5434 163.886C60.6128 163.865 60.686 163.904 60.7079 163.974C60.7087 163.978 60.7105 163.982 60.7109 163.986C60.728 164.061 60.6835 164.136 60.6098 164.154ZM48.0613 162.357C48.0231 162.423 47.9405 162.444 47.8754 162.406C47.8094 162.367 47.788 162.285 47.8265 162.219C47.8578 162.155 47.934 162.129 47.9966 162.16C48.0013 162.162 48.0073 162.166 48.012 162.169C48.0762 162.205 48.0994 162.288 48.0638 162.352C48.0634 162.355 48.0621 162.355 48.0613 162.357ZM69.4208 166.383C69.3471 166.42 69.2559 166.39 69.2186 166.316C69.2182 166.314 69.2174 166.314 69.2161 166.312C69.1758 166.237 69.2037 166.144 69.2778 166.103C69.2812 166.102 69.2855 166.1 69.2889 166.098C69.3626 166.06 69.4538 166.09 69.4911 166.165C69.4915 166.166 69.4923 166.167 69.4936 166.168C69.5313 166.248 69.4988 166.342 69.4208 166.383ZM53.5275 167.365C53.5057 167.443 53.4247 167.488 53.3476 167.466C53.3416 167.465 53.336 167.462 53.33 167.459C53.2495 167.431 53.2071 167.342 53.2349 167.262C53.2666 167.182 53.3519 167.137 53.4354 167.158C53.5176 167.189 53.5592 167.281 53.5275 167.365C53.5284 167.363 53.5284 167.363 53.5275 167.365ZM54.7546 163.759C54.7238 163.842 54.6321 163.884 54.5482 163.852L54.5478 163.851C54.4672 163.822 54.4248 163.734 54.4527 163.654C54.4844 163.574 54.5696 163.529 54.6531 163.55C54.7358 163.583 54.7795 163.673 54.7546 163.759ZM61.4604 166.488C61.4407 166.499 61.4193 166.506 61.3971 166.51C61.3127 166.517 61.2382 166.452 61.2322 166.367C61.2322 166.365 61.2317 166.365 61.2313 166.362C61.227 166.277 61.2874 166.205 61.3696 166.194L61.3791 166.196C61.4634 166.189 61.538 166.254 61.544 166.339C61.544 166.341 61.5444 166.343 61.5448 166.344C61.55 166.406 61.5161 166.462 61.4604 166.488ZM47.6835 161.904C47.6269 161.969 47.528 161.975 47.4633 161.918C47.462 161.917 47.4599 161.916 47.4599 161.915C47.3969 161.859 47.3909 161.762 47.447 161.699C47.4976 161.633 47.5905 161.62 47.6573 161.67C47.6608 161.673 47.6621 161.674 47.6659 161.676C47.7319 161.734 47.7404 161.835 47.6835 161.904ZM65.7111 182.792C65.712 182.941 65.5968 183.065 65.4464 183.074C65.2982 183.081 65.1714 182.968 65.1633 182.819C65.1611 182.67 65.2777 182.544 65.428 182.537C65.5766 182.529 65.7034 182.643 65.7111 182.792ZM65.4066 176.265C65.4143 176.413 65.3004 176.54 65.1522 176.548C65.004 176.557 64.8772 176.442 64.869 176.293C64.8613 176.145 64.9753 176.018 65.1235 176.01C65.2708 176.003 65.3976 176.116 65.4066 176.265ZM65.1102 169.74C65.1127 169.89 64.9958 170.015 64.8463 170.023C64.6981 170.025 64.5765 169.906 64.5743 169.758C64.5718 169.611 64.6908 169.488 64.8386 169.485C64.9821 169.482 65.1033 169.596 65.1102 169.74ZM44.2136 168.821C44.1126 168.928 43.9446 168.938 43.8329 168.84C43.7219 168.74 43.7134 168.569 43.8136 168.458C43.9134 168.347 44.0838 168.339 44.1944 168.439C44.3027 168.539 44.3117 168.708 44.2136 168.821ZM48.6052 163.993C48.5041 164.101 48.3354 164.111 48.2244 164.012C48.1152 163.907 48.1079 163.735 48.2077 163.621C48.3135 163.513 48.4861 163.512 48.5928 163.617C48.6952 163.72 48.7007 163.885 48.6052 163.993ZM55.5462 171.916C55.4944 172.058 55.3384 172.131 55.1971 172.08L55.1967 172.08C55.0605 172.03 54.9906 171.878 55.0412 171.741C55.0883 171.601 55.2404 171.526 55.3804 171.574C55.5209 171.621 55.595 171.773 55.5475 171.914L55.547 171.916L55.5462 171.916ZM57.7598 165.775C57.7131 165.914 57.5631 165.989 57.4244 165.942C57.4227 165.942 57.4209 165.941 57.4197 165.941C57.277 165.893 57.1986 165.74 57.2458 165.596C57.2929 165.453 57.4462 165.374 57.5901 165.421C57.7328 165.469 57.8111 165.622 57.764 165.766C57.7623 165.77 57.761 165.773 57.7598 165.775ZM58.98 174.38C58.9329 174.523 58.7796 174.601 58.6369 174.554C58.4995 174.507 58.4219 174.359 58.4609 174.219C58.5102 174.076 58.6609 173.997 58.8061 174.036C58.9458 174.086 59.0229 174.237 58.98 174.38ZM60.9302 168.172C60.8831 168.315 60.7297 168.392 60.5871 168.346C60.4462 168.302 60.3669 168.152 60.4111 168.011C60.4548 167.87 60.6047 167.791 60.7456 167.834C60.8861 167.879 60.9683 168.028 60.9302 168.172ZM70.2895 171.977C70.3002 172.124 70.1909 172.251 70.0462 172.264C70.0462 172.264 70.0449 172.265 70.0445 172.264C69.8963 172.279 69.7643 172.173 69.748 172.025C69.7373 171.876 69.8479 171.745 69.9965 171.729C70.1434 171.721 70.2727 171.83 70.2895 171.977ZM69.7146 165.489C69.7309 165.636 69.623 165.768 69.4756 165.784C69.3287 165.8 69.1972 165.693 69.1809 165.545C69.1809 165.543 69.1805 165.541 69.1809 165.538C69.172 165.39 69.2812 165.259 69.4294 165.242C69.5754 165.23 69.7027 165.341 69.7155 165.486C69.7138 165.488 69.7138 165.488 69.7146 165.489ZM47.0221 171.387C46.9232 171.499 46.7519 171.512 46.6384 171.416C46.5266 171.32 46.512 171.152 46.6075 171.04C46.6958 170.925 46.8611 170.904 46.975 170.993C46.9785 170.995 46.9815 170.997 46.9844 171C47.1014 171.093 47.1211 171.263 47.0273 171.38C47.026 171.383 47.0243 171.385 47.0221 171.387ZM51.194 166.398C51.0951 166.51 50.9237 166.523 50.8102 166.426C50.6984 166.331 50.6839 166.163 50.7794 166.051C50.8676 165.936 51.0325 165.915 51.1469 166.004C51.1503 166.006 51.1533 166.007 51.1563 166.011C51.2732 166.104 51.2925 166.275 51.1991 166.391C51.1974 166.393 51.1957 166.395 51.194 166.398ZM58.1191 169.404C58.063 169.502 57.9392 169.536 57.8411 169.479C57.7465 169.425 57.7126 169.305 57.7627 169.208C57.8116 169.113 57.9285 169.075 58.024 169.123C58.03 169.126 58.0369 169.129 58.042 169.133C58.1371 169.189 58.1705 169.309 58.1191 169.404ZM60.5263 165.14C60.4702 165.238 60.3442 165.271 60.247 165.215C60.1498 165.158 60.1164 165.032 60.1725 164.935C60.2265 164.838 60.349 164.802 60.4453 164.856C60.4475 164.858 60.4492 164.859 60.4517 164.86C60.5477 164.918 60.5802 165.041 60.5263 165.14ZM68.4961 170.054C68.4806 170.164 68.3787 170.242 68.2691 170.228C68.1603 170.208 68.0857 170.11 68.0952 170C68.1089 169.89 68.2095 169.811 68.3204 169.825L68.3209 169.826C68.4288 169.836 68.5081 169.931 68.4982 170.038C68.4973 170.045 68.4969 170.05 68.4961 170.054ZM69.0966 165.179C69.0803 165.291 68.9792 165.371 68.8666 165.362C68.7561 165.348 68.6777 165.247 68.6918 165.137C68.6918 165.137 68.6922 165.136 68.6918 165.135C68.7017 165.027 68.7955 164.948 68.9034 164.957C68.9034 164.957 68.9081 164.958 68.9111 164.958C69.0229 164.968 69.1056 165.064 69.097 165.176C69.0974 165.176 69.097 165.177 69.0966 165.179Z" fill="white"/>
<path d="M252.727 313.139C267.629 313.139 279.71 301.064 279.71 286.169C279.71 271.275 267.629 259.2 252.727 259.2C237.825 259.2 225.744 271.275 225.744 286.169C225.744 301.064 237.825 313.139 252.727 313.139Z" fill="#428DFC"/>
<path d="M269.019 264.648C262.975 266.145 257.338 268.963 252.514 272.897C249.978 274.984 247.594 277.534 246.827 280.721C246.629 281.314 246.645 281.959 246.873 282.542C247.267 283.354 248.262 283.665 249.15 283.809C252.324 284.325 255.611 283.809 258.739 284.568C265.428 286.086 270.128 292.915 276.877 293.909C277.427 293.994 277.983 294.037 278.54 294.038C280.157 288.755 280.111 283.102 278.408 277.845C276.705 272.589 273.428 267.982 269.019 264.648Z" fill="#1D72D8"/>
<path d="M261.1 289.144C259.385 288.051 257.373 288.233 255.581 287.414C253.789 286.594 252.187 285.547 250.084 285.547C247.981 285.547 245.954 286.769 245.62 288.726C245.532 289.623 245.635 290.529 245.924 291.382C246.356 293.052 246.789 294.721 247.298 296.368C247.986 298.847 249.059 301.203 250.479 303.349C251.92 305.498 254.039 307.101 256.5 307.902C257.73 308.306 259.053 308.327 260.296 307.963C262.368 307.31 263.78 305.292 264.464 303.213C265.111 301.078 265.29 298.829 264.988 296.618C264.646 293.72 263.553 290.692 261.1 289.144Z" fill="#1D72D8"/>
<path d="M225.835 288.416C226.184 292.61 227.511 296.665 229.71 300.255C231.909 303.844 234.919 306.869 238.498 309.086C239.165 306.362 239.165 303.517 238.498 300.792C237.678 297.931 235.53 295.313 232.637 294.608C231.726 294.388 230.701 294.319 230.025 293.667C229.35 293.014 229.266 291.77 229.388 290.738C230.246 284.902 235.014 280.448 237.132 274.969C237.848 273.397 238.049 271.639 237.709 269.945C237.268 268.291 235.78 266.827 234.065 266.872H233.837C230.996 269.651 228.805 273.023 227.421 276.748C226.038 280.473 225.496 284.457 225.835 288.416Z" fill="#1D72D8"/>
<defs>
<linearGradient id="paint0_linear" x1="173.84" y1="36.129" x2="213.766" y2="36.129" gradientUnits="userSpaceOnUse">
<stop stop-color="#FBB03B"/>
<stop offset="1" stop-color="#FFCA28"/>
</linearGradient>
<linearGradient id="paint1_linear" x1="167.181" y1="27.2031" x2="208.501" y2="27.2031" gradientUnits="userSpaceOnUse">
<stop stop-color="#FBB03B"/>
<stop offset="1" stop-color="white"/>
</linearGradient>
<linearGradient id="paint2_linear" x1="182.153" y1="46.943" x2="218.112" y2="46.943" gradientUnits="userSpaceOnUse">
<stop stop-color="#FBB03B"/>
<stop offset="1" stop-color="white"/>
</linearGradient>
<linearGradient id="paint3_linear" x1="216.635" y1="43.7288" x2="178.459" y2="43.7288" gradientUnits="userSpaceOnUse">
<stop stop-color="#FBB03B"/>
<stop offset="1" stop-color="white"/>
</linearGradient>
<linearGradient id="paint4_linear" x1="176.287" y1="33.0134" x2="196.442" y2="33.0134" gradientUnits="userSpaceOnUse">
<stop stop-color="#FBB03B"/>
<stop offset="1" stop-color="white"/>
</linearGradient>
<linearGradient id="paint5_linear" x1="321.296" y1="297.087" x2="384.745" y2="297.087" gradientUnits="userSpaceOnUse">
<stop stop-color="#E94A47"/>
<stop offset="1" stop-color="#D62929"/>
</linearGradient>
<linearGradient id="paint6_linear" x1="342.77" y1="230.87" x2="291.837" y2="154.407" gradientUnits="userSpaceOnUse">
<stop stop-color="#23286B"/>
<stop offset="1" stop-color="#151A4F"/>
</linearGradient>
<linearGradient id="paint7_linear" x1="264.508" y1="125.164" x2="343.682" y2="125.164" gradientUnits="userSpaceOnUse">
<stop stop-color="#A1C3FC"/>
<stop offset="1" stop-color="#89B3F4"/>
</linearGradient>
<linearGradient id="paint8_linear" x1="244.413" y1="50.4972" x2="278.526" y2="50.4972" gradientUnits="userSpaceOnUse">
<stop stop-color="#E94A47"/>
<stop offset="1" stop-color="#D62929"/>
</linearGradient>
<linearGradient id="paint9_linear" x1="281.389" y1="107.089" x2="348.139" y2="107.089" gradientUnits="userSpaceOnUse">
<stop stop-color="#A1C3FC"/>
<stop offset="1" stop-color="#89B3F4"/>
</linearGradient>
<linearGradient id="paint10_linear" x1="320.087" y1="134.527" x2="320.087" y2="111.008" gradientUnits="userSpaceOnUse">
<stop stop-color="#A1C3FC"/>
<stop offset="1" stop-color="#89B3F4"/>
</linearGradient>
<linearGradient id="paint11_linear" x1="93.6413" y1="298.929" x2="39.4393" y2="310.468" gradientUnits="userSpaceOnUse">
<stop stop-color="#23286B"/>
<stop offset="1" stop-color="#151A4F"/>
</linearGradient>
<linearGradient id="paint12_linear" x1="79.3023" y1="211.585" x2="26.3309" y2="211.585" gradientUnits="userSpaceOnUse">
<stop stop-color="#E94A47"/>
<stop offset="1" stop-color="#D62929"/>
</linearGradient>
<linearGradient id="paint13_linear" x1="124.151" y1="75.0904" x2="207.572" y2="76.3713" gradientUnits="userSpaceOnUse">
<stop offset="0.0898" stop-color="white"/>
<stop offset="0.8178" stop-color="#EEEEEE"/>
</linearGradient>
<linearGradient id="paint14_linear" x1="145.349" y1="103.867" x2="129.413" y2="103.867" gradientUnits="userSpaceOnUse">
<stop stop-color="#FFBEB6"/>
<stop offset="1" stop-color="#F2A19C"/>
</linearGradient>
<linearGradient id="paint15_linear" x1="93.1494" y1="134.606" x2="115.851" y2="121.328" gradientUnits="userSpaceOnUse">
<stop stop-color="#A1C3FC"/>
<stop offset="1" stop-color="#89B3F4"/>
</linearGradient>
<linearGradient id="paint16_linear" x1="129.951" y1="72.7779" x2="119.243" y2="75.7761" gradientUnits="userSpaceOnUse">
<stop stop-color="#FFBEB6"/>
<stop offset="1" stop-color="#F2A19C"/>
</linearGradient>
<linearGradient id="paint17_linear" x1="128.197" y1="66.513" x2="117.489" y2="69.5112" gradientUnits="userSpaceOnUse">
<stop stop-color="#FFBEB6"/>
<stop offset="1" stop-color="#F2A19C"/>
</linearGradient>
<linearGradient id="paint18_linear" x1="131.928" y1="64.3288" x2="94.8833" y2="64.3288" gradientUnits="userSpaceOnUse">
<stop stop-color="#428DFC"/>
<stop offset="1" stop-color="#1D72D8"/>
</linearGradient>
<linearGradient id="paint19_linear" x1="145.721" y1="101.251" x2="236.555" y2="103.182" gradientUnits="userSpaceOnUse">
<stop offset="0.0898" stop-color="white"/>
<stop offset="0.8178" stop-color="#EEEEEE"/>
</linearGradient>
<linearGradient id="paint20_linear" x1="109.927" y1="163.291" x2="132.628" y2="150.013" gradientUnits="userSpaceOnUse">
<stop stop-color="#A1C3FC"/>
<stop offset="1" stop-color="#89B3F4"/>
</linearGradient>
<linearGradient id="paint21_linear" x1="116.231" y1="105.388" x2="14.7135" y2="105.388" gradientUnits="userSpaceOnUse">
<stop stop-color="#23286B"/>
<stop offset="1" stop-color="#151A4F"/>
</linearGradient>
</defs>
</svg>
