<svg width="40" height="41" viewBox="0 0 40 41" fill="none" xmlns="http://www.w3.org/2000/svg">
<path opacity="0.35" d="M30 35.5H10C7.23833 35.5 5 33.2617 5 30.5V10.5C5 7.73833 7.23833 5.5 10 5.5H30C32.7617 5.5 35 7.73833 35 10.5V30.5C35 33.2617 32.7617 35.5 30 35.5Z" fill="#005CE7"/>
<path d="M21.0349 35.5002V23.8985H17.1299V19.3568H21.0349V16.0152C21.0349 12.1418 23.4032 10.0302 26.8599 10.0302C28.0249 10.0268 29.1882 10.0868 30.3465 10.2052V14.2552H27.9666C26.0832 14.2552 25.7165 15.1452 25.7165 16.4585V19.3502H30.2165L29.6315 23.8918H25.6899V35.5002H21.0349Z" fill="#005CE7"/>
</svg>
