<svg width="40" height="40" viewBox="0 0 40 40" fill="none" xmlns="http://www.w3.org/2000/svg">
<g clip-path="url(#clip0)">
<path d="M23.3332 13.3333C27.0151 13.3333 29.9998 10.3486 29.9998 6.66667C29.9998 2.98477 27.0151 0 23.3332 0C19.6513 0 16.6665 2.98477 16.6665 6.66667C16.6665 10.3486 19.6513 13.3333 23.3332 13.3333Z" fill="#BBA909"/>
<path d="M11.6665 13.3333C14.4279 13.3333 16.6665 11.0947 16.6665 8.33331C16.6665 5.57189 14.4279 3.33331 11.6665 3.33331C8.90508 3.33331 6.6665 5.57189 6.6665 8.33331C6.6665 11.0947 8.90508 13.3333 11.6665 13.3333Z" fill="#BBA909"/>
<path opacity="0.35" d="M26.6667 36.6666H10C7.23833 36.6666 5 34.4283 5 31.6666V18.3333C5 15.5716 7.23833 13.3333 10 13.3333H26.6667C29.4283 13.3333 31.6667 15.5716 31.6667 18.3333V31.6666C31.6667 34.4283 29.4283 36.6666 26.6667 36.6666Z" fill="#BBA909"/>
<path d="M38.3332 26.6667H31.6665V20L35.8165 19.1717C37.0548 18.7583 38.3332 19.68 38.3332 20.985V26.6667Z" fill="#BBA909"/>
<path d="M38.3332 23.3333H31.6665V30L35.8165 30.8283C37.0548 31.2416 38.3332 30.32 38.3332 29.015V23.3333Z" fill="#BBA909"/>
</g>
<defs>
<clipPath id="clip0">
<rect width="40" height="40" fill="white"/>
</clipPath>
</defs>
</svg>
