<svg width="40" height="40" viewBox="0 0 40 40" fill="none" xmlns="http://www.w3.org/2000/svg">
<path opacity="0.35" d="M30 35H10C7.23833 35 5 32.7617 5 30V10C5 7.23833 7.23833 5 10 5H30C32.7617 5 35 7.23833 35 10V30C35 32.7617 32.7617 35 30 35Z" fill="#4E197A"/>
<path d="M18.6069 26.2517L18.2786 24.7934H14.9036L14.5752 26.2517C14.4069 27 13.7419 27.5317 12.9752 27.5317C11.9119 27.5317 11.1302 26.5367 11.3819 25.505L14.0386 14.57C14.3336 13.3534 15.4236 12.4984 16.6736 12.4984C17.9269 12.4984 19.0152 13.3567 19.3102 14.5734L21.9502 25.5067C22.2002 26.5384 21.4169 27.5317 20.3552 27.5317H20.2052C19.4402 27.5317 18.7752 27 18.6069 26.2517ZM16.6436 15.7684H16.5586L15.2852 22.1584H17.8536L16.6436 15.7684Z" fill="#4E197A"/>
<path d="M24.9565 25.8233V19.21C24.9565 18.265 25.7215 17.5 26.6665 17.5C27.6115 17.5 28.3765 18.265 28.3765 19.21V25.8233C28.3765 26.7683 27.6115 27.5333 26.6665 27.5333C25.7215 27.5317 24.9565 26.7667 24.9565 25.8233Z" fill="#4E197A"/>
<path d="M26.6667 15.8017C27.5871 15.8017 28.3333 15.0555 28.3333 14.135C28.3333 13.2145 27.5871 12.4683 26.6667 12.4683C25.7462 12.4683 25 13.2145 25 14.135C25 15.0555 25.7462 15.8017 26.6667 15.8017Z" fill="#4E197A"/>
</svg>
