<svg width="194" height="176" viewBox="0 0 194 176" fill="none" xmlns="http://www.w3.org/2000/svg">
<path d="M132.921 137.304C133.038 137.233 133.176 137.206 133.311 137.226H133.467L164.011 144.195L170.634 115.159L134.791 107.028L127.155 140.323L132.921 137.304Z" fill="#F2E56A"/>
<path d="M172.426 114.074C172.295 113.887 172.102 113.75 171.881 113.687L134.48 105.17C134.372 105.143 134.26 105.138 134.151 105.154C134.041 105.171 133.936 105.209 133.842 105.267C133.747 105.325 133.665 105.401 133.601 105.491C133.536 105.58 133.491 105.682 133.467 105.789L125.207 141.64C125.181 141.796 125.196 141.957 125.25 142.106C125.305 142.256 125.398 142.388 125.519 142.491C125.648 142.598 125.807 142.663 125.974 142.677C126.141 142.691 126.309 142.653 126.454 142.569L133.467 138.852L164.556 145.898H164.712C164.895 145.906 165.075 145.848 165.218 145.734C165.362 145.62 165.459 145.458 165.491 145.279L172.504 114.617C172.548 114.529 172.565 114.43 172.551 114.333C172.537 114.236 172.493 114.146 172.426 114.074ZM168.686 124.14L128.48 135.29L134.947 107.028L170.79 115.159L168.686 124.14Z" fill="#1A1A1A"/>
<path d="M125.987 147.524C125.942 147.421 125.864 147.335 125.766 147.279C125.668 147.223 125.553 147.201 125.441 147.215C125.331 147.217 125.224 147.246 125.129 147.3C125.033 147.355 124.953 147.432 124.896 147.524C124.506 148.299 121 155.113 122.87 157.9C123.172 158.31 123.573 158.638 124.036 158.854C124.499 159.071 125.008 159.169 125.519 159.139H125.753C126.275 159.147 126.79 159.015 127.243 158.756C127.695 158.497 128.069 158.121 128.324 157.668C129.96 154.803 126.376 148.299 125.987 147.524Z" fill="#1A1A1A"/>
<path d="M135.061 35.8718H93.6875V76.9731H135.061V35.8718Z" fill="#4D4D4D"/>
<path d="M93.452 35.8718H52.0789V76.9731H93.452V35.8718Z" fill="#333333"/>
<path d="M51.8433 117.84H10.4702V158.942H51.8433V117.84Z" fill="#CCCCCC"/>
<path d="M176.669 35.8718H135.296V76.9731H176.669V35.8718Z" fill="#666666"/>
<path d="M176.669 35.9498H10.4702V20.5856C10.4682 19.7349 10.6353 18.8922 10.962 18.1059C11.2888 17.3196 11.7686 16.6052 12.3741 16.0037C12.9796 15.4022 13.6988 14.9255 14.4903 14.6009C15.2818 14.2763 16.13 14.1103 16.9863 14.1123H170.153C171.009 14.1103 171.858 14.2763 172.649 14.6009C173.441 14.9255 174.16 15.4022 174.765 16.0037C175.371 16.6052 175.851 17.3196 176.177 18.1059C176.504 18.8922 176.671 19.7349 176.669 20.5856V35.9498Z" fill="#F2E56A"/>
<path d="M51.8433 76.8171H10.4702V117.918H51.8433V76.8171Z" fill="#808080"/>
<path d="M93.452 76.8171H52.0789V117.918H93.452V76.8171Z" fill="#999999"/>
<path d="M177.376 20.5856C177.378 19.6326 177.19 18.6886 176.824 17.8077C176.457 16.9269 175.92 16.1266 175.241 15.4527C174.563 14.7788 173.757 14.2446 172.871 13.8808C171.984 13.5169 171.034 13.3306 170.075 13.3324H16.9862C16.0269 13.3306 15.0766 13.5169 14.19 13.8808C13.3033 14.2446 12.4977 14.7788 11.8194 15.4527C11.141 16.1266 10.6033 16.9269 10.237 17.8077C9.87079 18.6886 9.68321 19.6326 9.68507 20.5856V158.864C9.68507 159.071 9.76778 159.269 9.91501 159.415C10.0622 159.561 10.2619 159.644 10.4701 159.644H51.8432C52.0515 159.644 52.2511 159.561 52.3984 159.415C52.5456 159.269 52.6283 159.071 52.6283 158.864V118.62H93.4519C93.6601 118.62 93.8598 118.538 94.007 118.392C94.1542 118.246 94.2369 118.047 94.2369 117.84V77.675H176.591C176.799 77.675 176.999 77.5928 177.146 77.4466C177.293 77.3003 177.376 77.1019 177.376 76.8951V20.5856ZM16.9862 14.8142H170.153C171.67 14.8226 173.123 15.4252 174.196 16.4911C175.269 17.557 175.876 19.0002 175.884 20.5076V35.0139H93.6874C93.5767 35.0022 93.4655 35.0299 93.3734 35.0919H52.2358C52.1437 35.0299 52.0324 35.0022 51.9218 35.0139H11.2552V20.5076C11.2637 19.0002 11.8702 17.557 12.9431 16.4911C14.0161 15.4252 15.4689 14.8226 16.9862 14.8142ZM51.1367 158.162H11.2552V118.698H51.1367V158.162ZM51.1367 117.06H11.2552V77.675H51.1367V117.06ZM92.6668 117.216H52.7853V77.597H92.6668V117.216ZM52.6283 76.0372V36.6517H92.9023V76.0372H52.6283ZM94.4725 76.1932V36.7297H134.354V76.2712L94.4725 76.1932ZM136.003 76.1932V36.7297H175.884V76.2712L136.003 76.1932Z" fill="#1A1A1A"/>
<path d="M17.4572 30.4124C17.2252 30.4187 16.9999 30.3347 16.8292 30.1784C16.6774 30.0056 16.5938 29.7839 16.5938 29.5545C16.5938 29.3251 16.6774 29.1035 16.8292 28.9306L26.1715 19.6497C26.3455 19.4989 26.5686 19.4158 26.7996 19.4158C27.0305 19.4158 27.2536 19.4989 27.4276 19.6497C27.5794 19.8225 27.663 20.0442 27.663 20.2736C27.663 20.503 27.5794 20.7246 27.4276 20.8975L18.0853 30.1784C17.9146 30.3347 17.6893 30.4187 17.4572 30.4124Z" fill="#1A1A1A"/>
<path d="M26.7996 30.4124C26.5675 30.4187 26.3422 30.3347 26.1715 30.1784L16.8292 20.8975C16.6774 20.7246 16.5938 20.503 16.5938 20.2736C16.5938 20.0442 16.6774 19.8225 16.8292 19.6497C17.0032 19.4989 17.2263 19.4158 17.4572 19.4158C17.6882 19.4158 17.9113 19.4989 18.0853 19.6497L27.4276 28.9306C27.5794 29.1035 27.663 29.3251 27.663 29.5545C27.663 29.7839 27.5794 30.0056 27.4276 30.1784C27.2569 30.3347 27.0316 30.4187 26.7996 30.4124Z" fill="#1A1A1A"/>
<path d="M163.637 29.7106L157.749 25.2651L163.637 20.8196V29.7106Z" fill="#1A1A1A"/>
<path d="M169.839 29.7106L163.951 25.2651L169.839 20.8196V29.7106Z" fill="#1A1A1A"/>
</svg>
