<svg width="1439" height="591" viewBox="0 0 1439 591" fill="none" xmlns="http://www.w3.org/2000/svg">
<mask id="mask0" mask-type="alpha" maskUnits="userSpaceOnUse" x="-1" y="0" width="1440" height="591">
<rect x="-1" width="1440" height="591" fill="#ECFBF8"/>
</mask>
<g mask="url(#mask0)">
<path d="M667.685 361.726C665.759 202.524 807.405 -52.6665 984.942 -56.8378C1162.47 -61.0062 1308.66 187.412 1310.59 346.621C1312.52 505.83 1170.15 638.267 992.627 642.443C815.1 646.618 669.612 520.928 667.685 361.726Z" fill="#FCF8D0"/>
</g>
<path d="M1074.94 198.486L1126.22 433.062H1133.83L1082.17 196.075L1074.94 198.486Z" fill="#F2E56A"/>
<path d="M1133.83 433.503H1126.22C1126.12 433.503 1126.02 433.469 1125.94 433.406C1125.86 433.343 1125.81 433.255 1125.79 433.157L1074.51 198.582C1074.49 198.475 1074.51 198.364 1074.56 198.269C1074.61 198.174 1074.7 198.103 1074.8 198.068L1082.03 195.658C1082.09 195.638 1082.15 195.631 1082.21 195.637C1082.27 195.643 1082.33 195.662 1082.38 195.693C1082.44 195.723 1082.48 195.765 1082.52 195.814C1082.56 195.864 1082.58 195.921 1082.6 195.981L1134.26 432.968C1134.27 433.032 1134.27 433.099 1134.26 433.163C1134.24 433.227 1134.21 433.287 1134.17 433.339C1134.13 433.39 1134.08 433.431 1134.02 433.46C1133.96 433.488 1133.89 433.503 1133.83 433.503ZM1126.57 432.62H1133.28L1081.84 196.649L1075.46 198.779L1126.57 432.62Z" fill="#1A1A1A"/>
<path d="M1133.83 433.062H1138.22L1085 196.495L1082.21 196.066L1133.83 433.062Z" fill="#F2E56A"/>
<path d="M1138.22 433.503H1133.83C1133.73 433.503 1133.63 433.469 1133.55 433.406C1133.47 433.342 1133.42 433.254 1133.4 433.156L1081.79 196.161C1081.77 196.091 1081.77 196.018 1081.79 195.949C1081.81 195.88 1081.85 195.817 1081.9 195.765C1081.94 195.713 1082.01 195.673 1082.07 195.65C1082.14 195.627 1082.21 195.62 1082.28 195.631L1085.07 196.06C1085.16 196.073 1085.24 196.113 1085.3 196.173C1085.37 196.234 1085.41 196.312 1085.43 196.399L1138.65 432.965C1138.66 433.03 1138.66 433.097 1138.65 433.162C1138.63 433.226 1138.6 433.286 1138.56 433.338C1138.52 433.39 1138.47 433.431 1138.41 433.46C1138.35 433.488 1138.29 433.503 1138.22 433.503ZM1134.18 432.62H1137.67L1084.64 196.886L1082.78 196.6L1134.18 432.62Z" fill="#1A1A1A"/>
<path d="M1091.04 155.222L1051.56 433.062H1062.69L1098.27 152.811L1091.04 155.222Z" fill="#F2E56A"/>
<path d="M1062.69 433.503H1051.56C1051.5 433.503 1051.44 433.489 1051.38 433.463C1051.32 433.437 1051.27 433.399 1051.23 433.351C1051.19 433.303 1051.16 433.247 1051.14 433.186C1051.12 433.126 1051.12 433.062 1051.13 432.999L1090.61 155.159C1090.62 155.078 1090.65 155.001 1090.71 154.939C1090.76 154.876 1090.83 154.829 1090.91 154.803L1098.13 152.392C1098.2 152.368 1098.28 152.363 1098.35 152.377C1098.42 152.391 1098.49 152.423 1098.55 152.47C1098.6 152.518 1098.65 152.579 1098.68 152.648C1098.7 152.718 1098.71 152.793 1098.7 152.867L1063.12 433.117C1063.11 433.224 1063.06 433.322 1062.98 433.393C1062.9 433.464 1062.8 433.503 1062.69 433.503ZM1052.07 432.62H1062.3L1097.74 153.451L1091.44 155.555L1052.07 432.62Z" fill="#1A1A1A"/>
<path d="M1062.69 433.062H1067.08L1101.1 153.231L1098.32 152.802L1062.69 433.062Z" fill="#F2E56A"/>
<path d="M1067.08 433.503H1062.69C1062.63 433.503 1062.56 433.49 1062.51 433.464C1062.45 433.438 1062.4 433.4 1062.36 433.353C1062.32 433.306 1062.29 433.251 1062.27 433.191C1062.25 433.131 1062.25 433.068 1062.25 433.006L1097.88 152.746C1097.89 152.688 1097.91 152.632 1097.94 152.581C1097.97 152.53 1098.01 152.485 1098.05 152.45C1098.1 152.414 1098.15 152.389 1098.21 152.374C1098.27 152.36 1098.32 152.357 1098.38 152.366L1101.17 152.795C1101.28 152.812 1101.39 152.873 1101.45 152.964C1101.52 153.056 1101.55 153.171 1101.54 153.285L1067.52 433.115C1067.5 433.222 1067.45 433.321 1067.37 433.392C1067.29 433.464 1067.19 433.503 1067.08 433.503ZM1063.19 432.62H1066.69L1100.62 153.603L1098.69 153.308L1063.19 432.62Z" fill="#1A1A1A"/>
<path d="M1014.93 155.222L960.81 433.062H971.935L1022.15 152.811L1014.93 155.222Z" fill="#F2E56A"/>
<path d="M971.935 433.503H960.81C960.745 433.503 960.681 433.489 960.623 433.461C960.564 433.433 960.512 433.392 960.471 433.342C960.43 433.292 960.4 433.233 960.384 433.17C960.368 433.107 960.367 433.041 960.379 432.977L1014.5 155.137C1014.51 155.06 1014.55 154.989 1014.6 154.93C1014.65 154.871 1014.72 154.827 1014.79 154.803L1022.01 152.392C1022.09 152.368 1022.16 152.363 1022.24 152.378C1022.31 152.393 1022.38 152.427 1022.44 152.478C1022.5 152.528 1022.54 152.592 1022.57 152.664C1022.59 152.736 1022.6 152.814 1022.58 152.889L972.367 433.14C972.348 433.242 972.295 433.334 972.216 433.4C972.137 433.467 972.038 433.503 971.935 433.503ZM961.343 432.62H971.568L1021.59 153.464L1015.31 155.559L961.343 432.62Z" fill="#1A1A1A"/>
<path d="M971.935 433.062H976.326L1024.99 153.231L1022.2 152.802L971.935 433.062Z" fill="#F2E56A"/>
<path d="M976.326 433.503H971.935C971.87 433.503 971.807 433.489 971.749 433.462C971.691 433.434 971.639 433.394 971.598 433.345C971.557 433.295 971.527 433.237 971.51 433.175C971.494 433.112 971.491 433.047 971.503 432.983L1021.77 152.724C1021.79 152.611 1021.85 152.51 1021.95 152.443C1022.04 152.376 1022.15 152.349 1022.27 152.366L1025.05 152.795C1025.11 152.803 1025.17 152.824 1025.22 152.855C1025.27 152.885 1025.31 152.926 1025.34 152.973C1025.38 153.021 1025.4 153.075 1025.42 153.133C1025.43 153.19 1025.43 153.249 1025.42 153.307L976.759 433.138C976.741 433.24 976.688 433.333 976.609 433.4C976.529 433.467 976.429 433.503 976.326 433.503ZM972.462 432.62H975.957L1024.48 153.599L1022.56 153.305L972.462 432.62Z" fill="#1A1A1A"/>
<path d="M1083.62 313.423L1077.77 309.597L1112.9 144.046L1118.31 149.343L1083.62 313.423Z" fill="white"/>
<path d="M1083.62 313.865C1083.54 313.865 1083.45 313.84 1083.38 313.793L1077.53 309.967C1077.45 309.919 1077.39 309.848 1077.36 309.766C1077.33 309.683 1077.32 309.592 1077.34 309.505L1112.47 143.953C1112.48 143.876 1112.52 143.805 1112.57 143.747C1112.63 143.689 1112.69 143.646 1112.77 143.623C1112.84 143.6 1112.92 143.598 1113 143.617C1113.08 143.635 1113.15 143.674 1113.2 143.729L1118.62 149.027C1118.67 149.079 1118.71 149.144 1118.73 149.215C1118.75 149.286 1118.76 149.362 1118.74 149.435L1084.05 313.515C1084.03 313.614 1083.98 313.703 1083.9 313.766C1083.82 313.83 1083.72 313.865 1083.62 313.865ZM1078.26 309.391L1083.32 312.702L1117.83 149.49L1113.16 144.919L1078.26 309.391Z" fill="#1A1A1A"/>
<path d="M972.666 309.597L978.521 312.835L1083.47 313.57L1077.62 309.744L972.52 309.45" fill="white"/>
<path d="M1083.47 314.012H1083.47L978.519 313.276C978.446 313.275 978.374 313.257 978.31 313.222L972.455 309.984C972.388 309.947 972.331 309.893 972.291 309.827C972.21 309.777 972.146 309.701 972.111 309.612C972.076 309.522 972.071 309.423 972.097 309.331C972.123 309.238 972.178 309.156 972.255 309.098C972.331 309.04 972.424 309.008 972.52 309.008L1077.62 309.303C1077.7 309.303 1077.79 309.328 1077.86 309.374L1083.71 313.2C1083.79 313.252 1083.85 313.328 1083.88 313.417C1083.92 313.506 1083.92 313.604 1083.89 313.695C1083.87 313.786 1083.81 313.866 1083.74 313.923C1083.66 313.981 1083.57 314.011 1083.47 314.012ZM978.636 312.393L1081.98 313.118L1077.49 310.186L974.118 309.896L978.636 312.393Z" fill="#1A1A1A"/>
<path d="M1077.91 309.744L972.667 309.597L1007.8 144.046H1113.04L1077.91 309.744Z" fill="white"/>
<path d="M1077.91 310.186L972.667 310.038C972.601 310.038 972.537 310.024 972.478 309.995C972.419 309.967 972.367 309.926 972.326 309.874C972.284 309.823 972.255 309.764 972.24 309.7C972.225 309.636 972.224 309.569 972.238 309.505L1007.37 143.953C1007.39 143.855 1007.44 143.766 1007.52 143.702C1007.6 143.639 1007.7 143.604 1007.8 143.604H1113.04C1113.11 143.604 1113.17 143.619 1113.23 143.647C1113.29 143.675 1113.34 143.717 1113.38 143.768C1113.43 143.819 1113.45 143.879 1113.47 143.943C1113.48 144.007 1113.49 144.073 1113.47 144.138L1078.34 309.836C1078.32 309.935 1078.27 310.024 1078.19 310.087C1078.11 310.151 1078.01 310.186 1077.91 310.186ZM973.209 309.156L1077.56 309.303L1112.5 144.487H1008.15L973.209 309.156Z" fill="#1A1A1A"/>
<path d="M1051.86 313.276H990.964L993.891 302.681H1054.78L1051.86 313.276Z" fill="#F2E56A"/>
<path d="M1051.86 313.717H990.964C990.896 313.717 990.829 313.702 990.769 313.671C990.708 313.641 990.655 313.597 990.615 313.543C990.574 313.489 990.546 313.426 990.533 313.359C990.52 313.293 990.523 313.224 990.541 313.158L993.468 302.563C993.494 302.47 993.549 302.388 993.626 302.329C993.702 302.271 993.795 302.239 993.891 302.239H1054.78C1054.85 302.239 1054.92 302.255 1054.98 302.285C1055.04 302.315 1055.09 302.359 1055.13 302.413C1055.17 302.468 1055.2 302.531 1055.22 302.597C1055.23 302.664 1055.23 302.733 1055.21 302.798L1052.28 313.394C1052.25 313.487 1052.2 313.569 1052.12 313.627C1052.05 313.686 1051.95 313.717 1051.86 313.717ZM991.542 312.835H1051.52L1054.21 303.122H994.225L991.542 312.835Z" fill="#1A1A1A"/>
<path d="M990.964 313.276L995.94 316.513H1056.83L1059.76 305.918L1054.78 302.681L1051.86 313.276H990.964Z" fill="#F2E56A"/>
<path d="M1056.83 316.955H995.94C995.856 316.955 995.773 316.93 995.702 316.884L990.725 313.647C990.645 313.595 990.585 313.519 990.552 313.429C990.519 313.34 990.515 313.242 990.542 313.151C990.569 313.059 990.625 312.979 990.701 312.922C990.777 312.865 990.869 312.834 990.964 312.834H1051.52L1054.36 302.563C1054.38 302.496 1054.41 302.435 1054.46 302.384C1054.51 302.332 1054.56 302.293 1054.63 302.268C1054.69 302.244 1054.76 302.235 1054.83 302.242C1054.9 302.249 1054.96 302.273 1055.02 302.31L1060 305.548C1060.08 305.599 1060.14 305.674 1060.17 305.762C1060.2 305.85 1060.21 305.946 1060.18 306.037L1057.26 316.632C1057.23 316.725 1057.18 316.807 1057.1 316.865C1057.02 316.923 1056.93 316.955 1056.83 316.955ZM996.07 316.072H1056.5L1059.25 306.113L1055.05 303.378L1052.28 313.394C1052.25 313.487 1052.2 313.569 1052.12 313.627C1052.05 313.686 1051.95 313.717 1051.86 313.717H992.451L996.07 316.072Z" fill="#1A1A1A"/>
<path d="M1052.1 312.905L1051.62 313.646L1056.59 316.883L1057.07 316.142L1052.1 312.905Z" fill="#1A1A1A"/>
<path d="M1067.08 143.751H1041.32L1044.25 133.156H1070.01L1067.08 143.751Z" fill="#F2E56A"/>
<path d="M1067.08 144.193H1041.32C1041.25 144.193 1041.18 144.177 1041.12 144.147C1041.06 144.117 1041.01 144.073 1040.97 144.018C1040.93 143.964 1040.9 143.901 1040.89 143.835C1040.87 143.768 1040.88 143.699 1040.89 143.634L1043.82 133.038C1043.85 132.945 1043.9 132.863 1043.98 132.805C1044.06 132.746 1044.15 132.715 1044.25 132.714H1070.01C1070.08 132.715 1070.14 132.73 1070.2 132.76C1070.26 132.791 1070.32 132.835 1070.36 132.889C1070.4 132.943 1070.43 133.006 1070.44 133.073C1070.45 133.139 1070.45 133.208 1070.43 133.274L1067.5 143.869C1067.48 143.962 1067.42 144.044 1067.35 144.103C1067.27 144.161 1067.18 144.193 1067.08 144.193ZM1041.9 143.31H1066.75L1069.43 133.597H1044.58L1041.9 143.31Z" fill="#1A1A1A"/>
<path d="M1041.32 143.751L1046.29 146.989H1072.06L1074.98 136.393L1070.01 133.156L1067.08 143.751H1041.32Z" fill="#F2E56A"/>
<path d="M1072.06 147.43H1046.29C1046.21 147.43 1046.13 147.406 1046.06 147.359L1041.08 144.122C1041 144.07 1040.94 143.994 1040.91 143.905C1040.87 143.815 1040.87 143.718 1040.9 143.626C1040.92 143.535 1040.98 143.455 1041.05 143.397C1041.13 143.34 1041.22 143.31 1041.32 143.31H1066.75L1069.58 133.038C1069.6 132.971 1069.64 132.91 1069.68 132.859C1069.73 132.808 1069.79 132.768 1069.85 132.744C1069.92 132.719 1069.99 132.71 1070.05 132.717C1070.12 132.725 1070.19 132.748 1070.25 132.786L1075.22 136.023C1075.3 136.074 1075.36 136.149 1075.39 136.237C1075.43 136.325 1075.43 136.421 1075.41 136.512L1072.48 147.107C1072.45 147.2 1072.4 147.282 1072.32 147.34C1072.25 147.399 1072.15 147.43 1072.06 147.43ZM1046.42 146.547H1071.72L1074.48 136.588L1070.27 133.853L1067.5 143.869C1067.48 143.962 1067.42 144.044 1067.35 144.102C1067.27 144.161 1067.18 144.193 1067.08 144.193H1042.8L1046.42 146.547Z" fill="#1A1A1A"/>
<path d="M1067.32 143.38L1066.84 144.122L1071.82 147.359L1072.3 146.618L1067.32 143.38Z" fill="#1A1A1A"/>
<path d="M1057.42 392.446H979.254L981.01 381.851H1058.88L1057.42 392.446Z" fill="#F2E56A"/>
<path d="M1057.42 392.888H979.254C979.19 392.888 979.127 392.874 979.069 392.847C979.011 392.82 978.96 392.781 978.919 392.732C978.877 392.683 978.847 392.625 978.83 392.564C978.814 392.502 978.81 392.437 978.821 392.374L980.577 381.778C980.594 381.675 980.647 381.582 980.727 381.514C980.806 381.447 980.906 381.41 981.01 381.41H1058.88C1058.95 381.41 1059.01 381.423 1059.06 381.449C1059.12 381.475 1059.17 381.514 1059.21 381.561C1059.26 381.609 1059.29 381.665 1059.3 381.725C1059.32 381.786 1059.33 381.849 1059.32 381.912L1057.85 392.507C1057.84 392.613 1057.79 392.709 1057.71 392.779C1057.63 392.849 1057.53 392.888 1057.42 392.888ZM979.772 392.005H1057.04L1058.38 382.293H981.382L979.772 392.005Z" fill="#1A1A1A"/>
<path d="M943.201 280.288C923.438 278.118 898.117 281.218 891.015 284.319C895.338 310.983 895.801 344.313 894.257 363.846C892.713 383.38 885.302 424.926 885.302 424.926L908.462 431.437C908.462 431.437 914.02 405.393 918.343 391.751C919.239 388.929 926.177 366.011 926.177 366.011V366.014C926.217 366.355 928.66 387.41 930.071 405.682C930.763 414.602 931.204 422.861 931.004 427.717C936.253 427.407 951.075 425.546 959.412 426.477C959.412 419.655 948.759 312.533 943.201 280.288Z" fill="#F2E56A"/>
<path d="M911.539 284.629C913.071 304.007 893.327 304.345 893.327 304.345C893.64 300.596 900.433 299.976 903.83 297.186C907.227 294.395 908.925 289.589 908.925 287.109C908.925 284.629 911.539 284.629 911.539 284.629Z" fill="white"/>
<path d="M882.91 214.168C882.91 214.168 891.169 199.83 902.903 196.729C914.638 193.629 919.723 203.387 924.128 207.499C928.533 211.612 934.4 221.843 938.487 246.337C942.686 271.513 943.287 279.773 943.287 279.773C943.287 279.773 922.755 279.549 915.3 280.151C907.844 280.753 900.124 281.063 890.86 284.474C889.934 277.342 882.91 214.168 882.91 214.168Z" fill="white"/>
<path d="M954.59 376.568C954.59 376.568 950.612 414.23 951.538 426.011C955.244 426.322 959.244 426.459 959.244 426.459L954.59 376.568Z" fill="white"/>
<path d="M901.787 429.561C901.787 429.561 907.108 409.214 918.516 390.793C914.156 406.351 908.307 431.282 908.307 431.282L901.787 429.561Z" fill="white"/>
<path d="M977.631 448.18C973.308 446.01 953.237 442.909 952.31 434.538C951.384 426.167 951.384 426.477 951.384 426.477L936.871 427.407C936.871 427.407 938.106 444.77 937.797 450.04C937.488 455.311 948.914 453.761 955.089 453.761C961.265 453.761 972.382 454.381 976.087 454.071C979.793 453.761 981.954 450.35 977.631 448.18Z" fill="#F2E56A"/>
<path d="M916.49 447.25C908.771 444.459 897.654 444.459 897.654 437.948C897.654 431.437 899.714 428.978 899.714 428.978L886.538 425.546C886.538 425.546 882.832 443.523 882.832 451.281C882.832 456.241 886.846 454.691 892.096 454.691C897.345 454.691 916.645 455.466 921.74 455.001C924.064 454.789 924.21 450.04 916.49 447.25Z" fill="#F2E56A"/>
<path d="M916.49 447.25C908.771 444.459 897.654 444.614 897.654 438.103C889.78 437.018 884.53 437.793 884.53 437.793C883.381 442.195 882.81 446.73 882.832 451.281C882.832 456.241 886.846 454.691 892.096 454.691C897.345 454.691 916.645 455.466 921.74 455.001C924.064 454.789 924.21 450.04 916.49 447.25Z" fill="#1A1A1A"/>
<path d="M916.281 455.616C911.774 455.616 905.759 455.461 900.575 455.33C896.928 455.237 893.779 455.156 892.095 455.156C891.025 455.156 890.022 455.221 889.052 455.283C886.567 455.443 884.603 455.568 883.412 454.446C882.709 453.784 882.368 452.748 882.368 451.28C882.353 446.685 882.93 442.107 884.086 437.66C884.111 437.575 884.16 437.499 884.227 437.441C884.293 437.383 884.375 437.346 884.462 437.333C884.679 437.302 889.868 436.561 897.716 437.643C897.828 437.658 897.929 437.713 898.003 437.797C898.077 437.882 898.118 437.991 898.118 438.103C898.118 442.365 903.607 443.591 909.418 444.887C911.865 445.433 914.396 445.998 916.648 446.812C921.801 448.675 923.842 451.587 923.58 453.646C923.542 454.113 923.341 454.552 923.012 454.885C922.683 455.218 922.247 455.423 921.782 455.464C920.585 455.573 918.64 455.616 916.281 455.616ZM892.095 454.226C893.79 454.226 896.945 454.307 900.599 454.4C908.056 454.59 918.268 454.851 921.697 454.538C921.952 454.515 922.191 454.4 922.368 454.214C922.545 454.029 922.648 453.784 922.659 453.527C922.869 451.892 920.977 449.366 916.333 447.687C914.136 446.893 911.634 446.335 909.216 445.796C903.203 444.454 897.515 443.185 897.204 438.513C890.735 437.663 886.081 438.082 884.894 438.218C883.826 442.489 883.289 446.877 883.295 451.281C883.295 452.479 883.542 453.292 884.046 453.769C884.944 454.615 886.732 454.501 888.993 454.355C889.932 454.294 890.996 454.226 892.096 454.226H892.095Z" fill="#1A1A1A"/>
<path d="M908.462 431.902C908.419 431.902 908.377 431.897 908.337 431.885L885.177 425.374C885.066 425.343 884.971 425.271 884.909 425.173C884.848 425.075 884.825 424.958 884.846 424.844C884.92 424.429 892.27 383.096 893.795 363.809C895.473 342.583 894.422 305.455 889.168 275.563L890.081 275.401C895.348 305.371 896.401 342.598 894.718 363.883C893.273 382.171 886.61 420.188 885.831 424.591L908.112 430.854C908.897 427.221 913.944 404.094 917.901 391.608C918.136 390.865 918.393 390.06 918.668 389.197C923.543 373.89 933.686 342.04 932.702 325.736C932.18 317.084 932.431 306.9 934.858 306.677C936.378 306.54 937.637 310.312 938.563 317.901C940.474 333.525 939.108 343.314 937.624 348.774C937.421 349.524 937.169 350.3 936.926 351.049C936.056 353.736 935.155 356.514 936.068 359.035C937.271 362.354 936.262 364.813 935.595 366.44C935.543 366.568 935.493 366.69 935.446 366.808C935.203 367.416 935.237 368.586 935.274 369.826C935.32 371.446 935.374 373.282 934.824 374.57C934.647 374.984 934.453 375.376 934.249 375.791C933.408 377.498 932.455 379.433 932.699 383.349C932.986 387.97 932.761 401.022 930.495 405.898L929.655 405.505C931.679 401.152 932.11 388.805 931.774 383.407C931.515 379.243 932.527 377.19 933.419 375.378C933.618 374.975 933.806 374.595 933.972 374.203C934.441 373.104 934.391 371.377 934.348 369.853C934.307 368.458 934.272 367.249 934.586 366.463C934.633 366.343 934.685 366.217 934.74 366.086C935.353 364.592 936.279 362.335 935.199 359.353C934.177 356.532 935.128 353.598 936.047 350.762C936.298 349.987 936.534 349.258 936.732 348.53C938.193 343.149 939.538 333.487 937.645 318.013C936.583 309.332 935.262 307.603 934.95 307.603H934.942C934.329 307.659 932.814 312.219 933.627 325.679C934.621 342.157 924.442 374.119 919.55 389.479C919.275 390.342 919.019 391.147 918.784 391.889C914.517 405.353 908.969 431.271 908.914 431.532C908.892 431.636 908.835 431.729 908.752 431.796C908.67 431.863 908.567 431.899 908.461 431.899L908.462 431.902Z" fill="#1A1A1A"/>
<path d="M968.368 231.765C956.325 228.044 941.811 234.245 937.841 242.471L944.332 286.927C948.493 288.556 953.194 289.142 956.325 285.714C963.118 278.273 969.294 279.203 974.235 280.753C979.175 282.303 980.014 276.633 985.042 263.08C990.909 247.268 980.411 235.486 968.368 231.765Z" fill="#F2E56A"/>
<path d="M915.002 456.063C910.556 456.063 904.82 455.756 899.791 455.487C896.472 455.309 893.606 455.156 892.096 455.156C891.025 455.156 890.022 455.221 889.052 455.283C886.567 455.443 884.604 455.568 883.412 454.446C882.71 453.784 882.369 452.748 882.369 451.28C882.369 443.564 885.932 426.187 886.084 425.453L886.991 425.641C886.954 425.821 883.295 443.661 883.295 451.283C883.295 452.48 883.542 453.293 884.046 453.77C884.945 454.616 886.733 454.502 888.993 454.356C889.932 454.296 890.996 454.228 892.096 454.228C893.63 454.228 896.508 454.383 899.84 454.56C907.553 454.973 919.208 455.596 921.556 454.576C922.477 454.176 923.569 453.508 923.541 452.6C923.496 451.14 920.801 449.304 916.333 447.689C914.046 446.924 911.717 446.293 909.357 445.798C903.1 444.355 897.19 442.992 897.19 437.95C897.19 431.346 899.27 428.786 899.359 428.68L900.069 429.278C900.051 429.3 898.118 431.73 898.118 437.949C898.118 442.25 903.678 443.533 909.565 444.891C911.961 445.393 914.326 446.035 916.647 446.813C920.173 448.087 924.391 450.12 924.468 452.569C924.492 453.359 924.071 454.496 921.924 455.429C920.844 455.897 918.272 456.063 915.002 456.063Z" fill="#1A1A1A"/>
<path d="M897.618 438.815C889.745 437.994 884.369 438.459 884.315 438.464L884.232 437.537C884.287 437.533 889.744 437.058 897.713 437.89L897.618 438.815Z" fill="#1A1A1A"/>
<path d="M931.004 428.182C930.941 428.182 930.879 428.169 930.822 428.145C930.764 428.12 930.712 428.084 930.669 428.039C930.626 427.994 930.592 427.94 930.57 427.881C930.548 427.823 930.538 427.76 930.54 427.697C931.149 413.022 925.77 366.532 925.716 366.064L926.636 365.956C926.69 366.419 931.956 411.931 931.484 427.22C932.688 427.137 934.289 426.992 936.108 426.828C942.676 426.236 952.511 425.35 958.936 425.96C958.551 415.898 949.142 317.5 943.516 284.863C942.243 277.48 941.276 270.08 940.34 262.924C937.25 239.298 934.332 216.98 921.123 205.138L921.74 204.444C935.207 216.516 938.147 239 941.26 262.803C942.194 269.95 943.16 277.34 944.43 284.704C950.179 318.058 959.876 420.062 959.876 426.477C959.876 426.542 959.863 426.607 959.836 426.666C959.809 426.726 959.771 426.78 959.722 426.823C959.673 426.866 959.616 426.899 959.554 426.919C959.492 426.939 959.427 426.945 959.362 426.939C953.051 426.234 942.905 427.15 936.191 427.755C934.096 427.944 932.285 428.107 931.031 428.181L931.004 428.182Z" fill="#1A1A1A"/>
<path d="M973.074 454.622C970.572 454.622 967.283 454.522 964.067 454.425C960.865 454.327 957.552 454.226 955.089 454.226C954.019 454.226 952.785 454.273 951.478 454.323C946.298 454.522 940.429 454.745 938.217 452.478C937.901 452.156 937.658 451.769 937.506 451.343C937.353 450.918 937.295 450.464 937.335 450.013C937.638 444.832 936.421 427.613 936.408 427.441L937.332 427.375C937.383 428.085 938.568 444.828 938.259 450.069C938.227 450.39 938.266 450.714 938.373 451.019C938.48 451.323 938.653 451.6 938.879 451.829C940.803 453.801 946.702 453.577 951.443 453.395C952.758 453.345 954 453.297 955.089 453.297C957.566 453.297 960.885 453.399 964.095 453.496C968.892 453.642 973.851 453.793 976.048 453.609C977.843 453.459 979.308 452.505 979.531 451.34C979.721 450.348 978.972 449.376 977.424 448.598C976.374 448.071 974.256 447.456 971.804 446.744C964.145 444.522 952.577 441.163 951.849 434.59C951.05 427.373 950.944 426.646 950.931 426.574L951.385 426.491V426.478H950.921L951.359 426.012C951.801 425.981 951.847 426.417 951.869 426.578C951.889 426.726 951.924 427.005 951.986 427.53C952.144 428.868 952.408 431.209 952.771 434.488C953.43 440.444 964.643 443.697 972.062 445.851C974.661 446.605 976.713 447.201 977.839 447.766C979.765 448.733 980.714 450.1 980.442 451.517C980.137 453.109 978.362 454.351 976.127 454.538C975.377 454.597 974.323 454.622 973.074 454.622Z" fill="#1A1A1A"/>
<path d="M937.595 436.758L937.259 435.892C937.517 435.791 943.681 433.434 952.521 434.843L952.376 435.762C943.782 434.392 937.656 436.735 937.595 436.758Z" fill="#1A1A1A"/>
<path d="M891.195 284.562L890.82 283.712C891.36 283.471 904.499 277.838 943.376 279.668L943.333 280.599C904.739 278.783 891.326 284.503 891.195 284.562Z" fill="#1A1A1A"/>
<path d="M879.034 221.32C882.04 213.822 886.538 206.961 897.654 210.682C908.771 214.402 917.417 228.354 915.873 238.276C914.329 248.198 903.929 247.917 895.329 246.507C895.329 246.507 893.631 251.453 893.939 254.244C894.078 255.496 896.483 254.043 901.783 254.554C906.704 255.028 912.579 256.187 918.008 256.301C923.438 256.414 928.26 254.511 929.954 253.605C935.132 250.833 934.231 251.785 938.529 254.244C942.827 256.702 946.44 254.962 948.719 254.864C950.147 254.802 954.586 254.554 951.498 257.034C951.807 258.894 949.337 259.459 949.337 260.135C949.337 261.065 949.646 261.685 947.175 262.925C947.484 265.716 943.363 267.306 939.764 267.576C937.703 267.731 926.795 265.716 912.432 271.065C904.116 274.162 891.669 276.722 885.766 275.017C879.862 273.312 874.899 270.538 874.186 251.384C873.473 232.23 876.82 226.843 879.034 221.32Z" fill="#F2E56A"/>
<path d="M874.159 249.046C877.737 242.462 874.958 242.152 882.678 227.889C890.397 213.627 888.789 210.138 888.789 210.138C888.789 210.138 881.201 212.24 876.962 226.766C873.105 239.981 874.159 249.046 874.159 249.046Z" fill="white"/>
<path d="M891.724 288.709L891.431 287.827C891.588 287.774 907.574 282.556 943.666 282.508V283.438C907.723 283.487 891.88 288.658 891.724 288.709Z" fill="#1A1A1A"/>
<path d="M902.923 247.694C900.341 247.658 897.766 247.414 895.223 246.966L895.373 246.048C900.404 246.874 907.585 247.612 911.853 244.506C913.785 243.101 914.983 240.981 915.415 238.204C916.145 233.513 914.581 227.756 911.123 222.407C907.595 216.95 902.631 212.838 897.507 211.123C886.451 207.425 882.715 214.916 879.417 221.529L878.589 221.112C881.882 214.506 885.981 206.284 897.8 210.24C908.787 213.918 917.965 227.84 916.33 238.348C915.859 241.378 914.535 243.704 912.397 245.26C909.845 247.116 906.385 247.694 902.923 247.694Z" fill="#1A1A1A"/>
<path d="M917.726 206.031C917.726 206.031 930.774 218.774 926.989 222.154C924.21 224.634 915.255 213.472 910.932 209.752C906.609 206.031 897.036 199.83 891.272 203.64C891.272 203.64 897.352 196.564 894.724 191.996C892.096 187.428 890.552 185.258 890.552 182.467C890.552 179.677 896.11 170.995 906.3 170.685C916.49 170.375 923.284 170.995 923.284 170.995C923.284 170.995 922.975 175.956 923.593 177.196C924.21 178.436 924.996 179.803 928.463 181.754C931.93 183.705 929.724 186.695 927.585 188.146C925.445 189.597 924.582 191.114 925.632 193.456C926.681 195.798 926.941 200.229 922.513 204.242C920.196 206.341 917.726 206.031 917.726 206.031Z" fill="#F2E56A"/>
<path d="M950.294 288.677C948.463 288.677 946.408 288.239 944.163 287.361L944.5 286.493C949.626 288.498 953.489 288.131 955.983 285.398C962.774 277.959 969.09 278.65 974.373 280.307C977.869 281.405 978.983 278.737 982.309 269.312C982.974 267.426 983.729 265.289 984.608 262.916C986.936 256.641 986.777 250.493 984.148 245.135C981.247 239.224 975.296 234.391 968.231 232.208C956.217 228.496 942.01 234.898 938.258 242.673L937.424 242.267C939.409 238.155 944.078 234.392 949.915 232.201C956.068 229.891 962.843 229.57 968.504 231.319C975.808 233.576 981.967 238.587 984.979 244.724C987.724 250.317 987.896 256.72 985.476 263.241C984.599 265.606 983.846 267.74 983.182 269.622C980.444 277.381 979.001 281.47 975.706 281.47C975.158 281.461 974.616 281.368 974.096 281.195C968.84 279.546 963.09 278.99 956.666 286.027C955.057 287.79 952.901 288.677 950.294 288.677Z" fill="#1A1A1A"/>
<path d="M921.937 256.159C921.937 256.159 928.997 257.654 931.776 257.034C933.682 256.609 934.9 253.532 932.412 252.803C929.905 253.514 925.377 256.213 921.937 256.159Z" fill="white"/>
<path d="M891.313 186.149C893.177 180.762 895.375 176.854 900.916 175.243C906.456 173.632 908.771 173.86 908.771 173.86C908.771 173.86 908.084 180.991 904.583 182.661C903.367 183.242 902.749 181.692 900.896 181.692C899.044 181.692 896.866 182.813 897.028 185.198C897.191 187.583 897.872 187.557 898.458 188.035C897.161 188.681 894.775 190.447 895.211 193.201C894.23 190.647 891.313 186.149 891.313 186.149Z" fill="white"/>
<path d="M916.799 206.341C916.799 206.341 915.101 205.256 915.718 197.815C916.336 190.373 923.438 190.063 925.195 191.342C925.195 191.342 926.24 194.683 926.383 196.559C926.526 198.435 925.977 200.99 922.846 204.045C920.968 205.876 916.799 206.341 916.799 206.341Z" fill="white"/>
<path d="M926.005 222.979C923.348 222.979 919.054 218.568 914.881 214.28C913.285 212.64 911.777 211.091 910.63 210.105C906.065 206.176 896.904 200.474 891.527 204.028L891.017 203.251C896.854 199.393 906.471 205.299 911.233 209.398C912.411 210.411 913.932 211.974 915.543 213.63C919.301 217.49 924.977 223.325 926.682 221.805C926.857 221.643 926.995 221.445 927.087 221.224C927.179 221.003 927.222 220.765 927.214 220.526C927.313 216.097 917.502 206.461 917.402 206.364L918.048 205.697C918.465 206.103 928.248 215.715 928.14 220.548C928.146 220.915 928.074 221.28 927.929 221.617C927.784 221.954 927.568 222.255 927.297 222.502C926.942 222.819 926.48 222.99 926.005 222.979Z" fill="#1A1A1A"/>
<path d="M889.919 276.154C885.846 276.154 882.534 275.007 880.045 272.73C873.789 267.005 873.38 254.614 873.723 244.461C874.366 225.395 880.655 214.688 889.9 204.479C897.237 196.376 894.841 192.593 892.525 188.935C891.982 188.118 891.492 187.266 891.058 186.386C891.032 186.33 891.017 186.27 891.014 186.209C891.012 186.148 891.021 186.087 891.042 186.03C891.063 185.973 891.094 185.92 891.136 185.875C891.177 185.83 891.226 185.793 891.281 185.767C891.336 185.741 891.396 185.727 891.457 185.724C891.518 185.721 891.578 185.731 891.636 185.752C891.693 185.772 891.745 185.804 891.79 185.846C891.835 185.887 891.871 185.937 891.897 185.992C892.314 186.836 892.785 187.653 893.307 188.436C895.693 192.205 898.397 196.476 890.585 205.105C881.48 215.162 875.283 225.71 874.649 244.493C874.313 254.447 874.693 266.575 880.67 272.043C883.605 274.728 887.627 275.702 892.964 275.019C901.421 273.94 908.314 271.886 914.397 270.074C920.295 268.316 925.381 266.796 929.786 266.956C937.947 267.248 943.104 267.305 946.114 264.887C946.698 264.419 946.867 264.166 946.867 263.39C946.867 263.267 946.916 263.148 947.003 263.061C947.09 262.974 947.208 262.925 947.33 262.925C947.453 262.925 947.571 262.974 947.658 263.061C947.745 263.148 947.794 263.267 947.794 263.39C947.794 264.523 947.423 265.027 946.693 265.614C943.42 268.242 938.381 268.195 929.753 267.886C925.505 267.73 920.721 269.16 914.661 270.965C908.545 272.788 901.613 274.853 893.081 275.943C892.033 276.081 890.977 276.151 889.919 276.154Z" fill="#1A1A1A"/>
<path d="M944.705 251.143C941.665 252.786 937.603 252.383 934.515 252.073L939.147 255.174L946.156 253.624C947.518 253.213 948.719 248.973 944.705 251.143Z" fill="#F2E56A"/>
<path d="M943.006 259.514C942.89 259.514 942.779 259.471 942.693 259.392C942.608 259.313 942.555 259.205 942.545 259.09C942.535 258.974 942.569 258.859 942.639 258.766C942.71 258.674 942.812 258.612 942.926 258.591C943.37 258.513 943.811 258.436 944.244 258.361C948.221 257.669 952.333 256.954 952.121 255.619C952.023 254.991 949.968 255.3 948.156 255.572C945.54 255.965 942.284 256.454 939.788 255.451C939.73 255.429 939.677 255.396 939.632 255.353C939.587 255.311 939.551 255.26 939.526 255.203C939.501 255.147 939.487 255.085 939.486 255.023C939.485 254.961 939.496 254.9 939.519 254.842C939.542 254.785 939.576 254.732 939.62 254.688C939.663 254.644 939.715 254.609 939.772 254.585C939.829 254.562 939.89 254.549 939.952 254.55C940.013 254.55 940.074 254.563 940.131 254.587C942.397 255.497 945.515 255.028 948.02 254.652C950.686 254.251 952.794 253.934 953.037 255.473C953.392 257.714 949.621 258.37 944.403 259.277C943.97 259.353 943.531 259.429 943.088 259.508C943.061 259.512 943.033 259.515 943.006 259.514Z" fill="#1A1A1A"/>
<path d="M900.297 188.951C898.458 188.951 897.545 188.002 897.183 187.483C896.733 186.786 896.516 185.962 896.564 185.132C896.612 184.302 896.923 183.509 897.452 182.869C898.725 181.295 900.947 180.985 903.394 182.038C903.659 182.171 903.952 182.236 904.248 182.227C904.543 182.218 904.832 182.136 905.088 181.987C907.082 180.835 908.09 175.859 908.31 174.038C908.325 173.916 908.388 173.804 908.485 173.728C908.532 173.691 908.587 173.663 908.646 173.646C908.705 173.63 908.766 173.625 908.826 173.633C908.887 173.64 908.945 173.659 908.998 173.689C909.051 173.719 909.098 173.76 909.135 173.808C909.173 173.856 909.2 173.911 909.217 173.97C909.233 174.028 909.238 174.09 909.23 174.151C909.196 174.436 908.352 181.173 905.551 182.793C905.171 183.015 904.742 183.141 904.303 183.158C903.863 183.176 903.426 183.085 903.03 182.893C900.954 182 899.183 182.206 898.171 183.458C897.355 184.466 897.257 185.967 897.942 186.951C898.735 188.088 900.375 188.328 902.443 187.61C902.501 187.588 902.563 187.578 902.624 187.58C902.686 187.583 902.747 187.598 902.803 187.624C902.859 187.65 902.909 187.688 902.95 187.734C902.992 187.78 903.023 187.834 903.044 187.893C903.064 187.952 903.072 188.014 903.068 188.076C903.064 188.138 903.048 188.198 903.02 188.254C902.992 188.309 902.954 188.358 902.906 188.399C902.859 188.439 902.805 188.469 902.746 188.488C901.961 188.778 901.133 188.935 900.297 188.951Z" fill="#1A1A1A"/>
<path d="M894.785 193.728C894.384 189.645 897.261 188.158 898.517 187.709L898.828 188.585C897.523 189.05 895.382 190.33 895.707 193.637L894.785 193.728Z" fill="#1A1A1A"/>
<path d="M972.691 247.268C969.603 246.647 967.441 246.647 965.897 249.748L966.206 251.298C972.691 253.779 978.867 246.027 978.867 246.027C978.867 246.027 975.779 247.888 972.691 247.268Z" fill="white"/>
<path d="M915.527 206.83C914.095 206.821 912.686 206.458 911.426 205.773C910.366 205.26 909.82 205.035 909 205.505C908.893 205.566 908.767 205.582 908.648 205.549C908.53 205.517 908.429 205.438 908.368 205.331C908.307 205.224 908.291 205.097 908.323 204.978C908.356 204.859 908.434 204.758 908.541 204.697C909.819 203.963 910.795 204.435 911.828 204.934C913.146 205.665 914.648 205.992 916.148 205.877C923.513 205.35 925.522 200.586 925.911 196.683C926.005 195.731 925.661 194.831 925.327 193.962C924.656 192.211 923.895 190.227 927.029 187.978C928.853 186.669 929.744 185.454 929.675 184.366C929.605 183.258 928.524 182.13 926.461 181.014C922.674 178.968 922.74 176.512 922.803 174.136C922.812 173.817 922.821 173.493 922.821 173.164C922.821 173.041 922.869 172.922 922.956 172.835C923.043 172.748 923.161 172.699 923.284 172.699C923.407 172.699 923.524 172.748 923.611 172.835C923.698 172.922 923.747 173.041 923.747 173.164C923.747 173.501 923.738 173.833 923.729 174.161C923.666 176.541 923.615 178.42 926.9 180.196C929.297 181.492 930.507 182.837 930.6 184.308C930.691 185.758 929.699 187.206 927.567 188.735C925.017 190.564 925.536 191.915 926.192 193.626C926.547 194.552 926.949 195.601 926.832 196.774C926.233 202.794 922.462 206.355 916.214 206.803C915.976 206.821 915.748 206.83 915.527 206.83Z" fill="#1A1A1A"/>
<path d="M940.019 255.473L939.817 254.565C940.665 254.375 960.63 249.902 965.843 249.286C965.959 249.272 966.075 249.302 966.17 249.371C966.264 249.44 966.329 249.542 966.351 249.657L966.66 251.207C966.683 251.324 966.661 251.446 966.597 251.547C966.534 251.648 966.434 251.72 966.318 251.749C963.869 252.364 950.649 255.258 950.516 255.287L950.318 254.379C950.445 254.351 962.404 251.733 965.665 250.952L965.528 250.264C959.752 251.051 940.221 255.427 940.019 255.473Z" fill="#1A1A1A"/>
<path d="M968.883 252.26C967.912 252.261 966.948 252.082 966.041 251.733L966.371 250.865C970.601 252.483 974.779 249.416 976.957 247.367C975.558 247.851 974.059 247.974 972.6 247.725C969.41 247.084 967.657 247.255 966.311 249.957L965.483 249.541C967.238 246.015 969.827 246.219 972.781 246.812C975.653 247.389 978.599 245.647 978.628 245.629C978.721 245.573 978.831 245.552 978.939 245.569C979.046 245.586 979.144 245.64 979.216 245.722C979.287 245.804 979.328 245.909 979.33 246.018C979.332 246.128 979.296 246.234 979.228 246.319C979.005 246.598 974.419 252.26 968.883 252.26Z" fill="#1A1A1A"/>
<path d="M960.758 250.613L959.851 250.802L960.23 252.637L961.137 252.448L960.758 250.613Z" fill="#1A1A1A"/>
<path d="M946.46 239.806C948.796 237.851 952.3 240.588 950.354 242.543C948.407 244.498 941.787 244.107 946.46 239.806Z" fill="white"/>
<path d="M947.067 244.131C946.65 244.136 946.235 244.084 945.832 243.976C945.053 243.755 944.545 243.3 944.402 242.696C944.193 241.809 944.78 240.721 946.148 239.462L946.164 239.448C946.817 238.895 947.657 238.617 948.509 238.671C949.361 238.725 950.159 239.107 950.738 239.737C950.948 239.941 951.115 240.187 951.227 240.459C951.34 240.73 951.395 241.022 951.39 241.316C951.384 241.61 951.319 241.9 951.197 242.167C951.075 242.435 950.9 242.674 950.682 242.871C949.84 243.716 948.346 244.131 947.067 244.131ZM946.766 240.157C945.276 241.531 945.247 242.24 945.304 242.482C945.383 242.817 945.772 242.993 946.085 243.082C947.317 243.433 949.233 243.011 950.027 242.214C950.159 242.1 950.265 241.959 950.339 241.801C950.412 241.642 950.451 241.47 950.454 241.296C950.456 241.121 950.422 240.948 950.353 240.787C950.284 240.627 950.182 240.483 950.054 240.365C949.636 239.914 949.063 239.641 948.451 239.602C947.839 239.563 947.235 239.762 946.765 240.157H946.766Z" fill="#1A1A1A"/>
<path d="M955.707 237.966C956.325 235.796 958.795 236.106 959.412 236.416C960.03 236.726 962.192 238.896 960.03 240.446C957.869 241.997 955.398 241.377 955.707 237.966Z" fill="#1A1A1A"/>
<path d="M957.831 241.712C957.385 241.719 956.945 241.608 956.556 241.39C955.979 241.058 955.042 240.166 955.246 237.924C955.248 237.895 955.253 237.866 955.261 237.838C955.364 237.436 955.557 237.063 955.824 236.747C956.092 236.431 956.427 236.18 956.805 236.013C957.707 235.644 958.716 235.639 959.621 236C960.11 236.245 961.324 237.364 961.426 238.677C961.472 239.256 961.313 240.099 960.3 240.825C959.588 241.369 958.725 241.679 957.831 241.712ZM956.163 238.054C956.058 239.309 956.36 240.207 957.015 240.584C957.709 240.983 958.76 240.786 959.76 240.069C960.297 239.683 960.54 239.252 960.501 238.75C960.43 237.843 959.482 236.972 959.204 236.833C958.546 236.595 957.826 236.606 957.176 236.864C956.929 236.973 956.71 237.137 956.535 237.342C956.36 237.548 956.233 237.791 956.164 238.053L956.163 238.054Z" fill="#1A1A1A"/>
<path d="M976.742 255.248C978.868 250.988 985.97 250.368 988.44 254.399C990.911 258.429 986.896 261.53 992.763 263.08C998.63 264.63 997.704 267.421 996.469 269.901C995.234 272.382 995.234 274.552 996.16 276.722C997.086 278.893 993.381 283.543 986.588 282.923C979.794 282.303 979.177 284.164 976.089 286.334C973.001 288.504 969.604 284.474 970.222 281.373C970.839 278.273 974.545 275.792 975.471 270.211C976.397 264.63 977.342 264.387 977.333 262.028" fill="white"/>
<path d="M974.251 287.412C973.511 287.402 972.79 287.175 972.178 286.757C970.412 285.599 969.375 283.244 969.766 281.282C970.044 279.892 970.86 278.677 971.806 277.27C973.065 275.4 974.491 273.279 975.013 270.135C975.295 268.266 975.744 266.426 976.354 264.638C976.69 263.81 976.864 262.924 976.868 262.03C976.868 261.907 976.917 261.789 977.003 261.702C977.09 261.615 977.207 261.566 977.33 261.565H977.331C977.454 261.565 977.572 261.614 977.658 261.701C977.745 261.788 977.794 261.905 977.795 262.028C977.791 263.024 977.6 264.01 977.233 264.935C976.639 266.677 976.201 268.469 975.926 270.289C975.371 273.633 973.82 275.939 972.574 277.793C971.684 279.116 970.915 280.259 970.674 281.466C970.359 283.05 971.242 285.033 972.685 285.98C973.144 286.309 973.694 286.483 974.257 286.479C974.821 286.474 975.368 286.291 975.821 285.955C976.377 285.565 976.847 285.187 977.304 284.821C979.39 283.147 980.896 281.938 986.629 282.462C990.924 282.854 993.828 281.097 995.112 279.322C995.753 278.436 995.992 277.51 995.734 276.907C994.704 274.494 994.806 272.202 996.054 269.695C996.793 268.21 997.191 267.011 996.728 265.984C996.262 264.949 994.888 264.123 992.645 263.531C988.76 262.505 988.816 260.667 988.878 258.722C988.916 257.508 988.958 256.131 988.047 254.644C987.033 252.99 985.052 252.063 982.757 252.163C980.262 252.273 978.117 253.535 977.158 255.457C977.101 255.565 977.005 255.646 976.89 255.684C976.774 255.721 976.649 255.711 976.54 255.657C976.432 255.602 976.349 255.507 976.309 255.392C976.27 255.277 976.277 255.151 976.329 255.041C977.439 252.817 979.886 251.358 982.717 251.234C985.355 251.119 987.644 252.211 988.836 254.156C989.893 255.881 989.844 257.472 989.804 258.75C989.745 260.648 989.71 261.793 992.883 262.632C995.444 263.309 996.978 264.279 997.573 265.6C998.223 267.042 997.626 268.62 996.884 270.11C995.767 272.354 995.672 274.398 996.587 276.54C996.978 277.457 996.708 278.701 995.863 279.868C994.429 281.85 991.228 283.815 986.547 283.388C981.184 282.898 979.872 283.953 977.883 285.548C977.417 285.922 976.934 286.309 976.355 286.716C975.743 287.162 975.007 287.405 974.251 287.412Z" fill="#1A1A1A"/>
<path d="M969.753 242.739C969.291 242.737 968.829 242.692 968.375 242.606C966.64 242.29 965.81 241.88 965.599 241.235C965.367 240.521 965.962 239.891 966.592 239.219C966.849 238.957 967.091 238.68 967.317 238.39C968 237.476 968.824 236.978 969.766 236.91C970.838 236.837 972.051 237.369 973.02 238.34C973.333 238.689 973.527 239.129 973.574 239.596C973.621 240.063 973.517 240.533 973.279 240.937C973.037 241.404 972.128 242.739 969.753 242.739ZM969.984 237.834C969.933 237.834 969.883 237.836 969.832 237.84C969.17 237.887 968.573 238.26 968.059 238.95C967.811 239.268 967.547 239.571 967.266 239.86C966.949 240.196 966.419 240.759 966.479 240.945C966.493 240.985 966.662 241.348 968.541 241.691C971.335 242.201 972.246 240.913 972.459 240.506C972.603 240.277 972.672 240.008 972.655 239.737C972.638 239.466 972.536 239.208 972.365 238.999C972.085 238.717 971.113 237.832 969.984 237.832V237.834Z" fill="#1A1A1A"/>
<path d="M977.94 257.189C976.442 254.399 971.456 254.089 970.529 257.189C969.603 260.29 971.147 261.53 973.308 261.84C979.543 262.734 984.294 262.687 983.19 259.359C982.572 257.499 974.235 256.879 974.235 256.879" fill="#F2E56A"/>
<path d="M978.898 262.794C977.004 262.76 975.114 262.595 973.243 262.3C971.832 262.098 970.836 261.553 970.28 260.68C969.703 259.773 969.638 258.554 970.085 257.056C970.506 255.648 971.735 254.708 973.374 254.54C975.4 254.336 977.419 255.306 978.314 256.911C980.689 257.324 983.237 258.036 983.627 259.213C983.946 260.17 983.852 260.962 983.351 261.565C982.668 262.389 981.24 262.794 978.898 262.794ZM973.881 255.444C973.743 255.444 973.605 255.451 973.467 255.466C972.196 255.595 971.287 256.272 970.973 257.323C970.606 258.55 970.635 259.511 971.061 260.179C971.465 260.813 972.243 261.217 973.374 261.379C975.346 261.663 981.349 262.524 982.641 260.969C982.927 260.625 982.963 260.147 982.75 259.507C982.429 258.54 978.062 257.631 974.2 257.343C974.077 257.334 973.964 257.276 973.883 257.183C973.803 257.089 973.763 256.968 973.772 256.845C973.781 256.722 973.839 256.607 973.932 256.527C974.025 256.446 974.146 256.406 974.269 256.415C974.73 256.449 975.782 256.539 977.022 256.709C976.181 255.889 975.053 255.435 973.881 255.444Z" fill="#1A1A1A"/>
<path d="M916.799 181.227C919.64 180.514 921.431 180.607 922.049 181.847C922.666 183.087 918.961 184.017 917.108 184.327C915.255 184.637 913.402 184.637 913.094 183.397C912.785 182.157 915.564 181.537 916.799 181.227Z" fill="white"/>
<path d="M915.32 184.972C914.17 184.972 912.939 184.693 912.644 183.51C912.604 183.351 912.597 183.186 912.621 183.024C912.646 182.862 912.704 182.707 912.789 182.568C913.326 181.673 914.912 181.216 916.492 180.824L916.686 180.776C918.727 180.264 921.545 179.796 922.463 181.639C922.541 181.789 922.582 181.956 922.581 182.126C922.58 182.296 922.539 182.463 922.459 182.612C921.795 183.922 918.254 184.607 917.184 184.786C916.569 184.899 915.945 184.962 915.32 184.972ZM916.911 181.678L916.714 181.727C915.822 181.948 913.966 182.409 913.583 183.048C913.56 183.082 913.544 183.121 913.537 183.162C913.53 183.202 913.532 183.244 913.543 183.284C913.774 184.211 915.567 184.113 917.032 183.869C919.331 183.484 921.352 182.747 921.633 182.191C921.646 182.17 921.653 182.147 921.653 182.123C921.653 182.099 921.646 182.075 921.633 182.055C921.168 181.12 919.622 180.997 916.911 181.678H916.911Z" fill="#1A1A1A"/>
<path d="M919.369 180.846C918.344 181.847 917.841 183.639 919.945 183.828C919.945 183.828 922.292 183.155 922.093 181.958C921.894 180.762 919.369 180.846 919.369 180.846Z" fill="#1A1A1A"/>
<path d="M919.424 177.661C915.718 177.661 913.557 178.591 913.248 179.212C912.939 179.832 916.954 179.522 919.115 179.522C921.277 179.522 922.512 179.212 922.512 178.281C922.512 177.351 920.659 177.661 919.424 177.661Z" fill="#1A1A1A"/>
<path d="M916.55 206.733C916.352 206.607 914.634 205.281 915.257 197.776C915.598 193.662 917.783 191.823 919.557 191.007C921.814 189.967 924.381 190.176 925.466 190.965L924.923 191.718C924.18 191.177 921.979 190.914 919.943 191.853C918.394 192.566 916.484 194.186 916.18 197.853C915.611 204.705 917.033 205.939 917.048 205.949L916.55 206.733Z" fill="#1A1A1A"/>
<path d="M921.431 198.745C921.352 198.745 921.274 198.724 921.205 198.686C921.136 198.647 921.078 198.591 921.037 198.524C920.995 198.457 920.972 198.38 920.968 198.3C920.965 198.221 920.981 198.142 921.017 198.072C921.439 197.224 923.168 195.024 926.063 195.024C926.186 195.024 926.304 195.073 926.391 195.16C926.477 195.247 926.526 195.366 926.526 195.489C926.526 195.612 926.477 195.731 926.391 195.818C926.304 195.905 926.186 195.954 926.063 195.954C923.187 195.954 921.858 198.462 921.845 198.488C921.807 198.565 921.748 198.63 921.674 198.675C921.601 198.721 921.517 198.745 921.431 198.745Z" fill="#1A1A1A"/>
<path d="M893.326 304.811C893.204 304.812 893.085 304.764 892.998 304.678C892.91 304.591 892.86 304.474 892.859 304.35C892.858 304.227 892.906 304.108 892.992 304.02C893.078 303.932 893.196 303.882 893.319 303.881C893.406 303.88 902.082 303.658 907.266 297.921C910.23 294.639 911.513 290.18 911.076 284.667C911.067 284.544 911.106 284.422 911.186 284.328C911.265 284.235 911.379 284.176 911.502 284.167C911.624 284.157 911.745 284.196 911.839 284.276C911.932 284.356 911.99 284.47 912 284.593C912.457 290.375 911.094 295.073 907.947 298.551C902.489 304.586 893.706 304.805 893.334 304.811H893.326Z" fill="#1A1A1A"/>
<path d="M914.483 159.058C921.825 157.869 926.835 161.229 926.217 165.569C925.6 169.91 926.372 173.166 920.505 173.476C914.638 173.786 905.982 173.157 899.348 175.797C892.713 178.436 891.478 186.188 891.478 186.188C891.478 186.188 885.105 184.655 884.685 178.746C884.376 174.406 885.302 168.825 892.713 165.104C900.124 161.384 909.697 159.833 914.483 159.058Z" fill="#1A1A1A"/>
<path d="M891.478 186.653C891.442 186.653 891.405 186.648 891.37 186.64C891.303 186.624 884.662 184.956 884.223 178.78C883.765 172.327 886.473 167.717 892.506 164.688C899.98 160.937 909.726 159.358 914.409 158.599L914.483 159.058L914.409 158.599C918.839 157.88 922.81 158.761 925.032 160.951C925.66 161.542 926.138 162.276 926.424 163.091C926.71 163.907 926.797 164.779 926.676 165.635C926.581 166.304 926.519 166.946 926.46 167.567C926.134 170.969 925.876 173.658 920.531 173.94C919.179 174.012 917.684 174.033 916.102 174.056C910.691 174.135 904.557 174.225 899.52 176.229C893.214 178.737 891.948 186.186 891.935 186.261C891.918 186.371 891.862 186.47 891.778 186.542C891.695 186.613 891.588 186.653 891.478 186.653ZM917.385 159.282C916.438 159.285 915.491 159.364 914.556 159.517C909.92 160.268 900.268 161.831 892.92 165.52C887.26 168.362 884.717 172.678 885.147 178.714C885.477 183.365 889.691 185.132 891.122 185.6C891.53 183.776 893.303 177.702 899.177 175.365C904.371 173.298 910.867 173.203 916.086 173.127C917.659 173.104 919.145 173.082 920.48 173.011C925.03 172.771 925.221 170.779 925.537 167.478C925.599 166.847 925.661 166.194 925.758 165.504C925.862 164.792 925.79 164.066 925.55 163.388C925.31 162.711 924.909 162.102 924.382 161.615C922.844 160.098 920.334 159.282 917.387 159.282H917.385Z" fill="#1A1A1A"/>
<path d="M902.018 161.643C902.904 159.213 901.051 155.183 897.345 155.803C893.64 156.423 894.875 158.593 896.419 159.213C897.963 159.833 899.869 159.368 899.997 162.236" fill="#1A1A1A"/>
<path d="M899.996 162.701C899.877 162.701 899.762 162.655 899.676 162.572C899.59 162.49 899.539 162.377 899.533 162.257C899.451 160.428 898.657 160.252 897.454 159.985C897.043 159.905 896.638 159.791 896.246 159.644C895.296 159.263 894.346 158.305 894.455 157.283C894.528 156.601 895.076 155.71 897.267 155.343C898.04 155.192 898.84 155.256 899.58 155.528C900.321 155.8 900.973 156.27 901.467 156.886C902.601 158.26 903.007 160.281 902.453 161.802C902.41 161.918 902.324 162.013 902.212 162.065C902.101 162.117 901.973 162.122 901.858 162.08C901.743 162.037 901.649 161.95 901.597 161.838C901.545 161.726 901.54 161.598 901.582 161.483C902.021 160.277 901.675 158.594 900.754 157.481C900.361 156.993 899.843 156.622 899.256 156.407C898.669 156.192 898.035 156.142 897.421 156.262C896.177 156.47 895.432 156.879 895.378 157.384C895.327 157.857 895.882 158.497 896.59 158.782C896.937 158.908 897.293 159.007 897.655 159.077C898.854 159.343 900.346 159.674 900.459 162.215C900.465 162.338 900.421 162.459 900.338 162.55C900.256 162.641 900.14 162.695 900.017 162.7C900.01 162.701 900.003 162.701 899.996 162.701Z" fill="#1A1A1A"/>
<path d="M892.405 419.81C892.362 419.811 892.32 419.805 892.279 419.793C892.161 419.76 892.061 419.681 892.001 419.573C891.94 419.466 891.925 419.338 891.958 419.22C892.843 416.057 893.701 412.806 894.51 409.553C894.524 409.493 894.549 409.436 894.585 409.386C894.621 409.336 894.667 409.293 894.719 409.261C894.772 409.228 894.83 409.207 894.891 409.198C894.952 409.188 895.014 409.191 895.074 409.206C895.133 409.221 895.19 409.248 895.239 409.285C895.288 409.322 895.33 409.368 895.361 409.422C895.392 409.475 895.412 409.534 895.42 409.595C895.429 409.657 895.425 409.719 895.408 409.779C894.598 413.04 893.737 416.301 892.85 419.471C892.823 419.568 892.765 419.654 892.684 419.716C892.604 419.777 892.506 419.81 892.405 419.81Z" fill="#1A1A1A"/>
<path d="M897.7 398.25C897.667 398.25 897.635 398.247 897.603 398.24C897.543 398.227 897.487 398.203 897.437 398.168C897.387 398.133 897.344 398.089 897.311 398.038C897.278 397.987 897.255 397.929 897.244 397.869C897.233 397.809 897.234 397.747 897.247 397.688C901.39 377.989 904.119 358.016 905.411 337.925C905.415 337.864 905.431 337.804 905.458 337.749C905.485 337.695 905.522 337.646 905.568 337.605C905.613 337.565 905.666 337.534 905.724 337.514C905.782 337.495 905.842 337.487 905.903 337.49C905.964 337.494 906.023 337.51 906.078 337.537C906.132 337.564 906.181 337.602 906.221 337.648C906.261 337.693 906.292 337.747 906.312 337.805C906.331 337.862 906.34 337.924 906.336 337.985C905.04 358.122 902.306 378.14 898.153 397.884C898.13 397.988 898.073 398.081 897.991 398.147C897.908 398.214 897.806 398.25 897.7 398.25Z" fill="#1A1A1A"/>
<path d="M906.283 330.962H906.262C906.201 330.959 906.141 330.944 906.086 330.918C906.031 330.892 905.982 330.856 905.941 330.811C905.9 330.766 905.868 330.713 905.847 330.655C905.827 330.598 905.817 330.537 905.82 330.476C906.294 320.037 906.148 313.693 906.146 313.63C906.144 313.569 906.155 313.508 906.177 313.451C906.199 313.394 906.231 313.342 906.273 313.298C906.315 313.254 906.366 313.218 906.421 313.193C906.477 313.169 906.537 313.155 906.598 313.154C906.72 313.152 906.838 313.199 906.927 313.283C907.016 313.368 907.068 313.484 907.072 313.607C907.074 313.669 907.221 320.044 906.745 330.518C906.74 330.638 906.689 330.75 906.602 330.833C906.516 330.916 906.402 330.962 906.283 330.962Z" fill="#1A1A1A"/>
<path d="M938.106 317.959C935.944 300.286 932.749 305.214 933.165 325.71C933.474 340.903 929.46 352.374 926.063 366.017L930.077 405.703C932.239 401.052 932.548 388.34 932.239 383.38C931.93 378.419 933.474 376.558 934.4 374.388C935.327 372.218 934.4 368.187 935.018 366.637C935.636 365.087 936.871 362.606 935.636 359.196C934.4 355.785 936.253 352.064 937.18 348.654C938.106 345.243 940.267 335.632 938.106 317.959Z" fill="#1A1A1A"/>
<path d="M895.236 246.337C895.236 246.337 897.151 237.811 897.033 235.259C896.914 232.679 898.335 227.46 900.928 227.752C903.521 228.044 902.275 232.627 901.354 234.521C900.433 236.416 898.246 240.946 897.178 242.557C896.11 244.167 896.471 246.027 895.236 246.337Z" fill="#1A1A1A"/>
<path d="M900.896 186.808C900.846 186.808 900.797 186.8 900.75 186.784C899.921 186.507 899.436 186.128 899.264 185.627C899.022 184.917 899.485 184.219 899.893 183.604C899.927 183.553 899.971 183.51 900.021 183.476C900.072 183.442 900.128 183.418 900.188 183.406C900.248 183.394 900.309 183.394 900.369 183.406C900.429 183.417 900.486 183.441 900.536 183.475C900.587 183.509 900.631 183.552 900.664 183.603C900.698 183.654 900.722 183.711 900.734 183.771C900.746 183.831 900.746 183.892 900.734 183.952C900.723 184.012 900.699 184.069 900.665 184.12C900.376 184.554 900.048 185.05 900.14 185.325C900.209 185.525 900.529 185.728 901.042 185.901C901.147 185.936 901.235 186.007 901.292 186.102C901.349 186.196 901.371 186.308 901.353 186.417C901.336 186.526 901.28 186.625 901.196 186.697C901.112 186.768 901.006 186.808 900.896 186.808H900.896Z" fill="#1A1A1A"/>
<path d="M885.765 429.422C885.765 429.422 890.706 428.182 899.352 429.422C899.661 429.112 899.965 429.091 899.043 428.802C893.853 427.175 886.698 425.319 886.698 425.319L885.765 429.422Z" fill="#1A1A1A"/>
<path d="M977.631 448.18C973.308 446.01 953.391 443.374 952.465 435.003C944.745 434.383 937.643 436.243 937.643 436.243C937.643 436.243 938.106 444.77 937.797 450.04C937.488 455.311 948.914 453.761 955.089 453.761C961.265 453.761 972.382 454.381 976.087 454.071C979.793 453.761 981.954 450.35 977.631 448.18Z" fill="#1A1A1A"/>
<path d="M973.074 454.622C970.572 454.622 967.283 454.522 964.067 454.424C960.864 454.327 957.552 454.226 955.089 454.226C954.019 454.226 952.785 454.273 951.478 454.323C946.298 454.522 940.429 454.745 938.217 452.478C937.901 452.156 937.658 451.769 937.506 451.343C937.353 450.917 937.295 450.464 937.335 450.013C937.638 444.829 937.185 436.353 937.18 436.268C937.175 436.161 937.206 436.056 937.269 435.969C937.332 435.882 937.423 435.82 937.526 435.793C937.598 435.774 944.794 433.919 952.502 434.539C952.61 434.548 952.711 434.594 952.788 434.669C952.865 434.744 952.914 434.844 952.926 434.951C953.578 440.846 964.591 443.867 971.879 445.865C974.562 446.601 976.682 447.183 977.838 447.764C979.764 448.731 980.713 450.098 980.441 451.515C980.136 453.106 978.361 454.348 976.126 454.535C975.377 454.596 974.323 454.622 973.074 454.622ZM955.089 453.296C957.567 453.296 960.886 453.397 964.095 453.495C968.892 453.641 973.852 453.792 976.049 453.607C977.843 453.457 979.308 452.503 979.532 451.338C979.722 450.346 978.973 449.374 977.424 448.596C976.348 448.056 974.163 447.457 971.633 446.763C964.253 444.739 953.176 441.701 952.06 435.439C945.63 434.987 939.638 436.251 938.125 436.605C938.21 438.334 938.529 445.47 938.259 450.068C938.227 450.389 938.267 450.713 938.374 451.017C938.481 451.321 938.654 451.598 938.879 451.827C940.803 453.8 946.703 453.575 951.443 453.394C952.759 453.343 954.001 453.296 955.089 453.296Z" fill="#1A1A1A"/>
<path d="M937.138 431.437C937.138 431.437 945.608 426.896 951.429 426.686C950.721 426.267 943.355 425.806 936.871 427.227C936.877 428.634 936.966 430.04 937.138 431.437Z" fill="#1A1A1A"/>
<path d="M943.356 409.579H943.331C943.27 409.576 943.211 409.56 943.156 409.534C943.101 409.508 943.052 409.471 943.011 409.425C942.97 409.38 942.939 409.327 942.919 409.269C942.898 409.212 942.89 409.151 942.893 409.09C943.806 391.665 941.071 370.63 941.043 370.419C941.035 370.359 941.039 370.297 941.055 370.238C941.07 370.179 941.098 370.124 941.135 370.075C941.172 370.027 941.218 369.986 941.27 369.955C941.323 369.925 941.381 369.905 941.442 369.897C941.502 369.889 941.563 369.893 941.622 369.909C941.681 369.924 941.736 369.952 941.784 369.989C941.832 370.026 941.873 370.072 941.903 370.125C941.934 370.178 941.954 370.236 941.962 370.297C941.99 370.508 944.736 391.626 943.818 409.139C943.811 409.258 943.76 409.369 943.674 409.451C943.588 409.533 943.474 409.579 943.356 409.579Z" fill="#1A1A1A"/>
<path d="M942.738 420.741C942.713 420.74 942.687 420.738 942.662 420.734C942.601 420.724 942.544 420.702 942.492 420.67C942.441 420.638 942.396 420.596 942.361 420.546C942.325 420.496 942.3 420.44 942.286 420.38C942.273 420.321 942.271 420.259 942.281 420.199C942.473 418.89 942.574 417.568 942.583 416.245C942.583 416.122 942.632 416.003 942.719 415.916C942.806 415.829 942.924 415.78 943.047 415.78C943.169 415.78 943.287 415.829 943.374 415.916C943.461 416.003 943.51 416.122 943.51 416.245C943.502 417.62 943.397 418.992 943.194 420.352C943.176 420.46 943.121 420.559 943.037 420.63C942.954 420.701 942.848 420.74 942.738 420.741Z" fill="#1A1A1A"/>
<path d="M944.087 266.646C944.087 266.646 944.282 275.172 947.987 278.583C951.693 281.993 955.244 288.039 951.538 288.349C951.538 288.349 944.358 287.52 944.243 286.384C944.127 285.248 941.309 267.576 941.309 267.576L944.087 266.646Z" fill="#1A1A1A"/>
<path d="M960.133 250.74L960.802 252.693L966.052 251.453L965.743 249.593L960.133 250.74Z" fill="#1A1A1A"/>
<path d="M922.203 211.457C922.337 211.542 911.512 206.085 908.925 205.566C910.16 204.636 910.708 205.117 912.827 205.884C914.947 206.651 917.726 206.341 918.343 206.031C918.343 206.341 921.277 209.906 922.203 211.457Z" fill="#1A1A1A"/>
<path d="M905.528 300.751C900.588 304.782 902.749 315.324 900.896 321.215C899.044 327.105 898.426 328.656 897.808 341.678C897.191 354.7 895.029 353.77 895.029 353.77C895.029 353.77 894.855 327.987 894.326 318.4C893.796 308.813 893.177 304.472 893.177 304.472C893.177 304.472 900.588 303.542 905.528 300.751Z" fill="#1A1A1A"/>
<path d="M943.355 280.133C904.142 278.288 891.008 284.137 891.008 284.137L891.577 288.268C891.577 288.268 907.233 283.023 943.667 282.973L943.355 280.133Z" fill="#1A1A1A"/>
<path d="M891.143 209.662C891.143 209.662 894.866 203.614 897.263 202.575L901.514 203.705C901.514 203.705 896.01 207.629 895.211 210.008C895.211 210.008 893.741 209.418 891.143 209.662Z" fill="#1A1A1A"/>
<path d="M899.112 211.233C899.112 211.233 902.314 207.27 905.929 206.108C907.6 207.193 908.926 208.147 908.926 208.147C906.498 209.374 904.303 211.019 902.442 213.007C900.896 212.077 899.112 211.233 899.112 211.233Z" fill="#1A1A1A"/>
<path d="M905.658 215.383C907.605 213.5 909.947 212.078 912.513 211.224L915.042 213.781C915.042 213.781 909.287 216.222 908.488 218.18C907.199 216.825 905.658 215.383 905.658 215.383Z" fill="#1A1A1A"/>
<path d="M921.277 209.286C922.777 209.106 924.294 209.106 925.794 209.286L927.237 211.224C925.749 210.999 924.229 211.127 922.8 211.6C921.915 210.383 921.277 209.286 921.277 209.286Z" fill="#1A1A1A"/>
<path d="M911.122 221.566C911.122 221.566 914.748 218.098 918.321 217.101L920.535 219.191C920.535 219.191 914.511 222.889 912.953 224.613C912.454 223.535 911.84 222.513 911.122 221.566Z" fill="#1A1A1A"/>
<path d="M925.324 214.961C925.324 214.961 926.214 214.226 929.304 214.702C929.924 215.963 930.482 217.103 930.482 217.103C930.482 217.103 928.4 216.526 926.691 217.247C926.052 216.209 925.324 214.961 925.324 214.961Z" fill="#1A1A1A"/>
<path d="M914.544 228.158C914.544 228.158 926.957 219.92 932.763 222.509C933.023 223.477 933.354 224.424 933.754 225.342C933.754 225.342 923.928 225.139 915.5 231.32C915.01 230.04 914.544 228.158 914.544 228.158Z" fill="#1A1A1A"/>
<path d="M916.051 234.911C916.051 234.911 926.9 228.572 935.205 230.246C935.448 231.734 935.772 232.98 935.772 232.98C935.772 232.98 922.717 234.503 916.027 238.431C916.148 237.261 916.156 236.082 916.051 234.911Z" fill="#1A1A1A"/>
<path d="M914.2 242.58C914.2 242.58 932.902 236.033 936.971 237.853L937.588 241.203C937.588 241.203 921.284 243.811 905.837 247.423C905.837 247.423 913.609 244.868 914.2 242.58Z" fill="#1A1A1A"/>
<path d="M894.535 249.283C894.535 249.283 921.277 249.283 937.951 244.942C938.015 246.172 938.276 247.382 938.725 248.528C938.725 248.528 930.664 251.763 893.918 253.003C893.609 251.143 894.535 249.283 894.535 249.283Z" fill="#1A1A1A"/>
<path d="M890.344 279.773C890.344 279.773 918.498 273.157 941.966 274.707C942.275 272.537 941.849 271.269 941.849 271.269C941.849 271.269 920.042 268.816 890.089 275.637C890.089 277.497 890.344 279.773 890.344 279.773Z" fill="#1A1A1A"/>
<path d="M875.427 263.026C875.266 257.964 882.368 259.514 883.603 262.305C884.839 265.095 886.074 272.537 894.102 271.296C902.131 270.056 899.443 274.835 895.229 275.236C891.015 275.637 879.912 278.94 875.427 263.026Z" fill="#1A1A1A"/>
<path d="M890.398 171.924C890.305 171.924 890.215 171.896 890.138 171.844C890.062 171.792 890.002 171.718 889.968 171.632C889.934 171.546 889.925 171.451 889.945 171.361C889.964 171.27 890.011 171.187 890.077 171.123C890.372 170.84 897.523 164.168 917.22 162.315C917.282 162.307 917.344 162.312 917.403 162.33C917.463 162.347 917.518 162.376 917.566 162.415C917.614 162.454 917.654 162.502 917.683 162.557C917.712 162.611 917.731 162.671 917.736 162.733C917.742 162.795 917.735 162.857 917.717 162.917C917.698 162.976 917.668 163.031 917.628 163.078C917.588 163.125 917.539 163.164 917.483 163.192C917.428 163.22 917.368 163.236 917.306 163.24C897.976 165.06 890.788 171.728 890.719 171.796C890.633 171.878 890.517 171.924 890.398 171.924Z" fill="white"/>
<path d="M942.079 262.305C941.962 262.305 941.848 262.26 941.762 262.18C941.676 262.099 941.624 261.989 941.616 261.871C941.608 261.753 941.646 261.637 941.72 261.545C941.795 261.454 941.901 261.394 942.018 261.379C947.331 260.668 951.189 259.036 951.189 257.499C951.189 257.376 951.237 257.258 951.324 257.17C951.411 257.083 951.529 257.034 951.652 257.034C951.775 257.034 951.893 257.083 951.979 257.17C952.066 257.258 952.115 257.376 952.115 257.499C952.115 260.798 943.806 262.078 942.141 262.301C942.121 262.304 942.1 262.305 942.079 262.305Z" fill="#1A1A1A"/>
<path d="M940.844 265.095C940.728 265.095 940.615 265.051 940.53 264.971C940.445 264.891 940.393 264.782 940.384 264.666C940.375 264.549 940.41 264.433 940.482 264.342C940.555 264.25 940.659 264.189 940.774 264.171C944.907 263.532 948.768 262.614 949.03 260.238C949.044 260.116 949.106 260.003 949.202 259.926C949.298 259.849 949.42 259.814 949.542 259.827C949.664 259.841 949.776 259.903 949.853 259.999C949.929 260.095 949.965 260.218 949.951 260.341C949.603 263.489 945.103 264.443 940.915 265.09C940.892 265.094 940.868 265.095 940.844 265.095Z" fill="#1A1A1A"/>
<path d="M919.187 256.789C917.829 256.789 916.477 256.69 915.028 256.584C914.205 256.524 913.354 256.46 912.452 256.413C910.407 256.276 908.371 256.033 906.351 255.685C902.879 255.143 899.6 254.632 895.553 255.17C894.79 255.271 894.213 255.106 893.841 254.677C892.886 253.577 893.566 251.094 894.596 247.337C895.669 243.422 897.005 238.55 896.881 233.637C896.769 229.087 898.503 227.797 899.253 227.453C899.664 227.26 900.124 227.197 900.572 227.272C901.02 227.347 901.435 227.556 901.762 227.872C902.676 228.709 903.327 230.538 902.414 233.159C901.572 235.573 900.454 237.53 899.27 239.6C897.411 242.854 895.488 246.218 894.549 251.687C894.533 251.779 894.49 251.863 894.426 251.93C894.255 252.958 894.248 253.732 894.538 254.066C894.595 254.133 894.77 254.335 895.43 254.248C899.607 253.692 903.107 254.238 906.491 254.765C908.48 255.109 910.485 255.349 912.499 255.484C913.41 255.533 914.266 255.595 915.092 255.656C919.517 255.981 923.012 256.237 928.648 253.665C929.25 253.391 929.797 253.129 930.301 252.888C932.232 251.965 933.509 251.36 934.741 251.462C935.057 251.493 935.374 251.531 935.698 251.57C936.989 251.774 938.299 251.824 939.601 251.718C939.832 251.691 940.067 251.666 940.305 251.64C942.001 251.456 943.923 251.247 945.266 250.573C946.515 249.947 947.193 250.143 947.542 250.418C947.734 250.588 947.873 250.81 947.941 251.057C948.009 251.305 948.004 251.567 947.926 251.811C947.7 252.792 946.673 254.017 944.953 254.389C944.833 254.415 944.708 254.392 944.604 254.325C944.501 254.258 944.428 254.153 944.403 254.032C944.377 253.912 944.399 253.786 944.466 253.682C944.533 253.578 944.638 253.505 944.758 253.479C946.173 253.173 946.888 252.189 947.023 251.602C947.072 251.388 947.051 251.215 946.969 251.149C946.856 251.06 946.459 251.014 945.68 251.405C944.188 252.154 942.178 252.372 940.405 252.564C940.168 252.589 939.935 252.615 939.706 252.641C938.332 252.755 936.95 252.705 935.588 252.493C935.269 252.455 934.957 252.418 934.654 252.387C933.682 252.306 932.493 252.871 930.698 253.729C930.19 253.972 929.637 254.236 929.03 254.512C925.044 256.333 922.101 256.789 919.187 256.789ZM900.203 228.172C900.008 228.173 899.815 228.217 899.638 228.299C898.7 228.729 897.727 230.351 897.808 233.614C897.835 236.414 897.535 239.209 896.913 241.939C897.422 240.968 897.947 240.047 898.468 239.137C899.629 237.105 900.727 235.185 901.54 232.852C902.304 230.659 901.833 229.197 901.138 228.559C900.887 228.316 900.552 228.177 900.203 228.172Z" fill="#1A1A1A"/>
</svg>
