<svg width="125" height="150" viewBox="0 0 125 150" fill="none" xmlns="http://www.w3.org/2000/svg">
<g clip-path="url(#clip0)">
<path d="M122.176 146.379C121.873 146.379 121.587 146.197 121.472 145.9C105.18 104.023 69.9031 57.9712 24.6843 19.5515C24.3681 19.2827 24.3322 18.8109 24.6038 18.498C24.8746 18.1847 25.3512 18.1492 25.6683 18.4179C46.51 36.126 65.9927 56.1917 82.0091 76.4439C100.372 99.6643 114.123 122.852 122.88 145.363C123.03 145.748 122.837 146.18 122.447 146.328C122.358 146.363 122.266 146.379 122.176 146.379Z" fill="#23286B"/>
<path d="M38.359 1.51247C42.5225 5.24061 39.4408 15.3258 31.4762 24.0382C23.5117 32.7506 13.6795 36.7908 9.51601 33.0626C5.35251 29.3345 8.43426 19.2493 16.3988 10.5369C24.3633 1.82447 34.1955 -2.21567 38.359 1.51247Z" fill="#E94A47"/>
<path d="M21.1753 16.5842C20.9945 16.5842 20.8133 16.5204 20.6684 16.3905C13.4561 9.92249 7.38684 5.43707 0.375164 1.39307C0.0153027 1.18521 -0.10667 0.727923 0.102673 0.371352C0.312881 0.0147804 0.774818 -0.105648 1.13468 0.102209C8.24238 4.20149 14.3877 8.74178 21.6823 15.2839C21.9911 15.5608 22.0149 16.0331 21.735 16.3391C21.5858 16.5011 21.3812 16.5842 21.1753 16.5842Z" fill="#23286B"/>
<path d="M112.097 150C111.809 150 111.534 149.836 111.408 149.559C99.4996 123.356 78.1168 88.6483 43.8785 72.111C43.5039 71.9302 43.3486 71.4827 43.5316 71.112C43.7141 70.7409 44.1657 70.587 44.5411 70.7683C79.1851 87.5019 100.775 122.519 112.785 148.947C112.956 149.323 112.787 149.765 112.407 149.934C112.306 149.979 112.2 150 112.097 150Z" fill="#23286B"/>
<path d="M45.8434 50.9275C50.4039 52.2869 51.7469 61.1254 48.8425 70.6688C45.9381 80.2118 39.8867 86.8461 35.3261 85.4867C30.7655 84.1273 29.4225 75.2888 32.327 65.7454C35.2314 56.2019 41.2824 49.5681 45.8434 50.9275Z" fill="#D62929"/>
<path d="M40.4615 69.429C40.3456 69.429 40.2283 69.4024 40.1185 69.3471C32.17 65.3246 23.6483 62.7266 14.7915 61.6269C14.378 61.5754 14.0843 61.2021 14.1367 60.7929C14.1881 60.3836 14.5683 60.0964 14.9796 60.1449C24.0121 61.2669 32.7007 63.9154 40.8062 68.0177C41.1777 68.2054 41.3248 68.6559 41.1349 69.0231C41.0004 69.2799 40.7357 69.429 40.4615 69.429Z" fill="#23286B"/>
<path d="M123.015 145.801L121.538 145.649C120.133 128.024 116.92 110.436 111.987 93.3745C109.933 89.4681 107.533 85.2783 104.655 80.5696C99.228 71.6926 93.5143 62.8251 87.6739 54.2121C84.5606 49.6216 75.6151 32.3399 77.2695 29.2692C77.5087 28.8243 77.9382 28.5702 78.4477 28.5702C79.0965 28.5702 79.8953 28.9876 80.9615 29.8842C91.843 39.032 98.2189 52.0002 103.488 64.6512C107.298 73.7973 110.631 83.2739 113.396 92.8195C124.438 113.858 127.494 130.694 123.015 145.801ZM115.494 100.484C118.92 113.787 121.315 127.358 122.64 140.979C124.923 129.115 122.614 116.01 115.494 100.484ZM78.5541 30.0856C77.8733 32.2949 84.6938 47.1376 88.9274 53.3798C94.7816 62.0121 100.507 70.9002 105.946 79.7965C107.363 82.1133 108.664 84.3055 109.866 86.4016C107.575 79.2273 104.971 72.1293 102.093 65.2208C96.8953 52.7433 90.6203 39.9646 79.9844 31.0225C79.1678 30.3355 78.7362 30.1409 78.5541 30.0856Z" fill="#23286B"/>
</g>
<defs>
<clipPath id="clip0">
<rect width="125" height="150" fill="white"/>
</clipPath>
</defs>
</svg>
