<svg width="41" height="41" viewBox="0 0 41 41" fill="none" xmlns="http://www.w3.org/2000/svg">
<path opacity="0.35" d="M27.1667 35.5H13.8333C9.23167 35.5 5.5 31.7683 5.5 27.1667V13.8333C5.5 9.23167 9.23167 5.5 13.8333 5.5H27.1667C31.7683 5.5 35.5 9.23167 35.5 13.8333V27.1667C35.5 31.7683 31.7683 35.5 27.1667 35.5Z" fill="#F30101"/>
<path d="M20.4998 12.1667C15.8982 12.1667 12.1665 15.8984 12.1665 20.5001C12.1665 25.1017 15.8982 28.8334 20.4998 28.8334C25.1015 28.8334 28.8332 25.1017 28.8332 20.5001C28.8332 15.8984 25.1015 12.1667 20.4998 12.1667ZM20.4998 25.5001C17.7382 25.5001 15.4998 23.2617 15.4998 20.5001C15.4998 17.7384 17.7382 15.5001 20.4998 15.5001C23.2615 15.5001 25.4998 17.7384 25.4998 20.5001C25.4998 23.2617 23.2615 25.5001 20.4998 25.5001Z" fill="#F30101"/>
<path d="M28.8332 13.8333C29.7536 13.8333 30.4998 13.0871 30.4998 12.1667C30.4998 11.2462 29.7536 10.5 28.8332 10.5C27.9127 10.5 27.1665 11.2462 27.1665 12.1667C27.1665 13.0871 27.9127 13.8333 28.8332 13.8333Z" fill="#F30101"/>
</svg>
