<svg width="40" height="41" viewBox="0 0 40 41" fill="none" xmlns="http://www.w3.org/2000/svg">
<path opacity="0.35" d="M30 35.5H10C7.23833 35.5 5 33.2617 5 30.5V10.5C5 7.73833 7.23833 5.5 10 5.5H30C32.7617 5.5 35 7.73833 35 10.5V30.5C35 33.2617 32.7617 35.5 30 35.5Z" fill="#EDAB00"/>
<path d="M15.0002 28.8333H10.7952V17.1667H15.0002V28.8333ZM12.8235 15.0283C11.5385 15.0283 10.6802 14.1717 10.6802 13.0283C10.6802 11.885 11.5368 11.0283 12.9652 11.0283C14.2502 11.0283 15.1085 11.885 15.1085 13.0283C15.1085 14.1717 14.2518 15.0283 12.8235 15.0283ZM30.0002 28.8333H25.9302V22.4567C25.9302 20.6933 24.8452 20.2867 24.4385 20.2867C24.0318 20.2867 22.6752 20.5583 22.6752 22.4567C22.6752 22.7283 22.6752 28.8333 22.6752 28.8333H18.4702V17.1667H22.6752V18.795C23.2168 17.845 24.3018 17.1667 26.3368 17.1667C28.3718 17.1667 30.0002 18.795 30.0002 22.4567V28.8333Z" fill="#EDAB00"/>
</svg>
