<svg width="40" height="41" viewBox="0 0 40 41" fill="none" xmlns="http://www.w3.org/2000/svg">
<path d="M11.6667 18.8999C15.3486 18.8999 18.3333 15.9151 18.3333 12.2332C18.3333 8.5513 15.3486 5.56653 11.6667 5.56653C7.98477 5.56653 5 8.5513 5 12.2332C5 15.9151 7.98477 18.8999 11.6667 18.8999Z" fill="#409DF3"/>
<path opacity="0.35" d="M28.3333 18.8999C32.0152 18.8999 35 15.9151 35 12.2332C35 8.5513 32.0152 5.56653 28.3333 5.56653C24.6514 5.56653 21.6666 8.5513 21.6666 12.2332C21.6666 15.9151 24.6514 18.8999 28.3333 18.8999Z" fill="#409DF3"/>
<path d="M28.3333 35.5665C32.0152 35.5665 35 32.5817 35 28.8998C35 25.2179 32.0152 22.2332 28.3333 22.2332C24.6514 22.2332 21.6666 25.2179 21.6666 28.8998C21.6666 32.5817 24.6514 35.5665 28.3333 35.5665Z" fill="#409DF3"/>
<path opacity="0.35" d="M11.6667 35.5665C15.3486 35.5665 18.3333 32.5817 18.3333 28.8998C18.3333 25.2179 15.3486 22.2332 11.6667 22.2332C7.98477 22.2332 5 25.2179 5 28.8998C5 32.5817 7.98477 35.5665 11.6667 35.5665Z" fill="#409DF3"/>
</svg>
