<svg width="80" height="80" viewBox="0 0 80 80" fill="none" xmlns="http://www.w3.org/2000/svg">
<path d="M40 80C62.0914 80 80 62.0914 80 40C80 17.9086 62.0914 0 40 0C17.9086 0 0 17.9086 0 40C0 62.0914 17.9086 80 40 80Z" fill="#E94A47"/>
<path d="M40 66C54.3594 66 66 54.3594 66 40C66 25.6406 54.3594 14 40 14C25.6406 14 14 25.6406 14 40C14 54.3594 25.6406 66 40 66Z" fill="#EEEEEE"/>
<path d="M40 50C45.5228 50 50 45.5228 50 40C50 34.4772 45.5228 30 40 30C34.4772 30 30 34.4772 30 40C30 45.5228 34.4772 50 40 50Z" fill="#E94A47"/>
<path opacity="0.51" d="M43.737 28.154C43.882 28.204 44.04 28.125 44.089 27.98C44.138 27.835 44.06 27.676 43.916 27.627C43.771 27.577 43.613 27.656 43.563 27.801C43.516 27.947 43.592 28.104 43.737 28.154ZM45.879 21.692C46.03 21.738 46.19 21.66 46.251 21.513C46.293 21.364 46.208 21.208 46.06 21.164C45.926 21.109 45.772 21.172 45.717 21.307C45.712 21.316 45.71 21.326 45.707 21.339C45.656 21.485 45.734 21.643 45.879 21.692ZM72.139 25.953C72.207 26.095 72.378 26.154 72.519 26.086C72.65 26.027 72.709 25.873 72.65 25.743C72.647 25.732 72.64 25.721 72.632 25.711C72.569 25.573 72.409 25.512 72.27 25.573C72.129 25.641 72.071 25.811 72.139 25.953ZM33.161 17.89C33.274 17.988 33.445 17.978 33.546 17.866C33.644 17.752 33.634 17.582 33.522 17.48C33.41 17.379 33.238 17.392 33.137 17.504C33.037 17.605 33.038 17.771 33.14 17.871C33.148 17.879 33.153 17.885 33.161 17.89ZM57.685 26.141C57.707 26.296 57.841 26.408 57.996 26.406C58.155 26.394 58.273 26.254 58.261 26.094C58.249 25.935 58.11 25.815 57.95 25.829C57.795 25.852 57.682 25.987 57.685 26.141ZM57.198 19.347C57.213 19.5 57.352 19.61 57.505 19.594C57.653 19.594 57.774 19.474 57.775 19.325C57.774 19.317 57.775 19.31 57.774 19.301C57.757 19.144 57.622 19.028 57.463 19.036C57.31 19.058 57.195 19.193 57.198 19.347ZM6.908 32.605C7.112 32.811 7.447 32.815 7.655 32.61C7.66 32.607 7.663 32.601 7.668 32.597C7.871 32.394 7.871 32.061 7.668 31.858C7.667 31.857 7.666 31.857 7.665 31.856C7.461 31.65 7.126 31.646 6.918 31.851C6.913 31.854 6.91 31.86 6.905 31.864C6.702 32.067 6.702 32.4 6.905 32.603C6.905 32.605 6.905 32.605 6.908 32.605ZM15.975 23.436C16.185 23.645 16.524 23.646 16.736 23.436C16.947 23.226 16.946 22.886 16.736 22.674C16.733 22.672 16.733 22.669 16.729 22.667C16.526 22.464 16.194 22.464 15.992 22.667C15.991 22.668 15.991 22.669 15.99 22.67C15.781 22.884 15.777 23.22 15.975 23.436ZM47.912 61.98C47.919 62.274 48.16 62.509 48.454 62.508C48.738 62.516 48.975 62.295 48.985 62.012C48.985 62.001 48.987 61.993 48.985 61.983C48.978 61.688 48.737 61.454 48.442 61.455C48.151 61.455 47.914 61.689 47.912 61.98ZM47.8 36.15C47.8 36.442 48.033 36.676 48.324 36.677C48.329 36.677 48.336 36.677 48.342 36.675C48.626 36.683 48.863 36.462 48.873 36.179C48.873 36.168 48.875 36.16 48.873 36.15C48.861 35.853 48.623 35.615 48.327 35.603C48.032 35.614 47.797 35.856 47.8 36.15ZM47.736 23.245C47.739 23.54 47.983 23.778 48.278 23.773C48.574 23.77 48.809 23.526 48.805 23.23C48.807 22.938 48.573 22.701 48.282 22.697C47.988 22.692 47.742 22.927 47.736 23.223C47.735 23.232 47.736 23.239 47.736 23.245ZM22.537 51.218C22.811 51.321 23.115 51.181 23.217 50.906C23.32 50.632 23.18 50.327 22.906 50.224C22.637 50.124 22.339 50.256 22.232 50.523C22.129 50.799 22.264 51.108 22.537 51.218ZM27.418 39.26C27.692 39.363 27.996 39.223 28.098 38.948C28.201 38.674 28.061 38.369 27.787 38.266C27.518 38.166 27.22 38.298 27.113 38.565C27.009 38.841 27.144 39.149 27.418 39.26ZM32.303 27.319C32.583 27.424 32.895 27.281 33 27C33.101 26.73 32.974 26.426 32.71 26.311C32.436 26.19 32.117 26.316 31.996 26.591C31.875 26.865 32.001 27.185 32.275 27.307C32.286 27.314 32.294 27.317 32.303 27.319ZM71.582 51.128C71.702 51.397 72.014 51.523 72.287 51.405C72.554 51.297 72.68 50.991 72.571 50.725C72.57 50.724 72.57 50.722 72.569 50.72C72.476 50.453 72.185 50.313 71.918 50.404C71.906 50.409 71.893 50.413 71.879 50.419C71.612 50.542 71.485 50.851 71.582 51.128ZM61.622 27.304C61.725 27.567 62.019 27.699 62.283 27.596C62.29 27.594 62.298 27.591 62.305 27.585C62.579 27.482 62.715 27.175 62.612 26.901C62.609 26.892 62.607 26.884 62.603 26.876C62.486 26.603 62.172 26.478 61.9 26.594C61.628 26.711 61.503 27.027 61.619 27.297C61.621 27.3 61.622 27.302 61.622 27.304ZM10.964 46.115C11.196 46.236 11.481 46.147 11.606 45.919C11.728 45.689 11.641 45.401 11.41 45.277C11.178 45.153 10.893 45.242 10.768 45.473C10.647 45.704 10.735 45.99 10.964 46.115ZM16.318 35.91C16.55 36.031 16.835 35.942 16.96 35.714C17.09 35.487 17.011 35.196 16.785 35.066C16.558 34.936 16.268 35.014 16.138 35.242C16.133 35.25 16.129 35.26 16.123 35.268C15.998 35.491 16.079 35.775 16.302 35.901C16.306 35.904 16.313 35.906 16.318 35.91ZM21.46 25.438C21.486 25.554 21.565 25.652 21.675 25.705C21.907 25.826 22.192 25.737 22.317 25.509C22.444 25.272 22.358 24.98 22.121 24.85C22.119 24.849 22.119 24.849 22.116 24.848C21.976 24.774 21.808 24.772 21.666 24.846L21.647 24.851C21.566 24.89 21.504 24.958 21.475 25.045C21.402 25.166 21.397 25.315 21.46 25.438ZM58.964 50.235C59.054 50.488 59.322 50.625 59.578 50.552C59.821 50.478 59.958 50.222 59.885 49.978C59.883 49.971 59.88 49.966 59.878 49.958C59.805 49.705 59.543 49.561 59.292 49.635C59.289 49.636 59.287 49.637 59.283 49.638C59.038 49.723 58.897 49.984 58.964 50.235ZM52.14 28.217C52.213 28.47 52.475 28.614 52.727 28.542C52.73 28.541 52.732 28.54 52.736 28.539C52.975 28.476 53.116 28.227 53.051 27.989C53.048 27.974 53.043 27.96 53.036 27.946C52.963 27.693 52.701 27.549 52.449 27.621C52.446 27.623 52.444 27.623 52.44 27.624C52.2 27.711 52.068 27.972 52.14 28.217ZM48.724 17.229C48.811 17.48 49.083 17.614 49.334 17.527C49.577 17.444 49.711 17.181 49.635 16.933C49.55 16.688 49.292 16.547 49.04 16.611C48.788 16.701 48.65 16.972 48.724 17.229ZM33.964 46.836C33.949 47.098 34.145 47.324 34.405 47.346C34.664 47.37 34.893 47.181 34.917 46.922C34.936 46.66 34.75 46.426 34.491 46.389C34.225 46.371 33.989 46.568 33.964 46.836ZM35.024 35.351C34.992 35.601 35.169 35.832 35.418 35.863C35.426 35.864 35.437 35.864 35.445 35.866C35.704 35.89 35.933 35.701 35.957 35.442C35.976 35.18 35.79 34.946 35.531 34.909C35.272 34.893 35.045 35.09 35.024 35.351ZM36.067 23.87C36.045 24.13 36.236 24.356 36.494 24.379C36.749 24.401 36.976 24.215 37.003 23.959C37.029 23.701 36.844 23.468 36.584 23.44C36.324 23.413 36.094 23.599 36.065 23.859C36.067 23.863 36.067 23.866 36.067 23.87ZM68.874 25.562C69.043 25.764 69.344 25.795 69.552 25.63C69.751 25.454 69.772 25.149 69.595 24.948C69.426 24.758 69.141 24.729 68.941 24.882C68.737 25.04 68.698 25.336 68.854 25.54C68.863 25.548 68.868 25.557 68.874 25.562ZM36.919 25.386C36.934 25.539 37.073 25.649 37.226 25.633C37.378 25.618 37.489 25.478 37.473 25.326C37.458 25.174 37.319 25.063 37.166 25.079C37.012 25.094 36.903 25.233 36.919 25.386ZM36.168 18.628C36.194 18.783 36.337 18.888 36.494 18.871C36.646 18.856 36.757 18.716 36.741 18.564C36.732 18.417 36.603 18.306 36.455 18.316C36.447 18.317 36.442 18.317 36.433 18.318C36.277 18.329 36.159 18.465 36.166 18.622C36.168 18.624 36.168 18.626 36.168 18.628ZM23.358 20.748C23.506 20.78 23.654 20.699 23.707 20.556C23.753 20.413 23.673 20.257 23.528 20.21C23.523 20.208 23.519 20.208 23.513 20.205C23.373 20.157 23.221 20.231 23.172 20.371C23.17 20.38 23.167 20.388 23.165 20.396C23.125 20.549 23.21 20.705 23.358 20.748ZM49.042 17.981C49.115 18.118 49.282 18.167 49.417 18.095C49.554 18.022 49.603 17.855 49.53 17.718C49.471 17.586 49.317 17.527 49.188 17.586C49.178 17.589 49.166 17.597 49.156 17.604C49.022 17.672 48.97 17.839 49.038 17.972C49.039 17.976 49.041 17.977 49.042 17.981ZM5.255 24.657C5.403 24.738 5.59 24.683 5.672 24.535C5.673 24.533 5.675 24.53 5.677 24.527C5.764 24.377 5.714 24.186 5.566 24.098C5.559 24.095 5.551 24.09 5.544 24.086C5.396 24.005 5.209 24.06 5.127 24.208C5.126 24.21 5.124 24.213 5.122 24.216C5.04 24.376 5.1 24.57 5.255 24.657ZM37.553 27.791C37.592 27.951 37.754 28.048 37.912 28.01C37.924 28.008 37.936 28.003 37.948 27.998C38.114 27.945 38.207 27.768 38.156 27.602C38.097 27.437 37.926 27.34 37.755 27.376C37.586 27.432 37.495 27.618 37.553 27.791C37.552 27.788 37.552 27.788 37.553 27.791ZM35.311 20.36C35.368 20.532 35.551 20.623 35.725 20.563L35.726 20.562C35.892 20.509 35.985 20.332 35.934 20.166C35.875 20.001 35.704 19.904 35.533 19.94C35.362 20.002 35.267 20.183 35.311 20.36ZM21.46 25.438C21.499 25.462 21.543 25.479 21.588 25.487C21.76 25.507 21.916 25.381 21.934 25.208C21.934 25.205 21.935 25.203 21.936 25.197C21.951 25.025 21.833 24.874 21.666 24.845L21.647 24.85C21.475 24.83 21.319 24.956 21.301 25.129C21.301 25.132 21.3 25.137 21.299 25.14C21.284 25.266 21.349 25.383 21.46 25.438ZM49.845 17.085C49.956 17.222 50.156 17.242 50.293 17.131C50.295 17.128 50.3 17.126 50.3 17.124C50.432 17.014 50.451 16.818 50.342 16.685C50.244 16.547 50.055 16.513 49.916 16.611C49.909 16.616 49.906 16.619 49.898 16.623C49.758 16.736 49.733 16.94 49.845 17.085ZM11.642 58.34C11.63 58.644 11.855 58.904 12.161 58.934C12.462 58.959 12.728 58.737 12.755 58.435C12.77 58.13 12.542 57.867 12.236 57.841C11.934 57.815 11.668 58.037 11.642 58.34ZM12.727 45.069C12.701 45.371 12.923 45.637 13.225 45.665C13.526 45.693 13.792 45.468 13.819 45.166C13.845 44.864 13.623 44.598 13.321 44.57C13.022 44.544 12.756 44.768 12.727 45.069ZM13.795 31.803C13.78 32.108 14.008 32.371 14.312 32.397C14.613 32.412 14.87 32.178 14.885 31.878C14.9 31.578 14.667 31.319 14.366 31.304C14.075 31.286 13.819 31.509 13.795 31.803ZM56.419 31.418C56.618 31.644 56.959 31.675 57.193 31.484C57.426 31.288 57.456 30.941 57.259 30.708C57.063 30.475 56.717 30.445 56.485 30.642C56.257 30.839 56.227 31.183 56.419 31.418ZM47.819 21.274C48.017 21.502 48.36 21.534 48.593 21.34C48.823 21.134 48.85 20.785 48.655 20.545C48.447 20.318 48.096 20.304 47.871 20.509C47.655 20.711 47.632 21.046 47.819 21.274ZM33.118 36.915C33.214 37.208 33.526 37.367 33.818 37.274C33.818 37.274 33.818 37.274 33.819 37.273C34.1 37.18 34.253 36.876 34.16 36.595C34.074 36.306 33.77 36.143 33.481 36.229C33.191 36.315 33.03 36.619 33.116 36.909C33.116 36.911 33.117 36.915 33.118 36.915ZM29.047 24.251C29.132 24.537 29.432 24.7 29.718 24.616C29.721 24.615 29.725 24.614 29.728 24.613C30.022 24.527 30.193 24.22 30.107 23.924C30.021 23.629 29.714 23.459 29.418 23.544C29.124 23.63 28.953 23.937 29.039 24.233C29.043 24.24 29.045 24.246 29.047 24.251ZM25.949 41.688C26.035 41.982 26.342 42.152 26.635 42.068C26.919 41.982 27.086 41.686 27.018 41.399C26.928 41.105 26.626 40.931 26.328 41.001C26.04 41.092 25.873 41.394 25.949 41.688ZM22.42 28.906C22.506 29.201 22.813 29.37 23.106 29.286C23.396 29.207 23.568 28.906 23.489 28.617C23.41 28.327 23.11 28.154 22.82 28.233C22.53 28.313 22.353 28.611 22.42 28.906ZM3.088 35.99C3.056 36.288 3.269 36.554 3.563 36.591C3.564 36.59 3.565 36.593 3.566 36.591C3.867 36.633 4.143 36.425 4.187 36.126C4.219 35.822 4.004 35.549 3.702 35.506C3.403 35.478 3.133 35.691 3.088 35.99ZM4.721 22.817C4.678 23.116 4.888 23.392 5.186 23.435C5.484 23.478 5.76 23.268 5.803 22.969C5.803 22.966 5.804 22.961 5.804 22.954C5.833 22.653 5.62 22.379 5.319 22.334C5.022 22.299 4.756 22.515 4.719 22.81C4.723 22.815 4.723 22.815 4.721 22.817ZM50.516 36.445C50.709 36.681 51.057 36.72 51.295 36.531C51.529 36.345 51.571 36.004 51.385 35.769C51.213 35.529 50.879 35.474 50.64 35.646C50.633 35.651 50.627 35.654 50.621 35.661C50.376 35.842 50.324 36.186 50.507 36.431C50.508 36.436 50.512 36.44 50.516 36.445ZM42.375 25.987C42.568 26.223 42.916 26.262 43.154 26.073C43.388 25.887 43.43 25.546 43.244 25.311C43.072 25.071 42.738 25.016 42.499 25.188C42.492 25.193 42.486 25.196 42.48 25.203C42.235 25.384 42.184 25.73 42.366 25.973C42.368 25.977 42.372 25.981 42.375 25.987ZM28.057 31.617C28.164 31.819 28.414 31.897 28.617 31.789C28.813 31.684 28.891 31.444 28.796 31.243C28.703 31.046 28.467 30.959 28.27 31.05C28.258 31.055 28.244 31.063 28.233 31.07C28.036 31.175 27.959 31.419 28.057 31.617ZM23.459 22.76C23.566 22.964 23.821 23.04 24.022 22.932C24.224 22.825 24.301 22.569 24.194 22.368C24.091 22.166 23.844 22.086 23.644 22.189C23.639 22.191 23.636 22.194 23.631 22.196C23.431 22.307 23.355 22.556 23.459 22.76ZM6.878 32.201C6.902 32.426 7.104 32.591 7.328 32.571C7.551 32.537 7.71 32.344 7.698 32.12C7.678 31.894 7.478 31.727 7.252 31.747C7.251 31.748 7.251 31.748 7.249 31.747C7.031 31.762 6.863 31.949 6.875 32.168C6.875 32.182 6.876 32.191 6.878 32.201ZM6.001 22.229C6.026 22.459 6.226 22.629 6.456 22.619C6.682 22.599 6.849 22.399 6.828 22.172C6.827 22.171 6.827 22.171 6.828 22.169C6.816 21.949 6.63 21.781 6.41 21.792C6.405 21.792 6.401 21.794 6.395 21.794C6.167 21.804 5.991 21.995 6 22.223C6.001 22.224 6.001 22.226 6.001 22.229Z" fill="white"/>
</svg>
