<svg width="41" height="41" viewBox="0 0 41 41" fill="none" xmlns="http://www.w3.org/2000/svg">
<path opacity="0.35" d="M30.9164 7.61182H19.2497C16.948 7.61182 15.083 9.47531 15.083 11.7751V25.8687L8.41638 25.9303V32.5916H15.083V33.4242C15.083 35.724 16.948 37.5875 19.2497 37.5875H30.9164C33.2181 37.5875 35.083 35.724 35.083 33.4242V11.7751C35.083 9.47531 33.2181 7.61182 30.9164 7.61182Z" fill="#1660A7"/>
<path d="M28.4163 30.9263C28.1063 30.9263 22.0597 30.9263 21.7497 30.9263C20.8297 30.9263 20.083 31.6723 20.083 32.5916C20.083 33.5108 20.8297 34.2569 21.7497 34.2569C22.0597 34.2569 28.1063 34.2569 28.4163 34.2569C29.3363 34.2569 30.083 33.5108 30.083 32.5916C30.083 31.6723 29.3363 30.9263 28.4163 30.9263Z" fill="#1660A7"/>
<path d="M24.9997 7.61188H19.2497C16.9497 7.61188 15.083 9.47704 15.083 11.7752V27.5957H11.7497C10.833 27.5957 10.083 28.3451 10.083 29.261C10.083 30.1769 10.833 30.9263 11.7497 30.9263H15.083V33.4243C15.083 33.7074 15.1163 33.9905 15.1663 34.257H9.24967C6.94967 34.257 5.08301 32.3918 5.08301 30.0937V8.44454C5.08301 6.14641 6.94967 4.28125 9.24967 4.28125H20.9163C22.933 4.28125 24.6163 5.71342 24.9997 7.61188Z" fill="#1660A7"/>
</svg>
