<svg width="32" height="29" viewBox="0 0 32 29" fill="none" xmlns="http://www.w3.org/2000/svg">
<path d="M1.82005 25.9691L0.864258 24.763C4.51319 21.4231 6.41319 17.7699 6.51276 13.9051C6.67284 7.68536 2.09945 2.9712 2.0531 2.92442L3.10804 1.80038C3.14237 1.83 6.65267 4.82699 11.7338 6.1609C18.4673 7.92785 24.6677 6.08107 30.1634 0.672485L31.248 1.76948C31.2132 1.80425 27.7085 5.32914 25.7295 10.3085C23.1274 16.8557 24.2698 22.7334 29.1248 27.7785L28.102 28.9274C22.0986 24.3618 15.8578 22.4733 9.55353 23.315C4.84108 23.9433 1.84967 25.9489 1.82005 25.9691ZM5.75525 5.41068C6.97413 7.5506 8.1428 10.518 8.05482 13.945C7.9737 17.0982 6.83937 20.1025 4.67499 22.9137C5.93422 22.4648 7.48143 22.0416 9.26812 21.7969C13.1368 21.2669 18.7827 21.5317 25.1475 25.1283C21.757 19.4145 22.6934 13.7472 24.3136 9.69437C24.9295 8.15274 25.6733 6.7536 26.4209 5.54201C20.6913 8.94931 15.2192 8.6815 11.2849 7.63815C9.11919 7.06347 7.2398 6.22184 5.75525 5.41068Z" fill="white"/>
</svg>
