<svg width="24" height="24" viewBox="0 0 24 24" fill="none" xmlns="http://www.w3.org/2000/svg">
<path d="M3.08594 7.51999C3.30794 9.17299 4.17694 12.972 7.60294 16.398C11.0289 19.824 14.8269 20.693 16.4809 20.915C17.6789 21.174 18.9779 20.845 19.9089 19.914C21.3649 18.458 16.0909 13.184 14.6349 14.64L13.7059 15.569L8.43194 10.295L9.35994 9.36599C10.8159 7.90999 5.54194 2.63599 4.08594 4.09199C3.15494 5.02299 2.82594 6.32199 3.08594 7.51999Z" fill="#FB6F7B"/>
<path opacity="0.35" d="M4.08911 4.08888L9.36211 9.36188C10.8151 7.90488 10.8151 5.54688 9.35911 4.09088C7.90511 2.63688 5.54611 2.63588 4.08911 4.08888Z" fill="#FB6F7B"/>
<path opacity="0.35" d="M14.637 14.637L19.91 19.91C21.363 18.454 21.363 16.095 19.907 14.639C18.452 13.185 16.094 13.184 14.637 14.637Z" fill="#FB6F7B"/>
</svg>
