<svg width="42" height="42" viewBox="0 0 42 42" fill="none" xmlns="http://www.w3.org/2000/svg">
<path d="M32.375 34.125C37.6907 34.125 42 29.8157 42 24.5C42 19.1843 37.6907 14.875 32.375 14.875C27.0593 14.875 22.75 19.1843 22.75 24.5C22.75 29.8157 27.0593 34.125 32.375 34.125Z" fill="#FB6F7B"/>
<path d="M27.6447 8.17074C25.298 12.656 22.75 18.8335 22.75 24.5H31.5V9.10174C31.5 6.95974 28.637 6.27374 27.6447 8.17074Z" fill="#FB6F7B"/>
<path opacity="0.35" d="M9.625 14.875C9.32925 14.875 9.03875 14.8925 8.75 14.9187V9.10174C8.75 6.95974 5.887 6.27374 4.89475 8.17074C2.68625 12.3917 0.32725 18.1055 0.05425 23.4885C0.01925 23.821 0 24.1587 0 24.5C0 29.8165 4.3085 34.125 9.625 34.125C14.9415 34.125 19.25 29.8165 19.25 24.5C19.25 19.1835 14.9415 14.875 9.625 14.875Z" fill="#FB6F7B"/>
</svg>
