<svg width="42" height="42" viewBox="0 0 42 42" fill="none" xmlns="http://www.w3.org/2000/svg">
<path d="M9.625 7.875C4.30926 7.875 0 12.1843 0 17.5C0 22.8157 4.30926 27.125 9.625 27.125C14.9407 27.125 19.25 22.8157 19.25 17.5C19.25 12.1843 14.9407 7.875 9.625 7.875Z" fill="#FB6F7B"/>
<path d="M14.3553 33.8293C16.702 29.344 19.25 23.1665 19.25 17.5H10.5V32.8983C10.5 35.0403 13.363 35.7263 14.3553 33.8293Z" fill="#FB6F7B"/>
<path opacity="0.35" d="M32.375 27.125C32.6707 27.125 32.9613 27.1075 33.25 27.0813V32.8983C33.25 35.0403 36.113 35.7263 37.1053 33.8293C39.3138 29.6083 41.6727 23.8945 41.9458 18.5115C41.9808 18.179 42 17.8413 42 17.5C42 12.1835 37.6915 7.87501 32.375 7.87501C27.0585 7.87501 22.75 12.1835 22.75 17.5C22.75 22.8165 27.0585 27.125 32.375 27.125Z" fill="#FB6F7B"/>
</svg>
