<svg width="426" height="426" viewBox="0 0 426 426" fill="none" xmlns="http://www.w3.org/2000/svg">
<g clip-path="url(#clip0)">
<path d="M290.699 156.764C302.783 152.987 309.546 140.1 305.777 128.036C302.007 115.972 289.108 109.228 277.024 113.005C264.941 116.781 258.177 129.668 261.947 141.732C265.717 153.797 278.615 160.54 290.699 156.764ZM277.744 115.307C288.556 111.928 300.096 117.961 303.469 128.756C306.843 139.55 300.791 151.081 289.979 154.46C279.167 157.838 267.626 151.805 264.253 141.011C260.88 130.216 266.931 118.685 277.744 115.307Z" fill="#A1C3FC"/>
<path d="M350.231 184.92C348.224 185.547 346.09 184.431 345.464 182.428C344.838 180.425 345.957 178.292 347.964 177.665C349.97 177.038 352.104 178.154 352.731 180.157C353.357 182.161 352.237 184.293 350.231 184.92Z" fill="url(#paint0_linear)"/>
<path d="M350.931 175.035C347.515 176.103 343.881 174.203 342.816 170.793C341.75 167.382 343.655 163.752 347.071 162.684C350.487 161.617 354.121 163.516 355.186 166.927C356.252 170.337 354.347 173.968 350.931 175.035Z" fill="url(#paint1_linear)"/>
<path d="M269.561 131.558L248.453 125.53L254.508 104.445L275.616 110.472L269.561 131.558Z" fill="#F1B505"/>
<path d="M321.127 132.93L353.175 120.542L345.872 150.278L321.127 132.93Z" fill="#A1C3FC"/>
<path d="M183.172 181.341L163.012 144.82L135.9 177.314L183.172 181.341ZM162.603 149.072L178.879 178.558L140.715 175.307L162.603 149.072Z" fill="url(#paint2_linear)"/>
<path d="M341.355 177.861C340.711 177.322 339.846 177.053 338.952 177.194L327.635 178.973C326.843 179.098 326.143 179.526 325.667 180.178C325.191 180.829 324.998 181.625 325.122 182.417C325.246 183.209 325.677 183.905 326.326 184.381C326.978 184.855 327.774 185.048 328.568 184.923L339.885 183.144C341.528 182.886 342.655 181.341 342.398 179.7C342.281 178.953 341.896 178.312 341.355 177.861ZM327.096 183.148C326.816 182.914 326.615 182.58 326.555 182.192C326.421 181.34 327.007 180.538 327.86 180.404L339.177 178.625C340.03 178.491 340.832 179.075 340.966 179.926C341.1 180.779 340.514 181.58 339.661 181.715L328.343 183.494C327.88 183.566 327.431 183.427 327.096 183.148Z" fill="url(#paint3_linear)"/>
<path d="M132.763 166.017C132.725 163.6 131.615 161.225 129.541 159.658C125.963 156.956 120.848 157.666 118.139 161.242L100.37 184.698C99.0618 186.424 98.5075 188.564 98.8047 190.718C99.103 192.874 100.219 194.779 101.946 196.083C105.524 198.785 110.639 198.075 113.348 194.499L131.117 171.043C132.254 169.541 132.79 167.768 132.763 166.017ZM101.09 189.687C101.07 188.445 101.449 187.188 102.257 186.124L120.026 162.668C120.952 161.445 122.306 160.655 123.838 160.442C125.371 160.229 126.888 160.62 128.111 161.544C130.649 163.461 131.15 167.08 129.23 169.618L111.46 193.073C110.534 194.295 109.18 195.086 107.647 195.298C106.115 195.511 104.598 195.121 103.375 194.197C101.903 193.086 101.117 191.401 101.09 189.687Z" fill="#A6BFFF"/>
<path d="M328.235 167.558C330.553 166.834 332.596 165.229 333.81 162.916C334.986 160.674 335.218 158.111 334.464 155.697C333.71 153.283 332.059 151.308 329.816 150.135C325.186 147.714 319.443 149.509 317.016 154.135C315.839 156.376 315.607 158.94 316.361 161.354C317.115 163.768 318.766 165.743 321.009 166.916C323.324 168.126 325.918 168.282 328.235 167.558ZM323.092 151.101C324.997 150.505 327.128 150.634 329.031 151.629C330.875 152.593 332.232 154.216 332.852 156.2C333.472 158.184 333.281 160.291 332.314 162.133C330.318 165.936 325.598 167.411 321.792 165.421C319.949 164.457 318.592 162.834 317.972 160.85C317.352 158.866 317.543 156.758 318.51 154.917C319.508 153.015 321.187 151.696 323.092 151.101Z" fill="#F1B505"/>
<path d="M350.787 140.669L315.529 114.905L283.586 151.405L312.28 176.974L350.787 140.669Z" fill="url(#paint4_linear)"/>
<path d="M294.732 90.7197L315.529 114.905L283.586 151.405L262.755 132.844L294.732 90.7197Z" fill="url(#paint5_linear)"/>
<path d="M320.075 118.226L314 113.141L280.782 148.921L286.516 153.93L320.075 118.226Z" fill="url(#paint6_linear)"/>
<path d="M342.121 143.272L313.271 117.486L287.458 146.981L311.794 168.666L342.121 143.272Z" fill="#D6D7D8"/>
<path d="M298.971 98.1692L313.271 117.486L287.458 146.981L269.746 127.943L298.971 98.1692Z" fill="#D6D7D8"/>
<path d="M297.68 100.853L313.271 117.486L287.458 146.981L271.568 130.738L297.68 100.853Z" fill="url(#paint7_linear)"/>
<path d="M316.106 122.127L313.884 120.674C317.801 114.599 324.341 110.924 330.543 111.312C331.635 111.38 332.448 111.767 332.959 112.463C333.832 113.653 333.466 115.223 333.143 116.609C332.98 117.305 332.796 118.095 332.869 118.496C332.927 118.817 332.993 119.179 333.11 119.351C333.384 119.758 334.476 119.662 335.704 119.129C340.241 117.16 344.476 114.556 348.293 111.387L349.971 113.453C345.959 116.783 341.508 119.521 336.74 121.591C334.121 122.727 331.999 122.467 330.918 120.876C330.484 120.236 330.354 119.519 330.258 118.996C330.085 118.043 330.326 117.009 330.559 116.008C330.692 115.437 330.937 114.387 330.825 114.077C330.773 114.051 330.63 114.003 330.364 113.987C325.184 113.663 319.454 116.935 316.106 122.127Z" fill="#23286B"/>
<path d="M316.227 120.171L316.012 120.014C316.194 119.761 316.387 119.507 316.585 119.262L316.79 119.431C316.595 119.672 316.405 119.922 316.227 120.171Z" fill="#E94A47"/>
<path d="M318.141 117.939L317.956 117.748C318.438 117.274 318.954 116.82 319.49 116.4L319.652 116.611C319.124 117.025 318.616 117.472 318.141 117.939ZM321.298 115.458L321.16 115.23C321.734 114.873 322.335 114.543 322.945 114.25L323.057 114.492C322.457 114.781 321.864 115.106 321.298 115.458ZM324.909 113.722L324.823 113.469C325.462 113.243 326.118 113.051 326.772 112.898L326.831 113.159C326.186 113.31 325.539 113.499 324.909 113.722ZM328.8 112.813L328.771 112.547C329.446 112.468 330.127 112.428 330.796 112.429L330.795 112.697C330.135 112.697 329.464 112.736 328.8 112.813Z" fill="#E94A47"/>
<path d="M333.122 113.63C333.116 113.374 332.973 113.162 332.696 113.001L332.829 112.768C333.187 112.976 333.38 113.272 333.387 113.623L333.122 113.63Z" fill="#E94A47"/>
<path d="M337.951 136.736L313.271 117.486L287.458 146.981L311.782 166.572L337.951 136.736Z" fill="url(#paint8_linear)"/>
<path d="M333.107 120.824L333.164 120.562C333.452 120.625 333.753 120.659 334.059 120.662L334.054 120.93C333.731 120.926 333.412 120.891 333.107 120.824Z" fill="#E94A47"/>
<path d="M335.943 120.654L335.872 120.396C336.396 120.246 336.948 120.036 337.61 119.735L337.718 119.98C337.044 120.285 336.48 120.5 335.943 120.654ZM339.416 119.155L339.299 118.915C339.905 118.611 340.451 118.329 340.969 118.053L341.092 118.289C340.572 118.567 340.024 118.85 339.416 119.155ZM342.744 117.374L342.613 117.141C343.176 116.816 343.716 116.488 344.218 116.165L344.36 116.391C343.854 116.716 343.31 117.047 342.744 117.374ZM345.925 115.325L345.771 115.108C346.29 114.732 346.788 114.345 347.253 113.956L347.421 114.162C346.952 114.554 346.448 114.946 345.925 115.325Z" fill="#E94A47"/>
<path d="M348.831 112.886L348.646 112.695C348.869 112.476 349.087 112.252 349.296 112.029L349.489 112.212C349.278 112.438 349.057 112.665 348.831 112.886Z" fill="#E94A47"/>
<path d="M298.936 108.535L297.146 108.037L296.642 109.847L298.432 110.345L298.936 108.535Z" fill="white"/>
<path d="M321.101 152.972L319.311 152.473L318.807 154.283L320.597 154.782L321.101 152.972Z" fill="white"/>
<path d="M301.728 120.098L299.938 119.599L299.434 121.409L301.223 121.908L301.728 120.098Z" fill="white"/>
<path d="M314.929 139.492L313.14 138.994L312.636 140.804L314.425 141.302L314.929 139.492Z" fill="white"/>
<path d="M303.1 123.519L301.31 123.021L300.806 124.831L302.596 125.329L303.1 123.519Z" fill="white"/>
<path d="M291.895 117.932L290.105 117.434L289.601 119.244L291.391 119.743L291.895 117.932Z" fill="white"/>
<path d="M328.617 133.724L326.827 133.226L326.323 135.036L328.113 135.534L328.617 133.724Z" fill="white"/>
<path d="M281.964 253.415C281.964 259.958 276.686 265.228 270.134 265.228C270.042 265.228 270.042 265.228 269.951 265.228H153.835V260.412H270.316C274.229 260.23 277.232 256.958 277.05 253.142C276.868 249.416 273.774 246.417 270.043 246.417C269.952 246.417 269.861 246.417 269.77 246.417H153.835V241.51H270.042H270.134C276.686 241.601 281.964 246.872 281.964 253.415Z" fill="url(#paint9_linear)"/>
<path d="M151.742 348.015C151.742 351.741 154.745 354.831 158.476 355.012H274.957V359.828H158.749H158.658C152.106 359.828 146.828 354.558 146.828 348.015C146.828 341.472 152.106 336.202 158.658 336.202H275.048V341.018H159.113C159.022 341.018 158.931 341.018 158.84 341.018C154.927 340.926 151.742 344.107 151.742 348.015Z" fill="url(#paint10_linear)"/>
<path d="M169.123 300.851C169.123 304.576 172.126 307.666 175.857 307.848H291.701V312.573H175.493C168.942 312.482 163.663 307.121 163.754 300.578C163.845 294.125 169.032 288.946 175.493 288.855H291.792V293.853H176.494C176.403 293.853 176.312 293.853 176.221 293.853C172.308 293.853 169.123 296.943 169.123 300.851Z" fill="url(#paint11_linear)"/>
<path d="M214.805 276.497C214.805 276.679 214.805 276.861 214.805 276.952C214.805 280.677 217.809 283.767 221.539 283.949H221.812H279.871V288.766H163.572C157.02 288.766 151.742 283.404 151.742 276.861C151.742 270.318 157.02 265.048 163.572 265.048H279.78V269.864H221.995C221.903 269.864 221.812 269.864 221.722 269.864C221.539 269.864 221.449 269.864 221.267 269.864C217.991 270.046 215.352 272.59 214.805 275.771C214.805 276.134 214.805 276.315 214.805 276.497Z" fill="url(#paint12_linear)"/>
<path d="M226.453 205.434C226.453 205.706 226.453 205.888 226.453 206.16C226.453 209.886 229.456 212.976 233.187 213.158H275.047V217.974H165.847C159.295 217.974 154.017 212.613 154.017 206.07C154.017 199.527 159.295 194.347 165.847 194.256H274.957V199.072H233.642C233.551 199.072 233.46 199.072 233.37 199.072C233.279 199.072 233.097 199.072 233.006 199.072C229.73 199.254 226.909 201.708 226.454 204.979C226.453 205.161 226.453 205.342 226.453 205.434Z" fill="url(#paint13_linear)"/>
<path d="M292.52 324.296C292.52 330.839 287.242 336.11 280.69 336.11C280.69 336.11 280.599 336.11 280.507 336.11H164.3V331.293H227.727C231.458 331.112 234.461 328.022 234.461 324.296C234.461 324.114 234.461 323.932 234.461 323.841C234.189 320.388 231.458 317.571 227.91 317.298C227.727 317.298 227.637 317.298 227.455 317.298C227.363 317.298 227.272 317.298 227.182 317.298H164.391V312.482H280.599C280.599 312.482 280.69 312.482 280.781 312.482C287.151 312.483 292.52 317.754 292.52 324.296Z" fill="url(#paint14_linear)"/>
<path d="M289.426 229.787C289.426 236.33 284.148 241.6 277.596 241.6H277.413H161.115V236.784H276.959C280.872 236.602 283.875 233.331 283.693 229.514C283.511 225.789 280.417 222.79 276.686 222.79C276.595 222.79 276.504 222.79 276.413 222.79H161.115V217.973H277.323H277.505C284.057 217.883 289.426 223.244 289.426 229.787Z" fill="url(#paint15_linear)"/>
<path d="M234.371 324.296C234.371 328.022 231.368 331.112 227.637 331.294H168.941V317.299H227.819C231.277 317.572 234.098 320.298 234.37 323.842C234.371 323.933 234.371 324.115 234.371 324.296Z" fill="url(#paint16_linear)"/>
<path d="M283.784 229.787C283.875 226.062 280.872 222.881 277.141 222.79C277.05 222.79 276.959 222.79 276.868 222.79H166.393V236.785H277.049H277.322C281.054 236.512 283.784 233.423 283.784 229.787Z" fill="url(#paint17_linear)"/>
<path d="M276.959 253.414C277.05 249.598 274.047 246.508 270.225 246.417C270.134 246.417 270.043 246.417 269.952 246.417H158.476V260.411H270.225H270.498C274.229 260.139 277.05 257.05 276.959 253.414Z" fill="url(#paint18_linear)"/>
<path d="M275.048 270.044V284.039H221.449C217.718 283.857 214.715 280.767 214.715 277.041C214.715 276.86 214.715 276.678 214.715 276.587C214.715 276.405 214.715 276.223 214.806 276.042C215.261 272.77 217.991 270.317 221.267 270.135H275.049V270.044H275.048Z" fill="url(#paint19_linear)"/>
<path d="M270.953 341.017H158.84C158.749 341.017 158.658 341.017 158.567 341.017C154.654 341.199 151.651 344.379 151.833 348.287C151.924 351.831 154.745 354.739 158.294 355.011H158.567H270.953V341.017Z" fill="url(#paint20_linear)"/>
<path d="M270.589 199.163V213.157H233.096C229.365 212.975 226.362 209.885 226.362 206.159C226.362 205.887 226.362 205.705 226.362 205.433C226.362 205.341 226.362 205.16 226.362 205.069C226.908 201.797 229.638 199.344 232.914 199.163H270.589Z" fill="url(#paint21_linear)"/>
<path d="M286.241 293.853H176.039C175.948 293.853 175.857 293.853 175.766 293.853C171.853 294.035 168.941 297.397 169.123 301.214C169.305 304.667 172.035 307.484 175.493 307.848H175.766H286.15V293.853H286.241Z" fill="url(#paint22_linear)"/>
<path d="M267.108 265.886L259.072 288.258L315.808 288.26C315.808 288.26 312.899 282.66 303.201 278.513C293.504 274.364 284.452 265.886 284.452 265.886H267.108Z" fill="url(#paint23_linear)"/>
<path d="M233.839 265.886L225.802 288.258L282.539 288.26C282.539 288.26 279.63 282.66 269.932 278.513C260.235 274.364 252.357 265.883 252.357 265.883L233.839 265.886Z" fill="url(#paint24_linear)"/>
<path d="M265.872 164.185C249.096 162.451 222.534 161.632 222.534 161.632L183.281 168.471C183.281 168.471 175.189 186.471 207.297 188.136C222.597 188.93 255.337 195.442 263.178 192.146C264.627 191.531 266.302 192.205 266.918 193.652C267.087 194.047 267.164 194.475 267.142 194.905C266.978 197.982 266.965 199.578 262.604 211.412C255.984 229.378 260.364 253.776 267.108 265.886H284.451C285.332 260.941 296.235 194.393 296.585 183.654C297.136 166.748 277.713 165.41 265.872 164.185Z" fill="url(#paint25_linear)"/>
<path d="M173.528 154.811C173.528 154.811 160.463 184.447 191.403 193.178C206.146 197.338 237.795 197.059 246.174 195.58C247.724 195.301 249.207 196.329 249.487 197.876C249.563 198.298 249.543 198.733 249.427 199.147C248.583 202.111 248.216 203.664 241.333 214.238C229.532 232.369 227.524 252.146 233.839 265.885L252.355 265.883C252.355 265.883 279.03 202.841 283.16 192.441C289.031 177.654 276.201 170.696 259.675 167.33C243.149 163.965 213.323 156.83 213.323 156.83L173.528 154.811Z" fill="#E94A47"/>
<path opacity="0.86" d="M191.346 174.609C191.407 174.635 191.478 174.607 191.505 174.545C191.532 174.484 191.503 174.412 191.44 174.386C191.379 174.361 191.308 174.388 191.281 174.45C191.256 174.512 191.284 174.583 191.346 174.609ZM192.488 171.877C192.552 171.902 192.625 171.874 192.655 171.812C192.679 171.748 192.647 171.678 192.583 171.654C192.526 171.626 192.458 171.648 192.428 171.705C192.427 171.709 192.425 171.714 192.423 171.717C192.398 171.779 192.426 171.85 192.488 171.877ZM203.782 174.578C203.808 174.642 203.879 174.674 203.944 174.648C204.003 174.627 204.033 174.562 204.012 174.503C204.01 174.498 204.008 174.493 204.006 174.489C203.982 174.427 203.914 174.395 203.852 174.417C203.789 174.442 203.757 174.515 203.782 174.578ZM187.075 169.814C187.12 169.861 187.196 169.861 187.243 169.815C187.29 169.769 187.291 169.694 187.245 169.647C187.199 169.6 187.124 169.599 187.076 169.645C187.029 169.686 187.025 169.758 187.066 169.805C187.069 169.809 187.072 169.811 187.075 169.814ZM197.483 174.19C197.487 174.257 197.541 174.311 197.61 174.314C197.68 174.314 197.736 174.257 197.735 174.188C197.735 174.118 197.678 174.062 197.608 174.063C197.54 174.067 197.486 174.122 197.483 174.19ZM175.165 175.343C175.247 175.439 175.393 175.452 175.49 175.37C175.492 175.368 175.494 175.366 175.496 175.364C175.592 175.282 175.602 175.139 175.52 175.044C175.52 175.043 175.519 175.043 175.519 175.042C175.437 174.945 175.291 174.933 175.194 175.015C175.192 175.017 175.19 175.019 175.188 175.02C175.092 175.103 175.082 175.245 175.164 175.341C175.164 175.341 175.165 175.342 175.165 175.343ZM179.412 171.661C179.498 171.758 179.646 171.767 179.743 171.682C179.84 171.597 179.85 171.449 179.765 171.352C179.682 171.257 179.539 171.246 179.443 171.329C179.443 171.33 179.442 171.33 179.442 171.33C179.345 171.414 179.332 171.56 179.412 171.661ZM192.063 189.417C192.057 189.545 192.154 189.655 192.282 189.664C192.405 189.677 192.515 189.59 192.53 189.466C192.53 189.462 192.53 189.457 192.531 189.454C192.537 189.326 192.44 189.215 192.312 189.207C192.185 189.196 192.074 189.29 192.063 189.417ZM192.454 183.818C192.447 183.946 192.545 184.057 192.673 184.065C192.802 184.072 192.913 183.974 192.921 183.846C192.931 183.72 192.837 183.609 192.71 183.598C192.71 183.598 192.71 183.598 192.709 183.598C192.58 183.594 192.469 183.689 192.454 183.818ZM192.854 178.209C192.844 178.335 192.939 178.446 193.065 178.456C193.067 178.456 193.07 178.456 193.073 178.456C193.197 178.469 193.307 178.382 193.321 178.258C193.321 178.254 193.321 178.25 193.322 178.246C193.326 178.117 193.23 178.006 193.102 177.991C192.973 177.984 192.863 178.082 192.854 178.209ZM193.246 172.61C193.238 172.738 193.336 172.849 193.465 172.857C193.593 172.864 193.704 172.766 193.712 172.638C193.722 172.512 193.628 172.401 193.501 172.39C193.501 172.39 193.501 172.39 193.5 172.39C193.372 172.378 193.258 172.473 193.245 172.6C193.246 172.604 193.246 172.607 193.246 172.61ZM172.596 165.665C172.638 165.787 172.77 165.853 172.893 165.811C173.015 165.769 173.08 165.637 173.038 165.515C173.038 165.514 173.038 165.513 173.037 165.512C172.994 165.392 172.862 165.327 172.739 165.368C172.619 165.409 172.554 165.54 172.594 165.661C172.595 165.662 172.596 165.664 172.596 165.665ZM181.365 183.923C181.481 183.977 181.618 183.926 181.672 183.81C181.725 183.694 181.674 183.558 181.558 183.505C181.445 183.452 181.31 183.5 181.255 183.611C181.201 183.728 181.25 183.867 181.365 183.923ZM183.879 178.896C183.995 178.949 184.132 178.898 184.186 178.783C184.239 178.667 184.188 178.53 184.072 178.477C183.959 178.425 183.824 178.472 183.769 178.584C183.715 178.7 183.763 178.839 183.879 178.896ZM186.394 173.876C186.512 173.93 186.653 173.879 186.708 173.761C186.761 173.647 186.715 173.511 186.604 173.453C186.488 173.392 186.345 173.437 186.284 173.552C186.224 173.668 186.268 173.811 186.384 173.871C186.387 173.872 186.391 173.874 186.394 173.876ZM202.721 185.478C202.765 185.599 202.897 185.663 203.019 185.622C203.139 185.583 203.203 185.456 203.164 185.337C203.163 185.336 203.163 185.335 203.163 185.334C203.131 185.215 203.008 185.145 202.89 185.177C202.884 185.179 202.878 185.18 202.873 185.182C202.754 185.226 202.687 185.356 202.721 185.478ZM200.94 180.147C200.985 180.267 201.114 180.332 201.238 180.298C201.359 180.255 201.423 180.123 201.382 180.001C201.341 179.881 201.209 179.815 201.088 179.856C201.087 179.857 201.086 179.858 201.084 179.858C200.964 179.897 200.9 180.025 200.938 180.144C200.94 180.145 200.94 180.146 200.94 180.147ZM199.159 174.822C199.195 174.939 199.32 175.006 199.438 174.97C199.442 174.969 199.445 174.968 199.449 174.967C199.571 174.93 199.641 174.802 199.604 174.679C199.603 174.675 199.602 174.672 199.601 174.668C199.558 174.547 199.425 174.482 199.303 174.524C199.181 174.567 199.117 174.701 199.159 174.822ZM176.491 181.333C176.588 181.393 176.715 181.365 176.777 181.269C176.838 181.174 176.811 181.046 176.715 180.985C176.62 180.923 176.491 180.95 176.429 181.046C176.429 181.047 176.428 181.048 176.428 181.05C176.369 181.146 176.397 181.271 176.491 181.333ZM179.155 177.081C179.252 177.141 179.378 177.112 179.44 177.017C179.505 176.922 179.479 176.795 179.385 176.73C179.29 176.666 179.161 176.691 179.097 176.786C179.095 176.79 179.092 176.793 179.09 176.796C179.029 176.89 179.053 177.014 179.147 177.076C179.151 177.078 179.153 177.08 179.155 177.081ZM181.734 172.708C181.742 172.759 181.773 172.804 181.819 172.83C181.915 172.89 182.042 172.861 182.104 172.766C182.167 172.667 182.139 172.538 182.039 172.474C182.039 172.474 182.038 172.474 182.038 172.473C181.979 172.436 181.906 172.43 181.842 172.458L181.834 172.46C181.797 172.474 181.767 172.502 181.752 172.538C181.718 172.587 181.711 172.651 181.734 172.708ZM184.483 168.578C184.582 168.638 184.711 168.606 184.771 168.507C184.83 168.409 184.8 168.281 184.702 168.221C184.606 168.161 184.479 168.19 184.417 168.285C184.355 168.384 184.383 168.514 184.482 168.577C184.481 168.578 184.482 168.578 184.483 168.578ZM197.257 184.682C197.287 184.794 197.4 184.863 197.514 184.839C197.623 184.816 197.691 184.708 197.667 184.6C197.666 184.598 197.665 184.595 197.665 184.592C197.642 184.48 197.532 184.409 197.419 184.432C197.418 184.433 197.417 184.433 197.416 184.433C197.306 184.462 197.237 184.57 197.257 184.682ZM196.135 179.803C196.162 179.913 196.272 179.979 196.383 179.954C196.491 179.93 196.559 179.822 196.536 179.715C196.535 179.712 196.534 179.709 196.534 179.706C196.51 179.594 196.401 179.523 196.288 179.547C196.287 179.547 196.286 179.547 196.285 179.548C196.174 179.579 196.108 179.692 196.135 179.803ZM195.003 174.91C195.026 175.022 195.136 175.093 195.248 175.07C195.25 175.069 195.251 175.069 195.252 175.068C195.358 175.048 195.428 174.946 195.408 174.841C195.406 174.834 195.405 174.828 195.403 174.822C195.379 174.71 195.269 174.639 195.157 174.662C195.156 174.662 195.155 174.663 195.153 174.664C195.044 174.692 194.978 174.8 195.003 174.91ZM174.391 169.334C174.457 169.426 174.583 169.448 174.675 169.384C174.677 169.382 174.681 169.38 174.682 169.378C174.772 169.317 174.796 169.195 174.735 169.106C174.733 169.102 174.73 169.099 174.727 169.096C174.663 169.001 174.534 168.976 174.44 169.04C174.438 169.042 174.436 169.042 174.434 169.044C174.344 169.114 174.325 169.241 174.391 169.334ZM178.484 166.42C178.549 166.512 178.675 166.536 178.769 166.473C178.864 166.407 178.887 166.276 178.82 166.18C178.751 166.089 178.624 166.067 178.527 166.129C178.434 166.196 178.414 166.327 178.483 166.42C178.483 166.42 178.483 166.42 178.484 166.42ZM186.483 182.395C186.468 182.508 186.545 182.613 186.658 182.631C186.771 182.649 186.876 182.576 186.896 182.464C186.913 182.351 186.84 182.244 186.727 182.219C186.611 182.201 186.502 182.28 186.483 182.395ZM187.318 177.447C187.295 177.555 187.365 177.66 187.473 177.682C187.478 177.683 187.481 177.684 187.486 177.684C187.598 177.702 187.703 177.629 187.723 177.517C187.74 177.404 187.667 177.297 187.555 177.272C187.44 177.257 187.336 177.335 187.318 177.447ZM188.145 172.502C188.126 172.613 188.2 172.719 188.312 172.739C188.425 172.758 188.53 172.684 188.55 172.572C188.569 172.46 188.495 172.355 188.382 172.335C188.271 172.315 188.164 172.39 188.145 172.502ZM205.294 178.388C205.354 178.478 205.477 178.5 205.567 178.44C205.571 178.438 205.574 178.435 205.577 178.432C205.672 178.368 205.697 178.24 205.633 178.146C205.631 178.144 205.63 178.141 205.629 178.14C205.559 178.05 205.43 178.031 205.337 178.096C205.245 178.161 205.223 178.288 205.288 178.379C205.29 178.383 205.292 178.385 205.294 178.388ZM202.374 174.303C202.442 174.396 202.572 174.419 202.667 174.354C202.76 174.285 202.779 174.152 202.709 174.059C202.642 173.971 202.519 173.949 202.426 174.01C202.332 174.071 202.305 174.198 202.367 174.292C202.37 174.296 202.371 174.299 202.374 174.303ZM176.82 168.907C176.87 168.953 176.949 168.95 176.995 168.899C177.042 168.849 177.038 168.771 176.988 168.724C176.937 168.678 176.859 168.681 176.812 168.732C176.768 168.782 176.771 168.859 176.82 168.907ZM178.841 166.748C178.891 166.795 178.97 166.792 179.016 166.741C179.062 166.69 179.06 166.612 179.009 166.566C178.958 166.52 178.88 166.522 178.833 166.573C178.789 166.625 178.792 166.701 178.841 166.748ZM188.467 173.187C188.469 173.254 188.525 173.306 188.592 173.303C188.659 173.302 188.712 173.245 188.709 173.179C188.707 173.112 188.651 173.06 188.584 173.062C188.518 173.064 188.464 173.12 188.467 173.187ZM188.36 170.232C188.366 170.299 188.426 170.351 188.494 170.348C188.562 170.346 188.614 170.29 188.611 170.223C188.612 170.159 188.56 170.106 188.495 170.106C188.492 170.106 188.489 170.106 188.486 170.107C188.417 170.106 188.361 170.162 188.361 170.23C188.36 170.23 188.36 170.231 188.36 170.232ZM182.714 170.736C182.777 170.754 182.845 170.723 182.872 170.664C182.897 170.603 182.867 170.532 182.805 170.509C182.803 170.507 182.801 170.507 182.799 170.506C182.74 170.481 182.671 170.508 182.645 170.567C182.643 170.571 182.642 170.574 182.64 170.577C182.618 170.641 182.65 170.71 182.714 170.736ZM183.759 167.965C183.822 167.984 183.89 167.953 183.917 167.893C183.938 167.83 183.907 167.76 183.844 167.735C183.786 167.708 183.716 167.733 183.688 167.792C183.687 167.794 183.686 167.797 183.685 167.799C183.657 167.863 183.687 167.936 183.75 167.962C183.754 167.963 183.756 167.964 183.759 167.965ZM174.705 171.841C174.767 171.881 174.85 171.863 174.89 171.802C174.891 171.801 174.892 171.8 174.892 171.798C174.935 171.736 174.919 171.651 174.857 171.608C174.854 171.606 174.851 171.604 174.848 171.603C174.787 171.562 174.704 171.58 174.663 171.642C174.663 171.643 174.661 171.644 174.661 171.645C174.62 171.712 174.64 171.799 174.705 171.841ZM176.521 168.999C176.588 169.04 176.676 169.019 176.717 168.952C176.757 168.887 176.737 168.801 176.673 168.759C176.612 168.719 176.529 168.736 176.488 168.798C176.488 168.8 176.486 168.8 176.486 168.802C176.441 168.862 176.453 168.947 176.514 168.993C176.516 168.994 176.518 168.996 176.521 168.999ZM178.346 166.154C178.405 166.188 178.48 166.177 178.527 166.129C178.534 166.12 178.542 166.119 178.542 166.111C178.584 166.045 178.564 165.958 178.498 165.915C178.431 165.873 178.344 165.894 178.302 165.959C178.26 166.025 178.28 166.112 178.346 166.154ZM188.665 174.25C188.676 174.321 188.743 174.368 188.815 174.356C188.82 174.355 188.825 174.354 188.831 174.352C188.905 174.335 188.951 174.26 188.934 174.187C188.915 174.114 188.843 174.067 188.767 174.076C188.691 174.095 188.645 174.173 188.665 174.248C188.665 174.249 188.665 174.249 188.665 174.25ZM187.931 170.953C187.95 171.029 188.028 171.074 188.103 171.056C188.104 171.056 188.104 171.056 188.105 171.055C188.179 171.038 188.224 170.963 188.207 170.89C188.188 170.816 188.116 170.769 188.04 170.778C187.965 170.801 187.917 170.877 187.931 170.953ZM173.625 163.694C173.669 163.755 173.753 163.769 173.814 163.727C173.88 163.686 173.899 163.599 173.858 163.534C173.857 163.532 173.856 163.53 173.855 163.528C173.808 163.465 173.72 163.452 173.657 163.498C173.594 163.544 173.58 163.63 173.625 163.694ZM181.734 172.708C181.75 172.719 181.769 172.728 181.788 172.733C181.863 172.747 181.933 172.698 181.948 172.623C181.948 172.621 181.948 172.62 181.948 172.618C181.96 172.545 181.914 172.475 181.842 172.457L181.834 172.458C181.759 172.445 181.688 172.494 181.674 172.568C181.674 172.57 181.674 172.571 181.674 172.573C181.664 172.626 181.687 172.68 181.734 172.708ZM182.271 169.244C182.256 169.317 182.302 169.389 182.376 169.405C182.376 169.405 182.377 169.405 182.377 169.406C182.454 169.419 182.528 169.372 182.547 169.298C182.557 169.221 182.507 169.148 182.431 169.13C182.356 169.117 182.284 169.169 182.271 169.244ZM177.294 180.937C177.272 181.067 177.362 181.191 177.492 181.212C177.622 181.233 177.745 181.145 177.767 181.014C177.788 180.884 177.699 180.761 177.569 180.74C177.44 180.72 177.316 180.807 177.294 180.937ZM178.191 175.218C178.174 175.351 178.266 175.472 178.397 175.492C178.527 175.508 178.647 175.416 178.663 175.285C178.679 175.156 178.587 175.036 178.456 175.02C178.329 175.004 178.211 175.092 178.191 175.218ZM179.096 169.498C179.074 169.629 179.164 169.751 179.294 169.773C179.424 169.794 179.548 169.706 179.569 169.575C179.59 169.445 179.501 169.322 179.371 169.301C179.24 169.28 179.117 169.368 179.096 169.498ZM200.175 181.116C200.257 181.222 200.407 181.245 200.519 181.169C200.624 181.087 200.643 180.935 200.561 180.829C200.481 180.728 200.336 180.707 200.23 180.781C200.124 180.86 200.1 181.007 200.175 181.116ZM196.76 176.437C196.84 176.541 196.987 176.565 197.096 176.491C197.204 176.413 197.228 176.263 197.15 176.156C197.073 176.049 196.923 176.024 196.815 176.101C196.709 176.181 196.685 176.329 196.76 176.437ZM172.051 170.345C172.165 170.415 172.315 170.379 172.385 170.265C172.455 170.152 172.419 170.002 172.305 169.933C172.191 169.863 172.041 169.899 171.971 170.013C171.905 170.126 171.94 170.273 172.051 170.345ZM175.073 165.398C175.182 165.47 175.33 165.442 175.404 165.333C175.405 165.331 175.406 165.329 175.407 165.327C175.476 165.213 175.44 165.066 175.327 164.994C175.215 164.924 175.067 164.958 174.996 165.07C174.995 165.071 174.994 165.072 174.994 165.074C174.926 165.184 174.962 165.33 175.073 165.398ZM187.798 183.698C187.835 183.824 187.963 183.901 188.092 183.876C188.219 183.84 188.294 183.711 188.262 183.583C188.234 183.456 188.108 183.376 187.981 183.404C187.979 183.405 187.978 183.405 187.976 183.405C187.846 183.436 187.766 183.567 187.798 183.698C187.798 183.698 187.798 183.698 187.798 183.698ZM186.437 178.064C186.469 178.195 186.6 178.274 186.73 178.242H186.731C186.857 178.21 186.933 178.084 186.902 177.959C186.902 177.959 186.902 177.959 186.902 177.958C186.873 177.83 186.746 177.75 186.617 177.779C186.489 177.808 186.408 177.935 186.438 178.062C186.436 178.063 186.436 178.064 186.437 178.064ZM185.076 172.439C185.104 172.566 185.23 172.646 185.357 172.618C185.359 172.618 185.36 172.618 185.362 172.617C185.494 172.589 185.577 172.461 185.549 172.33C185.521 172.198 185.393 172.116 185.261 172.143C185.13 172.17 185.047 172.299 185.075 172.43C185.076 172.433 185.076 172.436 185.076 172.439ZM184.282 185.559C184.312 185.686 184.439 185.766 184.567 185.738C184.694 185.708 184.774 185.581 184.745 185.454C184.717 185.33 184.594 185.25 184.469 185.274C184.339 185.301 184.255 185.428 184.282 185.559ZM183.161 179.9C183.189 180.03 183.317 180.115 183.448 180.087C183.574 180.058 183.657 179.937 183.636 179.81C183.607 179.68 183.481 179.594 183.349 179.614C183.22 179.645 183.137 179.77 183.161 179.9ZM182.04 174.242C182.068 174.373 182.196 174.456 182.327 174.429C182.456 174.404 182.54 174.28 182.515 174.152C182.49 174.023 182.366 173.939 182.237 173.963C182.107 173.989 182.02 174.112 182.04 174.242ZM180.927 168.583C180.947 168.708 181.065 168.793 181.191 168.774C181.196 168.774 181.201 168.772 181.206 168.772C181.334 168.746 181.418 168.622 181.394 168.494C181.369 168.366 181.246 168.281 181.116 168.305C180.986 168.329 180.902 168.453 180.927 168.582C180.927 168.581 180.927 168.582 180.927 168.583ZM173.393 176.686C173.368 176.813 173.453 176.937 173.58 176.962C173.581 176.962 173.582 176.962 173.582 176.962C173.711 176.99 173.839 176.909 173.868 176.78C173.893 176.649 173.808 176.523 173.678 176.497C173.547 176.474 173.422 176.558 173.393 176.686ZM174.533 171.027C174.505 171.155 174.588 171.282 174.716 171.309C174.845 171.337 174.971 171.254 174.999 171.126C175 171.124 175 171.123 175.001 171.121C175.023 170.991 174.94 170.865 174.81 170.837C174.682 170.813 174.558 170.897 174.534 171.025C174.534 171.024 174.534 171.025 174.533 171.027ZM175.665 165.375C175.643 165.507 175.734 165.631 175.866 165.652C175.992 165.673 176.112 165.592 176.14 165.468C176.166 165.336 176.082 165.21 175.95 165.184C175.818 165.158 175.692 165.244 175.665 165.375ZM194.027 178.425C194.103 178.535 194.252 178.563 194.363 178.488C194.472 178.415 194.5 178.268 194.428 178.16C194.36 178.051 194.217 178.016 194.107 178.083C194.103 178.085 194.101 178.087 194.098 178.088C193.985 178.159 193.952 178.307 194.023 178.419C194.024 178.421 194.026 178.424 194.027 178.425ZM190.823 173.624C190.899 173.733 191.049 173.761 191.16 173.687C191.268 173.614 191.296 173.467 191.224 173.359C191.156 173.249 191.013 173.215 190.903 173.282C190.9 173.284 190.897 173.285 190.894 173.287C190.782 173.358 190.748 173.506 190.819 173.617C190.82 173.62 190.822 173.622 190.823 173.624ZM184.406 175.601C184.446 175.693 184.552 175.735 184.644 175.695C184.733 175.656 184.776 175.554 184.74 175.464C184.706 175.374 184.606 175.33 184.517 175.364C184.511 175.366 184.506 175.369 184.5 175.371C184.411 175.41 184.369 175.512 184.406 175.601ZM182.692 171.611C182.732 171.702 182.839 171.745 182.931 171.704C183.023 171.663 183.065 171.557 183.024 171.465C183.024 171.465 183.024 171.464 183.024 171.464C182.985 171.373 182.881 171.33 182.79 171.369C182.788 171.37 182.786 171.37 182.784 171.371C182.694 171.413 182.653 171.519 182.692 171.611ZM180.978 167.611C181.018 167.703 181.125 167.745 181.218 167.704C181.31 167.664 181.351 167.557 181.311 167.465C181.27 167.373 181.163 167.331 181.071 167.372C180.98 167.413 180.939 167.519 180.978 167.611ZM175.166 175.166C175.17 175.266 175.252 175.343 175.35 175.342C175.447 175.335 175.523 175.256 175.526 175.158C175.524 175.059 175.443 174.981 175.344 174.983C175.343 174.983 175.342 174.983 175.342 174.983C175.246 174.981 175.167 175.057 175.166 175.153C175.166 175.158 175.166 175.162 175.166 175.166ZM175.108 170.812C175.113 170.912 175.193 170.992 175.294 170.996C175.393 170.994 175.472 170.913 175.47 170.814C175.47 170.813 175.47 170.813 175.47 170.812C175.472 170.716 175.396 170.637 175.3 170.635C175.298 170.635 175.296 170.635 175.294 170.635C175.195 170.632 175.112 170.71 175.108 170.809C175.108 170.81 175.108 170.811 175.108 170.812ZM175.061 166.465C175.059 166.561 175.136 166.639 175.232 166.641C175.236 166.641 175.241 166.641 175.244 166.64C175.339 166.643 175.419 166.569 175.422 166.474C175.422 166.471 175.422 166.468 175.422 166.465C175.417 166.365 175.337 166.285 175.236 166.281C175.137 166.283 175.058 166.364 175.06 166.463C175.061 166.464 175.061 166.465 175.061 166.465ZM174.072 165.579C174.08 165.634 174.13 165.671 174.185 165.664C174.24 165.657 174.278 165.606 174.271 165.551C174.263 165.496 174.213 165.458 174.157 165.465C174.155 165.466 174.152 165.467 174.148 165.467C174.098 165.478 174.065 165.527 174.072 165.579ZM176.856 169.413C176.906 169.487 177.007 169.508 177.08 169.458C177.151 169.417 177.176 169.326 177.135 169.255C177.132 169.25 177.129 169.246 177.126 169.242C177.086 169.169 176.993 169.141 176.919 169.181C176.916 169.183 176.912 169.186 176.908 169.188C176.833 169.232 176.806 169.328 176.85 169.404C176.852 169.406 176.854 169.41 176.856 169.413ZM174.763 166.079C174.803 166.152 174.896 166.179 174.97 166.139C174.973 166.137 174.977 166.135 174.981 166.132C175.056 166.088 175.083 165.992 175.039 165.917C175.037 165.913 175.035 165.91 175.033 165.907C174.986 165.832 174.885 165.808 174.808 165.854C174.734 165.901 174.712 165.998 174.758 166.072C174.76 166.074 174.762 166.075 174.763 166.079ZM172.663 162.754C172.712 162.828 172.811 162.852 172.889 162.806C172.965 162.761 172.99 162.662 172.945 162.586C172.944 162.584 172.943 162.582 172.942 162.581C172.894 162.505 172.793 162.481 172.716 162.528C172.64 162.577 172.617 162.676 172.663 162.754Z" fill="white"/>
<path d="M270.607 81.5419C270.156 77.2508 266.511 73.6021 266.511 73.6021C266.511 73.6021 266.511 78.2214 266.73 78.6142C266.948 79.007 261.905 80.894 261.905 80.894C261.905 80.894 260.347 89.8919 258.436 91.1491C256.525 92.4063 255.173 88.7724 251.841 87.6188C248.509 86.4652 247.548 87.5121 249.651 88.8723C251.754 90.2331 259.029 96.5695 258.238 102.944C257.301 110.504 248.595 124.463 246.135 128.286C245.622 128.685 245.311 129.006 245.349 129.179C245.534 130.03 240.655 139.152 240.126 141.386C239.598 143.621 248.515 158.794 248.515 158.794C252.014 156.168 254.816 150.873 256.992 145.023L257.008 145.045C264.286 125.299 264.249 104.025 266.999 97.8794C269.75 91.7355 271.056 85.8323 270.607 81.5419Z" fill="url(#paint26_linear)"/>
<path d="M235.168 121.886C233.142 116.802 233.259 116.249 232.986 113.68C232.204 106.344 245.228 102.492 245.228 102.492L234.371 91.6572C208.526 98.6358 201.079 113.681 198.225 122.252C194.722 132.772 196.45 139.866 202.331 145.989C206.796 150.639 212.313 150.996 220.963 160.57C228.653 169.083 244.703 170.87 244.703 170.87L245.483 129.099C245.485 129.098 240.486 129.669 235.168 121.886Z" fill="url(#paint27_linear)"/>
<path d="M289.266 156.493C289.266 156.493 282.107 163.063 274.987 159.989C267.867 156.916 266.971 158.416 262.056 160.736C259.935 161.736 251.81 165.141 245.491 167.675L249.686 151.655C257.107 152.128 267.201 152.421 270.498 150.933C275.91 148.48 279.125 143.76 281.452 142.522C283.798 141.271 284.557 141.201 285.711 142.743C285.711 142.743 286.967 142.323 290.114 140.972C296.385 138.72 292.548 153.929 289.266 156.493Z" fill="url(#paint28_linear)"/>
<path d="M245.23 102.492L234.372 91.6562C227.153 92.5784 220.153 94.7658 213.697 98.1167C210.144 99.9758 206.735 102.097 203.499 104.464C188.652 115.322 188.615 121.7 180.266 128.276C180.25 128.29 180.232 128.305 180.213 128.318C171.881 134.878 160.925 142.645 164.598 157.792C168.303 159.973 171.841 161.911 175.212 163.607C186.279 169.209 195.609 172.421 203.354 174.103C203.354 174.103 203.36 174.109 203.36 174.103C208.01 175.162 212.765 175.696 217.536 175.694C221.303 175.715 225.053 175.184 228.667 174.12C230.077 173.699 231.444 173.151 232.755 172.483C236.477 171.957 240.148 171.111 243.726 169.955C224.639 141.798 245.23 102.492 245.23 102.492Z" fill="url(#paint29_linear)"/>
<path d="M245.23 102.491C245.23 102.491 222.073 117.022 227.364 137.261C228.912 143.184 232.745 146.131 239.75 148.335C248.141 150.975 250.329 150.91 250.329 150.91L248.007 188.763C248.007 188.763 230.412 189.101 222.72 180.588C214.07 171.014 207.081 169.83 201.818 166.103C193.819 160.437 191.755 150.91 192.271 139.837C193.242 118.999 208.527 98.6358 234.372 91.6572" fill="#23286B"/>
<path d="M254.906 87.0342C254.906 87.0342 250.255 92.3354 245.23 102.491C245.23 102.491 236.311 104.555 234.372 91.6559C234.372 91.6559 243.749 87.4083 244.056 82.8647L254.906 87.0342Z" fill="url(#paint30_linear)"/>
<path d="M267.488 73.953C267.489 74.0386 267.487 74.1013 267.49 74.1385C267.494 74.1509 267.495 74.1639 267.492 74.1763C267.495 74.517 267.486 74.8627 267.467 75.2213C267.263 79.078 269.482 82.4891 269.291 83.526C269.1 84.5636 266.94 84.8937 265.952 84.8112C264.963 84.728 262.911 89.3454 258.448 91.4249C254.261 93.3765 248.754 92.0429 245.444 89.3492C245.462 81.0172 246.731 75.3659 255.212 73.1537C264.468 70.7355 265.716 67.1382 265.716 67.1382C266.81 69.2493 267.417 71.5781 267.488 73.953Z" fill="#FFBEB6"/>
<path d="M241.046 56.4163C245.576 56.4163 249.249 52.7512 249.249 48.2301C249.249 43.709 245.576 40.0439 241.046 40.0439C236.516 40.0439 232.843 43.709 232.843 48.2301C232.843 52.7512 236.516 56.4163 241.046 56.4163Z" fill="url(#paint31_linear)"/>
<path d="M273.144 78.1413C273.927 76.0098 273.414 73.6635 272.003 72.9071L272.003 72.9065C270.591 72.1531 268.805 73.2745 268.023 75.406C267.933 75.6524 267.859 75.9043 267.802 76.1593C266.87 75.8832 265.926 76.3697 265.112 76.9518C265.094 76.8239 265.088 76.6918 265.062 76.567C264.915 75.5456 264.321 74.6427 263.441 74.1016C261.807 73.2304 259.74 74.5317 258.832 77.0039C258.4 78.1525 258.294 79.3979 258.527 80.6024C258.665 81.4147 259.063 82.16 259.661 82.729C259.809 82.8605 259.973 82.9741 260.148 83.0684C260.986 83.4947 261.993 83.4135 262.752 82.8581C263.692 82.1978 264.395 81.2546 264.756 80.1662C265.054 79.3514 265.195 78.4882 265.173 77.6213C265.899 77.0722 266.829 76.4826 267.701 76.7637C267.526 78.2295 267.915 79.6189 268.748 80.3505C268.875 80.4628 269.014 80.5602 269.164 80.6409C270.576 81.3936 272.362 80.2723 273.144 78.1413ZM262.515 82.3132C261.888 82.7774 261.054 82.8506 260.355 82.5031C259.627 82.0489 259.137 81.2968 259.021 80.4479C258.816 79.3775 258.912 78.2723 259.298 77.2534C260.092 75.092 261.856 73.9328 263.233 74.6676C263.374 74.7427 263.505 74.8345 263.625 74.94C264.123 75.4178 264.453 76.0427 264.568 76.7222C264.772 77.7926 264.677 78.8978 264.29 79.9167C263.971 80.8847 263.348 81.725 262.515 82.3132ZM269.372 80.0749C268.214 79.4556 267.82 77.4749 268.488 75.6555C269.157 73.8348 270.64 72.8562 271.796 73.4724C272.955 74.0905 273.347 76.0737 272.679 77.8919C272.011 79.7126 270.527 80.6918 269.372 80.0749Z" fill="#23286B"/>
<path d="M250.747 54.5425C245.728 53.5217 241.809 54.3886 238.916 56.0982C235.47 55.8841 232.652 53.2791 232.175 49.8655C232.119 49.5292 231.605 49.6713 231.662 50.007C232.157 53.3877 234.81 56.0473 238.195 56.5568C236.294 57.8469 234.754 59.5974 233.717 61.6446C233.495 61.9592 233.275 62.2776 233.059 62.6033C231.088 65.572 229.162 67.8196 225.915 69.469C221.614 71.6545 215.993 73.6669 215.966 79.3716C215.972 79.5186 216.094 79.6334 216.241 79.6285C216.382 79.6235 216.494 79.5118 216.499 79.3716C216.532 72.4017 224.952 71.4584 229.318 68.0188C230.454 67.0743 231.445 65.9698 232.261 64.7392C230.983 67.2661 229.011 70.2589 225.634 71.4361C219.283 73.6496 218.184 81.168 218.184 81.168C229.234 91.6446 249.083 92.1578 249.083 92.1578C253.261 83.1333 248.246 78.7907 255.889 75.222C264.558 71.1736 265.716 67.137 265.716 67.137C266.84 69.3182 267.448 71.7278 267.492 74.1801C271.204 61.7873 260.127 56.4501 250.747 54.5425Z" fill="#428DFC"/>
<path d="M92.5412 233.843C92.4339 233.714 92.3266 233.585 92.2193 233.456C92.2904 233.451 92.3624 233.45 92.4339 233.447C91.4089 229.241 93.427 224.787 96.2728 221.508C97.5343 220.055 99.0263 218.712 100.859 218.137C102.771 217.536 104.847 217.835 106.789 218.33C112.456 219.774 117.696 222.873 121.701 227.15C123.003 228.54 124.25 230.326 123.88 232.197C123.467 234.287 121.121 236.187 122.082 238.086C123.073 240.043 126.453 239.332 127.667 241.158C129.539 243.972 123.743 247.346 125.231 250.381C125.994 251.937 128.095 252.067 129.677 252.762C132.712 254.096 133.928 258.439 132.029 261.164C130.339 263.589 126.598 265.313 127.304 268.186C127.552 269.193 128.338 269.96 129.062 270.701C131.44 273.133 133.527 275.951 134.551 279.2C135.575 282.45 135.424 286.184 133.592 289.053C132.654 290.524 131.332 291.702 129.984 292.805C123.263 298.302 120.66 304.078 115.268 310.892C111.898 315.15 104.407 342.429 102.574 350.103C101.184 338.934 97.9841 305.717 96.639 303.873C95.2943 302.03 94.5946 299.439 95.7385 297.464C96.5726 296.025 98.1625 295.246 99.517 294.284C100.871 293.322 102.15 291.808 101.824 290.175C101.674 289.421 101.198 288.777 100.714 288.182C99.1732 286.29 97.3839 284.562 96.2628 282.393C95.1418 280.224 94.8212 277.41 96.2568 275.437C97.6036 273.585 100.193 272.771 102.213 271.636C100.489 270.308 97.9582 269.403 96.5244 267.689C95.4304 266.382 95.0302 264.522 95.4895 262.879C95.9737 261.145 97.2831 259.805 98.3322 258.332C98.1159 257.477 98.1801 256.618 98.6864 255.842C98.9552 255.43 99.3167 255.104 99.7303 254.831C99.7859 253.963 99.592 253.127 99.0185 252.462C98.1444 251.45 96.6657 251.179 95.6971 250.257C94.1616 248.795 94.6799 245.799 96.6161 244.942C97.7303 244.45 99.3731 244.321 99.5541 243.113C99.5752 242.972 99.567 242.835 99.5429 242.7C96.673 240.027 93.6054 237.507 92.5412 233.843Z" fill="url(#paint32_linear)"/>
<path d="M77.6131 297.847C78.4085 295.848 80.256 294.307 80.626 292.186C81.1629 289.107 78.4645 286.563 76.7277 283.969C74.1099 280.06 73.5067 274.866 75.1586 270.458C76.8105 266.049 80.6739 262.542 85.2086 261.334C88.0935 260.565 91.2715 260.648 93.8359 259.114C97.3283 257.026 100.115 252.016 103.948 253.377C106.627 254.328 107.257 257.992 106.371 260.703C105.485 263.414 103.595 265.716 102.768 268.446C101.187 273.663 103.729 279.118 105.75 284.179C107.771 289.24 109.16 295.489 105.788 299.764C104.144 301.848 101.514 303.204 100.56 305.685C99.2616 309.058 101.633 312.594 102.799 316.015C104.97 322.382 102.491 330.047 97.0074 333.92C96.8217 325.817 93.0642 317.862 86.932 312.59C84.5601 310.55 81.8432 308.884 79.7971 306.514C77.7506 304.145 76.455 300.759 77.6131 297.847Z" fill="url(#paint33_linear)"/>
<path d="M105.662 346.242C105.679 346.242 105.697 346.24 105.714 346.238C105.914 346.21 106.053 346.024 106.025 345.823C104.28 333.384 101.652 321.711 98.2133 311.128C98.1508 310.935 97.9432 310.83 97.7514 310.893C97.5593 310.956 97.4542 311.163 97.5171 311.356C100.943 321.898 103.561 333.529 105.3 345.926C105.326 346.109 105.483 346.242 105.662 346.242Z" fill="#23286B"/>
<path d="M102.156 306.161C101.105 304.608 98.234 304.726 95.7437 306.425C93.253 308.123 92.0858 310.759 93.1366 312.312C94.1875 313.866 97.0587 313.748 99.549 312.049C102.04 310.35 103.207 307.714 102.156 306.161Z" fill="#C6DDFE"/>
<path d="M97.0819 309.257C97.1211 309.257 97.1612 309.251 97.2008 309.237C97.3921 309.171 97.4938 308.962 97.4287 308.77C95.661 303.59 93.6541 298.557 91.4649 293.812C91.3801 293.628 91.1621 293.548 90.9789 293.633C90.7958 293.718 90.7153 293.937 90.8001 294.121C92.9794 298.842 94.9764 303.851 96.7359 309.007C96.7876 309.161 96.9298 309.257 97.0819 309.257Z" fill="#23286B"/>
<path d="M97.0293 287.415C95.9785 285.861 92.0793 286.681 88.3201 289.244C84.561 291.807 82.3658 295.145 83.4167 296.698C84.4675 298.251 88.3667 297.432 92.1258 294.868C95.8846 292.305 98.0802 288.968 97.0293 287.415Z" fill="#C6DDFE"/>
<path d="M90.3628 292.695C90.4162 292.695 90.4697 292.683 90.5209 292.659C90.7032 292.572 90.7799 292.352 90.6933 292.169C90.0302 290.779 89.3413 289.393 88.6455 288.048C86.7329 284.352 84.639 280.733 82.4205 277.29C82.3111 277.12 82.0841 277.071 81.9143 277.181C81.7445 277.291 81.6959 277.518 81.8057 277.689C84.0108 281.112 86.0935 284.711 87.9957 288.386C88.6881 289.724 89.3736 291.103 90.0332 292.486C90.0953 292.619 90.2267 292.695 90.3628 292.695Z" fill="#23286B"/>
<path d="M88.3146 269.277C87.0716 268.034 83.1366 269.974 79.5252 273.612C75.9139 277.25 73.994 281.207 75.2366 282.45C76.4796 283.694 80.4145 281.753 84.0259 278.115C87.6373 274.477 89.5571 270.52 88.3146 269.277Z" fill="#C6DDFE"/>
<path d="M80.9595 276.099C81.0298 276.099 81.1004 276.079 81.1633 276.037C81.3314 275.924 81.3762 275.696 81.2637 275.527C78.2943 271.081 75.0543 266.852 71.6347 262.956C71.5007 262.803 71.2702 262.789 71.1177 262.923C70.9664 263.057 70.9513 263.289 71.0849 263.442C74.4834 267.314 77.7032 271.518 80.6554 275.937C80.726 276.042 80.8415 276.099 80.9595 276.099Z" fill="#23286B"/>
<path d="M74.8949 250.335C72.7002 249.375 68.6601 253.804 65.8708 260.227C63.0815 266.651 62.5998 272.636 64.7941 273.597C66.9889 274.557 71.0289 270.128 73.8183 263.705C76.6076 257.282 77.0893 251.295 74.8949 250.335Z" fill="#C6DDFE"/>
<path d="M69.561 261.565C69.6502 261.565 69.7394 261.533 69.8096 261.467C69.9578 261.329 69.9673 261.097 69.8298 260.948C66.3132 257.128 62.5575 253.584 58.6661 250.415C58.5088 250.287 58.2788 250.311 58.1508 250.468C58.0233 250.626 58.0474 250.858 58.2047 250.985C62.0689 254.132 65.7988 257.651 69.2921 261.446C69.3641 261.525 69.4623 261.565 69.561 261.565Z" fill="#23286B"/>
<path d="M66.1724 237.849C64.3271 236.318 58.6381 240.17 53.4654 246.452C48.293 252.735 45.5955 259.069 47.4408 260.601C49.2861 262.132 54.9751 258.28 60.1478 251.998C65.3206 245.715 68.0177 239.381 66.1724 237.849Z" fill="#C6DDFE"/>
<path d="M56.5058 249.536C56.6157 249.536 56.7238 249.487 56.7962 249.393C56.9194 249.232 56.8902 249.001 56.7294 248.877C54.1642 246.89 51.4955 245.027 48.7967 243.337C48.6256 243.23 48.3994 243.282 48.2921 243.454C48.1853 243.627 48.237 243.853 48.4089 243.961C51.0871 245.637 53.7363 247.488 56.2818 249.459C56.3486 249.511 56.4279 249.536 56.5058 249.536Z" fill="#23286B"/>
<path d="M99.159 353.275L100.483 349.236C100.546 349.043 100.441 348.836 100.249 348.772C100.2 348.755 100.148 348.75 100.1 348.755C100.971 329.183 101.438 306.24 98.8458 282.911C98.7226 281.801 98.5916 280.685 98.4559 279.595C98.4309 279.393 98.2461 279.254 98.047 279.275C97.8467 279.301 97.7036 279.484 97.7286 279.686C97.8635 280.774 97.9945 281.886 98.1177 282.993C100.788 307.016 100.205 330.643 99.2836 350.587L99.159 353.275Z" fill="#1D72D8"/>
<path d="M102.986 279.736C103.262 278.733 101.324 277.322 98.6575 276.584C95.9914 275.845 93.6071 276.06 93.3314 277.063C93.0556 278.065 94.9936 279.477 97.6597 280.215C100.326 280.953 102.711 280.739 102.986 279.736Z" fill="#23286B"/>
<path d="M97.8867 278.393C97.9027 278.393 97.9186 278.393 97.9346 278.39C98.1349 278.364 98.2762 278.179 98.2499 277.978C97.3607 271.148 96.2069 264.463 94.8213 258.108C94.7782 257.91 94.5834 257.784 94.3852 257.827C94.1879 257.871 94.0625 258.066 94.106 258.265C95.4873 264.6 96.6373 271.265 97.524 278.074C97.5485 278.259 97.7058 278.393 97.8867 278.393Z" fill="#1D72D8"/>
<path d="M100.791 258.784C101.067 257.781 98.5627 256.213 95.1987 255.281C91.8346 254.35 88.8841 254.407 88.6084 255.41C88.3326 256.413 90.8367 257.981 94.2008 258.913C97.5649 259.844 100.515 259.787 100.791 258.784Z" fill="#23286B"/>
<path d="M94.1155 256.984C94.1426 256.984 94.1698 256.981 94.1973 256.975C94.3947 256.93 94.5183 256.733 94.4731 256.535C93.1668 250.75 91.6304 245.085 89.907 239.695C89.8454 239.502 89.639 239.395 89.4468 239.457C89.2538 239.519 89.1483 239.727 89.2099 239.92C90.9268 245.289 92.4576 250.934 93.7596 256.698C93.7967 256.869 93.9479 256.984 94.1155 256.984Z" fill="#1D72D8"/>
<path d="M89.3917 235.39C93.7803 235.01 97.4531 236.038 97.595 237.685C97.737 239.333 94.2943 240.976 89.9057 241.356C85.517 241.735 81.8442 240.707 81.7023 239.06C81.5604 237.412 85.003 235.769 89.3917 235.39Z" fill="#23286B"/>
<path d="M88.8729 238.075C88.9113 238.075 88.9505 238.069 88.9888 238.056C89.181 237.992 89.284 237.784 89.2202 237.591C87.9397 233.745 86.5304 229.946 85.0311 226.299C84.9535 226.111 84.7402 226.022 84.5528 226.099C84.3658 226.177 84.2771 226.392 84.3542 226.58C85.8471 230.211 87.2504 233.994 88.5257 237.824C88.5769 237.978 88.7196 238.075 88.8729 238.075Z" fill="#1D72D8"/>
<path d="M92.5856 223.519C92.3494 222.027 88.4804 221.403 83.9436 222.126C79.4067 222.849 75.9203 224.645 76.1564 226.137C76.3925 227.629 80.2616 228.252 84.7984 227.529C89.3348 226.806 92.8212 225.01 92.5856 223.519Z" fill="#23286B"/>
<path d="M83.9488 225.026C83.9966 225.026 84.0453 225.017 84.0923 224.996C84.2784 224.916 84.365 224.701 84.2857 224.514C83.3124 222.222 82.2818 219.942 81.2228 217.737C80.9018 217.069 80.5765 216.403 80.2465 215.739C80.156 215.558 79.9372 215.484 79.7553 215.575C79.5739 215.666 79.5007 215.887 79.5912 216.068C79.9199 216.728 80.2439 217.391 80.5627 218.056C81.617 220.251 82.6424 222.521 83.6119 224.802C83.6713 224.942 83.8062 225.026 83.9488 225.026Z" fill="#1D72D8"/>
<path d="M89.1901 212.753C88.9048 210.949 84.4731 210.155 79.2922 210.981C74.1112 211.807 70.1422 213.939 70.4279 215.743C70.7131 217.548 75.1448 218.341 80.3258 217.515C85.5067 216.69 89.4757 214.558 89.1901 212.753Z" fill="#23286B"/>
<path d="M78.6506 213.78C78.7075 213.78 78.7661 213.767 78.8195 213.738C78.9992 213.644 79.0681 213.421 78.9746 213.241C78.1095 211.581 77.212 209.938 76.3077 208.356C76.2068 208.18 75.9828 208.12 75.8074 208.221C75.6321 208.322 75.5713 208.547 75.6722 208.723C76.5718 210.296 77.4645 211.931 78.3253 213.583C78.3908 213.709 78.5188 213.78 78.6506 213.78Z" fill="#1D72D8"/>
<path d="M87.2973 322.849H116.025V359.26H87.2973V322.849Z" fill="url(#paint34_linear)"/>
<path d="M115.954 133.646C121.668 120.884 115.944 105.858 103.195 100.15C90.4461 94.4427 75.4253 100.181 69.712 112.943C63.9987 125.704 69.7228 140.73 82.4715 146.438C95.2203 152.146 110.241 146.407 115.954 133.646ZM72.1446 114.032C77.2567 102.614 90.6961 97.479 102.103 102.586C113.51 107.693 118.632 121.138 113.52 132.556C108.408 143.974 94.9681 149.108 83.5611 144.001C72.1541 138.894 67.0324 125.45 72.1446 114.032Z" fill="#A1C3FC"/>
<path d="M182.825 104.989C181.877 107.108 179.391 108.057 177.274 107.11C175.157 106.162 174.21 103.675 175.159 101.556C176.107 99.4372 178.593 98.4876 180.71 99.4355C182.827 100.383 183.774 102.87 182.825 104.989Z" fill="url(#paint35_linear)"/>
<path d="M175.151 97.1768C173.536 100.784 169.305 102.401 165.701 100.787C162.097 99.1737 160.484 94.9411 162.099 91.3335C163.715 87.7258 167.946 86.1093 171.55 87.7229C175.154 89.3365 176.766 93.5692 175.151 97.1768Z" fill="url(#paint36_linear)"/>
<path d="M79.6161 132.692L59.1822 145.748L46.1503 125.31L66.5842 112.255L79.6161 132.692Z" fill="url(#paint37_linear)"/>
<path d="M118.478 91.0297L131.666 55.4487L150.948 83.2483L118.478 91.0297Z" fill="#A1C3FC"/>
<path d="M57.6415 240.599L12.6481 230.557L19.7225 276.766L57.6415 240.599ZM15.8701 234.008L52.1955 242.114L21.5821 271.313L15.8701 234.008Z" fill="url(#paint38_linear)"/>
<path d="M170.485 107.167C169.568 107.306 168.713 107.825 168.175 108.668L161.369 119.333C160.893 120.081 160.735 120.972 160.927 121.843C161.118 122.713 161.636 123.456 162.382 123.932C163.129 124.409 164.021 124.563 164.889 124.374C165.759 124.181 166.502 123.663 166.979 122.915L173.785 112.249C174.774 110.701 174.319 108.638 172.772 107.65C172.068 107.2 171.255 107.05 170.485 107.167ZM164.432 122.834C164.033 122.894 163.61 122.816 163.244 122.582C162.441 122.069 162.206 120.999 162.718 120.194L169.524 109.529C170.037 108.725 171.108 108.488 171.911 109.001C172.715 109.514 172.95 110.584 172.437 111.389L165.631 122.055C165.352 122.491 164.908 122.761 164.432 122.834Z" fill="url(#paint39_linear)"/>
<path d="M8.07133 271.096C6.04237 269.359 3.26327 268.54 0.448372 269.109C-4.40685 270.093 -7.56053 274.845 -6.58125 279.703L-0.156851 311.567C0.315697 313.913 1.6817 315.937 3.683 317.267C5.68666 318.598 8.08088 319.069 10.4246 318.594C15.2799 317.61 18.4335 312.859 17.4543 308L11.0301 276.135C10.6174 274.095 9.54127 272.355 8.07133 271.096ZM4.50156 314.622C3.45843 313.729 2.69517 312.496 2.40401 311.049L-4.02038 279.185C-4.35551 277.524 -4.01924 275.825 -3.07444 274.402C-2.12939 272.978 -0.695912 272.009 0.963767 271.673C4.40796 270.975 7.77186 273.209 8.46822 276.654L14.8918 308.519C15.227 310.18 14.8907 311.878 13.9459 313.302C13.0009 314.726 11.5674 315.695 9.90793 316.031C7.91104 316.436 5.94037 315.854 4.50156 314.622Z" fill="#A6BFFF"/>
<path d="M152.354 110.485C153.45 108.037 153.616 105.172 152.588 102.476C151.593 99.8622 149.64 97.7944 147.089 96.6525C144.538 95.5103 141.695 95.4313 139.083 96.4291C133.69 98.4889 130.976 104.554 133.031 109.947C134.026 112.56 135.979 114.628 138.53 115.77C141.08 116.912 143.924 116.991 146.536 115.994C149.232 114.963 151.259 112.932 152.354 110.485ZM134.963 102.699C135.864 100.687 137.53 99.0176 139.746 98.1709C141.893 97.3507 144.23 97.4155 146.327 98.3543C148.423 99.2928 150.028 100.993 150.846 103.141C152.535 107.574 150.303 112.559 145.872 114.252C143.725 115.073 141.387 115.007 139.291 114.069C137.194 113.13 135.589 111.43 134.771 109.283C133.927 107.065 134.062 104.711 134.963 102.699Z" fill="url(#paint40_linear)"/>
<path d="M353.115 331.058C344.245 347.819 310.795 348.703 310.795 348.703L321.322 318.367C328.355 325.855 334.928 331.318 353.115 331.058Z" fill="url(#paint41_linear)"/>
<path d="M310.128 196.689L372.387 222.088C372.387 222.088 400.749 195.317 377.921 180.215C377.921 180.215 377.921 190.511 357.168 182.961C336.416 175.411 338.49 176.096 338.49 176.096L310.128 196.689Z" fill="url(#paint42_linear)"/>
<path d="M347.198 266.534L340.921 293.362C350.471 291.943 360.979 286.109 355.522 275.039C350.064 263.97 333.716 260.502 333.716 260.502C333.716 260.502 333.455 244.644 333.23 237.157C333.005 229.67 327.771 226.088 327.771 226.088L347.198 266.534Z" fill="url(#paint43_linear)"/>
<path d="M328.306 225.753C328.306 225.753 342.858 231.112 349.082 238.648C355.305 246.185 354.083 245.426 355.035 251.695C355.987 257.964 357.017 280.915 357.017 280.915C357.017 280.915 359.345 268.063 333.715 260.503L328.306 225.753Z" fill="url(#paint44_linear)"/>
</g>
<defs>
<linearGradient id="paint0_linear" x1="344.475" y1="175.275" x2="350.977" y2="173.289" gradientUnits="userSpaceOnUse">
<stop offset="0.0898" stop-color="white"/>
<stop offset="0.8178" stop-color="#EEEEEE"/>
</linearGradient>
<linearGradient id="paint1_linear" x1="341.132" y1="158.615" x2="352.202" y2="155.235" gradientUnits="userSpaceOnUse">
<stop offset="0.0898" stop-color="white"/>
<stop offset="0.8178" stop-color="#EEEEEE"/>
</linearGradient>
<linearGradient id="paint2_linear" x1="130.284" y1="136.33" x2="167.8" y2="124.895" gradientUnits="userSpaceOnUse">
<stop offset="0.0898" stop-color="white"/>
<stop offset="0.8178" stop-color="#EEEEEE"/>
</linearGradient>
<linearGradient id="paint3_linear" x1="325.911" y1="175.952" x2="340.778" y2="171.545" gradientUnits="userSpaceOnUse">
<stop offset="0.0898" stop-color="white"/>
<stop offset="0.8178" stop-color="#EEEEEE"/>
</linearGradient>
<linearGradient id="paint4_linear" x1="287.181" y1="138.497" x2="346.77" y2="155.092" gradientUnits="userSpaceOnUse">
<stop stop-color="#E94A47"/>
<stop offset="1" stop-color="#D62929"/>
</linearGradient>
<linearGradient id="paint5_linear" x1="274.281" y1="107.714" x2="297.634" y2="128.678" gradientUnits="userSpaceOnUse">
<stop stop-color="#E94A47"/>
<stop offset="1" stop-color="#D62929"/>
</linearGradient>
<linearGradient id="paint6_linear" x1="297.734" y1="130.723" x2="303.756" y2="136.987" gradientUnits="userSpaceOnUse">
<stop stop-color="#E94A47"/>
<stop offset="1" stop-color="#D62929"/>
</linearGradient>
<linearGradient id="paint7_linear" x1="316.467" y1="84.6776" x2="284.921" y2="76.064" gradientUnits="userSpaceOnUse">
<stop offset="0.0898" stop-color="white"/>
<stop offset="0.8178" stop-color="#EEEEEE"/>
</linearGradient>
<linearGradient id="paint8_linear" x1="339.832" y1="103.246" x2="300.284" y2="92.4993" gradientUnits="userSpaceOnUse">
<stop offset="0.0898" stop-color="white"/>
<stop offset="0.8178" stop-color="#EEEEEE"/>
</linearGradient>
<linearGradient id="paint9_linear" x1="153.844" y1="253.433" x2="282.133" y2="253.433" gradientUnits="userSpaceOnUse">
<stop stop-color="#23286B"/>
<stop offset="1" stop-color="#151A4F"/>
</linearGradient>
<linearGradient id="paint10_linear" x1="285.914" y1="350.419" x2="134.518" y2="345.55" gradientUnits="userSpaceOnUse">
<stop stop-color="#23286B"/>
<stop offset="1" stop-color="#151A4F"/>
</linearGradient>
<linearGradient id="paint11_linear" x1="484.094" y1="379.882" x2="90.9164" y2="256.216" gradientUnits="userSpaceOnUse">
<stop stop-color="#A1C3FC"/>
<stop offset="0.6955" stop-color="#81AEF2"/>
<stop offset="1" stop-color="#78A9EF"/>
</linearGradient>
<linearGradient id="paint12_linear" x1="268.871" y1="302.268" x2="73.073" y2="200.398" gradientUnits="userSpaceOnUse">
<stop stop-color="#A1C3FC"/>
<stop offset="0.6955" stop-color="#81AEF2"/>
<stop offset="1" stop-color="#78A9EF"/>
</linearGradient>
<linearGradient id="paint13_linear" x1="154.026" y1="206.12" x2="275.208" y2="206.12" gradientUnits="userSpaceOnUse">
<stop offset="0.1291" stop-color="#428DFC"/>
<stop offset="0.9987" stop-color="#1D72D8"/>
</linearGradient>
<linearGradient id="paint14_linear" x1="174.848" y1="324.449" x2="303.228" y2="324.449" gradientUnits="userSpaceOnUse">
<stop offset="0.1291" stop-color="#428DFC"/>
<stop offset="0.9987" stop-color="#1D72D8"/>
</linearGradient>
<linearGradient id="paint15_linear" x1="154.259" y1="229.821" x2="308.644" y2="229.821" gradientUnits="userSpaceOnUse">
<stop stop-color="#A1C3FC"/>
<stop offset="0.6955" stop-color="#81AEF2"/>
<stop offset="0.7528" stop-color="#7FADF1"/>
<stop offset="1" stop-color="#78A9EF"/>
</linearGradient>
<linearGradient id="paint16_linear" x1="224.145" y1="311.182" x2="165.769" y2="312.961" gradientUnits="userSpaceOnUse">
<stop offset="0.0898" stop-color="white"/>
<stop offset="0.8178" stop-color="#EEEEEE"/>
</linearGradient>
<linearGradient id="paint17_linear" x1="265.439" y1="216.673" x2="160.917" y2="222.39" gradientUnits="userSpaceOnUse">
<stop offset="0.0898" stop-color="white"/>
<stop offset="0.8178" stop-color="#EEEEEE"/>
</linearGradient>
<linearGradient id="paint18_linear" x1="258.443" y1="240.3" x2="152.955" y2="246.124" gradientUnits="userSpaceOnUse">
<stop offset="0.0898" stop-color="white"/>
<stop offset="0.8178" stop-color="#EEEEEE"/>
</linearGradient>
<linearGradient id="paint19_linear" x1="265.619" y1="263.928" x2="211.782" y2="265.441" gradientUnits="userSpaceOnUse">
<stop offset="0.0898" stop-color="white"/>
<stop offset="0.8178" stop-color="#EEEEEE"/>
</linearGradient>
<linearGradient id="paint20_linear" x1="252.334" y1="334.9" x2="146.278" y2="340.787" gradientUnits="userSpaceOnUse">
<stop offset="0.0898" stop-color="white"/>
<stop offset="0.8178" stop-color="#EEEEEE"/>
</linearGradient>
<linearGradient id="paint21_linear" x1="263.676" y1="193.046" x2="224.198" y2="193.859" gradientUnits="userSpaceOnUse">
<stop offset="0.0898" stop-color="white"/>
<stop offset="0.8178" stop-color="#EEEEEE"/>
</linearGradient>
<linearGradient id="paint22_linear" x1="267.935" y1="287.736" x2="163.65" y2="293.427" gradientUnits="userSpaceOnUse">
<stop offset="0.0898" stop-color="white"/>
<stop offset="0.8178" stop-color="#EEEEEE"/>
</linearGradient>
<linearGradient id="paint23_linear" x1="308.097" y1="274.803" x2="267.848" y2="280.288" gradientUnits="userSpaceOnUse">
<stop stop-color="#23286B"/>
<stop offset="0.6955" stop-color="#031361"/>
<stop offset="0.8442" stop-color="#001160"/>
<stop offset="1" stop-color="#000E5E"/>
</linearGradient>
<linearGradient id="paint24_linear" x1="257.178" y1="277.247" x2="182.624" y2="290.046" gradientUnits="userSpaceOnUse">
<stop stop-color="#23286B"/>
<stop offset="0.6955" stop-color="#031361"/>
<stop offset="1" stop-color="#000E5E"/>
</linearGradient>
<linearGradient id="paint25_linear" x1="333.012" y1="259.732" x2="255.094" y2="200.15" gradientUnits="userSpaceOnUse">
<stop offset="0.1291" stop-color="#E94A47"/>
<stop offset="0.9987" stop-color="#C42F23"/>
</linearGradient>
<linearGradient id="paint26_linear" x1="252.106" y1="120.768" x2="264.569" y2="67.9554" gradientUnits="userSpaceOnUse">
<stop stop-color="#FFBEB6"/>
<stop offset="1" stop-color="#F2A19C"/>
</linearGradient>
<linearGradient id="paint27_linear" x1="196.423" y1="131.264" x2="245.483" y2="131.264" gradientUnits="userSpaceOnUse">
<stop stop-color="#23286B"/>
<stop offset="1" stop-color="#151A4F"/>
</linearGradient>
<linearGradient id="paint28_linear" x1="290.788" y1="158.792" x2="248.926" y2="150.203" gradientUnits="userSpaceOnUse">
<stop stop-color="#FFBEB6"/>
<stop offset="0.6465" stop-color="#F7ABA5"/>
<stop offset="1" stop-color="#F2A19C"/>
</linearGradient>
<linearGradient id="paint29_linear" x1="202.11" y1="113.167" x2="212.465" y2="176.71" gradientUnits="userSpaceOnUse">
<stop stop-color="#23286B"/>
<stop offset="1" stop-color="#151A4F"/>
</linearGradient>
<linearGradient id="paint30_linear" x1="233.426" y1="105.803" x2="243.507" y2="92.0164" gradientUnits="userSpaceOnUse">
<stop stop-color="#FFBEB6"/>
<stop offset="1" stop-color="#F2A19C"/>
</linearGradient>
<linearGradient id="paint31_linear" x1="236.441" y1="38.4633" x2="246.648" y2="60.0841" gradientUnits="userSpaceOnUse">
<stop stop-color="#428DFC"/>
<stop offset="0.9918" stop-color="#2F6CDE"/>
</linearGradient>
<linearGradient id="paint32_linear" x1="135.184" y1="283.952" x2="92.1632" y2="283.952" gradientUnits="userSpaceOnUse">
<stop stop-color="#B9D3FD"/>
<stop offset="1" stop-color="#89B3F4"/>
</linearGradient>
<linearGradient id="paint33_linear" x1="107.826" y1="293.533" x2="74.239" y2="293.533" gradientUnits="userSpaceOnUse">
<stop stop-color="#DEEAFE"/>
<stop offset="1" stop-color="#E9F1FE"/>
</linearGradient>
<linearGradient id="paint34_linear" x1="91.7872" y1="306.934" x2="117.441" y2="307.066" gradientUnits="userSpaceOnUse">
<stop offset="0.0898" stop-color="white"/>
<stop offset="0.8178" stop-color="#EEEEEE"/>
</linearGradient>
<linearGradient id="paint35_linear" x1="170.627" y1="102.694" x2="173.739" y2="95.8608" gradientUnits="userSpaceOnUse">
<stop offset="0.0898" stop-color="white"/>
<stop offset="0.8178" stop-color="#EEEEEE"/>
</linearGradient>
<linearGradient id="paint36_linear" x1="154.384" y1="93.2697" x2="159.683" y2="81.6376" gradientUnits="userSpaceOnUse">
<stop offset="0.0898" stop-color="white"/>
<stop offset="0.8178" stop-color="#EEEEEE"/>
</linearGradient>
<linearGradient id="paint37_linear" x1="82.1187" y1="143.666" x2="63.7854" y2="155.189" gradientUnits="userSpaceOnUse">
<stop offset="0.0898" stop-color="white"/>
<stop offset="0.8178" stop-color="#EEEEEE"/>
</linearGradient>
<linearGradient id="paint38_linear" x1="-18.3264" y1="251.426" x2="-0.350516" y2="212.017" gradientUnits="userSpaceOnUse">
<stop offset="0.0898" stop-color="white"/>
<stop offset="0.8178" stop-color="#EEEEEE"/>
</linearGradient>
<linearGradient id="paint39_linear" x1="157.606" y1="118.549" x2="164.832" y2="103.023" gradientUnits="userSpaceOnUse">
<stop offset="0.0898" stop-color="white"/>
<stop offset="0.8178" stop-color="#EEEEEE"/>
</linearGradient>
<linearGradient id="paint40_linear" x1="121.978" y1="104.773" x2="129.733" y2="87.751" gradientUnits="userSpaceOnUse">
<stop offset="0.0898" stop-color="white"/>
<stop offset="0.8178" stop-color="#EEEEEE"/>
</linearGradient>
<linearGradient id="paint41_linear" x1="351.216" y1="310.147" x2="317.837" y2="303.767" gradientUnits="userSpaceOnUse">
<stop offset="0.0898" stop-color="white"/>
<stop offset="0.8178" stop-color="#EEEEEE"/>
</linearGradient>
<linearGradient id="paint42_linear" x1="276.612" y1="183.271" x2="276.773" y2="224.356" gradientUnits="userSpaceOnUse">
<stop offset="0.0898" stop-color="white"/>
<stop offset="0.8178" stop-color="#EEEEEE"/>
</linearGradient>
<linearGradient id="paint43_linear" x1="309.655" y1="203.164" x2="290.43" y2="215.302" gradientUnits="userSpaceOnUse">
<stop offset="0.0898" stop-color="white"/>
<stop offset="0.8178" stop-color="#EEEEEE"/>
</linearGradient>
<linearGradient id="paint44_linear" x1="320.185" y1="198.861" x2="301.107" y2="210.91" gradientUnits="userSpaceOnUse">
<stop offset="0.0898" stop-color="white"/>
<stop offset="0.8178" stop-color="#EEEEEE"/>
</linearGradient>
<clipPath id="clip0">
<rect width="426" height="426" fill="white"/>
</clipPath>
</defs>
</svg>
