<svg width="208" height="244" viewBox="0 0 208 244" fill="none" xmlns="http://www.w3.org/2000/svg">
<path d="M109.163 117.351C109.163 117.351 100.023 118.406 96.2856 112.114C92.5482 105.822 91.0273 106.472 85.9724 105.522C83.7923 105.111 75.6754 103.212 69.4279 101.649L81.5645 91.7341C86.9824 96.2055 94.5443 102.02 97.8971 102.709C103.406 103.833 108.498 102.008 110.967 102.351C113.46 102.694 114.08 103.061 114.104 104.879C114.104 104.879 115.3 105.253 118.461 105.964C124.514 107.717 113.103 117.21 109.163 117.351Z" fill="#FFBEB6"/>
<path d="M99.7162 213.474H85.2223C85.2223 213.474 79.4125 208.582 73.8431 200.946C67.6145 192.296 71.0886 178.932 59.4092 169.447C53.1211 164.316 50.9045 152.385 48.8687 149.7C48.8687 148.567 48.8687 147.493 48.8687 146.538C48.6293 131.623 47.0719 114.024 45.9343 103.406C46.3537 104.539 46.7126 105.732 47.1319 107.105C50.1858 116.829 59.5891 119.335 59.5891 119.335L64.7992 113.011C66.6559 116.351 69.9501 122.616 71.687 128.163C74.2025 136.159 99.7162 213.474 99.7162 213.474Z" fill="url(#paint0_linear)"/>
<path d="M32.7573 213.474L25.9894 232.267H73.7825C73.7825 232.267 71.3269 227.553 63.182 224.094C55.0371 220.634 47.3706 213.475 47.3706 213.475H32.7573" fill="#A1C3FC"/>
<path d="M85.2226 213.474L78.4542 232.267H126.247C126.247 232.267 123.792 227.553 115.647 224.094C107.502 220.634 99.8355 213.475 99.8355 213.475H85.2226" fill="#A1C3FC"/>
<path d="M47.3708 213.474H32.7574C20.2398 201.244 20.9589 191.103 20.0003 171.655C19.1022 152.266 16.0474 158.47 17.0055 140.036C17.9641 121.542 17.4853 125.241 11.4352 98.9323C5.56597 73.2798 18.562 58.2459 19.2212 57.4708C23.8924 62.0051 30.241 67.5528 35.5114 70.2378C31.1996 80.4392 35.8704 88.0155 38.9256 90.9986C42.0404 94.1012 43.6577 96.6658 45.9929 103.466C47.1309 114.086 48.6878 131.624 48.9273 146.598C49.1676 163.303 47.3708 213.474 47.3708 213.474Z" fill="#428DFC"/>
<path d="M33.4762 73.0417C33.5362 73.0417 33.5362 73.0417 33.5957 73.1014C33.5957 73.1612 33.5957 73.1612 33.5357 73.2204C33.4758 73.2204 33.4758 73.2204 33.4163 73.1607C33.4163 73.1014 33.4163 73.0417 33.4762 73.0417ZM31.6794 73.8765C31.6794 73.9362 31.7394 73.9362 31.7989 73.9362C31.8589 73.9362 31.8589 73.8765 31.8589 73.8172C31.8589 73.7575 31.7989 73.7575 31.7394 73.7575C31.6794 73.8168 31.6794 73.8765 31.6794 73.8765ZM33.7756 70.178C33.7756 70.2377 33.8356 70.2377 33.8356 70.2377C33.8956 70.2377 33.8956 70.178 33.8956 70.178C33.8956 70.1183 33.8356 70.1183 33.8356 70.1183C33.7756 70.0581 33.7756 70.1183 33.7756 70.178ZM31.8589 70.178C31.8589 70.2377 31.9188 70.2377 31.9188 70.2377C31.9788 70.2377 31.9788 70.178 31.9788 70.178L31.9188 70.1183C31.8589 70.1183 31.8589 70.178 31.8589 70.178ZM29.9426 70.2373C29.9426 70.297 30.0026 70.297 30.0026 70.297C30.0625 70.297 30.0625 70.2373 30.0625 70.2373C30.0625 70.1776 30.0026 70.1776 30.0026 70.1776C30.003 70.178 29.9426 70.178 29.9426 70.2373ZM33.1768 77.575C33.2368 77.6348 33.2368 77.575 33.2963 77.575C33.2963 77.5153 33.2963 77.5153 33.2963 77.456C33.2363 77.456 33.2363 77.456 33.1768 77.456C33.1768 77.5158 33.1768 77.575 33.1768 77.575ZM34.075 72.3847C34.135 72.4444 34.1945 72.4444 34.2549 72.4444C34.3149 72.3847 34.3149 72.3254 34.3149 72.2653C34.2549 72.2055 34.1954 72.2055 34.135 72.2055C34.075 72.2657 34.075 72.3254 34.075 72.3847ZM31.8589 73.8168C31.9188 73.8765 31.9784 73.8765 32.0388 73.8765C32.0987 73.8168 32.0987 73.7575 32.0987 73.6973C32.0388 73.6376 31.9793 73.6376 31.9188 73.6376C31.7994 73.6978 31.7994 73.7571 31.8589 73.8168ZM29.5832 75.1891C29.6432 75.2489 29.7027 75.2489 29.7631 75.2489C29.8231 75.1891 29.8231 75.1299 29.8231 75.0697C29.7631 75.01 29.7036 75.01 29.6432 75.01C29.5233 75.0697 29.5233 75.1294 29.5832 75.1891ZM27.3076 76.561C27.3675 76.6208 27.4271 76.6208 27.4875 76.6208C27.5475 76.561 27.5475 76.5018 27.5475 76.4416C27.4875 76.3819 27.428 76.3819 27.3675 76.3819C27.2476 76.4416 27.2476 76.561 27.3076 76.561ZM30.7812 67.7319C30.7812 67.7917 30.7812 67.8509 30.8412 67.8509C30.9012 67.8509 30.9607 67.8509 30.9607 67.7912C30.9607 67.7315 30.9607 67.6722 30.9007 67.6722C30.8412 67.6125 30.7812 67.6727 30.7812 67.7319ZM28.1458 67.0759C28.1458 67.1356 28.1458 67.1949 28.2058 67.1949C28.2657 67.1949 28.3252 67.1949 28.3252 67.1351C28.3252 67.0754 28.3252 67.0161 28.2653 67.0161C28.2053 67.0161 28.1458 67.0157 28.1458 67.0759ZM25.5707 66.479C25.5707 66.5388 25.5707 66.598 25.6307 66.598C25.6907 66.598 25.7502 66.598 25.7502 66.5383C25.7502 66.4786 25.7502 66.4193 25.6902 66.4193C25.6307 66.3596 25.5707 66.4193 25.5707 66.479ZM32.0388 70.6549C32.0388 70.7146 32.0987 70.7739 32.1583 70.7739C32.2182 70.7739 32.2778 70.7142 32.2778 70.6549C32.2778 70.5952 32.2178 70.5359 32.1583 70.5359C32.0992 70.5364 32.0388 70.5952 32.0388 70.6549ZM29.4038 71.0726C29.4038 71.1323 29.4637 71.1916 29.5233 71.1916C29.5832 71.1916 29.6427 71.1318 29.6427 71.0726C29.6427 71.0133 29.5828 70.9535 29.5233 70.9535C29.4633 70.9535 29.4038 71.0128 29.4038 71.0726ZM26.7688 71.4906C26.7688 71.5504 26.8287 71.6096 26.8883 71.6096C26.9478 71.6096 27.0077 71.5499 27.0077 71.4906C27.0077 71.4314 26.9478 71.3716 26.8883 71.3716C26.8287 71.3716 26.7688 71.4309 26.7688 71.4906ZM24.1329 71.9078C24.1329 71.9675 24.1928 72.0268 24.2523 72.0268C24.3123 72.0268 24.3718 71.9671 24.3718 71.9078C24.3718 71.8485 24.3119 71.7888 24.2523 71.7888C24.1928 71.7888 24.1329 71.8481 24.1329 71.9078ZM33.1768 69.7599C33.1768 69.8197 33.2368 69.8196 33.2963 69.8196C33.3558 69.8196 33.3563 69.7599 33.3563 69.7006C33.3563 69.6414 33.2963 69.6409 33.2368 69.6409C33.1768 69.7006 33.1768 69.7599 33.1768 69.7599ZM31.2001 70.2373C31.2001 70.297 31.2601 70.297 31.3196 70.297C31.3796 70.297 31.3796 70.2373 31.3796 70.178C31.3796 70.1183 31.3196 70.1183 31.2601 70.1183C31.2605 70.178 31.2001 70.2373 31.2001 70.2373ZM29.2239 70.7151C29.2239 70.7748 29.2838 70.7748 29.3434 70.7748C29.4033 70.7748 29.4033 70.7151 29.4033 70.6558C29.4033 70.5965 29.3434 70.5961 29.2838 70.5961C29.2838 70.6549 29.2239 70.7151 29.2239 70.7151ZM27.2476 71.1925C27.2476 71.2522 27.3076 71.2522 27.3671 71.2522C27.4271 71.2522 27.4271 71.1924 27.4271 71.1332C27.4271 71.0739 27.3671 71.0734 27.3076 71.0734C27.3076 71.1318 27.2476 71.1318 27.2476 71.1925ZM34.0155 73.996C34.0755 73.996 34.135 73.996 34.135 73.996C34.135 73.9362 34.135 73.877 34.135 73.877C34.075 73.877 34.0155 73.877 34.0155 73.877C34.0155 73.9362 34.0155 73.996 34.0155 73.996ZM32.9969 75.7262C33.0569 75.7262 33.1164 75.7262 33.1164 75.7262C33.1164 75.6665 33.1164 75.6072 33.1164 75.6072C33.0564 75.6072 32.9969 75.6072 32.9969 75.6072C32.9374 75.6661 32.9374 75.7262 32.9969 75.7262ZM31.9188 77.456C31.9788 77.456 32.0383 77.456 32.0383 77.456C32.0383 77.3963 32.0383 77.337 32.0383 77.337C31.9784 77.337 31.9188 77.337 31.9188 77.337C31.8589 77.3963 31.9188 77.456 31.9188 77.456ZM30.0621 67.6727C30.0621 67.7324 30.0621 67.7324 30.122 67.7917C30.182 67.7917 30.182 67.7917 30.2415 67.7319C30.2415 67.6722 30.2415 67.6722 30.1816 67.6129C30.122 67.6125 30.0621 67.6727 30.0621 67.6727ZM28.0263 67.3736C28.0263 67.4333 28.0263 67.4333 28.0863 67.4926C28.1462 67.4926 28.1462 67.4926 28.2058 67.4329C28.2058 67.3731 28.2058 67.3731 28.1458 67.3139C28.0863 67.3143 28.0263 67.3143 28.0263 67.3736ZM26.0496 67.0759C26.0496 67.1356 26.0496 67.1356 26.1096 67.1949C26.1695 67.1949 26.1695 67.1949 26.229 67.1351C26.229 67.0754 26.229 67.0754 26.1691 67.0161C26.1096 67.0157 26.0496 67.0157 26.0496 67.0759ZM32.9969 71.8481C32.9969 71.9078 33.0569 71.9078 33.1164 71.8481C33.1764 71.8481 33.1764 71.7884 33.1164 71.7291C33.1164 71.6694 33.0564 71.6694 32.9969 71.7291C32.9374 71.7291 32.9374 71.7888 32.9969 71.8481ZM31.3201 73.0417C31.3201 73.1014 31.38 73.1014 31.4395 73.0417C31.4995 73.0417 31.4995 72.982 31.4395 72.9227C31.4395 72.863 31.3796 72.863 31.3201 72.9227C31.3201 72.9218 31.3201 72.9815 31.3201 73.0417ZM29.7032 74.2344C29.7032 74.2942 29.7631 74.2942 29.8226 74.2344C29.8826 74.2344 29.8826 74.1747 29.8226 74.1154C29.8226 74.0557 29.7627 74.0557 29.7032 74.1154C29.7032 74.1159 29.7032 74.1747 29.7032 74.2344ZM28.0863 75.3679C28.0863 75.4276 28.1462 75.4276 28.2058 75.3679C28.2657 75.3679 28.2657 75.3081 28.2058 75.2489C28.2058 75.1891 28.1458 75.1891 28.0863 75.2489C28.0263 75.3086 28.0263 75.3679 28.0863 75.3679ZM32.578 68.9247C32.578 68.9247 32.638 68.9844 32.578 68.9247C32.638 68.9247 32.6975 68.9247 32.638 68.8649C32.638 68.8649 32.638 68.8649 32.578 68.9247C32.578 68.8649 32.578 68.9247 32.578 68.9247ZM31.5004 69.2835C31.5599 69.3427 31.5599 69.3427 31.5004 69.2835C31.5604 69.2835 31.6199 69.2835 31.5604 69.2237C31.6195 69.2835 31.5599 69.2233 31.5004 69.2835ZM30.4819 69.7006C30.4819 69.7006 30.4819 69.7599 30.4819 69.7006C30.5418 69.7006 30.6013 69.7006 30.5418 69.6409C30.5414 69.6409 30.5414 69.6409 30.4819 69.7006C30.4819 69.6409 30.4819 69.7006 30.4819 69.7006ZM34.3744 70.8336H34.4344V70.7739H34.3744C34.3149 70.7739 34.3744 70.8336 34.3744 70.8336ZM33.8951 71.8481H33.9551V71.7884H33.8951V71.8481ZM33.4163 72.8625H33.4762V72.8032H33.4163V72.8625ZM30.6013 67.4935C30.6013 67.4935 30.6609 67.5528 30.6013 67.4935C30.6613 67.5532 30.7208 67.4935 30.7208 67.4935C30.7217 67.4338 30.7217 67.4338 30.6013 67.4935C30.6609 67.4338 30.6013 67.4338 30.6013 67.4935ZM29.5233 67.4338C29.5233 67.4338 29.5233 67.4935 29.5233 67.4338C29.5832 67.4935 29.6427 67.4338 29.6427 67.4338C29.5832 67.4338 29.5832 67.3736 29.5233 67.4338C29.5233 67.3736 29.5233 67.3736 29.5233 67.4338ZM32.817 70.3567H32.877V70.297H32.817C32.7575 70.3567 32.7575 70.3567 32.817 70.3567ZM31.9788 71.1318H32.0388V71.0721H31.9788V71.1318ZM31.1406 71.9078H31.2006V71.8481H31.1406C31.1406 71.8481 31.1406 71.8481 31.1406 71.9078ZM30.1825 67.3143C30.1825 67.374 30.2424 67.374 30.3019 67.374C30.3615 67.374 30.3619 67.3143 30.3619 67.255C30.3619 67.1958 30.3019 67.1953 30.2424 67.1953C30.2424 67.2546 30.1825 67.2546 30.1825 67.3143ZM28.1458 67.6727C28.1458 67.7324 28.2058 67.7324 28.2653 67.7324C28.3252 67.7324 28.3252 67.6727 28.3252 67.6134C28.3252 67.5537 28.2653 67.5537 28.2058 67.5537C28.1458 67.5528 28.0863 67.6125 28.1458 67.6727ZM26.0496 67.9708C26.0496 68.0306 26.1096 68.0306 26.1691 68.0306C26.229 68.0306 26.229 67.9708 26.229 67.9116C26.229 67.8518 26.1691 67.8518 26.1096 67.8518C26.0496 67.9107 26.0496 67.9107 26.0496 67.9708ZM23.9534 68.3283C23.9534 68.388 24.0134 68.388 24.0729 68.388C24.1324 68.388 24.1329 68.3283 24.1329 68.269C24.1329 68.2093 24.0729 68.2093 24.0134 68.2093C24.0134 68.2093 23.9534 68.269 23.9534 68.3283ZM31.9788 70.0581C32.0388 70.0581 32.0983 70.0581 32.0983 70.0581C32.0983 69.9984 32.0983 69.9391 32.0983 69.9391C32.0383 69.9391 31.9788 69.9391 31.9788 69.9391C31.9188 69.9988 31.9188 70.0581 31.9788 70.0581ZM30.7217 71.7888C30.7817 71.7888 30.8412 71.7888 30.8412 71.7888C30.8412 71.7291 30.8412 71.6698 30.8412 71.6698C30.7812 71.6698 30.7217 71.6698 30.7217 71.6698C30.6609 71.6689 30.7217 71.7291 30.7217 71.7888ZM29.5233 73.4589C29.5832 73.4589 29.6427 73.4589 29.6427 73.4589V73.3399C29.5828 73.3399 29.5233 73.3399 29.5233 73.3399C29.4633 73.3996 29.4633 73.4589 29.5233 73.4589ZM28.2662 75.1294C28.3261 75.1294 28.3857 75.1294 28.3857 75.1294C28.3857 75.0697 28.3857 75.0104 28.3857 75.0104C28.3257 75.0104 28.2662 75.0104 28.2662 75.0104C28.2053 75.0697 28.2053 75.1294 28.2662 75.1294ZM27.1277 64.8682C27.1277 64.928 27.1277 64.9872 27.1876 64.9872C27.2476 64.9872 27.3071 64.9872 27.3071 64.9275C27.3071 64.8678 27.3071 64.8085 27.2472 64.8085C27.1881 64.8085 27.1277 64.8085 27.1277 64.8682ZM25.0319 64.3909C25.0319 64.4506 25.0319 64.5099 25.0919 64.5099C25.1519 64.5099 25.2114 64.5099 25.2114 64.4502C25.2114 64.3904 25.2114 64.3312 25.1514 64.3312C25.0914 64.2719 25.0914 64.3312 25.0319 64.3909ZM22.9953 63.8542C22.9953 63.914 22.9953 63.9732 23.0552 63.9732C23.1152 63.9732 23.1747 63.9732 23.1747 63.9135C23.1747 63.8538 23.1747 63.7945 23.1147 63.7945C23.0552 63.7945 23.0552 63.8542 22.9953 63.8542ZM31.5599 68.269C31.5599 68.3287 31.6199 68.3287 31.6794 68.269C31.7394 68.269 31.7394 68.2093 31.6794 68.15C31.6794 68.0903 31.6195 68.0903 31.5599 68.15C31.5599 68.1491 31.5599 68.2093 31.5599 68.269ZM29.7627 69.3427C29.7627 69.4025 29.8226 69.4025 29.8822 69.3427C29.9421 69.3427 29.9421 69.283 29.8822 69.2237C29.8822 69.164 29.8222 69.164 29.7627 69.2237C29.7627 69.2835 29.7627 69.3427 29.7627 69.3427ZM27.9659 70.4757C27.9659 70.5355 28.0258 70.5355 28.0854 70.4757C28.1453 70.4757 28.1453 70.416 28.0854 70.3567C28.0854 70.297 28.0254 70.297 27.9659 70.3567C27.9659 70.3567 27.9659 70.4165 27.9659 70.4757ZM26.229 71.5499C26.229 71.6096 26.289 71.6096 26.3485 71.5499C26.4085 71.5499 26.4085 71.4902 26.3485 71.4309C26.3485 71.3712 26.2886 71.3712 26.229 71.4309C26.17 71.4309 26.17 71.4906 26.229 71.5499ZM24.4327 72.6236C24.4327 72.6834 24.4927 72.6834 24.5522 72.6236C24.6122 72.6236 24.6122 72.5639 24.5522 72.5046C24.5522 72.4449 24.4922 72.4449 24.4327 72.5046C24.3723 72.5639 24.3723 72.6236 24.4327 72.6236ZM33.0569 71.7291C33.1169 71.7291 33.1764 71.7291 33.1764 71.6694C33.1764 71.6096 33.1764 71.5504 33.1164 71.5504C33.0564 71.5504 32.9969 71.5504 32.9969 71.6101C32.9969 71.6694 33.0569 71.7291 33.0569 71.7291ZM32.578 73.7571C32.638 73.7571 32.6975 73.7571 32.6975 73.6973C32.6975 73.6376 32.6975 73.5783 32.6376 73.5783C32.5776 73.5783 32.5181 73.5783 32.5181 73.6381C32.5181 73.6978 32.578 73.7571 32.578 73.7571ZM32.0992 75.8452C32.1592 75.8452 32.2187 75.8452 32.2187 75.7855C32.2187 75.7258 32.2187 75.6665 32.1587 75.6665C32.0987 75.6665 32.0392 75.6665 32.0392 75.7262C32.0388 75.7855 32.0388 75.7855 32.0992 75.8452ZM31.6195 77.8737C31.6794 77.8737 31.7389 77.8737 31.7389 77.8139C31.7389 77.7542 31.7389 77.6949 31.679 77.6949C31.619 77.6949 31.5595 77.6949 31.5595 77.7547C31.5599 77.8139 31.5599 77.8139 31.6195 77.8737ZM26.4094 63.5556C26.4094 63.5556 26.4094 63.6153 26.4694 63.6153C26.4694 63.6153 26.5293 63.6153 26.5293 63.5556C26.5293 63.5556 26.5293 63.4959 26.4694 63.4959C26.4094 63.4963 26.4094 63.4963 26.4094 63.5556ZM29.3438 67.4338C29.3438 67.4338 29.4038 67.4935 29.4038 67.4338C29.4038 67.374 29.4637 67.374 29.4038 67.374C29.4038 67.374 29.3438 67.3143 29.3438 67.374V67.4338ZM28.1458 68.0898C28.1458 68.0898 28.2058 68.1496 28.2058 68.0898C28.2058 68.0898 28.2657 68.0301 28.2058 68.0301C28.2058 68.0301 28.1458 67.9704 28.1458 68.0301V68.0898ZM26.9482 68.7459C26.9482 68.7459 27.0082 68.8057 27.0082 68.7459C27.0082 68.7459 27.0682 68.6862 27.0082 68.6862C27.0082 68.6862 26.9482 68.6265 26.9482 68.6862V68.7459ZM31.8589 69.4025C31.8589 69.4025 31.9188 69.4025 31.9188 69.3427C31.9188 69.283 31.9188 69.283 31.8589 69.283C31.8589 69.283 31.7989 69.283 31.7989 69.3427C31.7994 69.3427 31.7994 69.4025 31.8589 69.4025ZM31.4395 70.7151C31.4395 70.7151 31.4995 70.7151 31.4995 70.6554C31.4995 70.6554 31.4995 70.5956 31.4395 70.5956C31.4395 70.5956 31.3796 70.5956 31.3796 70.6554C31.4395 70.6549 31.4395 70.7151 31.4395 70.7151ZM31.0806 72.0273C31.0806 72.0273 31.1406 72.0273 31.1406 71.9675C31.1406 71.9675 31.1406 71.9078 31.0806 71.9078C31.0806 71.9078 31.0207 71.9078 31.0207 71.9675C31.0207 71.9675 31.0207 71.9675 31.0806 72.0273ZM28.1458 65.942C28.1458 66.0017 28.2058 66.0017 28.2058 66.0017C28.2657 66.0017 28.2657 65.942 28.2657 65.942C28.2657 65.8822 28.2058 65.8822 28.2058 65.8822C28.1458 65.8827 28.1458 65.942 28.1458 65.942ZM26.7688 66.1211C26.7688 66.1809 26.8287 66.1809 26.8287 66.1809C26.8887 66.1809 26.8887 66.1211 26.8887 66.1211C26.8887 66.0614 26.8287 66.0614 26.8287 66.0614C26.8287 66.0614 26.7688 66.0619 26.7688 66.1211ZM25.4508 66.2401C25.4508 66.2999 25.5108 66.2999 25.5108 66.2999C25.5707 66.2999 25.5707 66.2401 25.5707 66.2401C25.5707 66.1804 25.5108 66.1804 25.5108 66.1804C25.4508 66.1809 25.4508 66.2401 25.4508 66.2401ZM30.7217 68.1491H30.7817V68.0894H30.7217V68.1491ZM29.8826 69.1636H29.9426V69.1038H29.8826C29.8826 69.1636 29.8826 69.1636 29.8826 69.1636ZM29.044 70.2373H29.1039V70.1776H29.044C28.9844 70.178 28.9844 70.2373 29.044 70.2373ZM28.2053 71.3115H28.2653V71.2517H28.2053C28.1458 71.2513 28.1458 71.2513 28.2053 71.3115ZM33.4163 70.2373C33.4762 70.2373 33.4762 70.1776 33.4762 70.1776C33.4762 70.1178 33.4163 70.1178 33.4163 70.1178C33.3563 70.1178 33.3563 70.1776 33.3563 70.1776C33.3563 70.2373 33.4163 70.2373 33.4163 70.2373ZM33.5362 71.6096C33.5962 71.6096 33.5962 71.5499 33.5962 71.5499C33.5962 71.4902 33.5362 71.4902 33.5362 71.4902C33.4762 71.4902 33.4762 71.5499 33.4762 71.5499L33.5362 71.6096ZM33.7156 72.9218C33.7756 72.9218 33.7756 72.8621 33.7756 72.8621C33.7756 72.8024 33.7156 72.8024 33.7156 72.8024C33.6557 72.8024 33.6557 72.8621 33.6557 72.8621C33.6566 72.9218 33.6566 72.9218 33.7156 72.9218ZM25.5707 62.3032C25.5707 62.3629 25.5707 62.4222 25.6307 62.4222C25.6907 62.4222 25.7502 62.4222 25.7502 62.3624C25.7502 62.3027 25.7502 62.2434 25.6902 62.2434C25.6307 62.2434 25.5707 62.2434 25.5707 62.3032ZM23.594 61.5874C23.594 61.6471 23.594 61.7064 23.654 61.7064C23.714 61.7064 23.7735 61.7064 23.7735 61.6466C23.7735 61.5869 23.7735 61.5276 23.7135 61.5276C23.654 61.5272 23.594 61.5272 23.594 61.5874ZM21.6178 60.8711C21.6178 60.9308 21.6178 60.9901 21.6778 60.9901C21.7377 60.9901 21.7972 60.9901 21.7972 60.9304C21.7972 60.8706 21.7972 60.8114 21.7373 60.8114C21.6778 60.7521 21.6178 60.8114 21.6178 60.8711ZM27.7269 66.2999C27.7269 66.3596 27.7869 66.3596 27.8464 66.3596C27.9064 66.3596 27.9064 66.2999 27.9064 66.2406C27.9064 66.1809 27.8464 66.1809 27.7869 66.1809C27.7274 66.1809 27.6665 66.2401 27.7269 66.2999ZM25.8097 67.1356C25.8097 67.1953 25.8697 67.1953 25.9292 67.1953C25.9892 67.1953 25.9892 67.1356 25.9892 67.0763C25.9892 67.0166 25.9292 67.0166 25.8697 67.0166C25.8097 67.0759 25.7502 67.1356 25.8097 67.1356ZM23.8934 68.0301C23.8934 68.0898 23.9534 68.0898 24.0129 68.0898C24.0729 68.0898 24.0729 68.0301 24.0729 67.9708C24.0729 67.9111 24.0129 67.9111 23.9534 67.9111C23.8934 67.9111 23.8934 67.9708 23.8934 68.0301ZM21.9767 68.8649C21.9767 68.9247 22.0367 68.9247 22.0962 68.9247C22.1561 68.9247 22.1561 68.8649 22.1561 68.8057C22.1561 68.7459 22.0962 68.7459 22.0367 68.7459C21.9767 68.8061 21.9767 68.8649 21.9767 68.8649ZM30.122 68.4473C30.182 68.4473 30.2415 68.4473 30.2415 68.3876C30.2415 68.3279 30.2415 68.2686 30.1816 68.2686C30.1216 68.2686 30.0621 68.2686 30.0621 68.3283C30.0621 68.388 30.122 68.4473 30.122 68.4473ZM29.4038 70.4165C29.4637 70.4165 29.5233 70.4165 29.5233 70.3567C29.5233 70.297 29.5233 70.2377 29.4633 70.2377C29.4033 70.2377 29.3438 70.2377 29.3438 70.2975C29.3438 70.3572 29.3438 70.4165 29.4038 70.4165ZM28.6851 72.3847C28.745 72.3847 28.8045 72.3847 28.8045 72.325C28.8045 72.2653 28.8045 72.206 28.7446 72.206C28.6846 72.206 28.6251 72.206 28.6251 72.2657C28.6246 72.3254 28.6246 72.3254 28.6851 72.3847ZM27.9659 74.2937C28.0258 74.2937 28.0854 74.2937 28.0854 74.234C28.0854 74.1743 28.0854 74.115 28.0254 74.115C27.9654 74.115 27.9059 74.115 27.9059 74.1747C27.9059 74.2344 27.9059 74.2937 27.9659 74.2937ZM26.17 64.5701C26.17 64.6298 26.2299 64.6298 26.2895 64.6298C26.3494 64.6298 26.3494 64.5701 26.3494 64.5108C26.3494 64.4511 26.2895 64.4511 26.2895 64.4511C26.229 64.4506 26.17 64.5103 26.17 64.5701ZM24.0733 64.6293C24.0733 64.6891 24.1333 64.6891 24.1928 64.6891C24.2528 64.6891 24.2528 64.6293 24.2528 64.5701C24.2528 64.5103 24.1928 64.5103 24.1928 64.5103C24.1329 64.5103 24.0733 64.5701 24.0733 64.6293ZM22.0367 64.6891C22.0367 64.7488 22.0966 64.7488 22.1561 64.7488C22.2161 64.7488 22.2161 64.6891 22.2161 64.6298C22.2161 64.5705 22.1561 64.5701 22.0966 64.5701C22.0367 64.6293 21.9767 64.6293 22.0367 64.6891ZM19.9409 64.7488C19.9409 64.8085 20.0009 64.8085 20.0009 64.8085C20.0609 64.8085 20.0609 64.7488 20.0609 64.7488C20.0609 64.6891 20.0009 64.6891 19.9414 64.6891C19.9409 64.6891 19.9409 64.7488 19.9409 64.7488ZM29.3438 66.7175C29.4038 66.7772 29.4633 66.7772 29.4633 66.7175C29.5233 66.6578 29.5233 66.5985 29.4633 66.5985C29.4033 66.5388 29.3438 66.5388 29.3438 66.5985C29.2838 66.5985 29.2838 66.6578 29.3438 66.7175ZM27.9059 68.269C27.9659 68.3287 28.0254 68.3287 28.0254 68.269C28.0854 68.2093 28.0854 68.2093 28.0254 68.15C27.9654 68.0907 27.9654 68.0903 27.9059 68.15C27.8464 68.1491 27.8464 68.2093 27.9059 68.269ZM26.4689 69.7599C26.5289 69.8197 26.5884 69.8197 26.5884 69.7599C26.6484 69.7002 26.6484 69.7002 26.5884 69.6409C26.5284 69.5812 26.4689 69.5812 26.4689 69.6409C26.4094 69.7006 26.4094 69.7599 26.4689 69.7599ZM25.0319 71.3115C25.0919 71.3712 25.1514 71.3712 25.1514 71.3115C25.2114 71.2517 25.2114 71.1925 25.1514 71.1925C25.0914 71.1327 25.0319 71.1327 25.0319 71.1925C24.9711 71.1925 24.9711 71.2513 25.0319 71.3115ZM23.594 72.8032C23.654 72.863 23.7135 72.863 23.7135 72.8032C23.7735 72.7435 23.7735 72.7435 23.7135 72.6842C23.6536 72.6245 23.594 72.6245 23.594 72.6842C23.594 72.7435 23.594 72.8032 23.594 72.8032ZM31.6794 69.6409C31.7394 69.6409 31.7394 69.5812 31.7394 69.5812C31.7394 69.5215 31.6794 69.5215 31.6794 69.5215C31.6195 69.5215 31.6195 69.5812 31.6195 69.6405H31.6794V69.6409ZM31.7994 71.7291C31.8593 71.7291 31.8593 71.6694 31.8593 71.6101C31.8593 71.5504 31.7994 71.5504 31.7994 71.5504C31.7394 71.5504 31.7394 71.6101 31.7394 71.6101C31.6794 71.7291 31.7389 71.7291 31.7994 71.7291ZM31.8589 73.8168C31.9188 73.8168 31.9188 73.7571 31.9188 73.6978C31.9188 73.6385 31.8589 73.6381 31.7994 73.6381C31.7394 73.6381 31.7394 73.6978 31.7394 73.7571C31.7994 73.8168 31.7994 73.8168 31.8589 73.8168ZM31.9188 75.905C31.9788 75.905 31.9788 75.8452 31.9788 75.8452C31.9788 75.7855 31.9188 75.7855 31.8593 75.7855C31.7994 75.7855 31.7994 75.8452 31.7994 75.9045C31.8589 75.905 31.8589 75.905 31.9188 75.905ZM26.4689 63.3167C26.4689 63.3167 26.4689 63.3773 26.4689 63.3167C26.5289 63.3764 26.5884 63.3167 26.5884 63.3167C26.5889 63.2579 26.5289 63.2579 26.4689 63.3167C26.4689 63.2579 26.4689 63.2579 26.4689 63.3167ZM25.2114 63.3167C25.2114 63.3773 25.2114 63.3773 25.2114 63.3167C25.2714 63.3764 25.3309 63.3167 25.3309 63.3167C25.2709 63.3167 25.2709 63.2579 25.2114 63.3167C25.2114 63.2579 25.2114 63.3167 25.2114 63.3167ZM23.9534 63.3773C23.9534 63.3773 23.9534 63.4366 23.9534 63.3773C24.0134 63.4371 24.0729 63.3773 24.0729 63.3773C24.0134 63.3167 24.0134 63.3167 23.9534 63.3773C23.9534 63.3167 23.9534 63.3167 23.9534 63.3773ZM27.7269 65.942H27.7869V65.8822H27.7269C27.6665 65.8827 27.6665 65.942 27.7269 65.942ZM26.8283 66.8971H26.8883V66.8374H26.8283C26.8283 66.8365 26.8283 66.8365 26.8283 66.8971ZM25.9896 67.7917H26.0496V67.7319H25.9896C25.9297 67.7319 25.9297 67.7917 25.9896 67.7917ZM30.4819 66.956C30.4819 66.956 30.5414 66.956 30.4819 66.956C30.5418 66.8962 30.4819 66.8369 30.4819 66.8369C30.4223 66.8971 30.4223 66.8971 30.4819 66.956C30.4223 66.956 30.4223 66.956 30.4819 66.956ZM30.4819 68.269C30.5414 68.269 30.5414 68.2093 30.4819 68.269C30.5418 68.2093 30.4819 68.15 30.4819 68.15C30.4819 68.15 30.4819 68.1491 30.4819 68.269C30.4819 68.2093 30.4819 68.269 30.4819 68.269ZM30.5414 69.521C30.6013 69.521 30.6013 69.4617 30.5414 69.521C30.6013 69.4613 30.5414 69.402 30.5414 69.402C30.5414 69.402 30.4819 69.4025 30.5414 69.521C30.4819 69.4617 30.5414 69.521 30.5414 69.521ZM23.714 60.5729C23.714 60.5729 23.714 60.6326 23.7739 60.6326C23.7739 60.6326 23.8339 60.6326 23.8339 60.5729C23.8339 60.5729 23.8339 60.5132 23.7739 60.5132C23.7739 60.5729 23.714 60.5729 23.714 60.5729ZM27.3076 64.3909C27.3076 64.3909 27.3675 64.4506 27.3675 64.3909C27.3675 64.3909 27.4275 64.3312 27.3675 64.3312C27.3675 64.3312 27.3076 64.2714 27.3076 64.3312C27.3671 64.3312 27.3076 64.3909 27.3076 64.3909ZM26.17 64.9275C26.17 64.9275 26.2299 64.9872 26.2299 64.9275C26.2299 64.9275 26.2899 64.8678 26.2299 64.8678C26.2299 64.8678 26.17 64.8081 26.17 64.8678V64.9275ZM25.0319 65.4646C25.0319 65.4646 25.0919 65.5243 25.0919 65.4646C25.0919 65.4646 25.1519 65.4049 25.0919 65.4049C25.0919 65.4049 25.0319 65.3451 25.0319 65.4049C25.0319 65.4053 25.0319 65.4053 25.0319 65.4646ZM23.8335 65.942C23.8335 65.942 23.8934 66.0017 23.8934 65.942C23.8934 65.942 23.9534 65.8822 23.8934 65.8822C23.8934 65.8822 23.8335 65.8225 23.8335 65.8822V65.942ZM29.1044 66.1211C29.1044 66.1211 29.1643 66.1211 29.1643 66.0614C29.1643 66.0614 29.1643 66.0017 29.1044 66.0017C29.1044 66.0017 29.0444 66.0017 29.0444 66.0614C29.1044 66.0619 29.1044 66.0619 29.1044 66.1211ZM28.6851 67.2546C28.6851 67.2546 28.745 67.2546 28.745 67.1949C28.745 67.1949 28.745 67.1351 28.6851 67.1351C28.6851 67.1351 28.6251 67.1351 28.6251 67.1949C28.6251 67.2546 28.6246 67.2546 28.6851 67.2546ZM28.2053 68.4473C28.2053 68.4473 28.2653 68.4473 28.2653 68.3876C28.2653 68.3876 28.2653 68.3279 28.2053 68.3279C28.2053 68.3279 28.1453 68.3279 28.1453 68.3876C28.2053 68.4473 28.2053 68.4473 28.2053 68.4473ZM27.7864 69.6409C27.7864 69.6409 27.8464 69.6409 27.8464 69.5812C27.8464 69.5812 27.8464 69.5215 27.7864 69.5215C27.7864 69.5215 27.7265 69.5215 27.7265 69.5812C27.7269 69.5816 27.7269 69.6409 27.7864 69.6409ZM26.289 64.0927C26.349 64.0927 26.349 64.033 26.349 64.033C26.349 64.033 26.289 64.033 26.289 64.0927C26.289 64.033 26.229 64.0927 26.289 64.0927ZM25.4508 64.7488C25.5103 64.7488 25.5103 64.7488 25.4508 64.7488C25.5108 64.7488 25.5108 64.6891 25.5108 64.6891C25.5103 64.6293 25.5103 64.6293 25.4508 64.7488C25.4508 64.6891 25.4508 64.6891 25.4508 64.7488ZM29.044 65.5845C29.1044 65.5845 29.1044 65.5845 29.044 65.5845C29.1039 65.5248 29.1039 65.5248 29.044 65.5248C29.044 65.5248 29.044 65.5248 29.044 65.5845ZM28.9245 66.5985C28.9844 66.5985 28.9844 66.5985 28.9245 66.5985C28.9844 66.5388 28.9844 66.5388 28.9245 66.5388C28.9245 66.5383 28.9245 66.5383 28.9245 66.5985ZM24.9711 62.7801C24.9711 62.8398 25.0319 62.8398 24.9711 62.7801C25.031 62.7801 25.031 62.7801 25.031 62.7801C25.0319 62.7204 25.0319 62.7204 24.9711 62.7801C24.9711 62.7204 24.9711 62.7801 24.9711 62.7801ZM24.0134 63.0783C24.0733 63.0783 24.0733 63.0783 24.0733 63.0783C24.0733 63.0185 24.0134 63.0185 24.0134 63.0783C24.0134 63.0185 23.9534 63.0783 24.0134 63.0783ZM27.6665 64.6891C27.7269 64.6891 27.7269 64.6891 27.6665 64.6891C27.7265 64.6293 27.7265 64.6293 27.7265 64.6293C27.7269 64.5701 27.6665 64.6293 27.6665 64.6891C27.6665 64.6293 27.6665 64.6891 27.6665 64.6891ZM27.1881 65.5845C27.2476 65.5845 27.2476 65.5845 27.1881 65.5845C27.2481 65.5248 27.2481 65.5248 27.2481 65.5248C27.2476 65.4646 27.1881 65.4646 27.1881 65.5845C27.1881 65.5248 27.1881 65.5845 27.1881 65.5845ZM26.7088 66.479C26.7088 66.479 26.7688 66.479 26.7088 66.479C26.7688 66.4193 26.7688 66.4193 26.7688 66.4193C26.7088 66.3596 26.7088 66.3596 26.7088 66.479C26.6488 66.4193 26.7088 66.479 26.7088 66.479ZM25.6902 62.7801H25.7502V62.7204H25.6902C25.6307 62.7801 25.6307 62.7801 25.6902 62.7801ZM25.1514 63.914H25.2114V63.8542H25.1514C25.0914 63.8542 25.0914 63.914 25.1514 63.914ZM27.4271 65.1669C27.487 65.1071 27.487 65.0479 27.4271 65.0479C27.3671 65.1067 27.3671 65.1067 27.4271 65.1669C27.3671 65.1669 27.3671 65.1669 27.4271 65.1669Z" fill="white"/>
<path d="M81.2697 34.8606C81.2697 34.8606 70.9686 30.7445 57.2534 31.758C43.5382 32.7716 41.2017 36.8289 33.2967 37.7234C25.3912 38.618 15.3287 39.155 12.2748 50.3705C12.2748 50.3705 26.2894 65.941 36.2311 70.5938L85.8805 43.5092C85.881 43.511 81.2097 41.1844 81.2697 34.8606Z" fill="url(#paint1_linear)"/>
<path d="M85.8808 43.5109C85.8808 43.5109 74.6212 55.9196 70.3089 65.8228C65.997 75.7261 67.0746 78.2314 73.723 84.6746C80.3714 91.1178 82.1673 92.0726 82.1673 92.0726L59.648 119.335C59.648 119.335 50.2451 116.83 47.1908 107.105C44.1369 97.381 42.5195 94.5173 38.866 90.9382C35.2724 87.3587 29.2832 77.2767 39.0459 63.9731C48.8081 50.6695 59.5885 42.3173 81.2696 34.8009" fill="#23286B"/>
<path d="M92.2295 38.2012C92.2295 38.2012 89.1757 39.931 85.881 43.4512C85.881 43.4512 81.2098 42.6757 81.2697 34.8013L90.6726 30.387L92.2295 38.2012Z" fill="#FFBEB6"/>
<path d="M112.293 31.3409C112.293 31.4007 112.233 31.4599 112.233 31.4599C112.114 31.6984 111.994 31.9966 111.814 32.2355C110.256 35.0996 110.736 38.5592 110.196 39.2751C109.658 39.9913 107.921 39.4542 107.143 39.0959C106.423 38.6782 103.19 41.4827 98.9977 41.4827C95.1052 41.4827 91.3317 38.4995 89.7152 35.2191C92.71 28.8356 95.5249 26.7479 102.832 28.1202C110.798 29.5519 113.313 25.4357 113.313 25.4357C113.61 28.1786 112.592 30.6849 112.293 31.3409Z" fill="#FFBEB6"/>
<path d="M113.371 25.4945C113.371 25.4945 110.915 29.6708 102.889 28.179C94.9235 26.7474 92.2889 29.3125 88.9347 37.1276C88.9347 37.1276 77.4352 32.1766 72.7045 20.1847C72.7045 20.1847 74.9801 17.6192 79.3529 17.0229C83.7247 16.4862 88.9357 11.2959 90.6125 9.86384C92.2894 8.43221 99.836 5.62824 106.364 10.4005C112.892 15.2324 119.48 23.2864 112.173 31.4595C112.233 31.5201 113.61 28.5967 113.371 25.4945Z" fill="#E94A47"/>
<path d="M108.999 26.2695C100.734 26.3292 90.0734 28.298 90.4923 38.7374C90.4923 39.0953 91.0911 39.0953 91.0911 38.7374C90.7322 28.5957 101.093 26.9252 108.998 26.8659C109.418 26.8668 109.418 26.2695 108.999 26.2695Z" fill="#E94A47"/>
<path d="M72.2858 19.648C76.2387 13.3243 85.941 19.2901 90.0134 12.9071C90.1933 12.6089 89.7141 12.3107 89.4746 12.6089C85.4617 18.8132 75.7594 12.8474 71.7469 19.3498C71.567 19.7077 72.1059 20.0059 72.2858 19.648Z" fill="#E94A47"/>
<path d="M107.142 32.4739C107.322 34.4426 109.478 35.5765 111.155 34.3232C111.455 34.0847 111.155 33.6069 110.856 33.7865C109.598 34.6811 107.861 34.025 107.741 32.4142C107.741 32.1165 107.142 32.1165 107.142 32.4739Z" fill="#1C2868"/>
<path d="M163.756 86.7715H149.317V87.6096H163.756V86.7715Z" fill="#23286B"/>
<path d="M156.462 101.507C152.841 101.507 149.896 98.5451 149.896 94.9036V85.9413H151.687V94.9033C151.687 97.5513 153.829 99.7057 156.463 99.7057C159.096 99.7057 161.239 97.5513 161.239 94.9033V85.9413H163.03V94.9033C163.029 98.5451 160.083 101.507 156.462 101.507Z" fill="#23286B"/>
<path d="M160.4 78.858H152.779V95.6056H160.4V78.858Z" fill="#23286B"/>
<path d="M155.221 78.858H154.197V81.0976H155.221V78.858Z" fill="#A1C3FC"/>
<path d="M157.244 78.858H156.22V81.0976H157.244V78.858Z" fill="#A1C3FC"/>
<path d="M159.267 78.858H158.243V81.0976H159.267V78.858Z" fill="#A1C3FC"/>
<path d="M160.401 82.7001H152.806V83.7299H160.401V82.7001Z" fill="#A1C3FC"/>
<path d="M160.401 84.7344H152.806V85.7641H160.401V84.7344Z" fill="#A1C3FC"/>
<path d="M160.401 86.7683H152.806V87.7981H160.401V86.7683Z" fill="#A1C3FC"/>
<path d="M160.401 88.8609H152.806V89.8906H160.401V88.8609Z" fill="#A1C3FC"/>
<path d="M160.401 90.8951H152.806V91.9249H160.401V90.8951Z" fill="#A1C3FC"/>
<path d="M158.815 82.0048H154.419V96.7238H158.815V82.0048Z" fill="#23286B"/>
<path d="M165.113 74.3405L162.255 76.6978L159.911 73.8233L162.769 71.466L165.113 74.3405Z" fill="#A1C3FC"/>
<path d="M146.849 232.267L155.891 223.562V232.267H157.682V226.288L160.295 232.267H162.252L157.682 221.812V100.444H155.891V221.067L144.259 232.267H146.849Z" fill="#23286B"/>
<path d="M175.735 101.9H138.142C136.262 101.9 134.724 100.37 134.724 98.5001V76.4001C134.724 74.5301 136.262 73.0001 138.142 73.0001H175.735C177.614 73.0001 179.152 74.5301 179.152 76.4001V98.5001C179.152 100.37 177.614 101.9 175.735 101.9ZM149.932 120.6L156.938 107.34L163.773 120.6H170.608L163.773 107L160.185 102.75H153.863L150.103 107L143.268 120.6H149.932Z" fill="#428DFC"/>
<path d="M180.861 61.0999C180.861 67.7299 175.564 72.9999 168.899 72.9999C162.235 72.9999 156.938 67.7299 156.938 61.0999C156.938 54.4699 162.235 49.1999 168.899 49.1999C175.564 49.1999 180.861 54.4699 180.861 61.0999ZM156.938 61.0999C156.938 54.4699 151.641 49.1999 144.977 49.1999C138.313 49.1999 133.015 54.4699 133.015 61.0999C133.015 67.7299 138.313 72.9999 144.977 72.9999C151.641 72.9999 156.938 67.7299 156.938 61.0999ZM151.812 91.6999H168.899V81.4999H151.812V91.6999ZM167.191 101.9H146.685V107H167.191V101.9ZM179.152 93.3999L194.531 100.2V74.6999L179.152 81.4999V93.3999Z" fill="url(#paint2_linear)"/>
<path d="M172.317 61.0999C172.317 62.9699 170.779 64.4999 168.9 64.4999C167.02 64.4999 165.482 62.9699 165.482 61.0999C165.482 59.2299 167.02 57.6999 168.9 57.6999C170.779 57.6999 172.317 59.2299 172.317 61.0999ZM148.394 61.0999C148.394 59.2299 146.856 57.6999 144.977 57.6999C143.097 57.6999 141.559 59.2299 141.559 61.0999C141.559 62.9699 143.097 64.4999 144.977 64.4999C146.856 64.4999 148.394 62.9699 148.394 61.0999Z" fill="#C5CAE9"/>
<defs>
<linearGradient id="paint0_linear" x1="79.7445" y1="166.458" x2="50.4091" y2="146.375" gradientUnits="userSpaceOnUse">
<stop stop-color="#428DFC"/>
<stop offset="0.3696" stop-color="#3385F5"/>
<stop offset="0.999" stop-color="#1A78E8"/>
</linearGradient>
<linearGradient id="paint1_linear" x1="48.9575" y1="44.0292" x2="50.0252" y2="70.0642" gradientUnits="userSpaceOnUse">
<stop stop-color="#23286B"/>
<stop offset="0.999" stop-color="#161C54"/>
</linearGradient>
<linearGradient id="paint2_linear" x1="133.015" y1="78.0998" x2="194.531" y2="78.0998" gradientUnits="userSpaceOnUse">
<stop stop-color="#23286B"/>
<stop offset="1" stop-color="#151A4F"/>
</linearGradient>
</defs>
</svg>
