<svg width="269" height="226" viewBox="0 0 269 226" fill="none" xmlns="http://www.w3.org/2000/svg">
<path d="M73.8498 191.082L68.402 205.849L106.861 205.85C106.861 205.85 104.889 202.154 98.3155 199.417C91.7416 196.679 85.6059 191.083 85.6059 191.083L73.8498 191.082Z" fill="url(#paint0_linear)"/>
<path d="M105.527 93.5773C105.527 93.5773 100.149 95.9118 96.7038 92.7482C93.2586 89.5842 92.4512 90.2635 89.1922 90.6153C86.8773 91.1683 79.2528 90.8375 76.2671 90.5414L84.3017 82.7966C87.9194 84.9012 93.7701 86.8864 95.9428 86.689C99.511 86.3593 102.277 84.3013 103.847 84.0549C105.431 83.8043 105.877 83.9149 106.228 85.024C106.228 85.024 107.027 85.0321 109.087 84.8837C113.103 84.8389 107.904 92.7629 105.527 93.5773Z" fill="url(#paint1_linear)"/>
<path d="M85.6055 191.082H73.8753C70.2935 183.569 70.5737 177.455 74.1995 167.779C76.7377 161.008 76.3611 147.759 75.568 145.22C73.5448 138.735 73.4525 136.964 62.1754 119.458C50.8945 101.939 48.7664 94.2587 48.9142 93.0442C49.6895 92.7814 50.4846 92.5829 51.2927 92.4517C55.145 91.8329 63.6459 90.1242 69.2055 86.7467C69.2943 86.6942 69.3834 86.6413 69.4686 86.5853L69.7677 86.4933C69.7841 86.579 69.8037 86.6644 69.8236 86.747C71.5802 94.825 76.1564 102.341 80.94 110.01C85.7725 117.766 89.8948 124.675 94.4741 134.732C96.0959 138.29 87.1847 175.733 85.6055 191.082Z" fill="url(#paint2_linear)"/>
<path d="M77.3885 114.393C75.3667 105.771 72.3935 98.6009 73.5003 90.5918L73.1835 90.5792C66.691 91.9743 57.7495 90.7794 53.7841 90.0934C52.9648 89.9538 52.1354 89.8792 51.3042 89.8705C50.7532 90.9296 46.7344 99.7174 55.1155 118.224C64.076 138.007 58.9384 141.342 57.1443 147.686C55.3444 154.025 54.4171 157.887 55.4625 163.663C56.5078 169.438 53.6834 168.108 52.8994 175.748C52.2045 182.567 53.0259 189.643 53.3215 191.082H65.0773C68.9756 178.534 80.8327 149.504 80.927 142.531C81.0479 133.569 79.4051 123.02 77.3885 114.393Z" fill="#23286B"/>
<path opacity="0.65" d="M67.959 105.4C68.0016 105.419 68.0509 105.399 68.069 105.357C68.0872 105.314 68.068 105.265 68.0254 105.247C67.9827 105.228 67.9335 105.248 67.9153 105.29C67.8968 105.332 67.9164 105.382 67.959 105.4ZM68.7577 103.516C68.802 103.534 68.8523 103.515 68.8733 103.471C68.8894 103.427 68.8677 103.379 68.8244 103.362C68.7856 103.343 68.7381 103.358 68.7178 103.397C68.7164 103.4 68.7154 103.403 68.714 103.406C68.6955 103.448 68.715 103.498 68.7577 103.516ZM69.5619 101.632C69.6045 101.65 69.6534 101.63 69.672 101.588C69.6894 101.543 69.6702 101.493 69.6276 101.472C69.5822 101.457 69.5326 101.478 69.513 101.522C69.4966 101.566 69.5182 101.615 69.5619 101.632ZM70.3606 99.7475C70.4032 99.766 70.4521 99.7464 70.4706 99.7037C70.4888 99.6593 70.4692 99.6092 70.4263 99.5878C70.3836 99.5693 70.3347 99.5889 70.3162 99.6316C70.2984 99.6764 70.3176 99.7268 70.3606 99.7475ZM65.0354 102.069C65.0672 102.101 65.1189 102.102 65.1514 102.071C65.1839 102.039 65.1849 101.987 65.1535 101.955C65.1217 101.922 65.07 101.921 65.0375 101.952C65.005 101.981 65.0019 102.03 65.0298 102.063C65.0312 102.065 65.033 102.067 65.0354 102.069ZM66.4958 100.636C66.5206 100.662 66.5601 100.667 66.5901 100.647L66.5957 100.646C66.602 100.646 66.6083 100.643 66.6121 100.638C66.6321 100.62 66.6415 100.592 66.6373 100.565C66.6345 100.547 66.6261 100.53 66.6139 100.516C66.5821 100.484 66.5307 100.483 66.4979 100.514C66.464 100.546 66.4623 100.599 66.4937 100.633C66.4937 100.634 66.4944 100.635 66.4958 100.636ZM67.9558 99.2029C67.9887 99.2337 68.0404 99.2319 68.0708 99.1993C68.1033 99.1678 68.1047 99.116 68.0732 99.0831C68.0418 99.0502 67.9901 99.0492 67.9572 99.0807C67.9569 99.0807 67.9569 99.081 67.9565 99.081C67.9226 99.1129 67.9209 99.1658 67.9523 99.1997C67.9537 99.2011 67.9544 99.2018 67.9558 99.2029ZM72.1899 105.136C72.1927 105.183 72.2297 105.22 72.2766 105.223C72.3244 105.223 72.3632 105.184 72.3632 105.136C72.3632 105.088 72.3244 105.049 72.2766 105.049C72.2304 105.052 72.1931 105.089 72.1899 105.136ZM72.2088 103.089C72.2102 103.135 72.2486 103.171 72.2947 103.17C72.2947 103.17 72.2947 103.17 72.2951 103.17C72.3398 103.174 72.3786 103.141 72.3824 103.096C72.3828 103.094 72.3828 103.092 72.3828 103.089C72.3817 103.042 72.3436 103.004 72.2961 103.002C72.249 103.005 72.2116 103.042 72.2088 103.089ZM56.8048 105.839C56.8611 105.906 56.9614 105.916 57.0288 105.859C57.0302 105.858 57.0316 105.857 57.033 105.856C57.099 105.799 57.1071 105.7 57.0508 105.634C57.0505 105.634 57.0501 105.634 57.0498 105.633C56.9935 105.566 56.8932 105.557 56.8258 105.613C56.8244 105.615 56.823 105.616 56.8216 105.617C56.7556 105.673 56.7475 105.772 56.8038 105.838C56.8041 105.839 56.8045 105.839 56.8048 105.839ZM59.7469 103.313C59.8056 103.38 59.9076 103.387 59.9751 103.329C60.0425 103.271 60.0498 103.168 59.9911 103.101C59.9349 103.035 59.8357 103.027 59.77 103.083C59.7696 103.083 59.7693 103.084 59.7689 103.084C59.7015 103.142 59.6921 103.243 59.7469 103.313ZM62.695 100.785C62.7536 100.853 62.8557 100.86 62.9231 100.801C62.9905 100.743 62.9979 100.641 62.9392 100.573C62.8805 100.506 62.7785 100.499 62.711 100.557C62.6439 100.613 62.6345 100.713 62.6911 100.781C62.6925 100.782 62.6939 100.784 62.695 100.785ZM68.3912 115.635C68.3863 115.724 68.4526 115.8 68.541 115.806C68.6259 115.816 68.7028 115.755 68.7119 115.67C68.7122 115.668 68.7126 115.664 68.7126 115.662C68.7175 115.573 68.6507 115.497 68.5627 115.49C68.4757 115.483 68.3992 115.548 68.3912 115.635ZM68.6846 111.768C68.6783 111.857 68.7447 111.934 68.8338 111.94C68.9222 111.946 68.9994 111.88 69.0061 111.791C69.0061 111.79 69.0061 111.789 69.0061 111.789C69.0134 111.701 68.9488 111.624 68.8618 111.616C68.8618 111.616 68.8618 111.616 68.8614 111.616C68.772 111.614 68.6955 111.679 68.6846 111.768ZM68.983 107.894C68.976 107.981 69.0403 108.057 69.1273 108.065C69.1294 108.065 69.1311 108.065 69.1329 108.065C69.2178 108.075 69.2946 108.014 69.3037 107.929C69.3041 107.926 69.3044 107.923 69.3044 107.92C69.3079 107.831 69.2422 107.754 69.1538 107.743C69.0655 107.739 68.9896 107.806 68.983 107.894ZM69.2765 104.027C69.2705 104.115 69.3376 104.192 69.4264 104.198C69.5151 104.203 69.5916 104.136 69.5972 104.048C69.6045 103.96 69.5399 103.883 69.4529 103.875H69.4526C69.3642 103.866 69.2852 103.931 69.2761 104.02C69.2768 104.022 69.2765 104.024 69.2765 104.027ZM69.5752 100.153C69.5675 100.24 69.6311 100.318 69.7184 100.325C69.8051 100.333 69.8826 100.269 69.8907 100.182C69.891 100.18 69.891 100.178 69.891 100.176C69.8998 100.089 69.8365 100.012 69.7502 100.004C69.7488 100.004 69.7478 100.003 69.7467 100.003C69.6576 99.998 69.5815 100.065 69.5752 100.153ZM61.0414 111.794C61.121 111.832 61.2157 111.797 61.2527 111.717C61.2898 111.638 61.2552 111.543 61.1755 111.506C61.0976 111.47 61.005 111.502 60.9659 111.579C60.9292 111.659 60.9624 111.755 61.0414 111.794ZM62.7952 108.331C62.8749 108.368 62.9696 108.333 63.0066 108.254C63.0436 108.174 63.009 108.079 62.9294 108.042C62.8515 108.006 62.7589 108.038 62.7198 108.115C62.6824 108.195 62.7159 108.291 62.7952 108.331ZM64.5494 104.873C64.6312 104.911 64.728 104.876 64.7667 104.795C64.8038 104.716 64.773 104.622 64.6962 104.581C64.6165 104.539 64.518 104.569 64.4754 104.649C64.4327 104.728 64.4628 104.827 64.5424 104.869C64.5445 104.87 64.5466 104.871 64.5494 104.873ZM66.3015 101.403C66.3788 101.444 66.4748 101.415 66.5161 101.338C66.5168 101.336 66.5178 101.335 66.5185 101.334C66.5597 101.256 66.53 101.159 66.4525 101.118C66.3749 101.077 66.2781 101.107 66.2373 101.185C66.2359 101.187 66.2348 101.189 66.2338 101.192C66.1936 101.265 66.2194 101.357 66.2932 101.398C66.296 101.4 66.2988 101.401 66.3015 101.403ZM75.7532 112.958C75.7825 113.042 75.873 113.086 75.9576 113.059C76.04 113.032 76.0854 112.944 76.0592 112.862C76.0589 112.861 76.0589 112.861 76.0585 112.86C76.0372 112.778 75.9534 112.728 75.8713 112.75C75.8674 112.751 75.8636 112.752 75.8594 112.753C75.7762 112.784 75.7301 112.873 75.7532 112.958ZM74.5478 109.266C74.5786 109.349 74.667 109.395 74.7529 109.372C74.8364 109.343 74.8811 109.252 74.8532 109.168C74.8256 109.084 74.7355 109.039 74.652 109.066C74.6509 109.067 74.6499 109.067 74.6492 109.067C74.5667 109.094 74.5213 109.182 74.5475 109.264C74.5475 109.265 74.5478 109.265 74.5478 109.266ZM73.3425 105.58C73.3666 105.661 73.4525 105.707 73.5343 105.683C73.5367 105.682 73.5392 105.681 73.5413 105.68C73.6258 105.656 73.6741 105.567 73.6499 105.483C73.6492 105.48 73.6482 105.478 73.6475 105.475C73.6189 105.391 73.5277 105.346 73.4431 105.375C73.3586 105.403 73.3138 105.495 73.3425 105.58ZM72.1309 101.888C72.1602 101.972 72.2507 102.016 72.3352 101.989C72.4167 101.964 72.4628 101.879 72.4383 101.797C72.4376 101.795 72.4366 101.792 72.4359 101.79C72.4093 101.706 72.3213 101.658 72.2367 101.683C72.1525 101.712 72.1054 101.802 72.1309 101.888ZM57.694 109.985C57.7604 110.026 57.8477 110.007 57.8907 109.941C57.9337 109.875 57.9141 109.787 57.8481 109.744C57.782 109.701 57.694 109.72 57.651 109.786C57.6507 109.787 57.6507 109.787 57.6503 109.787C57.6095 109.854 57.6287 109.942 57.694 109.985ZM59.5474 107.058C59.6138 107.099 59.7012 107.08 59.7441 107.014C59.7889 106.949 59.7717 106.86 59.7068 106.816C59.6418 106.771 59.5534 106.788 59.5087 106.853C59.5069 106.856 59.5055 106.858 59.5041 106.86C59.4611 106.925 59.4783 107.011 59.5422 107.054C59.5439 107.055 59.5457 107.057 59.5474 107.058ZM61.3429 104.045C61.3485 104.081 61.3698 104.112 61.4005 104.131C61.4669 104.172 61.5542 104.153 61.5972 104.087C61.6412 104.019 61.622 103.929 61.5542 103.885C61.5539 103.884 61.5532 103.884 61.5528 103.884C61.513 103.858 61.462 103.854 61.4183 103.873L61.4127 103.873C61.3872 103.883 61.367 103.902 61.3561 103.927C61.3324 103.963 61.3272 104.007 61.3429 104.045ZM63.254 101.204C63.3217 101.246 63.4112 101.225 63.4531 101.157C63.4954 101.089 63.4744 101 63.4063 100.957C63.3399 100.916 63.2522 100.935 63.2096 101.001C63.1656 101.069 63.1848 101.159 63.2529 101.203C63.2529 101.203 63.2536 101.203 63.254 101.204ZM71.9904 112.385C72.0107 112.462 72.0886 112.51 72.1672 112.494C72.242 112.478 72.2898 112.405 72.2738 112.33C72.2734 112.328 72.2727 112.326 72.2724 112.324C72.2566 112.247 72.1812 112.197 72.104 112.213C72.1029 112.213 72.1022 112.213 72.1015 112.213C72.0247 112.233 71.9764 112.308 71.9904 112.385ZM71.2375 109.009C71.256 109.084 71.3322 109.131 71.4073 109.114C71.4821 109.098 71.5299 109.024 71.5139 108.949C71.5135 108.947 71.5128 108.945 71.5125 108.943C71.4967 108.866 71.4213 108.817 71.3441 108.832C71.343 108.832 71.3423 108.832 71.3416 108.833C71.2648 108.854 71.219 108.932 71.2375 109.009ZM70.4773 105.623C70.493 105.7 70.5685 105.75 70.6457 105.734C70.6467 105.734 70.6474 105.734 70.6481 105.734C70.7208 105.72 70.7694 105.65 70.7561 105.577C70.755 105.573 70.754 105.568 70.7533 105.563C70.7376 105.486 70.6621 105.437 70.5849 105.452C70.5838 105.452 70.5831 105.452 70.5824 105.453C70.5073 105.472 70.4612 105.547 70.4773 105.623ZM69.7188 102.248C69.7387 102.325 69.8177 102.371 69.8945 102.351C69.9693 102.332 70.0154 102.257 69.9993 102.182C69.9798 102.106 69.9053 102.057 69.8285 102.071C69.7502 102.092 69.7027 102.169 69.7188 102.248ZM64.5749 110.76C64.5638 110.838 64.6172 110.91 64.6948 110.923C64.772 110.937 64.845 110.886 64.859 110.808C64.8712 110.73 64.8209 110.656 64.744 110.638C64.664 110.627 64.5889 110.68 64.5749 110.76ZM65.171 107.345C65.1553 107.419 65.2028 107.492 65.2768 107.507C65.2796 107.508 65.2824 107.508 65.2856 107.509C65.3628 107.523 65.4358 107.472 65.4498 107.394C65.462 107.316 65.4117 107.242 65.3348 107.224C65.2566 107.213 65.1835 107.267 65.171 107.345ZM65.7618 103.93C65.7471 104.007 65.7978 104.081 65.875 104.096C65.9522 104.11 66.0255 104.059 66.0402 103.982C66.0402 103.981 66.0406 103.981 66.0406 103.98C66.0538 103.903 66.0021 103.83 65.9253 103.817C65.8488 103.803 65.7761 103.854 65.7618 103.93ZM66.3522 100.516C66.3382 100.593 66.3896 100.666 66.4668 100.68C66.5112 100.69 66.5566 100.677 66.5901 100.647L66.5957 100.646C66.617 100.624 66.631 100.596 66.6373 100.565C66.6485 100.487 66.595 100.414 66.5175 100.402C66.4396 100.387 66.3662 100.439 66.3522 100.516ZM65.9808 104.405C65.9822 104.451 66.0207 104.488 66.0664 104.486C66.1125 104.485 66.1489 104.447 66.1478 104.401C66.1464 104.355 66.108 104.318 66.0619 104.319C66.0154 104.32 65.9794 104.358 65.9808 104.405C65.9808 104.405 65.9808 104.405 65.9808 104.405ZM65.9193 102.363C65.9232 102.41 65.9641 102.445 66.0112 102.444C66.0573 102.442 66.0937 102.404 66.0926 102.357C66.093 102.313 66.0577 102.276 66.013 102.276C66.0109 102.276 66.0088 102.276 66.0067 102.276C65.9595 102.276 65.9207 102.313 65.92 102.361C65.9193 102.362 65.9193 102.362 65.9193 102.363ZM65.8634 100.32C65.8645 100.366 65.9026 100.403 65.9487 100.402C65.9948 100.401 66.0315 100.363 66.0308 100.317C66.0308 100.316 66.0308 100.316 66.0308 100.315C66.0315 100.27 65.9958 100.234 65.9511 100.234C65.9487 100.234 65.9469 100.234 65.9448 100.234C65.8987 100.235 65.862 100.274 65.8634 100.32C65.8634 100.319 65.8634 100.319 65.8634 100.32ZM62.0259 102.687C62.0699 102.7 62.116 102.679 62.1353 102.638C62.1527 102.596 62.1328 102.548 62.0905 102.53C62.0891 102.53 62.0877 102.529 62.0863 102.529C62.0458 102.511 61.998 102.529 61.9798 102.57C61.9787 102.573 61.9777 102.575 61.977 102.578C61.9609 102.621 61.9822 102.67 62.0259 102.687ZM62.7575 100.777C62.8015 100.79 62.8476 100.769 62.8668 100.728C62.8819 100.684 62.8606 100.637 62.8179 100.619C62.7778 100.6 62.7295 100.617 62.71 100.657C62.7093 100.659 62.7082 100.661 62.7075 100.663C62.6887 100.706 62.7086 100.757 62.7523 100.776C62.7536 100.776 62.7561 100.776 62.7575 100.777ZM69.7956 102.481C69.8142 102.523 69.8631 102.543 69.9057 102.525C69.9483 102.506 69.9675 102.457 69.9494 102.415C69.9347 102.374 69.8903 102.353 69.8498 102.367C69.8463 102.369 69.8432 102.37 69.8397 102.371C69.7977 102.389 69.7778 102.437 69.7949 102.479C69.7949 102.48 69.7953 102.481 69.7956 102.481ZM68.9592 100.617C68.9799 100.66 69.0312 100.679 69.0745 100.659C69.1147 100.64 69.1322 100.591 69.1123 100.551C69.1123 100.55 69.1119 100.55 69.1119 100.55C69.0972 100.509 69.0529 100.488 69.0123 100.502C69.0089 100.504 69.0054 100.505 69.0022 100.507C68.9603 100.524 68.9404 100.572 68.9575 100.614C68.9582 100.615 68.9585 100.616 68.9592 100.617ZM66.1125 105.14C66.1202 105.189 66.1663 105.223 66.2149 105.214C66.2184 105.214 66.2219 105.213 66.2257 105.212C66.2767 105.2 66.3085 105.149 66.2974 105.098C66.2837 105.047 66.2352 105.014 66.1828 105.021C66.1307 105.034 66.0986 105.087 66.1118 105.14C66.1125 105.14 66.1125 105.14 66.1125 105.14ZM65.6203 102.86C65.6335 102.912 65.6863 102.944 65.7391 102.931C65.7394 102.931 65.7394 102.931 65.7398 102.931C65.7908 102.919 65.8226 102.868 65.8114 102.817C65.7978 102.766 65.7492 102.733 65.6968 102.74C65.6447 102.754 65.6115 102.806 65.6203 102.86ZM65.1385 100.572C65.1437 100.622 65.1884 100.658 65.2384 100.653C65.2433 100.652 65.2485 100.651 65.2531 100.65C65.3041 100.638 65.3359 100.587 65.3247 100.536C65.3111 100.485 65.2625 100.452 65.2101 100.459C65.1594 100.47 65.1273 100.521 65.1385 100.572ZM61.3429 104.045C61.3541 104.054 61.3663 104.06 61.3799 104.064C61.4313 104.074 61.4805 104.04 61.4907 103.989C61.491 103.988 61.491 103.986 61.4914 103.986C61.5001 103.935 61.4686 103.886 61.419 103.874L61.4134 103.874C61.3621 103.864 61.3128 103.898 61.3027 103.949C61.3023 103.95 61.3023 103.952 61.302 103.952C61.2943 103.989 61.3111 104.027 61.3429 104.045ZM61.7272 101.655C61.716 101.705 61.7478 101.755 61.7985 101.766C61.7988 101.766 61.7995 101.767 61.7999 101.767C61.8519 101.776 61.9029 101.745 61.9176 101.693C61.9246 101.64 61.8903 101.59 61.8383 101.577C61.7862 101.567 61.7366 101.603 61.7272 101.655ZM62.1482 99.3631C62.1387 99.4153 62.1744 99.4654 62.2264 99.4745C62.2785 99.4839 62.3285 99.4482 62.3379 99.396C62.3473 99.3439 62.3117 99.2939 62.2596 99.2848C62.2083 99.2746 62.159 99.3082 62.1489 99.3597C62.1485 99.3611 62.1482 99.3621 62.1482 99.3631ZM70.0577 102.232C70.0877 102.276 70.1475 102.286 70.1908 102.256C70.1918 102.255 70.1929 102.255 70.1932 102.254C70.2355 102.224 70.2456 102.166 70.2163 102.123C70.1904 102.079 70.1342 102.065 70.0905 102.091C70.0884 102.092 70.087 102.093 70.0849 102.094C70.0409 102.125 70.0287 102.187 70.0577 102.232ZM68.7388 100.31C68.7653 100.352 68.8205 100.364 68.8628 100.338C68.8653 100.336 68.8674 100.335 68.8698 100.333C68.9138 100.307 68.9281 100.251 68.9023 100.207C68.9012 100.205 68.8998 100.204 68.8988 100.202C68.8684 100.157 68.8076 100.144 68.7622 100.173C68.7182 100.205 68.7084 100.265 68.7398 100.31C68.7384 100.31 68.7388 100.31 68.7388 100.31ZM57.6011 113.663C57.5899 113.754 57.6517 113.837 57.7419 113.853C57.8317 113.868 57.9169 113.808 57.9326 113.718C57.9449 113.627 57.8823 113.542 57.7918 113.528C57.7024 113.513 57.6168 113.574 57.6011 113.663ZM58.2488 109.714C58.2338 109.804 58.2942 109.889 58.384 109.905C58.4735 109.92 58.5594 109.859 58.5748 109.769C58.5898 109.68 58.5297 109.594 58.4396 109.579C58.3494 109.564 58.2642 109.624 58.2488 109.714ZM58.8906 105.766C58.8784 105.857 58.9409 105.941 59.0314 105.956C59.1215 105.968 59.204 105.904 59.2155 105.814C59.2274 105.724 59.1638 105.641 59.0737 105.63C58.986 105.618 58.9046 105.679 58.8906 105.766ZM74.0161 109.933C74.0723 110.006 74.1765 110.023 74.2523 109.971C74.3249 109.915 74.3386 109.81 74.2827 109.737C74.2282 109.666 74.1275 109.651 74.0545 109.702C73.9825 109.756 73.9654 109.858 74.0161 109.933ZM71.6826 106.685C71.7368 106.758 71.8388 106.775 71.9136 106.724C71.9883 106.672 72.0065 106.568 71.9534 106.493C71.901 106.419 71.7972 106.401 71.7228 106.453C71.7221 106.454 71.7217 106.454 71.721 106.455C71.6484 106.508 71.6313 106.611 71.6826 106.685ZM69.3495 103.438C69.4029 103.511 69.5057 103.529 69.5804 103.477C69.6534 103.42 69.6706 103.316 69.6185 103.24C69.5623 103.167 69.4571 103.154 69.3844 103.21C69.3135 103.264 69.2981 103.365 69.3495 103.438ZM67.0157 100.191C67.0691 100.264 67.1722 100.281 67.2466 100.229C67.3189 100.172 67.3357 100.069 67.2847 99.9928C67.2323 99.9203 67.1306 99.9043 67.0579 99.9571C67.0565 99.9582 67.0555 99.9588 67.0548 99.9595C66.9811 100.007 66.9601 100.105 67.0076 100.179C67.0094 100.183 67.0129 100.187 67.0157 100.191ZM65.4756 111.665C65.5011 111.752 65.5881 111.806 65.6772 111.789C65.7642 111.765 65.817 111.676 65.7953 111.588C65.7764 111.5 65.6905 111.444 65.6025 111.463C65.6014 111.463 65.6 111.463 65.5993 111.463C65.5099 111.485 65.454 111.575 65.4749 111.665C65.4756 111.665 65.4756 111.665 65.4756 111.665ZM64.5613 107.767C64.5826 107.856 64.6731 107.912 64.7626 107.891H64.7629C64.8492 107.87 64.9027 107.783 64.882 107.696C64.882 107.696 64.882 107.696 64.882 107.696C64.8625 107.607 64.7744 107.551 64.686 107.571C64.5969 107.591 64.5414 107.678 64.5613 107.767ZM63.6473 103.874C63.6662 103.961 63.7522 104.017 63.8402 103.999C63.8413 103.999 63.8426 103.999 63.8433 103.998C63.9338 103.98 63.9922 103.891 63.9737 103.801C63.9551 103.711 63.8664 103.652 63.7766 103.671C63.6861 103.689 63.6278 103.777 63.6463 103.868C63.6463 103.87 63.6467 103.872 63.6473 103.874ZM62.7334 99.9809C62.7561 100.069 62.8466 100.121 62.9343 100.098C63.0195 100.076 63.0716 99.99 63.0531 99.9039C63.0331 99.8157 62.9455 99.76 62.8571 99.7793C62.7673 99.8006 62.7121 99.891 62.7334 99.9809ZM63.045 112.937C63.0646 113.025 63.1523 113.081 63.2403 113.061C63.3284 113.041 63.3846 112.954 63.3651 112.866C63.3458 112.78 63.2623 112.724 63.175 112.74C63.0849 112.759 63.0265 112.847 63.045 112.937ZM62.2956 109.022C62.3141 109.112 62.4022 109.171 62.4923 109.153C62.5793 109.133 62.6366 109.05 62.6233 108.961C62.6034 108.871 62.5168 108.812 62.4259 108.825C62.3375 108.846 62.2802 108.933 62.2956 109.022ZM61.5469 105.107C61.5654 105.197 61.6535 105.256 61.7436 105.238C61.8323 105.221 61.8914 105.136 61.8746 105.046C61.8582 104.958 61.7726 104.898 61.6832 104.915C61.5941 104.933 61.5343 105.017 61.5469 105.107ZM60.8038 101.192C60.8171 101.278 60.8981 101.338 60.9844 101.325C60.9876 101.324 60.9911 101.324 60.9945 101.323C61.0829 101.305 61.1413 101.221 61.1256 101.131C61.1091 101.042 61.0235 100.983 60.9341 101C60.845 101.017 60.7874 101.103 60.8038 101.192ZM70.5335 99.3485C70.6107 99.3968 70.7128 99.3761 70.7645 99.3005C70.813 99.2252 70.7921 99.1245 70.7173 99.0751C70.6471 99.0233 70.5482 99.0387 70.4961 99.1094C70.4944 99.1118 70.4926 99.1143 70.4909 99.1168C70.4385 99.191 70.456 99.2938 70.53 99.3463C70.5314 99.347 70.5325 99.3478 70.5335 99.3485ZM55.5778 106.76C55.5604 106.849 55.6177 106.934 55.7061 106.952C55.7064 106.952 55.7071 106.952 55.7075 106.952C55.7962 106.972 55.8849 106.917 55.9052 106.828C55.9227 106.738 55.865 106.65 55.7749 106.631C55.6847 106.614 55.5985 106.672 55.5778 106.76ZM69.7904 108.048C69.8425 108.123 69.9459 108.143 70.022 108.093C70.0968 108.043 70.1171 107.942 70.0675 107.867C70.0217 107.791 69.9232 107.766 69.8467 107.812C69.8446 107.813 69.8428 107.814 69.8407 107.816C69.7632 107.864 69.7394 107.966 69.7876 108.044C69.7887 108.045 69.7894 108.046 69.7904 108.048ZM67.6026 104.717C67.6547 104.793 67.7581 104.813 67.8343 104.762C67.909 104.712 67.9293 104.611 67.8797 104.536C67.8339 104.46 67.7354 104.435 67.6589 104.481C67.6568 104.483 67.655 104.484 67.6529 104.485C67.5754 104.533 67.5516 104.636 67.5998 104.713C67.6005 104.714 67.6016 104.716 67.6026 104.717ZM65.4141 101.387C65.4662 101.462 65.5696 101.482 65.6458 101.432C65.7205 101.382 65.7408 101.281 65.6912 101.206C65.6419 101.129 65.5396 101.106 65.4624 101.156C65.3851 101.205 65.3631 101.308 65.4124 101.385C65.4134 101.385 65.4134 101.386 65.4141 101.387ZM63.1719 106.057C63.1991 106.12 63.2718 106.149 63.3354 106.122C63.3972 106.096 63.4272 106.025 63.4024 105.962C63.3797 105.901 63.3109 105.869 63.2494 105.892C63.2456 105.894 63.2417 105.896 63.2379 105.897C63.1764 105.924 63.1474 105.995 63.1719 106.057ZM62.0074 103.292C62.035 103.355 62.1087 103.384 62.1723 103.357C62.2359 103.329 62.2649 103.255 62.2373 103.191C62.2111 103.128 62.1391 103.099 62.0762 103.125C62.0748 103.125 62.0738 103.126 62.0724 103.126C62.0102 103.155 61.9812 103.228 62.0074 103.292ZM60.8426 100.521C60.8702 100.584 60.9439 100.613 61.0075 100.586C61.0711 100.558 61.1001 100.484 61.0725 100.42C61.0449 100.357 60.9711 100.328 60.9076 100.355C60.845 100.384 60.8164 100.457 60.8426 100.521ZM56.8062 105.717C56.8083 105.786 56.8642 105.84 56.9324 105.84C56.9994 105.836 57.0522 105.781 57.055 105.714C57.0543 105.645 56.9984 105.591 56.9299 105.591C56.9296 105.591 56.9292 105.591 56.9285 105.591C56.8625 105.59 56.8076 105.643 56.8059 105.709C56.8059 105.711 56.8062 105.715 56.8062 105.717ZM67.4688 101.428C67.5153 101.476 67.5918 101.477 67.6393 101.431C67.6404 101.43 67.6414 101.429 67.6421 101.428C67.6914 101.382 67.6942 101.305 67.6484 101.255C67.6459 101.253 67.6438 101.251 67.6418 101.249C67.5907 101.202 67.5118 101.207 67.4657 101.258C67.422 101.306 67.423 101.381 67.4688 101.428ZM65.332 99.3183C65.3834 99.3659 65.4637 99.3631 65.5113 99.3117C65.5567 99.2627 65.5563 99.1875 65.5106 99.1385C65.461 99.0891 65.3806 99.0894 65.3313 99.1391C65.2817 99.1888 65.2817 99.2686 65.332 99.3183Z" fill="white"/>
<path d="M34.0671 103.503C34.0671 103.503 38.021 113.042 38.6733 118.374C39.2864 123.384 38.5811 124.219 37.7111 126.35C36.8412 128.481 36.4352 130.588 39.2938 131.254C42.1524 131.921 46 131.628 46.3204 129.965C46.6408 128.303 46.8249 126.154 46.8249 126.154C46.8249 126.154 48.7978 126.65 48.3807 124.04C47.9639 121.431 46.5842 120.245 44.8894 118.308C43.1942 116.371 43.3088 107.426 44.6193 101.816L35.7309 102.63" fill="url(#paint3_linear)"/>
<path d="M85.0126 83.0269L75.0841 91.4444C75.0841 91.4444 56.5396 76.8914 66.9552 52.7554C70.0279 56.225 72.367 54.734 72.367 54.734C72.367 54.734 73.0972 71.8714 85.0126 83.0269Z" fill="url(#paint4_linear)"/>
<path d="M81.0717 94.012C81.0717 94.012 68.6822 103.193 51.6278 97.182C51.6278 97.182 48.8216 69.9089 67.1655 53.4628L67.8171 53.6206C70.4556 55.9513 72.367 54.7333 72.367 54.7333C72.367 54.7333 76.0445 83.1589 81.0717 94.012Z" fill="url(#paint5_linear)"/>
<path d="M73.0312 49.9432C72.5798 51.4993 72.3555 53.1128 72.3656 54.7333C72.3656 54.7333 70.0287 56.2239 66.9556 52.7561L69.3023 47.1316L73.0312 49.9432Z" fill="url(#paint6_linear)"/>
<path d="M53.3212 191.082L47.8734 205.849L86.3326 205.85C86.3326 205.85 84.3608 202.154 77.7869 199.417C71.2131 196.679 65.0773 191.083 65.0773 191.083L53.3212 191.082Z" fill="url(#paint7_linear)"/>
<path d="M70.1377 59.1562C67.1792 62.5057 64.5002 66.0928 62.1283 69.8812C55.6428 80.1726 52.7447 89.3391 52.5627 89.9341C52.5592 89.9446 52.5557 89.9548 52.5529 89.966L52.5323 89.952C52.1679 91.1472 51.9475 92.3827 51.8772 93.6305C51.5352 97.8756 51.4405 101.723 51.4405 101.723L30.5821 106.496C30.5821 106.496 29.3659 99.6827 31.3092 94.727C33.4005 89.4011 34.0346 88.58 34.5587 85.1262C34.834 83.3125 35.3245 80.719 37.7761 75.4858C39.176 72.7922 42.3047 68.414 45.1098 65.8877C53.7827 56.5578 64.8446 54.2495 66.8095 54.0854C69.1706 58.074 71.749 57.053 71.749 57.053C71.7818 56.8815 71.7106 57.2123 71.7483 57.0523C71.2679 57.795 70.7295 58.4985 70.1377 59.1562Z" fill="#428DFC"/>
<path d="M68.3042 49.6117C70.4357 50.6873 75.0478 52.2318 77.208 50.6645C79.793 48.7868 80.0082 46.2168 80.561 46.1723C81.1123 46.1314 82.2711 45.7558 82.2809 45.164C82.2939 44.577 80.7643 42.8946 80.5285 40.7505C80.5061 40.551 80.4813 40.3592 80.4464 40.1719L80.4439 40.167C80.4411 40.1212 80.4341 40.076 80.4243 40.0309C80.4216 40.0092 80.4167 39.9875 80.409 39.9672C80.4065 39.9602 80.4051 39.9521 80.4044 39.9448C80.3974 39.9171 80.3915 39.8863 80.3856 39.8552C80.3339 39.6329 80.2525 39.305 80.1232 38.9224C80.0645 38.7439 79.9953 38.5486 79.9118 38.3449C79.8217 38.1146 79.7074 37.8742 79.5827 37.6306C79.5736 37.6131 79.5649 37.5956 79.5558 37.5784C79.524 37.5186 79.4968 37.4587 79.4632 37.3982C79.4049 37.2907 79.342 37.1854 79.2746 37.0783C79.2246 36.9943 79.1701 36.9127 79.1135 36.8347C79.0894 36.7972 79.0611 36.758 79.0328 36.7192C78.9828 36.6478 78.9294 36.575 78.8738 36.5057C78.8637 36.4896 78.8525 36.4742 78.8396 36.4605C78.8382 36.464 78.8406 36.4689 78.8382 36.4766C78.8357 36.652 78.8179 36.8273 78.7854 36.9995C78.7784 37.0555 78.7655 37.1175 78.7519 37.1794C78.7005 37.4101 78.6286 37.6362 78.5377 37.8546C78.5248 37.8917 78.508 37.9274 78.4906 37.9673C78.4738 38.003 78.456 38.0425 78.4382 38.0821C78.4025 38.1612 78.3613 38.2427 78.3169 38.3232C78.3131 38.3344 78.3068 38.3404 78.3026 38.3516C78.2404 38.4713 78.1719 38.5882 78.0975 38.7009C78.0734 38.7467 78.043 38.7863 78.0151 38.83C78.0137 38.8325 78.0116 38.8349 78.0088 38.8363C77.9543 38.9217 77.891 39.0078 77.824 39.0929L77.8215 39.1002C77.7897 39.1436 77.7544 39.1853 77.7195 39.2269C77.5675 39.4201 77.4037 39.6035 77.2286 39.7764C77.1692 39.8391 77.1025 39.8993 77.0347 39.9633C77.0029 39.9941 76.9732 40.0207 76.9379 40.0501C76.9061 40.0809 76.8737 40.1152 76.8387 40.1446C76.8206 40.1614 76.8013 40.1772 76.7807 40.1912C76.7304 40.2402 76.6735 40.2829 76.6158 40.3294C76.5578 40.376 76.5005 40.4225 76.4387 40.4677C76.3807 40.5142 76.3234 40.5608 76.2577 40.6045C76.096 40.7232 75.9227 40.8376 75.7406 40.9535C75.639 41.0182 75.5338 41.0812 75.4272 41.1481C75.0174 41.3864 74.595 41.602 74.1615 41.7942L73.8802 41.9209C73.0148 42.3006 72.2001 42.7864 71.4542 43.3667C71.3483 43.4675 71.2414 43.5718 71.1292 43.6782C70.8256 43.9708 70.5458 44.2872 70.2925 44.6239C69.2224 46.0925 68.5379 47.8082 68.3042 49.6117Z" fill="#FFBEB6"/>
<path d="M83.9729 42.4864C84.3373 41.4126 83.996 40.2219 83.2131 39.8306L83.2127 39.8303C82.4287 39.44 81.4941 39.9965 81.1294 41.0703C81.0875 41.1946 81.0546 41.3216 81.0309 41.4504C80.5201 41.358 79.9939 41.4987 79.5981 41.8343C79.5848 41.7696 79.5782 41.7024 79.5604 41.6394C79.4395 41.1046 79.0964 40.6475 78.6167 40.3815C77.7097 39.9304 76.6281 40.5758 76.2046 41.821C76.002 42.4073 75.9789 43.0408 76.1379 43.6403C76.242 44.0628 76.4768 44.4418 76.809 44.7236C76.8936 44.7915 76.9848 44.8496 77.0816 44.8979C77.5319 45.1194 78.0654 45.0851 78.4832 44.8079C78.9661 44.4891 79.3235 44.012 79.4933 43.4583C79.6327 43.045 79.6854 42.6078 79.6491 42.1735C80.0271 41.8998 80.5135 41.6075 80.9924 41.7552C80.9096 42.4335 81.1563 43.1111 81.6563 43.577C81.7282 43.6347 81.8061 43.6848 81.8886 43.7264C82.6736 44.1163 83.6082 43.5605 83.9729 42.4864ZM78.3414 44.5314C77.9962 44.7631 77.5543 44.7946 77.1794 44.614C76.7828 44.3914 76.4995 44.0099 76.4017 43.5654C76.2616 43.0327 76.2832 42.4706 76.4642 41.9502C76.8342 40.8617 77.7562 40.286 78.5206 40.6664C78.5985 40.7053 78.6722 40.7525 78.7397 40.8068C79.0164 41.0434 79.2117 41.3608 79.298 41.7146C79.4381 42.2473 79.4164 42.8094 79.2354 43.3299C79.0859 43.8223 78.7697 44.2469 78.3414 44.5314ZM81.9864 43.4415C81.3439 43.1206 81.0763 42.1161 81.3883 41.1995C81.6996 40.2825 82.4755 39.7963 83.1163 40.1155C83.7595 40.4358 84.0264 41.4417 83.7144 42.3576C83.4031 43.2746 82.6279 43.7607 81.9864 43.4415Z" fill="#428DFC"/>
<path d="M69.4679 30.857C67.1586 30.7649 64.9016 31.5598 63.1586 33.0784C63.146 33.0847 63.1348 33.0938 63.1247 33.104C62.485 33.5432 60.4509 35.2008 59.3336 39.0351C59.0604 40.0655 58.6279 41.0465 58.051 41.9429C56.1725 43.6862 53.6224 44.4856 51.8014 46.3049C50.1227 48.0238 49.2688 50.3845 49.4585 52.7799C49.4718 52.9903 49.8006 52.9917 49.7873 52.7799C49.5934 49.6863 50.9849 47.042 53.549 45.3288C54.5786 44.6403 55.6669 44.0698 56.6885 43.4006C55.7326 44.1577 54.653 44.6547 53.4872 45.6077C51.0436 47.6055 50.1919 50.8073 50.4305 53.0897C50.4305 53.0897 57.3016 57.2078 68.7709 57.6131C68.3185 55.7948 68.0977 53.9262 68.1123 52.0523C68.0865 50.0429 68.4995 48.0514 69.3215 46.2181C67.8755 50.0944 68.3768 54.4291 70.6687 57.8721C70.784 58.0485 71.0695 57.884 70.9528 57.7058C68.2175 53.6143 68.1228 48.3017 70.711 44.1153C70.8445 43.9652 70.9842 43.8189 71.1302 43.6771C71.2424 43.5704 71.349 43.4661 71.4552 43.3656C72.286 42.7262 73.1961 42.1977 74.1625 41.7931C78.9164 39.6752 78.8416 36.6005 78.8382 36.4538C79.6494 37.5546 80.1993 38.8258 80.4463 40.1712C81.3697 33.0084 74.799 31.0649 69.4679 30.857Z" fill="#23286B"/>
<path d="M237.622 204.1C227.913 204.1 220.041 196.216 220.042 186.493C220.042 176.769 227.914 168.885 237.623 168.886C247.333 168.887 255.205 176.769 255.204 186.493C255.194 196.212 247.328 204.089 237.622 204.1ZM237.622 178.432C233.177 178.432 229.573 182.041 229.574 186.493C229.575 190.944 233.178 194.553 237.624 194.552C242.069 194.552 245.671 190.944 245.671 186.493C245.667 182.044 242.066 178.437 237.622 178.432Z" fill="#23286B"/>
<path d="M166.222 200.265C163.375 200.253 160.651 199.101 158.657 197.066C155.168 193.633 154.327 188.32 156.583 183.975L164.91 167.433L167.95 168.967L159.624 185.509C158.05 188.545 158.634 192.252 161.065 194.655C163.261 196.947 166.702 197.52 169.521 196.061L220.126 167.251L221.809 170.216L171.09 199.087C169.582 199.857 167.914 200.259 166.222 200.265Z" fill="#A1C3FC"/>
<path d="M165.059 169.218L167.818 167.22L112.563 90.6315L109.803 92.6291L165.059 169.218Z" fill="#A1C3FC"/>
<path d="M251.55 201.858C251.092 201.859 250.652 201.673 250.332 201.343L220.24 170.428C216.048 170.372 193.687 170.085 166.419 169.904C165.48 169.898 164.723 169.129 164.729 168.188V168.187C164.735 167.245 164.847 164.753 165.816 164.773C195.969 164.973 220.751 167.024 220.991 167.027C221.441 167.034 221.871 167.219 222.186 167.542L252.77 198.962C253.426 199.636 253.413 200.715 252.739 201.372C252.42 201.684 251.994 201.858 251.55 201.858Z" fill="#A1C3FC"/>
<path d="M97.9155 87.9H109.967C111.473 87.9 112.693 89.1221 112.693 90.6295C112.693 92.1373 111.472 93.359 109.967 93.359H97.9155C96.4106 93.3594 95.1901 92.1373 95.1901 90.6295C95.1901 89.1225 96.4106 87.9 97.9155 87.9Z" fill="#23286B"/>
<path d="M237.623 189.96C239.535 189.96 241.085 188.408 241.085 186.492C241.085 184.577 239.535 183.025 237.623 183.025C235.711 183.025 234.161 184.577 234.161 186.492C234.161 188.408 235.711 189.96 237.623 189.96Z" fill="#23286B"/>
<path d="M160.966 133.397H251.503C251.503 133.397 228.18 166.26 216.597 166.674C206.835 167.023 182.687 166.722 170.743 166.661C166.907 166.641 164.438 164.048 163.637 160.705L160.966 133.397Z" fill="url(#paint8_linear)"/>
<path d="M43.4018 144.426C43.3789 144.426 43.3555 144.422 43.3333 144.412C43.2449 144.374 43.2042 144.272 43.2421 144.183C44.6496 140.89 46.2028 127.91 43.6912 126.669C42.9993 126.327 42.4341 126.309 41.9637 126.614C39.8717 127.969 40.1246 135.376 40.2756 139.803C40.3455 141.851 40.3959 143.331 40.2383 143.822C40.2091 143.914 40.1114 143.965 40.0195 143.935C39.928 143.906 39.8779 143.807 39.9072 143.715C40.0463 143.282 39.9914 141.675 39.928 139.814C39.7645 135.023 39.5172 127.783 41.7752 126.32C42.3492 125.949 43.0456 125.96 43.8453 126.356C46.7709 127.802 44.8754 141.248 43.5622 144.32C43.5337 144.387 43.4693 144.426 43.4018 144.426Z" fill="#D6D7D8"/>
<path d="M38.4889 138.936L29.6976 185.9L51.251 183.549L50.0088 140.989L46.9548 138.728L38.4889 138.936Z" fill="#D62929"/>
<path d="M42.3888 141.409C42.3888 141.409 39.8306 139.559 38.4621 138.921C35.1031 144.305 10.6412 172.916 10.6412 172.916C10.6412 172.916 28.6064 187.892 33.0743 190.761C33.4706 184.616 42.3888 141.409 42.3888 141.409Z" fill="#ED6764"/>
<path d="M50.0088 140.967L41.9004 141.155L32.89 190.8L54.6626 185.767L50.0088 140.967ZM43.7744 144.44C43.6429 144.201 43.7299 143.9 43.9685 143.768C44.2075 143.636 44.5073 143.723 44.6388 143.963C44.7703 144.202 44.6834 144.503 44.4447 144.635C44.2064 144.767 43.9059 144.68 43.7744 144.44ZM47.1417 143.9C47.0102 143.661 47.0972 143.36 47.3358 143.228C47.5748 143.096 47.8747 143.183 48.0062 143.423C48.1377 143.662 48.0507 143.963 47.8121 144.095C47.5734 144.227 47.2736 144.14 47.1417 143.9Z" fill="#E94A47"/>
<path d="M46.9893 143.984C46.8115 143.661 46.9295 143.253 47.2519 143.075C47.5748 142.896 47.9811 143.014 48.1588 143.338C48.3366 143.662 48.2187 144.07 47.8962 144.248C47.5734 144.426 47.1671 144.308 46.9893 143.984ZM47.8541 143.507C47.7689 143.352 47.5737 143.295 47.4196 143.38C47.2655 143.465 47.2088 143.661 47.294 143.816C47.3793 143.971 47.5737 144.027 47.7282 143.942C47.883 143.857 47.9393 143.662 47.8541 143.507Z" fill="white"/>
<path d="M43.622 144.525C43.4442 144.201 43.5622 143.793 43.8846 143.615C44.2074 143.437 44.6137 143.555 44.7915 143.878C44.9693 144.202 44.8513 144.61 44.5289 144.788C44.2064 144.966 43.7998 144.848 43.622 144.525ZM44.4871 144.047C44.4019 143.892 44.2071 143.835 44.053 143.92C43.8989 144.005 43.8422 144.201 43.9271 144.356C44.0119 144.511 44.2067 144.567 44.3612 144.482C44.5156 144.397 44.5723 144.202 44.4871 144.047Z" fill="white"/>
<path d="M44.1848 144.269C44.1831 144.269 44.1813 144.269 44.1792 144.269C44.0832 144.266 44.0077 144.186 44.0109 144.089C44.0251 143.634 43.5291 142.105 42.9544 140.334C41.4753 135.776 39.2399 128.887 41.0057 126.855C41.4548 126.338 42.1275 126.157 43.0049 126.314C46.2153 126.892 48.1038 140.338 47.6899 143.656C47.6781 143.751 47.5904 143.82 47.4958 143.807C47.4005 143.795 47.3326 143.708 47.3448 143.612C47.7887 140.057 45.6994 127.154 42.9433 126.658C42.1842 126.52 41.636 126.66 41.268 127.084C39.6316 128.967 41.9188 136.015 43.2852 140.226C43.9177 142.176 44.3747 143.584 44.3587 144.1C44.3556 144.194 44.2784 144.269 44.1848 144.269Z" fill="#D6D7D8"/>
<path d="M72.0979 25.578C72.0979 25.578 77.0982 22.9855 79.3205 22.8329C81.5429 22.6803 83.5127 22.8329 79.977 28.4756C76.4413 34.1183 71.9463 36.9649 68.4106 39.2017C64.8749 41.4386 54.6725 45.2 51.3388 45.2C48.005 45.2 49.268 41.8957 53.2076 39.4047C57.1471 36.9138 67.7541 30.0513 72.0979 25.578Z" fill="url(#paint9_linear)"/>
<path d="M74.6232 26.7469C74.6232 26.7469 67.5015 21.9177 61.1373 24.256C54.7731 26.5943 54.1673 33.762 55.9351 38.998C55.9351 38.998 60.4808 39.3028 65.4308 35.8462C70.3807 32.3896 74.0677 28.0689 74.6232 26.7469Z" fill="#FBB03B"/>
<defs>
<linearGradient id="paint0_linear" x1="68.4019" y1="198.466" x2="106.861" y2="198.466" gradientUnits="userSpaceOnUse">
<stop stop-color="#A1C3FC"/>
<stop offset="0.6955" stop-color="#81AEF2"/>
<stop offset="1" stop-color="#78A9EF"/>
</linearGradient>
<linearGradient id="paint1_linear" x1="105.8" y1="95.3785" x2="81.7663" y2="81.0681" gradientUnits="userSpaceOnUse">
<stop stop-color="#FFBEB6"/>
<stop offset="1" stop-color="#F2A19C"/>
</linearGradient>
<linearGradient id="paint2_linear" x1="109.16" y1="139.304" x2="66.7157" y2="138.719" gradientUnits="userSpaceOnUse">
<stop stop-color="#23286B"/>
<stop offset="0.4316" stop-color="#1D225F"/>
<stop offset="1" stop-color="#151A4F"/>
</linearGradient>
<linearGradient id="paint3_linear" x1="40.0039" y1="119.631" x2="44.6014" y2="99.9143" gradientUnits="userSpaceOnUse">
<stop stop-color="#FFBEB6"/>
<stop offset="1" stop-color="#F2A19C"/>
</linearGradient>
<linearGradient id="paint4_linear" x1="63.7801" y1="72.0999" x2="85.0127" y2="72.0999" gradientUnits="userSpaceOnUse">
<stop offset="0.1291" stop-color="#428DFC"/>
<stop offset="0.9987" stop-color="#1D72D8"/>
</linearGradient>
<linearGradient id="paint5_linear" x1="79.6494" y1="66.8999" x2="46.3988" y2="106.055" gradientUnits="userSpaceOnUse">
<stop offset="0.1291" stop-color="#428DFC"/>
<stop offset="0.9987" stop-color="#1D72D8"/>
</linearGradient>
<linearGradient id="paint6_linear" x1="68.6559" y1="56.5558" x2="71.5202" y2="48.5698" gradientUnits="userSpaceOnUse">
<stop stop-color="#FFBEB6"/>
<stop offset="1" stop-color="#F2A19C"/>
</linearGradient>
<linearGradient id="paint7_linear" x1="47.8734" y1="198.466" x2="86.3327" y2="198.466" gradientUnits="userSpaceOnUse">
<stop stop-color="#A1C3FC"/>
<stop offset="0.6955" stop-color="#81AEF2"/>
<stop offset="1" stop-color="#78A9EF"/>
</linearGradient>
<linearGradient id="paint8_linear" x1="205.069" y1="136.041" x2="183.105" y2="185.714" gradientUnits="userSpaceOnUse">
<stop stop-color="#A1C3FC"/>
<stop offset="1" stop-color="#84AFEF"/>
</linearGradient>
<linearGradient id="paint9_linear" x1="79.9739" y1="44.8862" x2="60.1376" y2="29.7856" gradientUnits="userSpaceOnUse">
<stop stop-color="#FBB03B"/>
<stop offset="1" stop-color="#F99D28"/>
</linearGradient>
</defs>
</svg>
