<svg width="303" height="242" viewBox="0 0 303 242" fill="none" xmlns="http://www.w3.org/2000/svg">
<path d="M65.4688 81.4845C65.19 81.4845 64.9472 81.2753 64.9124 80.9892C63.868 72.6491 60.0412 65.5923 58.4066 62.5789C58.1806 62.1617 57.9962 61.8214 57.8647 61.5636C56.5134 58.9019 52.102 47.1526 50.1335 41.196C49.8401 40.3096 49.5872 39.232 49.3196 38.0911C48.4034 34.1856 47.2646 29.3258 43.6615 28.4823C42.3034 28.1623 41.1961 28.3851 40.2776 29.1585C37.6773 31.3475 37.0365 37.744 37.3052 43.0018C37.6875 50.4769 40.5002 57.3912 42.9071 62.5778C43.3681 63.5706 43.8391 64.5498 44.309 65.5244C46.1021 69.2445 47.956 73.09 48.9374 77.3223C49.0082 77.6265 48.8205 77.9295 48.5181 78.0019C48.2156 78.072 47.9132 77.8843 47.8424 77.579C46.8891 73.4711 45.1443 69.8517 43.2972 66.0186C42.8251 65.0382 42.3507 64.0545 41.8875 63.0572C39.4367 57.7757 36.5734 50.7302 36.181 43.0583C36.0439 40.3751 35.882 31.3803 39.5548 28.2901C40.7464 27.286 42.2146 26.9819 43.9156 27.3787C48.1977 28.3828 49.4264 33.6214 50.4135 37.8299C50.6754 38.9448 50.9227 39.9997 51.1993 40.8365C53.1138 46.6269 57.5589 58.4756 58.8652 61.0468C58.9934 61.299 59.1733 61.6303 59.3925 62.0351C61.0575 65.105 64.9562 72.294 66.0276 80.8467C66.0658 81.1566 65.8477 81.4392 65.5397 81.4788C65.516 81.4833 65.4924 81.4845 65.4688 81.4845Z" fill="#428DFC"/>
<path d="M71.8937 61.4426C59.7455 65.3515 32.551 70.0315 32.551 70.0315L25.5876 220.788L94.6026 190.221C94.6026 190.222 75.1854 85.0451 71.8937 61.4426ZM46.5721 75.1785C45.6907 75.1785 44.9768 74.4605 44.9768 73.574C44.9768 72.6875 45.6907 71.9695 46.5721 71.9695C47.4534 71.9695 48.1673 72.6875 48.1673 73.574C48.1673 74.4605 47.4523 75.1785 46.5721 75.1785ZM64.2378 72.752C63.3565 72.752 62.6426 72.034 62.6426 71.1475C62.6426 70.261 63.3565 69.543 64.2378 69.543C65.1192 69.543 65.8331 70.261 65.8331 71.1475C65.8331 72.034 65.1192 72.752 64.2378 72.752Z" fill="#A1C3FC"/>
<path d="M32.5757 70.0224L10.5233 218.53L68.5042 229.301C68.5042 229.301 63.9883 87.3664 47.3107 70.8151L32.5757 70.0224Z" fill="white"/>
<path d="M71.8095 61.4358L63.1261 163.177L108.094 187.77L86.5444 62.2284L71.8095 61.4358Z" fill="#89B3F4"/>
<path d="M86.5253 62.1674C74.3771 66.0762 47.1826 70.7563 47.1826 70.7563L68.5144 229.253L137.529 198.685C137.529 198.686 89.817 85.7699 86.5253 62.1674ZM61.2037 75.9033C60.3223 75.9033 59.6085 75.1853 59.6085 74.2988C59.6085 73.4123 60.3223 72.6943 61.2037 72.6943C62.0851 72.6943 62.799 73.4123 62.799 74.2988C62.799 75.1853 62.084 75.9033 61.2037 75.9033ZM78.8695 73.4767C77.9881 73.4767 77.2742 72.7587 77.2742 71.8723C77.2742 70.9858 77.9881 70.2678 78.8695 70.2678C79.7508 70.2678 80.4647 70.9858 80.4647 71.8723C80.4647 72.7587 79.7508 73.4767 78.8695 73.4767Z" fill="#EAECED"/>
<path d="M78.8705 74.0421C77.68 74.0421 76.712 73.0686 76.712 71.8723C76.712 70.6748 77.68 69.7024 78.8705 69.7024C80.0611 69.7024 81.0279 70.676 81.0279 71.8723C81.0279 73.0686 80.0599 74.0421 78.8705 74.0421ZM78.8705 70.8331C78.3005 70.8331 77.8362 71.3001 77.8362 71.8723C77.8362 72.4455 78.3005 72.9114 78.8705 72.9114C79.4405 72.9114 79.9037 72.4455 79.9037 71.8723C79.9037 71.299 79.4405 70.8331 78.8705 70.8331Z" fill="white"/>
<path d="M61.2035 76.4686C60.013 76.4686 59.045 75.4951 59.045 74.2988C59.045 73.1013 60.013 72.1289 61.2035 72.1289C62.3941 72.1289 63.3609 73.1025 63.3609 74.2988C63.3609 75.4951 62.3941 76.4686 61.2035 76.4686ZM61.2035 73.2596C60.6336 73.2596 60.1693 73.7266 60.1693 74.2988C60.1693 74.8709 60.6336 75.3379 61.2035 75.3379C61.7735 75.3379 62.2367 74.872 62.2367 74.2988C62.2367 73.7255 61.7735 73.2596 61.2035 73.2596Z" fill="white"/>
<path d="M61.1913 74.2965C61.0002 74.2965 60.8147 74.1981 60.709 74.0217C58.5506 70.4035 55.7884 67.4941 52.8632 64.4141C52.1156 63.6271 51.3646 62.8356 50.6215 62.0294C46.6812 57.7553 41.8111 51.9276 39.1041 44.7487C38.1563 42.2352 35.2649 33.7232 37.8213 29.6492C38.651 28.3274 39.9551 27.5845 41.6965 27.4409C46.0764 27.0825 48.8419 31.6868 51.0622 35.3898C51.6502 36.3713 52.2067 37.2985 52.7249 38.0108C56.3089 42.9339 64.1457 52.8446 66.1727 54.8924C66.3705 55.0925 66.6426 55.3514 66.9754 55.6703C69.4947 58.0798 75.3934 63.7232 79.0156 71.5353C79.1471 71.818 79.0257 72.1549 78.7435 72.2861C78.4636 72.4184 78.1275 72.2974 77.9971 72.0125C74.4648 64.3949 68.674 58.8544 66.2008 56.4889C65.859 56.1622 65.5791 55.8942 65.3756 55.6884C63.2778 53.5706 55.504 43.7424 51.8177 38.6791C51.2691 37.9249 50.7002 36.9762 50.0988 35.9722C48.0381 32.5359 45.4716 28.2799 41.7875 28.5649C40.398 28.6802 39.411 29.232 38.7713 30.2507C36.9602 33.1352 38.2991 39.422 40.1541 44.3439C42.7914 51.3408 47.5738 57.0588 51.4445 61.2583C52.1842 62.0611 52.9318 62.8469 53.6749 63.6305C56.5135 66.6212 59.4488 69.7126 61.6725 73.4394C61.8321 73.7063 61.7456 74.0545 61.4802 74.2151C61.3903 74.2716 61.2902 74.2965 61.1913 74.2965Z" fill="#428DFC"/>
<path d="M182.419 206.261C182.316 208.551 182.981 211.12 182.877 213.409C184.089 218.49 183.806 223.466 183.545 228.683C175.704 229.89 147.424 229.231 131.814 229.663C131.714 224.592 145.779 218.613 154.087 215.254C155.537 214.668 157.033 214.058 158.132 212.944C160.304 210.743 160.337 207.272 160.231 204.18C167.676 203.768 175.18 204.471 182.419 206.261Z" fill="url(#paint0_linear)"/>
<path d="M239.787 203.773C239.69 206.063 242.425 208.632 242.327 210.921C243.47 216.002 243.203 220.978 242.957 226.195C235.566 227.402 208.908 226.743 194.195 227.175C194.1 222.104 207.359 216.125 215.19 212.765C216.556 212.18 217.966 211.57 219.002 210.456C221.048 208.255 221.081 204.784 220.981 201.692C227.998 201.281 232.964 201.983 239.787 203.773Z" fill="url(#paint1_linear)"/>
<path d="M223.817 131.784C222.016 138.12 215.645 148.358 215.766 154.946C215.881 161.11 222.978 165.741 225.209 171.488C226.718 175.375 228.119 179.206 229.695 183.067C231.472 187.422 236.847 194.089 238.666 198.427C240.922 203.809 242.914 206.698 242.914 212.133C234.553 212.697 225.831 212.505 216.002 210.479C204.254 186.524 196.408 168.179 194.519 162.271C190.095 148.431 198.169 137.628 201.518 120.727C203.023 113.135 205.469 105.472 204.333 97.8158C212.705 98.5265 221.186 97.9218 229.373 96.0325C228.995 108.119 227.124 120.156 223.817 131.784Z" fill="#1D72D8"/>
<path d="M161.741 37.9523C164.286 32.406 160.331 30.3487 160.442 24.2463C160.482 22.0061 160.151 19.6763 158.922 17.8042C155.967 13.3007 149.007 13.3403 144.442 16.1955C142.438 17.4489 140.676 19.1523 139.593 21.2551C137.895 24.5486 138.058 28.7281 140.007 31.879C140.626 32.88 141.766 39.4743 142.598 40.3067C144.501 42.2124 148.119 41.4144 150.211 42.9962C151.821 44.2137 155.646 43.4822 157.488 42.6603C160.325 41.392 161.473 38.5368 161.741 37.9523Z" fill="url(#paint2_linear)"/>
<path d="M145.422 39.0952C144.313 39.0952 143.055 38.5861 141.97 37.6978C141.058 36.9513 140.378 36.0242 140.054 35.0888C139.709 34.09 139.805 33.1913 140.322 32.5583C140.749 32.0343 141.408 31.7581 142.229 31.7581C143.338 31.7581 144.597 32.2679 145.681 33.1555C146.593 33.9019 147.274 34.8291 147.596 35.7644C147.942 36.7632 147.846 37.6619 147.33 38.2949C146.902 38.8182 146.244 39.0952 145.422 39.0952ZM142.23 32.503C141.819 32.503 141.254 32.5941 140.9 33.0293C140.552 33.4548 140.502 34.0997 140.759 34.844C141.038 35.6517 141.636 36.4594 142.442 37.1185C143.382 37.8881 144.497 38.3472 145.423 38.3472C145.834 38.3472 146.398 38.2561 146.753 37.8209C147.1 37.3954 147.15 36.7505 146.893 36.0062C146.614 35.1986 146.016 34.3901 145.21 33.731C144.27 32.9629 143.155 32.503 142.23 32.503Z" fill="#D62929"/>
<path d="M145.422 129.704C145.256 129.16 145.27 128.538 145.574 128.058C145.877 127.577 146.507 127.29 147.041 127.482C147.191 127.536 147.325 127.622 147.459 127.705C149.142 128.747 150.993 129.476 152.814 130.246C153.224 130.42 153.665 130.625 153.864 131.024C154.017 131.33 153.995 131.692 153.963 132.033C153.898 132.719 153.753 133.494 153.173 133.862C152.769 134.119 152.243 134.106 151.787 133.962C151.33 133.818 150.922 133.557 150.499 133.333C149.549 132.831 148.511 132.511 147.566 132.001C146.621 131.49 145.738 130.731 145.422 129.704Z" fill="#F2A19C"/>
<path d="M162.882 37.5649C163.276 38.1023 163.966 38.3143 164.597 38.5263C167.496 39.4983 170.166 41.1472 172.334 43.3045C173.31 39.9402 174.635 36.6773 176.282 33.5854C173.203 31.7222 170.472 29.2857 168.271 26.4372C166.098 29.9464 164.288 33.6825 162.882 37.5649Z" fill="#F8AFA9"/>
<path d="M172.253 24.5926C170.345 20.3833 167.867 16.3426 164.376 13.3171C160.885 10.2909 156.27 8.28217 151.679 8.78455C142.997 9.73332 139.389 16.2627 138.026 20.6796C145.73 21.924 155.775 43.044 154.73 51.3605C160.865 47.0399 166.312 41.7444 170.808 35.7345C172.146 33.946 173.445 31.9686 173.566 29.7366C173.663 27.9518 172.99 26.2207 172.253 24.5926Z" fill="#151A4F"/>
<path d="M152.896 52.3339C152.695 52.3339 152.53 52.1741 152.524 51.9711C152.206 40.8315 149.456 33.6071 144.492 24.1739C144.396 23.9917 144.466 23.7663 144.648 23.67C144.83 23.5752 145.056 23.6439 145.152 23.826C150.169 33.3585 152.948 40.6643 153.27 51.9495C153.276 52.1555 153.114 52.3272 152.909 52.3331C152.904 52.3339 152.9 52.3339 152.896 52.3339Z" fill="#151A4F"/>
<path d="M135.611 20.3594C136.34 19.0135 138.077 18.5276 139.597 18.3574C143.636 17.905 147.822 20.4438 149.293 24.2366C148.205 25.8311 146.761 27.474 144.501 28.8386C141.867 30.2375 139.067 31.4102 136.029 32.2582C135.402 30.5995 133.337 24.5598 135.611 20.3594Z" fill="#151A4F"/>
<path d="M89.6733 153.53C84.7457 155.617 104.611 156.917 117.712 150.388C121.293 148.603 126.543 145.589 128.965 143.131C135.511 136.488 138.847 133.367 137.114 129.884C135.35 126.337 131.695 126.403 121.493 128.476C116.847 129.42 113.334 130.805 109.076 133.026C96.0964 139.795 105.524 146.82 89.6733 153.53Z" fill="#23286B"/>
<path d="M111.72 148.679C110.292 146.408 111.503 143.461 111.426 140.778C111.347 138.009 109.69 135.358 107.284 134.006C96.8648 140.278 104.735 147.154 89.6733 153.53C85.0698 155.48 102.105 156.742 115.048 151.575C113.914 150.618 112.508 149.932 111.72 148.679Z" fill="#E94A47"/>
<path d="M292.658 57.8003L246.793 85.3497C246.572 85.4983 246.344 85.6319 246.107 85.7498L131.106 140.949L124.671 128.012L238.328 69.2348C238.785 69.0072 239.257 68.8101 239.74 68.6459L288.324 49.0419C291.202 48.0618 293.854 48.3425 295.209 51.0679V51.0686C296.569 53.8 295.186 56.0961 292.658 57.8003Z" fill="#FBB03B"/>
<path d="M159.819 111.894C156.524 116.255 151.234 119.04 145.778 119.289C144.99 119.325 144.156 119.322 143.478 119.724C142.799 120.126 142.395 121.115 142.894 121.727C143.095 121.973 143.399 122.111 143.702 122.205C145.323 122.708 147.061 122.171 148.759 122.123C150.455 122.076 152.493 122.897 152.669 124.587C152.913 126.969 149.707 132.88 151.571 133.813C155.049 135.554 153.807 131.574 163.128 129.148C164.356 128.829 164.551 127.212 164.871 125.983C166.028 121.533 167.415 117.58 168.347 112.542C165.237 111.726 164.133 112.182 160.919 112.135C162.418 112.833 158.32 111.196 159.819 111.894Z" fill="url(#paint3_linear)"/>
<path d="M173.873 112.129C173.955 112.006 174.099 111.938 174.242 111.895C174.929 111.691 175.658 111.958 176.324 112.22C177.455 112.665 178.59 113.113 179.635 113.732C179.873 113.873 180.288 113.93 180.544 114.033C181.021 114.224 181.371 114.336 181.857 114.506C182.974 114.895 184.251 116.406 183.503 117.323C183.07 117.855 182.209 117.836 181.524 117.827C180.65 117.816 179.846 117.374 179.085 116.944C178.372 116.542 177.659 116.14 176.946 115.737C175.655 115.008 174.133 114.209 173.727 112.782C173.673 112.587 173.762 112.297 173.873 112.129Z" fill="#F2A19C"/>
<path d="M185.319 116.663C184.471 116.952 183.45 117.007 182.715 116.493C181.971 115.973 181.604 115.248 180.851 114.74C180.513 114.512 180.232 114.085 179.925 113.816C179.764 113.675 179.645 113.496 179.533 113.316C179.284 112.913 179.069 112.492 178.889 112.055C178.696 111.589 178.542 111.087 178.609 110.587C178.675 110.088 179.012 109.594 179.504 109.488C180.005 109.379 180.495 109.677 180.92 109.962C181.343 110.245 181.767 110.528 182.164 110.846C182.991 111.508 183.699 112.322 184.24 113.234C184.543 113.528 184.847 113.821 185.15 114.115C185.391 114.348 185.635 114.586 185.793 114.882C186.059 115.374 186.111 116.393 185.319 116.663Z" fill="#F2A19C"/>
<path d="M187.691 115.826C186.908 115.97 186.127 115.825 185.544 115.283C184.953 114.733 184.749 114.005 184.149 113.466C183.88 113.224 183.522 113.086 183.285 112.812C183.161 112.669 183.078 112.496 183.002 112.324C182.833 111.939 182.696 111.541 182.591 111.135C182.479 110.701 182.406 110.241 182.526 109.809C182.646 109.378 183.003 108.986 183.449 108.953C183.903 108.92 184.296 109.242 184.637 109.545C184.973 109.846 185.312 110.148 185.622 110.476C186.268 111.161 186.789 111.964 187.154 112.833C187.385 113.128 187.615 113.425 187.846 113.72C188.029 113.955 188.214 114.195 188.317 114.474C188.488 114.941 188.411 115.694 187.691 115.826Z" fill="#F2A19C"/>
<path d="M189.625 115.307C188.831 115.359 188.405 115.386 187.823 114.844C187.232 114.294 185.15 110.862 185.006 110.468C184.814 109.948 184.82 109.574 184.94 109.142C185.059 108.711 185.417 108.319 185.863 108.286C186.317 108.252 186.71 108.575 187.051 108.878C187.388 109.179 187.726 109.48 188.036 109.809C188.682 110.494 189.204 111.296 189.568 112.165C189.799 112.461 190.207 113.681 190.309 113.961C190.48 114.426 189.834 115.293 189.625 115.307Z" fill="#F2A19C"/>
<path d="M223.758 73.7226C230.119 85.1183 234.609 98.6646 229.712 110.763C226.127 119.617 221.423 122.443 216.718 126.21C212.263 129.778 207.66 139.23 204.537 144.008C201.582 148.531 194.076 155 192.273 160.095C190.206 165.94 193.52 168.223 191.639 175.758C190.986 178.37 188.815 183.927 187.621 186.341C186.515 188.576 187.072 193.584 186.987 196.078C186.737 203.369 186.57 204.675 184.551 211.685C184.237 212.777 183.843 213.943 182.91 214.588C182.149 215.115 181.173 215.189 180.247 215.238C170.896 215.735 164.291 215.522 154.973 214.601C159.152 194.872 165.175 152.032 166.856 147.807C168.398 143.932 170.808 140.476 173.197 137.059C182.445 123.83 187.464 116.175 196.712 102.946C194.58 97.6972 196.101 91.3566 193.969 86.1081C200.862 80.9075 207.755 75.7068 214.648 70.5068C215.531 69.841 216.46 69.1542 217.551 68.9721C220.299 68.5137 222.399 71.2876 223.758 73.7226Z" fill="url(#paint4_linear)"/>
<path d="M169.026 40.5918C169.457 39.0937 173.244 31.3341 173.244 31.3341C173.244 31.3341 178.471 32.7949 179.735 33.2831C202.397 42.0504 206.709 50.2915 221.876 69.2923C222.515 70.0925 231.023 84.7145 229.699 86.2253C219.552 97.8061 200.814 99.3797 185.993 103.524C185 93.075 179.671 71.6243 176.976 66.9036C172.432 58.9439 167.306 46.5689 169.026 40.5918Z" fill="url(#paint5_linear)"/>
<path d="M184.44 47.4131C182.695 43.892 179.926 35.218 176.003 35.0694C173.292 34.9671 170.841 36.9259 169.546 39.3109C168.25 41.6959 166.09 46.7838 165.738 49.4764C164.408 59.6628 164.881 76.978 162.631 88.5976C160.685 98.6549 160.45 105.987 154.678 115.964C160.596 118.157 160.352 120.397 166.11 121.5C169.04 114.05 173.314 109.669 176.051 97.0574C178.029 87.9437 178.536 77.6528 181.209 63.0988C181.46 61.7298 184.988 56.276 184.926 54.8861C184.867 53.579 185.019 48.5828 184.44 47.4131Z" fill="url(#paint6_linear)"/>
<path opacity="0.86" d="M201.939 106.052C201.862 106.155 201.889 106.337 201.992 106.414C202.096 106.492 202.278 106.466 202.355 106.362C202.432 106.258 202.405 106.077 202.302 105.999C202.198 105.921 202.055 105.896 201.939 106.052ZM189.142 127.566C188.96 127.592 188.883 127.696 188.909 127.878C188.883 128.021 189.039 128.137 189.181 128.163C189.363 128.137 189.44 128.033 189.414 127.851C189.389 127.67 189.284 127.592 189.142 127.566ZM195.542 127.004C195.36 127.031 195.283 127.134 195.309 127.317C195.335 127.498 195.439 127.576 195.62 127.549C195.763 127.575 195.878 127.42 195.853 127.237C195.788 127.107 195.632 126.991 195.542 127.004ZM193.41 114.571C193.384 114.715 193.449 114.843 193.592 114.869C193.735 114.894 193.863 114.83 193.889 114.687C193.915 114.544 193.85 114.415 193.707 114.389C193.603 114.311 193.435 114.428 193.41 114.571ZM199.518 116.461C199.492 116.605 199.557 116.733 199.7 116.759C199.843 116.785 199.971 116.72 199.997 116.577C200.023 116.434 199.958 116.305 199.815 116.279C199.673 116.253 199.543 116.319 199.518 116.461ZM195.507 138.873C195.377 138.938 195.352 139.081 195.418 139.21C195.483 139.34 195.626 139.365 195.754 139.3C195.884 139.235 195.909 139.092 195.896 139.001C195.78 138.833 195.637 138.808 195.507 138.873ZM195.454 108.573C195.377 108.677 195.442 108.807 195.545 108.884C195.649 108.961 195.779 108.896 195.855 108.793C195.933 108.689 195.867 108.559 195.764 108.482C195.622 108.456 195.531 108.469 195.454 108.573ZM200.734 110.815C200.656 110.919 200.722 111.049 200.825 111.125C200.928 111.203 201.058 111.137 201.134 111.034C201.212 110.931 201.146 110.801 201.043 110.724C200.889 110.607 200.76 110.672 200.734 110.815ZM195.375 132.543C195.245 132.608 195.221 132.751 195.233 132.842C195.298 132.972 195.402 133.049 195.531 132.984C195.661 132.919 195.738 132.815 195.673 132.685C195.66 132.595 195.555 132.517 195.375 132.543ZM208.595 104.062C208.517 104.166 208.493 104.309 208.596 104.386C208.699 104.464 208.843 104.489 208.919 104.386C208.997 104.282 209.022 104.139 208.918 104.062C208.815 103.985 208.672 103.959 208.595 104.062ZM196.054 120.025C195.911 120 195.796 120.155 195.808 120.246C195.783 120.389 195.887 120.466 196.029 120.492C196.173 120.518 196.25 120.414 196.275 120.271C196.301 120.128 196.144 120.012 196.054 120.025ZM201.756 120.074C201.613 120.049 201.536 120.153 201.511 120.295C201.485 120.438 201.589 120.515 201.732 120.542C201.875 120.567 201.952 120.463 201.978 120.321C202.002 120.177 201.899 120.1 201.756 120.074ZM205.798 104.887C205.76 104.939 205.825 105.069 205.877 105.107C205.929 105.146 206.058 105.081 206.097 105.029C206.136 104.977 206.071 104.848 206.019 104.809C205.914 104.731 205.876 104.783 205.798 104.887ZM205.595 120.998C205.503 121.011 205.517 121.101 205.53 121.192C205.544 121.284 205.686 121.309 205.725 121.257C205.816 121.243 205.842 121.101 205.789 121.062C205.775 120.972 205.685 120.985 205.595 120.998ZM212.133 99.4223C212.094 99.4745 212.069 99.6171 212.121 99.6559C212.173 99.6947 212.316 99.7201 212.355 99.6679C212.393 99.6156 212.419 99.473 212.366 99.4342C212.262 99.3573 212.171 99.3708 212.133 99.4223ZM189.418 109.406C189.275 109.38 189.16 109.536 189.133 109.679C189.108 109.822 189.263 109.938 189.406 109.964C189.549 109.989 189.664 109.834 189.69 109.691C189.716 109.547 189.561 109.431 189.418 109.406ZM196.039 109.414C195.896 109.388 195.781 109.544 195.754 109.687C195.729 109.83 195.884 109.946 196.027 109.972C196.17 109.998 196.285 109.842 196.312 109.699C196.286 109.517 196.182 109.439 196.039 109.414ZM202.608 109.383C202.465 109.358 202.35 109.513 202.324 109.656C202.299 109.8 202.454 109.915 202.597 109.942C202.74 109.967 202.855 109.812 202.881 109.668C202.908 109.525 202.752 109.409 202.608 109.383ZM207.033 101.602C207.007 101.745 207.033 101.926 207.176 101.951C207.319 101.977 207.499 101.951 207.525 101.808C207.55 101.665 207.524 101.484 207.381 101.459C207.24 101.433 207.058 101.459 207.033 101.602ZM194.776 121.74C194.646 121.805 194.582 121.999 194.648 122.129C194.713 122.259 194.907 122.323 195.037 122.258C195.167 122.193 195.283 122.037 195.218 121.907C195.1 121.739 194.958 121.713 194.776 121.74ZM200.886 119.181C200.756 119.246 200.64 119.402 200.757 119.571C200.822 119.701 200.966 119.726 201.108 119.752C201.238 119.687 201.353 119.531 201.288 119.401C201.209 119.18 201.067 119.155 200.886 119.181ZM210.939 98.8549C210.913 98.9983 210.94 99.1789 211.082 99.2043C211.225 99.2297 211.405 99.2036 211.431 99.061C211.509 98.9572 211.482 98.7758 211.287 98.7116C211.184 98.634 211.003 98.6601 210.939 98.8549ZM192.071 118.103C191.941 118.168 191.825 118.324 191.89 118.454C191.956 118.584 192.111 118.7 192.24 118.634C192.37 118.569 192.447 118.466 192.421 118.283C192.357 118.154 192.201 118.037 192.071 118.103ZM198.272 115.854C198.142 115.919 198.027 116.075 198.092 116.205C198.157 116.335 198.261 116.413 198.442 116.386C198.572 116.321 198.688 116.165 198.623 116.035C198.505 115.867 198.402 115.789 198.272 115.854ZM204.421 113.569C204.292 113.634 204.176 113.79 204.241 113.92C204.306 114.049 204.462 114.166 204.591 114.1C204.721 114.035 204.837 113.879 204.772 113.749C204.746 113.567 204.55 113.503 204.421 113.569ZM200.107 104.28C199.964 104.254 199.849 104.409 199.823 104.553C199.797 104.696 199.952 104.812 200.095 104.838C200.238 104.863 200.353 104.708 200.38 104.565C200.354 104.383 200.25 104.306 200.107 104.28ZM206.717 104.521C206.574 104.495 206.459 104.651 206.432 104.794C206.407 104.937 206.562 105.053 206.705 105.079C206.848 105.104 206.963 104.949 206.989 104.806C206.963 104.624 206.86 104.546 206.717 104.521ZM203.314 116.464C203.184 116.529 203.198 116.62 203.263 116.749C203.328 116.879 203.419 116.866 203.549 116.801C203.679 116.736 203.665 116.645 203.599 116.516C203.496 116.437 203.443 116.399 203.314 116.464ZM202.159 105.973C202.068 105.987 201.99 106.091 202.004 106.181C202.018 106.272 202.122 106.35 202.212 106.335C202.303 106.322 202.381 106.218 202.367 106.128C202.354 106.038 202.25 105.961 202.159 105.973ZM207.042 105.169C206.951 105.182 206.874 105.286 206.848 105.428C206.862 105.519 206.966 105.597 207.056 105.583C207.147 105.569 207.225 105.466 207.21 105.375C207.276 105.181 207.172 105.104 207.042 105.169Z" fill="white"/>
<defs>
<linearGradient id="paint0_linear" x1="131.813" y1="216.865" x2="183.773" y2="216.865" gradientUnits="userSpaceOnUse">
<stop stop-color="#A1C3FC"/>
<stop offset="1" stop-color="#81AEF2"/>
</linearGradient>
<linearGradient id="paint1_linear" x1="194.194" y1="214.377" x2="243.172" y2="214.377" gradientUnits="userSpaceOnUse">
<stop stop-color="#A1C3FC"/>
<stop offset="1" stop-color="#81AEF2"/>
</linearGradient>
<linearGradient id="paint2_linear" x1="138.423" y1="28.9256" x2="162.596" y2="28.9256" gradientUnits="userSpaceOnUse">
<stop stop-color="#FFBEB6"/>
<stop offset="1" stop-color="#F2A19C"/>
</linearGradient>
<linearGradient id="paint3_linear" x1="142.672" y1="122.978" x2="168.347" y2="122.978" gradientUnits="userSpaceOnUse">
<stop stop-color="#FFBEB6"/>
<stop offset="1" stop-color="#F2A19C"/>
</linearGradient>
<linearGradient id="paint4_linear" x1="142.328" y1="149.738" x2="243.323" y2="136.148" gradientUnits="userSpaceOnUse">
<stop stop-color="#428DFC"/>
<stop offset="1" stop-color="#1D72D8"/>
</linearGradient>
<linearGradient id="paint5_linear" x1="186.254" y1="95.7287" x2="207.462" y2="43.3948" gradientUnits="userSpaceOnUse">
<stop stop-color="#23286B"/>
<stop offset="1" stop-color="#151A4F"/>
</linearGradient>
<linearGradient id="paint6_linear" x1="154.678" y1="78.2822" x2="184.926" y2="78.2822" gradientUnits="userSpaceOnUse">
<stop stop-color="#23286B"/>
<stop offset="1" stop-color="#151A4F"/>
</linearGradient>
</defs>
</svg>
