<svg width="196" height="279" viewBox="0 0 196 279" fill="none" xmlns="http://www.w3.org/2000/svg">
<path d="M127.415 126.569C127.977 124.31 128.941 122.175 129.898 120.052C130.368 119.011 130.839 117.97 131.309 116.929C131.475 116.561 131.653 116.178 131.974 115.931C132.254 115.715 132.611 115.628 132.958 115.56C136.858 114.786 141.054 115.617 144.362 117.818C143.247 123.947 143.828 130.373 146.026 136.204C140.124 138.702 133.776 140.152 127.37 140.464C126.826 135.838 126.289 131.09 127.415 126.569Z" fill="#E94A47"/>
<path d="M140.469 256.019C144.029 255.34 155.503 255.635 155.503 255.635C155.503 255.635 158.555 262.504 158.519 267.028C153.21 267.035 147.901 267.042 142.591 267.049C133.669 267.061 131.558 267.145 122.136 266.953C121.936 264.843 126.16 260.967 133.862 259.158C135.564 258.757 138.75 256.346 140.469 256.019Z" fill="#D62929"/>
<path d="M141.703 169.432C140.151 162.752 138.521 155.895 134.521 150.223C134.103 149.632 133.584 149.008 132.847 148.902C131.419 148.698 130.639 150.425 130.394 151.786C123.988 187.423 138.679 219.851 140.468 255.971C145.128 256.258 150.991 256.403 155.652 256.258C154.382 248.776 157.659 246.856 157.306 239.281C156.984 232.381 154.385 229.912 153.849 223.024C153.278 215.707 155.814 213.496 154.149 206.334C152.163 197.791 143.689 177.977 141.703 169.432Z" fill="#151A4F"/>
<path d="M141.933 66.9775C142.248 67.4415 142.507 67.9432 142.704 68.4689C141.695 70.0994 141.096 71.5287 140.089 73.1596C139.709 73.5919 139.275 73.234 139.102 73.1051C138.828 72.9005 139.037 72.4745 139.243 72.2015C139.74 71.5397 140.133 70.7997 140.401 70.0166C140.126 70.1066 139.976 70.3918 139.824 70.6374C139.403 71.322 138.765 71.8727 138.026 72.1922C137.783 72.297 137.456 72.3587 137.291 72.1529C137.115 71.9344 137.272 71.617 137.426 71.3825C138.22 70.1695 138.886 68.8734 139.407 67.521C139.446 67.4191 139.487 67.3135 139.567 67.2378C139.761 67.0536 140.073 67.1322 140.336 67.1859C140.886 67.2983 141.468 67.2416 141.985 67.0257C142.114 67.42 141.701 66.6343 141.933 66.9775Z" fill="#F2A19C"/>
<path d="M131.677 75.5279C130.716 84.5796 130.701 93.7314 131.633 102.786C129.445 102.56 125.723 104.352 123.533 104.566C123.764 97.5325 125.943 88.7145 127.045 81.7641C127.754 77.2991 128.71 72.6976 131.4 69.0572C132.745 69.4646 134.065 68.4854 135.393 68.0268C138.211 67.0531 141.282 68.4752 143.732 70.1721C144.032 70.3796 144.355 70.6344 144.4 70.9958C144.513 71.9179 143.051 71.9517 142.187 71.6039C140.444 70.9028 138.602 70.2989 136.726 70.4146C134.85 70.5309 132.926 71.5118 132.171 73.2263C131.855 73.9482 131.76 74.744 131.677 75.5279Z" fill="#FFBEB6"/>
<path d="M131.403 69.0369C132.401 68.2175 133.645 67.7703 134.862 67.3371C135.83 66.9927 136.798 66.6491 137.765 66.3047C138.252 66.1314 138.741 65.9581 139.252 65.8728C139.915 65.7629 140.592 65.806 141.264 65.8145C143.994 65.8487 144.896 65.6044 147.517 64.8395C147.879 64.7338 150.076 64.4917 150.445 64.569C150.814 64.6468 151.144 64.8116 151.082 65.1822C150.998 65.6881 150.338 65.8098 149.825 65.8474C145.771 66.142 141.987 68.4389 137.925 68.2728C137.601 68.2597 137.272 68.231 136.957 68.3062C136.606 68.3903 136.299 68.597 135.986 68.777C135.082 69.2985 134.063 69.6206 133.022 69.7152C132.39 69.7727 131.597 69.6392 131.403 69.0369Z" fill="#FFBEB6"/>
<path d="M166.025 126.011C161.136 130.588 155.806 132.937 149.306 134.588C146.426 135.319 147.114 135.282 145.879 134.4C144.343 133.301 144.629 131.335 144.336 129.474C143.831 126.266 143.345 122.871 144.568 119.861C145.243 123.669 146.338 128.202 148.786 131.204C154.522 126.191 161.161 120.653 167.511 116.436C167.598 119.439 167.685 122.442 167.772 125.444C167.365 125.201 166.433 126.254 166.025 126.011Z" fill="#FFBEB6"/>
<path d="M164.221 256.019C167.78 255.34 179.254 255.635 179.254 255.635C179.254 255.635 182.307 262.504 182.271 267.028C176.962 267.035 171.652 267.042 166.343 267.049C157.42 267.061 155.31 267.145 145.888 266.953C145.688 264.843 149.912 260.967 157.614 259.158C159.316 258.757 162.503 256.346 164.221 256.019Z" fill="#E94A47"/>
<path d="M163.511 117.615C161.143 115.287 159.171 111.73 157.67 108.772C155.039 103.587 152.344 97.6695 154.254 92.1805C155.384 88.9322 158.151 86.2967 161.459 85.3196C161.212 90.4333 162.972 95.4101 164.766 100.208C167.313 107.025 169.623 112.342 172.406 119.066C172.758 119.915 173.336 121.814 173.087 122.277C172.009 124.292 170.967 125.821 169.19 126.203C167.413 126.586 165.357 126.987 164.483 128.577C161.817 125.606 160.412 124.061 161.156 120.146C162.583 118.775 163.05 118.555 163.511 117.615Z" fill="#428DFC"/>
<path d="M160.692 91.5828C158.349 96.6044 151.48 105.831 148.655 110.6C143.915 118.603 145.312 117.723 143.921 126.912C138.274 126.518 131.926 125.671 126.995 127.964C129.954 114.533 133.111 105.883 136.466 97.5781C139.822 89.2736 145.705 81.1433 154.386 78.837C157.473 78.0167 161.621 78.5534 162.606 81.5828C163.138 83.2192 161.42 90.0225 160.692 91.5828Z" fill="url(#paint0_linear)"/>
<path d="M154.298 79.4465C155.652 81.3191 159.635 81.2443 160.463 80.0457C159.84 75.8749 160.541 72.5671 162.05 68.6282C159.64 69.6252 157.071 70.2367 154.47 70.4328C155.422 73.5125 155.469 76.4421 154.298 79.4465Z" fill="#F2A19C"/>
<path d="M153.505 59.1696C153.827 60.3305 152.386 62.2404 151.949 63.3637C150.948 65.9366 151.288 69.3708 153.675 70.7722C155.901 72.0798 158.772 71.0495 160.931 69.6354C162.755 68.441 164.431 66.9534 165.534 65.0757C166.637 63.1993 167.12 60.8981 166.53 58.8036C166.209 57.663 165.144 56.4399 164.038 56.8765C164.096 56.5959 163.111 56.5067 163.168 56.2265C160.964 55.8351 159.646 56.2379 157.894 57.627C156.819 58.4786 156.433 58.9629 155.125 58.5492C154.513 58.3552 153.612 57.9457 153.426 58.5589C153.365 58.7576 153.449 58.9684 153.505 59.1696Z" fill="#FFBEB6"/>
<path d="M168.597 58.2322C166.392 56.2666 164.763 56.2155 161.818 55.9319C161.73 58.9173 159.69 61.4255 158.114 63.9663C156.538 66.5071 155.39 69.8762 157.041 72.3689C157.946 73.7339 159.582 74.618 160.087 76.1745C160.518 77.5037 159.993 78.9288 159.874 80.32C159.48 84.9059 161.528 89.5758 165.095 92.4983C165.326 90.0902 168.283 88.9842 170.71 89.0243C173.137 89.064 175.741 89.6578 177.874 88.502C180.131 87.278 177.516 85.0779 179.322 83.2572C180.78 81.7878 177.949 77.0975 173.423 75.0639C171.202 74.0661 170.99 69.1447 171.547 66.7814C172.432 63.023 170.296 59.7465 168.597 58.2322Z" fill="#23286B"/>
<path d="M151.846 161.91C151.24 160.111 150.609 156.024 150.815 154.145C150.945 152.959 151.495 151.853 151.721 150.682C152.188 148.26 151.241 145.815 150.31 143.519C148.272 138.49 146.234 133.461 144.196 128.432C138.267 128.814 132.377 129.766 126.646 131.269C125.736 176.018 142.085 216.642 164.188 256.086C167.838 256.364 175.483 255.508 179.132 255.785C179.598 255.82 182.168 248.084 179.46 239.425C178.534 236.461 173.926 230.4 172.885 227.47C171.448 223.423 170.374 215.676 169.927 211.424C168.828 200.994 161.714 199.615 159.436 189.362C158.421 184.795 153.877 167.936 151.846 161.91Z" fill="url(#paint1_linear)"/>
<path d="M161.325 92.8118C161.28 92.8118 161.237 92.8008 161.196 92.7771C160.211 92.2032 159.349 91.4628 158.636 90.5761C157.659 89.3628 157.09 88.0147 156.99 86.6762C156.895 85.3927 157.23 84.1384 157.554 82.925C157.842 81.8431 158.141 80.7245 158.118 79.6168C158.083 77.9601 157.231 75.907 156.407 73.9207C156.09 73.1562 155.791 72.4352 155.536 71.7345C154.512 68.9245 155.251 67.1854 156.496 64.853C156.984 63.9372 157.717 63.0095 158.493 62.0265C159.792 60.3812 161.136 58.6802 161.312 57.0037C161.326 56.8642 161.45 56.759 161.592 56.7771C161.733 56.7911 161.834 56.9166 161.82 57.0569C161.628 58.8801 160.239 60.6403 158.894 62.3422C158.133 63.3066 157.414 64.2174 156.947 65.0922C155.569 67.6744 155.135 69.1438 156.016 71.5608C156.268 72.2509 156.564 72.9681 156.879 73.7267C157.721 75.7557 158.591 77.8544 158.628 79.6062C158.653 80.7866 158.345 81.9403 158.047 83.0561C157.72 84.2825 157.41 85.4409 157.5 86.6386C157.616 88.1989 158.398 89.4685 159.035 90.2579C159.709 91.096 160.523 91.7954 161.454 92.3376C161.576 92.409 161.617 92.5642 161.546 92.6859C161.498 92.7666 161.412 92.8118 161.325 92.8118Z" fill="#23286B"/>
<path d="M156.788 60.3939C156.746 60.3939 156.703 60.3833 156.663 60.3613C155.717 59.8309 155.343 58.8454 155.396 58.1544C155.407 58.0145 155.529 57.8991 155.671 57.9207C155.811 57.9313 155.917 58.0538 155.906 58.1941C155.871 58.64 156.111 59.4675 156.914 59.9176C157.037 59.986 157.08 60.1416 157.012 60.2641C156.964 60.347 156.877 60.3939 156.788 60.3939Z" fill="#23286B"/>
<path d="M145.604 128.379C145.07 127.92 144.678 127.322 144.193 126.811C143.537 126.119 142.724 125.6 141.92 125.088C141.581 124.873 141.232 124.652 140.837 124.578C140.637 124.54 140.409 124.548 140.257 124.685C139.916 124.991 140.251 125.539 140.582 125.857C141.516 126.755 142.45 127.654 143.384 128.552C143.969 129.114 144.441 129.431 144.854 130.127C145.15 130.628 145.334 131.488 145.619 131.995C145.835 132.379 146.249 132.698 146.649 132.885C147.048 133.072 148.178 132.685 148.449 132.339C147.882 131.353 147.538 130.356 146.853 129.447C146.523 129.008 146.022 128.737 145.604 128.379Z" fill="#FFBEB6"/>
<path d="M154.366 82.3981C154.273 81.5385 153.617 79.8746 152.776 79.6603C150.386 79.0526 145.987 80.2934 144.101 83.5506C140.676 89.4651 135.157 97.5879 132.016 102.14C131.769 100.283 131.466 97.9433 131.466 97.9433C131.466 97.9433 128.478 98.7201 128.16 98.7683C125.901 99.1131 123.962 99.439 122.033 99.2247C121.712 102.963 122.355 104.779 123.427 108.303C123.986 110.143 125.631 115.996 126.034 117.122C127.392 117.809 131.494 116.967 135.57 112.509C137.515 110.381 147.911 96.3517 149.74 93.6351C151.568 90.9194 154.8 86.4328 154.366 82.3981Z" fill="#89B3F4"/>
<path d="M151.785 85.7604C151.724 85.7604 151.663 85.7389 151.615 85.6958C151.51 85.6015 151.5 85.4413 151.594 85.3365C153.135 83.619 154.202 81.9932 154.856 80.3657C155.645 78.4035 155.83 76.3525 155.378 74.5885C155.227 74.0006 155 73.414 154.781 72.8473C154.453 72.0003 154.114 71.1238 154.004 70.1936C153.665 67.3038 155.584 64.6839 157.293 62.7242L157.744 62.2086C159.4 60.3271 161.112 58.3814 161.507 55.9813C161.53 55.8427 161.66 55.7451 161.801 55.7717C161.94 55.7945 162.034 55.9256 162.011 56.0642C161.593 58.6088 159.832 60.6099 158.129 62.5451L157.678 63.0585C156.039 64.9388 154.196 67.4424 154.512 70.1349C154.614 71.0008 154.926 71.808 155.258 72.6634C155.482 73.2445 155.715 73.8446 155.873 74.4617C156.352 76.3292 156.16 78.4926 155.331 80.5537C154.655 82.2375 153.557 83.9119 151.976 85.6746C151.925 85.7317 151.855 85.7604 151.785 85.7604Z" fill="#23286B"/>
<path d="M126.949 140.944C126.985 140.903 126.983 140.864 126.941 140.827C126.899 140.791 126.859 140.794 126.823 140.836C126.787 140.878 126.79 140.917 126.832 140.953C126.874 140.989 126.91 140.947 126.949 140.944ZM128.657 132.82C128.696 132.817 128.733 132.775 128.731 132.736C128.728 132.697 128.685 132.661 128.647 132.663C128.607 132.666 128.571 132.708 128.573 132.747C128.54 132.828 128.621 132.861 128.657 132.82ZM127.526 136.862C127.565 136.86 127.604 136.856 127.641 136.815C127.638 136.776 127.635 136.737 127.593 136.7C127.554 136.703 127.515 136.706 127.479 136.748C127.445 136.829 127.487 136.865 127.526 136.862ZM136.746 142.492C136.828 142.525 136.903 142.481 136.937 142.401C136.971 142.32 136.926 142.245 136.845 142.211C136.764 142.177 136.689 142.222 136.655 142.302C136.581 142.386 136.668 142.497 136.746 142.492ZM133.131 141.491C133.213 141.524 133.288 141.48 133.322 141.4C133.356 141.319 133.311 141.244 133.23 141.209C133.149 141.176 133.074 141.22 133.039 141.301C133.006 141.382 133.05 141.457 133.131 141.491ZM129.513 140.45C129.595 140.483 129.67 140.439 129.704 140.359C129.738 140.278 129.693 140.203 129.612 140.169C129.531 140.135 129.456 140.179 129.421 140.26C129.387 140.341 129.432 140.417 129.513 140.45ZM131.673 148.696C131.707 148.615 131.701 148.537 131.656 148.461C131.575 148.428 131.497 148.433 131.421 148.477C131.387 148.558 131.393 148.636 131.434 148.672C131.522 148.784 131.6 148.779 131.673 148.696ZM128.714 146.392C128.748 146.312 128.742 146.234 128.698 146.158C128.616 146.124 128.538 146.13 128.462 146.174C128.428 146.255 128.434 146.333 128.476 146.369C128.56 146.443 128.677 146.434 128.714 146.392ZM135.627 135.037C135.705 135.031 135.778 134.947 135.772 134.87C135.767 134.792 135.683 134.719 135.605 134.725C135.527 134.731 135.453 134.814 135.459 134.892C135.465 134.97 135.549 135.043 135.627 135.037ZM131.877 135.458C131.955 135.452 132.028 135.368 132.022 135.291C132.016 135.213 131.933 135.14 131.854 135.146C131.776 135.152 131.703 135.235 131.709 135.313C131.714 135.391 131.798 135.463 131.877 135.458ZM128.165 135.876C128.243 135.87 128.316 135.786 128.31 135.709C128.304 135.631 128.221 135.558 128.142 135.564C128.064 135.57 127.991 135.653 127.997 135.731C128.006 135.848 128.087 135.881 128.165 135.876ZM129.311 151.491C129.347 151.449 129.378 151.329 129.297 151.296C129.256 151.26 129.135 151.229 129.102 151.31C129.066 151.351 129.035 151.471 129.116 151.504C129.16 151.58 129.239 151.574 129.311 151.491ZM134.334 138.463C134.413 138.457 134.488 138.413 134.483 138.334C134.477 138.257 134.435 138.22 134.354 138.186C134.276 138.192 134.2 138.236 134.205 138.315C134.211 138.394 134.256 138.469 134.334 138.463ZM130.993 138.541C131.071 138.535 131.146 138.492 131.141 138.413C131.135 138.335 131.094 138.298 131.012 138.265C130.934 138.271 130.859 138.315 130.864 138.394C130.87 138.472 130.914 138.546 130.993 138.541ZM127.648 138.581C127.726 138.575 127.802 138.531 127.797 138.452C127.791 138.374 127.749 138.338 127.668 138.304C127.589 138.31 127.514 138.354 127.519 138.433C127.528 138.549 127.57 138.585 127.648 138.581ZM131.381 145.146C131.463 145.179 131.538 145.135 131.572 145.054C131.606 144.974 131.561 144.898 131.48 144.864C131.399 144.831 131.323 144.875 131.289 144.956C131.256 145.036 131.303 145.15 131.381 145.146ZM128.265 143.952C128.347 143.985 128.422 143.941 128.458 143.899C128.492 143.818 128.447 143.743 128.366 143.709C128.285 143.675 128.21 143.72 128.176 143.8C128.139 143.843 128.184 143.918 128.265 143.952ZM131.344 132.395C131.42 132.35 131.456 132.309 131.412 132.233C131.367 132.158 131.286 132.124 131.249 132.166C131.174 132.211 131.14 132.292 131.185 132.367C131.185 132.367 131.266 132.401 131.344 132.395ZM128.287 133.71C128.363 133.665 128.396 133.584 128.352 133.509C128.307 133.434 128.226 133.4 128.151 133.445C128.075 133.49 128.041 133.571 128.083 133.607C128.131 133.72 128.212 133.754 128.287 133.71C128.248 133.712 128.287 133.71 128.287 133.71ZM132.756 152.308C132.837 152.341 132.912 152.297 132.946 152.217C132.98 152.136 132.935 152.061 132.854 152.026C132.773 151.993 132.698 152.037 132.664 152.118C132.63 152.199 132.675 152.274 132.756 152.308ZM129.155 150.952C129.236 150.985 129.311 150.941 129.346 150.861C129.379 150.78 129.335 150.705 129.254 150.671C129.172 150.637 129.097 150.682 129.063 150.762C129.027 150.805 129.074 150.919 129.155 150.952ZM132.433 136.086C132.509 136.041 132.543 135.96 132.498 135.885C132.453 135.81 132.372 135.776 132.297 135.821C132.221 135.866 132.187 135.947 132.232 136.021C132.237 136.099 132.358 136.13 132.433 136.086ZM128.883 137.67C128.959 137.625 128.992 137.544 128.948 137.469C128.903 137.394 128.822 137.36 128.747 137.405C128.671 137.45 128.637 137.531 128.682 137.605C128.724 137.641 128.808 137.714 128.883 137.67ZM132.398 144.485C132.476 144.479 132.55 144.396 132.544 144.318C132.538 144.24 132.454 144.167 132.376 144.173C132.298 144.179 132.225 144.262 132.23 144.34C132.236 144.418 132.32 144.491 132.398 144.485ZM128.547 144.599C128.625 144.593 128.698 144.51 128.693 144.432C128.687 144.355 128.603 144.281 128.525 144.287C128.447 144.293 128.373 144.377 128.379 144.454C128.385 144.532 128.43 144.607 128.547 144.599ZM133.13 147.024C133.208 147.018 133.281 146.935 133.275 146.857C133.269 146.779 133.186 146.706 133.107 146.712C133.029 146.718 132.954 146.762 132.962 146.879C132.967 146.957 133.051 147.028 133.13 147.024ZM129.268 146.982C129.346 146.976 129.419 146.892 129.413 146.815C129.407 146.737 129.363 146.662 129.245 146.67C129.167 146.676 129.094 146.759 129.06 146.84C129.106 146.914 129.189 146.987 129.268 146.982ZM129.816 139.723C129.891 139.678 129.925 139.597 129.92 139.519C129.875 139.444 129.794 139.41 129.715 139.415C129.64 139.46 129.606 139.541 129.612 139.619C129.618 139.698 129.738 139.728 129.816 139.723Z" fill="white"/>
<path d="M27.9385 45.6492C22.2666 45.6492 17.6562 41.032 17.6562 35.3515C17.6562 29.671 22.2666 25.0541 27.9385 25.0541C33.6104 25.0541 38.2207 29.6713 38.2207 35.3518C38.2207 41.032 33.6104 45.6492 27.9385 45.6492ZM27.9385 26.1172C22.843 26.1172 18.7178 30.2485 18.7178 35.3515C18.7178 40.4546 22.8428 44.5859 27.9385 44.5859C33.0342 44.5859 37.1592 40.4546 37.1592 35.3515C37.1589 30.2485 33.0339 26.1172 27.9385 26.1172Z" fill="#428DFC"/>
<path d="M59.7252 33.3466C62.6567 33.3466 65.0332 30.9667 65.0332 28.0308C65.0332 25.095 62.6567 22.715 59.7252 22.715C56.7937 22.715 54.4172 25.095 54.4172 28.0308C54.4172 30.9667 56.7937 33.3466 59.7252 33.3466Z" fill="#FBB03B"/>
<path d="M44.4383 62.265C46.7667 62.265 48.6543 60.3747 48.6543 58.0428C48.6543 55.7109 46.7667 53.8206 44.4383 53.8206C42.1099 53.8206 40.2223 55.7109 40.2223 58.0428C40.2223 60.3747 42.1099 62.265 44.4383 62.265Z" fill="url(#paint2_linear)"/>
<path d="M61.3328 39.3915L62.182 39.7257C63.5773 40.2421 64.275 41.7914 63.7591 43.1886L60.3924 52.1193C59.8769 53.5165 58.3299 54.2151 56.9347 53.6987L56.0854 53.3645C54.6901 52.8481 53.9924 51.2989 54.5083 49.9017L57.875 40.971C58.3905 39.5738 59.9375 38.8449 61.3328 39.3915Z" fill="url(#paint3_linear)"/>
<path d="M81.078 40.9106H74.3446V34.1671H81.078V40.9106ZM75.4061 39.8473H80.0165V35.2301H75.4061V39.8473Z" fill="url(#paint4_linear)"/>
<path d="M40.9805 37.7208L37.0983 48.1095L48.5331 45.8616L40.9805 37.7208Z" fill="url(#paint5_linear)"/>
<path d="M105.34 112.41C105.34 89.3808 86.654 70.7125 63.6019 70.7125C40.5499 70.7125 21.8641 89.3808 21.8641 112.41C21.8641 125.516 28.9408 134.719 35.6746 144.848C44.8333 158.625 48.2579 169.744 48.4056 176.872H78.8001C79.3676 168.889 83.6007 154.865 91.531 144.848C100.488 133.534 105.34 125.516 105.34 112.41Z" fill="white"/>
<path d="M48.0203 194.977H83.5027L81.7757 189.275H46.2927L48.0203 194.977Z" fill="#E94A47"/>
<path d="M74.94 166.699L47.4111 175.019H77.4587L74.94 166.699Z" fill="#E94A47"/>
<path d="M52.2656 209L84.5123 199.254H49.3142L52.2656 209Z" fill="#E94A47"/>
<path d="M43.2712 179.296L44.9983 184.999H80.4813L78.7542 179.296H43.2712Z" fill="#E94A47"/>
<path d="M77.4587 175.019H47.4111L42.4315 176.524L43.2713 179.296H78.7543L77.4587 175.019Z" fill="white"/>
<path d="M46.2927 189.275H81.7757L80.4813 184.998H44.9983L46.2927 189.275Z" fill="white"/>
<path d="M49.3142 199.254H84.5123L84.7746 199.175L83.5028 194.977H48.0204L49.3142 199.254Z" fill="white"/>
<path d="M70.7382 202.819H56.4679V217.075H70.7382V202.819Z" fill="#428DFC"/>
<path d="M62.7291 185.265C62.7256 185.265 62.7216 185.265 62.7181 185.265C62.4818 185.258 62.2953 185.063 62.3011 184.826C62.8878 162.641 62.8247 139.445 56.3439 118.12C55.7885 117.765 55.2522 117.38 54.7397 116.965C51.7489 114.546 45.1049 108.386 47.9966 103.432C48.2827 102.942 48.7269 102.69 49.236 102.718C50.7406 102.806 52.4503 105.272 52.9906 106.509C54.5688 110.127 55.9183 113.819 57.0696 117.566C60.6071 119.736 64.9386 120.638 69.039 119.996C70.612 119.749 72.0894 119.282 73.4151 118.627C73.8824 116.44 74.3892 114.262 74.9324 112.092L75.0153 111.76C75.5602 109.554 76.3954 106.228 78.7265 106.75C79.4226 106.906 79.9514 107.339 80.256 108C81.068 109.764 80.1483 112.724 79.3774 114.177C78.2701 116.263 76.4423 117.998 74.1674 119.202C71.326 132.62 69.9262 146.328 70.0033 160.047C70.005 160.284 69.8139 160.476 69.5776 160.478C69.577 160.478 69.5759 160.478 69.5753 160.478C69.3396 160.478 69.149 160.288 69.1473 160.053C69.072 146.492 70.4318 132.944 73.1956 119.672C71.9527 120.219 70.5992 120.617 69.1722 120.84C65.1801 121.464 60.9801 120.695 57.431 118.761C63.6853 139.955 63.7386 162.896 63.1588 184.847C63.1513 185.081 62.9608 185.265 62.7291 185.265ZM78.2921 107.556C76.9375 107.556 76.2859 110.19 75.8475 111.966L75.7647 112.301C75.2828 114.223 74.8305 116.152 74.4083 118.088C76.2355 116.99 77.7008 115.515 78.6228 113.777C79.4857 112.151 80.0585 109.617 79.4799 108.359C79.2854 107.937 78.9784 107.685 78.5406 107.586C78.4548 107.565 78.372 107.556 78.2921 107.556ZM49.152 103.572C49.0258 103.572 48.8816 103.617 48.7368 103.864C46.1786 108.245 52.4596 114.021 55.2783 116.301C55.4932 116.475 55.7127 116.643 55.9362 116.806C54.8659 113.436 53.6294 110.112 52.2076 106.851C51.5955 105.449 50.0509 103.623 49.1891 103.573C49.1758 103.572 49.163 103.572 49.152 103.572Z" fill="#428DFC"/>
<path d="M33.5525 73.8716H27.9868V79.4315H33.5525V73.8716Z" fill="#428DFC"/>
<path d="M34.4809 63.5771L30.1558 67.5268L26.2019 63.2059L30.527 59.2562L34.4809 63.5771Z" fill="#E94A47"/>
<path d="M90.7989 49.7078L84.1392 56.3606L77.4801 49.7078L84.1392 43.055L90.7989 49.7078Z" fill="#89B3F4"/>
<path d="M87.1838 67.7246L85.0774 63.4455L89.3614 61.341L91.4677 65.6202L87.1838 67.7246Z" fill="#E94A47"/>
<path d="M90.4972 164.317C90.4555 164.317 90.4133 164.312 90.3721 164.299C90.1451 164.23 90.0188 163.991 90.0889 163.765C93.916 151.316 103.849 140.674 116.012 135.99C116.233 135.906 116.481 136.015 116.565 136.235C116.65 136.456 116.541 136.703 116.32 136.788C104.396 141.379 94.659 151.812 90.9061 164.015C90.8499 164.2 90.6808 164.317 90.4972 164.317Z" fill="#23286B"/>
<path d="M79.3925 71.5484C79.3746 71.5484 79.3578 71.5478 79.3398 71.5461C79.1058 71.5171 78.9379 71.3042 78.9663 71.0699C79.4302 67.2495 81.6147 62.9831 84.2771 60.6954C86.7124 58.6031 88.996 57.6129 92.7038 57.0398C92.936 57.0073 93.1561 57.1639 93.192 57.3971C93.2279 57.6297 93.0675 57.849 92.8341 57.8849C89.2567 58.4377 87.1642 59.3426 84.8354 61.3433C82.3201 63.5046 80.2555 67.5471 79.8153 71.1731C79.7904 71.3895 79.6056 71.5484 79.3925 71.5484Z" fill="#428DFC"/>
<path d="M69.1027 62.7135C69.0529 62.7135 69.0037 62.7048 68.9533 62.6868C68.7315 62.6044 68.6186 62.3591 68.7008 62.1375C70.5854 57.0456 72.7207 51.2751 71.5479 45.6821C71.4993 45.4513 71.6469 45.2245 71.8792 45.1757C72.1062 45.1253 72.3379 45.2749 72.3859 45.507C73.6103 51.3413 71.4286 57.2347 69.5035 62.4345C69.4398 62.6067 69.2759 62.7135 69.1027 62.7135Z" fill="#23286B"/>
<path d="M25.8706 85.7299C25.7212 85.7299 25.577 85.6522 25.4982 85.5142C22.1293 79.6114 17.5436 77.0127 11.0594 77.348C10.8208 77.3555 10.6215 77.1786 10.61 76.9425C10.5978 76.7064 10.7796 76.5051 11.0159 76.4935C17.8569 76.1443 22.6946 78.8765 26.2425 85.0907C26.36 85.2961 26.2876 85.5571 26.082 85.6743C26.0154 85.712 25.943 85.7299 25.8706 85.7299Z" fill="#A1C3FC"/>
<defs>
<linearGradient id="paint0_linear" x1="126.995" y1="103.228" x2="162.706" y2="103.228" gradientUnits="userSpaceOnUse">
<stop stop-color="#A1C3FC"/>
<stop offset="1" stop-color="#81AEF2"/>
</linearGradient>
<linearGradient id="paint1_linear" x1="126.609" y1="192.287" x2="180.682" y2="192.287" gradientUnits="userSpaceOnUse">
<stop stop-color="#23286B"/>
<stop offset="1" stop-color="#151A4F"/>
</linearGradient>
<linearGradient id="paint2_linear" x1="40.7534" y1="53.5723" x2="53.0638" y2="68.4506" gradientUnits="userSpaceOnUse">
<stop offset="0.1291" stop-color="#428DFC"/>
<stop offset="0.9987" stop-color="#1D72D8"/>
</linearGradient>
<linearGradient id="paint3_linear" x1="55.4267" y1="41.4821" x2="72.6023" y2="64.8678" gradientUnits="userSpaceOnUse">
<stop offset="0.1291" stop-color="#428DFC"/>
<stop offset="0.9987" stop-color="#1D72D8"/>
</linearGradient>
<linearGradient id="paint4_linear" x1="74.3379" y1="37.5389" x2="81.0707" y2="37.5389" gradientUnits="userSpaceOnUse">
<stop stop-color="#A1C3FC"/>
<stop offset="0.6955" stop-color="#81AEF2"/>
<stop offset="1" stop-color="#78A9EF"/>
</linearGradient>
<linearGradient id="paint5_linear" x1="37.2954" y1="40.4324" x2="50.4588" y2="55.999" gradientUnits="userSpaceOnUse">
<stop stop-color="#A1C3FC"/>
<stop offset="0.6955" stop-color="#81AEF2"/>
<stop offset="1" stop-color="#78A9EF"/>
</linearGradient>
</defs>
</svg>
