<svg width="197" height="262" viewBox="0 0 197 262" fill="none" xmlns="http://www.w3.org/2000/svg">
<path d="M157.026 223.86H82.5721C74.9436 223.86 68.7593 217.757 68.7593 210.229V27.411C68.7593 19.8828 74.9431 13.7805 82.5721 13.7805H157.025C164.654 13.7805 170.838 19.8833 170.838 27.411V210.23C170.839 217.757 164.654 223.86 157.026 223.86Z" fill="#C1D7FD"/>
<path d="M105.133 29.3575C106.468 29.3575 107.55 28.2898 107.55 26.9726C107.55 25.6554 106.468 24.5876 105.133 24.5876C103.798 24.5876 102.716 25.6554 102.716 26.9726C102.716 28.2898 103.798 29.3575 105.133 29.3575Z" fill="#A1C3FC"/>
<path d="M157.026 13.78H142.734C142.001 14.2301 141.28 14.6918 140.575 15.1582C121.849 27.5298 105.743 45.0462 99.4769 66.4072C96.9505 75.0173 96.076 84.0072 94.1549 92.7685C89.7584 112.829 79.9615 131.347 68.7605 148.65V210.229C68.7605 217.757 74.9443 223.86 82.5733 223.86H157.027C164.655 223.86 170.839 217.756 170.839 210.229V27.4111C170.839 19.8829 164.654 13.78 157.026 13.78Z" fill="#A1C3FC"/>
<path d="M120.545 220.055C125.283 220.055 129.123 216.265 129.123 211.59C129.123 206.915 125.283 203.125 120.545 203.125C115.807 203.125 111.966 206.915 111.966 211.59C111.966 216.265 115.807 220.055 120.545 220.055Z" fill="url(#paint0_linear)"/>
<path d="M111.697 26.2693L128.891 24.1522L129.26 27.0702L112.066 29.1868L111.697 26.2693Z" fill="#A1C3FC"/>
<path d="M166.796 37.5621H72.8026V200.287H166.796V37.5621Z" fill="white"/>
<path d="M119.534 217.063C123.155 217.063 126.091 214.166 126.091 210.592C126.091 207.019 123.155 204.122 119.534 204.122C115.913 204.122 112.978 207.019 112.978 210.592C112.978 214.166 115.913 217.063 119.534 217.063Z" fill="#C1D7FD"/>
<path d="M126.79 26.8302H112.661C112.382 26.8302 112.156 26.607 112.156 26.3318C112.156 26.0566 112.382 25.8334 112.661 25.8334H126.79C127.069 25.8334 127.295 26.0566 127.295 26.3318C127.295 26.607 127.069 26.8302 126.79 26.8302Z" fill="#428DFC"/>
<path d="M105.193 28.3191C106.109 28.3191 106.852 27.5864 106.852 26.6825C106.852 25.7787 106.109 25.046 105.193 25.046C104.277 25.046 103.535 25.7787 103.535 26.6825C103.535 27.5864 104.277 28.3191 105.193 28.3191Z" fill="#428DFC"/>
<path d="M68.971 38.0317H67.2732V45.2569H68.971V38.0317Z" fill="#D62929"/>
<path d="M68.971 53.949H67.2732V66.9345H68.971V53.949Z" fill="#D62929"/>
<path d="M172.566 53.949H170.868V66.9345H172.566V53.949Z" fill="#D62929"/>
<path d="M68.971 70.9128H67.2732V83.8984H68.971V70.9128Z" fill="#D62929"/>
<path d="M103.297 23.2898L105.639 25.7861L103.109 28.0975L100.767 25.6012L103.297 23.2898Z" fill="white"/>
<path d="M101.638 23.5603L103.293 25.325L101.505 26.9589L99.8491 25.1942L101.638 23.5603Z" fill="#A1C3FC"/>
<path d="M29.1488 227.005L21.4031 236.779L49.6062 246.247C49.6062 246.247 49.0988 242.98 44.9735 239.301C40.8478 235.622 38.354 230.094 38.354 230.094L29.1488 227.005Z" fill="#151A4F"/>
<path d="M56.9925 94.1388C58.1841 95.9255 58.6494 98.1789 58.2624 100.29C59.6694 99.2963 61.3947 98.8854 63.0735 98.4942C62.02 96.1026 62.3197 93.3615 62.6392 90.7688C61.7413 91.2737 60.9135 91.9034 60.188 92.6344C59.7576 93.0681 59.3585 93.54 58.8618 93.896C58.3651 94.2516 57.7399 94.485 57.1413 94.3589C57.6358 94.6514 56.6734 93.6605 56.9925 94.1388Z" fill="url(#paint1_linear)"/>
<path d="M64.9352 104.189C64.2884 103.815 63.5616 103.548 62.8147 103.545C61.2068 103.539 59.8075 104.769 59.1065 106.213C58.4056 107.657 58.2585 109.294 58.0787 110.888C56.9318 121.027 55.8787 122.78 51.8751 132.301C51.0537 134.255 47.4015 144.648 46.2546 146.431C43.6366 150.501 43.477 150.195 43.373 150.275C41.495 151.722 38.0539 151.767 36.3045 153.367C35.8754 155.187 35.5189 157.42 35.6289 159.025C35.7055 159.717 37.2218 159.337 38.0638 159.345C38.6878 159.351 39.3491 159.347 39.8815 159.022C40.4139 158.698 40.7248 157.929 40.3473 157.433C39.6872 157.62 39.0275 157.807 38.367 157.994C38.2616 156.818 38.2784 155.385 39.2907 154.774C39.7908 154.472 40.407 154.468 40.9876 154.395C44.1019 154.004 44.9834 153.614 46.0998 151.512C47.0858 149.654 56.1113 140.593 58.0039 136.918C61.0571 130.99 63.9968 121.159 66.7486 115.085C67.4629 113.509 68.1896 111.881 68.2477 110.151C68.3294 107.766 67.0062 105.385 64.9352 104.189Z" fill="#FFBEB6"/>
<path d="M62.3558 83.7666C63.0206 84.3698 64.3146 83.8095 64.8611 84.5208C64.4031 86.2096 65.1299 89.161 64.4505 91.3903C63.9791 92.9368 62.5003 94.0204 60.9302 94.4202C59.3602 94.8195 57.7024 94.6402 56.107 94.358C55.406 94.234 54.6926 94.0847 54.085 93.7145C53.4344 93.3181 52.9523 92.697 52.5571 92.0475C51.4665 90.2553 50.9303 88.1332 51.0391 86.0393C51.1079 84.7185 51.4704 83.3368 52.4289 82.4227C52.8517 82.019 53.3703 81.7269 53.9052 81.4897C55.2826 80.8767 56.8342 80.5987 58.3182 80.8664C59.8018 81.134 61.205 81.9821 61.9937 83.2643C62.1029 83.4406 62.2023 83.6277 62.3558 83.7666Z" fill="#FFBEB6"/>
<path d="M78.6712 83.1077C79.4612 82.7796 80.3574 83.1648 81.091 83.6041C84.533 85.6631 86.1077 88.5638 87.9139 92.0565C88.2149 92.639 88.8913 94.1752 88.543 94.7307C88.1745 95.3193 86.9098 95.6907 86.2316 95.8452C84.4461 96.2501 82.3269 96.5731 80.9951 95.3201C80.63 94.9765 80.3634 94.5415 80.1342 94.0958C78.4317 90.7872 78.6097 86.8698 78.8295 83.1579C79.2513 83.6946 78.2507 82.5711 78.6712 83.1077Z" fill="#FBB03B"/>
<path d="M98.3856 63.0645C98.1306 63.007 97.8807 63.1683 97.6769 63.3318C97.639 63.3622 97.6029 63.3953 97.5659 63.4266C97.7354 63.2005 97.9005 62.971 98.0622 62.7428C98.2372 62.4966 98.4178 62.2362 98.4557 61.9363C98.4931 61.6365 98.3348 61.2886 98.0394 61.2217C97.7844 61.1642 97.5345 61.3255 97.3307 61.4889C97.2972 61.5159 97.2653 61.5451 97.2322 61.5726C97.2266 61.5271 97.2193 61.482 97.212 61.4374C97.3436 61.2585 97.4735 61.0788 97.6003 60.8995C97.7754 60.6533 97.956 60.3929 97.9938 60.093C98.0312 59.7932 97.873 59.4453 97.5775 59.3784C97.3225 59.3209 97.0727 59.4822 96.8689 59.6456C96.8224 59.6825 96.7785 59.7224 96.7334 59.7606C96.7914 59.6795 96.8504 59.5984 96.9076 59.5169C97.0826 59.2707 97.2636 59.0103 97.301 58.7105C97.3384 58.4106 97.1802 58.0627 96.8848 57.9958C96.6298 57.9383 96.3799 58.0996 96.1761 58.263C95.9563 58.4389 95.7478 58.6272 95.5487 58.8263C95.516 58.7958 95.4859 58.7662 95.4532 58.7353C96.6857 56.6188 99.7539 53.3393 98.4557 52.0545C97.8545 51.4596 95.7994 55.971 93.9515 58.7353C93.5335 58.7113 91.109 64.9486 90.3711 66.5679C89.6873 68.0689 83.4016 76.2331 82.5179 77.626C77.8748 84.9434 75.7165 86.0484 73.7409 89.1447C71.4962 92.6631 64.9051 93.6824 63.9736 97.7486C63.719 98.8605 63.8231 100.019 63.9285 101.155C64.1263 103.286 64.7859 105.948 66.9021 106.307C68.8919 106.646 70.3746 104.641 71.6862 103.111C73.5848 100.895 74.2961 101.411 76.5129 99.5112C83.1474 93.8256 86.226 89.6638 88.7546 81.3117C89.3674 79.2874 92.1007 70.3613 93.6053 68.8715C94.2796 68.2036 95.7499 68.3529 96.3068 67.585C96.4595 67.3748 96.6375 66.9922 96.8022 66.5345C97.0056 66.347 97.197 66.145 97.3793 65.9335C97.3501 66.6932 97.3208 67.4525 97.2916 68.2122C97.2873 68.3181 97.2843 68.4284 97.3286 68.5249C97.452 68.7947 97.8807 68.7754 98.0841 68.5584C98.2875 68.3413 98.3267 68.0221 98.3546 67.727C98.4729 66.5169 98.5907 65.3076 98.709 64.0975C98.755 63.9954 98.7885 63.8894 98.8031 63.7775C98.8401 63.4793 98.6814 63.131 98.3856 63.0645Z" fill="url(#paint2_linear)"/>
<path d="M41.1729 199.979C39.793 202.866 35.5232 204.823 33.8977 207.58C29.8287 214.482 30.8797 219.362 29.0237 227.152C31.735 228.26 38.5355 230.41 38.5355 230.41C38.5355 230.41 39.6824 228.866 40.3043 228.177C63.8704 202.074 78.4859 169.842 82.8645 134.989C79.5193 135.2 76.8556 134.547 73.51 134.759C72.8473 134.801 72.1679 134.543 71.6136 134.907C71.1074 135.239 70.7909 135.785 70.4963 136.313C64.8423 146.445 60.5639 157.339 57.8151 168.605C56.7422 173.003 55.8022 177.663 52.8569 181.106C50.6749 183.657 47.801 187.011 45.6775 189.611C43.0375 192.844 42.9709 196.217 41.1729 199.979Z" fill="#1D72D8"/>
<path d="M65.6598 107.706C63.4813 105.824 61.3027 103.941 59.1238 102.058C58.0225 102.415 57.3047 103.514 57.0437 104.64C56.7827 105.764 56.8915 106.937 56.9302 108.091C57.1319 114.094 55.3309 120.146 51.8799 125.068C53.8924 125.699 55.905 126.33 57.918 126.961C60.0845 127.64 62.6139 128.717 62.9725 130.953C63.5505 125.796 65.0324 120.742 67.3305 116.086C68.0009 114.727 68.7629 113.288 68.5604 111.787C68.332 110.094 66.9525 108.824 65.6598 107.706Z" fill="url(#paint3_linear)"/>
<path d="M80.1221 114.898C80.6786 120.205 81.0407 125.533 81.2071 130.868C80.3329 129.226 78.411 128.205 76.5576 128.395C76.6604 128.092 76.7636 127.789 76.8664 127.487" stroke="black" stroke-width="1.07576" stroke-miterlimit="10"/>
<path d="M49.5822 236.311L45.3671 248.039L75.1252 248.04C75.1252 248.04 73.5999 245.105 68.5131 242.931C63.4262 240.757 59.2949 236.311 59.2949 236.311H49.5822Z" fill="#23286B"/>
<path d="M57.6165 190.089C58.7371 186.04 64.7313 164.388 61.4932 160.92C55.723 154.741 60.2448 140.728 63.692 137.781C63.692 137.781 75.7354 134.665 83.4394 135.707C78.5895 203.779 65.1158 212.993 59.875 236.968C55.299 236.784 53.9212 237.101 49.4519 236.958C49.2425 236.952 45.6466 226.716 47.7356 221.433C48.4805 219.549 50.8207 213.824 51.5466 211.931C53.5037 206.824 51.5431 207.597 52.1822 202.111C52.7872 196.911 56.2365 195.074 57.6165 190.089Z" fill="url(#paint4_linear)"/>
<path d="M60.7488 97.1051C61.9731 96.8829 62.6129 96.1064 62.6129 96.1064C62.6129 96.1064 69.8409 97.2595 72.1424 99.4434C76.1151 103.212 77.5006 107.04 79.5579 112.109C82.7423 119.953 84.019 132.572 83.4394 137.436C76.5103 135.709 72.8172 143.284 59.5344 139.164C63.6915 126.033 63.5904 117.308 58.5337 110.126C56.9873 107.929 56.2446 105.073 55.8971 102.411C55.5497 99.7501 58.2438 97.0493 58.2438 97.0493C58.2438 97.0493 59.2669 97.3736 60.7488 97.1051Z" fill="#FBB03B"/>
<path d="M62.5386 95.9413C61.1724 97.2068 62.25 98.8811 62.9419 100.607C63.6339 102.334 65.0637 103.665 66.5985 104.721C68.2804 105.878 70.2413 106.797 72.2814 106.698C74.7407 106.578 76.8685 105.024 78.783 103.479C82.1807 100.739 85.4369 97.8254 88.5365 94.7539C80.814 91.3282 80.722 87.6832 78.5908 82.925C75.5887 86.1505 65.6413 92.7618 62.5386 95.9413Z" fill="url(#paint5_linear)"/>
<path d="M50.2917 93.8307C50.7428 94.3953 51.8579 94.9276 52.4965 95.2674C54.0747 96.1077 55.8993 95.273 56.9581 93.835C57.2699 93.4121 57.5382 92.884 57.395 92.3791C57.2776 91.9656 56.9146 91.6752 56.6799 91.3148C56.3246 90.77 56.2816 90.0378 56.5706 89.4548C57.1894 88.2057 59.0807 87.7921 59.3263 86.4207C59.5021 85.4397 58.6915 84.4629 58.9242 83.4938C59.1319 82.626 60.0612 82.1688 60.8877 81.8273C60.2895 81.1607 58.7582 80.757 57.8616 80.7274C56.1763 80.6712 54.9989 81.002 53.3772 81.4618C51.7551 81.9212 50.2139 82.8641 49.3392 84.3016C48.4744 85.7228 48.3385 87.4627 48.3768 89.1245C48.394 89.8894 48.5729 91.4903 48.9191 92.1732C49.0945 92.5181 49.8656 93.298 50.2917 93.8307Z" fill="#E94A47"/>
<path d="M50.2809 95.6659C49.9683 95.0237 49.5391 94.3472 48.8472 94.1636C48.4481 94.0581 48.025 94.1375 47.6259 94.2439C44.2678 95.1443 41.6949 97.9064 40.0212 100.947C38.3476 103.987 37.4015 107.362 36.0933 110.575C35.8052 111.283 35.6091 112.783 35.6091 112.783C35.6091 112.783 38.0517 114.55 39.6583 114.738C42.7859 115.104 45.7045 115.295 48.6937 114.308C48.0547 112.673 48.1553 110.767 48.9642 109.208C49.5499 108.08 50.4732 107.149 51.0262 106.005C51.4945 105.035 51.6772 103.951 51.7353 102.876C51.8708 100.402 51.365 97.8957 50.2809 95.6659Z" fill="#E94A47"/>
<path d="M59.2734 98.8381C59.205 98.8381 59.1388 98.8012 59.1048 98.7364C58.5798 97.7403 58.0921 96.6808 58.3789 95.6341C58.48 95.2656 58.6696 94.9379 58.8533 94.6217C59.0278 94.3202 59.193 94.0353 59.2829 93.7235C59.491 93.0024 59.2768 92.262 59.0498 91.4787C58.8653 90.8412 58.6735 90.1819 58.7156 89.5088C58.7561 88.8658 59.0072 88.2717 59.2493 87.6968C59.4802 87.149 59.6987 86.6317 59.7494 86.0771C59.7903 85.6326 59.7202 85.1912 59.6467 84.7236C59.5985 84.4186 59.549 84.1029 59.5323 83.7855C59.4927 83.0125 59.7438 81.9817 60.5803 81.6196C60.677 81.578 60.7884 81.6218 60.8305 81.7178C60.8727 81.8144 60.8284 81.9255 60.7321 81.9675C60.0733 82.2528 59.8789 83.1146 59.9124 83.7666C59.9275 84.0639 59.9761 84.3693 60.0225 84.6649C60.0969 85.1346 60.173 85.6202 60.1283 86.1114C60.072 86.7244 59.832 87.2936 59.5994 87.844C59.3585 88.4145 59.1311 88.9537 59.0945 89.5324C59.0562 90.1394 59.2381 90.7666 59.414 91.3731C59.6462 92.174 59.8862 93.0015 59.6475 93.8286C59.5447 94.185 59.3598 94.5033 59.1814 94.8113C59.002 95.1206 58.833 95.4132 58.7449 95.734C58.4942 96.6482 58.9307 97.5924 59.4407 98.5597C59.4897 98.6523 59.454 98.7669 59.3611 98.8158C59.3332 98.8312 59.3026 98.8381 59.2734 98.8381Z" fill="#E94A47"/>
<path d="M34.8145 112.398C34.7994 112.398 34.7835 112.396 34.7684 112.392C34.6665 112.367 34.6046 112.264 34.6295 112.162C35.9605 106.83 36.6675 104.787 39.1036 100.575C40.2268 98.634 42.3822 96.1026 44.4609 95.1331C45.7657 94.5248 46.9065 94.2417 48.5299 94.1225C48.631 94.1122 48.726 94.1932 48.7337 94.2979C48.7419 94.4022 48.6624 94.4935 48.5579 94.5012C46.9848 94.6171 45.8813 94.8908 44.6222 95.4772C42.7073 96.3703 40.5623 98.8128 39.433 100.765C37.0012 104.969 36.3393 106.881 34.9985 112.255C34.9779 112.34 34.9 112.398 34.8145 112.398Z" fill="#E94A47"/>
<path d="M50.972 93.7977L49.4474 92.7561L48.4032 94.277L49.9278 95.3186L50.972 93.7977Z" fill="#428DFC"/>
<path d="M62.0698 84.6564C61.9954 84.6564 61.9253 84.6126 61.8948 84.5402C61.8539 84.4441 61.8995 84.333 61.9958 84.2918C62.4551 84.0983 62.8236 83.6903 63.0344 83.1425C63.0718 83.0447 63.1819 82.9958 63.2803 83.0332C63.3784 83.0705 63.4274 83.1803 63.39 83.2785C63.1419 83.9241 62.6998 84.408 62.1446 84.641C62.1197 84.6517 62.0943 84.6564 62.0698 84.6564Z" fill="#23286B"/>
<path opacity="0.51" d="M77.6052 146.574C77.5772 146.554 77.5704 146.517 77.5901 146.488C77.6091 146.462 77.646 146.456 77.6727 146.476C77.6736 146.476 77.674 146.477 77.6744 146.478C77.7024 146.497 77.7093 146.535 77.6895 146.563C77.6684 146.588 77.6319 146.593 77.6052 146.574ZM78.4648 145.383C78.4369 145.364 78.4304 145.325 78.4498 145.297C78.4691 145.27 78.5074 145.263 78.5354 145.282C78.5633 145.302 78.5698 145.34 78.5504 145.368C78.5302 145.394 78.4928 145.401 78.4648 145.383ZM79.3253 144.188C79.2982 144.171 79.2901 144.136 79.3068 144.109C79.3077 144.108 79.3081 144.107 79.309 144.107C79.3279 144.078 79.3666 144.071 79.3946 144.091C79.4229 144.11 79.4298 144.149 79.41 144.177C79.41 144.177 79.41 144.177 79.4096 144.177C79.3924 144.203 79.3571 144.21 79.3318 144.194C79.3296 144.191 79.3275 144.189 79.3253 144.188ZM80.1841 142.996C80.1561 142.977 80.1497 142.939 80.169 142.911C80.1901 142.884 80.2292 142.88 80.2559 142.901C80.2804 142.921 80.286 142.954 80.2701 142.981C80.2507 143.01 80.2129 143.016 80.1841 142.996ZM81.0442 141.806C81.0162 141.787 81.0098 141.749 81.0291 141.721C81.0485 141.693 81.0867 141.686 81.1147 141.706C81.1426 141.725 81.1491 141.763 81.1297 141.791C81.1108 141.819 81.0721 141.825 81.0442 141.806ZM74.3155 141.279C74.3094 141.246 74.3318 141.215 74.3645 141.209C74.3972 141.203 74.4281 141.226 74.4341 141.258C74.4402 141.291 74.4178 141.322 74.3851 141.328C74.3524 141.333 74.3206 141.311 74.3155 141.279ZM75.7677 141.042C75.7629 141.009 75.7853 140.977 75.8188 140.969C75.852 140.965 75.8829 140.989 75.8868 141.022C75.8937 141.052 75.8752 141.083 75.8442 141.09C75.8421 141.091 75.8399 141.091 75.8378 141.091C75.8047 141.097 75.7733 141.076 75.7677 141.042ZM77.2216 140.803C77.2156 140.771 77.2379 140.74 77.2706 140.734C77.3042 140.729 77.336 140.751 77.3442 140.785C77.3472 140.819 77.3235 140.849 77.29 140.856C77.256 140.86 77.2259 140.836 77.2216 140.803ZM78.6743 140.568C78.6682 140.535 78.6906 140.504 78.7233 140.498C78.7568 140.493 78.7895 140.516 78.7968 140.549C78.8028 140.582 78.7805 140.613 78.7478 140.619C78.7134 140.623 78.6816 140.601 78.6743 140.568ZM75.7595 135.299C75.7315 135.28 75.7251 135.242 75.7444 135.214C75.7616 135.188 75.7969 135.181 75.8223 135.197C75.8244 135.199 75.827 135.2 75.8283 135.202C75.8558 135.22 75.8627 135.257 75.8451 135.284C75.8257 135.311 75.7875 135.318 75.7595 135.299ZM80.7805 147.157C80.7479 147.147 80.7285 147.115 80.7345 147.082C80.7431 147.049 80.7762 147.031 80.8089 147.04C80.8416 147.046 80.8631 147.078 80.8567 147.111C80.8472 147.145 80.8137 147.164 80.7805 147.157ZM81.1164 145.728C81.1065 145.725 81.0988 145.72 81.091 145.714C81.0764 145.697 81.0691 145.675 81.0704 145.653C81.079 145.62 81.1121 145.602 81.1448 145.611C81.1766 145.616 81.1981 145.645 81.1934 145.677C81.1929 145.679 81.1925 145.681 81.1921 145.682C81.1856 145.704 81.1693 145.72 81.1478 145.727C81.1383 145.73 81.1276 145.73 81.1164 145.728ZM81.454 144.299C81.4217 144.29 81.4032 144.257 81.4118 144.225C81.417 144.193 81.4462 144.171 81.4785 144.176C81.4802 144.177 81.4819 144.177 81.4837 144.177C81.5163 144.187 81.5365 144.219 81.5297 144.253C81.5189 144.284 81.4862 144.304 81.454 144.299ZM76.1427 143.884C76.1255 143.857 76.1332 143.821 76.1607 143.803C76.1887 143.786 76.2248 143.793 76.2424 143.821C76.2601 143.848 76.2519 143.885 76.2244 143.902C76.199 143.92 76.1642 143.914 76.1461 143.889C76.1448 143.888 76.1435 143.886 76.1427 143.884ZM77.3932 143.11C77.3794 143.089 77.3833 143.06 77.4022 143.042L77.4039 143.039C77.4052 143.034 77.4082 143.03 77.4125 143.029C77.4289 143.018 77.4495 143.016 77.4672 143.023C77.4792 143.029 77.4899 143.037 77.4973 143.049C77.5145 143.077 77.5067 143.113 77.4792 143.13C77.4512 143.148 77.4143 143.141 77.3958 143.113C77.394 143.112 77.3936 143.111 77.3932 143.11ZM78.6437 142.336C78.6278 142.308 78.6377 142.272 78.6661 142.257C78.694 142.239 78.7302 142.247 78.7474 142.275C78.765 142.302 78.7572 142.338 78.7297 142.356C78.7297 142.356 78.7289 142.356 78.7289 142.356C78.7001 142.374 78.6631 142.367 78.6446 142.339C78.6446 142.338 78.6442 142.338 78.6437 142.336ZM79.8981 141.564C79.8805 141.538 79.8861 141.504 79.9115 141.486C79.9132 141.484 79.9145 141.483 79.9166 141.483C79.9446 141.465 79.9815 141.472 80 141.5C80.0009 141.501 80.0018 141.502 80.0018 141.503C80.019 141.531 80.0112 141.567 79.9837 141.584C79.9553 141.602 79.9179 141.595 79.8998 141.567C79.899 141.565 79.8981 141.565 79.8981 141.564ZM75.2232 138.374C75.191 138.364 75.1712 138.332 75.1772 138.299C75.1854 138.266 75.2189 138.245 75.2529 138.253C75.2865 138.261 75.3071 138.294 75.2989 138.328C75.289 138.361 75.2564 138.38 75.2232 138.374ZM76.6561 138.71C76.6239 138.701 76.6054 138.668 76.614 138.636C76.6191 138.604 76.6484 138.582 76.6806 138.587C76.6823 138.587 76.6841 138.588 76.6858 138.588C76.7185 138.598 76.7387 138.63 76.7318 138.664C76.7219 138.696 76.6897 138.716 76.6561 138.71ZM80.2465 153.973C80.2482 153.969 80.2452 153.963 80.2473 153.96C80.2538 153.898 80.3101 153.853 80.3724 153.86C80.3746 153.861 80.3767 153.861 80.3789 153.861C80.4417 153.872 80.483 153.932 80.4731 153.995C80.4726 154.006 80.4696 154.017 80.4645 154.027C80.3909 154.011 80.3187 153.991 80.2465 153.973ZM80.7943 151.343C80.7762 151.341 80.7586 151.333 80.7457 151.32C80.7113 151.297 80.6937 151.255 80.7027 151.215L80.7006 151.209C80.7122 151.147 80.7719 151.105 80.8347 151.115C80.8971 151.125 80.9397 151.183 80.9302 151.245C80.9173 151.309 80.858 151.351 80.7943 151.343ZM81.2519 148.595C81.1891 148.583 81.1478 148.524 81.1577 148.461C81.1676 148.399 81.2256 148.356 81.288 148.366C81.3508 148.377 81.3921 148.437 81.3822 148.5C81.374 148.56 81.3189 148.604 81.2583 148.596C81.2557 148.596 81.2532 148.596 81.2519 148.595ZM72.1016 148.979C72.0647 148.929 72.0754 148.858 72.1262 148.82C72.127 148.819 72.1283 148.818 72.1292 148.818C72.1795 148.781 72.2504 148.792 72.287 148.843C72.2874 148.843 72.287 148.843 72.2879 148.844C72.3248 148.894 72.3141 148.966 72.2633 149.003C72.2625 149.004 72.2612 149.005 72.2603 149.006C72.21 149.042 72.1391 149.031 72.1025 148.98C72.1021 148.98 72.1021 148.98 72.1016 148.979ZM74.3696 147.359C74.3327 147.306 74.3447 147.234 74.3976 147.197C74.4501 147.16 74.5223 147.173 74.5597 147.225C74.5963 147.275 74.5851 147.346 74.5343 147.383C74.5343 147.383 74.5339 147.383 74.5335 147.384C74.481 147.42 74.4088 147.409 74.3696 147.359ZM76.6385 145.734C76.6015 145.682 76.6135 145.61 76.6664 145.573C76.7189 145.536 76.7911 145.548 76.8286 145.601C76.8655 145.653 76.8535 145.725 76.8006 145.762C76.7499 145.799 76.6785 145.789 76.6406 145.738C76.6406 145.737 76.6398 145.736 76.6385 145.734ZM78.9065 144.114C78.8811 144.074 78.8815 144.024 78.9078 143.986C78.9129 143.972 78.9219 143.96 78.9344 143.952C78.9533 143.939 78.9761 143.932 78.9994 143.933L79.0011 143.929C79.0393 143.929 79.0759 143.947 79.097 143.98C79.134 144.031 79.1232 144.102 79.0725 144.14C79.0716 144.141 79.0703 144.141 79.0695 144.142C79.0161 144.177 78.9443 144.165 78.9065 144.114ZM81.18 142.491C81.1422 142.44 81.1517 142.369 81.202 142.331C81.2544 142.294 81.3258 142.305 81.365 142.355C81.4019 142.406 81.3908 142.477 81.3396 142.515C81.3387 142.516 81.3379 142.516 81.3374 142.517C81.2893 142.554 81.2205 142.545 81.1839 142.498C81.1826 142.495 81.1813 142.493 81.18 142.491ZM67.2397 139.234C67.1769 139.222 67.1356 139.162 67.1455 139.1C67.1537 139.039 67.2088 138.996 67.2694 139.003C67.2715 139.004 67.2737 139.004 67.2754 139.004C67.3382 139.016 67.3795 139.076 67.3696 139.138C67.3601 139.2 67.3021 139.243 67.2397 139.234ZM69.9911 139.687C69.9283 139.677 69.8848 139.618 69.8956 139.554C69.9059 139.492 69.9653 139.448 70.0289 139.459C70.0298 139.459 70.031 139.46 70.0319 139.46C70.0943 139.47 70.1368 139.528 70.1274 139.59C70.1145 139.653 70.0551 139.696 69.9911 139.687ZM72.748 140.14C72.6856 140.13 72.6435 140.072 72.653 140.01C72.6534 140.009 72.6534 140.007 72.6538 140.006C72.662 139.946 72.717 139.902 72.7777 139.91C72.7798 139.91 72.782 139.91 72.7837 139.911C72.8465 139.923 72.889 139.983 72.8817 140.046C72.871 140.108 72.8108 140.15 72.748 140.14ZM75.4998 140.594C75.437 140.583 75.3948 140.523 75.4056 140.46C75.4163 140.397 75.4765 140.356 75.5398 140.366C75.6021 140.376 75.6447 140.434 75.6352 140.496C75.6262 140.56 75.5673 140.603 75.5045 140.595C75.5041 140.595 75.5015 140.595 75.4998 140.594ZM78.2563 141.046C78.1943 141.036 78.1518 140.979 78.1608 140.917C78.1698 140.855 78.2283 140.813 78.2902 140.822C78.2915 140.822 78.2932 140.822 78.2945 140.822C78.3565 140.831 78.399 140.888 78.3904 140.95C78.3904 140.951 78.39 140.952 78.39 140.952C78.3797 141.015 78.3199 141.057 78.2563 141.046ZM76.4845 151.328C76.4304 151.294 76.4144 151.222 76.4484 151.168C76.4824 151.115 76.5546 151.098 76.6084 151.132C76.6088 151.132 76.6092 151.132 76.6097 151.133C76.663 151.167 76.6789 151.239 76.6445 151.293C76.6114 151.346 76.5404 151.363 76.4867 151.329C76.4858 151.328 76.485 151.328 76.4845 151.328ZM77.9621 148.962C77.9079 148.931 77.8886 148.862 77.92 148.808C77.9509 148.754 78.0202 148.734 78.0748 148.766C78.0769 148.767 78.0795 148.768 78.0821 148.77C78.135 148.803 78.1509 148.873 78.1178 148.926C78.0838 148.978 78.015 148.994 77.9621 148.962ZM79.4341 146.599C79.3804 146.566 79.364 146.495 79.3976 146.44C79.398 146.439 79.3984 146.439 79.3989 146.438C79.4315 146.385 79.5008 146.369 79.5541 146.401C79.5545 146.401 79.555 146.402 79.5554 146.402C79.61 146.433 79.6294 146.503 79.5975 146.558C79.5962 146.56 79.5954 146.562 79.5945 146.563C79.5593 146.617 79.4883 146.633 79.4341 146.599ZM80.9061 144.237C80.8502 144.203 80.8326 144.131 80.8661 144.076C80.8997 144.02 80.9723 144.002 81.0278 144.036C81.0837 144.069 81.1013 144.142 81.0678 144.197C81.0678 144.197 81.0678 144.197 81.0674 144.198C81.0325 144.251 80.9616 144.268 80.9061 144.237ZM68.6661 145.011C68.6537 144.949 68.6941 144.889 68.7564 144.877C68.8184 144.864 68.8786 144.905 68.891 144.967C68.9031 145.027 68.8648 145.086 68.8046 145.101C68.7414 145.113 68.6803 145.073 68.6661 145.011ZM71.3856 144.379C71.3732 144.318 71.4136 144.258 71.476 144.245C71.5379 144.233 71.5981 144.273 71.6106 144.335C71.6226 144.396 71.5843 144.455 71.5237 144.469C71.4609 144.481 71.3998 144.441 71.3856 144.379ZM74.1009 143.745C74.088 143.682 74.1297 143.62 74.1929 143.607C74.254 143.595 74.3142 143.633 74.3301 143.693C74.3464 143.755 74.3086 143.819 74.2458 143.835C74.183 143.851 74.1194 143.814 74.103 143.751C74.1022 143.749 74.1013 143.747 74.1009 143.745ZM76.8243 143.115C76.8083 143.054 76.8453 142.992 76.906 142.977C76.9073 142.976 76.9081 142.976 76.9094 142.976C76.9705 142.961 77.0328 142.997 77.0487 143.059C77.0638 143.12 77.0272 143.182 76.9657 143.198C76.964 143.198 76.9619 143.199 76.9601 143.199C76.9021 143.215 76.8419 143.18 76.826 143.123C76.8251 143.12 76.8247 143.117 76.8243 143.115ZM79.5395 142.481C79.5274 142.419 79.567 142.358 79.6285 142.343C79.6904 142.331 79.7506 142.371 79.7631 142.433C79.7747 142.493 79.7377 142.551 79.6792 142.567C79.6182 142.582 79.5558 142.545 79.5399 142.484C79.5399 142.483 79.5399 142.482 79.5395 142.481ZM70.3682 134.556C70.3149 134.522 70.299 134.45 70.3334 134.396C70.366 134.343 70.4353 134.327 70.4886 134.36C70.489 134.36 70.4895 134.36 70.4899 134.36C70.5441 134.39 70.5639 134.456 70.5346 134.51C70.5329 134.512 70.5316 134.515 70.5299 134.518C70.4938 134.571 70.4237 134.588 70.3682 134.556ZM72.7411 136.027C72.6882 135.992 72.671 135.921 72.702 135.866C72.7364 135.813 72.8082 135.797 72.8624 135.831C72.9161 135.864 72.9325 135.935 72.8989 135.989C72.8985 135.99 72.8981 135.99 72.8976 135.991C72.8654 136.044 72.7957 136.06 72.7428 136.028C72.7415 136.027 72.7411 136.027 72.7411 136.027ZM75.1102 137.495C75.0573 137.464 75.0396 137.397 75.0706 137.344C75.0715 137.343 75.0727 137.341 75.0736 137.34C75.105 137.285 75.1751 137.266 75.2301 137.298C75.2323 137.299 75.2331 137.3 75.2353 137.301C75.2895 137.334 75.3054 137.407 75.2714 137.46C75.2374 137.514 75.1652 137.53 75.1114 137.496C75.1106 137.495 75.1106 137.495 75.1102 137.495ZM77.4813 138.968C77.428 138.934 77.4121 138.862 77.4465 138.808C77.4779 138.756 77.5454 138.738 77.5979 138.769C77.5996 138.77 77.6009 138.771 77.6026 138.772C77.6568 138.805 77.6749 138.874 77.6435 138.929C77.6082 138.984 77.5372 139.001 77.4813 138.968ZM77.4267 153.182C77.4521 153.171 77.4813 153.171 77.5063 153.182C77.5209 153.191 77.5329 153.203 77.5407 153.218C77.5063 153.205 77.4663 153.194 77.4267 153.182ZM78.5203 151.141C78.4708 151.117 78.4502 151.058 78.4743 151.008C78.4752 151.007 78.476 151.006 78.4764 151.005C78.5027 150.955 78.5637 150.936 78.614 150.962C78.6631 150.987 78.6824 151.047 78.6579 151.097C78.6338 151.146 78.5745 151.167 78.525 151.143C78.5233 151.143 78.5216 151.142 78.5203 151.141ZM79.6289 148.915C79.5803 148.894 79.5584 148.836 79.5803 148.788C79.582 148.785 79.5833 148.782 79.5851 148.779C79.6109 148.729 79.6719 148.709 79.7222 148.734C79.7726 148.759 79.7919 148.821 79.767 148.871C79.7403 148.921 79.6788 148.941 79.6289 148.915ZM80.7371 146.689C80.6885 146.668 80.6666 146.61 80.6885 146.562C80.6902 146.559 80.6915 146.556 80.6932 146.553C80.7186 146.502 80.7805 146.481 80.8317 146.505C80.8481 146.514 80.861 146.529 80.8687 146.545C80.8988 146.592 80.8855 146.654 80.8386 146.684C80.8081 146.704 80.7689 146.706 80.7371 146.689ZM69.3585 147.653C69.3413 147.6 69.3692 147.542 69.4226 147.523C69.4763 147.505 69.5344 147.534 69.5529 147.587C69.5709 147.641 69.5425 147.699 69.4888 147.717C69.435 147.734 69.3774 147.707 69.3585 147.653ZM71.7202 146.86C71.7026 146.807 71.731 146.749 71.7843 146.73C71.8372 146.71 71.8965 146.738 71.9163 146.79C71.9361 146.843 71.909 146.902 71.8561 146.922C71.854 146.923 71.8527 146.923 71.8501 146.924C71.7976 146.943 71.74 146.916 71.7211 146.865C71.7206 146.863 71.7202 146.862 71.7202 146.86ZM74.1305 146.122C74.1065 146.112 74.0888 146.092 74.0807 146.067C74.063 146.014 74.0914 145.956 74.1447 145.937C74.1993 145.918 74.2595 145.947 74.2789 146.001C74.2789 146.001 74.2789 146.001 74.2793 146.002C74.2901 146.034 74.2854 146.07 74.2643 146.098L74.2626 146.102C74.2518 146.118 74.2342 146.129 74.2148 146.132C74.1869 146.143 74.1551 146.139 74.1305 146.122ZM76.442 145.273C76.4243 145.219 76.4536 145.16 76.509 145.143C76.5637 145.125 76.623 145.154 76.6402 145.21C76.6578 145.263 76.6295 145.321 76.5761 145.34C76.5215 145.358 76.4613 145.33 76.442 145.276C76.4424 145.274 76.4424 145.274 76.442 145.273ZM78.8033 144.48C78.7869 144.425 78.8179 144.367 78.8734 144.351C78.9263 144.335 78.9826 144.363 79.0011 144.416C79.0204 144.47 78.9916 144.529 78.9374 144.548C78.8832 144.568 78.8235 144.539 78.8041 144.485C78.8046 144.483 78.8037 144.482 78.8033 144.48ZM81.165 143.687C81.1487 143.632 81.1796 143.573 81.2351 143.557C81.288 143.541 81.3443 143.57 81.3628 143.622C81.3822 143.676 81.3534 143.736 81.2992 143.755C81.245 143.774 81.1852 143.745 81.1659 143.691C81.1659 143.691 81.1654 143.689 81.165 143.687ZM70.1252 137.278C70.0741 137.25 70.0538 137.188 70.0788 137.136C70.1029 137.087 70.1622 137.066 70.2121 137.09C70.2138 137.091 70.2142 137.092 70.2164 137.093C70.268 137.117 70.2899 137.178 70.265 137.229C70.2646 137.23 70.2641 137.23 70.2637 137.231C70.2375 137.28 70.1773 137.301 70.1252 137.278ZM72.3545 138.378C72.3046 138.352 72.2848 138.291 72.3098 138.241C72.3339 138.192 72.3932 138.171 72.4431 138.195C72.4448 138.196 72.4452 138.197 72.4474 138.198C72.499 138.222 72.5209 138.282 72.4964 138.334C72.496 138.335 72.4956 138.335 72.4951 138.336C72.4676 138.385 72.4053 138.404 72.3545 138.378ZM74.5898 139.485C74.5382 139.46 74.5163 139.4 74.5412 139.348C74.5416 139.348 74.5421 139.347 74.5425 139.346C74.564 139.298 74.6221 139.276 74.6707 139.298C74.6737 139.3 74.6767 139.301 74.6797 139.303C74.7313 139.327 74.7532 139.388 74.7287 139.439C74.7283 139.44 74.7279 139.44 74.7274 139.441C74.7008 139.49 74.6406 139.509 74.5898 139.485ZM76.8174 140.589C76.7666 140.562 76.7481 140.499 76.7752 140.449C76.8015 140.4 76.8617 140.381 76.9116 140.405C76.961 140.431 76.9825 140.491 76.9597 140.543C76.9326 140.593 76.8703 140.614 76.8174 140.589ZM79.0531 141.695C79.0015 141.671 78.9796 141.608 79.0045 141.558C79.0295 141.506 79.0914 141.484 79.1426 141.509C79.143 141.509 79.143 141.509 79.1434 141.51C79.1946 141.538 79.2148 141.599 79.1899 141.651C79.1628 141.699 79.103 141.718 79.0531 141.695ZM81.2845 142.801C81.2329 142.776 81.2119 142.714 81.2372 142.663C81.2622 142.612 81.3237 142.591 81.3753 142.616C81.4265 142.641 81.4475 142.702 81.4234 142.754C81.3964 142.803 81.3361 142.823 81.2845 142.801ZM74.9171 150.043C74.8801 150.001 74.8844 149.937 74.9261 149.9C74.9274 149.899 74.9282 149.898 74.93 149.897C74.97 149.861 75.031 149.864 75.068 149.903C75.0697 149.905 75.071 149.906 75.0723 149.908C75.1106 149.949 75.108 150.014 75.0663 150.053C75.0654 150.053 75.0641 150.055 75.0637 150.055C75.0186 150.09 74.9549 150.085 74.9171 150.043ZM76.7963 148.408C76.7593 148.366 76.7628 148.302 76.8036 148.265C76.847 148.227 76.9124 148.23 76.9507 148.274C76.9864 148.317 76.9834 148.381 76.9417 148.42C76.8982 148.457 76.8333 148.451 76.7963 148.408ZM78.6734 146.777C78.6356 146.733 78.639 146.668 78.6824 146.63C78.7263 146.594 78.7908 146.598 78.8295 146.639C78.8665 146.682 78.8609 146.747 78.8175 146.784V146.784C78.7779 146.822 78.7151 146.82 78.6777 146.781C78.676 146.779 78.6747 146.778 78.6734 146.777ZM80.5488 145.14C80.5126 145.096 80.5178 145.032 80.5612 144.995C80.6051 144.958 80.67 144.963 80.707 145.007C80.744 145.051 80.7384 145.116 80.6945 145.152C80.6507 145.189 80.5857 145.184 80.5488 145.14ZM69.9928 142.725C69.9364 142.719 69.8947 142.67 69.899 142.613C69.9029 142.557 69.9511 142.515 70.007 142.518C70.0633 142.523 70.1072 142.57 70.1059 142.627C70.1016 142.685 70.0513 142.728 69.9928 142.725ZM72.4805 142.891C72.4263 142.888 72.3829 142.843 72.3846 142.789C72.3846 142.787 72.385 142.785 72.3846 142.783C72.3885 142.727 72.4366 142.684 72.4925 142.688C72.5489 142.693 72.5927 142.74 72.5915 142.797C72.5867 142.853 72.5373 142.895 72.4805 142.891ZM74.967 143.061C74.9106 143.057 74.868 143.009 74.8715 142.953C74.8754 142.897 74.9235 142.854 74.9794 142.858C75.0353 142.862 75.0783 142.91 75.0749 142.966C75.0714 143.021 75.0224 143.064 74.967 143.061ZM77.4525 143.23C77.3962 143.226 77.3536 143.178 77.3571 143.123C77.3584 143.09 77.3747 143.06 77.4018 143.043L77.4035 143.039C77.4229 143.029 77.4444 143.023 77.4672 143.025C77.5235 143.031 77.5652 143.08 77.5609 143.136C77.5566 143.192 77.5089 143.234 77.4525 143.23ZM79.9385 143.401C79.8809 143.396 79.8375 143.346 79.8409 143.288C79.8469 143.232 79.8964 143.19 79.9527 143.194C79.9661 143.196 79.9803 143.2 79.9927 143.205C80.0005 143.226 80.016 143.243 80.0357 143.253C80.0452 143.269 80.0482 143.287 80.0465 143.306C80.043 143.362 79.9945 143.404 79.9385 143.401ZM74.0918 134.134C74.0557 134.094 74.0587 134.033 74.0979 133.996C74.1 133.994 74.1009 133.993 74.1026 133.992C74.1439 133.954 74.2092 133.956 74.2475 133.998C74.2484 133.999 74.2497 134 74.2497 134C74.2849 134.045 74.2798 134.109 74.2372 134.146C74.1955 134.183 74.1314 134.179 74.0944 134.137C74.0936 134.136 74.0927 134.135 74.0918 134.134ZM75.7307 136.008C75.6937 135.964 75.6971 135.9 75.7397 135.861C75.7844 135.824 75.8502 135.83 75.8868 135.874C75.9216 135.916 75.9182 135.978 75.8782 136.016C75.8373 136.054 75.7733 136.052 75.735 136.012C75.7328 136.011 75.732 136.01 75.7307 136.008ZM80.6451 141.624C80.6081 141.583 80.6115 141.519 80.6524 141.481C80.6958 141.444 80.7612 141.447 80.7995 141.49C80.8352 141.534 80.8317 141.598 80.7904 141.637C80.747 141.674 80.6821 141.668 80.6451 141.624ZM80.3247 152.739C80.292 152.732 80.2705 152.699 80.2783 152.665C80.2783 152.665 80.2783 152.664 80.2787 152.664C80.2907 152.633 80.3239 152.616 80.3561 152.623C80.3884 152.632 80.4069 152.665 80.3983 152.698C80.3897 152.729 80.357 152.748 80.3247 152.739C80.3247 152.739 80.3247 152.739 80.3247 152.739ZM80.713 151.325C80.6808 151.317 80.6623 151.284 80.6709 151.251C80.6743 151.234 80.6864 151.221 80.7031 151.215C80.716 151.207 80.7315 151.205 80.7453 151.209C80.7775 151.217 80.796 151.25 80.7874 151.283C80.7831 151.303 80.7664 151.318 80.7466 151.32C80.7367 151.328 80.7238 151.33 80.713 151.325ZM81.1005 149.912C81.0682 149.903 81.0498 149.87 81.0584 149.838C81.067 149.806 81.1001 149.787 81.1327 149.796C81.1654 149.805 81.1856 149.838 81.1788 149.871C81.1663 149.902 81.1336 149.919 81.1005 149.912ZM75.4026 148.923C75.3862 148.894 75.3966 148.856 75.4267 148.84C75.4568 148.824 75.4942 148.834 75.5101 148.864C75.526 148.894 75.5161 148.931 75.486 148.947C75.4572 148.962 75.4206 148.951 75.4026 148.923ZM76.678 148.198C76.6617 148.169 76.672 148.131 76.7017 148.115C76.7309 148.098 76.7692 148.109 76.7851 148.139C76.8019 148.168 76.7911 148.206 76.7615 148.222C76.7322 148.237 76.6961 148.226 76.678 148.198ZM77.9591 147.472C77.9432 147.443 77.9531 147.408 77.9815 147.392C78.0077 147.375 78.0425 147.381 78.0602 147.407C78.0619 147.409 78.0636 147.413 78.0653 147.416C78.0812 147.444 78.0713 147.48 78.043 147.495C78.0167 147.512 77.981 147.506 77.9638 147.48C77.9617 147.477 77.96 147.474 77.9591 147.472ZM79.2346 146.747C79.2187 146.718 79.2286 146.683 79.2569 146.667C79.2853 146.649 79.3227 146.657 79.3408 146.685C79.3417 146.686 79.3417 146.686 79.3421 146.687C79.3571 146.717 79.3472 146.753 79.318 146.77C79.2888 146.786 79.2514 146.776 79.2346 146.747ZM80.5139 146.024C80.4989 145.994 80.5083 145.958 80.538 145.941C80.5668 145.925 80.6021 145.935 80.6176 145.963C80.6356 145.992 80.6279 146.029 80.5999 146.047C80.5991 146.048 80.5982 146.048 80.5978 146.048C80.5681 146.063 80.5311 146.052 80.5139 146.024ZM74.6719 142.827C74.6397 142.818 74.6212 142.785 74.6298 142.752C74.6384 142.72 74.6715 142.702 74.7042 142.71C74.7365 142.719 74.7549 142.752 74.7463 142.785C74.7373 142.818 74.7046 142.836 74.6719 142.827C74.6724 142.827 74.6719 142.827 74.6719 142.827ZM76.088 143.218C76.0558 143.207 76.0382 143.173 76.0476 143.141C76.0562 143.108 76.0893 143.09 76.122 143.099C76.1534 143.106 76.1728 143.137 76.1654 143.168C76.165 143.169 76.1646 143.171 76.1642 143.172C76.1564 143.205 76.1233 143.226 76.0902 143.219C76.0898 143.218 76.0889 143.218 76.088 143.218ZM77.5059 143.605C77.4736 143.597 77.4551 143.564 77.4637 143.531C77.4723 143.498 77.5054 143.48 77.5381 143.489C77.5381 143.489 77.5381 143.489 77.5385 143.489C77.5699 143.496 77.5893 143.527 77.582 143.558C77.5815 143.56 77.5811 143.561 77.5807 143.563C77.5708 143.594 77.5381 143.614 77.5059 143.605ZM78.9237 143.992L78.9082 143.986C78.8867 143.971 78.8755 143.944 78.8815 143.918C78.8901 143.886 78.9232 143.868 78.9559 143.876C78.9804 143.884 78.9985 143.905 79.0015 143.929L78.9998 143.933C79.0015 143.939 79.0002 143.945 78.9976 143.95C78.9903 143.981 78.9594 144.001 78.9284 143.993C78.9263 143.993 78.925 143.993 78.9237 143.992ZM80.3389 144.383C80.3067 144.375 80.2882 144.342 80.2968 144.309C80.3062 144.277 80.3393 144.259 80.3716 144.268C80.403 144.277 80.4219 144.309 80.4129 144.341C80.4047 144.373 80.3716 144.391 80.3389 144.383ZM80.6128 141.753C80.5978 141.723 80.6077 141.687 80.6369 141.67C80.667 141.655 80.7036 141.664 80.7203 141.694C80.7363 141.722 80.7264 141.758 80.698 141.773C80.6696 141.791 80.6322 141.783 80.6141 141.755C80.6137 141.755 80.6133 141.754 80.6128 141.753ZM81.3387 143.026C81.3224 142.996 81.3327 142.958 81.3628 142.942C81.3929 142.927 81.4303 142.936 81.4462 142.966C81.4626 142.996 81.4523 143.034 81.4222 143.05C81.3929 143.064 81.3564 143.055 81.3387 143.026ZM78.0412 150.769C78.0159 150.748 78.0107 150.712 78.0301 150.686C78.052 150.66 78.0903 150.655 78.1182 150.675C78.1445 150.694 78.1505 150.732 78.1307 150.758C78.1303 150.759 78.1298 150.759 78.129 150.76C78.1066 150.785 78.0683 150.789 78.0412 150.769ZM78.9443 149.613C78.9185 149.593 78.9134 149.556 78.9331 149.53C78.9508 149.504 78.9873 149.497 79.0131 149.516C79.0148 149.516 79.0157 149.518 79.017 149.519C79.0428 149.536 79.0501 149.571 79.0333 149.596C79.032 149.598 79.0303 149.601 79.0282 149.602C79.0092 149.628 78.9718 149.634 78.9456 149.615C78.946 149.614 78.9452 149.614 78.9443 149.613ZM79.8478 148.457C79.8216 148.439 79.8151 148.403 79.8336 148.377C79.8345 148.375 79.8358 148.374 79.8366 148.373C79.8538 148.347 79.8891 148.34 79.9145 148.357C79.9166 148.358 79.9192 148.36 79.9205 148.362C79.9467 148.381 79.9527 148.418 79.933 148.444C79.9325 148.445 79.9321 148.446 79.9312 148.446C79.9115 148.471 79.8745 148.477 79.8478 148.457ZM80.7466 147.299C80.7212 147.277 80.7173 147.239 80.7363 147.212C80.759 147.188 80.7965 147.183 80.8244 147.201C80.8515 147.223 80.8558 147.262 80.8339 147.289C80.8128 147.316 80.7737 147.32 80.7466 147.299ZM75.1962 145.877C75.194 145.844 75.2172 145.816 75.2491 145.809C75.2813 145.804 75.3118 145.826 75.317 145.859C75.3174 145.86 75.3174 145.861 75.3174 145.862C75.3234 145.894 75.3019 145.924 75.2701 145.93C75.268 145.93 75.2663 145.931 75.2663 145.931C75.231 145.934 75.2009 145.91 75.1962 145.877ZM76.6553 145.692C76.6531 145.66 76.6763 145.631 76.7081 145.624C76.7408 145.621 76.7709 145.645 76.7761 145.677C76.7825 145.709 76.7628 145.739 76.7309 145.746C76.7297 145.746 76.7284 145.746 76.7266 145.746C76.6935 145.752 76.6613 145.729 76.6553 145.696C76.6557 145.695 76.6553 145.694 76.6553 145.692ZM78.1169 145.512C78.1109 145.481 78.1324 145.451 78.1642 145.445C78.1664 145.445 78.1681 145.444 78.1703 145.444C78.2034 145.44 78.2343 145.464 78.2382 145.497C78.2403 145.53 78.2171 145.558 78.1853 145.565C78.1526 145.57 78.1225 145.548 78.1178 145.515C78.1169 145.515 78.1169 145.514 78.1169 145.512ZM79.5747 145.332C79.5687 145.3 79.5902 145.27 79.622 145.265C79.6242 145.264 79.6259 145.264 79.6281 145.264C79.6612 145.26 79.6921 145.284 79.696 145.317C79.6982 145.349 79.6749 145.378 79.6431 145.385C79.6087 145.389 79.5782 145.365 79.5747 145.332ZM81.0317 145.151C81.0265 145.119 81.0493 145.089 81.0816 145.083C81.0829 145.083 81.0837 145.083 81.085 145.083C81.1168 145.077 81.1469 145.098 81.1525 145.13C81.153 145.132 81.1534 145.134 81.1534 145.136C81.1573 145.169 81.1336 145.2 81.1005 145.204C81.0669 145.206 81.0381 145.183 81.0317 145.151ZM76.6682 140.496C76.6415 140.475 76.6363 140.438 76.657 140.412C76.6772 140.385 76.7146 140.38 76.7408 140.401C76.7666 140.418 76.7739 140.453 76.7572 140.478C76.7559 140.481 76.7542 140.483 76.752 140.484C76.7331 140.511 76.6957 140.517 76.6694 140.497C76.6694 140.496 76.669 140.496 76.6682 140.496ZM77.8275 141.396C77.8009 141.375 77.7961 141.336 77.8172 141.308C77.8378 141.284 77.8744 141.28 77.8998 141.3H77.9002C77.926 141.317 77.9333 141.353 77.9165 141.378C77.9152 141.38 77.9135 141.383 77.9114 141.384C77.8925 141.41 77.855 141.416 77.8288 141.396C77.8284 141.397 77.828 141.397 77.8275 141.396ZM78.9865 142.298C78.9594 142.276 78.9551 142.237 78.9766 142.21C78.9981 142.184 79.0372 142.179 79.0639 142.2C79.0897 142.224 79.0914 142.263 79.0686 142.289C79.0479 142.311 79.0131 142.315 78.9865 142.298ZM80.1475 143.194C80.1213 143.175 80.1153 143.138 80.1351 143.112C80.1355 143.111 80.1359 143.111 80.1368 143.11C80.1506 143.093 80.1725 143.085 80.194 143.088C80.2052 143.088 80.2163 143.093 80.2249 143.1C80.2503 143.121 80.2555 143.157 80.2361 143.184C80.2267 143.195 80.2146 143.202 80.2013 143.206L80.1974 143.204C80.1798 143.211 80.16 143.208 80.1475 143.194ZM81.3065 144.095C81.282 144.074 81.2772 144.039 81.2953 144.012C81.3164 143.985 81.3551 143.98 81.3822 144.001C81.3822 144.001 81.3835 144.002 81.3835 144.002C81.4097 144.021 81.4157 144.059 81.3959 144.085C81.3955 144.086 81.3951 144.086 81.3942 144.086C81.3723 144.111 81.334 144.116 81.3065 144.095ZM81.0738 142.626C81.0614 142.589 81.0811 142.55 81.1173 142.537C81.1542 142.525 81.1934 142.545 81.2063 142.581C81.2188 142.617 81.199 142.657 81.1628 142.67C81.1267 142.682 81.0872 142.663 81.0738 142.626ZM79.2045 153.396C79.1714 153.378 79.1567 153.338 79.1735 153.304C79.1907 153.27 79.2311 153.255 79.2668 153.27C79.3012 153.288 79.315 153.33 79.2961 153.365V153.366C79.2806 153.399 79.2415 153.413 79.2079 153.398C79.2071 153.397 79.2058 153.396 79.2045 153.396ZM79.9342 151.889C79.9011 151.872 79.8865 151.832 79.9033 151.798C79.9205 151.763 79.9609 151.748 79.9966 151.763C80.031 151.781 80.0448 151.824 80.0258 151.859V151.859C80.0125 151.892 79.9738 151.907 79.9416 151.893C79.9394 151.892 79.9368 151.89 79.9342 151.889ZM80.664 150.383C80.6309 150.366 80.6163 150.325 80.633 150.292C80.6511 150.259 80.6907 150.244 80.7264 150.257C80.7608 150.275 80.7745 150.318 80.7556 150.352V150.353C80.7423 150.386 80.7036 150.401 80.6713 150.387C80.6687 150.385 80.6666 150.384 80.664 150.383ZM73.7418 149.603C73.7293 149.569 73.7478 149.531 73.7822 149.519C73.7826 149.519 73.7839 149.518 73.7839 149.518C73.8196 149.504 73.8588 149.522 73.8721 149.556C73.8725 149.558 73.8734 149.559 73.8742 149.561C73.8867 149.596 73.8682 149.634 73.8338 149.646C73.8334 149.646 73.8321 149.647 73.8321 149.647C73.7943 149.658 73.7547 149.639 73.7418 149.603ZM75.3247 149.056C75.3123 149.019 75.3316 148.979 75.3682 148.967C75.4052 148.954 75.4447 148.974 75.4572 149.01C75.4697 149.045 75.4512 149.083 75.4168 149.095C75.4168 149.095 75.415 149.096 75.4146 149.096C75.3811 149.11 75.3402 149.095 75.3256 149.061C75.3256 149.059 75.3252 149.057 75.3247 149.056ZM76.9094 148.504C76.8995 148.472 76.9137 148.437 76.9421 148.42C76.9477 148.418 76.949 148.414 76.9528 148.415C76.9898 148.402 77.0289 148.422 77.0419 148.458C77.0543 148.495 77.0345 148.534 76.9984 148.547C76.961 148.56 76.9219 148.541 76.9094 148.504ZM78.4936 147.953C78.4812 147.916 78.5005 147.876 78.5371 147.864C78.5736 147.852 78.6136 147.871 78.6261 147.907C78.6347 147.93 78.63 147.955 78.6136 147.973C78.6106 147.981 78.605 147.983 78.6037 147.987L78.5822 147.996C78.5465 148.008 78.5065 147.989 78.4936 147.953ZM80.0779 147.402C80.0654 147.367 80.083 147.33 80.1174 147.317C80.1183 147.317 80.1192 147.317 80.1205 147.317C80.154 147.302 80.1948 147.317 80.2095 147.351C80.2103 147.354 80.2112 147.354 80.2116 147.357C80.2241 147.393 80.2047 147.433 80.1682 147.445C80.1308 147.458 80.0903 147.438 80.0779 147.402ZM74.1813 142.61C74.1486 142.596 74.1331 142.558 74.1469 142.525C74.1482 142.523 74.149 142.52 74.1508 142.518C74.168 142.485 74.2084 142.471 74.2423 142.487C74.275 142.505 74.2905 142.545 74.2768 142.58C74.2587 142.615 74.2157 142.628 74.1813 142.61ZM75.6898 143.341C75.6554 143.324 75.6417 143.281 75.6606 143.246V143.246C75.6778 143.213 75.7182 143.198 75.7522 143.215C75.7849 143.233 75.8004 143.272 75.7866 143.308C75.7677 143.343 75.7255 143.357 75.6898 143.341ZM77.2057 144.067C77.1722 144.055 77.1541 144.017 77.1666 143.984C77.1683 143.981 77.1691 143.978 77.1713 143.974C77.1885 143.941 77.2289 143.926 77.2629 143.943C77.2956 143.961 77.3111 144.001 77.2973 144.036C77.2801 144.07 77.2392 144.084 77.2057 144.067ZM78.716 144.795C78.6824 144.783 78.6644 144.745 78.6768 144.712C78.6786 144.709 78.6794 144.705 78.6816 144.702C78.6988 144.669 78.7392 144.654 78.7732 144.671C78.8076 144.688 78.823 144.729 78.8076 144.764C78.7908 144.798 78.7499 144.812 78.716 144.795ZM80.2258 145.523C80.1923 145.511 80.1742 145.473 80.1867 145.44C80.1884 145.437 80.1893 145.433 80.1914 145.43C80.2073 145.395 80.2495 145.379 80.2852 145.395C80.3204 145.411 80.3363 145.453 80.32 145.489C80.3041 145.524 80.2619 145.54 80.2258 145.523C80.2262 145.524 80.2262 145.524 80.2258 145.523ZM76.3052 152.173C76.2785 152.145 76.279 152.101 76.3065 152.075C76.3074 152.074 76.3086 152.073 76.3091 152.073C76.3392 152.049 76.3822 152.052 76.408 152.08C76.4334 152.109 76.4308 152.152 76.402 152.178C76.4011 152.179 76.4007 152.179 76.3998 152.179C76.3732 152.203 76.3301 152.2 76.3052 152.173ZM77.5557 151.058C77.5308 151.03 77.5342 150.987 77.5618 150.963C77.5893 150.936 77.6331 150.937 77.6598 150.964C77.6607 150.965 77.6615 150.966 77.662 150.967C77.6873 150.996 77.683 151.041 77.6529 151.065C77.625 151.09 77.5811 151.087 77.5557 151.058ZM78.8101 149.945C78.7852 149.92 78.7856 149.879 78.8119 149.854C78.8136 149.852 78.8149 149.851 78.8166 149.85C78.842 149.824 78.8837 149.823 78.9103 149.848C78.9116 149.85 78.9125 149.851 78.9138 149.852C78.9404 149.879 78.94 149.923 78.9125 149.95C78.885 149.976 78.8411 149.976 78.8144 149.948C78.8123 149.948 78.811 149.947 78.8101 149.945ZM80.0602 148.831C80.0353 148.803 80.0387 148.76 80.0663 148.736C80.0938 148.709 80.1376 148.71 80.1643 148.737C80.1652 148.738 80.166 148.739 80.1665 148.74C80.1905 148.77 80.1871 148.812 80.1592 148.838C80.1299 148.864 80.086 148.86 80.0602 148.831ZM81.3142 147.719C81.2893 147.693 81.2897 147.653 81.3159 147.627C81.3177 147.626 81.3189 147.625 81.3207 147.623C81.346 147.597 81.3877 147.596 81.4144 147.621C81.4157 147.623 81.4166 147.623 81.4179 147.625C81.4441 147.654 81.4428 147.698 81.4144 147.725C81.3834 147.749 81.3409 147.746 81.3142 147.719ZM74.1305 146.122C74.1267 146.112 74.1245 146.103 74.1241 146.092C74.1258 146.055 74.1576 146.026 74.1959 146.028C74.1968 146.028 74.1976 146.028 74.1981 146.028C74.235 146.031 74.2634 146.061 74.2638 146.098L74.2621 146.101C74.2604 146.138 74.2286 146.167 74.1903 146.166C74.1895 146.166 74.1882 146.166 74.1882 146.166C74.1619 146.165 74.1383 146.147 74.1305 146.122ZM75.8661 146.261C75.8292 146.26 75.7995 146.229 75.8004 146.192C75.8004 146.192 75.8004 146.192 75.8004 146.191C75.8025 146.153 75.833 146.123 75.8722 146.122C75.9104 146.126 75.9401 146.158 75.9401 146.197C75.938 146.234 75.904 146.263 75.8661 146.261ZM77.539 146.358C77.5007 146.355 77.4719 146.322 77.4749 146.284C77.4775 146.246 77.5106 146.217 77.5489 146.22C77.5871 146.223 77.6159 146.256 77.6129 146.294C77.6112 146.331 77.5794 146.36 77.5411 146.358C77.5403 146.358 77.5398 146.358 77.539 146.358ZM79.2152 146.457C79.1774 146.454 79.1486 146.421 79.1512 146.383C79.1503 146.348 79.1787 146.318 79.2139 146.317C79.2161 146.317 79.2187 146.317 79.2208 146.317C79.2578 146.318 79.2879 146.349 79.2866 146.386C79.2866 146.386 79.2866 146.386 79.2866 146.387C79.2858 146.426 79.2539 146.457 79.2152 146.457C79.2152 146.457 79.2152 146.457 79.2152 146.457ZM80.8683 146.546C80.8601 146.529 80.8468 146.514 80.8313 146.505C80.8274 146.496 80.8253 146.487 80.8248 146.476C80.8274 146.438 80.8605 146.409 80.8988 146.412C80.9371 146.415 80.9659 146.448 80.9629 146.486C80.9603 146.524 80.9272 146.553 80.8889 146.55C80.882 146.55 80.8747 146.549 80.8683 146.546ZM76.887 140.355C76.8617 140.327 76.8643 140.283 76.8931 140.258C76.8939 140.257 76.8944 140.257 76.8952 140.257C76.9236 140.232 76.9657 140.235 76.9907 140.263C77.0165 140.288 77.0173 140.33 76.992 140.356C76.9907 140.357 76.9898 140.358 76.9885 140.36C76.9584 140.385 76.9141 140.383 76.887 140.355ZM78.0038 141.602C77.9789 141.576 77.9797 141.535 78.0056 141.511C78.0073 141.509 78.0086 141.508 78.0103 141.506C78.0357 141.48 78.0774 141.48 78.1032 141.505C78.1045 141.506 78.1053 141.507 78.1066 141.508C78.1328 141.538 78.1316 141.582 78.1032 141.608C78.0739 141.635 78.0296 141.632 78.0038 141.602C78.0043 141.602 78.0038 141.602 78.0038 141.602ZM79.1202 142.853C79.0948 142.824 79.0978 142.781 79.1262 142.756C79.1546 142.731 79.1976 142.733 79.2234 142.761C79.2501 142.788 79.2496 142.832 79.2221 142.858C79.2213 142.859 79.22 142.86 79.2195 142.86C79.1886 142.884 79.146 142.881 79.1202 142.853ZM80.2357 144.105C80.2103 144.075 80.2138 144.031 80.243 144.006C80.243 144.006 80.243 144.006 80.243 144.005C80.2688 143.981 80.3097 143.981 80.3346 144.007C80.3363 144.009 80.3372 144.01 80.3389 144.012C80.3647 144.037 80.3656 144.079 80.3406 144.105C80.3393 144.106 80.3385 144.107 80.3372 144.108C80.3067 144.132 80.2636 144.131 80.2357 144.105ZM81.3529 145.351C81.3275 145.322 81.3306 145.279 81.3594 145.254C81.3878 145.229 81.4308 145.231 81.4557 145.259C81.4811 145.288 81.4798 145.332 81.4523 145.359C81.4213 145.382 81.3787 145.379 81.3529 145.351ZM76.998 152.94C76.9567 152.889 76.9653 152.813 77.0173 152.772C77.0677 152.732 77.1399 152.738 77.1825 152.786C77.2242 152.837 77.219 152.91 77.1704 152.954C77.118 152.996 77.0427 152.99 76.998 152.94ZM79.1873 151.078C79.1443 151.028 79.1503 150.953 79.1998 150.91C79.2492 150.868 79.3245 150.873 79.367 150.922C79.4087 150.972 79.404 151.046 79.355 151.09C79.3055 151.131 79.2311 151.126 79.1873 151.078ZM81.4093 149.235C81.3959 149.229 81.3839 149.22 81.3757 149.209C81.3607 149.193 81.3512 149.172 81.3499 149.15C81.3417 149.11 81.3564 149.068 81.3882 149.042C81.4402 149 81.5155 149.009 81.5572 149.061C81.5972 149.111 81.5907 149.183 81.5426 149.226C81.5047 149.258 81.4501 149.263 81.4093 149.235ZM66.7731 147.091C66.7078 147.083 66.66 147.026 66.6643 146.961C66.6695 146.895 66.7258 146.846 66.7908 146.851C66.8566 146.858 66.9051 146.916 66.8996 146.981C66.8953 147.047 66.8381 147.096 66.7731 147.091ZM69.6419 147.312C69.5765 147.308 69.5271 147.251 69.5318 147.186C69.5365 147.121 69.5933 147.072 69.6582 147.076C69.7236 147.081 69.773 147.138 69.7683 147.203C69.764 147.268 69.7077 147.317 69.6419 147.312ZM72.5093 147.538C72.4435 147.531 72.3949 147.473 72.4005 147.408C72.4078 147.343 72.4663 147.296 72.5308 147.303C72.5958 147.311 72.6426 147.369 72.6353 147.433C72.6293 147.496 72.573 147.543 72.5093 147.538ZM75.3785 147.76C75.3131 147.755 75.2641 147.698 75.2693 147.632C75.2749 147.568 75.3303 147.519 75.3953 147.523C75.4606 147.528 75.5097 147.585 75.5045 147.65C75.4993 147.715 75.4434 147.764 75.3785 147.76ZM78.2459 147.985C78.1801 147.978 78.1315 147.92 78.1371 147.855C78.1436 147.79 78.2012 147.742 78.2666 147.748C78.3307 147.755 78.378 147.811 78.3732 147.875C78.3676 147.941 78.3117 147.99 78.2459 147.985ZM81.1151 148.207C81.0497 148.202 81.0003 148.145 81.0055 148.08C81.0106 148.015 81.0665 147.966 81.1319 147.97C81.1972 147.975 81.2467 148.032 81.2415 148.097C81.2368 148.162 81.1805 148.211 81.1151 148.207ZM72.1842 136.284C72.1425 136.232 72.1485 136.157 72.198 136.112C72.25 136.071 72.3253 136.08 72.367 136.132C72.407 136.182 72.4005 136.254 72.3524 136.296C72.3025 136.337 72.2281 136.332 72.1842 136.284ZM74.054 138.464C74.0127 138.414 74.0179 138.34 74.066 138.296C74.1159 138.253 74.1907 138.259 74.2342 138.308C74.2772 138.358 74.2716 138.433 74.2221 138.476C74.1718 138.518 74.0979 138.512 74.054 138.464ZM75.9229 140.644C75.8812 140.593 75.8859 140.52 75.935 140.476C75.9874 140.434 76.0622 140.44 76.107 140.49C76.1482 140.542 76.1396 140.617 76.0872 140.658C76.0377 140.698 75.9655 140.691 75.9229 140.644ZM77.7927 142.824C77.751 142.773 77.7557 142.7 77.8047 142.656C77.8572 142.615 77.9316 142.621 77.9767 142.67C78.018 142.718 78.012 142.792 77.9634 142.834C77.9626 142.835 77.9613 142.836 77.9613 142.836C77.9157 142.88 77.8434 142.878 77.7996 142.832C77.7974 142.83 77.7953 142.826 77.7927 142.824ZM79.6612 145.008C79.6199 144.956 79.6285 144.881 79.6805 144.839C79.7304 144.8 79.8027 144.806 79.8452 144.853C79.8869 144.904 79.8822 144.977 79.8332 145.021C79.7812 145.063 79.7055 145.057 79.6612 145.008ZM79.8865 153.511C79.8302 153.483 79.807 153.414 79.8341 153.358C79.8349 153.357 79.8358 153.355 79.8362 153.354C79.8646 153.296 79.9338 153.271 79.9927 153.3C79.9936 153.3 79.9944 153.301 79.9949 153.301C80.0525 153.333 80.0757 153.404 80.0473 153.463C80.0172 153.52 79.9467 153.542 79.8891 153.512C79.8878 153.511 79.8874 153.511 79.8865 153.511ZM81.1938 150.956C81.1353 150.926 81.1108 150.857 81.1396 150.799C81.1405 150.797 81.1413 150.796 81.1418 150.794C81.1697 150.738 81.2381 150.715 81.2944 150.742C81.2962 150.743 81.2974 150.744 81.2987 150.744C81.3568 150.774 81.3804 150.844 81.3512 150.902C81.322 150.96 81.2519 150.983 81.1938 150.956ZM74.1598 151.052C74.1391 150.989 74.1731 150.921 74.2368 150.9C74.3 150.88 74.3679 150.914 74.3886 150.977C74.4092 151.04 74.3752 151.108 74.3116 151.128C74.2484 151.147 74.1817 151.113 74.1598 151.052ZM76.8982 150.166C76.8754 150.105 76.9068 150.037 76.9679 150.014C76.9692 150.014 76.97 150.014 76.9709 150.013C77.0341 149.994 77.1012 150.027 77.1223 150.09C77.1433 150.152 77.1102 150.219 77.0474 150.24C77.047 150.24 77.0457 150.241 77.0457 150.241C76.9842 150.261 76.918 150.228 76.8982 150.166ZM79.6349 149.275C79.6139 149.213 79.6474 149.145 79.7102 149.125C79.7106 149.125 79.7115 149.124 79.7119 149.124C79.7708 149.106 79.8328 149.138 79.8521 149.196C79.856 149.198 79.856 149.198 79.8581 149.203C79.8775 149.26 79.8491 149.323 79.7936 149.346L79.7829 149.351C79.7235 149.372 79.6582 149.341 79.6371 149.282C79.6354 149.28 79.6349 149.277 79.6349 149.275ZM69.5142 141.942C69.4578 141.91 69.435 141.84 69.4617 141.781C69.4935 141.724 69.5645 141.703 69.6229 141.732C69.681 141.761 69.7059 141.83 69.6771 141.888C69.6767 141.889 69.6763 141.89 69.6758 141.891C69.6462 141.949 69.5739 141.972 69.5142 141.942C69.5146 141.942 69.5146 141.942 69.5142 141.942ZM72.0814 143.244C72.0221 143.214 71.9989 143.141 72.029 143.083C72.029 143.083 72.029 143.083 72.029 143.083C72.0582 143.026 72.1283 143.003 72.1855 143.033C72.2444 143.062 72.2685 143.132 72.2401 143.19C72.2113 143.249 72.1412 143.273 72.0823 143.245C72.0823 143.245 72.0819 143.244 72.0814 143.244ZM74.644 144.544C74.5859 144.516 74.561 144.447 74.5894 144.388C74.5898 144.388 74.5902 144.387 74.5907 144.386C74.6195 144.327 74.6904 144.301 74.7511 144.33C74.8108 144.358 74.8371 144.429 74.8078 144.49C74.779 144.549 74.7081 144.576 74.6474 144.546C74.6466 144.545 74.6453 144.545 74.644 144.544ZM77.2074 145.844C77.1502 145.814 77.1283 145.742 77.1588 145.684C77.1889 145.629 77.2582 145.607 77.3158 145.634C77.3738 145.663 77.3979 145.733 77.3695 145.792C77.3394 145.851 77.2668 145.875 77.2074 145.844ZM79.7726 147.151C79.7132 147.12 79.6904 147.048 79.7201 146.989C79.7201 146.989 79.7201 146.989 79.7201 146.989C79.7519 146.931 79.8229 146.908 79.8822 146.937C79.9394 146.967 79.9618 147.037 79.9321 147.094C79.9317 147.095 79.9312 147.096 79.9304 147.097C79.9011 147.154 79.831 147.178 79.7726 147.151ZM80.4361 142.852C80.4163 142.791 80.4499 142.725 80.5118 142.704C80.575 142.684 80.6429 142.718 80.6636 142.781C80.6842 142.844 80.6503 142.912 80.5866 142.933C80.523 142.951 80.4563 142.916 80.437 142.853C80.4365 142.853 80.4365 142.852 80.4361 142.852ZM81.328 145.585C81.3069 145.522 81.3404 145.454 81.4037 145.433C81.4669 145.412 81.5348 145.445 81.5559 145.509C81.5559 145.509 81.5563 145.51 81.5563 145.51C81.5761 145.573 81.5413 145.64 81.4785 145.66C81.4772 145.66 81.4768 145.66 81.4755 145.66C81.4144 145.679 81.3486 145.646 81.328 145.585ZM80.7625 153.855C80.7036 153.829 80.6769 153.76 80.7023 153.701C80.7027 153.701 80.7031 153.7 80.7036 153.699C80.7277 153.641 80.7943 153.613 80.8528 153.637C80.8549 153.638 80.8575 153.639 80.8597 153.64C80.9186 153.666 80.9452 153.734 80.9199 153.793C80.9194 153.794 80.919 153.795 80.9186 153.796C80.8906 153.855 80.8214 153.881 80.7625 153.855ZM75.7703 152.384C75.7505 152.323 75.7801 152.256 75.8395 152.23C75.9018 152.209 75.9698 152.241 75.993 152.303C76.0175 152.36 75.9896 152.427 75.9315 152.451C75.9294 152.452 75.9272 152.453 75.9255 152.453C75.8649 152.477 75.7956 152.447 75.772 152.386C75.7711 152.386 75.7711 152.385 75.7703 152.384ZM78.4558 151.386C78.4347 151.324 78.4674 151.256 78.5289 151.233C78.5895 151.211 78.6566 151.243 78.6786 151.304C78.7031 151.362 78.6755 151.428 78.6175 151.452C78.6153 151.453 78.6132 151.455 78.611 151.455C78.5504 151.479 78.4812 151.449 78.4575 151.388C78.4567 151.387 78.4567 151.386 78.4558 151.386ZM81.1413 150.386C81.1198 150.326 81.1517 150.259 81.2132 150.237C81.2712 150.213 81.3374 150.24 81.3615 150.298C81.3624 150.3 81.3637 150.302 81.3637 150.304C81.3878 150.365 81.3576 150.434 81.2966 150.458C81.2957 150.458 81.2949 150.458 81.2944 150.459C81.2325 150.48 81.1646 150.448 81.1413 150.386ZM68.2107 143.42C68.1527 143.391 68.1282 143.321 68.157 143.262C68.1862 143.203 68.2559 143.18 68.3152 143.209C68.3716 143.237 68.3965 143.305 68.3707 143.362C68.3423 143.422 68.2705 143.448 68.2107 143.42ZM70.8167 144.609C70.7569 144.581 70.7311 144.51 70.7595 144.45C70.7879 144.392 70.8567 144.367 70.9156 144.391C70.9754 144.42 71.0021 144.491 70.9767 144.552C70.9474 144.611 70.8773 144.636 70.8167 144.609ZM73.4236 145.798C73.3638 145.769 73.338 145.699 73.3664 145.639C73.393 145.579 73.4631 145.553 73.5225 145.58C73.5818 145.606 73.6081 145.676 73.5814 145.735C73.5539 145.795 73.4846 145.823 73.4236 145.798ZM76.0317 146.983C75.9732 146.959 75.9457 146.893 75.9698 146.834C75.9706 146.832 75.9719 146.83 75.9728 146.828C75.9999 146.769 76.0696 146.743 76.1289 146.769C76.1878 146.796 76.214 146.865 76.1869 146.925C76.1599 146.984 76.0906 147.009 76.0317 146.983ZM78.6381 148.173C78.5792 148.147 78.5526 148.078 78.5779 148.02C78.5784 148.019 78.5788 148.018 78.5792 148.017C78.5844 148.005 78.593 147.994 78.6046 147.987C78.6063 147.983 78.6115 147.981 78.6145 147.973C78.648 147.945 78.6958 147.94 78.7353 147.959C78.7942 147.986 78.8205 148.055 78.7938 148.115C78.7663 148.173 78.697 148.199 78.6381 148.173ZM81.2441 149.362C81.2213 149.352 81.2033 149.334 81.1929 149.311C81.1848 149.307 81.1839 149.298 81.1835 149.289C81.1732 149.262 81.1736 149.232 81.1852 149.206C81.211 149.147 81.2798 149.12 81.3387 149.146C81.3396 149.146 81.3404 149.147 81.3413 149.147L81.3495 149.15C81.3822 149.166 81.405 149.199 81.4093 149.235C81.4131 149.258 81.4097 149.281 81.4002 149.303C81.3744 149.362 81.3056 149.388 81.2467 149.363C81.2458 149.362 81.2454 149.362 81.2441 149.362ZM78.9822 140.515C78.9611 140.453 78.9938 140.385 79.0553 140.362C79.1159 140.34 79.183 140.372 79.2049 140.433C79.2294 140.491 79.2015 140.558 79.1434 140.582C79.1413 140.583 79.1391 140.583 79.1374 140.584C79.0768 140.608 79.0075 140.578 78.9839 140.517C78.983 140.516 78.983 140.515 78.9822 140.515ZM80.0357 143.253C80.0155 143.243 80.0005 143.226 79.9927 143.205C79.9889 143.203 79.9867 143.198 79.9837 143.193C79.9588 143.133 79.988 143.065 80.0478 143.04C80.1015 143.019 80.1635 143.039 80.1931 143.089C80.1996 143.095 80.2043 143.102 80.2065 143.112C80.2176 143.144 80.2159 143.177 80.2004 143.207L80.1966 143.205C80.1867 143.232 80.1656 143.253 80.1389 143.262C80.105 143.275 80.0667 143.272 80.0357 143.253ZM80.9852 145.871C80.9607 145.814 80.9883 145.747 81.0463 145.723C81.0485 145.723 81.0506 145.721 81.0528 145.721C81.0644 145.716 81.0781 145.714 81.0906 145.714C81.1108 145.711 81.1306 145.716 81.1474 145.726C81.1745 145.739 81.196 145.762 81.2071 145.79C81.2282 145.852 81.1955 145.919 81.134 145.943C81.0738 145.964 81.0067 145.932 80.9852 145.871ZM80.6094 151.966C80.5655 151.918 80.5685 151.844 80.6163 151.801C80.661 151.756 80.735 151.756 80.7801 151.801C80.7814 151.802 80.7827 151.803 80.7836 151.805C80.8296 151.851 80.8287 151.926 80.7814 151.972C80.7805 151.973 80.7793 151.974 80.7784 151.975C80.7289 152.018 80.6537 152.014 80.6094 151.966ZM71.2485 149.678C71.184 149.675 71.1336 149.621 71.1367 149.556C71.1367 149.556 71.1367 149.556 71.1367 149.555C71.1384 149.49 71.1917 149.438 71.2571 149.439C71.3229 149.442 71.3745 149.498 71.3727 149.563C71.3693 149.628 71.3143 149.679 71.2485 149.678ZM74.1155 149.779C74.0501 149.777 73.9985 149.724 74.0002 149.659C74.002 149.594 74.0561 149.542 74.1211 149.544C74.1215 149.544 74.1224 149.544 74.1232 149.544C74.1886 149.548 74.2398 149.603 74.2389 149.668C74.2359 149.733 74.1813 149.783 74.1168 149.78C74.1168 149.779 74.1159 149.78 74.1155 149.779ZM76.9773 149.883C76.9111 149.878 76.8612 149.821 76.866 149.755C76.8707 149.692 76.9232 149.643 76.9864 149.643C77.0526 149.646 77.1046 149.701 77.1021 149.768C77.0999 149.834 77.044 149.886 76.9773 149.883ZM79.8431 149.989C79.7769 149.986 79.7248 149.931 79.7274 149.864C79.7296 149.798 79.7855 149.746 79.8521 149.749C79.9166 149.752 79.9669 149.806 79.9639 149.871C79.9639 149.871 79.9639 149.871 79.9639 149.872C79.9618 149.937 79.9084 149.989 79.8431 149.989ZM72.779 139.551C72.7351 139.501 72.739 139.426 72.7875 139.382C72.8357 139.338 72.9097 139.341 72.9527 139.388C72.9978 139.433 72.9983 139.506 72.9535 139.552C72.9523 139.553 72.9514 139.554 72.9497 139.555C72.9028 139.601 72.8271 139.6 72.7815 139.553C72.7807 139.553 72.7798 139.551 72.779 139.551ZM74.7309 141.643C74.687 141.594 74.6909 141.519 74.7395 141.474C74.7876 141.431 74.8616 141.434 74.9046 141.481C74.9497 141.526 74.9502 141.599 74.905 141.645C74.9037 141.646 74.9029 141.647 74.9012 141.648C74.8539 141.694 74.779 141.693 74.7326 141.646C74.7326 141.645 74.7317 141.644 74.7309 141.643ZM76.6836 143.736C76.6398 143.687 76.6436 143.612 76.6922 143.567C76.7404 143.524 76.8139 143.527 76.8574 143.574C76.9025 143.622 76.9008 143.697 76.8531 143.742C76.8053 143.787 76.7301 143.785 76.6849 143.738C76.6845 143.737 76.6841 143.737 76.6836 143.736ZM78.636 145.829C78.5925 145.78 78.5968 145.705 78.6446 145.66C78.6927 145.617 78.7667 145.62 78.8097 145.667C78.8523 145.715 78.851 145.788 78.8067 145.834C78.7585 145.88 78.6829 145.878 78.6368 145.83C78.6364 145.83 78.636 145.83 78.636 145.829ZM80.5879 147.922C80.5445 147.873 80.5488 147.798 80.5965 147.753C80.6451 147.71 80.7186 147.714 80.7616 147.762C80.8046 147.81 80.8016 147.882 80.7547 147.926C80.707 147.968 80.6343 147.967 80.5879 147.922ZM81.1211 141.915C81.1134 141.866 81.1474 141.82 81.1968 141.813C81.2463 141.805 81.2923 141.839 81.3 141.888C81.3078 141.937 81.2738 141.983 81.2243 141.991C81.1749 141.998 81.1293 141.965 81.1211 141.915ZM81.4372 144.044C81.4325 143.997 81.4647 143.954 81.5116 143.945C81.5598 143.937 81.6062 143.969 81.6144 144.017C81.6144 144.019 81.6148 144.02 81.6148 144.021C81.6221 144.069 81.5894 144.114 81.5417 144.12C81.5413 144.12 81.5413 144.12 81.5413 144.12C81.4922 144.129 81.4454 144.096 81.4376 144.047C81.4372 144.046 81.4372 144.045 81.4372 144.044ZM80.618 154.064C80.6206 154.054 80.6257 154.046 80.6322 154.039C80.6601 154 80.713 153.991 80.7522 154.018C80.753 154.018 80.7539 154.02 80.7543 154.02C80.7823 154.037 80.7956 154.072 80.7879 154.103L80.618 154.064ZM77.1997 152.298C77.1919 152.249 77.2259 152.203 77.2754 152.196C77.3244 152.188 77.3708 152.222 77.3781 152.271C77.3854 152.319 77.3528 152.363 77.305 152.37C77.3046 152.37 77.3046 152.37 77.3037 152.371C77.256 152.378 77.21 152.347 77.1997 152.298ZM79.3395 151.981C79.3322 151.933 79.3649 151.889 79.4126 151.882C79.413 151.882 79.413 151.882 79.4139 151.881C79.4625 151.873 79.5094 151.906 79.5167 151.955C79.5167 151.955 79.5167 151.956 79.5171 151.957C79.5236 152.004 79.4909 152.048 79.4436 152.054C79.4419 152.054 79.4406 152.055 79.4388 152.055C79.3928 152.064 79.3481 152.033 79.3399 151.986C79.3404 151.985 79.3399 151.983 79.3395 151.981ZM73.0383 144.504C72.9987 144.475 72.9901 144.419 73.0206 144.379C73.0499 144.341 73.1041 144.332 73.1436 144.36C73.1828 144.386 73.1931 144.439 73.1664 144.478C73.1647 144.48 73.1625 144.483 73.1608 144.485C73.1316 144.524 73.0778 144.532 73.0383 144.504ZM74.7709 145.786C74.7313 145.757 74.7236 145.7 74.7532 145.66C74.7833 145.62 74.8401 145.613 74.8797 145.643C74.9192 145.672 74.9282 145.727 74.899 145.766C74.8981 145.768 74.8973 145.768 74.8969 145.769C74.8663 145.808 74.8108 145.816 74.7709 145.786ZM76.5069 147.071C76.4673 147.041 76.4596 146.984 76.4893 146.945C76.5189 146.905 76.5761 146.898 76.6153 146.928C76.6544 146.958 76.6626 147.014 76.6329 147.053C76.6028 147.092 76.5465 147.1 76.5069 147.071ZM78.2434 148.355C78.2047 148.327 78.1952 148.275 78.2227 148.235C78.2231 148.235 78.2244 148.234 78.2244 148.233C78.252 148.193 78.3079 148.182 78.3474 148.211C78.3479 148.211 78.3479 148.211 78.3483 148.211C78.3887 148.241 78.3982 148.297 78.3698 148.339C78.3405 148.378 78.2855 148.387 78.2459 148.357C78.2451 148.357 78.2438 148.356 78.2434 148.355ZM79.9798 149.64C79.9411 149.611 79.9325 149.556 79.9613 149.518C79.9901 149.479 80.0448 149.471 80.0835 149.499C80.1222 149.528 80.1308 149.582 80.102 149.621C80.074 149.66 80.0207 149.669 79.982 149.642C79.9815 149.64 79.9807 149.64 79.9798 149.64ZM79.0269 153.658C79.0565 153.648 79.0897 153.656 79.112 153.678C79.0828 153.673 79.0548 153.666 79.0269 153.658ZM80.8274 152.678C80.8021 152.636 80.8154 152.581 80.8567 152.557C80.8984 152.531 80.953 152.545 80.9779 152.586C81.0033 152.627 80.99 152.682 80.9487 152.707C80.907 152.732 80.8524 152.72 80.8274 152.678ZM72.1872 148.999C72.1399 148.987 72.1115 148.938 72.1232 148.891C72.1378 148.845 72.1846 148.817 72.2319 148.827C72.2797 148.839 72.3081 148.887 72.296 148.935C72.296 148.936 72.296 148.936 72.296 148.936C72.2857 148.982 72.2397 149.012 72.1932 149.002C72.1915 149 72.1889 149 72.1872 148.999ZM74.2849 149.527C74.2368 149.514 74.2075 149.466 74.217 149.416C74.229 149.369 74.2772 149.341 74.3253 149.353C74.3258 149.353 74.3258 149.353 74.3258 149.353C74.3731 149.362 74.4023 149.408 74.3929 149.454C74.3924 149.455 74.392 149.456 74.392 149.458C74.3817 149.506 74.3352 149.537 74.2866 149.527C74.2866 149.528 74.2854 149.528 74.2849 149.527ZM76.3813 150.049C76.3353 150.039 76.3056 149.993 76.316 149.947C76.3168 149.945 76.3168 149.942 76.3177 149.941C76.3276 149.894 76.3719 149.865 76.4183 149.874C76.42 149.875 76.4213 149.875 76.423 149.875C76.4712 149.889 76.5004 149.937 76.491 149.986C76.4789 150.033 76.4308 150.062 76.3826 150.05C76.3813 150.05 76.3813 150.049 76.3813 150.049ZM78.4751 150.576C78.4274 150.564 78.399 150.516 78.4111 150.468C78.4111 150.467 78.4111 150.467 78.4111 150.467C78.4214 150.421 78.4674 150.392 78.5139 150.402C78.516 150.403 78.5182 150.403 78.5199 150.404C78.5667 150.414 78.596 150.461 78.5852 150.508V150.508C78.5723 150.556 78.5242 150.585 78.4751 150.576ZM80.5716 151.098C80.5346 151.091 80.5066 151.06 80.5036 151.023L80.5053 151.019C80.504 151.008 80.5053 150.998 80.5079 150.989C80.5182 150.943 80.5638 150.914 80.6107 150.924C80.6128 150.925 80.615 150.925 80.6167 150.926C80.6644 150.937 80.6928 150.985 80.6808 151.032C80.6804 151.033 80.6804 151.033 80.6799 151.034C80.6739 151.059 80.6554 151.08 80.6313 151.09C80.6128 151.099 80.5918 151.102 80.5716 151.098ZM77.0057 142.297C76.9804 142.256 76.9924 142.203 77.0328 142.178C77.0337 142.177 77.0345 142.177 77.035 142.176C77.0754 142.15 77.1304 142.161 77.1562 142.201C77.1575 142.203 77.1588 142.205 77.1601 142.207C77.1833 142.25 77.1679 142.305 77.1236 142.329C77.0831 142.35 77.0307 142.337 77.0057 142.297ZM78.1144 144.146C78.0898 144.102 78.1053 144.047 78.1496 144.023C78.1918 143.999 78.2447 144.013 78.2705 144.053C78.2963 144.095 78.2825 144.151 78.2391 144.177C78.1961 144.203 78.1406 144.189 78.1144 144.146ZM79.2277 145.993C79.2023 145.953 79.2144 145.899 79.2548 145.874C79.2557 145.873 79.2565 145.873 79.2574 145.872C79.2991 145.848 79.3528 145.862 79.3786 145.901C79.4053 145.942 79.3933 145.997 79.3533 146.023C79.3516 146.025 79.3494 146.025 79.3481 146.026C79.3073 146.051 79.2539 146.037 79.2294 145.996C79.2286 145.995 79.2286 145.994 79.2277 145.993ZM80.3355 147.842C80.311 147.801 80.3247 147.747 80.3647 147.721C80.4081 147.695 80.4636 147.709 80.4898 147.752C80.5144 147.794 80.5006 147.848 80.4606 147.873C80.4197 147.9 80.3651 147.888 80.3385 147.848C80.3376 147.846 80.3368 147.844 80.3355 147.842ZM80.9827 153.812C80.9736 153.786 80.987 153.759 81.0119 153.748C81.0364 153.739 81.0626 153.751 81.0717 153.775C81.0717 153.776 81.0717 153.776 81.0721 153.777C81.0837 153.8 81.0743 153.828 81.0506 153.84C81.0489 153.841 81.048 153.842 81.0467 153.842C81.0214 153.85 80.9926 153.837 80.9827 153.812ZM76.6965 150.627C76.6712 150.617 76.6591 150.588 76.6682 150.563C76.6785 150.538 76.7069 150.525 76.7322 150.535C76.7576 150.545 76.7705 150.573 76.7606 150.599C76.7598 150.6 76.7593 150.601 76.7589 150.603C76.7469 150.626 76.7198 150.636 76.6965 150.627ZM77.7776 151.092C77.754 151.081 77.7432 151.054 77.7523 151.03C77.7523 151.03 77.7527 151.029 77.7531 151.029C77.7617 151.006 77.7862 150.994 77.8095 151.002C77.8116 151.003 77.8138 151.004 77.8155 151.004C77.8404 151.013 77.8533 151.04 77.8447 151.064C77.8443 151.065 77.8439 151.066 77.843 151.068C77.831 151.092 77.8021 151.101 77.7776 151.092ZM78.863 151.557C78.8381 151.548 78.8248 151.521 78.8338 151.497C78.8342 151.496 78.8347 151.495 78.8355 151.494C78.8476 151.469 78.8768 151.46 78.9017 151.471C78.9258 151.482 78.9366 151.509 78.9263 151.533C78.9159 151.557 78.8871 151.567 78.863 151.557ZM79.9446 152.022C79.9209 152.011 79.9102 151.984 79.9192 151.96C79.9192 151.96 79.9196 151.959 79.9201 151.959C79.9308 151.936 79.9583 151.926 79.9828 151.935C80.0069 151.945 80.0177 151.973 80.0074 151.997C79.997 152.021 79.9691 152.032 79.9446 152.022ZM81.0287 152.49C81.0033 152.478 80.9917 152.449 81.002 152.423C81.0128 152.4 81.0403 152.389 81.0648 152.398C81.0902 152.408 81.1031 152.436 81.094 152.462C81.0841 152.487 81.0558 152.5 81.0304 152.491C81.0295 152.491 81.0291 152.491 81.0287 152.49ZM80.2305 147.147C80.2198 147.124 80.2301 147.097 80.2533 147.087C80.2538 147.087 80.2538 147.087 80.2546 147.086C80.2787 147.075 80.3075 147.085 80.3187 147.109C80.3299 147.133 80.32 147.162 80.2959 147.173C80.2937 147.174 80.2929 147.175 80.2903 147.175C80.2658 147.185 80.2396 147.172 80.2305 147.148C80.2305 147.148 80.2301 147.148 80.2305 147.147ZM80.6636 148.239C80.6541 148.215 80.6666 148.189 80.6907 148.18C80.6907 148.179 80.6911 148.18 80.692 148.179C80.716 148.168 80.7449 148.178 80.756 148.202C80.7672 148.226 80.7573 148.255 80.7332 148.266C80.7311 148.267 80.7298 148.267 80.7277 148.268C80.7036 148.278 80.6752 148.267 80.6653 148.243C80.6649 148.242 80.664 148.24 80.6636 148.239ZM81.1005 149.332C81.091 149.308 81.1035 149.281 81.1276 149.273C81.1276 149.272 81.128 149.273 81.1284 149.272C81.1487 149.262 81.1723 149.27 81.1835 149.289C81.1874 149.291 81.1917 149.292 81.1895 149.296C81.1917 149.301 81.1908 149.305 81.1925 149.31C81.1968 149.332 81.1843 149.353 81.1637 149.361C81.1396 149.371 81.1112 149.359 81.1013 149.335C81.1018 149.335 81.1013 149.334 81.1005 149.332ZM78.0004 153.176C77.9742 153.174 77.9531 153.153 77.9531 153.126C77.9548 153.098 77.9763 153.077 78.0043 153.075C78.0305 153.076 78.0516 153.098 78.0516 153.124C78.0498 153.152 78.0279 153.173 78.0004 153.176ZM79.1817 153.192C79.1555 153.191 79.1344 153.17 79.1344 153.143C79.1327 153.116 79.1533 153.094 79.18 153.092C79.1821 153.092 79.1834 153.092 79.1856 153.092C79.2118 153.093 79.2329 153.115 79.2329 153.141C79.2307 153.169 79.2088 153.19 79.1817 153.192ZM80.3591 153.208C80.3329 153.206 80.3118 153.185 80.3118 153.158C80.314 153.131 80.3355 153.11 80.363 153.107C80.3892 153.109 80.4103 153.13 80.4103 153.157C80.4124 153.182 80.3931 153.206 80.3669 153.208C80.3643 153.208 80.3613 153.208 80.3591 153.208ZM78.5397 148.992C78.5212 148.974 78.5207 148.944 78.5388 148.925C78.5586 148.906 78.59 148.906 78.6093 148.926H78.6098C78.6282 148.943 78.6291 148.973 78.6119 148.992C78.6119 148.992 78.611 148.993 78.6106 148.993C78.5908 149.012 78.5586 149.012 78.5397 148.992ZM79.3619 149.837C79.3425 149.818 79.343 149.786 79.3627 149.767V149.766C79.3821 149.747 79.4139 149.748 79.4333 149.767C79.4526 149.786 79.4522 149.818 79.4328 149.837V149.838C79.413 149.857 79.3812 149.857 79.3619 149.837ZM80.1837 150.682C80.1643 150.662 80.1652 150.63 80.185 150.612C80.2047 150.592 80.2366 150.593 80.2555 150.612C80.2748 150.632 80.2744 150.663 80.255 150.683C80.2357 150.703 80.2039 150.702 80.1841 150.683C80.1837 150.683 80.1841 150.682 80.1837 150.682ZM81.0072 151.524C80.9878 151.504 80.9883 151.473 81.008 151.453V151.453C81.0278 151.435 81.0588 151.436 81.076 151.457C81.0764 151.457 81.0768 151.458 81.0773 151.458C81.0945 151.474 81.0958 151.501 81.0794 151.518C81.0777 151.52 81.076 151.521 81.0734 151.523C81.0579 151.542 81.0295 151.544 81.0115 151.529C81.0106 151.527 81.0089 151.525 81.0072 151.524ZM75.1622 148.846C75.1321 148.814 75.1334 148.763 75.1665 148.733C75.1949 148.703 75.2413 148.702 75.2701 148.73C75.2723 148.732 75.274 148.733 75.2757 148.736C75.3067 148.764 75.3084 148.811 75.2813 148.842C75.2796 148.844 75.2783 148.845 75.2766 148.847C75.2469 148.879 75.197 148.88 75.1656 148.85C75.1648 148.849 75.1635 148.848 75.1622 148.846ZM76.5336 150.237C76.5026 150.209 76.5009 150.162 76.528 150.131C76.5297 150.129 76.531 150.128 76.5327 150.126C76.5624 150.094 76.6123 150.093 76.6436 150.123C76.6449 150.124 76.6462 150.125 76.6475 150.126C76.6789 150.159 76.6785 150.21 76.6471 150.241C76.6161 150.271 76.5671 150.271 76.5366 150.24C76.5357 150.239 76.5348 150.238 76.5336 150.237ZM77.9002 151.629C77.8697 151.597 77.8697 151.546 77.9006 151.515C77.9312 151.483 77.9819 151.482 78.0137 151.512C78.0146 151.513 78.0154 151.514 78.0159 151.515C78.0473 151.547 78.0468 151.598 78.0154 151.629C77.9828 151.66 77.932 151.66 77.9002 151.629ZM79.2681 153.018C79.2393 152.986 79.2393 152.936 79.2686 152.904C79.3012 152.874 79.3511 152.874 79.3834 152.904C79.4152 152.934 79.4161 152.985 79.3855 153.017C79.3847 153.018 79.3838 153.019 79.3834 153.019C79.3507 153.049 79.2991 153.049 79.2681 153.018ZM79.017 147.497C78.9994 147.456 79.0187 147.41 79.0587 147.393C79.0604 147.392 79.0609 147.392 79.0626 147.391C79.1039 147.375 79.1503 147.396 79.1658 147.438C79.1804 147.477 79.1623 147.521 79.1245 147.538C79.0832 147.557 79.0355 147.538 79.017 147.497ZM79.7923 149.346C79.7721 149.338 79.7558 149.323 79.7476 149.302C79.7321 149.26 79.7523 149.213 79.7932 149.196C79.8117 149.19 79.8319 149.19 79.8504 149.196C79.8543 149.198 79.8543 149.198 79.8564 149.203C79.8758 149.209 79.8908 149.223 79.899 149.241C79.9145 149.283 79.8943 149.33 79.8534 149.348C79.8341 149.354 79.813 149.353 79.7923 149.346ZM80.4778 151.11C80.4653 151.079 80.4757 151.043 80.5032 151.023L80.5049 151.019C80.5096 151.012 80.5156 151.007 80.5242 151.005C80.5651 150.987 80.6115 151.006 80.6292 151.047C80.6296 151.048 80.6305 151.049 80.6305 151.05C80.6416 151.09 80.6236 151.134 80.5857 151.153C80.5445 151.169 80.4963 151.15 80.4778 151.11ZM81.2093 152.914C81.1925 152.873 81.2132 152.825 81.2549 152.808C81.2966 152.791 81.3439 152.812 81.3615 152.853C81.3787 152.895 81.3577 152.943 81.3159 152.96C81.2734 152.976 81.2265 152.956 81.2093 152.914Z" fill="white"/>
<defs>
<linearGradient id="paint0_linear" x1="111.966" y1="211.59" x2="129.123" y2="211.59" gradientUnits="userSpaceOnUse">
<stop stop-color="#A1C3FC"/>
<stop offset="1" stop-color="#8AB8FD"/>
</linearGradient>
<linearGradient id="paint1_linear" x1="56.9338" y1="95.5292" x2="63.0812" y2="95.5292" gradientUnits="userSpaceOnUse">
<stop stop-color="#FFBEB6"/>
<stop offset="1" stop-color="#F2A19C"/>
</linearGradient>
<linearGradient id="paint2_linear" x1="63.8154" y1="79.1725" x2="98.8087" y2="79.1725" gradientUnits="userSpaceOnUse">
<stop stop-color="#FFBEB6"/>
<stop offset="1" stop-color="#F2A19C"/>
</linearGradient>
<linearGradient id="paint3_linear" x1="51.8801" y1="116.505" x2="68.5938" y2="116.505" gradientUnits="userSpaceOnUse">
<stop stop-color="#FBB03B"/>
<stop offset="1" stop-color="#F7931E"/>
</linearGradient>
<linearGradient id="paint4_linear" x1="47.0855" y1="186.245" x2="83.4398" y2="186.245" gradientUnits="userSpaceOnUse">
<stop stop-color="#3E8AF8"/>
<stop offset="1" stop-color="#1479F2"/>
</linearGradient>
<linearGradient id="paint5_linear" x1="61.8809" y1="94.8152" x2="88.5371" y2="94.8152" gradientUnits="userSpaceOnUse">
<stop stop-color="#FBB03B"/>
<stop offset="1" stop-color="#F7931E"/>
</linearGradient>
</defs>
</svg>
