<svg width="252" height="214" viewBox="0 0 252 214" fill="none" xmlns="http://www.w3.org/2000/svg">
<path d="M222.023 15.4457H30.0071V132.356H222.023V15.4457Z" fill="white"/>
<path d="M70.3147 35.9928H51.2212V55.0627H70.3147V35.9928Z" fill="#94BAF8"/>
<path d="M70.3147 64.4623H51.2212V83.5321H70.3147V64.4623Z" fill="#D8F7F0"/>
<path d="M39.9709 183.076H77.1714C82.1025 183.076 86.0998 187.068 86.0998 191.993C86.0998 196.918 82.1025 200.91 77.1714 200.91H39.9709C35.0398 200.91 31.0425 196.918 31.0425 191.993C31.0425 187.068 35.0398 183.076 39.9709 183.076Z" fill="url(#paint0_linear)"/>
<path d="M224.274 200.91C232.898 200.91 239.889 193.928 239.889 185.314C239.889 176.701 232.898 169.718 224.274 169.718C215.649 169.718 208.658 176.701 208.658 185.314C208.658 193.928 215.649 200.91 224.274 200.91Z" fill="url(#paint1_linear)"/>
<path d="M13.5138 170.561C19.5023 182.244 33.8395 186.866 45.5368 180.885C55.9282 175.572 60.9254 163.514 57.3336 152.42L13.5138 170.561Z" fill="url(#paint2_linear)"/>
<path d="M190.887 187.95L195.539 200.91L162.7 200.911C162.7 200.911 164.384 197.667 169.997 195.264C175.611 192.862 180.17 187.949 180.17 187.949L190.887 187.95Z" fill="url(#paint3_linear)"/>
<path d="M166.02 187.95L170.672 200.91L137.833 200.911C137.833 200.911 139.517 197.667 145.13 195.264C150.744 192.862 155.983 187.95 155.983 187.95H166.02Z" fill="#428DFC"/>
<path d="M174.828 96.5342C174.828 96.5342 176.144 99.5698 173.671 112.416C174.254 119.16 175.582 125.819 177.632 132.272C180.929 142.318 197.72 171.506 190.887 187.95L180.17 187.948C180.17 187.948 165.759 151.047 163.451 141.001C161.142 130.955 155.812 101.284 153.005 96.007L174.828 96.5342Z" fill="url(#paint4_linear)"/>
<path d="M174.004 95.0518C174.004 95.0518 177.797 101.804 172.025 117.45C166.254 133.095 166.089 137.872 166.419 142.154C166.748 146.436 169.881 151.376 168.892 160.434C167.902 169.493 170.728 170.694 170.069 177.94C169.409 185.186 166.02 187.949 166.02 187.949H155.982C155.982 187.949 149.105 150.553 148.61 139.024C148.115 127.496 157.024 107.129 156.69 95.8752L174.004 95.0518Z" fill="#23286B"/>
<path opacity="0.86" d="M171.407 110.154C171.356 110.11 171.279 110.115 171.235 110.165C171.234 110.166 171.234 110.166 171.234 110.166C171.188 110.218 171.193 110.297 171.245 110.343C171.297 110.389 171.376 110.384 171.422 110.332C171.422 110.332 171.422 110.332 171.423 110.332C171.465 110.278 171.459 110.2 171.407 110.154ZM164.51 119.743C164.441 119.748 164.389 119.806 164.392 119.875C164.396 119.941 164.452 119.992 164.519 119.989C164.521 119.989 164.523 119.988 164.525 119.988C164.594 119.984 164.646 119.925 164.643 119.856C164.637 119.788 164.578 119.737 164.51 119.743ZM164.296 116.735C164.228 116.74 164.177 116.8 164.183 116.867C164.187 116.936 164.247 116.989 164.315 116.985C164.384 116.98 164.437 116.921 164.433 116.852C164.425 116.784 164.366 116.732 164.296 116.735ZM172.135 106.003C172.073 105.981 172.004 106.013 171.982 106.075C171.981 106.077 171.981 106.079 171.98 106.081C171.957 106.144 171.989 106.215 172.052 106.238C172.116 106.262 172.186 106.229 172.21 106.166C172.211 106.163 172.212 106.16 172.212 106.158C172.235 106.096 172.203 106.027 172.14 106.005C172.139 106.004 172.137 106.004 172.135 106.003ZM170.435 116.742C170.406 116.679 170.33 116.651 170.267 116.681C170.203 116.71 170.176 116.786 170.205 116.849C170.235 116.913 170.31 116.94 170.374 116.911C170.375 116.91 170.375 116.91 170.376 116.91C170.438 116.879 170.464 116.805 170.435 116.742ZM169.088 114.045C169.059 113.982 168.983 113.954 168.92 113.984C168.856 114.013 168.828 114.089 168.858 114.152C168.888 114.216 168.963 114.243 169.027 114.214C169.028 114.213 169.028 114.213 169.029 114.212C169.091 114.182 169.117 114.108 169.088 114.045ZM174.289 104.893C174.23 104.878 174.17 104.914 174.156 104.973C174.142 105.032 174.178 105.092 174.237 105.106C174.296 105.12 174.356 105.084 174.37 105.025C174.384 104.966 174.348 104.907 174.289 104.893ZM173.022 115.367C172.99 115.315 172.922 115.299 172.87 115.332C172.818 115.364 172.802 115.432 172.834 115.484C172.835 115.485 172.835 115.485 172.835 115.485C172.868 115.537 172.936 115.552 172.988 115.519C173.039 115.486 173.054 115.419 173.022 115.367ZM171.595 113.087C171.562 113.035 171.494 113.019 171.442 113.052C171.39 113.084 171.375 113.153 171.407 113.205C171.44 113.256 171.508 113.272 171.56 113.24C171.611 113.209 171.628 113.142 171.598 113.091C171.597 113.09 171.596 113.088 171.595 113.087ZM170.168 110.802C170.16 110.783 170.144 110.768 170.124 110.76L170.12 110.759C170.086 110.745 170.047 110.748 170.015 110.767C169.962 110.801 169.946 110.87 169.979 110.924C169.98 110.924 169.98 110.924 169.98 110.925C170.013 110.976 170.081 110.991 170.133 110.959C170.157 110.945 170.174 110.921 170.178 110.894C170.191 110.863 170.187 110.829 170.168 110.802ZM161.774 117.183C161.714 117.169 161.655 117.206 161.642 117.266C161.642 117.266 161.641 117.267 161.641 117.267C161.626 117.325 161.66 117.384 161.717 117.399C161.719 117.399 161.72 117.4 161.722 117.4C161.783 117.413 161.843 117.376 161.86 117.316C161.87 117.256 161.833 117.198 161.774 117.183ZM174.09 108.928C174.041 108.892 173.971 108.903 173.935 108.953C173.935 108.954 173.934 108.955 173.933 108.956C173.897 109.002 173.906 109.068 173.952 109.104C173.953 109.106 173.955 109.107 173.957 109.108C174.005 109.145 174.073 109.137 174.111 109.089C174.112 109.087 174.112 109.086 174.114 109.085C174.149 109.034 174.139 108.965 174.09 108.928ZM171.897 107.365C171.845 107.332 171.777 107.344 171.74 107.393C171.704 107.444 171.716 107.514 171.767 107.549C171.82 107.583 171.89 107.568 171.923 107.516C171.956 107.466 171.944 107.4 171.897 107.365ZM167.503 115.995C167.443 116.008 167.403 116.065 167.412 116.126C167.423 116.186 167.48 116.226 167.54 116.216C167.6 116.206 167.642 116.15 167.634 116.089C167.623 116.027 167.565 115.985 167.503 115.995ZM167.059 113.342C166.999 113.355 166.96 113.413 166.969 113.473C166.98 113.533 167.036 113.573 167.096 113.563C167.155 113.555 167.195 113.501 167.187 113.442C167.187 113.44 167.186 113.438 167.186 113.436C167.176 113.375 167.12 113.334 167.059 113.342ZM157.529 113.783C157.478 113.748 157.41 113.758 157.372 113.807C157.336 113.856 157.347 113.926 157.397 113.962C157.398 113.962 157.399 113.963 157.4 113.964C157.446 114 157.512 113.991 157.548 113.946C157.55 113.944 157.551 113.942 157.552 113.94C157.589 113.892 157.581 113.824 157.533 113.787C157.532 113.786 157.53 113.785 157.529 113.783ZM172.816 108.761C172.792 108.734 172.749 108.732 172.722 108.757C172.695 108.781 172.694 108.823 172.718 108.85C172.743 108.877 172.785 108.879 172.812 108.854C172.838 108.829 172.84 108.788 172.816 108.761ZM171.733 107.603C171.709 107.576 171.666 107.574 171.639 107.599C171.612 107.624 171.611 107.666 171.635 107.693C171.66 107.72 171.702 107.722 171.729 107.697C171.755 107.672 171.757 107.631 171.733 107.603ZM174.065 105.532C174.033 105.517 173.995 105.531 173.98 105.563C173.98 105.564 173.98 105.564 173.98 105.565C173.965 105.599 173.98 105.638 174.012 105.655C174.045 105.668 174.082 105.654 174.098 105.622C174.112 105.588 174.098 105.549 174.065 105.532ZM169.692 109.751C169.682 109.718 169.647 109.7 169.613 109.71C169.612 109.711 169.61 109.712 169.607 109.712C169.574 109.723 169.556 109.76 169.567 109.793C169.568 109.794 169.568 109.796 169.569 109.797C169.583 109.829 169.619 109.846 169.653 109.836C169.687 109.822 169.704 109.785 169.692 109.751ZM173.969 110.324C173.949 110.29 173.904 110.279 173.871 110.3C173.87 110.3 173.87 110.3 173.869 110.301C173.834 110.321 173.822 110.366 173.842 110.4C173.843 110.402 173.844 110.404 173.845 110.405C173.866 110.439 173.91 110.45 173.944 110.43C173.944 110.429 173.945 110.429 173.946 110.428C173.98 110.406 173.991 110.359 173.969 110.324ZM172.991 108.798C172.97 108.764 172.926 108.754 172.893 108.774C172.892 108.775 172.891 108.775 172.891 108.776C172.856 108.798 172.845 108.845 172.868 108.881C172.89 108.915 172.937 108.926 172.972 108.904C173.006 108.882 173.016 108.837 172.994 108.803C172.993 108.802 172.992 108.8 172.991 108.798ZM172.018 107.274C171.995 107.238 171.948 107.227 171.913 107.25C171.877 107.272 171.866 107.319 171.889 107.354C171.889 107.355 171.889 107.355 171.889 107.355C171.889 107.36 171.893 107.36 171.897 107.365C171.922 107.391 171.962 107.397 171.994 107.379C172.029 107.356 172.039 107.309 172.018 107.274ZM174.507 105.953C174.473 105.929 174.426 105.937 174.401 105.97C174.377 106.004 174.385 106.051 174.42 106.074C174.421 106.075 174.421 106.076 174.423 106.076C174.455 106.099 174.501 106.092 174.524 106.059C174.548 106.025 174.54 105.978 174.507 105.953ZM170.21 110.821C170.204 110.781 170.167 110.754 170.127 110.759C170.126 110.759 170.125 110.76 170.124 110.76L170.12 110.759C170.081 110.769 170.056 110.807 170.063 110.846C170.069 110.886 170.106 110.913 170.146 110.907C170.147 110.907 170.148 110.907 170.149 110.907C170.159 110.904 170.169 110.899 170.178 110.893C170.203 110.879 170.216 110.85 170.21 110.821ZM169.804 108.974C169.763 108.984 169.737 109.023 169.742 109.065C169.753 109.105 169.793 109.13 169.833 109.122C169.873 109.114 169.898 109.076 169.891 109.037C169.891 109.036 169.891 109.036 169.89 109.036C169.884 108.995 169.845 108.968 169.804 108.974ZM174.107 104.161C174.049 104.12 173.969 104.133 173.927 104.19C173.886 104.248 173.9 104.329 173.958 104.37C174.015 104.41 174.094 104.397 174.136 104.341C174.176 104.283 174.163 104.203 174.107 104.161ZM172.895 118.27C172.824 118.281 172.775 118.346 172.784 118.417C172.796 118.487 172.862 118.534 172.932 118.522C173.002 118.511 173.05 118.446 173.042 118.376C173.031 118.306 172.965 118.259 172.895 118.27ZM172.41 115.202C172.34 115.213 172.293 115.279 172.304 115.349C172.316 115.419 172.382 115.466 172.452 115.455C172.521 115.443 172.569 115.377 172.557 115.307C172.546 115.238 172.48 115.191 172.41 115.202ZM171.93 112.134C171.86 112.143 171.81 112.207 171.819 112.277C171.827 112.347 171.891 112.396 171.961 112.388C171.963 112.387 171.965 112.387 171.967 112.387C172.037 112.376 172.086 112.311 172.077 112.24C172.065 112.17 172 112.123 171.93 112.134ZM171.445 109.066C171.376 109.077 171.328 109.142 171.338 109.211C171.338 109.212 171.339 109.213 171.339 109.213C171.35 109.283 171.416 109.331 171.486 109.32C171.556 109.309 171.603 109.243 171.592 109.173C171.592 109.173 171.592 109.172 171.592 109.172C171.582 109.103 171.517 109.055 171.448 109.066C171.446 109.066 171.446 109.066 171.445 109.066ZM160.087 115.253C160.044 115.308 160.054 115.387 160.109 115.43C160.109 115.43 160.11 115.431 160.111 115.432C160.17 115.472 160.251 115.46 160.295 115.403L160.087 115.253ZM173.791 106.799C173.754 106.738 173.675 106.718 173.614 106.755C173.613 106.755 173.613 106.756 173.612 106.756C173.552 106.795 173.533 106.874 173.569 106.935C173.609 106.995 173.689 107.012 173.749 106.973C173.807 106.935 173.825 106.859 173.791 106.799ZM166.833 116.631C166.766 116.615 166.697 116.657 166.681 116.725C166.681 116.725 166.681 116.726 166.68 116.727C166.663 116.795 166.703 116.865 166.771 116.884C166.84 116.897 166.908 116.856 166.929 116.788C166.946 116.719 166.903 116.648 166.833 116.631ZM167.562 113.614C167.496 113.596 167.428 113.636 167.411 113.702C167.41 113.704 167.409 113.707 167.409 113.71C167.392 113.777 167.433 113.845 167.5 113.862C167.57 113.879 167.641 113.837 167.657 113.767V113.767C167.675 113.701 167.636 113.633 167.57 113.616C167.568 113.615 167.565 113.614 167.562 113.614ZM174.678 104.852C174.641 104.795 174.565 104.778 174.508 104.815C174.506 104.816 174.504 104.817 174.502 104.819C174.444 104.857 174.427 104.935 174.464 104.994C174.504 105.052 174.583 105.069 174.644 105.032C174.703 104.992 174.719 104.913 174.679 104.854C174.679 104.853 174.678 104.853 174.678 104.852ZM168.713 117.633C168.643 117.619 168.574 117.663 168.559 117.733C168.545 117.803 168.59 117.872 168.66 117.886C168.729 117.901 168.798 117.856 168.813 117.786C168.827 117.717 168.783 117.648 168.713 117.633ZM169.313 114.598C169.242 114.588 169.175 114.633 169.159 114.703C169.148 114.771 169.193 114.837 169.26 114.852C169.33 114.867 169.399 114.822 169.414 114.752C169.426 114.682 169.382 114.614 169.313 114.598ZM169.909 111.567C169.84 111.553 169.773 111.598 169.759 111.667C169.746 111.736 169.791 111.803 169.86 111.816C169.86 111.816 169.86 111.816 169.861 111.816C169.931 111.831 169.999 111.786 170.014 111.716C170.025 111.646 169.979 111.581 169.909 111.567ZM170.51 108.532C170.442 108.518 170.375 108.562 170.361 108.63C170.361 108.631 170.361 108.632 170.36 108.633C170.348 108.702 170.393 108.768 170.461 108.782C170.528 108.797 170.594 108.755 170.609 108.689C170.61 108.686 170.61 108.684 170.611 108.681C170.625 108.613 170.581 108.547 170.513 108.533C170.512 108.532 170.511 108.532 170.51 108.532ZM173.889 109.89C173.82 109.905 173.775 109.973 173.787 110.043C173.8 110.112 173.867 110.157 173.937 110.144C174.006 110.131 174.051 110.064 174.038 109.995C174.038 109.994 174.038 109.993 174.037 109.992C174.025 109.923 173.959 109.877 173.89 109.89C173.89 109.89 173.89 109.89 173.889 109.89ZM173.278 106.859C173.208 106.873 173.163 106.941 173.176 107.011C173.192 107.081 173.261 107.125 173.331 107.109C173.398 107.093 173.442 107.028 173.43 106.961C173.416 106.891 173.348 106.846 173.278 106.859ZM175.103 103.831C175.087 103.782 175.034 103.755 174.985 103.772C174.984 103.772 174.982 103.773 174.98 103.774C174.931 103.793 174.906 103.849 174.926 103.899C174.926 103.9 174.926 103.9 174.927 103.901C174.946 103.95 175 103.974 175.049 103.955C175.049 103.955 175.05 103.954 175.05 103.954C175.098 103.937 175.123 103.885 175.106 103.837C175.104 103.835 175.104 103.833 175.103 103.831ZM168.696 112.322C168.651 112.298 168.595 112.317 168.572 112.362C168.57 112.365 168.569 112.368 168.568 112.371C168.546 112.42 168.569 112.477 168.618 112.499C168.667 112.52 168.724 112.498 168.745 112.449C168.767 112.4 168.744 112.343 168.696 112.322ZM169.615 110.177C169.567 110.155 169.511 110.175 169.488 110.223C169.488 110.224 169.487 110.226 169.487 110.226C169.465 110.276 169.487 110.333 169.536 110.355C169.586 110.377 169.643 110.354 169.665 110.305C169.687 110.256 169.664 110.198 169.615 110.177ZM170.534 108.031C170.485 108.01 170.427 108.032 170.405 108.081C170.383 108.13 170.406 108.188 170.455 108.21C170.504 108.231 170.562 108.209 170.584 108.16C170.604 108.111 170.583 108.054 170.534 108.031ZM173.629 109.782C173.578 109.781 173.536 109.822 173.535 109.874C173.535 109.875 173.535 109.876 173.535 109.877C173.534 109.93 173.576 109.974 173.629 109.976C173.629 109.976 173.629 109.976 173.629 109.976C173.683 109.974 173.727 109.931 173.729 109.877C173.728 109.824 173.684 109.781 173.631 109.782C173.631 109.782 173.63 109.782 173.629 109.782ZM173.661 107.447C173.607 107.449 173.563 107.492 173.561 107.545C173.56 107.596 173.601 107.638 173.652 107.639C173.653 107.639 173.655 107.639 173.656 107.639C173.708 107.642 173.752 107.603 173.755 107.552C173.755 107.55 173.755 107.548 173.755 107.545C173.756 107.492 173.714 107.448 173.661 107.446C173.661 107.447 173.661 107.447 173.661 107.447ZM173.686 105.115C173.634 105.115 173.592 105.158 173.592 105.21V105.21C173.589 105.261 173.628 105.306 173.679 105.309C173.681 105.309 173.684 105.309 173.686 105.309C173.739 105.31 173.784 105.268 173.785 105.215C173.785 105.215 173.785 105.214 173.785 105.214C173.783 105.161 173.74 105.117 173.686 105.115ZM174.243 107.01C174.215 107.004 174.186 107.022 174.179 107.05C174.173 107.079 174.191 107.108 174.22 107.114C174.221 107.115 174.223 107.115 174.224 107.115C174.253 107.119 174.28 107.098 174.284 107.069C174.289 107.042 174.271 107.016 174.243 107.01ZM174.463 105.753C174.434 105.749 174.408 105.767 174.403 105.795C174.402 105.796 174.402 105.798 174.402 105.799C174.395 105.824 174.411 105.851 174.436 105.857C174.438 105.858 174.441 105.858 174.443 105.858C174.47 105.864 174.497 105.846 174.503 105.818C174.503 105.818 174.503 105.817 174.503 105.817C174.507 105.789 174.49 105.762 174.463 105.753ZM174.681 104.501C174.654 104.496 174.627 104.513 174.622 104.541C174.622 104.541 174.622 104.542 174.621 104.543C174.615 104.571 174.633 104.6 174.662 104.607C174.69 104.612 174.717 104.593 174.722 104.565C174.722 104.564 174.722 104.562 174.722 104.561C174.728 104.534 174.71 104.507 174.682 104.502C174.682 104.502 174.682 104.502 174.681 104.501ZM172.764 109.006C172.727 108.981 172.676 108.991 172.651 109.029C172.65 109.03 172.649 109.033 172.648 109.035C172.622 109.07 172.629 109.12 172.665 109.146C172.667 109.148 172.67 109.149 172.672 109.151C172.712 109.177 172.766 109.167 172.792 109.127C172.818 109.088 172.808 109.035 172.769 109.009C172.768 109.008 172.766 109.007 172.764 109.006ZM173.89 107.218C173.849 107.193 173.795 107.205 173.769 107.246C173.743 107.285 173.753 107.338 173.792 107.364C173.794 107.365 173.796 107.366 173.797 107.367C173.835 107.392 173.886 107.381 173.91 107.344C173.912 107.342 173.913 107.34 173.914 107.338C173.941 107.3 173.932 107.247 173.894 107.22C173.893 107.22 173.892 107.218 173.89 107.218ZM175.012 105.433C174.971 105.408 174.916 105.421 174.89 105.462C174.865 105.502 174.876 105.555 174.916 105.581C174.917 105.582 174.918 105.582 174.919 105.583C174.96 105.607 175.015 105.594 175.039 105.552C175.064 105.511 175.051 105.459 175.012 105.433Z" fill="white"/>
<path d="M170.15 147.041L165.105 148.91L98.1743 79.5634L103.22 77.6949L170.15 147.041Z" fill="url(#paint5_linear)"/>
<path d="M175.523 142.005L177.583 137.04L110.723 67.6257L108.663 72.591L175.523 142.005Z" fill="url(#paint6_linear)"/>
<path d="M103.22 77.695L170.15 147.041L175.523 142.005L108.663 72.5911L103.22 77.695Z" fill="#E94A47"/>
<path d="M121.083 103.34C121.083 103.34 122.521 101.604 122.941 100.945C123.361 100.286 124.02 101.544 123.66 102.442C123.301 103.34 123.001 104.298 122.641 104.537C122.641 104.537 126.118 101.544 127.317 100.766C128.516 99.9875 129.954 102.741 129.475 105.256C128.995 107.77 128.185 109.6 127.465 109.899C127.465 109.899 123.6 108.968 121.083 103.34Z" fill="url(#paint7_linear)"/>
<path d="M146.064 99.3218C143.442 99.3367 141.136 99.2026 141.136 99.2026L137.483 95.4089C139.911 94.9867 144.186 92.0177 145.181 91.3078L146.064 99.3218Z" fill="url(#paint8_linear)"/>
<path d="M165.336 95.9256C162.561 96.5047 160.896 97.3491 156.654 100.79C156.531 100.891 156.407 100.992 156.28 101.096C151.761 104.799 146.479 103.073 146.479 103.073L144.257 82.9351C144.257 82.9351 145.409 83.036 150.643 82.0198C151.928 81.8135 153.187 81.4691 154.398 80.9923C156.635 80.0023 157.492 78.2949 158.214 74.032C158.753 70.8488 158.607 66.7503 158.345 63.5559C159.876 63.5025 161.334 62.8879 162.441 61.8298C165.252 63.3646 167.835 65.285 170.113 67.5349C172.462 72.6347 173.442 77.4356 173.723 82.9277C174.209 92.3613 168.194 95.3315 165.336 95.9256Z" fill="url(#paint9_linear)"/>
<path d="M156.751 110.911C154.402 112.327 150.063 114.868 147.197 116.022C143.105 117.677 140.573 118.163 133.948 118.066C127.323 117.969 128.008 110.471 128.008 110.471C129.893 112.438 132.193 112.619 133.17 112.716C134.142 112.813 135.702 112.23 133.364 110.283C131.026 108.337 132.388 106.585 132.582 107.07C132.777 107.556 134.531 108.726 138.137 111.255C141.743 113.784 138.429 113.881 143.008 111.643C146.61 109.884 151.062 103.663 152.79 101.096L156.751 110.911Z" fill="url(#paint10_linear)"/>
<path d="M183.789 100.487C181.751 100.913 179.825 101.257 178.014 101.519C167.824 103.013 161.038 102.176 156.654 100.79C154.922 100.271 153.272 99.5096 151.754 98.5297C150.878 97.9961 150.102 97.3147 149.461 96.5159C151.84 91.9317 153.388 86.3051 154.398 80.9923C155.497 75.0956 156.131 69.122 156.295 63.1263L156.875 63.4065C157.356 63.5204 157.85 63.5709 158.345 63.5559C159.876 63.5025 161.334 62.8879 162.441 61.8298C165.252 63.3646 167.835 65.285 170.113 67.5349C171.468 68.8425 172.722 70.2499 173.865 71.7455C179.083 78.5788 178.141 81.3622 181.002 85.4084C181.01 85.4159 181.014 85.4271 181.021 85.4346C183.879 89.4733 187.766 94.4087 183.789 100.487Z" fill="url(#paint11_linear)"/>
<path d="M178.014 101.519C177.506 101.922 176.961 102.278 176.386 102.58C173.558 104.048 172.047 105.464 168.389 110.687C164.73 115.906 158.663 115.649 158.663 115.649L151.754 98.5297L150.381 95.1298C150.381 95.1298 151.623 94.8982 156.822 92.2829C162.022 89.6713 163.141 88.3712 162.426 81.6537C161.712 74.9361 156.295 63.1263 156.295 63.1263L156.875 63.4065C157.356 63.5204 157.85 63.5709 158.345 63.5559C159.876 63.5025 161.334 62.8879 162.441 61.8298C165.253 63.3646 167.835 65.285 170.113 67.5349C171.468 68.8425 172.722 70.2499 173.865 71.7455C179.084 78.5788 178.141 81.3622 181.003 85.4084C181.01 85.4159 181.014 85.4271 181.021 85.4346C181.137 85.7671 181.253 86.0996 181.365 86.4396C184.096 94.5395 180.823 99.2881 178.014 101.519Z" fill="url(#paint12_linear)"/>
<path d="M160.513 57.7164C160.369 58.479 160.172 59.2307 159.922 59.9656C159.498 61.2093 158.96 62.4112 158.314 63.556C157.829 63.5687 157.345 63.5182 156.874 63.4065L156.305 63.1338C156.301 63.1319 156.297 63.1293 156.294 63.1263C156.381 61.3255 156.354 59.521 156.211 57.7239C156.44 57.7538 156.668 57.7762 156.896 57.7874C158.101 57.8883 159.313 57.8644 160.513 57.7164Z" fill="url(#paint13_linear)"/>
<path d="M160.513 57.7164C158.261 58.0153 153.634 57.9592 152.183 55.8782C150.447 53.3862 151.057 51.0138 150.574 50.8008C150.092 50.5916 149.168 49.893 149.343 49.3587C149.516 48.8282 151.416 47.797 152.299 45.9476C152.381 45.7758 152.463 45.6114 152.553 45.4545L152.557 45.4507C152.574 45.4107 152.594 45.3719 152.617 45.3349C152.626 45.3162 152.637 45.2987 152.65 45.2826C152.655 45.277 152.659 45.2706 152.662 45.2639C152.676 45.2415 152.691 45.2153 152.706 45.1892C152.822 45.0061 152.998 44.7371 153.234 44.4345C153.342 44.2925 153.466 44.1393 153.604 43.9824C153.757 43.8038 153.935 43.6238 154.124 43.4441C154.137 43.431 154.15 43.4183 154.164 43.4056C154.211 43.3611 154.255 43.3167 154.304 43.2726C154.39 43.1941 154.48 43.1194 154.573 43.0447C154.644 42.9849 154.719 42.9288 154.794 42.8765C154.827 42.8504 154.865 42.8242 154.902 42.7981C154.97 42.7495 155.041 42.7009 155.112 42.6561C155.126 42.6449 155.141 42.6348 155.157 42.6262C155.157 42.63 155.153 42.6337 155.153 42.6412C155.101 42.7996 155.062 42.9621 155.037 43.1269C155.026 43.1792 155.018 43.2389 155.011 43.2987C154.985 43.5218 154.979 43.7471 154.992 43.9712C154.992 44.0086 154.996 44.0459 155 44.087C155.003 44.1244 155.007 44.1655 155.011 44.2066C155.018 44.2888 155.029 44.3747 155.044 44.4607C155.044 44.4719 155.048 44.4793 155.048 44.4905C155.066 44.6176 155.092 44.7435 155.123 44.8679C155.13 44.9165 155.145 44.9613 155.157 45.0099C155.157 45.0129 155.158 45.0155 155.16 45.0173C155.183 45.1107 155.213 45.2079 155.246 45.305V45.3125C155.261 45.3611 155.28 45.4096 155.299 45.4582C155.375 45.679 155.465 45.8949 155.568 46.1045C155.602 46.1793 155.643 46.254 155.684 46.3324C155.703 46.3698 155.721 46.4034 155.744 46.4408C155.763 46.4782 155.781 46.5193 155.804 46.5566C155.815 46.5775 155.827 46.5973 155.841 46.6164C155.871 46.6762 155.909 46.7322 155.946 46.792C155.983 46.8518 156.021 46.9115 156.062 46.9713C156.099 47.0311 156.137 47.0909 156.182 47.1507C156.29 47.3076 156.41 47.4645 156.537 47.6251C156.608 47.7148 156.683 47.8045 156.758 47.8979C157.051 48.2397 157.364 48.5651 157.693 48.873L157.906 49.0747C158.565 49.686 159.145 50.376 159.634 51.1296C159.698 51.2529 159.762 51.3799 159.829 51.5107C160.01 51.8679 160.163 52.2389 160.285 52.6203C160.789 54.2728 160.867 56.0254 160.513 57.7164Z" fill="#FFBEB6"/>
<path d="M150.213 47.961C150.3 47.9617 150.388 47.9535 150.475 47.9359C151.071 47.7753 151.531 47.3019 151.674 46.7019C152.162 46.7841 152.514 47.2354 152.773 47.6251C152.597 47.9789 152.503 48.3674 152.5 48.7624C152.485 49.3213 152.657 49.8694 152.99 50.3188C153.282 50.7272 153.747 50.9768 154.249 50.9932C154.352 50.9943 154.455 50.9846 154.556 50.9644C154.94 50.8789 155.283 50.661 155.523 50.3487C155.867 49.9071 156.052 49.3635 156.05 48.8042C156.065 47.5859 155.28 46.585 154.301 46.5734C153.799 46.5782 153.328 46.8166 153.027 47.2178C152.99 47.2631 152.962 47.3157 152.929 47.3643C152.668 46.9107 152.241 46.576 151.738 46.4314C151.758 46.3126 151.769 46.1927 151.77 46.0724C151.783 45.0218 151.104 44.1587 150.258 44.1483H150.257C149.411 44.1397 148.712 44.9855 148.7 46.0365C148.687 47.0875 149.366 47.9505 150.213 47.961ZM152.779 48.7653C152.776 48.2688 152.94 47.7857 153.244 47.3931C153.444 47.1315 153.729 46.9481 154.051 46.8752C154.132 46.8588 154.215 46.851 154.298 46.8521C155.123 46.8618 155.784 47.736 155.771 48.8012C155.774 49.2977 155.61 49.7808 155.306 50.1735C154.906 50.7466 154.116 50.8867 153.542 50.4869C153.412 50.3962 153.299 50.2815 153.211 50.1488C152.916 49.7491 152.764 49.2619 152.779 48.7653ZM148.979 46.0398C148.989 45.1432 149.56 44.4191 150.254 44.4277C150.947 44.4359 151.502 45.1727 151.491 46.0697C151.481 46.9668 150.91 47.6897 150.216 47.6819C149.523 47.6737 148.968 46.9373 148.979 46.0398Z" fill="url(#paint14_linear)"/>
<path d="M176.266 60.1539C175.309 58.0915 173.295 56.6486 172.332 54.6749C171.922 53.5069 171.769 52.2651 171.881 51.0325C172.076 47.2441 170.767 45.122 170.329 44.5279C170.323 44.5156 170.316 44.5044 170.307 44.4943C169.215 42.5874 167.436 41.1692 165.331 40.5303C160.476 39.0508 153.963 38.7407 152.553 45.4545C153.195 44.3247 154.087 43.3563 155.16 42.6225C155.113 42.7488 154.154 45.3032 157.338 48.5263C157.914 49.4731 158.518 50.4168 159.013 51.4095C161.235 55.8667 159.423 60.6145 155.819 63.6938C155.682 63.8111 155.881 64.0088 156.017 63.8918C158.84 61.4802 160.777 57.9854 160.216 54.1787C159.95 52.3734 159.037 50.8084 158.094 49.2668C158.677 49.8273 159.194 50.4523 159.634 51.13C159.698 51.2533 159.762 51.3804 159.829 51.5111C160.01 51.8683 160.163 52.2393 160.285 52.6207C161.104 55.1015 160.667 57.7654 159.922 59.9659C159.35 61.6517 158.567 63.2582 157.592 64.7482C168.025 67.9687 175.488 66.4219 175.488 66.4219C176.475 64.2004 176.462 61.6633 175.452 59.4518C176.743 61.4522 177.027 63.9389 176.22 66.1783C176.162 66.3494 176.433 66.4227 176.491 66.2527C177.215 64.2681 177.135 62.0795 176.266 60.1539Z" fill="#23286B"/>
<path d="M98.1743 79.5633L87.2764 56.7211L110.723 67.6257L108.663 72.5909L103.22 77.6948L98.1743 79.5633Z" fill="#EFE6BD"/>
<defs>
<linearGradient id="paint0_linear" x1="62.8771" y1="199.331" x2="41.7241" y2="163.192" gradientUnits="userSpaceOnUse">
<stop stop-color="#A1C3FC"/>
<stop offset="0.6955" stop-color="#81AEF2"/>
<stop offset="1" stop-color="#78A9EF"/>
</linearGradient>
<linearGradient id="paint1_linear" x1="225.434" y1="171.588" x2="222.283" y2="208.962" gradientUnits="userSpaceOnUse">
<stop stop-color="#A1C3FC"/>
<stop offset="0.6955" stop-color="#81AEF2"/>
<stop offset="1" stop-color="#78A9EF"/>
</linearGradient>
<linearGradient id="paint2_linear" x1="22.958" y1="156.537" x2="89.32" y2="194.768" gradientUnits="userSpaceOnUse">
<stop stop-color="#23286B"/>
<stop offset="1" stop-color="#151A4F"/>
</linearGradient>
<linearGradient id="paint3_linear" x1="206.474" y1="191.362" x2="156.699" y2="199.581" gradientUnits="userSpaceOnUse">
<stop stop-color="#3E8AF8"/>
<stop offset="1" stop-color="#1479F2"/>
</linearGradient>
<linearGradient id="paint4_linear" x1="204.62" y1="156.599" x2="160.033" y2="132.936" gradientUnits="userSpaceOnUse">
<stop stop-color="#23286B"/>
<stop offset="1" stop-color="#151A4F"/>
</linearGradient>
<linearGradient id="paint5_linear" x1="124.724" y1="120.122" x2="147.375" y2="103.716" gradientUnits="userSpaceOnUse">
<stop stop-color="#E94A47"/>
<stop offset="0.8098" stop-color="#C63030"/>
</linearGradient>
<linearGradient id="paint6_linear" x1="151.066" y1="98.3166" x2="128.419" y2="116.892" gradientUnits="userSpaceOnUse">
<stop stop-color="#E94A47"/>
<stop offset="0.8098" stop-color="#C63030"/>
</linearGradient>
<linearGradient id="paint7_linear" x1="121.082" y1="105.265" x2="129.569" y2="105.265" gradientUnits="userSpaceOnUse">
<stop stop-color="#FFBEB6"/>
<stop offset="1" stop-color="#F2A19C"/>
</linearGradient>
<linearGradient id="paint8_linear" x1="137.483" y1="95.3154" x2="146.064" y2="95.3154" gradientUnits="userSpaceOnUse">
<stop stop-color="#FFBEB6"/>
<stop offset="1" stop-color="#F2A19C"/>
</linearGradient>
<linearGradient id="paint9_linear" x1="156.031" y1="77.3393" x2="164.471" y2="104.85" gradientUnits="userSpaceOnUse">
<stop offset="0.1291" stop-color="#428DFC"/>
<stop offset="0.9987" stop-color="#1D72D8"/>
</linearGradient>
<linearGradient id="paint10_linear" x1="130.925" y1="122.68" x2="149.761" y2="102.916" gradientUnits="userSpaceOnUse">
<stop stop-color="#FFBEB6"/>
<stop offset="1" stop-color="#F2A19C"/>
</linearGradient>
<linearGradient id="paint11_linear" x1="160.211" y1="69.8566" x2="167.1" y2="93.9968" gradientUnits="userSpaceOnUse">
<stop offset="0.1291" stop-color="#428DFC"/>
<stop offset="0.9987" stop-color="#1D72D8"/>
</linearGradient>
<linearGradient id="paint12_linear" x1="165.79" y1="90.5349" x2="190.733" y2="165.368" gradientUnits="userSpaceOnUse">
<stop offset="0.1291" stop-color="#428DFC"/>
<stop offset="0.9987" stop-color="#1D72D8"/>
</linearGradient>
<linearGradient id="paint13_linear" x1="155.969" y1="69.2554" x2="158.409" y2="57.4728" gradientUnits="userSpaceOnUse">
<stop stop-color="#FFBEB6"/>
<stop offset="1" stop-color="#F2A19C"/>
</linearGradient>
<linearGradient id="paint14_linear" x1="156.142" y1="48.9857" x2="148.494" y2="46.2035" gradientUnits="userSpaceOnUse">
<stop stop-color="#28306D"/>
<stop offset="0.51" stop-color="#1F275F"/>
<stop offset="1" stop-color="#171F51"/>
</linearGradient>
</defs>
</svg>
