<svg width="116" height="85" viewBox="0 0 116 85" fill="none" xmlns="http://www.w3.org/2000/svg">
<path d="M57.9592 65.5373C87.2082 65.5373 110.919 50.8663 110.919 32.7687C110.919 14.671 87.2082 0 57.9592 0C28.7102 0 4.99915 14.671 4.99915 32.7687C4.99915 50.8663 28.7102 65.5373 57.9592 65.5373Z" fill="url(#paint0_linear)"/>
<path d="M22.8877 23.1121L16.266 18.3075L21.067 11.6808L27.6892 16.4854L22.8877 23.1121Z" fill="#FBB03B"/>
<path d="M87.5702 22.3044L80.9485 17.4998L85.7495 10.873L92.3717 15.6776L87.5702 22.3044Z" fill="white"/>
<path d="M33.7198 28.0523L30.8096 20.4023L38.454 17.49L41.3642 25.14L33.7198 28.0523Z" fill="#D6D7D8"/>
<path d="M39.852 9.76804L45.4516 3.80225L51.413 9.40528L45.814 15.3711L39.852 9.76804Z" fill="#23286B"/>
<path d="M53.6648 19.7441L61.2874 22.7103L58.3234 30.3385L50.7008 27.3723L53.6648 19.7441Z" fill="#78A9EF"/>
<path d="M61.9658 85H54.0342L52.7122 34.1997H63.2882L61.9658 85Z" fill="#EEEEEE"/>
<path d="M69.8979 85H61.9658L63.2882 34.1997H73.8642L69.8979 85Z" fill="#D6D7D8"/>
<path d="M77.7942 85H69.8631L73.8284 34.1997H84.4039L77.7942 85Z" fill="#EEEEEE"/>
<path d="M85.7263 85H77.7942L84.4039 34.1997H94.9803L85.7263 85Z" fill="#D6D7D8"/>
<path d="M93.5262 85H85.5941L94.8476 34.1997H105.424L93.5262 85Z" fill="#EEEEEE"/>
<path d="M101.458 85H93.5262L105.424 34.1997H116L101.458 85Z" fill="#D6D7D8"/>
<path d="M46.1021 85H54.0342L52.7122 34.1997H42.1358L46.1021 85Z" fill="#D6D7D8"/>
<path d="M38.2058 85H46.1383L42.1716 34.1997H31.5961L38.2058 85Z" fill="#EEEEEE"/>
<path d="M30.2737 85H38.2057L31.5961 34.1997H21.0197L30.2737 85Z" fill="#D6D7D8"/>
<path d="M22.4739 85H30.406L21.1524 34.1997H10.576L22.4739 85Z" fill="#EEEEEE"/>
<path d="M14.5422 85H22.4738L10.576 34.1997H0L14.5422 85Z" fill="#D6D7D8"/>
<path d="M63.2451 10.1577L77.7984 24.114" stroke="#A1C3FC" stroke-width="2.9593" stroke-miterlimit="10"/>
<defs>
<linearGradient id="paint0_linear" x1="4.9991" y1="32.7688" x2="110.919" y2="32.7688" gradientUnits="userSpaceOnUse">
<stop offset="0.0054" stop-color="#E94A47"/>
<stop offset="1" stop-color="#D62929"/>
</linearGradient>
</defs>
</svg>
