<svg width="456" height="456" viewBox="0 0 456 456" fill="none" xmlns="http://www.w3.org/2000/svg">
<path d="M339.568 224.048H257.792V235.296H339.568V224.048Z" fill="#D2E2FE"/>
<path d="M408.576 408.88H402.485V241.065H257.792V234.992H408.576V408.88Z" fill="url(#paint0_linear)"/>
<path d="M53.9362 405.84H58.2218L68.2187 295.192H63.9823L63.9468 295.064L53.9362 405.84Z" fill="url(#paint1_linear)"/>
<path d="M101.565 352.775H105.85L115.847 242.128H111.611L111.575 242L101.565 352.775Z" fill="url(#paint2_linear)"/>
<path d="M174.007 352.775H169.721L159.725 242.128H163.96L163.996 242L174.007 352.775Z" fill="url(#paint3_linear)"/>
<path d="M219.792 405.84H215.506L205.51 295.192H209.746L209.781 295.064L219.792 405.84Z" fill="url(#paint4_linear)"/>
<path d="M163.997 295.181L63.9801 295.194L60.9118 285.041H163.997V295.181Z" fill="url(#paint5_linear)"/>
<path d="M60.9118 285.041H117.704L87.8002 189.088H31.008L60.9118 285.041Z" fill="url(#paint6_linear)"/>
<path d="M163.997 295.18L209.826 295.273V285.008L163.997 285.041V295.18Z" fill="url(#paint7_linear)"/>
<path d="M377.353 81.3439C360.353 81.3439 346.571 67.5627 346.571 50.5626C346.571 37.7818 354.361 26.8225 365.452 22.1686C359.886 20.4667 353.977 19.5479 347.854 19.5479C314.664 19.5479 287.758 46.4539 287.758 79.6441C287.758 112.834 314.664 139.741 347.854 139.741C381.044 139.741 407.95 112.835 407.95 79.6447C407.95 73.8186 407.118 68.1876 405.572 62.8607C400.825 73.738 389.979 81.3439 377.353 81.3439Z" fill="#E7F0FE"/>
<path opacity="0.44" d="M405.572 62.8604C407.216 59.0931 408.133 54.9358 408.133 50.5625C408.133 33.5625 394.352 19.7812 377.352 19.7812C373.133 19.7812 369.113 20.6319 365.452 22.1685C384.76 28.0731 399.933 43.4377 405.572 62.8604Z" fill="#B0CDFC"/>
<path d="M346.572 50.5632C346.572 67.5633 360.353 81.3445 377.353 81.3445C389.979 81.3445 400.825 73.7385 405.572 62.861C399.933 43.4379 384.76 28.0734 365.452 22.1689C354.362 26.8226 346.572 37.7824 346.572 50.5632Z" fill="#B0CDFC"/>
<path opacity="0.44" d="M346.572 50.5632C346.572 67.5633 360.353 81.3445 377.353 81.3445C389.979 81.3445 400.825 73.7385 405.572 62.861C399.933 43.4379 384.76 28.0734 365.452 22.1689C354.362 26.8226 346.572 37.7824 346.572 50.5632Z" fill="#BBD4FD"/>
<path d="M358.805 54.1904H330.631V82.3643H358.805V54.1904Z" fill="#1D72D8"/>
<g opacity="0.47">
<path opacity="0.47" d="M383.366 81.1152H391.28C390.82 81.2604 390.36 81.3815 389.876 81.4543H384.794C384.309 81.3572 383.85 81.2359 383.366 81.1152ZM381.575 80.4129H393.071C393.313 80.3161 393.531 80.1952 393.748 80.0739H380.921C381.115 80.1952 381.357 80.3165 381.575 80.4129ZM379.905 79.3726H394.886C395.055 79.2517 395.2 79.1549 395.37 79.0335H379.542C379.663 79.1544 379.784 79.2758 379.905 79.3726ZM379.009 78.3559H396.217C396.338 78.235 396.483 78.1382 396.604 78.0169H378.84C378.888 78.1139 378.936 78.235 379.009 78.3559ZM378.525 77.3152H397.282C397.379 77.1943 397.476 77.0975 397.597 76.9762H378.428C378.453 77.0975 378.501 77.1943 378.525 77.3152ZM378.259 76.2744H398.153C398.25 76.1535 398.323 76.0567 398.395 75.9354H378.211C378.235 76.0567 378.259 76.1778 378.259 76.2744ZM378.138 75.258H398.855C398.927 75.1371 399 75.0403 399.049 74.919H378.089C378.114 75.016 378.114 75.1371 378.138 75.258ZM378.089 74.2172H399.436C399.484 74.0963 399.557 73.9995 399.605 73.8782H378.089C378.089 73.9995 378.089 74.0966 378.089 74.2172ZM378.283 73.0558C378.259 73.104 378.259 73.1283 378.235 73.1767H399.896C399.944 73.0558 399.993 72.959 400.017 72.8377H378.428C378.38 72.9106 378.331 72.9831 378.283 73.0558ZM379.687 72.0389C379.614 72.0871 379.542 72.1115 379.469 72.1358H400.235C400.259 72.0149 400.283 71.9181 400.332 71.7967H380.099C379.977 71.8937 379.832 71.9665 379.687 72.0389ZM381.018 71.1195H400.476C400.501 70.9986 400.525 70.9018 400.525 70.7805H381.356C381.26 70.9018 381.139 71.0225 381.018 71.1195ZM381.962 70.1031H400.646C400.646 69.9822 400.671 69.8854 400.671 69.7641H382.204C382.131 69.8611 382.059 69.9818 381.962 70.1031ZM382.615 69.0623H400.694C400.694 68.9414 400.694 68.8446 400.694 68.7233H382.785C382.736 68.8203 382.664 68.9412 382.615 69.0623ZM383.051 68.0216H400.646C400.646 67.9007 400.622 67.8039 400.598 67.6826H383.148C383.124 67.8039 383.075 67.9248 383.051 68.0216ZM383.317 67.0052H400.476C400.452 66.8843 400.428 66.7632 400.404 66.6661H383.366C383.341 66.7632 383.317 66.8841 383.317 67.0052ZM383.414 65.9644H400.186C400.138 65.8435 400.114 65.7224 400.065 65.6254H383.414C383.414 65.7224 383.414 65.8433 383.414 65.9644ZM399.557 64.5849H383.293C383.318 64.7058 383.341 64.8026 383.341 64.9239H399.727C399.678 64.8269 399.605 64.7058 399.557 64.5849ZM398.879 63.5684H383.027C383.051 63.6893 383.099 63.7861 383.124 63.9074H399.121C399.049 63.7861 398.976 63.6654 398.879 63.5684ZM397.96 62.5277H382.857C382.857 62.6486 382.857 62.7454 382.881 62.8667H398.323C398.178 62.7454 398.057 62.6247 397.96 62.5277ZM396.677 61.5596C396.629 61.5353 396.604 61.5114 396.556 61.4871H383.172C383.1 61.5839 383.027 61.7048 382.978 61.8262H397.088C396.943 61.753 396.822 61.6321 396.677 61.5596ZM393.627 60.4707H384.987C384.648 60.5432 384.334 60.6645 384.019 60.8097H394.958C394.523 60.6641 394.087 60.5432 393.627 60.4707Z" fill="#428DFC"/>
</g>
<path d="M401.622 110.111L397.141 104.276C396.257 104.506 395.428 104.871 394.684 105.41L399.529 111.718C399.801 112.072 399.734 112.579 399.38 112.85C399.027 113.122 398.519 113.056 398.248 112.702L393.494 106.511C392.87 107.241 392.403 108.091 392.095 109.022L396.106 114.245C396.378 114.599 396.311 115.106 395.957 115.377C395.604 115.649 395.096 115.583 394.825 115.229L391.674 111.127C391.456 113.846 392.356 116.921 394.398 119.58C394.446 119.642 394.494 119.703 394.543 119.764C394.079 120.267 393.638 120.793 393.23 121.348C392.086 122.905 390.75 125.358 390.886 128.198L391.692 128.16C391.568 125.557 392.814 123.279 393.881 121.826C394.249 121.326 394.648 120.848 395.067 120.388C397.022 122.583 399.491 123.993 401.901 124.444L398.908 120.546C398.636 120.192 398.703 119.685 399.057 119.414C399.41 119.142 399.918 119.208 400.189 119.562L404.047 124.585C405.024 124.526 405.96 124.287 406.813 123.856L402.331 118.019C402.059 117.666 402.126 117.158 402.479 116.887C402.833 116.615 403.34 116.682 403.612 117.036L408.156 122.952C408.836 122.355 409.376 121.611 409.807 120.77L405.704 115.429C405.432 115.075 405.499 114.568 405.853 114.296C406.206 114.024 406.714 114.091 406.985 114.445L410.511 119.036C410.852 117.971 411.081 116.822 411.242 115.656L409.029 112.774C408.757 112.42 408.823 111.913 409.177 111.641C409.531 111.369 410.038 111.436 410.309 111.79L411.488 113.325C411.749 110.04 411.708 106.995 412.397 105.756C410.626 105.927 407.763 105.078 404.7 104.486L406.226 106.473C406.497 106.826 406.431 107.334 406.077 107.605C405.723 107.877 405.216 107.81 404.945 107.457L402.373 104.109C401.214 103.965 400.058 103.902 398.952 103.986L402.901 109.128C403.173 109.482 403.106 109.989 402.753 110.26C402.4 110.531 401.893 110.464 401.622 110.111Z" fill="#D6D7D8"/>
<path d="M352.209 37.2334L354.557 36.6978L354.021 34.3495L351.673 34.8851L352.209 37.2334Z" fill="#79AEFD"/>
<path d="M338.798 70.9351L341.178 71.4062L341.649 69.026L339.269 68.5548L338.798 70.9351Z" fill="#A1C3FC"/>
<path d="M321.561 26.9712L331.521 29.3271L321.058 34.0929L324.388 30.1319L321.561 26.9712Z" fill="white"/>
<path d="M317.959 31.9495C317.884 31.9495 317.814 31.9038 317.787 31.8298C317.751 31.7345 317.799 31.6283 317.895 31.5926C321.3 30.3175 323.037 29.7849 326.559 29.6522C326.669 29.6422 326.747 29.7278 326.751 29.8289C326.755 29.9305 326.675 30.0161 326.574 30.0201C323.105 30.1509 321.39 30.6773 318.024 31.9377C318.002 31.9458 317.98 31.9495 317.959 31.9495Z" fill="white"/>
<path d="M303.152 111.046L304.869 98.3691L312.074 110.804L306.74 107.144L303.152 111.046Z" fill="white"/>
<path d="M309.746 115.128C309.678 115.128 309.612 115.09 309.581 115.025C307.582 110.948 306.709 108.854 306.115 104.495C306.102 104.395 306.173 104.302 306.273 104.288C306.375 104.271 306.467 104.345 306.48 104.446C307.066 108.751 307.931 110.824 309.911 114.863C309.956 114.954 309.919 115.064 309.827 115.109C309.801 115.122 309.773 115.128 309.746 115.128Z" fill="white"/>
<path d="M361.301 40.139L360.028 45.0947L357.746 39.8188L359.694 41.5216L361.301 40.139Z" fill="white"/>
<path d="M359.621 42.8472C359.521 42.8472 359.439 42.7669 359.437 42.6663C359.435 42.5496 359.435 42.3958 359.434 42.2114C359.405 34.5628 357.778 30.3228 354.595 29.6082C354.496 29.5858 354.434 29.4873 354.456 29.3882C354.479 29.2887 354.576 29.2272 354.676 29.249C358.049 30.006 359.773 34.3667 359.802 42.2103C359.803 42.3931 359.803 42.5444 359.806 42.6601C359.808 42.7617 359.727 42.8458 359.625 42.8477C359.623 42.8472 359.622 42.8472 359.621 42.8472Z" fill="white"/>
<path d="M380.445 63.7939H376.953V67.2853H380.445V63.7939Z" fill="#1D72D8"/>
<path d="M384.691 53.2839H372.807C372.807 49.8495 375.592 47.0654 379.026 47.0654C382.46 47.0654 385.244 49.8497 385.244 53.2839H384.691Z" fill="white"/>
<path d="M386.534 53.2838H383.955C383.955 50.5658 381.744 48.3547 379.026 48.3547C376.308 48.3547 374.097 50.5658 374.097 53.2838H371.518C371.518 49.1436 374.886 45.7759 379.026 45.7759C383.166 45.7759 386.534 49.1439 386.534 53.2838Z" fill="#D62929"/>
<path d="M379.77 61.9024H377.191V55.5947H385.245V58.1733H379.77V61.9024Z" fill="#D62929"/>
<path d="M288.766 35.2148V37.464L291.91 35.2148H288.766Z" fill="#1D72D8"/>
<path d="M295.436 35.2148L288.766 39.9857V43.0676L299.745 35.2148H295.436Z" fill="#1D72D8"/>
<path d="M305.515 35.2148H303.27L288.766 45.5893V48.6712L305.515 36.691V35.2148Z" fill="#1D72D8"/>
<path d="M305.515 39.2129L288.766 51.1931V51.9642H291.997L305.515 42.2948V39.2129Z" fill="#1D72D8"/>
<path d="M305.515 44.8164L295.522 51.9641H299.831L305.515 47.8985V44.8164Z" fill="#1D72D8"/>
<path d="M305.515 50.4199L303.356 51.9638H305.515V50.4199Z" fill="#1D72D8"/>
<path d="M397.074 76.1491C398.44 76.1491 399.548 75.0417 399.548 73.6756C399.548 72.3096 398.44 71.2021 397.074 71.2021C395.708 71.2021 394.601 72.3096 394.601 73.6756C394.601 75.0417 395.708 76.1491 397.074 76.1491Z" fill="white"/>
<path d="M397.074 85.1696C398.44 85.1696 399.548 84.0622 399.548 82.6961C399.548 81.3301 398.44 80.2227 397.074 80.2227C395.708 80.2227 394.601 81.3301 394.601 82.6961C394.601 84.0622 395.708 85.1696 397.074 85.1696Z" fill="white"/>
<path d="M365.984 56.7446L346.943 60.2894C346.824 60.9186 346.76 61.5669 346.76 62.2309C346.76 62.7944 346.806 63.347 346.892 63.8865L367.326 60.0825C367.074 58.8797 366.613 57.7546 365.984 56.7446Z" fill="#A1C3FC"/>
<path d="M357.298 51.8389L353.269 52.589C351.07 53.476 349.244 55.0926 348.092 57.1402L363.78 54.2199C362.015 52.7587 359.76 51.8721 357.298 51.8389Z" fill="#A1C3FC"/>
<path d="M363.839 70.189L353.779 72.0619C354.838 72.4254 355.973 72.6255 357.155 72.6255C359.701 72.6253 362.032 71.7085 363.839 70.189Z" fill="#A1C3FC"/>
<path d="M367.52 62.981L347.75 66.6612C348.315 67.8569 349.101 68.9267 350.055 69.8193L366.515 66.755C367.074 65.6005 367.424 64.3258 367.52 62.981Z" fill="#A1C3FC"/>
<path d="M379.645 114.421L371.085 118.094L376.154 108.94L375.864 113.641L379.645 114.421Z" fill="white"/>
<path d="M374.29 115.389L374.131 115.056C375.328 114.488 376.29 113.49 377.221 112.526C378.249 111.461 379.31 110.361 380.705 109.801C381.634 109.428 382.638 109.327 383.609 109.229C384.073 109.183 384.552 109.135 385.013 109.057C385.818 108.922 387.753 108.443 388.355 106.912C388.64 106.187 388.57 105.39 388.497 104.546C388.417 103.626 388.335 102.675 388.757 101.831C389.607 100.135 391.663 100.047 393.652 99.9623C395.613 99.8784 397.465 99.7994 398.256 98.3299C398.623 97.6496 398.618 96.86 398.613 96.0237C398.608 95.2326 398.603 94.4146 398.937 93.68C399.697 92.0053 401.814 91.5695 403.009 91.4594C403.348 91.428 403.691 91.4074 404.035 91.3871C405.231 91.3164 406.467 91.2423 407.501 90.6772L407.677 91.0003C406.571 91.6056 405.293 91.6814 404.057 91.7548C403.717 91.7753 403.377 91.7953 403.042 91.8262C401.928 91.9295 399.955 92.3269 399.272 93.8325C398.972 94.4933 398.977 95.2357 398.981 96.0216C398.987 96.8671 398.992 97.7412 398.581 98.5046C397.691 100.158 395.646 100.246 393.668 100.33C391.699 100.414 389.839 100.493 389.087 101.996C388.71 102.747 388.785 103.605 388.864 104.513C388.938 105.363 389.015 106.24 388.698 107.046C388.226 108.248 386.905 109.113 385.074 109.42C384.601 109.499 384.116 109.548 383.646 109.595C382.701 109.691 381.723 109.789 380.843 110.142C379.521 110.673 378.533 111.697 377.487 112.78C376.533 113.769 375.546 114.792 374.29 115.389Z" fill="white"/>
<path d="M405.734 25.6942L403.905 24.1284L402.339 25.9574L404.168 27.5232L405.734 25.6942Z" fill="white"/>
<path d="M299.965 84.297H298.491V71.9375H334.801V73.4109H299.965V84.297Z" fill="#78A9EF"/>
<path d="M305.92 72.6738V73.0262" stroke="#78A9EF" stroke-width="2.73333" stroke-miterlimit="10"/>
<path d="M305.163 73.2393L304.559 72.8169L299.629 79.863L300.233 80.2854L305.163 73.2393Z" fill="#78A9EF"/>
<path d="M309.037 73.2393L308.433 72.8169L303.503 79.863L304.107 80.2854L309.037 73.2393Z" fill="#78A9EF"/>
<path d="M312.713 73.2388L312.109 72.8164L304.406 83.826L305.01 84.2484L312.713 73.2388Z" fill="#78A9EF"/>
<path d="M316.565 73.2388L315.962 72.8164L307.951 84.2662L308.554 84.6886L316.565 73.2388Z" fill="#78A9EF"/>
<path d="M320.66 73.2398L320.056 72.8174L315.126 79.8635L315.73 80.2859L320.66 73.2398Z" fill="#78A9EF"/>
<path d="M324.535 73.2398L323.931 72.8174L319.001 79.8635L319.605 80.2859L324.535 73.2398Z" fill="#78A9EF"/>
<path d="M328.409 73.2398L327.805 72.8174L322.875 79.8635L323.479 80.2859L328.409 73.2398Z" fill="#78A9EF"/>
<path d="M341.435 38.4925L340.841 38.0571L338.613 41.0988L339.207 41.5342L341.435 38.4925Z" fill="#78A9EF"/>
<path d="M344.025 40.0318L343.421 39.6094L338.726 46.3198L339.33 46.7423L344.025 40.0318Z" fill="#78A9EF"/>
<path d="M345.343 43.6827L344.74 43.2603L340.733 48.9862L341.337 49.4086L345.343 43.6827Z" fill="#78A9EF"/>
<path d="M332.37 73.2655L331.69 72.7891L327.376 78.9532L328.056 79.4297L332.37 73.2655Z" fill="#78A9EF"/>
<path d="M342.645 106.202L337.945 102.912L337.522 103.515L342.223 106.806L342.645 106.202Z" fill="#78A9EF"/>
<path d="M342.645 108.787L337.944 105.497L337.522 106.1L342.222 109.391L342.645 108.787Z" fill="#78A9EF"/>
<path d="M342.643 111.241L335.299 106.099L334.877 106.703L342.221 111.844L342.643 111.241Z" fill="#78A9EF"/>
<path d="M342.645 113.811L335.007 108.464L334.585 109.067L342.223 114.415L342.645 113.811Z" fill="#78A9EF"/>
<path d="M342.645 116.543L337.944 113.252L337.522 113.856L342.222 117.146L342.645 116.543Z" fill="#78A9EF"/>
<path d="M342.645 119.128L337.944 115.837L337.522 116.441L342.222 119.731L342.645 119.128Z" fill="#78A9EF"/>
<path d="M342.645 121.713L337.944 118.422L337.522 119.026L342.222 122.317L342.645 121.713Z" fill="#78A9EF"/>
<path d="M342.645 124.319L338.532 121.441L338.11 122.045L342.222 124.923L342.645 124.319Z" fill="#78A9EF"/>
<path d="M307.107 68.7641L306.628 68.2038C310.65 64.7677 314.979 61.719 319.556 59.0937L318.325 56.9177L318.893 56.8658C321.501 56.6271 324.105 56.1578 326.631 55.4702L326.881 56.1609C324.728 57.1431 322.619 58.2144 320.561 59.371L321.47 60.9787C322.136 59.7277 323.081 58.64 324.234 57.806L324.665 58.4028C323.425 59.3002 322.446 60.5158 321.834 61.9187L321.538 62.5946L319.919 59.7344C315.382 62.3375 311.093 65.3591 307.107 68.7641ZM319.526 57.5446L320.197 58.7306C321.299 58.1109 322.416 57.5156 323.547 56.9449C322.215 57.204 320.872 57.4046 319.526 57.5446Z" fill="#78A9EF"/>
<path d="M319.242 108.701C318.714 106.544 317.92 104.257 316.029 103.649L313.516 102.842L316.153 102.931C317.013 102.959 317.873 102.946 318.731 102.891C318.388 97.3907 318.434 91.8571 318.869 86.3735L319.603 86.4317C319.171 91.8762 319.126 97.372 319.465 102.834C320.55 102.734 321.63 102.567 322.697 102.335L323.532 102.152L321.114 106.162L320.483 105.782L322.027 103.222C321.195 103.377 320.355 103.493 319.513 103.569C319.628 105.241 319.779 106.91 319.966 108.573L319.242 108.701ZM317.565 103.677C318.129 104.152 318.568 104.779 318.921 105.485C318.869 104.866 318.821 104.247 318.779 103.626C318.374 103.652 317.97 103.669 317.565 103.677Z" fill="#78A9EF"/>
<path d="M345.393 52.6297L338.851 47.6424L332.632 52.1987L332.855 40.7434L339.135 36.9766L345.353 40.4862L345.393 52.6297ZM338.86 46.7222L344.652 51.1373L344.618 40.9173L339.146 37.8291L333.583 41.1657L333.398 50.7246L338.86 46.7222Z" fill="#78A9EF"/>
<path d="M338.936 56.5483L332.61 52.1475L333.031 51.543L338.959 55.6665L344.946 51.9323L345.336 52.5575L338.936 56.5483Z" fill="#78A9EF"/>
<path d="M339.297 37.4354L338.56 37.4321L338.518 47.1605L339.254 47.1637L339.297 37.4354Z" fill="#78A9EF"/>
<path d="M341.81 90.2191C339.948 90.2191 338.085 90.111 336.239 89.8956C335.835 89.8485 335.545 89.4826 335.593 89.0786C335.64 88.6742 336.007 88.3831 336.41 88.4321C339.448 88.7865 342.534 88.8403 345.583 88.5927C345.986 88.5574 346.344 88.8613 346.377 89.2672C346.411 89.6729 346.108 90.0279 345.703 90.0612C344.41 90.1667 343.11 90.2191 341.81 90.2191Z" fill="#78A9EF"/>
<path d="M353.388 118.475C351.525 118.475 349.662 118.367 347.816 118.152C347.412 118.105 347.122 117.739 347.17 117.335C347.217 116.93 347.586 116.638 347.987 116.688C351.024 117.043 354.11 117.096 357.16 116.849C357.567 116.813 357.921 117.118 357.954 117.524C357.987 117.929 357.685 118.285 357.28 118.318C355.987 118.423 354.687 118.475 353.388 118.475Z" fill="#78A9EF"/>
<path d="M353.388 122.173C351.525 122.173 349.662 122.065 347.816 121.85C347.412 121.803 347.122 121.437 347.17 121.033C347.217 120.628 347.586 120.337 347.987 120.386C351.024 120.741 354.11 120.795 357.16 120.547C357.567 120.509 357.921 120.816 357.954 121.222C357.987 121.628 357.685 121.983 357.28 122.016C355.987 122.121 354.687 122.173 353.388 122.173Z" fill="#78A9EF"/>
<path d="M341.012 94.6967C340.634 94.6967 340.312 94.4072 340.279 94.0233C340 90.7847 340.051 87.5052 340.431 84.2758C340.479 83.8717 340.843 83.5807 341.249 83.6299C341.653 83.6775 341.942 84.0438 341.894 84.4478C341.526 87.5783 341.476 90.7573 341.747 93.8963C341.782 94.302 341.482 94.6585 341.076 94.6936C341.055 94.6959 341.033 94.6967 341.012 94.6967Z" fill="#78A9EF"/>
<path d="M334.547 103.584C329.855 103.584 324.869 102.342 324.869 100.042C324.869 97.7409 329.855 96.4995 334.547 96.4995C339.238 96.4995 344.225 97.7409 344.225 100.042C344.225 102.342 339.238 103.584 334.547 103.584ZM334.547 97.2357C329.277 97.2357 325.605 98.7144 325.605 100.041C325.605 101.368 329.277 102.846 334.547 102.846C339.816 102.846 343.488 101.368 343.488 100.041C343.488 98.7144 339.816 97.2357 334.547 97.2357Z" fill="#78A9EF"/>
<path d="M334.547 128.055C329.855 128.055 324.869 126.813 324.869 124.513H325.605C325.605 125.84 329.277 127.318 334.547 127.318C339.816 127.318 343.488 125.839 343.488 124.513H344.225C344.225 126.813 339.238 128.055 334.547 128.055Z" fill="#78A9EF"/>
<path d="M344.225 100.875H343.488V125.503H344.225V100.875Z" fill="#78A9EF"/>
<path d="M325.393 100.114H324.657V124.742H325.393V100.114Z" fill="#78A9EF"/>
<path d="M389.102 93.8615C389.027 93.8858 388.982 93.95 389.006 94.0248C389.03 94.0996 389.094 94.1453 389.169 94.121C389.244 94.0967 389.29 94.0325 389.265 93.9577C389.241 93.8825 389.177 93.8372 389.102 93.8615ZM377.202 99.5225C377.138 99.4772 377.063 99.5011 377.018 99.5655C376.972 99.6296 376.996 99.7046 377.061 99.7499C377.125 99.7952 377.2 99.7713 377.245 99.7069C377.325 99.6481 377.266 99.5679 377.202 99.5225ZM380.164 101.114C380.1 101.068 380.025 101.092 379.979 101.157C379.934 101.221 379.958 101.296 380.022 101.341C380.086 101.386 380.161 101.363 380.207 101.298C380.247 101.269 380.228 101.159 380.164 101.114ZM382.864 95.0815C382.818 95.1457 382.808 95.2153 382.832 95.2905C382.896 95.3358 382.966 95.3466 383.041 95.3221C383.086 95.2579 383.097 95.1883 383.067 95.1482C383.014 95.0333 382.944 95.0225 382.864 95.0815ZM384.989 97.7195C384.944 97.7837 384.933 97.8533 384.957 97.9285C385.021 97.9738 385.091 97.9846 385.166 97.9603C385.211 97.8961 385.222 97.8265 385.193 97.7864C385.139 97.6713 385.035 97.6556 384.989 97.7195ZM376.705 106.282C376.636 106.272 376.555 106.33 376.545 106.4C376.534 106.47 376.593 106.55 376.663 106.56C376.733 106.571 376.813 106.512 376.823 106.442C376.834 106.373 376.775 106.293 376.705 106.282ZM380.066 106.652C379.997 106.642 379.916 106.701 379.906 106.77C379.896 106.84 379.954 106.92 380.024 106.931C380.094 106.941 380.174 106.882 380.184 106.813C380.195 106.743 380.136 106.663 380.066 106.652ZM385.481 93.0956C385.441 93.1251 385.39 93.2242 385.454 93.2695C385.484 93.3096 385.583 93.3605 385.628 93.2961C385.668 93.2666 385.719 93.1675 385.655 93.1222C385.631 93.047 385.561 93.0362 385.481 93.0956ZM387.164 95.595C387.124 95.6245 387.074 95.7236 387.138 95.7689C387.167 95.809 387.232 95.8543 387.312 95.7955C387.352 95.766 387.397 95.7016 387.338 95.6216C387.274 95.5763 387.204 95.5655 387.164 95.595ZM378.513 103.532C378.444 103.521 378.369 103.545 378.358 103.615C378.347 103.685 378.377 103.725 378.441 103.77C378.511 103.781 378.586 103.756 378.597 103.687C378.607 103.617 378.583 103.543 378.513 103.532ZM381.449 104.122C381.38 104.111 381.305 104.136 381.294 104.205C381.284 104.275 381.313 104.315 381.377 104.36C381.447 104.371 381.522 104.347 381.533 104.277C381.543 104.208 381.519 104.133 381.449 104.122ZM382.416 98.253C382.351 98.2077 382.276 98.2316 382.231 98.296C382.186 98.3604 382.21 98.4352 382.274 98.4805C382.338 98.5257 382.413 98.5019 382.459 98.4375C382.504 98.3731 382.48 98.2983 382.416 98.253ZM382.632 91.6996C382.568 91.6543 382.493 91.6782 382.447 91.7426C382.402 91.8068 382.426 91.8818 382.49 91.9271C382.555 91.9724 382.629 91.9485 382.675 91.8841C382.72 91.8197 382.696 91.7449 382.632 91.6996ZM385.505 93.633C385.441 93.5877 385.366 93.6116 385.321 93.676C385.276 93.7402 385.3 93.8152 385.364 93.8605C385.428 93.9058 385.503 93.8819 385.548 93.8175C385.594 93.7531 385.57 93.6787 385.505 93.633ZM388.419 95.5373C388.355 95.492 388.28 95.5159 388.235 95.5803C388.19 95.6447 388.214 95.7195 388.278 95.7648C388.342 95.81 388.417 95.7862 388.463 95.7218C388.473 95.6522 388.449 95.5774 388.419 95.5373ZM379.704 105.992C379.629 106.016 379.584 106.08 379.608 106.155C379.632 106.23 379.697 106.276 379.771 106.251C379.846 106.227 379.892 106.163 379.867 106.088C379.878 106.018 379.779 105.968 379.704 105.992ZM392.794 93.4633C392.735 93.3829 392.666 93.3723 392.585 93.4317L392.794 93.4633ZM381.397 98.6315C381.327 98.6209 381.247 98.6797 381.236 98.7495C381.226 98.8191 381.285 98.8995 381.354 98.9096C381.424 98.9198 381.504 98.8614 381.515 98.7916C381.525 98.7225 381.466 98.6421 381.397 98.6315ZM381.259 96.2608C381.19 96.2502 381.11 96.309 381.099 96.3788C381.089 96.4484 381.148 96.5288 381.217 96.539C381.287 96.5492 381.362 96.5253 381.377 96.421C381.388 96.3518 381.329 96.2714 381.259 96.2608ZM384.627 97.0596C384.557 97.049 384.477 97.1078 384.467 97.1776C384.456 97.2471 384.481 97.3219 384.585 97.3377C384.654 97.3483 384.735 97.2895 384.78 97.2249C384.756 97.1501 384.696 97.0697 384.627 97.0596ZM388.801 92.5694C388.736 92.5241 388.661 92.548 388.616 92.6124C388.571 92.6766 388.595 92.7516 388.654 92.8316C388.718 92.8769 388.793 92.853 388.873 92.794C388.889 92.6895 388.865 92.6147 388.801 92.5694ZM389.201 93.912C389.132 93.9014 389.091 93.9307 389.051 93.9602C389.041 94.0298 389.07 94.0699 389.099 94.1102C389.169 94.1208 389.209 94.0915 389.249 94.062C389.26 93.9922 389.236 93.9174 389.201 93.912Z" fill="#D62929"/>
<path d="M354.04 94.2836H372.011L363.485 102.81C363.485 102.81 354.04 94.0331 354.04 94.2836Z" fill="white"/>
<path d="M364.357 102.283C364.357 102.283 355.878 110.163 355.878 109.938H372.011" fill="white"/>
<path d="M372.54 111.477H356.163L355.252 109.276L368.898 95.6289H353.522V93.0503H372.011L372.923 95.251L359.276 108.898H372.54V111.477Z" fill="#D62929"/>
<path d="M275.213 367.979C272.951 377.308 266.973 405.066 270.147 405.952C277.545 406.277 340.682 406.666 354.461 406.69C355.771 404.519 355.485 402.619 354.773 400.48C352.838 394.672 346.163 389.861 340.591 387.745C335.02 385.629 331.474 385.258 326.031 382.887C319.815 380.178 312.67 368.685 305.804 367.562C303.027 367.107 282.711 367.659 275.213 367.979Z" fill="url(#paint8_linear)"/>
<path d="M152.155 241.743C159.775 237.422 174.659 238.697 183.31 239.088C191.211 239.447 199.468 239.605 207.146 241.06C218.192 243.153 240.235 245.248 247.561 254.682C259.093 269.531 258.957 288.919 269.425 304.779C280.323 321.291 287.468 337.777 299.754 353.234C303.733 358.241 317.887 376.044 317.887 376.044L272.737 376.552C272.737 376.552 255.343 367.364 252.032 361.511C248.437 355.155 249.505 348.851 246.93 342.932C244.578 337.524 235.457 332.262 231.477 328.002C227.102 323.32 222.483 317.942 220.697 311.431C219.05 305.426 219.17 295.267 216.601 289.516C213.519 282.614 208.001 281.227 201.846 279.563C195.428 277.827 189.649 276.015 183.293 274.09C176.743 272.105 169.439 270.114 162.754 268.965C156.323 267.859 149.45 268.853 143.127 267.536C144.366 261.586 143.52 256.507 146.787 250.921C148.457 248.064 151.174 245.722 153.496 243.585C155.17 242.044 157.669 237.931 157.456 240.415" fill="#1D72D8"/>
<path d="M242.706 143.274C240.302 139.876 240.963 135.403 239.27 131.186C238.287 128.738 236.149 129.292 235.838 132.226C235.665 133.858 237.384 136.509 238.05 138.165C238.77 139.958 239.582 143.503 236.172 143.088C234.229 142.852 233.145 139.685 232.495 138.228C231.731 136.516 229.957 134.254 230.038 132.478C230.136 130.292 232.522 128.001 233.404 126.017C234.462 123.634 234.57 123.053 237.205 122.412C239.252 121.913 247.02 120.323 250.554 120.323C254.321 120.323 258.088 118.752 258.716 128.812C259.464 140.802 258.689 144.894 260.285 149.248C255.781 147.549 247.925 147.108 243.341 145.972C243.176 145.67 242.33 143.525 242.706 143.274Z" fill="#F2A19C"/>
<path d="M241.267 140.221C241.135 149.562 241.366 186.514 241.366 186.514C241.366 186.514 230.081 183.009 225.964 180.32C211.524 170.888 172.925 117.806 164.894 147.472C162.267 157.175 165.168 173.141 175.492 182.023C186.158 191.2 210.999 214.64 238.948 215.348C252.612 215.694 261.221 216.829 263.496 201.266C266.678 179.501 262.129 160.735 260.711 138.993C257.145 139.445 241.08 140.837 241.267 140.221Z" fill="#151A4F"/>
<path d="M157.878 359.009C153.104 367.334 141.843 384.669 144.644 386.408C151.656 388.791 212.172 406.826 225.395 410.703C227.26 408.986 227.514 407.081 227.427 404.829C227.189 398.711 222.122 392.224 217.362 388.633C212.601 385.042 209.301 383.695 204.736 379.895C199.523 375.556 195.868 362.522 189.589 359.521C187.05 358.308 165.167 360.8 157.878 359.009Z" fill="url(#paint9_linear)"/>
<path d="M202.508 84.4831C199.788 81.6345 207.181 78.0245 210.459 77.3317C216.374 76.0826 218.36 80.0051 223.047 80.5516C229.891 81.3488 229.608 74.8315 234.973 73.023C240.111 71.2912 241.69 76.1762 245.411 77.3138C246.369 77.6064 246.797 78.7311 246.207 79.5423C244.468 81.9341 244.588 83.648 243.585 87.1376C242.154 92.1191 240.993 92.0096 238.25 95.764C233.744 101.931 233.705 108.857 224.371 111.023C218.281 112.437 208.383 111.866 203.8 106.396C199.693 101.492 201.412 91.1547 201.083 84.9986C201.644 84.5667 202.118 83.5106 202.508 84.4831Z" fill="url(#paint10_linear)"/>
<path d="M87.5211 227.215C81.5901 244.169 84.3837 279.862 106.297 285.423C124.985 290.166 147.243 286.101 166.133 284.231C174.484 283.405 183.309 281.172 191.773 281.822C186.348 286.433 180.875 295.044 179.042 301.846C178.008 305.68 179.103 309.212 178.043 312.996C176.934 316.95 173.847 320.606 171.295 323.559C164.267 331.689 159.933 337.04 157.329 347.583C155.364 355.536 152.155 368.479 152.155 368.479L196.948 368.947C196.948 368.947 202.218 355.1 203.846 351.825C214.372 330.654 238.466 275.892 241.596 265.631C248.884 241.743 232.436 233.78 221.72 233.78C196.544 233.78 179.823 233.091 158.662 233.091C146.227 233.091 134.424 234.267 122.138 233.678C113.777 233.278 93.1162 234.308 87.5211 227.215Z" fill="url(#paint11_linear)"/>
<path d="M220.527 130.765C216.879 132.435 204.862 139.762 201.563 141.996C194.393 146.85 189.135 153.06 186.765 156.818C184.726 160.053 182.092 133.615 180.124 130.211C190.639 124.668 200.173 118.45 207.242 112.506C212.012 117.858 216.87 122.756 220.583 129.102C220.148 129.931 221.512 130.315 220.527 130.765Z" fill="#F2A19C"/>
<path opacity="0.51" d="M121.505 251.317C121.608 251.358 121.725 251.305 121.765 251.202C121.804 251.1 121.754 250.982 121.65 250.942C121.548 250.901 121.431 250.954 121.39 251.056C121.352 251.161 121.403 251.276 121.505 251.317ZM123.245 246.715C123.354 246.753 123.471 246.702 123.519 246.598C123.553 246.492 123.497 246.377 123.391 246.34C123.297 246.296 123.184 246.337 123.14 246.433C123.136 246.44 123.134 246.447 123.132 246.456C123.091 246.559 123.143 246.676 123.245 246.715ZM142.05 250.588C142.095 250.693 142.216 250.741 142.319 250.696C142.416 250.657 142.463 250.547 142.425 250.452C142.423 250.444 142.418 250.435 142.413 250.428C142.371 250.326 142.258 250.278 142.156 250.318C142.052 250.363 142.004 250.484 142.05 250.588ZM114.191 243.584C114.269 243.659 114.394 243.657 114.469 243.578C114.544 243.5 114.542 243.375 114.463 243.299C114.386 243.222 114.26 243.226 114.185 243.305C114.109 243.374 114.105 243.494 114.176 243.569C114.182 243.576 114.186 243.58 114.191 243.584ZM131.622 250.286C131.634 250.398 131.727 250.484 131.839 250.487C131.954 250.483 132.043 250.385 132.04 250.27C132.036 250.154 131.939 250.064 131.823 250.069C131.711 250.081 131.625 250.174 131.622 250.286ZM131.478 245.365C131.485 245.475 131.581 245.559 131.692 245.553C131.798 245.558 131.889 245.474 131.894 245.367C131.894 245.361 131.894 245.356 131.894 245.35C131.887 245.236 131.793 245.148 131.678 245.149C131.567 245.16 131.48 245.253 131.478 245.365ZM94.8177 253.414C94.9588 253.569 95.1993 253.582 95.3563 253.44C95.3593 253.438 95.3623 253.434 95.3662 253.431C95.5193 253.291 95.5292 253.051 95.3891 252.897C95.3891 252.897 95.3871 252.896 95.3871 252.895C95.246 252.74 95.0055 252.727 94.8485 252.869C94.8455 252.871 94.8425 252.875 94.8385 252.878C94.6855 253.019 94.6755 253.259 94.8157 253.412C94.8157 253.414 94.8157 253.414 94.8157 253.414H94.8177ZM101.632 247.068C101.777 247.225 102.022 247.236 102.181 247.091C102.339 246.945 102.349 246.701 102.204 246.54C102.204 246.54 102.202 246.537 102.199 246.535C102.059 246.382 101.819 246.372 101.667 246.513C101.666 246.514 101.666 246.515 101.666 246.515C101.509 246.664 101.496 246.906 101.632 247.068ZM123.492 275.868C123.488 276.081 123.655 276.258 123.867 276.266C124.071 276.28 124.248 276.128 124.264 275.924C124.264 275.916 124.266 275.91 124.265 275.903C124.269 275.69 124.102 275.513 123.889 275.505C123.68 275.496 123.502 275.658 123.492 275.868ZM124.192 257.213C124.184 257.424 124.345 257.599 124.554 257.609C124.554 257.609 124.563 257.609 124.567 257.608C124.772 257.622 124.949 257.47 124.965 257.266C124.965 257.258 124.967 257.252 124.966 257.245C124.966 257.03 124.802 256.851 124.588 256.833C124.376 256.834 124.199 257.001 124.192 257.213ZM124.537 247.893C124.53 248.106 124.699 248.285 124.912 248.291C125.126 248.298 125.303 248.129 125.309 247.915C125.319 247.704 125.157 247.526 124.948 247.515C124.735 247.503 124.552 247.664 124.538 247.878C124.537 247.884 124.537 247.889 124.537 247.893ZM105.522 267.327C105.716 267.41 105.94 267.318 106.022 267.122C106.104 266.927 106.013 266.703 105.818 266.621C105.627 266.54 105.408 266.627 105.323 266.816C105.241 267.013 105.329 267.24 105.522 267.327ZM109.404 258.841C109.597 258.924 109.822 258.832 109.904 258.636C109.986 258.441 109.895 258.217 109.7 258.135C109.509 258.054 109.289 258.141 109.205 258.33C109.121 258.526 109.21 258.753 109.404 258.841ZM113.286 250.367C113.485 250.452 113.715 250.357 113.799 250.158C113.881 249.966 113.797 249.743 113.611 249.653C113.418 249.557 113.184 249.639 113.088 249.833C112.992 250.027 113.074 250.262 113.268 250.358C113.275 250.362 113.281 250.365 113.286 250.367ZM140.886 268.75C140.965 268.948 141.186 269.048 141.386 268.972C141.582 268.902 141.681 268.684 141.612 268.489C141.612 268.489 141.612 268.487 141.61 268.486C141.551 268.291 141.346 268.18 141.15 268.238C141.141 268.241 141.132 268.244 141.121 268.247C140.925 268.328 140.825 268.547 140.886 268.75ZM134.427 251.245C134.493 251.438 134.701 251.543 134.895 251.476C134.9 251.475 134.906 251.473 134.912 251.469C135.112 251.403 135.22 251.185 135.153 250.984C135.151 250.977 135.15 250.972 135.147 250.966C135.071 250.765 134.848 250.666 134.649 250.742C134.45 250.818 134.35 251.042 134.425 251.241C134.426 251.242 134.427 251.244 134.427 251.245ZM97.333 263.292C97.497 263.387 97.7047 263.331 97.8011 263.17C97.8965 263.008 97.8418 262.797 97.6798 262.7C97.5168 262.604 97.3081 262.659 97.2117 262.823C97.1173 262.986 97.171 263.195 97.333 263.292ZM101.502 256.086C101.666 256.181 101.874 256.125 101.97 255.964C102.07 255.804 102.023 255.592 101.863 255.491C101.703 255.391 101.491 255.438 101.391 255.599C101.387 255.604 101.384 255.612 101.38 255.618C101.282 255.775 101.333 255.983 101.489 256.08C101.494 256.081 101.499 256.082 101.502 256.086ZM105.526 248.68C105.542 248.765 105.595 248.838 105.673 248.879C105.837 248.974 106.045 248.918 106.141 248.757C106.239 248.59 106.187 248.376 106.02 248.275L106.017 248.273C105.918 248.215 105.797 248.209 105.693 248.258L105.679 248.261C105.619 248.287 105.573 248.335 105.55 248.397C105.493 248.481 105.484 248.59 105.526 248.68ZM131.816 267.723C131.873 267.908 132.062 268.015 132.249 267.97C132.427 267.925 132.532 267.743 132.488 267.565C132.487 267.56 132.485 267.556 132.484 267.55C132.439 267.365 132.254 267.254 132.071 267.3C132.069 267.3 132.068 267.302 132.068 267.302C131.885 267.355 131.775 267.539 131.816 267.723ZM127.562 251.616C127.607 251.802 127.792 251.913 127.976 251.869C127.976 251.869 127.98 251.867 127.983 251.867C128.157 251.828 128.266 251.654 128.227 251.48C128.225 251.469 128.222 251.458 128.218 251.448C128.174 251.263 127.989 251.152 127.805 251.195C127.803 251.196 127.801 251.197 127.798 251.197C127.621 251.253 127.518 251.437 127.562 251.616ZM125.432 243.579C125.487 243.763 125.679 243.868 125.862 243.812C126.04 243.759 126.144 243.574 126.098 243.393C126.044 243.214 125.862 243.104 125.678 243.143C125.494 243.2 125.386 243.391 125.432 243.579ZM113.894 264.51C113.875 264.699 114.009 264.868 114.197 264.892C114.383 264.917 114.554 264.787 114.578 264.601C114.6 264.413 114.473 264.238 114.287 264.203C114.096 264.182 113.92 264.318 113.894 264.51ZM115.006 256.249C114.975 256.428 115.095 256.6 115.274 256.631C115.28 256.632 115.288 256.632 115.294 256.634C115.48 256.659 115.651 256.529 115.676 256.343C115.697 256.155 115.57 255.98 115.384 255.945C115.199 255.926 115.029 256.061 115.006 256.249ZM116.105 247.99C116.081 248.178 116.212 248.347 116.398 248.372C116.581 248.395 116.751 248.268 116.778 248.084C116.805 247.898 116.677 247.725 116.492 247.696C116.305 247.668 116.134 247.796 116.105 247.982C116.106 247.985 116.106 247.987 116.105 247.99ZM139.708 250.207C139.824 250.358 140.04 250.39 140.195 250.277C140.343 250.155 140.368 249.936 140.246 249.786C140.131 249.644 139.925 249.614 139.777 249.718C139.625 249.826 139.588 250.039 139.695 250.191C139.7 250.197 139.704 250.203 139.708 250.207ZM116.673 249.111C116.68 249.222 116.777 249.305 116.887 249.299C116.997 249.292 117.081 249.196 117.075 249.085C117.069 248.975 116.972 248.891 116.861 248.897C116.75 248.903 116.666 249 116.673 249.111ZM116.337 244.208C116.351 244.322 116.452 244.401 116.565 244.393C116.675 244.386 116.759 244.29 116.753 244.179C116.751 244.073 116.661 243.989 116.554 243.991C116.548 243.991 116.544 243.991 116.538 243.992C116.425 243.995 116.335 244.09 116.336 244.203C116.337 244.206 116.336 244.207 116.337 244.208ZM107.037 245.351C107.143 245.379 107.252 245.324 107.295 245.223C107.333 245.122 107.279 245.007 107.177 244.969C107.174 244.967 107.17 244.967 107.166 244.965C107.066 244.926 106.954 244.975 106.915 245.074C106.913 245.081 106.911 245.086 106.909 245.092C106.874 245.201 106.931 245.315 107.037 245.351ZM125.638 244.132C125.687 244.232 125.805 244.273 125.906 244.225C126.006 244.176 126.047 244.057 125.998 243.956C125.959 243.859 125.851 243.812 125.756 243.851C125.749 243.853 125.739 243.858 125.732 243.863C125.634 243.908 125.591 244.027 125.635 244.125C125.636 244.128 125.637 244.129 125.638 244.132ZM93.8666 247.625C93.9709 247.688 94.1081 247.654 94.1707 247.55C94.1717 247.548 94.1727 247.547 94.1747 247.545C94.2422 247.439 94.2114 247.3 94.1081 247.231C94.1031 247.229 94.0971 247.225 94.0922 247.221C93.9878 247.158 93.8507 247.192 93.7881 247.297C93.7871 247.299 93.7861 247.3 93.7841 247.302C93.7205 247.415 93.7573 247.558 93.8666 247.625ZM117.058 250.867C117.081 250.983 117.195 251.059 117.31 251.036C117.319 251.035 117.328 251.032 117.337 251.028C117.458 250.995 117.531 250.87 117.499 250.748C117.461 250.628 117.341 250.552 117.217 250.573C117.093 250.609 117.021 250.74 117.058 250.867C117.057 250.864 117.057 250.864 117.058 250.867ZM115.667 245.433C115.702 245.558 115.832 245.63 115.959 245.592L115.96 245.591C116.081 245.558 116.154 245.433 116.122 245.311C116.084 245.191 115.964 245.115 115.84 245.136C115.714 245.176 115.64 245.304 115.667 245.433ZM105.526 248.68C105.554 248.699 105.585 248.712 105.616 248.72C105.74 248.74 105.856 248.653 105.875 248.529C105.875 248.527 105.876 248.525 105.877 248.521C105.893 248.398 105.812 248.284 105.693 248.259L105.679 248.262C105.556 248.242 105.439 248.329 105.421 248.453C105.421 248.455 105.42 248.459 105.419 248.461C105.405 248.55 105.447 248.636 105.526 248.68ZM126.245 243.509C126.32 243.611 126.464 243.631 126.566 243.555C126.568 243.553 126.571 243.552 126.571 243.55C126.669 243.475 126.689 243.334 126.614 243.235C126.548 243.132 126.413 243.102 126.309 243.168C126.304 243.171 126.301 243.173 126.296 243.176C126.192 243.255 126.168 243.401 126.245 243.509ZM97.4522 272.14C97.4343 272.359 97.5894 272.554 97.808 272.584C98.0247 272.611 98.2234 272.458 98.2512 272.241C98.2711 272.022 98.1151 271.824 97.8955 271.797C97.6778 271.77 97.4801 271.922 97.4522 272.14ZM98.6358 262.591C98.608 262.808 98.7601 263.007 98.9767 263.037C99.1934 263.066 99.3921 262.911 99.42 262.694C99.4478 262.477 99.2957 262.278 99.0791 262.248C98.8644 262.22 98.6657 262.374 98.6358 262.591ZM99.8075 253.044C99.7877 253.263 99.9437 253.461 100.162 253.488C100.379 253.507 100.572 253.346 100.591 253.13C100.611 252.914 100.451 252.72 100.234 252.7C100.024 252.678 99.8334 252.832 99.8075 253.044ZM130.55 254.058C130.686 254.227 130.931 254.26 131.106 254.13C131.28 253.995 131.312 253.745 131.178 253.571C131.044 253.397 130.795 253.365 130.621 253.5C130.451 253.635 130.419 253.883 130.55 254.058ZM124.657 246.473C124.793 246.643 125.039 246.677 125.213 246.544C125.385 246.402 125.415 246.151 125.282 245.972C125.139 245.802 124.886 245.781 124.717 245.922C124.556 246.061 124.528 246.302 124.657 246.473ZM113.585 257.321C113.645 257.535 113.865 257.659 114.079 257.6L114.08 257.599C114.285 257.541 114.405 257.326 114.346 257.12C114.293 256.909 114.079 256.782 113.868 256.836C113.656 256.889 113.531 257.104 113.585 257.316V257.319V257.321ZM111.033 248.052C111.085 248.261 111.297 248.389 111.506 248.336C111.508 248.336 111.511 248.335 111.513 248.334C111.727 248.281 111.859 248.064 111.807 247.847C111.754 247.632 111.537 247.499 111.322 247.553C111.107 247.605 110.975 247.822 111.028 248.039C111.03 248.044 111.031 248.049 111.033 248.052ZM108.271 260.55C108.323 260.765 108.54 260.897 108.754 260.845C108.96 260.791 109.091 260.583 109.05 260.373C108.993 260.158 108.782 260.024 108.564 260.065C108.354 260.122 108.225 260.335 108.271 260.55ZM106.113 251.213C106.166 251.428 106.383 251.56 106.596 251.508C106.808 251.46 106.941 251.248 106.892 251.036C106.845 250.824 106.633 250.691 106.422 250.739C106.212 250.788 106.073 250.998 106.113 251.213ZM91.9605 255.742C91.9277 255.956 92.0738 256.155 92.2854 256.19C92.2854 256.19 92.2874 256.191 92.2874 256.19C92.5031 256.229 92.7078 256.087 92.7486 255.872C92.7814 255.654 92.6343 255.45 92.4176 255.411C92.204 255.382 92.0022 255.528 91.9605 255.742ZM93.5376 246.28C93.4969 246.494 93.641 246.7 93.8547 246.74C94.0683 246.78 94.2731 246.637 94.3138 246.423C94.3138 246.421 94.3148 246.417 94.3148 246.412C94.3446 246.195 94.1995 245.991 93.9839 245.95C93.7712 245.916 93.5724 246.064 93.5366 246.276C93.5386 246.279 93.5386 246.279 93.5376 246.28ZM126.142 257.509C126.275 257.685 126.524 257.724 126.702 257.594C126.877 257.467 126.917 257.222 126.789 257.047C126.673 256.868 126.434 256.818 126.256 256.935C126.251 256.938 126.246 256.94 126.242 256.946C126.06 257.07 126.012 257.317 126.136 257.499C126.136 257.502 126.139 257.505 126.142 257.509ZM120.589 249.71C120.721 249.887 120.971 249.925 121.148 249.796C121.323 249.669 121.363 249.424 121.236 249.249C121.12 249.069 120.88 249.02 120.702 249.137C120.697 249.14 120.692 249.142 120.688 249.148C120.506 249.271 120.459 249.519 120.583 249.7C120.585 249.702 120.587 249.706 120.589 249.71ZM110.095 253.341C110.167 253.491 110.345 253.554 110.494 253.483C110.639 253.413 110.703 253.242 110.639 253.093C110.578 252.948 110.41 252.878 110.265 252.938C110.256 252.942 110.246 252.947 110.238 252.951C110.094 253.022 110.031 253.196 110.095 253.341ZM107.048 246.806C107.12 246.956 107.301 247.019 107.45 246.947C107.599 246.876 107.662 246.694 107.591 246.545C107.523 246.397 107.348 246.331 107.199 246.399C107.196 246.401 107.193 246.402 107.19 246.404C107.042 246.479 106.98 246.656 107.048 246.806ZM94.8077 253.121C94.8187 253.285 94.9588 253.41 95.1208 253.402C95.2828 253.384 95.403 253.25 95.401 253.087C95.3931 252.924 95.2549 252.797 95.091 252.805L95.09 252.806C94.931 252.809 94.8037 252.939 94.8057 253.098C94.8067 253.107 94.8067 253.114 94.8077 253.121ZM94.4778 245.893C94.4887 246.06 94.6278 246.189 94.7938 246.188C94.9568 246.18 95.084 246.041 95.0751 245.876C95.0751 245.876 95.0741 245.875 95.0751 245.874C95.0731 245.715 94.9439 245.588 94.7849 245.59C94.7849 245.59 94.7779 245.591 94.7739 245.591C94.609 245.592 94.4768 245.724 94.4768 245.889C94.4778 245.889 94.4778 245.892 94.4778 245.893Z" fill="white"/>
<path d="M187.872 125.777C180.504 128.857 169.938 132.567 161.86 134.783C146 139.136 134.769 147.608 123.24 159.602C112.803 170.462 102.834 183.789 97.2415 197.961C92.6194 209.674 85.6826 225.714 85.0138 238.217C94.1975 238.46 145.898 239.151 160.443 238.813C161.498 217.067 162.498 196.006 174.16 177.036C176.796 172.748 179.519 168.302 182.449 164.055C184.896 160.509 192.934 149.256 192.934 149.256C192.934 149.256 177.743 140.613 187.872 125.777Z" fill="url(#paint12_linear)"/>
<path d="M243.586 109.034C239.567 109.034 236.297 105.015 236.297 100.076C236.297 95.1377 239.567 91.1187 243.586 91.1187C247.604 91.1187 250.874 95.1377 250.874 100.076C250.874 105.015 247.604 109.034 243.586 109.034ZM243.586 93.1093C240.663 93.1093 238.285 96.2346 238.285 100.076C238.285 103.918 240.663 107.044 243.586 107.044C246.508 107.044 248.886 103.918 248.886 100.076C248.886 96.2346 246.508 93.1093 243.586 93.1093Z" fill="#23286B"/>
<path d="M234.943 97.9288C232.531 93.7624 228.9 90.2649 223.822 87.9179C213.135 82.9792 194.665 87.0191 193.96 101.387C190.05 104.853 192.033 108.404 193.269 112.596C196.541 123.694 202.584 131.494 214.452 132.982C224.853 134.287 236.557 130.253 238.25 118.57C238.654 115.79 238.756 113.023 238.567 110.329C246.232 105.839 240.891 101.699 234.943 97.9288Z" fill="url(#paint13_linear)"/>
<path d="M225.698 116.333C220.035 116.333 215.428 111.719 215.428 106.049C215.428 100.378 220.035 95.7642 225.698 95.7642C231.359 95.7642 235.967 100.377 235.967 106.049C235.967 111.72 231.359 116.333 225.698 116.333ZM225.698 97.7548C221.13 97.7548 217.415 101.475 217.415 106.049C217.415 110.622 221.13 114.343 225.698 114.343C230.264 114.343 233.979 110.622 233.979 106.049C233.979 101.475 230.263 97.7548 225.698 97.7548Z" fill="#23286B"/>
<path d="M207.453 77.6024C205.476 77.5327 198.602 75.3519 194.273 77.1525C188.858 79.4049 186.447 84.256 179.893 83.0308C175.061 82.1281 170.613 77.1843 165.514 79.371C161.586 81.0551 160.593 89.2903 155.989 87.3465C155.358 87.0797 154.633 87.4948 154.593 88.1796C154.36 92.2653 158.099 92.2783 160.002 95.1567C162.925 99.5759 160.249 99.784 160.241 104.005C160.232 108.605 161.326 110.444 165.514 111.803C170.758 113.506 170.469 110.329 171.969 116.006C173.044 120.076 170.127 121.956 176.298 123.82C179.2 124.697 182.059 124.57 184.714 127.676C187.25 130.641 186.19 131.377 188.268 134.474C189.8 136.757 194.097 138.383 197.362 139.024C198.476 139.242 199.514 138.467 199.697 137.345C200.469 132.603 204.519 129.84 208.051 126.807C214.529 121.241 211.631 119.683 211.015 112.392C210.423 105.371 216.42 103.956 217.664 98.6025C218.762 93.8728 213.08 90.7276 219.567 86.3014C218.244 82.8178 214.434 77.8482 207.453 77.6024Z" fill="url(#paint14_linear)"/>
<path d="M238.52 201.07C238.408 201.062 238.294 201.07 238.183 201.076C242.399 199.692 244.486 197.041 247.561 194.051C248.038 193.587 250.294 191.563 252.033 191.314C254.75 190.925 259.013 192.48 259.984 192.807C263.953 194.145 266.73 195.915 270.667 197.037C270.764 199.175 265.56 200.829 263.169 201.073C260.302 201.366 257.334 199.755 254.428 199.816C253.027 199.845 252.477 200.246 251.397 201.071C248.899 202.98 245.87 204.135 243.25 205.872C242.048 206.67 240.112 208.426 238.514 208.103C236.86 207.768 236.945 206.22 237.268 204.929C237.442 204.226 238.488 201.061 238.52 201.07Z" fill="#F2A19C"/>
<path d="M267.934 223.993C267.3 223.993 266.713 223.585 266.512 222.948L247.133 161.239C246.885 160.452 247.322 159.614 248.107 159.367C248.892 159.118 249.73 159.556 249.976 160.342L269.355 222.052C269.603 222.839 269.167 223.676 268.381 223.924C268.233 223.972 268.081 223.993 267.934 223.993Z" fill="#E94A47"/>
<path d="M268.156 201.981C271.064 199.668 273.593 192.665 268.959 192.79C265.471 192.885 263.066 193.186 258.824 194.449C250.47 196.938 242.152 200.569 231.66 201.93C217.1 206.716 221.781 216.16 220.463 221.589C225.592 223.53 231.673 220.938 236.965 220.696C242.19 220.457 245.997 222.865 251.206 221.332C251.822 221.401 253.455 221.202 253.928 221.111C255.706 220.769 257.339 219.514 258.406 218.132C259.365 216.889 259.775 217.034 261.193 216.751C262.593 216.472 263.229 215.58 263.604 214.143C263.916 212.947 263.52 211.82 263.7 210.611C263.891 209.322 264.907 208.827 265.954 208.194C268.075 206.911 269.757 205.714 268.862 203.05C268.722 202.639 268.473 202.287 268.156 201.981Z" fill="#FFBEB6"/>
<path d="M185.682 162.049C180.159 173.805 179.512 176.853 177.494 182.87C174.811 190.874 173.334 198.892 171.892 206.745C187.062 207.688 238.704 200.691 238.704 200.691L238.788 221.172C238.788 221.172 231.761 224.103 226.614 225.953C216.899 229.446 204.484 234.711 194.312 236.731C179.4 239.691 153.23 244.683 141.148 228.778C129.99 214.092 138.686 186.921 144.254 172.42C147.707 163.431 153.93 150.443 161.516 144.414C165.68 141.105 174.289 137.153 183.998 143.361C187.147 145.376 191.206 150.64 185.682 162.049Z" fill="url(#paint15_linear)"/>
<defs>
<linearGradient id="paint0_linear" x1="385.01" y1="158.986" x2="250.361" y2="159.748" gradientUnits="userSpaceOnUse">
<stop offset="0.0898" stop-color="white"/>
<stop offset="0.8178" stop-color="#EEEEEE"/>
</linearGradient>
<linearGradient id="paint1_linear" x1="56.1684" y1="246.645" x2="68.9229" y2="246.656" gradientUnits="userSpaceOnUse">
<stop offset="0.0898" stop-color="white"/>
<stop offset="0.8178" stop-color="#EEEEEE"/>
</linearGradient>
<linearGradient id="paint2_linear" x1="103.797" y1="193.58" x2="116.552" y2="193.591" gradientUnits="userSpaceOnUse">
<stop offset="0.0898" stop-color="white"/>
<stop offset="0.8178" stop-color="#EEEEEE"/>
</linearGradient>
<linearGradient id="paint3_linear" x1="161.957" y1="193.58" x2="174.711" y2="193.591" gradientUnits="userSpaceOnUse">
<stop offset="0.0898" stop-color="white"/>
<stop offset="0.8178" stop-color="#EEEEEE"/>
</linearGradient>
<linearGradient id="paint4_linear" x1="207.742" y1="246.645" x2="220.496" y2="246.656" gradientUnits="userSpaceOnUse">
<stop offset="0.0898" stop-color="white"/>
<stop offset="0.8178" stop-color="#EEEEEE"/>
</linearGradient>
<linearGradient id="paint5_linear" x1="77.0232" y1="280.603" x2="168.679" y2="286.671" gradientUnits="userSpaceOnUse">
<stop offset="0.0898" stop-color="white"/>
<stop offset="0.8178" stop-color="#EEEEEE"/>
</linearGradient>
<linearGradient id="paint6_linear" x1="44.5578" y1="147.147" x2="121.976" y2="147.603" gradientUnits="userSpaceOnUse">
<stop offset="0.0898" stop-color="white"/>
<stop offset="0.8178" stop-color="#EEEEEE"/>
</linearGradient>
<linearGradient id="paint7_linear" x1="171.16" y1="280.522" x2="212.051" y2="281.712" gradientUnits="userSpaceOnUse">
<stop offset="0.0898" stop-color="white"/>
<stop offset="0.8178" stop-color="#EEEEEE"/>
</linearGradient>
<linearGradient id="paint8_linear" x1="271.218" y1="386.707" x2="355.928" y2="400.77" gradientUnits="userSpaceOnUse">
<stop offset="0.14" stop-color="#E94A47"/>
<stop offset="1" stop-color="#C63030"/>
</linearGradient>
<linearGradient id="paint9_linear" x1="151.48" y1="368.425" x2="228.465" y2="405.36" gradientUnits="userSpaceOnUse">
<stop offset="0.14" stop-color="#E94A47"/>
<stop offset="1" stop-color="#C63030"/>
</linearGradient>
<linearGradient id="paint10_linear" x1="223.737" y1="76.5207" x2="223.737" y2="86.1422" gradientUnits="userSpaceOnUse">
<stop stop-color="#EEEEEE"/>
<stop offset="1" stop-color="#D6D7D8"/>
</linearGradient>
<linearGradient id="paint11_linear" x1="235.995" y1="306.057" x2="144.563" y2="296.795" gradientUnits="userSpaceOnUse">
<stop stop-color="#428DFC"/>
<stop offset="1" stop-color="#1D72D8"/>
</linearGradient>
<linearGradient id="paint12_linear" x1="136.531" y1="176.766" x2="147.828" y2="255.059" gradientUnits="userSpaceOnUse">
<stop stop-color="#23286B"/>
<stop offset="1" stop-color="#151A4F"/>
</linearGradient>
<linearGradient id="paint13_linear" x1="209.324" y1="128.344" x2="221.946" y2="92.525" gradientUnits="userSpaceOnUse">
<stop stop-color="#FFBEB6"/>
<stop offset="1" stop-color="#F2A19C"/>
</linearGradient>
<linearGradient id="paint14_linear" x1="186.022" y1="84.4274" x2="198.185" y2="123.158" gradientUnits="userSpaceOnUse">
<stop stop-color="#EEEEEE"/>
<stop offset="1" stop-color="#D6D7D8"/>
</linearGradient>
<linearGradient id="paint15_linear" x1="202.976" y1="179.157" x2="161.164" y2="227.532" gradientUnits="userSpaceOnUse">
<stop stop-color="#23286B"/>
<stop offset="1" stop-color="#151A4F"/>
</linearGradient>
</defs>
</svg>
