<svg width="41" height="41" viewBox="0 0 41 41" fill="none" xmlns="http://www.w3.org/2000/svg">
<path opacity="0.35" d="M30.5 35.5H10.5C7.73833 35.5 5.5 33.2617 5.5 30.5V10.5C5.5 7.73833 7.73833 5.5 10.5 5.5H30.5C33.2617 5.5 35.5 7.73833 35.5 10.5V30.5C35.5 33.2617 33.2617 35.5 30.5 35.5Z" fill="#005CE7"/>
<path d="M30.9133 13.9834C31.24 13.5984 30.83 13.0334 30.3633 13.2284C29.585 13.5534 28.7333 13.845 28.13 13.965C28.1 13.9734 28.075 13.9834 28.045 13.9917C27.13 13.09 25.8767 12.53 24.49 12.53C21.695 12.53 19.4283 14.7967 19.4283 17.5917C19.4283 17.7384 19.4167 18.01 19.4283 18.1534C16.2683 18.1534 13.74 16.7667 11.7917 14.8317C11.2983 14.3417 10.4583 14.6717 10.42 15.3684C10.4083 15.5584 10.4033 15.75 10.4033 15.94C10.4033 17.5167 11.635 19.0634 13.5533 20.0234C13.2 20.115 12.8117 20.18 12.4067 20.18C12.035 20.18 11.5217 20.0267 11.105 19.865C10.7767 19.7384 10.4483 20.0417 10.545 20.38C11.0417 22.1234 13.0417 23.3017 14.845 23.6634C14.4233 23.9117 13.5733 23.9367 13.1583 23.9367C13.0367 23.9367 12.7833 23.9134 12.51 23.8817C12.07 23.8317 11.7717 24.33 12.0317 24.6884C12.9167 25.905 14.5933 26.5784 16.205 26.6067C15.1133 27.4634 13.315 27.9417 11.5233 28.15C10.89 28.2234 10.7517 29.09 11.3317 29.355C12.9767 30.105 14.62 30.53 16.4433 30.53C24.8017 30.53 29.5533 24.1584 29.5533 18.1534C29.5533 18.0567 29.5517 17.8534 29.5483 17.65C29.5483 17.63 29.5533 17.61 29.5533 17.59C29.5533 17.56 29.545 17.53 29.545 17.5C29.5417 17.3467 29.5383 17.2034 29.535 17.13C30.165 16.675 30.7367 16.14 31.2333 15.5417C31.4083 15.3317 31.1983 15.025 30.94 15.1084C30.38 15.29 29.7967 15.42 29.195 15.4917C29.7233 15.175 30.38 14.6084 30.9133 13.9834Z" fill="#005CE7"/>
</svg>
