<svg width="252" height="214" viewBox="0 0 252 214" fill="none" xmlns="http://www.w3.org/2000/svg">
<path d="M222.024 15.4453H30.0078V132.355H222.024V15.4453Z" fill="white"/>
<path d="M70.3142 35.9922H51.2207V55.062H70.3142V35.9922Z" fill="#94BAF8"/>
<path d="M70.3142 64.4629H51.2207V83.5327H70.3142V64.4629Z" fill="#D8F7F0"/>
<path d="M39.9714 183.076H77.1719C82.103 183.076 86.1003 187.069 86.1003 191.994C86.1003 196.918 82.103 200.911 77.1719 200.911H39.9714C35.0403 200.911 31.043 196.918 31.043 191.994C31.043 187.069 35.0403 183.076 39.9714 183.076Z" fill="url(#paint0_linear)"/>
<path d="M224.274 200.911C232.898 200.911 239.889 193.928 239.889 185.315C239.889 176.701 232.898 169.719 224.274 169.719C215.649 169.719 208.658 176.701 208.658 185.315C208.658 193.928 215.649 200.911 224.274 200.911Z" fill="url(#paint1_linear)"/>
<path d="M13.5137 170.561C19.5022 182.244 33.8394 186.867 45.5367 180.885C55.9281 175.572 60.9253 163.514 57.3334 152.42L13.5137 170.561Z" fill="url(#paint2_linear)"/>
<path d="M190.888 187.948L195.54 200.908L162.701 200.909C162.701 200.909 164.385 197.666 169.998 195.263C175.612 192.86 180.171 187.947 180.171 187.947L190.888 187.948Z" fill="url(#paint3_linear)"/>
<path d="M166.021 187.949L170.673 200.909L137.834 200.91C137.834 200.91 139.518 197.666 145.131 195.264C150.744 192.861 155.983 187.949 155.983 187.949H166.021Z" fill="#428DFC"/>
<path d="M174.829 96.533C174.829 96.533 176.145 99.5686 173.672 112.414C174.255 119.159 175.583 125.818 177.633 132.271C180.93 142.317 197.721 171.505 190.888 187.949L180.171 187.947C180.171 187.947 165.76 151.046 163.452 141C161.143 130.954 155.813 101.283 153.006 96.0059L174.829 96.533Z" fill="url(#paint4_linear)"/>
<path d="M174.004 95.0508C174.004 95.0508 177.797 101.803 172.025 117.449C166.254 133.094 166.089 137.871 166.419 142.153C166.748 146.435 169.881 151.375 168.892 160.433C167.903 169.492 170.728 170.693 170.069 177.939C169.409 185.185 166.02 187.948 166.02 187.948H155.982C155.982 187.948 149.105 150.552 148.61 139.023C148.115 127.495 157.025 107.128 156.69 95.8742L174.004 95.0508Z" fill="#23286B"/>
<path opacity="0.86" d="M171.407 110.153C171.357 110.108 171.279 110.114 171.235 110.164C171.235 110.164 171.235 110.164 171.234 110.165C171.188 110.217 171.193 110.296 171.245 110.342C171.297 110.388 171.377 110.383 171.423 110.331C171.423 110.331 171.423 110.331 171.423 110.33C171.466 110.277 171.459 110.198 171.407 110.153ZM164.51 119.742C164.442 119.746 164.39 119.805 164.393 119.874C164.396 119.94 164.453 119.991 164.519 119.987C164.521 119.987 164.524 119.987 164.526 119.987C164.595 119.982 164.647 119.924 164.643 119.855C164.638 119.786 164.579 119.736 164.51 119.742ZM164.296 116.733C164.228 116.739 164.178 116.798 164.183 116.866C164.188 116.935 164.247 116.987 164.316 116.983C164.385 116.979 164.437 116.92 164.433 116.851C164.426 116.782 164.366 116.731 164.296 116.733ZM172.136 106.002C172.073 105.979 172.005 106.011 171.983 106.074C171.982 106.076 171.981 106.078 171.981 106.079C171.957 106.143 171.989 106.213 172.053 106.237C172.116 106.26 172.187 106.228 172.21 106.165C172.211 106.162 172.212 106.159 172.213 106.156C172.235 106.094 172.203 106.026 172.141 106.004C172.139 106.003 172.137 106.002 172.136 106.002ZM170.436 116.741C170.406 116.677 170.331 116.65 170.267 116.68C170.203 116.709 170.176 116.784 170.206 116.848C170.235 116.912 170.311 116.939 170.374 116.909C170.375 116.909 170.376 116.909 170.377 116.908C170.438 116.878 170.465 116.803 170.436 116.741ZM169.089 114.044C169.059 113.98 168.984 113.953 168.92 113.982C168.856 114.012 168.829 114.087 168.859 114.151C168.889 114.214 168.964 114.242 169.027 114.212C169.028 114.212 169.029 114.211 169.03 114.211C169.091 114.18 169.118 114.106 169.089 114.044ZM174.289 104.891C174.23 104.877 174.171 104.913 174.157 104.972C174.142 105.031 174.178 105.09 174.237 105.105C174.297 105.119 174.356 105.083 174.37 105.024C174.385 104.965 174.349 104.906 174.289 104.891ZM173.023 115.366C172.991 115.314 172.922 115.298 172.87 115.33C172.818 115.363 172.802 115.431 172.835 115.483C172.835 115.483 172.835 115.484 172.835 115.484C172.868 115.536 172.937 115.55 172.988 115.518C173.039 115.485 173.055 115.417 173.023 115.366ZM171.595 113.085C171.563 113.034 171.494 113.018 171.442 113.051C171.391 113.083 171.375 113.152 171.408 113.203C171.44 113.255 171.509 113.271 171.561 113.238C171.612 113.208 171.629 113.141 171.598 113.089C171.597 113.088 171.596 113.087 171.595 113.085ZM170.169 110.801C170.16 110.781 170.144 110.766 170.125 110.759L170.12 110.758C170.086 110.743 170.047 110.746 170.016 110.766C169.963 110.799 169.946 110.869 169.98 110.922C169.98 110.923 169.98 110.923 169.98 110.923C170.013 110.974 170.081 110.99 170.133 110.958C170.158 110.944 170.174 110.92 170.179 110.892C170.191 110.862 170.187 110.827 170.169 110.801ZM161.775 117.181C161.715 117.167 161.655 117.205 161.642 117.264C161.642 117.265 161.642 117.266 161.642 117.266C161.626 117.323 161.66 117.382 161.718 117.398C161.719 117.398 161.721 117.398 161.722 117.399C161.783 117.411 161.844 117.374 161.86 117.314C161.871 117.255 161.834 117.197 161.775 117.181ZM174.091 108.927C174.041 108.891 173.972 108.902 173.936 108.951C173.935 108.952 173.934 108.954 173.934 108.955C173.898 109.001 173.906 109.067 173.952 109.103C173.954 109.104 173.956 109.105 173.958 109.107C174.006 109.144 174.074 109.135 174.111 109.087C174.112 109.086 174.113 109.085 174.114 109.083C174.15 109.033 174.139 108.964 174.091 108.927ZM171.897 107.364C171.846 107.33 171.777 107.343 171.74 107.391C171.705 107.442 171.717 107.512 171.768 107.548C171.82 107.582 171.89 107.567 171.924 107.515C171.956 107.465 171.944 107.399 171.897 107.364ZM167.503 115.993C167.443 116.007 167.403 116.064 167.413 116.125C167.423 116.184 167.48 116.224 167.54 116.214C167.601 116.205 167.643 116.149 167.634 116.088C167.623 116.026 167.565 115.984 167.503 115.993ZM167.06 113.341C167 113.354 166.96 113.411 166.97 113.472C166.98 113.532 167.037 113.572 167.097 113.562C167.155 113.554 167.196 113.5 167.188 113.441C167.187 113.439 167.187 113.437 167.187 113.434C167.177 113.374 167.12 113.332 167.06 113.341ZM157.529 113.782C157.479 113.747 157.41 113.757 157.373 113.806C157.337 113.855 157.348 113.925 157.397 113.96C157.399 113.961 157.4 113.962 157.401 113.963C157.447 113.998 157.513 113.99 157.549 113.944C157.55 113.942 157.551 113.941 157.553 113.939C157.59 113.891 157.581 113.823 157.533 113.786C157.532 113.784 157.531 113.783 157.529 113.782ZM172.817 108.759C172.792 108.732 172.75 108.731 172.723 108.755C172.696 108.78 172.694 108.822 172.719 108.849C172.743 108.876 172.786 108.878 172.813 108.853C172.838 108.828 172.84 108.787 172.817 108.759ZM171.734 107.602C171.709 107.575 171.667 107.573 171.64 107.598C171.613 107.622 171.611 107.665 171.636 107.692C171.66 107.718 171.703 107.72 171.73 107.696C171.755 107.671 171.757 107.63 171.734 107.602ZM174.066 105.531C174.034 105.516 173.996 105.53 173.981 105.562C173.98 105.562 173.98 105.563 173.98 105.564C173.966 105.598 173.98 105.637 174.013 105.654C174.046 105.667 174.083 105.652 174.098 105.621C174.113 105.587 174.098 105.548 174.066 105.531ZM169.693 109.749C169.682 109.717 169.647 109.698 169.614 109.709C169.612 109.709 169.61 109.71 169.608 109.711C169.574 109.722 169.556 109.759 169.568 109.792C169.568 109.793 169.569 109.794 169.569 109.795C169.584 109.827 169.62 109.844 169.654 109.834C169.688 109.821 169.705 109.783 169.693 109.749ZM173.97 110.323C173.949 110.289 173.905 110.278 173.871 110.298C173.87 110.299 173.87 110.299 173.869 110.299C173.834 110.32 173.823 110.364 173.843 110.399C173.844 110.401 173.845 110.402 173.846 110.404C173.866 110.438 173.911 110.448 173.944 110.428C173.945 110.428 173.945 110.428 173.946 110.427C173.981 110.405 173.991 110.358 173.97 110.323ZM172.991 108.797C172.971 108.763 172.927 108.753 172.893 108.773C172.892 108.774 172.892 108.774 172.891 108.774C172.856 108.797 172.846 108.844 172.868 108.879C172.891 108.914 172.937 108.924 172.972 108.902C173.006 108.881 173.016 108.836 172.995 108.802C172.994 108.8 172.993 108.799 172.991 108.797ZM172.018 107.272C171.996 107.237 171.949 107.226 171.913 107.248C171.878 107.271 171.867 107.318 171.889 107.353C171.889 107.353 171.89 107.353 171.89 107.354C171.889 107.358 171.894 107.359 171.897 107.364C171.923 107.39 171.963 107.395 171.995 107.377C172.029 107.354 172.04 107.308 172.018 107.272ZM174.508 105.952C174.473 105.928 174.427 105.935 174.402 105.968C174.378 106.002 174.386 106.049 174.42 106.073C174.421 106.073 174.422 106.074 174.423 106.075C174.456 106.098 174.501 106.09 174.524 106.057C174.548 106.023 174.541 105.977 174.508 105.952ZM170.211 110.82C170.205 110.78 170.168 110.752 170.128 110.758C170.127 110.758 170.126 110.759 170.125 110.759L170.12 110.758C170.082 110.767 170.057 110.805 170.063 110.844C170.069 110.884 170.107 110.912 170.147 110.906C170.147 110.906 170.148 110.906 170.149 110.906C170.16 110.903 170.169 110.898 170.178 110.892C170.203 110.877 170.217 110.849 170.211 110.82ZM169.805 108.973C169.764 108.983 169.737 109.022 169.743 109.063C169.753 109.103 169.793 109.128 169.834 109.121C169.873 109.113 169.899 109.075 169.891 109.035C169.891 109.035 169.891 109.035 169.891 109.034C169.884 108.994 169.845 108.967 169.805 108.973ZM174.107 104.16C174.049 104.119 173.97 104.132 173.928 104.189C173.887 104.247 173.9 104.327 173.958 104.368C174.015 104.409 174.095 104.396 174.136 104.34C174.176 104.281 174.163 104.202 174.107 104.16ZM172.895 118.268C172.825 118.279 172.776 118.344 172.785 118.415C172.797 118.485 172.862 118.532 172.932 118.521C173.002 118.509 173.051 118.445 173.043 118.374C173.031 118.305 172.965 118.257 172.895 118.268ZM172.41 115.2C172.341 115.212 172.293 115.278 172.305 115.348C172.316 115.417 172.382 115.465 172.452 115.453C172.522 115.442 172.569 115.376 172.558 115.306C172.546 115.237 172.48 115.189 172.41 115.2ZM171.93 112.133C171.86 112.142 171.81 112.206 171.819 112.275C171.828 112.345 171.892 112.395 171.962 112.386C171.963 112.386 171.965 112.386 171.967 112.386C172.038 112.375 172.087 112.31 172.078 112.239C172.066 112.169 172 112.122 171.93 112.133ZM171.445 109.065C171.376 109.075 171.328 109.14 171.339 109.21C171.339 109.21 171.339 109.211 171.339 109.212C171.35 109.282 171.416 109.33 171.486 109.319C171.556 109.307 171.604 109.242 171.593 109.172C171.593 109.171 171.593 109.171 171.593 109.171C171.582 109.102 171.517 109.054 171.448 109.064C171.447 109.065 171.446 109.065 171.445 109.065ZM160.087 115.252C160.044 115.306 160.054 115.386 160.109 115.428C160.11 115.429 160.111 115.43 160.112 115.43C160.171 115.471 160.252 115.459 160.296 115.402L160.087 115.252ZM173.791 106.798C173.755 106.737 173.676 106.717 173.615 106.753C173.614 106.754 173.613 106.754 173.612 106.755C173.552 106.793 173.533 106.872 173.57 106.933C173.609 106.994 173.689 107.011 173.75 106.972C173.808 106.934 173.826 106.857 173.791 106.798ZM166.834 116.63C166.766 116.614 166.698 116.655 166.682 116.723C166.681 116.724 166.681 116.725 166.681 116.726C166.664 116.794 166.704 116.863 166.772 116.882C166.841 116.896 166.909 116.855 166.929 116.787C166.946 116.717 166.904 116.647 166.834 116.63ZM167.562 113.613C167.497 113.595 167.429 113.634 167.411 113.7C167.411 113.703 167.41 113.706 167.409 113.709C167.393 113.776 167.433 113.844 167.501 113.861C167.57 113.878 167.641 113.835 167.658 113.766V113.765C167.675 113.7 167.636 113.632 167.57 113.614C167.568 113.614 167.565 113.613 167.562 113.613ZM174.678 104.851C174.642 104.793 174.566 104.777 174.509 104.813C174.506 104.815 174.505 104.816 174.503 104.817C174.444 104.855 174.427 104.934 174.465 104.992C174.505 105.051 174.584 105.068 174.644 105.03C174.703 104.991 174.719 104.912 174.68 104.853C174.679 104.852 174.679 104.851 174.678 104.851ZM168.713 117.632C168.643 117.617 168.574 117.662 168.56 117.732C168.545 117.802 168.59 117.871 168.66 117.885C168.73 117.9 168.798 117.855 168.813 117.785C168.828 117.715 168.783 117.646 168.713 117.632ZM169.314 114.597C169.243 114.586 169.176 114.632 169.16 114.702C169.149 114.77 169.193 114.835 169.261 114.851C169.331 114.865 169.4 114.82 169.414 114.751C169.427 114.681 169.383 114.613 169.314 114.597ZM169.909 111.566C169.84 111.552 169.774 111.597 169.76 111.666C169.746 111.734 169.791 111.801 169.86 111.815C169.86 111.815 169.861 111.815 169.861 111.815C169.931 111.83 170 111.785 170.015 111.715C170.025 111.645 169.979 111.579 169.909 111.566ZM170.51 108.531C170.442 108.517 170.376 108.561 170.362 108.629C170.361 108.63 170.361 108.63 170.361 108.632C170.348 108.7 170.393 108.767 170.462 108.781C170.529 108.796 170.594 108.754 170.61 108.688C170.61 108.685 170.611 108.682 170.611 108.68C170.625 108.612 170.581 108.545 170.513 108.531C170.512 108.531 170.511 108.531 170.51 108.531ZM173.89 109.889C173.821 109.904 173.776 109.971 173.788 110.041C173.801 110.11 173.868 110.156 173.937 110.142C174.006 110.129 174.052 110.062 174.038 109.993C174.038 109.992 174.038 109.992 174.038 109.99C174.025 109.922 173.96 109.876 173.891 109.889C173.891 109.889 173.89 109.889 173.89 109.889ZM173.278 106.857C173.208 106.872 173.163 106.939 173.176 107.01C173.192 107.08 173.262 107.123 173.332 107.107C173.399 107.092 173.443 107.027 173.431 106.959C173.416 106.889 173.349 106.844 173.278 106.857ZM175.103 103.83C175.087 103.781 175.035 103.754 174.986 103.77C174.984 103.771 174.982 103.772 174.981 103.772C174.931 103.792 174.907 103.848 174.926 103.898C174.927 103.898 174.927 103.899 174.927 103.9C174.946 103.948 175.001 103.972 175.05 103.953C175.05 103.953 175.05 103.953 175.051 103.953C175.099 103.936 175.123 103.883 175.106 103.836C175.105 103.833 175.104 103.831 175.103 103.83ZM168.697 112.32C168.651 112.297 168.595 112.315 168.572 112.361C168.571 112.364 168.569 112.367 168.568 112.37C168.547 112.419 168.569 112.476 168.618 112.497C168.667 112.519 168.724 112.496 168.746 112.447C168.767 112.399 168.745 112.342 168.697 112.32ZM169.616 110.175C169.568 110.153 169.511 110.174 169.489 110.222C169.488 110.223 169.487 110.224 169.487 110.225C169.465 110.274 169.487 110.331 169.537 110.354C169.586 110.375 169.643 110.353 169.666 110.304C169.687 110.255 169.665 110.197 169.616 110.175ZM170.535 108.03C170.485 108.008 170.428 108.03 170.406 108.08C170.384 108.129 170.407 108.186 170.456 108.208C170.505 108.23 170.562 108.208 170.584 108.159C170.605 108.109 170.583 108.052 170.535 108.03ZM173.63 109.781C173.579 109.78 173.536 109.821 173.536 109.872C173.536 109.873 173.536 109.875 173.536 109.876C173.534 109.929 173.576 109.973 173.629 109.974C173.63 109.974 173.63 109.974 173.63 109.974C173.684 109.972 173.727 109.929 173.729 109.876C173.728 109.823 173.684 109.78 173.631 109.781C173.631 109.781 173.631 109.781 173.63 109.781ZM173.661 107.445C173.607 107.447 173.564 107.49 173.562 107.544C173.561 107.595 173.601 107.637 173.652 107.638C173.654 107.638 173.655 107.638 173.657 107.638C173.708 107.641 173.752 107.602 173.755 107.551C173.755 107.548 173.756 107.546 173.755 107.544C173.757 107.491 173.715 107.446 173.662 107.445C173.661 107.445 173.661 107.445 173.661 107.445ZM173.686 105.114C173.634 105.114 173.592 105.157 173.592 105.209V105.209C173.589 105.26 173.628 105.304 173.68 105.307C173.682 105.307 173.685 105.307 173.687 105.307C173.74 105.309 173.784 105.267 173.786 105.214C173.786 105.213 173.786 105.213 173.786 105.213C173.783 105.159 173.74 105.116 173.686 105.114ZM174.244 107.009C174.215 107.002 174.186 107.02 174.18 107.049C174.173 107.078 174.191 107.106 174.22 107.113C174.222 107.113 174.223 107.114 174.225 107.114C174.254 107.117 174.281 107.097 174.285 107.068C174.289 107.041 174.271 107.015 174.244 107.009ZM174.463 105.752C174.435 105.747 174.408 105.766 174.403 105.794C174.403 105.795 174.403 105.796 174.402 105.798C174.396 105.823 174.411 105.849 174.436 105.856C174.439 105.857 174.441 105.857 174.444 105.857C174.471 105.863 174.498 105.845 174.503 105.817C174.503 105.817 174.503 105.816 174.503 105.816C174.508 105.788 174.491 105.76 174.463 105.752ZM174.681 104.5C174.654 104.495 174.627 104.512 174.622 104.54C174.622 104.54 174.622 104.541 174.622 104.541C174.616 104.57 174.634 104.598 174.662 104.606C174.69 104.61 174.717 104.592 174.722 104.564C174.723 104.562 174.723 104.561 174.723 104.56C174.728 104.532 174.71 104.506 174.683 104.5C174.683 104.5 174.682 104.5 174.681 104.5ZM172.765 109.004C172.727 108.979 172.676 108.99 172.652 109.027C172.651 109.029 172.649 109.031 172.648 109.033C172.622 109.069 172.63 109.118 172.665 109.145C172.667 109.146 172.67 109.148 172.672 109.149C172.712 109.176 172.766 109.165 172.793 109.125C172.819 109.087 172.808 109.034 172.77 109.008C172.768 109.006 172.766 109.005 172.765 109.004ZM173.891 107.216C173.85 107.191 173.795 107.204 173.77 107.245C173.743 107.284 173.754 107.336 173.793 107.362C173.794 107.364 173.796 107.365 173.798 107.365C173.835 107.39 173.886 107.38 173.911 107.343C173.912 107.341 173.914 107.338 173.915 107.337C173.942 107.299 173.933 107.246 173.895 107.219C173.894 107.218 173.892 107.217 173.891 107.216ZM175.012 105.432C174.971 105.407 174.917 105.419 174.891 105.46C174.865 105.5 174.876 105.554 174.916 105.58C174.917 105.58 174.918 105.581 174.919 105.581C174.961 105.606 175.015 105.593 175.04 105.551C175.064 105.51 175.052 105.458 175.012 105.432Z" fill="white"/>
<path d="M170.151 147.04L165.106 148.909L98.1758 79.5618L103.221 77.6934L170.151 147.04Z" fill="url(#paint5_linear)"/>
<path d="M175.523 142.005L177.583 137.04L110.724 67.625L108.664 72.5903L175.523 142.005Z" fill="url(#paint6_linear)"/>
<path d="M103.221 77.6937L170.151 147.04L175.524 142.004L108.664 72.5898L103.221 77.6937Z" fill="#E94A47"/>
<path d="M121.084 103.339C121.084 103.339 122.523 101.603 122.942 100.944C123.362 100.286 124.021 101.543 123.662 102.441C123.302 103.339 123.002 104.297 122.643 104.537C122.643 104.537 126.119 101.543 127.318 100.765C128.517 99.9868 129.956 102.741 129.476 105.255C128.997 107.769 128.186 109.599 127.467 109.898C127.466 109.898 123.602 108.967 121.084 103.339Z" fill="url(#paint7_linear)"/>
<path d="M146.065 99.3206C143.443 99.3355 141.138 99.2014 141.138 99.2014L137.484 95.4078C139.912 94.9856 144.187 92.0165 145.182 91.3066L146.065 99.3206Z" fill="url(#paint8_linear)"/>
<path d="M165.337 95.9258C162.561 96.5049 160.897 97.3493 156.655 100.79C156.531 100.891 156.408 100.992 156.281 101.097C151.762 104.799 146.48 103.073 146.48 103.073L144.258 82.9354C144.258 82.9354 145.41 83.0362 150.643 82.02C151.929 81.8138 153.188 81.4693 154.399 80.9926C156.636 80.0025 157.493 78.2951 158.215 74.0322C158.753 70.8491 158.607 66.7505 158.345 63.5562C159.877 63.5027 161.335 62.8881 162.442 61.8301C165.253 63.3649 167.835 65.2852 170.114 67.5351C172.463 72.6349 173.443 77.4358 173.724 82.9279C174.21 92.3616 168.195 95.3318 165.337 95.9258Z" fill="url(#paint9_linear)"/>
<path d="M156.752 110.91C154.403 112.326 150.063 114.867 147.198 116.021C143.106 117.677 140.573 118.162 133.948 118.065C127.323 117.968 128.008 110.47 128.008 110.47C129.894 112.438 132.194 112.618 133.17 112.715C134.143 112.812 135.703 112.229 133.365 110.283C131.027 108.336 132.388 106.584 132.583 107.07C132.777 107.555 134.532 108.725 138.138 111.254C141.744 113.784 138.43 113.881 143.008 111.643C146.611 109.883 151.062 103.662 152.79 101.096L156.752 110.91Z" fill="url(#paint10_linear)"/>
<path d="M183.79 100.488C181.751 100.914 179.826 101.257 178.014 101.519C167.824 103.013 161.039 102.176 156.654 100.79C154.922 100.271 153.273 99.5099 151.754 98.5299C150.879 97.9964 150.103 97.3149 149.461 96.5161C151.84 91.9319 153.389 86.3053 154.399 80.9926C155.498 75.0959 156.132 69.1222 156.295 63.1265L156.875 63.4067C157.357 63.5207 157.851 63.5711 158.345 63.5562C159.876 63.5027 161.334 62.8881 162.441 61.8301C165.253 63.3649 167.835 65.2852 170.114 67.5351C171.468 68.8428 172.722 70.2501 173.866 71.7457C179.084 78.5791 178.141 81.3625 181.003 85.4087C181.01 85.4161 181.014 85.4274 181.022 85.4348C183.879 89.4736 187.766 94.409 183.79 100.488Z" fill="url(#paint11_linear)"/>
<path d="M178.014 101.519C177.506 101.923 176.961 102.278 176.386 102.58C173.558 104.048 172.047 105.464 168.389 110.687C164.73 115.907 158.663 115.649 158.663 115.649L151.754 98.5299L150.381 95.1301C150.381 95.1301 151.623 94.8984 156.822 92.2831C162.022 89.6716 163.141 88.3714 162.426 81.6539C161.712 74.9364 156.295 63.1265 156.295 63.1265L156.875 63.4067C157.356 63.5207 157.85 63.5711 158.345 63.5562C159.876 63.5027 161.334 62.8881 162.441 61.8301C165.253 63.3649 167.835 65.2852 170.113 67.5351C171.468 68.8428 172.722 70.2502 173.865 71.7457C179.084 78.5791 178.141 81.3625 181.003 85.4087C181.01 85.4162 181.014 85.4274 181.021 85.4348C181.137 85.7674 181.253 86.0999 181.365 86.4399C184.096 94.5397 180.823 99.2883 178.014 101.519Z" fill="url(#paint12_linear)"/>
<path d="M160.515 57.7148C160.371 58.4774 160.174 59.2291 159.924 59.964C159.5 61.2077 158.961 62.4096 158.315 63.5544C157.831 63.5671 157.347 63.5166 156.875 63.4049L156.306 63.1322C156.302 63.1303 156.299 63.1277 156.295 63.1247C156.382 61.3239 156.355 59.5194 156.213 57.7223C156.441 57.7522 156.669 57.7746 156.897 57.7858C158.102 57.8867 159.315 57.8628 160.515 57.7148Z" fill="url(#paint13_linear)"/>
<path d="M160.514 57.7152C158.262 58.014 153.635 57.958 152.183 55.877C150.448 53.385 151.057 51.0126 150.575 50.7996C150.092 50.5904 149.168 49.8917 149.344 49.3575C149.516 48.8269 151.417 47.7958 152.299 45.9464C152.382 45.7745 152.464 45.6102 152.554 45.4532L152.558 45.4495C152.574 45.4095 152.595 45.3707 152.617 45.3337C152.627 45.315 152.638 45.2974 152.651 45.2814C152.656 45.2758 152.659 45.2694 152.662 45.2627C152.677 45.2403 152.692 45.2141 152.707 45.188C152.823 45.0049 152.999 44.7359 153.235 44.4333C153.343 44.2913 153.467 44.1381 153.605 43.9812C153.758 43.8026 153.936 43.6225 154.125 43.4428C154.138 43.4298 154.151 43.4171 154.165 43.4044C154.212 43.3599 154.255 43.3154 154.304 43.2713C154.39 43.1929 154.48 43.1182 154.574 43.0434C154.645 42.9837 154.72 42.9276 154.795 42.8753C154.828 42.8492 154.866 42.823 154.903 42.7969C154.97 42.7483 155.041 42.6997 155.112 42.6549C155.127 42.6437 155.142 42.6336 155.157 42.625C155.157 42.6287 155.154 42.6325 155.154 42.6399C155.101 42.7984 155.062 42.9609 155.038 43.1256C155.026 43.1779 155.019 43.2377 155.011 43.2975C154.986 43.5205 154.979 43.7458 154.993 43.97C154.993 44.0074 154.996 44.0447 155 44.0858C155.004 44.1232 155.008 44.1643 155.011 44.2054C155.019 44.2876 155.03 44.3735 155.045 44.4594C155.045 44.4706 155.049 44.4781 155.049 44.4893C155.067 44.6164 155.092 44.7423 155.124 44.8667C155.131 44.9152 155.146 44.9601 155.157 45.0086C155.158 45.0116 155.159 45.0142 155.161 45.0161C155.184 45.1095 155.213 45.2067 155.247 45.3038V45.3113C155.262 45.3598 155.281 45.4084 155.299 45.457C155.376 45.6778 155.466 45.8937 155.569 46.1033C155.603 46.178 155.644 46.2528 155.685 46.3312C155.704 46.3686 155.722 46.4022 155.745 46.4396C155.763 46.4769 155.782 46.518 155.805 46.5554C155.816 46.5763 155.828 46.5961 155.842 46.6152C155.872 46.6749 155.909 46.731 155.947 46.7908C155.984 46.8505 156.021 46.9103 156.063 46.9701C156.1 47.0299 156.137 47.0897 156.182 47.1494C156.291 47.3063 156.41 47.4633 156.538 47.6239C156.609 47.7136 156.684 47.8033 156.758 47.8967C157.052 48.2385 157.364 48.5639 157.694 48.8718L157.907 49.0735C158.566 49.6848 159.146 50.3748 159.635 51.1284C159.699 51.2517 159.762 51.3787 159.83 51.5095C160.011 51.8666 160.163 52.2376 160.286 52.6191C160.789 54.2716 160.868 56.0242 160.514 57.7152Z" fill="#FFBEB6"/>
<path d="M150.214 47.9612C150.302 47.962 150.39 47.9537 150.476 47.9362C151.073 47.7755 151.533 47.3022 151.676 46.7021C152.163 46.7843 152.515 47.2357 152.774 47.6253C152.598 47.9791 152.505 48.3677 152.501 48.7626C152.486 49.3215 152.659 49.8696 152.992 50.3191C153.283 50.7274 153.749 50.977 154.251 50.9934C154.354 50.9946 154.456 50.9848 154.557 50.9647C154.942 50.8791 155.284 50.6613 155.524 50.349C155.868 49.9073 156.054 49.3637 156.052 48.8044C156.066 47.5861 155.282 46.5852 154.302 46.5736C153.8 46.5785 153.329 46.8168 153.029 47.2181C152.992 47.2633 152.964 47.316 152.931 47.3645C152.67 46.911 152.243 46.5762 151.739 46.4316C151.759 46.3128 151.77 46.1929 151.772 46.0726C151.784 45.022 151.106 44.159 150.259 44.1485H150.259C149.413 44.1399 148.714 44.9858 148.701 46.0367C148.689 47.0877 149.368 47.9507 150.214 47.9612ZM152.78 48.7656C152.778 48.2691 152.941 47.786 153.246 47.3933C153.445 47.1318 153.731 46.9483 154.052 46.8755C154.133 46.8591 154.216 46.8512 154.299 46.8523C155.125 46.862 155.786 47.7363 155.773 48.8015C155.775 49.298 155.612 49.7811 155.308 50.1737C154.907 50.7469 154.118 50.887 153.544 50.4872C153.413 50.3964 153.301 50.2817 153.213 50.1491C152.918 49.7493 152.766 49.2621 152.78 48.7656ZM148.981 46.0401C148.991 45.1434 149.561 44.4194 150.256 44.428C150.948 44.4362 151.503 45.1729 151.493 46.07C151.482 46.967 150.912 47.69 150.217 47.6821C149.525 47.6739 148.97 46.9375 148.981 46.0401Z" fill="url(#paint14_linear)"/>
<path d="M176.268 60.1533C175.311 58.0909 173.296 56.648 172.333 54.6742C171.924 53.5063 171.77 52.2645 171.883 51.0319C172.078 47.2435 170.768 45.1214 170.331 44.5273C170.325 44.515 170.318 44.5038 170.308 44.4937C169.217 42.5868 167.437 41.1686 165.333 40.5297C160.478 39.0502 153.965 38.7401 152.555 45.4539C153.197 44.3241 154.089 43.3557 155.162 42.6219C155.115 42.7482 154.155 45.3026 157.339 48.5257C157.915 49.4725 158.52 50.4162 159.015 51.4089C161.236 55.8661 159.425 60.6139 155.821 63.6932C155.683 63.8105 155.882 64.0082 156.019 63.8912C158.841 61.4796 160.779 57.9848 160.218 54.1781C159.951 52.3728 159.039 50.8077 158.095 49.2662C158.679 49.8266 159.195 50.4517 159.636 51.1294C159.699 51.2527 159.763 51.3797 159.83 51.5105C160.011 51.8677 160.164 52.2387 160.287 52.6201C161.106 55.1009 160.668 57.7648 159.924 59.9653C159.352 61.6511 158.569 63.2576 157.593 64.7475C168.026 67.9681 175.489 66.4213 175.489 66.4213C176.476 64.1998 176.464 61.6626 175.454 59.4512C176.745 61.4516 177.029 63.9383 176.222 66.1777C176.164 66.3488 176.434 66.4221 176.492 66.2521C177.217 64.2675 177.136 62.0788 176.268 60.1533Z" fill="#23286B"/>
<path d="M98.1752 79.5629L87.2773 56.7207L110.724 67.6253L108.664 72.5906L103.221 77.6945L98.1752 79.5629Z" fill="#EFE6BD"/>
<defs>
<linearGradient id="paint0_linear" x1="62.8776" y1="199.332" x2="41.7246" y2="163.193" gradientUnits="userSpaceOnUse">
<stop stop-color="#A1C3FC"/>
<stop offset="0.6955" stop-color="#81AEF2"/>
<stop offset="1" stop-color="#78A9EF"/>
</linearGradient>
<linearGradient id="paint1_linear" x1="225.434" y1="171.588" x2="222.283" y2="208.962" gradientUnits="userSpaceOnUse">
<stop stop-color="#A1C3FC"/>
<stop offset="0.6955" stop-color="#81AEF2"/>
<stop offset="1" stop-color="#78A9EF"/>
</linearGradient>
<linearGradient id="paint2_linear" x1="22.9579" y1="156.537" x2="89.3198" y2="194.768" gradientUnits="userSpaceOnUse">
<stop stop-color="#23286B"/>
<stop offset="1" stop-color="#151A4F"/>
</linearGradient>
<linearGradient id="paint3_linear" x1="206.475" y1="191.361" x2="156.7" y2="199.579" gradientUnits="userSpaceOnUse">
<stop stop-color="#3E8AF8"/>
<stop offset="1" stop-color="#1479F2"/>
</linearGradient>
<linearGradient id="paint4_linear" x1="204.621" y1="156.598" x2="160.034" y2="132.935" gradientUnits="userSpaceOnUse">
<stop stop-color="#23286B"/>
<stop offset="1" stop-color="#151A4F"/>
</linearGradient>
<linearGradient id="paint5_linear" x1="124.725" y1="120.12" x2="147.376" y2="103.714" gradientUnits="userSpaceOnUse">
<stop stop-color="#E94A47"/>
<stop offset="0.8098" stop-color="#C63030"/>
</linearGradient>
<linearGradient id="paint6_linear" x1="151.067" y1="98.3159" x2="128.419" y2="116.891" gradientUnits="userSpaceOnUse">
<stop stop-color="#E94A47"/>
<stop offset="0.8098" stop-color="#C63030"/>
</linearGradient>
<linearGradient id="paint7_linear" x1="121.084" y1="105.264" x2="129.571" y2="105.264" gradientUnits="userSpaceOnUse">
<stop stop-color="#FFBEB6"/>
<stop offset="1" stop-color="#F2A19C"/>
</linearGradient>
<linearGradient id="paint8_linear" x1="137.484" y1="95.3142" x2="146.065" y2="95.3142" gradientUnits="userSpaceOnUse">
<stop stop-color="#FFBEB6"/>
<stop offset="1" stop-color="#F2A19C"/>
</linearGradient>
<linearGradient id="paint9_linear" x1="156.032" y1="77.3395" x2="164.471" y2="104.851" gradientUnits="userSpaceOnUse">
<stop offset="0.1291" stop-color="#428DFC"/>
<stop offset="0.9987" stop-color="#1D72D8"/>
</linearGradient>
<linearGradient id="paint10_linear" x1="130.926" y1="122.68" x2="149.762" y2="102.915" gradientUnits="userSpaceOnUse">
<stop stop-color="#FFBEB6"/>
<stop offset="1" stop-color="#F2A19C"/>
</linearGradient>
<linearGradient id="paint11_linear" x1="160.212" y1="69.8569" x2="167.1" y2="93.997" gradientUnits="userSpaceOnUse">
<stop offset="0.1291" stop-color="#428DFC"/>
<stop offset="0.9987" stop-color="#1D72D8"/>
</linearGradient>
<linearGradient id="paint12_linear" x1="165.79" y1="90.5352" x2="190.733" y2="165.368" gradientUnits="userSpaceOnUse">
<stop offset="0.1291" stop-color="#428DFC"/>
<stop offset="0.9987" stop-color="#1D72D8"/>
</linearGradient>
<linearGradient id="paint13_linear" x1="155.971" y1="69.2538" x2="158.411" y2="57.4712" gradientUnits="userSpaceOnUse">
<stop stop-color="#FFBEB6"/>
<stop offset="1" stop-color="#F2A19C"/>
</linearGradient>
<linearGradient id="paint14_linear" x1="156.144" y1="48.9859" x2="148.496" y2="46.2038" gradientUnits="userSpaceOnUse">
<stop stop-color="#28306D"/>
<stop offset="0.51" stop-color="#1F275F"/>
<stop offset="1" stop-color="#171F51"/>
</linearGradient>
</defs>
</svg>
