<svg width="269" height="287" viewBox="0 0 269 287" fill="none" xmlns="http://www.w3.org/2000/svg">
<path d="M7.35663 118.059C31.3983 56.0442 126.034 -20.8226 195.496 5.20728C264.955 31.2372 282.937 150.301 258.896 212.319C234.854 274.336 159.054 303.506 89.5945 277.48C20.1353 251.453 -16.685 180.073 7.35663 118.059Z" fill="#FFFAD1"/>
<path d="M123.901 136.139C125.947 135.328 127.719 133.947 129.009 132.158C131.183 129.158 132.868 127.762 134.063 127.904C137.215 128.275 140.856 137.874 143.845 138.157L134.552 149.949L123.901 136.139Z" fill="#F2E56A"/>
<path d="M134.965 150.079L180.3 91.9511C180.353 91.8831 180.378 91.7966 180.367 91.7107C180.357 91.6248 180.313 91.5464 180.246 91.4929C180.178 91.4394 180.092 91.415 180.006 91.4253C179.921 91.4355 179.842 91.4794 179.789 91.5474L134.542 149.545L89.3044 91.5477C89.2511 91.4797 89.173 91.4357 89.0874 91.4255C89.0018 91.4153 88.9156 91.4396 88.8479 91.4932C88.7801 91.5467 88.7363 91.625 88.7262 91.711C88.716 91.7969 88.7402 91.8834 88.7936 91.9514L134.128 150.08L88.7936 208.208C88.7675 208.241 88.7483 208.28 88.7372 208.321C88.726 208.362 88.723 208.405 88.7284 208.447C88.7339 208.49 88.7476 208.53 88.7687 208.567C88.7899 208.604 88.8182 208.637 88.8519 208.662C88.8856 208.688 88.9241 208.707 88.9651 208.718C89.0061 208.729 89.0489 208.732 89.091 208.726C89.133 208.72 89.1735 208.706 89.2102 208.685C89.2468 208.663 89.2789 208.635 89.3044 208.601L134.542 150.603L179.778 208.601C179.804 208.635 179.836 208.663 179.873 208.685C179.909 208.706 179.95 208.72 179.992 208.726C180.034 208.732 180.077 208.729 180.118 208.718C180.159 208.707 180.197 208.688 180.231 208.662C180.265 208.637 180.293 208.604 180.314 208.567C180.335 208.53 180.349 208.49 180.354 208.447C180.36 208.405 180.357 208.362 180.346 208.321C180.334 208.28 180.315 208.241 180.289 208.208L134.965 150.079Z" fill="white"/>
<path d="M102.543 206.31C102.543 206.31 103.358 204.358 105.749 202.677C108.14 200.996 110.532 198.488 111.564 196.045C112.597 193.601 115.587 187.395 118.52 184.886C121.454 182.377 124.498 179.868 125.857 176.585C127.215 173.302 132.161 163.822 134.498 163.888C136.835 163.954 135.855 167.521 138.084 168.633C140.314 169.745 142.052 172.887 143.247 175.603C144.443 178.319 146.943 183.839 149.606 184.667C152.268 185.496 154.551 189.271 156.562 193.732C158.573 198.193 162.703 199.033 166.235 206.352L102.543 206.31Z" fill="#F2E56A"/>
<path d="M134.487 153.952C134.461 153.954 134.436 153.95 134.411 153.941C134.39 153.93 134.368 153.93 134.346 153.908C134.322 153.898 134.3 153.883 134.281 153.865C134.259 153.843 134.237 153.832 134.227 153.81C134.151 153.71 134.112 153.587 134.118 153.461C134.119 153.336 134.157 153.215 134.227 153.112C134.248 153.09 134.259 153.068 134.281 153.046C134.3 153.028 134.322 153.014 134.346 153.003L134.411 152.97C134.462 152.959 134.513 152.959 134.564 152.97C134.585 152.981 134.618 152.992 134.639 153.003C134.66 153.014 134.682 153.036 134.704 153.046C134.725 153.065 134.744 153.087 134.758 153.112C134.834 153.212 134.873 153.335 134.867 153.461C134.866 153.586 134.828 153.707 134.758 153.81C134.737 153.832 134.726 153.854 134.704 153.865C134.685 153.883 134.663 153.898 134.639 153.908C134.615 153.921 134.589 153.932 134.564 153.941C134.539 153.951 134.513 153.955 134.487 153.952Z" fill="#F2E56A"/>
<path d="M134.487 158.162C134.389 158.15 134.3 158.1 134.238 158.023C134.177 157.945 134.149 157.846 134.16 157.748V157.148C134.148 157.099 134.148 157.047 134.159 156.998C134.17 156.948 134.192 156.902 134.223 156.862C134.254 156.822 134.294 156.79 134.34 156.768C134.386 156.746 134.435 156.734 134.486 156.734C134.537 156.734 134.587 156.746 134.632 156.768C134.678 156.79 134.718 156.822 134.749 156.862C134.78 156.902 134.802 156.948 134.813 156.998C134.824 157.047 134.824 157.099 134.812 157.148V157.748C134.823 157.846 134.795 157.944 134.734 158.022C134.673 158.1 134.584 158.15 134.487 158.162Z" fill="#F2E56A"/>
<path d="M134.487 161.926C134.389 161.914 134.3 161.864 134.238 161.786C134.177 161.708 134.149 161.61 134.16 161.511V160.115C134.148 160.066 134.148 160.014 134.159 159.965C134.17 159.915 134.192 159.869 134.223 159.829C134.254 159.789 134.294 159.757 134.34 159.735C134.386 159.713 134.435 159.701 134.486 159.701C134.537 159.701 134.587 159.713 134.632 159.735C134.678 159.757 134.718 159.789 134.749 159.829C134.78 159.869 134.802 159.915 134.813 159.965C134.824 160.014 134.824 160.066 134.812 160.115V161.511C134.823 161.609 134.795 161.708 134.734 161.785C134.673 161.863 134.584 161.913 134.487 161.926Z" fill="#F2E56A"/>
<path d="M184.005 212.092V215.037C184.006 215.085 183.997 215.134 183.978 215.179C183.96 215.224 183.933 215.266 183.898 215.3C183.864 215.335 183.823 215.362 183.778 215.38C183.733 215.399 183.684 215.408 183.636 215.407H83.5329C83.4843 215.408 83.4361 215.398 83.3911 215.38C83.3461 215.361 83.3052 215.334 83.2708 215.3C83.2365 215.265 83.2092 215.224 83.1908 215.179C83.1723 215.134 83.163 215.085 83.1633 215.037V212.092C83.1639 210.446 83.8157 208.868 84.9754 207.704C86.1352 206.54 87.708 205.886 89.3481 205.885H177.8C179.442 205.885 181.018 206.539 182.181 207.702C183.344 208.865 184 210.444 184.005 212.092Z" fill="#F2E56A"/>
<path d="M148.325 215.408H146.997C142.786 213.351 136.041 211.232 126.608 211.698C115.885 212.236 109.559 214.093 106.341 215.408H104.901C104.934 215.335 104.992 215.277 105.064 215.244C107.903 213.934 114.477 211.643 126.575 211.045C136.855 210.543 144.008 213.074 148.194 215.286C148.248 215.314 148.293 215.356 148.325 215.408Z" fill="#EDAB00"/>
<path d="M183.802 210.53C181.355 211.85 178.809 213.19 175.952 213.858C174.763 214.139 173.544 214.282 172.322 214.285C170.119 214.268 167.941 213.819 165.909 212.965C158.954 210.149 156.269 209.539 147.965 208.918C145.162 208.714 143.183 207.689 142.08 205.885C142.069 205.871 142.06 205.857 142.052 205.842H126.693V205.885C126.689 206.014 126.728 206.14 126.804 206.243C127.259 206.877 129.051 207.084 131.334 207.346C134.281 207.684 138.323 208.153 142.323 209.854C145.856 211.36 149.748 211.82 153.172 212.211C157.464 212.713 160.855 213.106 161.941 215.352C161.95 215.37 161.957 215.388 161.961 215.407H161.227C160.154 213.687 157.024 213.316 153.094 212.867C149.627 212.463 145.682 212.014 142.062 210.467C138.15 208.797 134.16 208.34 131.249 208C128.619 207.707 126.879 207.5 126.258 206.637C126.102 206.418 126.022 206.154 126.029 205.885C126.031 205.874 126.032 205.863 126.032 205.852H120.835C120.833 205.862 120.828 205.875 120.825 205.885C119.787 209.105 114.095 210.949 103.923 211.36C102.467 211.416 100.923 211.449 99.3041 211.449C94.6957 211.449 89.4663 211.219 83.9251 210.75C83.8401 210.743 83.7614 210.702 83.7062 210.637C83.651 210.571 83.624 210.487 83.631 210.402C83.638 210.316 83.6785 210.237 83.7435 210.182C83.8086 210.126 83.8929 210.099 83.9779 210.106C91.4575 210.727 98.3361 210.947 103.902 210.717C113.418 210.323 119.012 208.666 120.129 205.885C120.133 205.878 120.136 205.87 120.139 205.862H103.357C103.275 205.855 103.2 205.818 103.144 205.757C103.089 205.697 103.059 205.618 103.059 205.536C103.059 205.454 103.089 205.375 103.144 205.314C103.2 205.254 103.275 205.216 103.357 205.209H166.376C166.421 205.205 166.467 205.21 166.51 205.225C166.553 205.24 166.592 205.263 166.626 205.294C166.659 205.325 166.686 205.362 166.704 205.404C166.722 205.445 166.732 205.49 166.732 205.536C166.732 205.581 166.722 205.626 166.704 205.668C166.686 205.709 166.659 205.747 166.626 205.778C166.592 205.808 166.553 205.832 166.51 205.846C166.467 205.861 166.421 205.866 166.376 205.862H142.814C142.819 205.871 142.825 205.878 142.831 205.885C143.865 207.303 145.587 208.106 147.998 208.295C156.388 208.928 159.105 209.539 166.137 212.385C173.436 215.349 178.605 212.599 183.606 209.917C183.681 210.118 183.747 210.323 183.802 210.53Z" fill="#EDAB00"/>
<path d="M172.041 208.078C168.594 208.078 166.713 208.905 166.713 209.332C166.713 209.758 168.594 210.586 172.041 210.586C175.488 210.586 177.366 209.758 177.366 209.332C177.366 208.905 175.485 208.078 172.041 208.078ZM172.041 207.422C169.061 207.422 166.062 208.078 166.062 209.332C166.062 210.586 169.071 211.239 172.041 211.239C175.01 211.239 178.017 210.586 178.017 209.332C178.017 208.078 175.007 207.422 172.041 207.422Z" fill="#EDAB00"/>
<path d="M148.41 84.0212H138.411C138.313 84.0212 138.219 83.9821 138.149 83.9125C138.08 83.843 138.041 83.7486 138.041 83.6503C138.041 83.5519 138.08 83.4575 138.149 83.388C138.219 83.3184 138.313 83.2794 138.411 83.2794H148.41C148.508 83.2794 148.602 83.3184 148.671 83.388C148.741 83.4575 148.78 83.5519 148.78 83.6503C148.78 83.7486 148.741 83.843 148.671 83.9125C148.602 83.9821 148.508 84.0212 148.41 84.0212Z" fill="#EDAB00"/>
<path d="M173.137 94.9617C173.107 94.9003 173.061 94.8484 173.003 94.8119C172.945 94.7753 172.879 94.7555 172.811 94.7546H167.214C167.151 94.755 167.089 94.7712 167.034 94.8017C166.979 94.8322 166.932 94.876 166.899 94.9292L143.476 132.267C143.424 132.347 143.405 132.444 143.423 132.538C143.442 132.631 143.495 132.714 143.573 132.769C143.635 132.81 143.706 132.833 143.78 132.834C143.836 132.833 143.891 132.819 143.942 132.795C143.992 132.77 144.037 132.735 144.073 132.692L173.094 95.3546C173.14 95.3012 173.169 95.2351 173.176 95.1649C173.184 95.0948 173.171 95.0239 173.137 94.9617Z" fill="white"/>
<path d="M113.825 182.891C113.759 182.843 113.678 182.822 113.597 182.832C113.516 182.842 113.442 182.883 113.39 182.945L97.3682 202.198C97.3295 202.246 97.3049 202.305 97.2973 202.366C97.2896 202.428 97.2991 202.49 97.3247 202.547C97.3495 202.604 97.3907 202.652 97.443 202.685C97.4954 202.718 97.5563 202.734 97.6181 202.732L102.009 202.765C102.065 202.765 102.12 202.751 102.17 202.724C102.219 202.698 102.261 202.659 102.292 202.612L113.922 183.327C113.961 183.255 113.973 183.171 113.955 183.091C113.938 183.01 113.891 182.939 113.825 182.891Z" fill="white"/>
<path d="M159.964 101.081C159.932 101.023 159.885 100.975 159.827 100.942C159.769 100.909 159.704 100.893 159.637 100.896H157.062C156.995 100.895 156.929 100.913 156.871 100.948C156.814 100.983 156.767 101.033 156.735 101.092L152.214 109.741C152.188 109.796 152.174 109.855 152.174 109.916C152.174 109.976 152.188 110.036 152.214 110.09C152.242 110.145 152.284 110.191 152.336 110.224C152.388 110.256 152.447 110.274 152.508 110.276L154.377 110.429H154.41C154.474 110.43 154.538 110.413 154.593 110.38C154.649 110.347 154.695 110.3 154.725 110.243L159.964 101.44C159.996 101.386 160.013 101.324 160.013 101.261C160.013 101.198 159.996 101.136 159.964 101.081Z" fill="white"/>
<path d="M184.584 82.9632V85.9077C184.584 86.5332 184.49 87.155 184.304 87.7521C184.243 87.9549 184.169 88.1538 184.083 88.3476C183.608 89.4652 182.815 90.4181 181.805 91.0878C180.794 91.7575 179.61 92.1145 178.399 92.1146H89.9465C88.6287 92.1142 87.3454 91.6916 86.2836 90.9083C85.2218 90.1249 84.4369 89.0219 84.0433 87.7597C84.0131 87.6663 83.9855 87.573 83.9629 87.4771C83.8292 86.9648 83.7616 86.4373 83.7617 85.9077V82.9632C83.7614 82.9144 83.7707 82.866 83.7892 82.8209C83.8076 82.7757 83.8348 82.7347 83.8692 82.7002C83.9036 82.6657 83.9445 82.6384 83.9895 82.6199C84.0345 82.6014 84.0827 82.592 84.1313 82.5923H184.234C184.282 82.5915 184.329 82.6008 184.373 82.6194C184.418 82.638 184.457 82.6656 184.49 82.7005C184.523 82.7354 184.548 82.7768 184.564 82.822C184.58 82.8673 184.587 82.9153 184.584 82.9632Z" fill="#F2E56A"/>
<path d="M161.916 82.5925C161.913 82.6117 161.907 82.6304 161.898 82.648C160.812 84.8936 157.421 85.2872 153.127 85.7893C149.702 86.1804 145.813 86.6396 142.281 88.1434C138.346 89.8238 134.356 90.3486 131.445 90.7397C129.084 91.0576 127.226 91.2973 126.758 91.9634C126.725 92.01 126.699 92.0609 126.68 92.1148H125.999C126.026 91.9181 126.1 91.731 126.215 91.5698C126.846 90.6741 128.639 90.4344 131.347 90.0761C134.225 89.6926 138.16 89.1703 142.019 87.5328C145.639 85.9836 149.584 85.537 153.051 85.1333C156.981 84.6841 160.108 84.3158 161.182 82.5925H161.916Z" fill="#EDAB00"/>
<path d="M120.697 92.1145H119.983C117.494 87.0556 100.101 86.5812 84.3046 87.8605C84.2563 87.864 84.2079 87.8568 84.1627 87.8393C84.1175 87.8219 84.0767 87.7946 84.0432 87.7595C83.9921 87.7074 83.9617 87.6383 83.9577 87.5653C83.9555 87.5357 83.9572 87.506 83.9627 87.477C83.975 87.4079 84.0098 87.3448 84.0617 87.2978C84.1136 87.2508 84.1796 87.2224 84.2493 87.2171C87.6183 86.9446 96.3247 86.3542 104.315 86.7705C113.994 87.2751 119.497 89.069 120.697 92.1145Z" fill="#EDAB00"/>
<path d="M148.284 82.5925C148.252 82.6482 148.205 82.6936 148.149 82.7237C144.325 84.7422 138.042 87.0206 129.162 87.0206C128.302 87.0206 127.432 87.0004 126.52 86.955C121.519 86.7052 112.141 85.865 105.489 82.9634C105.42 82.9325 105.364 82.8789 105.329 82.8114C105.295 82.7439 105.285 82.6666 105.3 82.5925H106.283C112.808 85.267 121.733 86.0567 126.552 86.3015C135.988 86.7682 142.733 84.6463 146.942 82.5925H148.284Z" fill="#EDAB00"/>
<path d="M184.304 87.7522C184.243 87.955 184.169 88.1538 184.083 88.3476C184.037 88.3436 183.993 88.3298 183.952 88.3073L183.626 88.1332C178.605 85.4385 173.421 82.6479 166.085 85.6252C159.05 88.4713 156.335 89.0819 147.943 89.7152C145.534 89.8968 143.802 90.7042 142.771 92.1147H142.004C143.108 90.2904 145.092 89.2661 147.91 89.0491C156.214 88.4385 158.899 87.8279 165.856 85.0146C169.257 83.6294 172.538 83.3443 175.887 84.1189C178.821 84.8077 181.431 86.203 183.94 87.5554L184.267 87.7295L184.304 87.7522Z" fill="#EDAB00"/>
<path d="M171.995 86.7579C169.028 86.7579 166.019 87.4139 166.019 88.6679C166.019 89.9219 169.028 90.5779 171.995 90.5779C174.962 90.5779 177.974 89.9219 177.974 88.6679C177.974 87.4139 174.964 86.7579 171.995 86.7579ZM171.995 89.9219C168.551 89.9219 166.67 89.0944 166.67 88.6679C166.67 88.2415 168.551 87.4139 171.995 87.4139C175.439 87.4139 177.323 88.2415 177.323 88.6679C177.323 89.0944 175.442 89.9219 171.995 89.9219Z" fill="#EDAB00"/>
</svg>
