<svg width="269" height="287" viewBox="0 0 269 287" fill="none" xmlns="http://www.w3.org/2000/svg">
<path d="M7.35663 168.941C31.3983 230.956 126.034 307.823 195.496 281.793C264.955 255.763 282.937 136.699 258.896 74.6812C234.854 12.6635 159.054 -16.5064 89.5945 9.52039C20.1353 35.5472 -16.685 106.927 7.35663 168.941Z" fill="#D4EAFF"/>
<path d="M137.901 139.139C139.947 138.328 141.719 136.947 143.009 135.158C145.183 132.158 146.868 130.762 148.063 130.904C151.215 131.275 154.856 140.874 157.845 141.157L148.552 152.949L137.901 139.139Z" fill="#409DF3"/>
<path d="M148.965 153.079L194.3 94.9511C194.353 94.8831 194.378 94.7966 194.367 94.7107C194.357 94.6248 194.313 94.5464 194.246 94.4929C194.178 94.4393 194.092 94.415 194.006 94.4252C193.921 94.4354 193.842 94.4794 193.789 94.5474L148.542 152.545L103.304 94.5476C103.251 94.4796 103.173 94.4357 103.087 94.4255C103.002 94.4153 102.916 94.4396 102.848 94.4931C102.78 94.5467 102.736 94.625 102.726 94.7109C102.716 94.7969 102.74 94.8833 102.794 94.9513L148.128 153.08L102.794 211.208C102.768 211.241 102.748 211.28 102.737 211.321C102.726 211.362 102.723 211.405 102.728 211.447C102.734 211.49 102.748 211.53 102.769 211.567C102.79 211.604 102.818 211.637 102.852 211.662C102.886 211.688 102.924 211.707 102.965 211.718C103.006 211.729 103.049 211.732 103.091 211.726C103.133 211.72 103.174 211.706 103.21 211.685C103.247 211.663 103.279 211.635 103.304 211.601L148.542 153.603L193.778 211.601C193.804 211.635 193.836 211.663 193.873 211.685C193.909 211.706 193.95 211.72 193.992 211.726C194.034 211.732 194.077 211.729 194.118 211.718C194.159 211.707 194.197 211.688 194.231 211.662C194.265 211.637 194.293 211.604 194.314 211.567C194.335 211.53 194.349 211.49 194.354 211.447C194.36 211.405 194.357 211.362 194.346 211.321C194.334 211.28 194.315 211.241 194.289 211.208L148.965 153.079Z" fill="white"/>
<path d="M116.543 209.31C116.543 209.31 117.358 207.358 119.749 205.677C122.14 203.996 124.532 201.488 125.564 199.045C126.597 196.601 129.587 190.395 132.52 187.886C135.454 185.377 138.498 182.868 139.857 179.585C141.215 176.302 146.161 166.822 148.498 166.888C150.835 166.954 149.855 170.521 152.084 171.633C154.314 172.745 156.052 175.887 157.247 178.603C158.443 181.319 160.943 186.839 163.606 187.667C166.268 188.496 168.551 192.271 170.562 196.732C172.573 201.193 176.703 202.033 180.235 209.352L116.543 209.31Z" fill="#409DF3"/>
<path d="M148.487 156.952C148.461 156.954 148.436 156.95 148.411 156.941C148.39 156.93 148.368 156.93 148.346 156.908C148.322 156.898 148.3 156.883 148.281 156.865C148.259 156.843 148.237 156.832 148.227 156.81C148.151 156.71 148.112 156.587 148.118 156.461C148.119 156.336 148.157 156.215 148.227 156.112C148.248 156.09 148.259 156.068 148.281 156.046C148.3 156.028 148.322 156.014 148.346 156.003L148.411 155.97C148.462 155.959 148.513 155.959 148.564 155.97C148.585 155.981 148.618 155.992 148.639 156.003C148.66 156.014 148.682 156.036 148.704 156.046C148.725 156.065 148.744 156.087 148.758 156.112C148.834 156.212 148.873 156.335 148.867 156.461C148.866 156.586 148.828 156.707 148.758 156.81C148.737 156.832 148.726 156.854 148.704 156.865C148.685 156.883 148.663 156.898 148.639 156.908C148.615 156.921 148.589 156.932 148.564 156.941C148.539 156.951 148.513 156.955 148.487 156.952Z" fill="#409DF3"/>
<path d="M148.487 161.162C148.389 161.15 148.3 161.1 148.238 161.023C148.177 160.945 148.149 160.846 148.16 160.748V160.148C148.148 160.099 148.148 160.047 148.159 159.998C148.17 159.948 148.192 159.902 148.223 159.862C148.254 159.822 148.294 159.79 148.34 159.768C148.386 159.745 148.435 159.734 148.486 159.734C148.537 159.734 148.587 159.745 148.632 159.768C148.678 159.79 148.718 159.822 148.749 159.862C148.78 159.902 148.802 159.948 148.813 159.998C148.824 160.047 148.824 160.099 148.812 160.148V160.748C148.823 160.846 148.795 160.944 148.734 161.022C148.673 161.1 148.584 161.15 148.487 161.162Z" fill="#409DF3"/>
<path d="M148.487 164.926C148.389 164.914 148.3 164.864 148.238 164.786C148.177 164.708 148.149 164.61 148.16 164.511V163.115C148.148 163.066 148.148 163.014 148.159 162.965C148.17 162.915 148.192 162.869 148.223 162.829C148.254 162.789 148.294 162.757 148.34 162.735C148.386 162.713 148.435 162.701 148.486 162.701C148.537 162.701 148.587 162.713 148.632 162.735C148.678 162.757 148.718 162.789 148.749 162.829C148.78 162.869 148.802 162.915 148.813 162.965C148.824 163.014 148.824 163.066 148.812 163.115V164.511C148.823 164.609 148.795 164.708 148.734 164.785C148.673 164.863 148.584 164.913 148.487 164.926Z" fill="#409DF3"/>
<path d="M198.005 215.092V218.036C198.006 218.085 197.997 218.134 197.978 218.179C197.96 218.224 197.933 218.265 197.898 218.3C197.864 218.335 197.823 218.362 197.778 218.38C197.733 218.399 197.684 218.408 197.636 218.407H97.5329C97.4843 218.408 97.4361 218.398 97.3911 218.38C97.3461 218.361 97.3052 218.334 97.2708 218.299C97.2365 218.265 97.2092 218.224 97.1908 218.179C97.1723 218.134 97.163 218.085 97.1633 218.036V215.092C97.1639 213.446 97.8157 211.868 98.9754 210.704C100.135 209.54 101.708 208.886 103.348 208.885H191.8C193.442 208.885 195.018 209.539 196.181 210.702C197.344 211.865 198 213.444 198.005 215.092Z" fill="#409DF3"/>
<path d="M162.325 218.408H160.997C156.786 216.351 150.041 214.232 140.608 214.698C129.885 215.236 123.559 217.093 120.341 218.408H118.901C118.934 218.335 118.992 218.277 119.064 218.244C121.903 216.934 128.477 214.643 140.575 214.045C150.855 213.543 158.008 216.074 162.194 218.286C162.248 218.314 162.293 218.356 162.325 218.408Z" fill="#1A65AA"/>
<path d="M197.802 213.53C195.355 214.85 192.809 216.19 189.952 216.858C188.763 217.139 187.544 217.282 186.322 217.285C184.119 217.268 181.941 216.819 179.909 215.965C172.954 213.149 170.269 212.539 161.965 211.918C159.162 211.714 157.183 210.689 156.08 208.885C156.069 208.871 156.06 208.857 156.052 208.842H140.693V208.885C140.689 209.014 140.728 209.14 140.804 209.243C141.259 209.877 143.051 210.084 145.334 210.346C148.281 210.684 152.323 211.153 156.323 212.854C159.856 214.36 163.748 214.82 167.172 215.211C171.464 215.713 174.855 216.106 175.941 218.352C175.95 218.37 175.957 218.388 175.961 218.407H175.227C174.154 216.687 171.024 216.316 167.094 215.867C163.627 215.463 159.682 215.014 156.062 213.467C152.15 211.797 148.16 211.34 145.249 211C142.619 210.707 140.879 210.5 140.258 209.637C140.102 209.418 140.022 209.154 140.029 208.885C140.031 208.874 140.032 208.863 140.032 208.852H134.835C134.833 208.862 134.828 208.875 134.825 208.885C133.787 212.105 128.095 213.949 117.923 214.36C116.467 214.416 114.923 214.449 113.304 214.449C108.696 214.449 103.466 214.219 97.9251 213.75C97.8401 213.743 97.7614 213.702 97.7062 213.637C97.651 213.571 97.624 213.487 97.631 213.402C97.638 213.316 97.6785 213.237 97.7435 213.182C97.8086 213.126 97.8929 213.099 97.9779 213.106C105.457 213.727 112.336 213.947 117.902 213.717C127.418 213.323 133.012 211.666 134.129 208.885C134.133 208.878 134.136 208.87 134.139 208.862H117.357C117.275 208.855 117.2 208.818 117.144 208.757C117.089 208.697 117.059 208.618 117.059 208.536C117.059 208.454 117.089 208.375 117.144 208.314C117.2 208.254 117.275 208.216 117.357 208.209H180.376C180.421 208.205 180.467 208.21 180.51 208.225C180.553 208.24 180.592 208.263 180.626 208.294C180.659 208.325 180.686 208.362 180.704 208.404C180.722 208.445 180.732 208.49 180.732 208.536C180.732 208.581 180.722 208.626 180.704 208.668C180.686 208.709 180.659 208.747 180.626 208.778C180.592 208.808 180.553 208.832 180.51 208.846C180.467 208.861 180.421 208.866 180.376 208.862H156.814C156.819 208.871 156.825 208.878 156.831 208.885C157.865 210.303 159.587 211.106 161.998 211.295C170.388 211.928 173.105 212.539 180.137 215.385C187.436 218.349 192.605 215.599 197.606 212.917C197.681 213.118 197.747 213.323 197.802 213.53Z" fill="#1A65AA"/>
<path d="M186.041 211.078C182.594 211.078 180.713 211.905 180.713 212.332C180.713 212.758 182.594 213.586 186.041 213.586C189.488 213.586 191.366 212.758 191.366 212.332C191.366 211.905 189.485 211.078 186.041 211.078ZM186.041 210.422C183.061 210.422 180.062 211.078 180.062 212.332C180.062 213.586 183.071 214.239 186.041 214.239C189.01 214.239 192.017 213.586 192.017 212.332C192.017 211.078 189.007 210.422 186.041 210.422Z" fill="#1A65AA"/>
<path d="M162.41 87.0212H152.411C152.313 87.0212 152.219 86.9821 152.149 86.9125C152.08 86.843 152.041 86.7486 152.041 86.6503C152.041 86.5519 152.08 86.4575 152.149 86.388C152.219 86.3184 152.313 86.2794 152.411 86.2794H162.41C162.508 86.2794 162.602 86.3184 162.671 86.388C162.741 86.4575 162.78 86.5519 162.78 86.6503C162.78 86.7486 162.741 86.843 162.671 86.9125C162.602 86.9821 162.508 87.0212 162.41 87.0212Z" fill="#1A65AA"/>
<path d="M187.137 97.9617C187.107 97.9003 187.061 97.8484 187.003 97.8119C186.945 97.7753 186.879 97.7555 186.811 97.7546H181.214C181.151 97.755 181.089 97.7712 181.034 97.8017C180.979 97.8322 180.932 97.876 180.899 97.9292L157.476 135.267C157.424 135.347 157.405 135.444 157.423 135.538C157.442 135.631 157.495 135.714 157.573 135.769C157.635 135.81 157.706 135.833 157.78 135.834C157.836 135.833 157.891 135.819 157.942 135.795C157.992 135.77 158.037 135.735 158.073 135.692L187.094 98.3546C187.14 98.3012 187.169 98.2351 187.176 98.1649C187.184 98.0948 187.171 98.0239 187.137 97.9617Z" fill="white"/>
<path d="M127.825 185.891C127.759 185.843 127.678 185.822 127.597 185.832C127.516 185.842 127.442 185.883 127.39 185.945L111.368 205.198C111.33 205.246 111.305 205.305 111.297 205.366C111.29 205.428 111.299 205.49 111.325 205.547C111.35 205.604 111.391 205.652 111.443 205.685C111.495 205.718 111.556 205.734 111.618 205.732L116.009 205.765C116.065 205.765 116.12 205.751 116.17 205.724C116.219 205.698 116.261 205.659 116.292 205.612L127.922 186.327C127.961 186.255 127.973 186.171 127.955 186.091C127.938 186.01 127.891 185.939 127.825 185.891Z" fill="white"/>
<path d="M173.964 104.081C173.932 104.023 173.885 103.975 173.827 103.942C173.769 103.909 173.704 103.893 173.637 103.896H171.062C170.995 103.895 170.929 103.913 170.871 103.948C170.814 103.983 170.767 104.033 170.735 104.092L166.214 112.741C166.188 112.796 166.174 112.855 166.174 112.916C166.174 112.976 166.188 113.036 166.214 113.09C166.242 113.145 166.284 113.191 166.336 113.224C166.388 113.256 166.447 113.274 166.508 113.276L168.377 113.429H168.41C168.474 113.43 168.538 113.413 168.593 113.38C168.649 113.347 168.695 113.3 168.725 113.243L173.964 104.44C173.996 104.386 174.013 104.324 174.013 104.261C174.013 104.198 173.996 104.136 173.964 104.081Z" fill="white"/>
<path d="M198.584 85.9632V88.9077C198.584 89.5332 198.49 90.155 198.304 90.7521C198.243 90.9549 198.169 91.1538 198.083 91.3476C197.608 92.4652 196.815 93.4181 195.805 94.0878C194.794 94.7575 193.61 95.1145 192.399 95.1146H103.946C102.629 95.1142 101.345 94.6916 100.284 93.9083C99.2218 93.1249 98.4369 92.0219 98.0433 90.7597C98.0131 90.6663 97.9855 90.573 97.9629 90.4771C97.8292 89.9648 97.7616 89.4373 97.7617 88.9077V85.9632C97.7614 85.9144 97.7707 85.866 97.7892 85.8209C97.8076 85.7757 97.8348 85.7347 97.8692 85.7002C97.9036 85.6657 97.9445 85.6384 97.9895 85.6199C98.0345 85.6014 98.0827 85.592 98.1313 85.5923H198.234C198.282 85.5915 198.329 85.6008 198.373 85.6194C198.418 85.638 198.457 85.6656 198.49 85.7005C198.523 85.7354 198.548 85.7768 198.564 85.822C198.58 85.8673 198.587 85.9153 198.584 85.9632Z" fill="#409DF3"/>
<path d="M175.916 85.5925C175.913 85.6117 175.907 85.6304 175.898 85.648C174.812 87.8936 171.421 88.2872 167.127 88.7893C163.702 89.1804 159.813 89.6396 156.281 91.1434C152.346 92.8238 148.356 93.3486 145.445 93.7397C143.084 94.0576 141.226 94.2973 140.758 94.9634C140.725 95.01 140.699 95.0609 140.68 95.1148H139.999C140.026 94.9181 140.1 94.731 140.215 94.5698C140.846 93.6741 142.639 93.4344 145.347 93.0761C148.225 92.6926 152.16 92.1703 156.019 90.5328C159.639 88.9836 163.584 88.537 167.051 88.1333C170.981 87.6841 174.108 87.3158 175.182 85.5925H175.916Z" fill="#1A65AA"/>
<path d="M134.697 95.1145H133.983C131.494 90.0556 114.101 89.5812 98.3046 90.8605C98.2563 90.864 98.2079 90.8568 98.1627 90.8393C98.1175 90.8219 98.0767 90.7946 98.0432 90.7595C97.9921 90.7074 97.9617 90.6383 97.9577 90.5653C97.9555 90.5357 97.9572 90.506 97.9627 90.477C97.975 90.4079 98.0098 90.3448 98.0617 90.2978C98.1136 90.2508 98.1796 90.2224 98.2493 90.2171C101.618 89.9446 110.325 89.3542 118.315 89.7705C127.994 90.2751 133.497 92.069 134.697 95.1145Z" fill="#1A65AA"/>
<path d="M162.284 85.5925C162.252 85.6482 162.205 85.6936 162.149 85.7237C158.325 87.7422 152.042 90.0206 143.162 90.0206C142.302 90.0206 141.432 90.0004 140.52 89.955C135.519 89.7052 126.141 88.865 119.489 85.9634C119.42 85.9325 119.364 85.8789 119.329 85.8114C119.295 85.7439 119.285 85.6666 119.3 85.5925H120.283C126.808 88.267 135.733 89.0567 140.552 89.3015C149.988 89.7682 156.733 87.6463 160.942 85.5925H162.284Z" fill="#1A65AA"/>
<path d="M198.304 90.7522C198.243 90.955 198.169 91.1538 198.083 91.3477C198.037 91.3436 197.993 91.3299 197.952 91.3073L197.626 91.1332C192.605 88.4385 187.421 85.6479 180.085 88.6252C173.05 91.4713 170.335 92.0819 161.943 92.7152C159.534 92.8969 157.802 93.7043 156.771 95.1147H156.004C157.108 93.2905 159.092 92.2661 161.91 92.0491C170.214 91.4385 172.899 90.8279 179.856 88.0146C183.257 86.6294 186.538 86.3443 189.887 87.1189C192.821 87.8077 195.431 89.203 197.94 90.5554L198.267 90.7295L198.304 90.7522Z" fill="#1A65AA"/>
<path d="M185.995 89.7579C183.028 89.7579 180.019 90.4139 180.019 91.6679C180.019 92.9219 183.028 93.5779 185.995 93.5779C188.962 93.5779 191.974 92.9219 191.974 91.6679C191.974 90.4139 188.964 89.7579 185.995 89.7579ZM185.995 92.9219C182.551 92.9219 180.67 92.0944 180.67 91.6679C180.67 91.2415 182.551 90.4139 185.995 90.4139C189.439 90.4139 191.323 91.2415 191.323 91.6679C191.323 92.0944 189.442 92.9219 185.995 92.9219Z" fill="#1A65AA"/>
</svg>
