<svg width="269" height="287" viewBox="0 0 269 287" fill="none" xmlns="http://www.w3.org/2000/svg">
<path d="M261.643 118.059C237.602 56.0442 142.966 -20.8226 73.504 5.20728C4.04477 31.2372 -13.9373 150.301 10.1044 212.319C34.1461 274.336 109.946 303.506 179.405 277.48C248.865 251.453 285.685 180.073 261.643 118.059Z" fill="#FFD4D8"/>
<path d="M117.9 139.139C119.946 138.328 121.719 136.947 123.009 135.158C125.183 132.158 126.867 130.762 128.062 130.904C131.215 131.275 134.855 140.874 137.845 141.157L128.552 152.949L117.9 139.139Z" fill="#FB6F7B"/>
<path d="M128.965 153.079L174.3 94.9511C174.353 94.8831 174.377 94.7966 174.367 94.7107C174.357 94.6248 174.313 94.5464 174.245 94.4929C174.178 94.4393 174.092 94.415 174.006 94.4252C173.92 94.4354 173.842 94.4794 173.789 94.5474L128.541 152.545L83.3042 94.5476C83.2508 94.4796 83.1728 94.4357 83.0872 94.4255C83.0015 94.4153 82.9154 94.4396 82.8476 94.4931C82.7799 94.5467 82.7361 94.625 82.7259 94.7109C82.7157 94.7969 82.74 94.8833 82.7933 94.9513L128.128 153.08L82.7933 211.208C82.7673 211.241 82.7481 211.28 82.7369 211.321C82.7257 211.362 82.7228 211.405 82.7282 211.447C82.7336 211.49 82.7473 211.53 82.7685 211.567C82.7897 211.604 82.8179 211.637 82.8516 211.662C82.8853 211.688 82.9238 211.707 82.9648 211.718C83.0059 211.729 83.0487 211.732 83.0907 211.726C83.1328 211.72 83.1733 211.706 83.2099 211.685C83.2466 211.663 83.2786 211.635 83.3042 211.601L128.541 153.603L173.778 211.601C173.804 211.635 173.836 211.663 173.872 211.685C173.909 211.706 173.949 211.72 173.992 211.726C174.034 211.732 174.076 211.729 174.117 211.718C174.158 211.707 174.197 211.688 174.231 211.662C174.264 211.637 174.293 211.604 174.314 211.567C174.335 211.53 174.349 211.49 174.354 211.447C174.36 211.405 174.357 211.362 174.345 211.321C174.334 211.28 174.315 211.241 174.289 211.208L128.965 153.079Z" fill="white"/>
<path d="M96.5425 209.31C96.5425 209.31 97.3578 207.358 99.749 205.677C102.14 203.996 104.531 201.488 105.564 199.045C106.596 196.601 109.587 190.395 112.52 187.886C115.454 185.377 118.498 182.868 119.857 179.585C121.215 176.302 126.161 166.822 128.498 166.888C130.834 166.954 129.855 170.521 132.084 171.633C134.313 172.745 136.052 175.887 137.247 178.603C138.442 181.319 140.943 186.839 143.606 187.667C146.268 188.496 148.551 192.271 150.562 196.732C152.572 201.193 156.703 202.033 160.235 209.352L96.5425 209.31Z" fill="#FB6F7B"/>
<path d="M128.487 156.952C128.461 156.954 128.435 156.95 128.411 156.941C128.389 156.93 128.368 156.93 128.346 156.908C128.322 156.898 128.3 156.883 128.281 156.865C128.259 156.843 128.237 156.832 128.226 156.81C128.15 156.71 128.112 156.587 128.118 156.461C128.119 156.336 128.157 156.215 128.226 156.112C128.248 156.09 128.259 156.068 128.281 156.046C128.3 156.028 128.322 156.014 128.346 156.003L128.411 155.97C128.461 155.959 128.513 155.959 128.563 155.97C128.585 155.981 128.618 155.992 128.639 156.003C128.66 156.014 128.682 156.036 128.704 156.046C128.725 156.065 128.743 156.087 128.758 156.112C128.834 156.212 128.873 156.335 128.867 156.461C128.866 156.586 128.828 156.707 128.758 156.81C128.737 156.832 128.726 156.854 128.704 156.865C128.685 156.883 128.663 156.898 128.639 156.908C128.614 156.921 128.589 156.932 128.563 156.941C128.539 156.951 128.513 156.955 128.487 156.952Z" fill="#FB6F7B"/>
<path d="M128.487 161.162C128.389 161.15 128.3 161.1 128.238 161.023C128.177 160.945 128.149 160.846 128.16 160.748V160.148C128.148 160.099 128.148 160.047 128.159 159.998C128.17 159.948 128.192 159.902 128.223 159.862C128.254 159.822 128.294 159.79 128.34 159.768C128.386 159.745 128.435 159.734 128.486 159.734C128.537 159.734 128.587 159.745 128.632 159.768C128.678 159.79 128.718 159.822 128.749 159.862C128.78 159.902 128.802 159.948 128.813 159.998C128.824 160.047 128.824 160.099 128.812 160.148V160.748C128.823 160.846 128.795 160.944 128.734 161.022C128.673 161.1 128.584 161.15 128.487 161.162Z" fill="#FB6F7B"/>
<path d="M128.487 164.926C128.389 164.914 128.3 164.864 128.238 164.786C128.177 164.708 128.149 164.61 128.16 164.511V163.115C128.148 163.066 128.148 163.014 128.159 162.965C128.17 162.915 128.192 162.869 128.223 162.829C128.254 162.789 128.294 162.757 128.34 162.735C128.386 162.713 128.435 162.701 128.486 162.701C128.537 162.701 128.587 162.713 128.632 162.735C128.678 162.757 128.718 162.789 128.749 162.829C128.78 162.869 128.802 162.915 128.813 162.965C128.824 163.014 128.824 163.066 128.812 163.115V164.511C128.823 164.609 128.795 164.708 128.734 164.785C128.673 164.863 128.584 164.913 128.487 164.926Z" fill="#FB6F7B"/>
<path d="M178.005 215.092V218.036C178.006 218.085 177.996 218.134 177.978 218.179C177.96 218.224 177.932 218.265 177.898 218.3C177.864 218.335 177.823 218.362 177.778 218.38C177.732 218.399 177.684 218.408 177.635 218.407H77.5327C77.484 218.408 77.4358 218.398 77.3908 218.38C77.3459 218.361 77.305 218.334 77.2706 218.299C77.2362 218.265 77.209 218.224 77.1905 218.179C77.1721 218.134 77.1628 218.085 77.1631 218.036V215.092C77.1636 213.446 77.8154 211.868 78.9752 210.704C80.1349 209.54 81.7077 208.886 83.3479 208.885H171.8C173.442 208.885 175.017 209.539 176.18 210.702C177.343 211.865 178 213.444 178.005 215.092Z" fill="#FB6F7B"/>
<path d="M142.324 218.408H140.997C136.786 216.351 130.04 214.232 120.607 214.698C109.885 215.236 103.559 217.093 100.341 218.408H98.9004C98.9336 218.335 98.9916 218.277 99.0638 218.244C101.902 216.934 108.477 214.643 120.575 214.045C130.855 213.543 138.008 216.074 142.194 218.286C142.248 218.314 142.293 218.356 142.324 218.408Z" fill="#921F29"/>
<path d="M177.801 213.53C175.355 214.85 172.808 216.19 169.952 216.858C168.762 217.139 167.544 217.282 166.322 217.285C164.119 217.268 161.94 216.819 159.908 215.965C152.954 213.149 150.269 212.539 141.965 211.918C139.161 211.714 137.183 210.689 136.079 208.885C136.069 208.871 136.06 208.857 136.051 208.842H120.693V208.885C120.689 209.014 120.728 209.14 120.803 209.243C121.258 209.877 123.051 210.084 125.334 210.346C128.28 210.684 132.323 211.153 136.323 212.854C139.855 214.36 143.747 214.82 147.171 215.211C151.463 215.713 154.855 216.106 155.941 218.352C155.95 218.37 155.956 218.388 155.961 218.407H155.227C154.153 216.687 151.023 216.316 147.093 215.867C143.627 215.463 139.682 215.014 136.061 213.467C132.149 211.797 128.16 211.34 125.248 211C122.618 210.707 120.879 210.5 120.258 209.637C120.101 209.418 120.021 209.154 120.029 208.885C120.031 208.874 120.032 208.863 120.031 208.852H114.835C114.832 208.862 114.827 208.875 114.825 208.885C113.786 212.105 108.094 213.949 97.9221 214.36C96.4664 214.416 94.9227 214.449 93.3036 214.449C88.6952 214.449 83.4658 214.219 77.9246 213.75C77.8396 213.743 77.7609 213.702 77.7057 213.637C77.6505 213.571 77.6235 213.487 77.6305 213.402C77.6375 213.316 77.678 213.237 77.743 213.182C77.8081 213.126 77.8924 213.099 77.9774 213.106C85.457 213.727 92.3357 213.947 97.9019 213.717C107.418 213.323 113.012 211.666 114.128 208.885C114.133 208.878 114.136 208.87 114.138 208.862H97.3564C97.275 208.855 97.1992 208.818 97.144 208.757C97.0888 208.697 97.0582 208.618 97.0582 208.536C97.0582 208.454 97.0888 208.375 97.144 208.314C97.1992 208.254 97.275 208.216 97.3564 208.209H160.376C160.421 208.205 160.466 208.21 160.509 208.225C160.552 208.24 160.592 208.263 160.625 208.294C160.658 208.325 160.685 208.362 160.703 208.404C160.722 208.445 160.731 208.49 160.731 208.536C160.731 208.581 160.722 208.626 160.703 208.668C160.685 208.709 160.658 208.747 160.625 208.778C160.592 208.808 160.552 208.832 160.509 208.846C160.466 208.861 160.421 208.866 160.376 208.862H136.813C136.818 208.871 136.824 208.878 136.831 208.885C137.864 210.303 139.586 211.106 141.997 211.295C150.387 211.928 153.105 212.539 160.137 215.385C167.435 218.349 172.604 215.599 177.605 212.917C177.681 213.118 177.746 213.323 177.801 213.53Z" fill="#921F29"/>
<path d="M166.04 211.078C162.593 211.078 160.713 211.905 160.713 212.332C160.713 212.758 162.593 213.586 166.04 213.586C169.487 213.586 171.365 212.758 171.365 212.332C171.365 211.905 169.485 211.078 166.04 211.078ZM166.04 210.422C163.061 210.422 160.062 211.078 160.062 212.332C160.062 213.586 163.071 214.239 166.04 214.239C169.009 214.239 172.016 213.586 172.016 212.332C172.016 211.078 169.007 210.422 166.04 210.422Z" fill="#921F29"/>
<path d="M142.41 87.0212H132.411C132.313 87.0212 132.219 86.9821 132.149 86.9125C132.08 86.843 132.041 86.7486 132.041 86.6503C132.041 86.5519 132.08 86.4575 132.149 86.388C132.219 86.3184 132.313 86.2794 132.411 86.2794H142.41C142.508 86.2794 142.602 86.3184 142.671 86.388C142.741 86.4575 142.78 86.5519 142.78 86.6503C142.78 86.7486 142.741 86.843 142.671 86.9125C142.602 86.9821 142.508 87.0212 142.41 87.0212Z" fill="#921F29"/>
<path d="M167.137 97.9617C167.107 97.9003 167.061 97.8484 167.003 97.8119C166.945 97.7753 166.879 97.7555 166.811 97.7546H161.214C161.151 97.755 161.089 97.7712 161.034 97.8017C160.979 97.8322 160.932 97.876 160.899 97.9292L137.476 135.267C137.424 135.347 137.405 135.444 137.423 135.538C137.442 135.631 137.495 135.714 137.573 135.769C137.635 135.81 137.706 135.833 137.78 135.834C137.836 135.833 137.891 135.819 137.942 135.795C137.992 135.77 138.037 135.735 138.073 135.692L167.094 98.3546C167.14 98.3012 167.169 98.2351 167.176 98.1649C167.184 98.0948 167.171 98.0239 167.137 97.9617Z" fill="white"/>
<path d="M107.825 185.891C107.759 185.843 107.677 185.822 107.597 185.832C107.516 185.842 107.442 185.883 107.39 185.945L91.368 205.198C91.3293 205.246 91.3047 205.305 91.297 205.366C91.2893 205.428 91.2988 205.49 91.3245 205.547C91.3493 205.604 91.3905 205.652 91.4428 205.685C91.4951 205.718 91.5561 205.734 91.6179 205.732L96.0091 205.765C96.065 205.765 96.1201 205.751 96.1693 205.724C96.2186 205.698 96.2606 205.659 96.2917 205.612L107.922 186.327C107.961 186.255 107.973 186.171 107.955 186.091C107.937 186.01 107.891 185.939 107.825 185.891Z" fill="white"/>
<path d="M153.964 104.081C153.932 104.023 153.884 103.975 153.827 103.942C153.769 103.909 153.703 103.893 153.637 103.896H151.062C150.995 103.895 150.929 103.913 150.871 103.948C150.813 103.983 150.766 104.033 150.735 104.092L146.214 112.741C146.187 112.796 146.173 112.855 146.173 112.916C146.173 112.976 146.187 113.036 146.214 113.09C146.242 113.145 146.284 113.191 146.336 113.224C146.387 113.256 146.447 113.274 146.508 113.276L148.377 113.429H148.41C148.474 113.43 148.538 113.413 148.593 113.38C148.649 113.347 148.694 113.3 148.725 113.243L153.964 104.44C153.996 104.386 154.012 104.324 154.012 104.261C154.012 104.198 153.996 104.136 153.964 104.081Z" fill="white"/>
<path d="M178.583 85.9632V88.9077C178.583 89.5332 178.489 90.155 178.304 90.7521C178.242 90.9549 178.168 91.1538 178.083 91.3476C177.607 92.4652 176.815 93.4181 175.804 94.0878C174.794 94.7575 173.609 95.1145 172.398 95.1146H83.946C82.6282 95.1142 81.3449 94.6916 80.2831 93.9083C79.2213 93.1249 78.4364 92.0219 78.0428 90.7597C78.0127 90.6663 77.985 90.573 77.9624 90.4771C77.8287 89.9648 77.7611 89.4373 77.7612 88.9077V85.9632C77.7609 85.9144 77.7702 85.866 77.7887 85.8209C77.8071 85.7757 77.8344 85.7347 77.8687 85.7002C77.9031 85.6657 77.944 85.6384 77.989 85.6199C78.034 85.6014 78.0822 85.592 78.1308 85.5923H178.234C178.281 85.5915 178.329 85.6008 178.373 85.6194C178.417 85.638 178.457 85.6656 178.49 85.7005C178.523 85.7354 178.548 85.7768 178.564 85.822C178.58 85.8673 178.586 85.9153 178.583 85.9632Z" fill="#FB6F7B"/>
<path d="M155.916 85.5925C155.913 85.6117 155.907 85.6304 155.898 85.648C154.812 87.8936 151.421 88.2872 147.127 88.7893C143.702 89.1804 139.813 89.6396 136.281 91.1434C132.346 92.8238 128.356 93.3486 125.445 93.7397C123.084 94.0576 121.226 94.2973 120.758 94.9634C120.725 95.01 120.699 95.0609 120.68 95.1148H119.999C120.026 94.9181 120.1 94.731 120.215 94.5698C120.846 93.6741 122.639 93.4344 125.347 93.0761C128.225 92.6926 132.16 92.1703 136.019 90.5328C139.639 88.9836 143.584 88.537 147.051 88.1333C150.981 87.6841 154.108 87.3158 155.182 85.5925H155.916Z" fill="#921F29"/>
<path d="M114.696 95.1145H113.982C111.493 90.0556 94.1007 89.5812 78.3044 90.8605C78.2561 90.864 78.2076 90.8568 78.1624 90.8393C78.1172 90.8219 78.0764 90.7946 78.0429 90.7595C77.9918 90.7074 77.9614 90.6383 77.9575 90.5653C77.9553 90.5357 77.957 90.506 77.9625 90.477C77.9748 90.4079 78.0096 90.3448 78.0615 90.2978C78.1134 90.2508 78.1794 90.2224 78.2491 90.2171C81.618 89.9446 90.3245 89.3542 98.3144 89.7705C107.994 90.2751 113.497 92.069 114.696 95.1145Z" fill="#921F29"/>
<path d="M142.284 85.5925C142.252 85.6482 142.205 85.6936 142.148 85.7237C138.324 87.7422 132.042 90.0206 123.162 90.0206C122.302 90.0206 121.432 90.0004 120.519 89.955C115.519 89.7052 106.141 88.865 99.4886 85.9634C99.4197 85.9325 99.3633 85.8789 99.329 85.8114C99.2947 85.7439 99.2845 85.6666 99.3001 85.5925H100.283C106.807 88.267 115.732 89.0567 120.552 89.3015C129.988 89.7682 136.733 87.6463 140.942 85.5925H142.284Z" fill="#921F29"/>
<path d="M178.304 90.7522C178.243 90.955 178.169 91.1538 178.083 91.3477C178.037 91.3436 177.993 91.3299 177.952 91.3073L177.625 91.1332C172.605 88.4385 167.421 85.6479 160.084 88.6252C153.05 91.4713 150.334 92.0819 141.942 92.7152C139.534 92.8969 137.802 93.7043 136.771 95.1147H136.004C137.108 93.2905 139.091 92.2661 141.91 92.0491C150.214 91.4385 152.899 90.8279 159.856 88.0146C163.257 86.6294 166.538 86.3443 169.887 87.1189C172.821 87.8077 175.431 89.203 177.94 90.5554L178.267 90.7295L178.304 90.7522Z" fill="#921F29"/>
<path d="M165.995 89.7579C163.028 89.7579 160.019 90.4139 160.019 91.6679C160.019 92.9219 163.028 93.5779 165.995 93.5779C168.962 93.5779 171.974 92.9219 171.974 91.6679C171.974 90.4139 168.964 89.7579 165.995 89.7579ZM165.995 92.9219C162.551 92.9219 160.67 92.0944 160.67 91.6679C160.67 91.2415 162.551 90.4139 165.995 90.4139C169.439 90.4139 171.323 91.2415 171.323 91.6679C171.323 92.0944 169.442 92.9219 165.995 92.9219Z" fill="#921F29"/>
</svg>
