<svg width="41" height="41" viewBox="0 0 41 41" fill="none" xmlns="http://www.w3.org/2000/svg">
<path opacity="0.35" d="M30.3872 35.9222H10.3872C7.62554 35.9222 5.38721 33.6857 5.38721 30.9263V12.6078H35.3872V30.9263C35.3872 33.6857 33.1489 35.9222 30.3872 35.9222Z" fill="#278D76"/>
<path d="M30.3873 19.269C30.0773 19.269 24.0306 19.269 23.7206 19.269C22.8006 19.269 22.054 20.0151 22.054 20.9344C22.054 21.8536 22.8006 22.5997 23.7206 22.5997C24.0306 22.5997 30.0773 22.5997 30.3873 22.5997C31.3073 22.5997 32.054 21.8536 32.054 20.9344C32.054 20.0151 31.3073 19.269 30.3873 19.269Z" fill="#278D76"/>
<path d="M30.3873 25.9303C30.0773 25.9303 24.0306 25.9303 23.7206 25.9303C22.8006 25.9303 22.054 26.6764 22.054 27.5956C22.054 28.5149 22.8006 29.2609 23.7206 29.2609C24.0306 29.2609 30.0773 29.2609 30.3873 29.2609C31.3073 29.2609 32.054 28.5149 32.054 27.5956C32.054 26.6764 31.3073 25.9303 30.3873 25.9303Z" fill="#278D76"/>
<path d="M35.3872 12.6078H5.38721V10.9425C5.38721 8.18305 7.62554 5.94653 10.3872 5.94653H30.3872C33.1489 5.94653 35.3872 8.18305 35.3872 10.9425V12.6078Z" fill="#278D76"/>
<path d="M17.0538 29.2609H10.3871C9.46713 29.2609 8.72046 28.5149 8.72046 27.5956V20.9344C8.72046 20.0151 9.46713 19.269 10.3871 19.269H17.0538C17.9738 19.269 18.7205 20.0151 18.7205 20.9344V27.5956C18.7205 28.5149 17.9738 29.2609 17.0538 29.2609Z" fill="#278D76"/>
</svg>
