<svg width="41" height="41" viewBox="0 0 41 41" fill="none" xmlns="http://www.w3.org/2000/svg">
<path opacity="0.35" d="M20.5002 3.41675C11.0651 3.41675 3.41688 11.065 3.41688 20.5001C3.41688 23.2197 4.06947 25.7805 5.19867 28.0629L3.4818 34.9287C3.09059 36.4918 4.5068 37.9097 6.07163 37.5185L12.9374 35.8016C15.2198 36.9308 17.7805 37.5834 20.5002 37.5834C29.9353 37.5834 37.5835 29.9352 37.5835 20.5001C37.5835 11.065 29.9353 3.41675 20.5002 3.41675Z" fill="#09BAA5"/>
<path d="M28.0047 23.0063C26.6227 21.6243 24.3813 21.6243 22.9993 23.0063L22.1178 23.8878L17.1124 18.8824L17.9939 18.0009C19.3759 16.6189 19.3759 14.3776 17.9939 12.9955C16.6118 11.6135 14.3705 11.6135 12.9885 12.9955C12.1053 13.8787 11.7926 15.1121 12.0386 16.2482C12.2488 17.8181 13.0739 21.4227 16.3248 24.6737C19.5758 27.9246 23.1804 28.7498 24.7503 28.9599C25.8864 29.2059 27.1198 28.8933 28.003 28.0101C29.3868 26.628 29.3868 24.3884 28.0047 23.0063Z" fill="#09BAA5"/>
</svg>
